<?xml version="1.0" encoding="iso-8859-1"?>
<!-- Generator: Adobe Illustrator 16.0.0, SVG Export Plug-In . SVG Version: 6.00 Build 0)  -->
<!DOCTYPE svg PUBLIC "-//W3C//DTD SVG 1.1//EN" "http://www.w3.org/Graphics/SVG/1.1/DTD/svg11.dtd">
<svg version="1.1" xmlns="http://www.w3.org/2000/svg" xmlns:xlink="http://www.w3.org/1999/xlink" x="0px" y="0px"
	 width="66.003px" height="66px" viewBox="0 0 66.003 66" style="enable-background:new 0 0 66.003 66;" xml:space="preserve">
<g id="Layer_67">
	<g>
		<defs>
			<circle id="SVGID_1_" cx="33.003" cy="33" r="33"/>
		</defs>
		<clipPath id="SVGID_2_">
			<use xlink:href="#SVGID_1_"  style="overflow:visible;"/>
		</clipPath>
		<rect style="clip-path:url(#SVGID_2_);fill:#FFFFFF;" width="65.999" height="65.998"/>
		<path style="clip-path:url(#SVGID_2_);fill:#62698A;" d="M20.292,59.934c-0.487,2.919-0.901,6.064-0.901,6.064h9.005
			l-2.711-12.854C22.621,53.937,21.079,55.22,20.292,59.934z"/>
		<path style="clip-path:url(#SVGID_2_);fill:#62698A;" d="M46.134,59.934c0.487,2.919,0.901,6.064,0.901,6.064h-9.004l2.71-12.854
			C43.805,53.937,45.347,55.22,46.134,59.934z"/>
		<path style="clip-path:url(#SVGID_2_);fill:#62698A;" d="M37.874,55.271c-3.184-1.82-8.527-1.354-11.208,0.845
			c-2.055,1.688,0.183,7.361-0.132,8.787c-0.062,0.278-0.185,0.653-0.351,1.096h13.319c-0.185-0.383-0.324-0.685-0.402-0.874
			C38.667,64.071,40.699,56.886,37.874,55.271z"/>
		<circle style="clip-path:url(#SVGID_2_);fill:#23232D;" cx="31.232" cy="60.782" r="0.829"/>
		<circle style="clip-path:url(#SVGID_2_);fill:#23232D;" cx="35.208" cy="60.75" r="0.83"/>
		<circle style="clip-path:url(#SVGID_2_);fill:#23232D;" cx="35.288" cy="63.824" r="0.829"/>
		<circle style="clip-path:url(#SVGID_2_);fill:#23232D;" cx="31.284" cy="63.832" r="0.83"/>
		<path style="clip-path:url(#SVGID_2_);fill:#23232D;" d="M28.083,54.43c-1.212,3.126,3.412,4.654,4.848,2.07
			c1.129,2.414,5.913,1.111,4.711-2.212C36.474,51.057,29.489,50.8,28.083,54.43z"/>
		<path style="opacity:0.15;clip-path:url(#SVGID_2_);" d="M25.435,56.611c2.057,3.003,7.336,3.547,9.863,2.76
			c1.933-0.603,4.646-2.147,5.371-5.28C42.606,45.711,19.624,48.124,25.435,56.611z"/>
		<path style="clip-path:url(#SVGID_2_);fill:#D9C9B2;" d="M25.403,55.77c2.1,2.897,7.515,3.404,10.111,2.633
			c1.986-0.589,4.776-2.094,5.531-5.128C43.064,45.162,19.471,47.58,25.403,55.77z"/>
		<path style="clip-path:url(#SVGID_2_);fill:#BDAF9B;" d="M27.201,52.294c1.438,1.563,5.188,2.347,7.684,1.596
			c1.412-0.427,3.743-0.967,4.365-2.58C40.91,46.992,23.14,47.878,27.201,52.294z"/>
		<path style="opacity:0.15;clip-path:url(#SVGID_2_);" d="M36.917,52.33c-2.059-0.029-3.681,0.481-4.662,1.091
			c1.97,0.938,3.013,5.707,3.236,9.339c0.062,0.991,0.099,2.117,0.15,3.238h7.319c-0.156-4.189-1.356-9.53-2.448-11.493
			C39.814,53.252,38.556,52.354,36.917,52.33z"/>
		<path style="clip-path:url(#SVGID_2_);fill:#D9C9B2;" d="M37.106,52.145c-2.169,0.037-3.866,0.598-4.887,1.235
			c2.095,0.871,3.73,4.398,4.093,9.579c0.05,0.71,0.088,1.836,0.148,3.039h7.225c-0.05-4.114-1.465-9.748-2.744-11.806
			C40.179,52.968,38.834,52.114,37.106,52.145z"/>
		<path style="clip-path:url(#SVGID_2_);fill:#F2E4CE;" d="M41.534,59.138c-0.4-1.273-1.01-3.348-1.91-4.253
			c-0.093,0.69-0.154,1.588,0,2.283c-0.441-0.683-1.194-2.31-2.257-1.545c-0.843,0.604-0.304,2.37-0.08,3.152
			c-0.297-0.681-0.82-1.076-1.357-1.568c-0.002-0.003-0.005-0.006-0.009-0.009c0.886,2.7,1.759,5.181,1.965,8.079
			c0.015,0.212,0.007,0.46-0.009,0.721h4.807c-0.007-0.229-0.017-0.453-0.026-0.665C42.554,63.177,42.183,61.197,41.534,59.138z"/>
		<path style="clip-path:url(#SVGID_2_);fill:#F2E4CE;" d="M32.902,55.808c-0.267-0.282-1.532-0.037-1.901-0.068
			c-0.626-0.055-1.318-0.174-1.918-0.365c-0.947-0.305-1.974-1.108-2.806-1.658c0,0-1.039-1.005-1.044-1.009
			c0.079,0.076,0.198,0.987,0.244,1.16c0.249,0.952,0.305,1.468,1.04,2.182c1.271,1.235,3.051,1.997,4.802,1.865
			c0.315-0.023,1.565-0.024,1.585-0.489c0.018-0.392-0.947-0.547-1.227-0.462C32.033,56.854,33.539,56.484,32.902,55.808z"/>
		<path style="clip-path:url(#SVGID_2_);fill:#C93712;" d="M36.488,9.905c-0.665-1.813-0.768-2.465-0.443-3.646
			c-1.387,0.562-2.72,2.02-2.946,3.153c-1.126-1.824-3.788-3.405-6.025-3.3c1.038,1.017,1.918,2.449,2.214,3.657
			c-1.49,0.192-2.538,0.205-4.034,0.383c-7.715,0.914-12.286,5.503-14.391,12.45c-0.994,3.278-0.629,7.863-0.199,11.231
			c0.219,1.708,1.876,6.067-0.056,7.359c-1.126,0.754-2.696-0.086-2.414-1.442c-1.854,1.065-2.107,3.636-0.587,5.007
			c1.578,1.421,4.463,1.599,6.386,0.948c-0.54,2.36,0.345,5.903,1.865,7.661c0.254-1.017,0.872-2.101,1.694-2.711
			c-0.508,0.378,1.613,1.488,1.835,1.538c0.839,0.185,1.762-0.203,2.546-0.455c2.212-0.711,3.924-1.933,6.289-2.396
			c1.9-0.371,18.593,2.956,18.129-0.362c0.12,0.862,0.187,1.756,0.295,2.629c1.794-1.354,3.358-3.544,3.172-5.884
			c2.629-0.339,4.369-1.092,3.603-4.039c-0.44,1.157-1.863,1.076-2.827,0.617c-3.184-1.518-0.845-7.015,0.609-10.741
			c0.406-1.042,0.744-1.948,0.872-2.587c0.091,0.07,1.798,2.983,1.774,3.101C54.851,27.175,55.351,10.991,36.488,9.905z"/>
		<circle style="clip-path:url(#SVGID_2_);fill:#FF3B3B;" cx="46.471" cy="41.579" r="1.351"/>
		<path style="clip-path:url(#SVGID_2_);fill:#FFBC82;" d="M29.805,14.192c-7.635,1.489-13.013,12.465-11.611,22.762
			c1.051,7.712,6.999,16.174,15.959,15.536c9.142-0.651,13.69-11.99,12.509-21.475C45.377,20.704,40.494,12.108,29.805,14.192z"/>
		<path style="opacity:0.2;clip-path:url(#SVGID_2_);fill:#A61900;" d="M44.841,17.813c-1.594-0.971-3.428-1.466-5.201-1.997
			c-3.007-0.899-6.115-1.398-9.257-1.454c-2.787-0.049-5.814-0.206-8.411,0.971c-1.428,0.646-3.181,1.531-3.715,3.112
			c-0.663,1.965-0.345,4.44-0.021,6.448c0.354,2.2,0.89,4.448,2.06,6.371c0.101-1.509,0.788-3.078,1.72-4.236
			c0.757-0.943,1.85-2.666,3.143-2.876c-0.016,0.003-0.896,2.484-1.037,2.74c-0.471,0.859-1.337,1.268-2.163,1.773
			c0.786,0.686,3.159,0.585,4.119,0.403c0.664-0.127,1.454-0.32,1.994-0.729c-0.084,0.228-0.109,0.517-0.114,0.778
			c1.259-0.156,2.535-0.094,3.826-0.351c0.99-0.196,1.858-0.535,2.769-0.877c-0.127,0.184-0.231,0.397-0.279,0.608
			c0.264-0.035,0.524-0.202,0.765-0.283c-0.114,0.283-0.228,0.603-0.203,0.902c2.457-0.031,5.024-0.04,7.472-0.243
			c1.646-0.137,3.416-1.056,4.18-2.557c0.543-1.063,0.855-2.265,0.774-3.443c-0.08-1.141,0.095-2.254-0.529-3.286
			C46.274,18.838,45.583,18.267,44.841,17.813z"/>
		<path style="clip-path:url(#SVGID_2_);fill:#FFBC82;" d="M15.53,32.665c-3.749,1.032-2.244,6.504,0.817,7.602
			c0.981,0.353,2.023,0.401,3.027,0.331c0.02-0.032,0.039-0.061,0.06-0.093c0.449-0.713-0.179-4.701-0.408-5.451
			C18.45,33.161,17.329,32.169,15.53,32.665z"/>
		<path style="opacity:0.3;clip-path:url(#SVGID_2_);fill:#BF3C1B;" d="M16.846,34.679c-0.843-0.389-2.945,0.312-1.957,1.959
			c0.521-1.527,1.452-0.526,1.31,0.559c-0.095,0.728-0.877,0.737-0.101,1.673c0.42,0.505,1.271,0.317,1.702,0.047
			C19.163,38.056,17.874,35.151,16.846,34.679z"/>
		<path style="clip-path:url(#SVGID_2_);fill:#C93712;" d="M45.807,16.72c-1.616-1.126-2.522-2.875-4.402-3.806
			c-1.635-0.811-3.58-1.489-5.376-1.836c-2.548-0.491-5.282-0.543-7.852-0.236c-4.322,0.516-9.539,2.567-10.906,7.146
			c-0.84,2.814-0.401,6.076-0.187,8.95c0.249,3.308-0.293,7.24,2.805,9.468c0.206-0.795,0.164-1.666,0.294-2.48
			c0.171-1.071,0.482-2.149,0.428-3.244c-0.053-1.103-0.16-1.965,0.098-3.093c0.417-1.819,1.784-3.351,3.225-4.474
			c1.229-0.958,1.98-0.475,1.576,0.997c-0.348,1.264-1.583,2.457-2.581,3.238c0.116-0.091,3.216,0.252,3.875,0.039
			c1.307-0.421,2.585-1.199,3.299-2.425c-0.635,1.091-0.436,1.79-1.442,2.762c2.972,0.9,4.656-0.059,7.165-1.876
			c-0.197,0.509-0.464,1.079-0.783,1.489c0.387-0.199,1.028-0.567,1.354-0.725c-0.183,0.51-0.4,0.988-0.607,1.47
			c1.974-0.306,3.959,0.49,5.925,0.025c2.446-0.579,6.326-3.54,6.771-6.142c0.183-1.067-0.078-2.1-0.594-3.009
			C47.382,18.066,46.629,17.293,45.807,16.72z"/>
		<path style="clip-path:url(#SVGID_2_);fill:#E85216;" d="M47.59,14.945c-0.521,2.476-3.373,4.495-5.57,5.089
			c-5.149,1.391-10.281,1.968-16.135,1.877c-3.584-0.057-9.943-0.42-12.292-2.598c-2.593,3.794-2.162,8.49-1.729,8.553
			c1.57,0.227,3.031-0.502,4.401-0.954c1.368-0.451,1.81,0.454,2.8,1.104c-0.749-0.492,2.489-4.188,2.979-4.572
			c1.088-0.854,2.682-1.479,3.89-0.673c1.222,0.815-0.071,2.56-0.3,3.587c2.133-0.85,4.119-2.047,5.949-3.441
			c-0.193,1.269-0.487,2.425-0.795,3.63c1.572-0.07,2.913-0.984,4.028-2.025c0.613-0.571,1.111-1.437,1.878-1.818
			c0.394-0.198,0.636-0.421,0.78,0.104c0.028,0.104-0.583,1.746-0.667,1.802c0.571-0.373,1.938-2.264,2.691-2.036
			c0.813,0.246-1.823,4.389-2.165,4.302c2.206,0.563,4.69-0.096,6.599-1.257c0.909-0.554,1.82-1.319,2.484-2.149
			c0.834-1.04,0.16-1.912,0.505-3.082c0.355,0.607,0.783,0.964,1.021,1.686c0.617,1.867,0.12,3.543-0.361,5.424
			c2.582,1.062,3.138-0.901,3.619-3.154c0.521,0.713,0.824,1.57,1.361,2.276C53.503,22.089,49.894,16.571,47.59,14.945z"/>
		<path style="clip-path:url(#SVGID_2_);fill:#FF7752;" d="M45.547,37.678c-0.419-0.766-1.456-0.967-2.208-1.013
			c-0.979-0.061-2.32,0.24-1.591,1.746c0.389,0.803,4.24,1.581,3.962-0.238C45.683,37.985,45.626,37.821,45.547,37.678z"/>
		<path style="clip-path:url(#SVGID_2_);fill:#FF7752;" d="M26.742,37.728c-0.589-0.791-1.764-0.784-2.599-0.666
			c-1.088,0.156-2.51,0.815-1.451,2.395c0.563,0.84,4.93,0.854,4.314-1.191C26.943,38.055,26.853,37.877,26.742,37.728z"/>
		<path style="clip-path:url(#SVGID_2_);fill:#C93712;" d="M39.926,29.808c2.22,0.221,4.733,0.229,7.485,0.148
			C46.209,28.194,41.54,28.137,39.926,29.808z"/>
		<path style="opacity:0.3;clip-path:url(#SVGID_2_);fill:#BF3C1B;" d="M35.097,38.255c-0.728,0.017-1.021-0.288-1.527-0.003
			c-0.505,0.285,0.61,1.266,1.511,1.183c1.019-0.094,1.848-0.94,1.574-1.242C36.338,37.842,35.907,38.237,35.097,38.255z"/>
		<path style="clip-path:url(#SVGID_2_);fill:#C93712;" d="M20.844,29.532c4.012,0.057,5.366,0.221,8.15,0.123
			C27.512,27.789,22.599,27.965,20.844,29.532z"/>
		<path style="clip-path:url(#SVGID_2_);fill:#FF3B3B;" d="M24.933,40.79c4.041,6.216,6.496,7.335,9.587,7.475
			c3.873,0.176,5.16-2.414,5.72-4.35c0.238-0.82,2.168-2.946,2.921-3.434c-2.404,0.594-4.783,0.331-8.422,0.498
			C31.729,41.117,27.324,42.052,24.933,40.79z"/>
		<path style="clip-path:url(#SVGID_2_);fill:#80221D;" d="M26.771,41.856c0,0,2.436,4.186,7.251,4.213
			c3.086,0.018,5.104-1.004,5.658-2.441c0.606-1.573,1.912-2.156,1.912-2.156C33.219,43.612,26.771,41.856,26.771,41.856z"/>
		<path style="clip-path:url(#SVGID_2_);fill:#FFF9F0;" d="M28.563,42.207c0,0,0.162,1.274,1.882,1.742
			c2.205,0.604,4.573,0.607,7.012,0.201c1.643-0.272,2.427-2.287,2.427-2.287S35.193,43.031,28.563,42.207z"/>
		<path style="clip-path:url(#SVGID_2_);fill:#FFF9F0;" d="M35.225,44.349c-2.202,0.111-4.034-0.011-5.146-0.692
			c-0.792-0.485-0.857,0.049-0.684,0.381c0,0,0.735,1.739,4.396,2.092c3.518,0.339,5.311-1.774,4.905-2.132
			C38.29,43.642,37.265,44.247,35.225,44.349z"/>
		<path style="clip-path:url(#SVGID_2_);fill:#E8DAC5;" d="M28.563,42.207c0,0,0.131,0.59,0.448,0.893c0,0,8.23-0.802,10.211-0.113
			c0,0,0.571-0.714,0.661-1.123C39.884,41.863,34.139,42.985,28.563,42.207z"/>
		<path style="clip-path:url(#SVGID_2_);fill:#E8DAC5;" d="M30.737,43.905c2.977,1.705,6.496,0.186,6.496,0.186
			C33.524,44.975,30.737,43.905,30.737,43.905z"/>
		<path style="clip-path:url(#SVGID_2_);fill:#4F4F4F;" d="M25.582,31.53c-2.119-0.773-3.163,3.129-1.677,4.268
			c0.642-0.245,1.42-0.229,2.051,0.034C27.287,34.985,27.159,32.106,25.582,31.53z"/>
		<path style="opacity:0.7;clip-path:url(#SVGID_2_);fill:#EDF0EF;" d="M25.924,32.814c-0.874,0.142-0.529,1.928,0.377,1.468
			C26.957,33.948,26.7,32.69,25.924,32.814z"/>
		<path style="clip-path:url(#SVGID_2_);fill:#4F4F4F;" d="M44.467,31.608c-2.101-1.384-4.033,3.549-1.686,4.294
			c0.574-0.382,1.259-0.374,1.865-0.272C45.472,34.587,45.594,32.349,44.467,31.608z"/>
		<path style="opacity:0.7;clip-path:url(#SVGID_2_);fill:#EDF0EF;" d="M44.328,32.661c-0.836,0.01-0.742,1.868,0.166,1.541
			C45.151,33.966,45.072,32.655,44.328,32.661z"/>
		<path style="clip-path:url(#SVGID_2_);fill:#121B21;" d="M44.527,31.503c-1.931-0.774-2.602,1.521-2.602,1.521
			s0.958-1.149,2.271-0.393c2.979,1.716,4.941-0.292,4.941-0.292C46.748,33.104,45.564,31.919,44.527,31.503z"/>
		<path style="clip-path:url(#SVGID_2_);fill:#121B21;" d="M24.169,31.65c-0.773,0.402-2.563,1.603-4.965,0.928
			c0,0,2.301,1.959,5.176,0.141c1.26-0.798,2.356,0.158,2.356,0.158S26.186,30.599,24.169,31.65z"/>
		<circle style="clip-path:url(#SVGID_2_);fill:#FF3B3B;" cx="17.48" cy="42.468" r="1.351"/>
		<path style="clip-path:url(#SVGID_2_);fill:#23232D;" d="M35.148,3.573c-7.912,0.269-14.531,2.178-20.188,7.659
			c-1.831,1.775-5.028,5.896-0.828,7.423c6.404,2.328,12.693,2.694,19.36,1.378c3.503-0.692,11.021-1.962,12.783-5.705
			C49.716,7.019,43.917,3.273,35.148,3.573z"/>
		<path style="clip-path:url(#SVGID_2_);fill:#3A3A4A;" d="M37.699,4.407c-1.244-0.083-3.675-0.513-4.752,0.436
			c-0.813,0.716-0.466,2.122,0.847,2.121c-2.339,0.002-4.813,0.705-7.017,0.761c0.492-0.375,2.009-1.05,2.224-1.533
			c1.016-2.3-4.299-0.245-4.931,0.002c-3.055,1.199-7.921,3.872-8.725,7.262c1.692,1.374,2.539-0.249,4.141-0.226
			c1.177,0.018,1.252,0.989,2.657,1.247c1.018,0.188,1.84-0.366,2.833-0.392c3.934-0.099,7.486,1.256,11.292-0.496
			c1.215-0.56,1.904-1.829,3.17-2.255c0.987-0.332,2.222,0.366,3.142-0.37c0.958-0.768,0.163-1.557,0.765-2.247
			c0.512-0.587,1.691-0.192,1.832-1.06C45.546,5.358,39.168,4.505,37.699,4.407z"/>
		<path style="clip-path:url(#SVGID_2_);fill:#23232D;" d="M31.069,1.084c-1.107,1.935-1.249,3.382-1.062,5.217l1.011,0.084
			c0.33-1.554,1.104-3.191,2.516-4.628C33.499,0.884,31.508,0.557,31.069,1.084z"/>
	</g>
</g>
<g id="Layer_1">
</g>
</svg>
