<?xml version="1.0" encoding="iso-8859-1"?>
<!-- Generator: Adobe Illustrator 16.0.0, SVG Export Plug-In . SVG Version: 6.00 Build 0)  -->
<!DOCTYPE svg PUBLIC "-//W3C//DTD SVG 1.1//EN" "http://www.w3.org/Graphics/SVG/1.1/DTD/svg11.dtd">
<svg version="1.1" xmlns="http://www.w3.org/2000/svg" xmlns:xlink="http://www.w3.org/1999/xlink" x="0px" y="0px"
	 width="66.005px" height="66px" viewBox="0 0 66.005 66" style="enable-background:new 0 0 66.005 66;" xml:space="preserve">
<g id="Layer_59">
	<g>
		<defs>
			<circle id="SVGID_1_" cx="33.005" cy="33" r="33"/>
		</defs>
		<clipPath id="SVGID_2_">
			<use xlink:href="#SVGID_1_"  style="overflow:visible;"/>
		</clipPath>
		<rect style="clip-path:url(#SVGID_2_);fill:#B6D2A5;" width="66" height="66"/>
		<path style="clip-path:url(#SVGID_2_);fill:#FFC38F;" d="M30.338,56.426l-1.426-2.809c-2.188,1.111-2.635,3.459-3.106,5.945
			C25.406,61.661,24.956,64,23.411,66h3.716c1.032-2.011,1.436-4.07,1.773-5.85C29.29,58.096,29.568,56.816,30.338,56.426z"/>
		<path style="clip-path:url(#SVGID_2_);fill:#FFC38F;" d="M41.896,53.617l-1.426,2.809c0.77,0.391,1.048,1.67,1.438,3.725
			c0.338,1.779,0.741,3.839,1.773,5.85h3.715c-1.544-2-1.994-4.339-2.394-6.438C44.531,57.076,44.085,54.729,41.896,53.617z"/>
		<path style="clip-path:url(#SVGID_2_);fill:#EBEBEB;" d="M42.65,62.908c0.995-4.982,0.03-8.082-0.887-10.098
			c-3.959-2.205-10.448-1.377-13.078,0.398c-0.606,2.072-0.977,5.639-0.076,9.379c0.362,1.505,0.521,2.569,0.557,3.412h13.063
			C42.26,65.233,42.381,64.26,42.65,62.908z"/>
		<path style="clip-path:url(#SVGID_2_);fill:#3A3A4A;" d="M36.279,60.158l1.602-1.578c0,0-0.413-1.346-2.241-1.461
			c-2.046-0.129-2.576,1.344-2.576,1.344l1.628,1.668l-2.038,3.859L34.185,66h2.548l1.758-2.072L36.279,60.158z"/>
		<path style="opacity:0.1;clip-path:url(#SVGID_2_);" d="M30.105,55.275c0.767,2.92,3.404,4.574,3.404,4.574l1.88-2.338
			l2.467,2.322c1.683-0.986,3.31-3.34,3.337-5.307C41.212,53.115,29.341,52.354,30.105,55.275z"/>
		<path style="clip-path:url(#SVGID_2_);fill:#FBFBFB;" d="M30.136,51.801c-2.101,3.217,3.207,7.277,3.207,7.277l2.062-1.848
			l2.342,1.934c0,0,4.805-3.007,3.103-7.039C39.315,48.498,32.252,48.564,30.136,51.801z"/>
		<linearGradient id="SVGID_3_" gradientUnits="userSpaceOnUse" x1="35.8086" y1="51.5576" x2="35.8086" y2="56.4938">
			<stop  offset="0" style="stop-color:#EE996D"/>
			<stop  offset="0.0163" style="stop-color:#EE9A6E"/>
			<stop  offset="0.3731" style="stop-color:#F8B181"/>
			<stop  offset="0.7088" style="stop-color:#FDBF8D"/>
			<stop  offset="1" style="stop-color:#FFC491"/>
		</linearGradient>
		<path style="clip-path:url(#SVGID_2_);fill:url(#SVGID_3_);" d="M34.137,47.968c-1.302,0.383-2.167,2.046-2.257,3.758
			c-0.113,2.167,2.215,5.066,3.831,5.124c1.219,0.029,6.391-4.01,2.757-7.939C37.424,47.779,35.385,47.598,34.137,47.968z"/>
		<path style="clip-path:url(#SVGID_2_);fill:#3D1F12;" d="M54.273,29.512c2.479-0.662,5.289-6.067,1.071-5.77
			c1.138,1.708-1.561,2.494-2.443,1.204c-0.079-0.115-0.136-0.221-0.144-0.321c-0.146-2.126-2.335-3.593-4.003-4.906
			c-2.437-1.92-5.626-3.49-8.737-4.205c-5.483-1.258-12.036-0.95-16.394,2.673c-1.753,1.458-3.291,4.513-5.721,5.089
			c-2.986,0.708-4.643,3.744-2.278,5.654c-1.229,0.728-2.407-0.145-2.616-1.289c-2.575,1.786-3.539,5.249,0.02,6.818
			c-4.167,2.148-3.131,6.525,1.321,8.429c-2.089,1.935-1.021,5.226,1.077,6.526c-0.162-1.367,1.117-4.423,3.488-2.863
			c1.454,0.959,0.685,3.525-1.296,2.237c-0.524,2.325,3.401,3.769,4.553,1.836c-0.132,1.741,1.063,2.418,2.676,2.313
			c2.401-0.154,3.243-1.764,4.855-2.256c2.01-0.612,4.475-0.676,6.568-0.711c3.979-0.064,7.41,3.866,11.375,2.16
			c1.529-0.656,2.271-1.638,2.106-3.127c-1.084,0.76-3.915-0.346-1.604-2.154c1.156-0.904,2.866-0.066,4.039-0.752
			c1.383-0.808,0.821-3.709,0.92-3.771c0.997-0.623,2.646-0.671,2.747,1.067c2.047-4.038,0.101-5.156-2.098-5.461
			C58.624,37.164,59.572,30.462,54.273,29.512z"/>
		<path style="clip-path:url(#SVGID_2_);fill:#DE3E78;" d="M50.187,40.926c-0.76,0.021-1.367,0.654-1.359,1.415
			c0.007,0.759,0.632,1.358,1.391,1.337c0.76-0.021,1.369-0.654,1.361-1.415C51.569,41.504,50.946,40.904,50.187,40.926z"/>
		<path style="clip-path:url(#SVGID_2_);fill:#FFC38F;" d="M34.666,15.071c-8.09,0.739-14.379,7.625-13.883,18.511
			c0.496,10.89,8.397,19.568,16.959,18.618c7.095-0.788,13.139-9.63,11.798-21.554C48.341,19.968,42.753,14.329,34.666,15.071z"/>
		<path style="opacity:0.5;clip-path:url(#SVGID_2_);fill:#139E9B;" d="M46.987,29.834c-0.87,0.19-1.899,0.944-2.046,1.432
			c0.507-0.28,1.157-0.243,1.72-0.146c0.429,0.073,0.807,0.357,1.238,0.445c0.834,0.169,2.419,0.131,1.816-1.148
			C49.348,29.632,48.037,29.604,46.987,29.834z"/>
		<path style="clip-path:url(#SVGID_2_);fill:#FFC38F;" d="M18.697,31.859c-3.519,1.608-1.883,7.655,1.064,8.549
			c0.946,0.286,1.938,0.221,2.887,0.022c0.019-0.037,0.035-0.073,0.054-0.112c0.398-0.861-0.502-4.91-0.747-5.736
			C21.335,32.498,20.386,31.087,18.697,31.859z"/>
		<path style="opacity:0.3;clip-path:url(#SVGID_2_);fill:#D94C18;" d="M20.704,33.972c-0.944-0.506-3.398,0.159-2.366,2.136
			c0.692-1.734,1.699-0.511,1.47,0.735c-0.154,0.837-1.053,0.794-0.218,1.931c0.451,0.613,1.439,0.455,1.949,0.17
			C23.156,38.04,21.854,34.59,20.704,33.972z"/>
		<path style="opacity:0.3;clip-path:url(#SVGID_2_);fill:#BF3C1B;" d="M31.661,19.31c-2.216,0.413-4.335,1.115-6.172,2.046
			c-2.879,1.459-3.063,2.967-4.464,5.714c-0.705,1.388-2.418,2.785-0.776,4.242c-1.653,0.629-2.033,3.473-0.993,4.758
			c0.288,0.357,0.624,0.613,1.083,0.687c-0.377,0.708-0.586,1.645-0.225,2.437c0.41,0.901,1.13,1.702,2.038,1.534
			c0.027,0.721,0.352,1.997,0.815,2.593c1.149,1.471,3.205,2.018,4.501,0.897c1.248-1.075,1.088-2.599-0.5-3.257
			c-0.145,0.459-0.688,0.953-1.174,0.585c-0.612-0.464,0.198-2.001,0.184-2.622c-0.036-1.66-1.061-1.018-2.003-1.886
			c0.486-0.462,1.175-1.005,1.158-1.819c-0.02-1.013-0.72-1.148-1.331-1.667c-1.022-0.866-0.711-0.713-0.158-1.633
			c0.681-1.136,1.111-2.623-0.267-3.499c0.669-0.065,1.35-0.366,1.457-1.086c1.183,0.629,2.57-0.617,2.949-1.682
			c-0.116,0.326,1.308-0.292,1.396-0.358c0.486-0.36,0.866-1.144,1.069-1.688c0.103,1.487,1.638,2.489,2.835,1.323
			c0.771,1.842,2.333,1.788,4.046,1.369c0.594,2.117-1.204,1.244-1.809,2.301c-1.008,1.758,2.615,2.526,3.59,2.179
			c1.137-0.404,1.762-1.645,1.703-2.806c0.137,1.38,2.112,0.738,2.822,0.222c0.417,1.935,2.211,2.338,3.617,1.024
			c0.246,3.189,4.413,3.142,3.582-0.577C48.719,20.055,39.577,17.835,31.661,19.31z"/>
		<path style="clip-path:url(#SVGID_2_);fill:#3D1F12;" d="M51.672,15.844c1.776-3.712-5.543-6.55-8.323-4.531
			c-0.435-4.574-6.196-4.844-8.951-1.606c-1.014-1.653-3.304-2.054-3.65-2.113c-1.575-0.266-3.313,0.057-4.345,1.262
			c1.535-0.018,4.133,2.94-0.488,2.511c-1.916-0.178-3.053-0.908-4.967,0.125c-1.551,0.838-2.602,2.309-1.136,3.741
			c-0.017,0.013-3.43-0.198-3.946,2.886c-0.211,1.269,0.309,1.582-0.957,2.532c-0.853,0.64-1.743,1.019-2.852,0.669
			c-0.013,1.246,1.149,2.833,1.744,3.261c1.191,0.858,2.498,0.724,3.773,0.105c-0.127,0.781,2.204,7.418,3.232,6.713
			c-1.691,1.158-2.416,3.496-0.748,4.575c0.264,0.169,0.585,0.308,0.972,0.405c-2.562,0.945-0.529,4.763,2.002,3.512
			c-2.194,2.609,4.335,5.664,4.474,2.524c0.036-0.839-0.544-1.769-1.385-1.943c0.43,0.09,0.595,2.011-0.55,1.526
			c-1.69-0.711,1.258-3.021-0.284-3.97c-0.757-0.464-2.979,0.046-2.153-1.354c0.585-0.995,1.854-1.515,0.338-2.726
			c-0.451-0.36-1.233-0.403-1.275-1.104c-0.038-0.657,0.771-0.951,1.075-1.375c1.06-1.49-0.586-3.25-1.938-3.794
			c0.868-0.049,3.323,0.375,3.042-1.271c1.36,1.186,3.354-0.483,2.81-2.082c0.246,0.725,1.551,0.488,1.983,0.192
			c0.808-0.547,0.733-1.614,1.146-2.413c0.166,0.87,0.351,1.74,1.184,2.185c0.834,0.447,1.743,0.298,2.188-0.563
			c0.512,1.779,2.266,3.224,3.821,1.437c0.349,0.681,0.556,1.651,0.06,2.314c-0.746,1.001-1.733-0.046-2.364,0.427
			c-0.791,0.591,0.65,1.843,1.18,2.012c1.029,0.325,2.503-0.193,3.132-1.066c0.512-0.712,0.382-1.531,0.423-2.349
			c0.864,1.398,2.312,2.335,3.75,0.876c1.041,1.314,2.071,1.941,3.563,0.64c0.716,1.189,0.592,2.79,2.312,3.04
			c1.998,0.289,1.883-2.024,1.525-3.359c-0.451-1.678-1.066-4.951,0.871-6.423c1.202-0.913,2.983-0.326,2.427,1.254
			c1.741-1.122,1.92-2.744,1.162-4.355C55.041,17.1,53.457,16.052,51.672,15.844z"/>
		<path style="clip-path:url(#SVGID_2_);fill:#DE3E78;" d="M21.034,41.422c-0.7,0.018-1.262,0.603-1.254,1.305
			c0.009,0.701,0.583,1.252,1.282,1.233c0.703-0.02,1.264-0.604,1.256-1.306C22.31,41.953,21.736,41.402,21.034,41.422z"/>
		<path style="clip-path:url(#SVGID_2_);fill:#78452F;" d="M30.467,14.274c0.001,0.011,0.001,0.021,0.002,0.032
			c0.001-0.011,0.002-0.02,0.003-0.031C30.476,14.208,30.467,14.208,30.467,14.274z"/>
		<path style="clip-path:url(#SVGID_2_);fill:#78452F;" d="M50.899,24.819c-0.039-0.932,0.017-1.484-0.203-2.463
			c-0.291-1.288-1.036-1.629-2.234-1.583c1.407-2.088,4.052-2.435,5.741-0.688c0.644-2.306-2.167-4.35-4.438-3.759
			c0.477-1.338,0.871-2.99-0.45-4.03c-1.419-1.114-3.689-1.214-5.193-0.3c-1.248,0.759-2.642,2.265-4.418,1.164
			c1.055,0.653,3.584-2.938,0.589-4.223c-1.865-0.802-3.482,0.247-4.748,1.486c-0.396,0.388-0.798,0.817-1.012,1.323
			c-1.275-2.413-3.222-3.886-6.301-3.151c2.339,0.039,3.313,3.679,1.209,4.702c-1.225,0.594-2.353-0.703-3.342-1.148
			c-0.922-0.417-2.334-0.58-3.332-0.311c-0.937,0.253-2.156,1.147-2.523,2.025c1.673-0.216,2.628,3.066,6.283,2.032
			c-1.541,1.287-3.214,1.405-4.599,0.761c-0.936-0.437-2.145-0.817-3.213-0.231c-1.552,0.85-1.158,3.021-1.925,4.363
			c-0.691,1.209-1.348,1.354-2.607,1.715c1.338,0.872,2.096,0.957,3.731,0.794c-1.105,0.11-1.752,1.666-1.847,2.516
			c-0.123,1.111,0.837,1.981,0.675,3.009c-0.138,0.869-1.325,1.44-2.136,1.412c0.549,0.609,1.415,0.625,2.167,0.366
			c0.938-0.323,1.143-1.553,1.915-1.722c1.06-0.23,2.16,1.546,2.141,2.36c1.59-0.768-0.291-3.219-1.227-3.932
			c1.045,0.008,3.918-0.119,3.725-1.587c0.117,0.884,2.019,0.003,2.264-0.475c0.341-0.665,0.176-1.694-0.5-2.121
			c0.591,0.079,1.688,0.647,2.148,0.1c0.394-0.465-0.076-1.557-0.332-1.976c4.78,1.844,3.417-3.099,0.487-3.029
			c2.215-0.18,2.808-0.515,3.073-3.911c-0.001-0.011-0.001-0.021-0.002-0.032c0-0.066,0.009-0.066,0.005,0.001
			c-0.001,0.011-0.002,0.021-0.003,0.031c0.159,1.972-0.361,3.953,2.983,3.641c-4.833,1.708-2.917,5.611,1.903,4.482
			c-0.733,0.172-0.786,1.553,0.312,2.342c0.675,0.487,2.125,0.212,2.396-0.14c0.856,1.316,1.122,2.475,0.099,3.639
			c1.16,0.063,1.594-1.662,1.768-2.504c0.874,0.528,1.668,1.337,2.757,0.905c0.824-0.327,1.264-1.22,1.797-1.846
			c0.011,1.451,0.561,2.532,1.44,2.723c1.056,0.229,1.887-0.139,2.655-0.931c-0.08,1.218,0.482,2.299,1.131,2.927
			c0.611,0.595,2.021,1.403,3.261,0.522c-0.534,0-0.965-0.263-1.188-0.715c2.037-0.198,3.627-1.277,3.448-3.368
			C53.835,26.619,50.994,26.948,50.899,24.819z"/>
		<path style="clip-path:url(#SVGID_2_);fill:#3D1F12;" d="M42.077,22c0.916,3.241,3.7,4.112,5.364,1.463
			C45.704,25.016,42.862,23.699,42.077,22z"/>
		<path style="clip-path:url(#SVGID_2_);fill:#3D1F12;" d="M20.542,25.636c1.968,1.656,4.314,0.07,3.328-2.319
			C23.651,24.874,21.75,26.099,20.542,25.636z"/>
		<path style="clip-path:url(#SVGID_2_);fill:#3D1F12;" d="M47.618,24.633c-1.196,2.222,1.011,3.979,3.2,2.473
			C49.176,27.297,47.447,25.859,47.618,24.633z"/>
		<path style="clip-path:url(#SVGID_2_);fill:#3D1F12;" d="M44.899,19.479c1.476,1.709,3.361,2.072,5.554,1.218l-0.086-1.487
			C49.016,19.9,46.948,20.249,44.899,19.479z"/>
		<path style="clip-path:url(#SVGID_2_);fill:#3D1F12;" d="M45.949,15.144c1.475,1.708,2.843,1.588,4.234,1.104l0.248-1.682
			C49.453,15.39,47.414,15.968,45.949,15.144z"/>
		<path style="clip-path:url(#SVGID_2_);fill:#3D1F12;" d="M15.767,23.369l0.457,1.459c2.369,0.052,3.992-0.928,4.724-3.023
			C19.325,23.217,17.289,23.554,15.767,23.369z"/>
		<path style="clip-path:url(#SVGID_2_);fill:#78452F;" d="M12.655,29.674l-0.058-0.958c-1.007,1.104-1.734,2.347-0.997,3.708
			c0.481,0.891,1.823,1.844,2.905,1.08c0.437-0.309,0.576-1.114,0.672-1.58c-0.021-0.018-0.041-0.036-0.06-0.054
			C13.778,32.015,12.353,30.975,12.655,29.674z"/>
		<path style="clip-path:url(#SVGID_2_);fill:#78452F;" d="M14.093,34.895l-0.804,0.48c-1.936,0.041-2.916,3.24-2.082,4.611
			c0.512,0.84,1.574,1.429,2.578,1.615c-0.697-1.076-1.35-2.361-1.016-3.648C13.053,36.867,14.063,36.066,14.093,34.895z"/>
		<path style="clip-path:url(#SVGID_2_);fill:#78452F;" d="M55.688,31.133c-0.512-0.351-1.101-0.597-1.726-0.712v0.32
			c1.717,2.205,1.395,3.872,0.426,6.126c0.003,0,0.088,0.08,0.089,0.059C56.875,35.947,58.021,32.728,55.688,31.133z"/>
		<path style="clip-path:url(#SVGID_2_);fill:#78452F;" d="M54.479,38.891l-0.806-0.215c-0.354,1.883,2.018,1.443,2.299,2.828
			C56.382,40.35,56.184,38.801,54.479,38.891z"/>
		<path style="clip-path:url(#SVGID_2_);fill:#78452F;" d="M14.438,44.004c-0.984,0.959-0.853,3.041,0.188,3.979
			c0.044-0.605,0.437-1.076,0.437-1.689c-0.002-0.568-0.411-1.014-0.337-1.65L14.438,44.004z"/>
		<path style="clip-path:url(#SVGID_2_);fill:#FF7752;" d="M48.508,37.779c-0.415-0.776-1.462-0.99-2.222-1.045
			c-0.988-0.068-2.349,0.221-1.626,1.75c0.387,0.816,4.272,1.639,4.008-0.201C48.643,38.094,48.586,37.927,48.508,37.779z"/>
		<path style="clip-path:url(#SVGID_2_);fill:#FF7752;" d="M30.268,37.488c-0.588-0.806-1.775-0.811-2.621-0.699
			c-1.1,0.149-2.544,0.801-1.489,2.407c0.562,0.854,4.975,0.911,4.373-1.162C30.468,37.82,30.378,37.641,30.268,37.488z"/>
		<path style="clip-path:url(#SVGID_2_);fill:#3D1F12;" d="M42.902,29.773c2.162,0.204,3.97-0.436,7.214-0.166
			C48.926,28.115,44.522,28.084,42.902,29.773z"/>
		<path style="opacity:0.3;clip-path:url(#SVGID_2_);fill:#D94C18;" d="M38.097,38.477c-0.736,0.01-1.03-0.301-1.545-0.018
			c-0.514,0.283,0.605,1.285,1.516,1.209c1.03-0.084,1.876-0.932,1.604-1.238C39.354,38.072,38.915,38.469,38.097,38.477z"/>
		<path style="clip-path:url(#SVGID_2_);fill:#3D1F12;" d="M23.617,29.31c4.055,0.095,5.423,0.274,8.237,0.203
			C30.376,27.613,25.407,27.743,23.617,29.31z"/>
		<path style="clip-path:url(#SVGID_2_);fill:#F04D4D;" d="M37.521,41.023c-2.9,0.058-7.166,0.879-9.434-0.46
			c3.721,6.392,6.053,7.591,9.024,7.817c3.724,0.284,5.033-2.298,5.624-4.238c0.251-0.822,2.167-2.918,2.904-3.389
			C43.312,41.287,41.028,40.957,37.521,41.023z"/>
		<path style="clip-path:url(#SVGID_2_);fill:#B32F29;" d="M29.827,41.691c0,0,2.23,4.295,6.866,4.457
			c2.97,0.102,4.939-0.874,5.513-2.313c0.625-1.57,1.899-2.125,1.899-2.125C35.987,43.643,29.827,41.691,29.827,41.691z"/>
		<path style="clip-path:url(#SVGID_2_);fill:#FFF9F0;" d="M31.545,42.094c0,0,0.121,1.293,1.763,1.814
			c2.107,0.669,4.386,0.739,6.744,0.396c1.589-0.23,2.397-2.246,2.397-2.246S37.902,43.11,31.545,42.094z"/>
		<path style="clip-path:url(#SVGID_2_);fill:#FFF9F0;" d="M37.898,44.443c-2.124,0.051-3.884-0.121-4.936-0.842
			c-0.75-0.512-0.826,0.026-0.669,0.365c0,0,0.66,1.777,4.174,2.234c3.378,0.439,5.161-1.646,4.779-2.018
			C40.867,43.813,39.864,44.396,37.898,44.443z"/>
		<path style="clip-path:url(#SVGID_2_);fill:#E8DAC5;" d="M31.545,42.094c0,0,0.109,0.602,0.407,0.916c0,0,7.943-0.583,9.831,0.166
			c0,0,0.568-0.705,0.666-1.117C42.449,42.059,36.889,43.035,31.545,42.094z"/>
		<path style="clip-path:url(#SVGID_2_);fill:#E8DAC5;" d="M33.592,43.871c2.817,1.805,6.247,0.366,6.247,0.366
			C36.244,45.028,33.592,43.871,33.592,43.871z"/>
		<path style="clip-path:url(#SVGID_2_);fill:#1F1A17;" d="M28.388,31.375c-2.134-0.802-3.227,3.131-1.736,4.297
			c0.651-0.242,1.438-0.219,2.073,0.055C30.078,34.883,29.977,31.972,28.388,31.375z"/>
		<path style="clip-path:url(#SVGID_2_);fill:#A87F7F;" d="M28.721,32.675c-0.885,0.134-0.553,1.944,0.367,1.487
			C29.754,33.833,29.507,32.557,28.721,32.675z"/>
		<path style="clip-path:url(#SVGID_2_);fill:#1F1A17;" d="M47.176,31.417c-2.143-1.368-4.025,3.645-1.642,4.364
			c0.575-0.394,1.267-0.396,1.882-0.302C48.234,34.412,48.325,32.148,47.176,31.417z"/>
		<path style="clip-path:url(#SVGID_2_);fill:#A87F7F;" d="M47.052,32.483c-0.847,0.021-0.724,1.898,0.189,1.554
			C47.901,33.789,47.803,32.466,47.052,32.483z"/>
		<path style="clip-path:url(#SVGID_2_);fill:#121B21;" d="M47.236,31.309c-1.963-0.754-2.608,1.574-2.608,1.574
			s0.952-1.173,2.29-0.428c3.035,1.691,4.991-0.367,4.991-0.367C49.503,32.896,48.289,31.715,47.236,31.309z"/>
		<path style="clip-path:url(#SVGID_2_);fill:#121B21;" d="M26.959,31.482c-0.785,0.398-2.607,1.593-5.027,0.89
			c0,0,2.307,2.002,5.23,0.193c1.281-0.795,2.38,0.181,2.38,0.181S29.008,30.439,26.959,31.482z"/>
		<path style="opacity:0.5;clip-path:url(#SVGID_2_);fill:#139E9B;" d="M27.21,29.851c-1.127-0.221-2.535-0.181-2.938,0.606
			c-0.657,1.286,1.045,1.311,1.942,1.134c0.465-0.092,0.873-0.379,1.335-0.457c0.604-0.101,1.305-0.144,1.846,0.132
			C29.242,30.779,28.143,30.034,27.21,29.851z"/>
	</g>
</g>
<g id="Layer_1">
</g>
</svg>
