<?xml version="1.0" encoding="iso-8859-1"?>
<!-- Generator: Adobe Illustrator 16.0.0, SVG Export Plug-In . SVG Version: 6.00 Build 0)  -->
<!DOCTYPE svg PUBLIC "-//W3C//DTD SVG 1.1//EN" "http://www.w3.org/Graphics/SVG/1.1/DTD/svg11.dtd">
<svg version="1.1" xmlns="http://www.w3.org/2000/svg" xmlns:xlink="http://www.w3.org/1999/xlink" x="0px" y="0px" width="66.01px"
	 height="66px" viewBox="0 0 66.01 66" style="enable-background:new 0 0 66.01 66;" xml:space="preserve">
<g id="Layer_39">
	<g>
		<defs>
			<circle id="SVGID_1_" cx="33.01" cy="33" r="33"/>
		</defs>
		<clipPath id="SVGID_2_">
			<use xlink:href="#SVGID_1_"  style="overflow:visible;"/>
		</clipPath>
		<rect y="0" style="clip-path:url(#SVGID_2_);fill:#EF5649;" width="66" height="66"/>
		<path style="clip-path:url(#SVGID_2_);fill:#FFB06B;" d="M27.336,66c0.289-2.595,0.022-6.939,2.575-7.828
			c0.841-0.293,2.166-2.742,1.723-3.56c-0.442-0.817-0.882-1.205-1.711-0.865C25.342,55.622,24.3,59.426,24.004,66H27.336z"/>
		<path style="clip-path:url(#SVGID_2_);fill:#FFB06B;" d="M42.773,66c-0.289-2.595-0.022-6.939-2.575-7.828
			c-0.841-0.293-2.166-2.742-1.723-3.56c0.442-0.817,0.882-1.205,1.711-0.865c4.581,1.875,5.623,5.679,5.919,12.253H42.773z"/>
		
			<linearGradient id="SVGID_3_" gradientUnits="userSpaceOnUse" x1="606.3672" y1="51.6104" x2="606.2751" y2="55.446" gradientTransform="matrix(1 0 0 1 -571.1797 0)">
			<stop  offset="0" style="stop-color:#E88958"/>
			<stop  offset="0.3384" style="stop-color:#F49D62"/>
			<stop  offset="0.6924" style="stop-color:#FCAB69"/>
			<stop  offset="1" style="stop-color:#FFB06B"/>
		</linearGradient>
		<path style="clip-path:url(#SVGID_2_);fill:url(#SVGID_3_);" d="M34.928,49.409c2.8,0,1.361,2.553,3.495,3.486
			c2.135,0.935,6.284,3.673,2.507,7.095c-3.78,3.424-8.626,3.025-11.382,0.268c-2.757-2.756-2.793-5.455,1.863-7.214
			C33.412,52.287,32.17,49.409,34.928,49.409z"/>
		<path style="clip-path:url(#SVGID_2_);fill:#5E4684;" d="M39.657,53.34c-0.187-0.155-1.065-0.551-1.263-0.576
			c0.389,1.725,0.977,5.92-3.34,5.92c-4.358,0-3.934-3.471-3.622-5.795c-0.274-0.013-0.688,0.179-0.946,0.43
			c-1.219,3.707-3.251,4.749-1.383,9.223c0.313,0.746,0.617,2.145,0.715,3.459l10.068-0.002c0.126-1.307,0.485-2.664,0.896-3.582
			C42.747,58.022,40.684,55.694,39.657,53.34z"/>
		<path style="opacity:0.1;clip-path:url(#SVGID_2_);" d="M33.256,64.189c0.188-0.029,0.367-0.1,0.546-0.125
			c-1.04-0.191-2.365-0.181-2.803-0.917c1.271,0.02,2.532,0.188,3.839,0.215c1.488,0.028,2.855-0.093,4.323-0.259
			c-0.211,0.023-1.276,0.688-1.671,0.804C36.249,64.269,34.506,64.533,33.256,64.189z"/>
		<path style="opacity:0.1;clip-path:url(#SVGID_2_);fill:#FFFFFF;" d="M29.436,60.836c0.503,1.535,3.096,1.928,5.354,1.887
			c4.456-0.081,6.133-1.676,5.385-3.564c-0.201-0.508-1.154-0.853-2.294-0.462c-2.12,0.724-4.697,0.431-6.87-0.083
			C29.764,58.318,29.055,59.678,29.436,60.836z"/>
		<path style="clip-path:url(#SVGID_2_);fill:#3D2518;" d="M43.969,9.323c0.875-0.632,2.412-0.768,3.479-0.893
			c-1.859-1.044-6.312-2.956-10.637-1.289c-0.252-0.04-2.727-1.851-4.888-1.902c0.277,0.421,1.605,1.364,1.647,1.866
			c-2.934-1.039-5.533-0.492-8.557,0.299c-1.389,0.364-3.712,1.493-4.477,2.702c0.616-0.218,1.281-0.033,1.78,0.355
			c-2.785,0.923-6.053,3.349-7.017,6.196c0.723-0.098,1.439-0.454,2.187-0.52c-0.639,0.057-1.557,1.775-1.816,2.267
			c-0.47,0.891-0.761,1.847-0.959,2.828c-0.365,1.806-0.79,3.999-0.405,5.831c0.397-0.561,0.982-0.994,1.454-1.489
			c-1.294,2.859-0.249,5.546,0.898,8.182c0.554,1.274,1.308,2.396,1.996,3.575c0.521,0.893,0.796,1.93,1.383,2.791
			c1.83,2.676,3.741,1.573,6.345,0.959c1.996-0.471,4.085-0.801,6.107-0.894c2.306-0.106,4.681-0.247,6.952,0.261
			c2.167,0.483,4.55,1.432,6.746,0.531c4.133-1.693,4.051-7.043,4.188-10.602c0.366,0.268,0.738,0.594,1.067,0.831
			c0.081-2.5,0.359-4.946,0.432-7.475c0.521,0.375,1.116,0.838,1.681,1.112c-0.11-1.257-1.247-6.961-2.644-7.546
			c0.678,0.283,1.409,0.425,2.139,0.472C52.778,17.116,49.932,10.347,43.969,9.323z"/>
		<path style="clip-path:url(#SVGID_2_);fill:#FFB06B;" d="M19.757,38.083c1.098,6.766,9.301,15.106,15.948,15.106
			c7.752,0,13.684-11.657,12.502-20.88c-1.282-10.026-6.164-18.385-16.847-16.358C23.732,17.399,18.137,28.103,19.757,38.083z"/>
		<path style="opacity:0.3;clip-path:url(#SVGID_2_);fill:#BC551E;" d="M27.627,22.83c-0.132,1.033-0.095,2.373,0.426,3.299
			c-1.594-0.36-3.385-0.893-4.81-1.697c-0.901,1.741-1.038,5.139-3.833,4.946c-2.013-0.139-2.101-2.607-1.915-4.08
			c0.501-3.946,2.154-6.527,6.038-8.238c2.596-1.144,5.621-0.992,8.406-0.944c4.556,0.079,8.594,0.995,12.766,2.611
			c1.37,0.53,0.996,5.37,0.977,5.417c-0.262,0.631-0.338,1.592-0.316,2.314c-2.658,0.074-4.592-1.296-6.326-3.113
			c-0.014,0.585,0.413,1.867,0.413,1.867S29.099,23.401,27.627,22.83z"/>
		<path style="clip-path:url(#SVGID_2_);fill:#FFB06B;" d="M17.912,41.307c0.98,0.342,2.022,0.389,3.027,0.319
			c0.019-0.03,0.038-0.059,0.058-0.091c0.449-0.691-0.178-4.569-0.407-5.299c-0.576-1.841-1.697-2.805-3.495-2.324
			C13.349,34.916,14.853,40.238,17.912,41.307z"/>
		<path style="opacity:0.3;clip-path:url(#SVGID_2_);fill:#BF3C1B;" d="M19.362,39.992c1.364-0.838,0.075-3.661-0.952-4.121
			c-0.843-0.376-2.942,0.303-1.955,1.904c0.521-1.484,1.45-0.511,1.308,0.543c-0.094,0.709-0.876,0.719-0.101,1.627
			C18.083,40.437,18.934,40.254,19.362,39.992z"/>
		<path style="clip-path:url(#SVGID_2_);fill:#3D2518;" d="M48.607,20.968c-0.633-0.927-1.448-1.764-2.146-2.567
			c-1.342-1.548-2.4-3.174-4.017-4.506c-4.218-3.479-9.713-3.451-14.902-2.579c-1.987,0.333-4.099,0.823-5.878,1.789
			c-1.549,0.842-2.164,2.823-2.878,4.325c-1.676,3.518-3.011,14.018-1.171,16.382c0.389-0.021,1.188-0.042,1.785,0.499
			c0.793,0.722,0.788,1.529,1.011,1.932c0.105,0.206,0.963,0.492,1.698,0.438c-0.548-3.629-1.435-11.244,1.639-13.946
			c0.092,1.141,2.369,2.631,3.479,2.814c-0.495-1.208-0.237-2.56-0.477-3.807c3.247,0.476,8.405,1.586,11.595,2.315
			c-0.222-0.51-0.428-1.806-0.655-2.479c2.333,1.564,3.819,3.076,6.7,3.845c0.205-0.946,0.356-1.959,0.333-2.932
			c0.01,0.401,4.469,0.952,4.908,1.025C49.538,22.583,49.138,21.744,48.607,20.968z"/>
		<path style="clip-path:url(#SVGID_2_);fill:#82572E;" d="M41.112,7.569c-0.529,0.451-0.646,1.165-0.859,1.821
			c2.085,0.14,5.281,1.163,6.631,2.933c-1.056-0.099-2.285,0.087-3.267,0.446c2.37,1.722,5.566,3.067,7.015,5.814
			c-1.005-0.025-1.949-0.453-2.901-0.729c0.063,0.43,0.99,2.527,1.364,2.611c-2.622-0.582-4.766-2.098-7.294-2.981
			c0.899,1.208,2.174,2.848,2.47,4.434c-2.727-0.17-5.308-2.688-7.784-3.71c-2.11-0.871-4.693-1.624-6.98-1.614
			c-0.047-0.002-0.047-0.003-0.002-0.004c2.321,0.599,4.454,2.564,6.043,4.082c-4.581-1.802-11.024-3.992-15.305-0.36
			c0.026-1.547,1.078-2.901,1.492-4.22c-1.286,0.234-2.584,0.59-3.858,0.819c1.546-2.97,4.565-4.496,7.488-5.67
			c-0.726-0.028-1.561,0.089-2.159-0.396c1.813-0.321,3.463-1.291,5.36-1.203C27.732,9.3,26.696,8.999,26.23,8.162
			c0.293,0.443,3.238,0.18,3.754,0.203c2.059,0.094,4.145,0.179,6.11,0.863c-0.094-0.497-0.354-0.994-0.528-1.44
			c0.716,0.077,1.544,0.411,1.989,0.948C38.481,8.119,40.365,8.206,41.112,7.569z"/>
		<path style="clip-path:url(#SVGID_2_);fill:#F58A53;" d="M47.508,37.475c-0.027-0.18-0.087-0.34-0.177-0.482
			c-0.469-0.758-1.713-1.039-2.62-1.148c-1.181-0.144-2.817,0.022-2.003,1.506C43.142,38.14,47.761,39.211,47.508,37.475z"/>
		<path style="clip-path:url(#SVGID_2_);fill:#F58A53;" d="M29.032,36.406c0.163,0.108,0.31,0.239,0.437,0.402
			c1.208,1.573-3.723,2.053-4.57,1.439c-1.593-1.148-0.154-1.838,1.034-2.085C26.843,35.975,28.168,35.838,29.032,36.406z"/>
		<path style="clip-path:url(#SVGID_2_);fill:#202930;" d="M28.539,35.376c-0.583-0.274-1.322-0.339-1.947-0.16
			c-1.341-1.108-0.104-4.503,1.861-3.68C29.916,32.15,29.857,34.713,28.539,35.376z"/>
		<path style="clip-path:url(#SVGID_2_);fill:#202930;" d="M45.431,31.407c1.072,0.626,1.063,3.021,0.262,3.882
			c-0.508-0.228-1.56-0.332-2.08,0.005C41.962,34.233,43.433,30.241,45.431,31.407z"/>
		<path style="opacity:0.7;clip-path:url(#SVGID_2_);fill:#C3CEE6;" d="M27.754,32.207c0.709-0.233,1.149,0.827,0.588,1.223
			C27.564,33.98,26.957,32.47,27.754,32.207z"/>
		<path style="opacity:0.7;clip-path:url(#SVGID_2_);fill:#C3CEE6;" d="M44.57,32.254c0.699-0.136,0.978,0.925,0.396,1.232
			C44.159,33.915,43.783,32.408,44.57,32.254z"/>
		<path style="clip-path:url(#SVGID_2_);fill:#DE6049;" d="M45.791,39.111c-1.141,1.135-1.81,2.65-2.794,4.049
			c-1.659,2.35-3.219,5.166-7.923,4.861c-6.544-0.42-9.032-8.664-9.032-8.664C34.752,42.602,43.098,40.873,45.791,39.111z"/>
		<path style="clip-path:url(#SVGID_2_);fill:#8F2A25;" d="M27.455,40.412c0,0,7.811,4.596,17.195-0.166c0,0-1.349,1.031-2.421,2.6
			c-0.962,1.407-3.603,3.175-6.757,3.066C29.121,45.697,27.455,40.412,27.455,40.412z"/>
		<path style="clip-path:url(#SVGID_2_);fill:#FFF7EA;" d="M27.455,40.412c0,0,1.727,2.252,3.868,2.996
			c2.746,0.956,5.268,1.055,8.423,0.454c2.127-0.406,4.904-3.616,4.904-3.616S37.221,44.238,27.455,40.412z"/>
		<path style="clip-path:url(#SVGID_2_);fill:#FFF7EA;" d="M30.193,43.873c-0.207-0.453-0.332-1.378,0.798-0.986
			c1.356,0.47,2.893,0.971,5.805,1.006c2.915,0.039,3.507-0.99,4.019-0.5c0.514,0.489-1.391,2.623-5.342,2.52
			C31.267,45.803,30.193,43.873,30.193,43.873z"/>
		<path style="clip-path:url(#SVGID_2_);fill:#ECDCC4;" d="M29.123,42.104c0,0,7.203,1.333,14.012-0.326
			c0,0,1.395-1.096,1.516-1.531c0,0-7.674,3.926-17.195,0.166C27.455,40.412,28.311,41.624,29.123,42.104z"/>
		<path style="clip-path:url(#SVGID_2_);fill:#ECDCC4;" d="M30.185,42.894c0,0,4.538,1.731,10.149,0.697
			C40.334,43.591,36.344,45.952,30.185,42.894z"/>
		<path style="clip-path:url(#SVGID_2_);fill:#2B221C;" d="M24.057,29.398c-0.28,0.033-0.566,0.059-0.86,0.051
			c0.398-0.817,1.947-1.542,3.222-1.323c0.972,0.167,1.881,0.449,2.876,0.527c0.399,0.03,1.28-0.101,1.621,0.118
			c0.265,0.17,0.426,0.79,0.425,1.013c-0.006,0.67-2.952-0.002-3.563-0.086c-0.806-0.111-1.654-0.375-2.473-0.4
			C24.887,29.286,24.476,29.349,24.057,29.398z"/>
		<path style="clip-path:url(#SVGID_2_);fill:#2B221C;" d="M45.551,27.878c-0.895,0.214-1.725,0.54-2.646,0.665
			c-0.371,0.05-1.192-0.039-1.501,0.196c-0.238,0.183-0.358,0.81-0.347,1.033c0.037,0.669,2.741-0.145,3.305-0.257
			c0.744-0.149,1.517-0.453,2.276-0.518c0.39-0.032,0.775,0.011,1.165,0.04c0.263,0.019,0.53,0.032,0.802,0.009
			C48.198,28.249,46.724,27.598,45.551,27.878z"/>
		<path style="opacity:0.3;clip-path:url(#SVGID_2_);fill:#BF3C1B;" d="M38.626,37.502c0.343,0.348-0.634,1.381-1.867,1.529
			c-1.091,0.132-2.487-0.985-1.886-1.342c0.607-0.355,0.976-0.008,1.86-0.055C37.718,37.582,38.227,37.1,38.626,37.502z"/>
		<path style="clip-path:url(#SVGID_2_);fill:#121B21;" d="M21.92,31.259c0,0,2.063,2.44,5.209,0.85
			c1.388-0.701,2.321,0.657,2.321,0.657s-0.633-2.396-2.828-1.864C25.501,31.174,24.397,32.223,21.92,31.259z"/>
		<path style="clip-path:url(#SVGID_2_);fill:#121B21;" d="M50.576,31.388c0,0-2.063,2.438-5.209,0.848
			c-1.389-0.7-2.322,0.658-2.322,0.658s0.632-2.396,2.827-1.864C46.995,31.303,48.099,32.351,50.576,31.388z"/>
	</g>
</g>
<g id="Layer_1">
</g>
</svg>
