<?xml version="1.0" encoding="iso-8859-1"?>
<!-- Generator: Adobe Illustrator 16.0.0, SVG Export Plug-In . SVG Version: 6.00 Build 0)  -->
<!DOCTYPE svg PUBLIC "-//W3C//DTD SVG 1.1//EN" "http://www.w3.org/Graphics/SVG/1.1/DTD/svg11.dtd">
<svg version="1.1" xmlns="http://www.w3.org/2000/svg" xmlns:xlink="http://www.w3.org/1999/xlink" x="0px" y="0px" width="66px"
	 height="66.001px" viewBox="0 0 66 66.001" style="enable-background:new 0 0 66 66.001;" xml:space="preserve">
<g id="Layer_101">
	<g>
		<defs>
			<circle id="SVGID_1_" cx="33" cy="33" r="33"/>
		</defs>
		<clipPath id="SVGID_2_">
			<use xlink:href="#SVGID_1_"  style="overflow:visible;"/>
		</clipPath>
		<rect style="clip-path:url(#SVGID_2_);fill:#FFFFFF;" width="65.999" height="66"/>
		<path style="clip-path:url(#SVGID_2_);fill:#93AEBF;" d="M52.225,23.883c-0.278-0.339-1.296-0.902-1.544-1.264
			c-5.08-7.412-16.076-11.125-24.678-11.125c-4.296,0-8.884,2.151-11.76,5.375c-2.904,3.252-3.893,7.61-4.125,12.779
			c-0.101,2.252-0.362,8.589-3.681,8.494c1.619,1.239,3.744,1.646,4.363,0.004c0,8.409,10.088,22.052,13.817,24.29
			c2.541,1.525,5.469,2.083,8.409,1.811c5.244-0.48,10.632-3.742,13.269-9.539c1.08-2.375,2.108-4.775,3.01-7.226
			c0.807-2.194,0.959-4.886,2.242-6.831c1.285,1.377,4.189,1.356,5.115,0.43c-1.865-0.621-2.863-2.634-2.659-3.814
			C54.91,32.013,55.329,27.666,52.225,23.883z"/>
		<path style="clip-path:url(#SVGID_2_);fill:#FF697C;" d="M11.496,35.236c-1.903,3.303-1.523,7.823-0.526,9.535
			c1.177,2.021,2.053,4.001,2.444,5.676c0.83,3.56-2.49,9.481,2.743,10.684c-0.956-1.391,0.065-2.572-0.143-3.91
			c2.252,1.973,1.315,5.131,2.341,8.78L44.542,66c0.604-1.244,1.002-2.564,1.314-3.904c0.286-1.223,1.021-2.275,1.146-3.559
			c1.433,0.234,3.073-0.811,3.863-1.957c-2.533-0.217-2.507-2.345-1.464-4.063c1.294-2.138,3.223-4.244,3.716-6.754
			c0.28-1.43,0.124-2.702-0.399-4.052c-0.74-1.911-0.439-3.856-0.459-5.854c-0.229,0.559-1.508,4.275-1.26,4.73
			c-0.381-0.699-0.609-1.639-0.896-2.358c0.414,2.578-0.224,8.212-3.762,10.261c-1.372,0.795-0.104,3.057-1.24,4.134
			c-0.462,0.44-1.101,0.591-1.496,1.138c-0.777,1.07-0.865,2.226-0.522,3.445c-1.959-0.027-2.839-0.298-3.387,0.051
			c-1.07,0.686-2.769,0.164-3.887-0.026c-3.328-0.565-5.914-0.075-9.125,0.129c-1.45,0.092-3.4-0.927-4.363-2.368
			c-0.102,0.671-0.046,1.785-0.325,2.336c-4.577-2.248-1.469-7.439-3.996-10.49c0.016,0.747-1.158,2.199-2.065,2.352
			c-0.888-1.377-1.483-4.599-2.449-7.141C12.633,46.021,10.789,38.936,11.496,35.236z"/>
		<path style="opacity:0.4;clip-path:url(#SVGID_2_);fill:#5B6172;" d="M24.29,53.236c0.122-0.667,0.057-1.37-0.326-2.143
			c-0.524,0.48-0.873,1.185-1.473,1.605c-0.484,0.338-1.044,0.285-1.591,0.418c0.465-0.113,0.343-2.311,0.299-2.641
			c-0.13-0.984-0.576-1.72-0.964-2.607c-0.318-0.73-0.428-1.215-1.163-1.668c-0.749-0.461-1.691-0.508-2.375-1.104
			c-0.802-0.699-0.538-1.461-0.901-2.295c-0.328-0.762-1.201-1.43-1.728-2.073c-1.197-1.462-2.15-3.099-1.983-5.057
			c0.24-2.787,2.549-4.459,3.074-7.167c0.25-1.287-0.136-5.233,1.55-8.143c3.284-5.665,10.871-2.158,14.289,0.257
			c2.68,1.892,4.965,4.484,7.876,6.029c1.516,0.804,3.603,1.513,5.327,1.615c1.546,0.092,3.15-0.485,4.458,0.754
			c1.992,1.883,0.313,6.915-0.168,9.198c-0.413,1.964,0.692,4.148-0.183,5.994c-0.694,1.468-2.171,2.396-3.126,3.683
			c-0.859,1.159-0.998,2.581-1.469,3.903c-0.506,1.422-0.991,2.619-0.543,4.189c0.253,0.883,0.564,1.656,0.779,2.555
			c0.813,3.402-0.79,4.471-0.132,7.459H22.406c0.288-4.139-1.612-4.072-0.662-7.572C22.249,56.57,23.959,55.042,24.29,53.236z"/>
		<path style="clip-path:url(#SVGID_2_);fill:#FFBC82;" d="M43.134,66c-0.127-0.746-0.621-5.28-0.803-6.121l-3.126,0.674
			c0.171,0.793,0.486,4.596,0.587,5.447H43.134z"/>
		<path style="clip-path:url(#SVGID_2_);fill:#313142;" d="M37.678,61.729c-0.393-1.821-0.952-2.455-1.102-2.469l0.526-5.79
			c1.807,0.164,5.021,1.296,6.259,7.033L37.678,61.729z"/>
		<path style="clip-path:url(#SVGID_2_);fill:#FFBC82;" d="M23.323,66c0.128-0.746,0.622-5.28,0.804-6.121l3.126,0.674
			c-0.171,0.793-0.487,4.596-0.587,5.447H23.323z"/>
		<path style="clip-path:url(#SVGID_2_);fill:#313142;" d="M28.576,61.729l-5.683-1.226c1.236-5.737,4.452-6.869,6.258-7.033
			l0.526,5.79C29.529,59.274,28.969,59.908,28.576,61.729z"/>
		<path style="clip-path:url(#SVGID_2_);fill:#313142;" d="M38.386,66c0.085-1.306,0.399-2.922,0.981-5.096
			c1.096-4.1,1.219-6.583-1.315-7.416c-2.463-0.811-7.004-1.082-9.704,0.073c-2.153,0.921-2.842,2.413-1.373,6.96
			c0.647,2.006,1.163,3.903,1.259,5.479H38.386z"/>
		
			<linearGradient id="SVGID_3_" gradientUnits="userSpaceOnUse" x1="2800.5215" y1="51.8262" x2="2800.5215" y2="55.3656" gradientTransform="matrix(1 0 0 1 -2767.6348 0)">
			<stop  offset="0" style="stop-color:#EE996D"/>
			<stop  offset="0.2968" style="stop-color:#F6A977"/>
			<stop  offset="0.6732" style="stop-color:#FDB77F"/>
			<stop  offset="1" style="stop-color:#FFBC82"/>
		</linearGradient>
		<path style="clip-path:url(#SVGID_2_);fill:url(#SVGID_3_);" d="M36.029,53.291c-0.526-0.942-0.057-2.439,0.034-4.039
			c0.209-3.625-6.053-3.76-6.046,0.197c0.002,1.753,0.135,3.088-0.229,3.656C27.282,57.025,38.37,57.493,36.029,53.291z"/>
		<path style="opacity:0.5;clip-path:url(#SVGID_2_);fill:#535361;" d="M27.837,60.06c0.518,1.347,3.135,1.71,5.412,1.688
			c4.493-0.041,6.17-1.42,5.398-3.077c-0.206-0.444-1.17-0.753-2.316-0.421c-2.131,0.618-4.733,0.344-6.926-0.121
			C28.144,57.861,27.443,59.045,27.837,60.06z"/>
		<path style="opacity:0.3;clip-path:url(#SVGID_2_);" d="M41.489,46.389c0.032,3.163,2.316,5.65,5.099,5.561
			c2.787-0.088,5.016-2.723,4.985-5.883c-0.031-3.155-2.313-5.644-5.101-5.558C43.69,40.598,41.456,43.232,41.489,46.389z
			 M42.856,45.808c-0.024-2.258,1.576-4.146,3.565-4.208c1.995-0.063,3.628,1.718,3.65,3.977c0.021,2.261-1.573,4.146-3.567,4.209
			C44.514,49.851,42.88,48.068,42.856,45.808z"/>
		<path style="clip-path:url(#SVGID_2_);fill:#FFF9F0;" d="M42.05,45.645c0.031,3.122,2.286,5.58,5.032,5.487
			c2.751-0.086,4.951-2.685,4.921-5.804c-0.031-3.117-2.283-5.572-5.035-5.486C44.223,39.928,42.016,42.531,42.05,45.645z
			 M43.286,45.138c-0.023-2.257,1.574-4.144,3.564-4.206c1.996-0.063,3.629,1.719,3.651,3.977c0.021,2.261-1.572,4.146-3.567,4.21
			C44.943,49.184,43.31,47.4,43.286,45.138z"/>
		<path style="clip-path:url(#SVGID_2_);fill:#FFBC82;" d="M47.775,30.243c-1.272-11.33-7.163-16.587-15.781-16.526
			c-12.946,0.093-18.555,8.318-14.727,19.641c0.526,11.552,8.909,20.759,17.991,19.75C42.786,52.271,49.198,42.893,47.775,30.243z"
			/>
		<path style="opacity:0.2;clip-path:url(#SVGID_2_);fill:#5B6172;" d="M16.53,31.304c0.684-0.104,1.038,0.838,2.389,0.261
			c-0.486-7.057,2.604-9.02,4.914-9.832c1.677-0.589,0.033-1.173-1.223-2.489c-0.959-1.003-2.068-2.104-3.323-1.073
			C18.151,19.105,14.557,22.804,16.53,31.304z"/>
		<path style="clip-path:url(#SVGID_2_);fill:#FFBC82;" d="M16.184,40.598c1.004,0.305,2.054,0.233,3.063,0.025
			c0.019-0.041,0.036-0.08,0.057-0.119c0.423-0.913-0.532-5.209-0.792-6.086c-0.658-2.211-1.665-3.709-3.457-2.89
			C11.321,33.235,13.056,39.65,16.184,40.598z"/>
		<path style="opacity:0.4;clip-path:url(#SVGID_2_);fill:#D14F2E;" d="M17.813,38.824c1.616-0.9,0.315-4.352-0.834-4.969
			c-0.944-0.509-3.4,0.159-2.366,2.135c0.692-1.732,1.698-0.511,1.468,0.734c-0.153,0.838-1.052,0.795-0.217,1.932
			C16.314,39.268,17.302,39.109,17.813,38.824z"/>
		<path style="opacity:0.3;clip-path:url(#SVGID_2_);fill:#B54D26;" d="M29.153,16.295c0.845,0.15,1.622,0.313,2.262,0.439
			c7.298,1.437,15.629,2.898,17.524,11.379c1.008,4.518-4.802,2.923-7.009,1.948c-3.699-1.632-7.313-5.813-11.483-5.273
			c-2.273,0.293-3.683,0.62-5.9-0.309c-2.079-0.871-8.145-6.518-5.264-9.915C20.968,12.582,26.212,15.771,29.153,16.295z"/>
		<path style="clip-path:url(#SVGID_2_);fill:#4CB5CF;" d="M24.658,22.988c2.387,1.472,4.267,0.769,6.835,0.541
			c2.271-0.202,4.195,0.739,5.985,2.024c3.013,2.164,6.943,4.54,10.469,5.775c2.652,0.929,7.86,0.973,10.598,0.371
			c-1.556-2.302-2.234-5.761-3.27-8.429c-0.284-0.737-2.815-6.033-3.262-6.046c0.438,0.013,0.861,0.117,1.272,0.274
			c-0.487-1.163-1.173-2.156-1.98-3.135c-3.353-4.059-9.359-5.494-14.308-5.657c0.334-0.027,1.091-0.251,1.617-0.33
			c-1.987-0.97-4.703-1.356-6.938-1.139c-4.759,0.464-16.504,4.305-12.062,11.195C20.082,19.155,22.591,21.714,24.658,22.988z"/>
		<path style="opacity:0.3;clip-path:url(#SVGID_2_);" d="M13.637,46.162c-0.146,3.219,2.038,5.881,4.874,5.945
			c2.84,0.066,5.258-2.488,5.405-5.705c0.145-3.214-2.037-5.873-4.88-5.943C16.201,40.393,13.779,42.949,13.637,46.162z
			 M15.267,45.408c0.096-2.16,1.724-3.879,3.629-3.833c1.911,0.047,3.377,1.832,3.278,3.994c-0.099,2.161-1.723,3.879-3.632,3.833
			C16.637,49.359,15.168,47.571,15.267,45.408z"/>
		<path style="clip-path:url(#SVGID_2_);fill:#FFF9F0;" d="M13.952,45.645c0.031,3.122,2.285,5.58,5.032,5.487
			c2.75-0.086,4.95-2.685,4.922-5.804c-0.033-3.117-2.284-5.572-5.037-5.486C16.124,39.928,13.918,42.531,13.952,45.645z
			 M15.188,45.138c-0.024-2.257,1.574-4.144,3.565-4.206c1.995-0.063,3.628,1.719,3.65,3.977c0.022,2.261-1.573,4.146-3.568,4.21
			C16.846,49.184,15.211,47.4,15.188,45.138z"/>
		<path style="clip-path:url(#SVGID_2_);fill:#9DDDED;" d="M34.475,9.553c-1.652,0.732-3.488,0.687-5.063,1.651
			c0.028,0.009-0.063,0.161-0.075,0.175c7.247-2.114,14.449-0.555,20.543,3.66c-3.558-1.117-7.995-2.131-11.67-0.949
			c6.634,0.308,12.347,5.283,15.497,10.72c0.468,0.81,0.954,1.52,1.294,2.427c-6.928,0.24-12.534-2.995-17.862-7.134
			c0.244,0.422,0.228,0.949,0.372,1.371c-2.701-0.951-5.615-1.507-7.413-3.969c0.478,0.655-1.99,0.873-2.088,0.875
			c-1.344,0.031-2.912-0.623-4.063-1.264c-2.967-1.653-2.896-4.292,0.044-6.028C26.896,9.369,31.146,9.182,34.475,9.553z"/>
		<path style="clip-path:url(#SVGID_2_);fill:#FA9769;" d="M46.68,37.81c0.084,0.155,0.143,0.332,0.17,0.534
			c0.28,1.953-3.841,1.079-4.25,0.215c-0.768-1.623,0.675-1.932,1.725-1.857C45.13,36.759,46.24,36.985,46.68,37.81z"/>
		<path style="clip-path:url(#SVGID_2_);fill:#FA9769;" d="M26.516,37.672c0.118,0.161,0.213,0.354,0.279,0.58
			c0.639,2.197-4.043,2.139-4.639,1.23c-1.12-1.703,0.412-2.396,1.58-2.551C24.633,36.813,25.893,36.818,26.516,37.672z"/>
		<path style="clip-path:url(#SVGID_2_);fill:#121B21;" d="M48.387,29.14c-1.263-1.583-5.934-1.615-7.653,0.175
			C43.027,29.531,44.945,28.851,48.387,29.14z"/>
		<path style="opacity:0.4;clip-path:url(#SVGID_2_);fill:#D14F2E;" d="M37.306,38.498c0.289,0.326-0.608,1.227-1.701,1.314
			c-0.966,0.08-2.152-0.98-1.608-1.283c0.547-0.299,0.858,0.029,1.639,0.02C36.504,38.539,36.969,38.119,37.306,38.498z"/>
		<path style="clip-path:url(#SVGID_2_);fill:#121B21;" d="M20.274,28.824c1.897-1.664,7.169-1.802,8.739,0.214
			C26.027,29.115,24.575,28.925,20.274,28.824z"/>
		<path style="clip-path:url(#SVGID_2_);fill:#4A271B;" d="M25.692,35.631c-0.674-0.289-1.509-0.314-2.198-0.058
			c-1.581-1.237-0.423-5.409,1.842-4.557C27.02,31.649,27.128,34.737,25.692,35.631z"/>
		<path style="clip-path:url(#SVGID_2_);fill:#C7A295;" d="M24.209,32.017c0.834-0.125,1.096,1.228,0.389,1.577
			C23.623,34.079,23.271,32.161,24.209,32.017z"/>
		<path style="clip-path:url(#SVGID_2_);fill:#4A271B;" d="M45.269,31.058c1.218,0.779,1.121,3.181,0.253,4.311
			c-0.651-0.1-1.386-0.098-1.995,0.321C40.997,34.927,42.994,29.608,45.269,31.058z"/>
		<path style="clip-path:url(#SVGID_2_);fill:#C7A295;" d="M43.655,31.812c0.797-0.017,0.903,1.387,0.202,1.652
			C42.887,33.828,42.759,31.837,43.655,31.812z"/>
		<path style="clip-path:url(#SVGID_2_);fill:#121B21;" d="M50.288,31.771c0,0-2.074,2.183-5.293,0.387
			c-1.42-0.79-2.431,0.457-2.431,0.457s0.685-2.47,2.766-1.671C46.449,31.376,47.736,32.629,50.288,31.771z"/>
		<path style="clip-path:url(#SVGID_2_);fill:#121B21;" d="M18.485,32.073c0,0,2.447,2.125,5.549,0.206
			c1.359-0.844,2.525,0.193,2.525,0.193s-0.568-2.449-2.741-1.343C22.985,31.551,21.053,32.821,18.485,32.073z"/>
		<path style="opacity:0.7;clip-path:url(#SVGID_2_);fill:#F73434;" d="M35.144,41.394c3.702-0.071,6.111,0.276,8.571-0.286
			c-0.779,0.496-2.802,2.709-3.066,3.576c-0.625,2.05-2.006,4.775-5.937,4.475c-3.138-0.24-5.6-1.504-9.527-8.252
			C27.578,42.319,32.081,41.452,35.144,41.394z"/>
		<path style="clip-path:url(#SVGID_2_);fill:#C22C25;" d="M27.021,42.098c0,0,6.503,2.06,15.072,0.021c0,0-1.344,0.583-2.006,2.244
			c-0.604,1.518-2.685,2.548-5.818,2.44C29.375,46.632,27.021,42.098,27.021,42.098z"/>
		<path style="clip-path:url(#SVGID_2_);fill:#FFF9F0;" d="M28.832,42.523c0,0,0.129,1.363,1.862,1.912
			c2.224,0.707,4.632,0.783,7.12,0.42c1.678-0.244,2.531-2.371,2.531-2.371S35.545,43.596,28.832,42.523z"/>
		<path style="clip-path:url(#SVGID_2_);fill:#FFF9F0;" d="M29.624,44.5c-0.166-0.357-0.085-0.928,0.708-0.387
			c1.108,0.76,2.967,0.941,5.208,0.889c2.076-0.051,3.135-0.666,3.536-0.275c0.402,0.394-1.479,2.596-5.046,2.131
			C30.32,46.377,29.624,44.5,29.624,44.5z"/>
		<path style="clip-path:url(#SVGID_2_);fill:#E8DAC5;" d="M29.263,43.488c0,0,8.387-0.613,10.379,0.176c0,0,0.6-0.744,0.704-1.18
			c0,0-5.87,1.033-11.514,0.039C28.832,42.523,28.949,43.156,29.263,43.488z"/>
		<path style="clip-path:url(#SVGID_2_);fill:#E8DAC5;" d="M30.994,44.397c0,0,2.8,1.222,6.595,0.388
			C37.589,44.785,33.97,46.305,30.994,44.397z"/>
		<path style="opacity:0.3;clip-path:url(#SVGID_2_);fill:#B54D26;" d="M40.083,38.121c-0.426-0.328-0.791-0.729-1.056-1.199
			c-0.551-0.977-0.55-2.154-0.146-3.186c0.552-1.422,2.129-1.498,3.438-1.577c1.584-0.098,3.183-0.028,4.76-0.136
			c0.702-0.046,1.398,0.065,2.098,0.105c0.901,0.052,2.853-0.188,1.816-1.521c-1.001-1.288-3.016-1.366-4.476-1.326
			c-1.504,0.042-3.005,0.236-4.472,0.583c-1.249,0.297-2.712,0.411-3.871,0.974c-1.068,0.522-1.521,0.868-2.793,0.783
			c-2.275-0.149-4.16-1.617-6.43-1.91c-2.363-0.305-4.78-0.645-7.132-0.06c-0.611,0.154-2.465,0.802-1.241,1.485
			c1.195,0.668,3.012,0.51,4.335,0.595c0.612,0.038,1.229,0.069,1.836,0.141c2.161,0.251,5.5,0.037,5.26,2.736
			c-0.165,1.853-1.408,3.729-2.925,4.042c-1.454,0.297-3.006,0.389-4.472,0.348c-1.12-0.033-2.198-0.276-3.207-0.775
			c-0.288-0.143-1.142-0.718-1.433-0.332c-0.493,0.654,1.24,1.803,1.696,2.023c1.043,0.501,2.159,0.674,3.3,0.823
			c2.817,0.37,5.73,0.294,7.39-2.261c0.962-1.484,1.469-3.243,2.363-4.766c1.467-2.494,2.041,0.953,2.447,2.467
			c0.228,0.85,0.57,1.678,1.068,2.4c0.882,1.282,2.659,2.01,4.158,2.117c0.925,0.064,1.873,0.039,2.748-0.296
			c0.53-0.206,0.758-0.806,0.135-1.058c-0.376-0.154-0.985-0.064-1.383-0.091c-0.579-0.037-1.174-0.06-1.742-0.183
			C41.424,38.914,40.692,38.592,40.083,38.121z"/>
		<path style="clip-path:url(#SVGID_2_);fill:#E62628;" d="M16.08,30.59c0,0,0.583,0.432,1.455,0.526
			c0.091,1.296-0.06,4.64,2.268,6.808c1.943,1.809,8.413,2.471,10.452,1.503c2.528-1.196,3.646-3.503,4.142-5.789
			c1.214-5.607-12.169-5.059-14.8-5.036c-1.866,0.015-3.444-0.541-3.893-0.176C15.121,28.902,16.08,30.59,16.08,30.59z
			 M19.459,31.177c2.395-1.366,11.257-0.614,13.272,1.001c0.978,0.783-0.41,4.572-2.307,5.734
			c-2.501,1.534-8.785,0.637-10.376-1.426C18.823,34.895,18.676,31.624,19.459,31.177z"/>
		<path style="clip-path:url(#SVGID_2_);fill:#E62628;" d="M53.701,28.676c-0.401-0.371-1.834,0.167-3.52,0.128
			c-2.376-0.056-14.455-0.766-13.435,4.854c0.417,2.294,1.396,4.612,3.662,5.839c1.829,0.992,7.683,0.409,9.46-1.375
			c2.133-2.139,2.041-5.486,2.141-6.781c0.789-0.083,1.321-0.508,1.321-0.508S54.221,29.157,53.701,28.676z M49.667,36.68
			c-1.465,2.045-7.15,2.866-9.39,1.301c-1.697-1.186-2.899-4.989-2.006-5.76c1.842-1.59,9.856-2.234,12-0.84
			C50.973,31.837,50.797,35.105,49.667,36.68z"/>
		<path style="opacity:0.3;clip-path:url(#SVGID_2_);fill:#FFFFFF;" d="M39.848,31.75c1.467-0.592,8.977-1.091,9.822-0.302
			c0.604,0.563-1.56,1.426-2.562,1.59c-1.904,0.311-3.927,0.391-5.704,0.088C40.893,33.038,38.52,32.29,39.848,31.75z"/>
		<path style="clip-path:url(#SVGID_2_);fill:#FFFFFF;" d="M45.729,31.551c1.526-0.209,4.161,0.044,3.871,0.513
			c-0.294,0.478-4.496,0.749-4.869,0.107C44.543,31.846,45.014,31.646,45.729,31.551z"/>
		<path style="opacity:0.7;clip-path:url(#SVGID_2_);fill:#FFFFFF;" d="M41.073,36.676c0.958,0.064,2.527,0.654,2.289,0.982
			c-0.245,0.332-2.842-0.08-2.979-0.643C40.31,36.732,40.624,36.646,41.073,36.676z"/>
		<path style="opacity:0.7;clip-path:url(#SVGID_2_);fill:#FFFFFF;" d="M21.51,36.053c0.992,0.183,2.562,0.965,2.271,1.261
			c-0.3,0.299-2.964-0.434-3.039-1.007C20.703,36.015,21.043,35.967,21.51,36.053z"/>
		<path style="opacity:0.3;clip-path:url(#SVGID_2_);fill:#FFFFFF;" d="M20.981,31.096c0.869-0.713,9.123,0.098,10.772,0.729
			c1.493,0.573-1.052,1.18-1.604,1.239c-1.926,0.21-4.143,0.041-6.251-0.339C22.791,32.523,20.358,31.605,20.981,31.096z"/>
		<path style="clip-path:url(#SVGID_2_);fill:#FFFFFF;" d="M28.171,31.263c1.623-0.015,4.35,0.566,3.984,0.996
			c-0.37,0.439-4.802,0.18-5.109-0.502C26.89,31.409,27.409,31.271,28.171,31.263z"/>
		<path style="clip-path:url(#SVGID_2_);fill:#E62628;" d="M32.574,30.249c2.386,0.909,4.072,0.825,5.817,0.073
			c1.747-0.752-0.016,0.639-0.354,1.015c-0.338,0.377-0.375,4.595-1.15,2.998c-0.774-1.596-2.046-1.518-2.716,0.186
			c-0.671,1.704-0.291-1.171-0.479-2.119C33.502,31.451,30.772,29.561,32.574,30.249z"/>
		<path style="clip-path:url(#SVGID_2_);fill:#FF7373;" d="M32.518,31.029c-1.945-1.677-5.351-2.116-12.061-1.852
			C25.486,29.546,29.504,29.784,32.518,31.029z"/>
		<path style="clip-path:url(#SVGID_2_);fill:#FF7373;" d="M39.043,30.814c1.689-1.525,4.554-1.502,10.702-1.58
			C45.168,29.78,41.732,29.611,39.043,30.814z"/>
	</g>
</g>
<g id="Layer_1">
</g>
</svg>
