<?xml version="1.0" encoding="iso-8859-1"?>
<!-- Generator: Adobe Illustrator 16.0.0, SVG Export Plug-In . SVG Version: 6.00 Build 0)  -->
<!DOCTYPE svg PUBLIC "-//W3C//DTD SVG 1.1//EN" "http://www.w3.org/Graphics/SVG/1.1/DTD/svg11.dtd">
<svg version="1.1" xmlns="http://www.w3.org/2000/svg" xmlns:xlink="http://www.w3.org/1999/xlink" x="0px" y="0px"
	 width="66.002px" height="66px" viewBox="0 0 66.002 66" style="enable-background:new 0 0 66.002 66;" xml:space="preserve">
<g id="Layer_88">
	<g>
		<defs>
			<circle id="SVGID_1_" cx="33.002" cy="33" r="33"/>
		</defs>
		<clipPath id="SVGID_2_">
			<use xlink:href="#SVGID_1_"  style="overflow:visible;"/>
		</clipPath>
		<rect style="clip-path:url(#SVGID_2_);fill:#FFFFFF;" width="66" height="66"/>
		<path style="clip-path:url(#SVGID_2_);fill:#FFB06B;" d="M28.574,55.037c-3.587,1.258-3.836,4.169-5.316,10.963h3.318
			c0.645-2.989,1.188-5.84,2.733-7.139C30.539,57.828,30.355,54.412,28.574,55.037z"/>
		<path style="clip-path:url(#SVGID_2_);fill:#FFB06B;" d="M38.453,55.037c-1.782-0.625-1.965,2.791-0.735,3.824
			c1.545,1.299,2.088,4.149,2.732,7.139h3.319C42.289,59.206,42.039,56.295,38.453,55.037z"/>
		<path style="clip-path:url(#SVGID_2_);fill:#FFB06B;" d="M39.179,55.186c-2.047-1.483-8.908-1.822-11.585,0.195
			c-2.69,2.027,0.323,5.875,1.058,10.619h9.875C39.154,61.275,41.911,57.166,39.179,55.186z"/>
		<path style="clip-path:url(#SVGID_2_);fill:#23232D;" d="M39.556,61.908c-0.873-1.897-0.835-5.205-0.377-6.723
			c-0.254-0.262-0.477-0.436-0.917-0.581c-2.426-0.798-6.898-1.065-9.558,0.072c-0.47,0.201-0.753,0.412-1.11,0.704
			c0.38,1.359,0.637,4.059-0.242,6.15c0.502,1.477,0.937,3.05,1.132,4.469h10.248C38.889,64.632,39.19,63.158,39.556,61.908z"/>
		<linearGradient id="SVGID_3_" gradientUnits="userSpaceOnUse" x1="33.4829" y1="51.8975" x2="33.4829" y2="55.4692">
			<stop  offset="0" style="stop-color:#E88958"/>
			<stop  offset="0.3384" style="stop-color:#F49D62"/>
			<stop  offset="0.6924" style="stop-color:#FCAB69"/>
			<stop  offset="1" style="stop-color:#FFB06B"/>
		</linearGradient>
		<path style="clip-path:url(#SVGID_2_);fill:url(#SVGID_3_);" d="M36.303,50.433c0.205-3.57-5.961-3.703-5.954,0.193
			c0.002,1.727,0.073,2.819-0.401,3.284c-0.279,0.274-1.243,0.767-1.243,0.767c0.559,3.617,0.946,5.067,4.81,5.067
			c3.497,0,4.424-1.12,4.748-5.14c0,0-1.2-0.455-1.629-0.796C36.079,53.367,36.213,52.008,36.303,50.433z"/>
		<circle style="clip-path:url(#SVGID_2_);fill:#FFF9F0;" cx="29.789" cy="54.469" r="0.526"/>
		<circle style="clip-path:url(#SVGID_2_);fill:#FFF9F0;" cx="30.99" cy="55.285" r="0.526"/>
		<circle style="clip-path:url(#SVGID_2_);fill:#FFF9F0;" cx="32.546" cy="55.834" r="0.526"/>
		<circle style="clip-path:url(#SVGID_2_);fill:#FFF9F0;" cx="34.105" cy="55.918" r="0.526"/>
		<circle style="clip-path:url(#SVGID_2_);fill:#FFF9F0;" cx="36.93" cy="54.416" r="0.526"/>
		<path style="clip-path:url(#SVGID_2_);fill:#FFF9F0;" d="M35.662,54.814c-0.288,0.01-0.515,0.253-0.504,0.543
			c0.009,0.291,0.251,0.519,0.537,0.508c0.291-0.009,0.516-0.252,0.506-0.543C36.191,55.033,35.95,54.805,35.662,54.814z"/>
		<path style="opacity:0.07;clip-path:url(#SVGID_2_);fill:#FFFFFF;" d="M36.063,60.129c-1.747,0.617-3.875,0.358-5.669-0.091
			c-1.031-0.259-1.61,0.909-1.292,1.907c0.419,1.323,2.56,1.671,4.424,1.641c3.678-0.058,5.056-1.424,4.432-3.052
			C37.792,60.097,37.005,59.797,36.063,60.129z"/>
		<path style="clip-path:url(#SVGID_2_);fill:#261B18;" d="M16.305,18.443c-2.597,7.131-2.756,12.615-4.428,23.852
			c-0.423,2.844-2.144,7.239-1.346,8.954c1.117,2.402,3.853,0.97,6.131,1.671c2.462,0.757,5.193,1.859,5.722-1.603
			c0.257,0.654,0.32,1.403,0.295,2.094c1.9,0.016,8.388-2.149,12.788-2.044c3.919,0.095,12.09,3.521,13.668-1.009
			c1.177-3.376,2.151-18.245,1.549-23.093c-0.037-0.299,1.151-0.726,1.184-0.982c0.106-0.867,0.17-1.479,0.18-1.723
			C52.801,5.223,22.771,0.676,16.305,18.443z"/>
		<path style="clip-path:url(#SVGID_2_);fill:#FFB06B;" d="M31.712,15.632c-7.585,1.469-12.945,12.366-11.566,22.598
			c1.021,7.593,8.052,15.067,15.437,15.067c7.82,0,13.965-11.905,12.854-20.927C47.175,22.125,42.336,13.577,31.712,15.632z"/>
		<path style="opacity:0.3;clip-path:url(#SVGID_2_);fill:#BF3C1B;" d="M45.032,18.499c-4.127-1.646-8.132-2.596-12.659-2.717
			c-2.769-0.073-6.488-0.253-9.081,0.861c-3.882,1.668-5.555,4.222-6.097,8.143c-0.369,2.665,2.307,5.213,4.358,6.876
			c1.46-1.424,0.772-3.35,0.732-5.03c0.35,1.915,1.916,1.356,3.573,1.437c1.474,0.07,4.001,0.713,5.346-0.014
			c0.605-0.328,0.711-0.763,0.941-1.408c0.234,0.297,0.513,0.507,0.823,0.656c0.989,0.475,2.287,0.317,3.382,0.364
			c1.616,0.069,3.323,0.24,4.884-0.293c0.681-0.233,1.085-0.431,1.285-1.204c0.266,1.627,2.726,1.346,4.065,1.302
			C48.954,27.394,47.298,19.401,45.032,18.499z"/>
		<path style="clip-path:url(#SVGID_2_);fill:#FFB06B;" d="M17.505,33.965c-3.725,1.02-2.24,6.459,0.802,7.555
			c0.974,0.351,2.009,0.4,3.008,0.331c0.019-0.03,0.039-0.061,0.06-0.092c0.447-0.707-0.172-4.671-0.399-5.417
			C20.405,34.462,19.293,33.475,17.505,33.965z"/>
		<path style="opacity:0.5;clip-path:url(#SVGID_2_);fill:#B54319;" d="M18.81,35.967c-0.838-0.385-2.926,0.306-1.948,1.943
			c0.521-1.517,1.443-0.52,1.301,0.558c-0.096,0.723-0.872,0.731-0.103,1.661c0.418,0.503,1.263,0.317,1.69,0.05
			C21.106,39.326,19.829,36.439,18.81,35.967z"/>
		<path style="clip-path:url(#SVGID_2_);fill:#261B18;" d="M31.896,24.329c0.007,0.017,0.014,0.04,0.021,0.058
			c0.002-0.012,0.007-0.023,0.009-0.036C31.914,24.307,31.904,24.298,31.896,24.329z"/>
		<path style="clip-path:url(#SVGID_2_);fill:#261B18;" d="M42.735,13.548c-4.189-3.562-9.651-3.541-14.812-2.656
			c-1.978,0.337-4.792,0.835-6.562,1.819c-1.54,0.857-2.155,2.881-2.867,4.414c-1.274,2.742-1.677,6.062-1.927,9.039
			c-0.136,1.603,0.494,3.242,0.655,4.847c0.156,1.566,0.853,2.91,1.148,4.449c0.448,2.346,0.295,4.737-0.456,7.006
			c-0.315,0.956-1.072,1.744-0.376,2.599c0.547,0.671,1.881,0.975,2.463,0.364c0.487-0.512,1.433-4.712,1.64-5.786
			c0.511-2.643,0.441-5.717,0.343-8.385c-0.094-2.517-0.011-5.105,0.827-7.498c-0.084,1.021,0.315,2.351,0.381,3.429
			c2.564-0.308,5.302-0.094,7.877-0.193c0.412-0.82,0.68-1.712,0.847-2.608c-0.007-0.018-0.014-0.042-0.021-0.058
			c0.008-0.031,0.018-0.022,0.029,0.022c-0.002,0.012-0.007,0.024-0.009,0.036c0.171,0.464,0.347,1.481,0.681,1.749
			c0.619,0.498,2.415,0.192,3.163,0.244c1.407,0.093,3.794,0.59,5.142,0.007c0.872-0.377,1.004-1.191,1.224-2.093
			c-0.001-0.001-0.001-0.003-0.002-0.004c-0.007-0.051-0.006-0.052,0.004-0.003c-0.001,0.002-0.001,0.005-0.002,0.007
			c0.272,0.464,0.394,1.277,0.832,1.495c0.512,0.252,1.944,0.438,2.553,0.46c0.708,0.023,2.341,0.08,3.052-0.052
			c2.022-0.372,0.572-3.949,0.044-5.239C47.415,18.058,44.947,15.428,42.735,13.548z"/>
		<path style="clip-path:url(#SVGID_2_);fill:#261B18;" d="M42.124,24.289c0.001,0.001,0.001,0.003,0.002,0.004
			c0.001-0.002,0.001-0.005,0.002-0.007C42.118,24.237,42.117,24.238,42.124,24.289z"/>
		<path style="clip-path:url(#SVGID_2_);fill:#57443A;" d="M30.453,9.002C26.546,9.411,21,12.538,19.261,16.054
			c-3.923,7.94-5.429,16.755-5.76,25.52c-0.085,2.218-1.368,5.603-1.237,7.633c0.119,1.875,1.021,1.913,2.516,0.852
			c1.952-1.386-0.208-8.628,0.156-13.137c0.287-3.545,3.212-3.712,4.186-8.396c1.106,6.289,0.113,14.527-2.28,21.411
			c8.272-13.923,1.775-21.147,6.106-30.473c1.885,2.099,5.2,2.744,7.994,1.576c2.486-1.039,5.974-1.219,8.557-0.238
			c3.392,1.29,6.559,1.933,10.803,0.118C48.239,11.008,37.538,8.258,30.453,9.002z"/>
		<path style="clip-path:url(#SVGID_2_);fill:#FFC48F;" d="M44.973,35.57c-1.174-0.195-2.801-0.017-2.015,1.824
			c0.421,0.98,4.999,2.372,4.771,0.229c-0.023-0.221-0.081-0.419-0.168-0.597C47.104,36.085,45.872,35.72,44.973,35.57z"/>
		<path style="clip-path:url(#SVGID_2_);fill:#FFC48F;" d="M29.332,36.173c-0.871-0.666-2.199-0.426-3.112-0.143
			c-1.192,0.37-2.633,1.306-1.026,2.656c0.856,0.722,5.804-0.134,4.579-2.034C29.646,36.457,29.498,36.299,29.332,36.173z"/>
		<path style="opacity:0.5;clip-path:url(#SVGID_2_);fill:#B54319;" d="M37.094,37.305c-0.977-0.066-0.956-0.593-1.662-0.19
			c-0.707,0.4-0.185,1.944,1.548,2.017c1.727,0.072,2.541-1.201,2.206-1.729C38.799,36.789,38.179,37.382,37.094,37.305z"/>
		<path style="clip-path:url(#SVGID_2_);fill:#FFC48F;" d="M36.85,34.462c-0.802,0.015-1.988,2.714-1.587,3.124
			c0.984,1.003,3.167,0.531,3.83-0.154C39.354,37.16,37.758,34.446,36.85,34.462z"/>
		<path style="clip-path:url(#SVGID_2_);fill:#261B18;" d="M46,31.408c-2.699-1.152-5.163,2.179-3.221,3.911
			c0.391-0.424,2.506-1.106,3.812-0.121C47.699,34.404,47.446,32.026,46,31.408z"/>
		<path style="clip-path:url(#SVGID_2_);fill:#CFC4C4;" d="M46.3,33.28c-0.739,0.232-0.389,1.651,0.366,1.152
			C47.214,34.074,46.957,33.076,46.3,33.28z"/>
		<path style="clip-path:url(#SVGID_2_);fill:#CFC4C4;" d="M43.77,31.805c-1.256,0.395-0.663,2.807,0.623,1.959
			C45.322,33.155,44.887,31.458,43.77,31.805z"/>
		<path style="clip-path:url(#SVGID_2_);fill:#261B18;" d="M25.892,31.627c-1.428,0.66-1.612,3.044-0.479,3.806
			c1.275-1.023,3.41-0.402,3.813,0.01C31.116,33.654,28.557,30.396,25.892,31.627z"/>
		<path style="clip-path:url(#SVGID_2_);fill:#CFC4C4;" d="M25.646,33.508c-0.664-0.187-0.892,0.819-0.333,1.161
			C26.083,35.146,26.392,33.717,25.646,33.508z"/>
		<path style="clip-path:url(#SVGID_2_);fill:#CFC4C4;" d="M28.133,31.958c-1.127-0.313-1.514,1.395-0.566,1.977
			C28.876,34.744,29.4,32.315,28.133,31.958z"/>
		<path style="clip-path:url(#SVGID_2_);fill:#261B18;" d="M29.548,27.765c-1.342,0.069-2.614,0.18-3.92,0.599
			c-0.811,0.261-1.776,0.734-2.381,1.297c-0.204,0.191-0.446,0.513-0.41,0.774c0.22,0.014,0.372-0.139,0.565-0.213
			c0.982-0.375,2.041-0.505,3.072-0.622c0.804-0.091,1.609-0.109,2.41-0.222c0.538-0.073,1.283-0.035,1.526-0.589
			C30.719,28.089,30.271,27.727,29.548,27.765z"/>
		<path style="clip-path:url(#SVGID_2_);fill:#2B221C;" d="M45.809,28.145c-1.271-0.385-2.514-0.473-3.824-0.521
			c-0.707-0.027-1.146,0.328-0.853,0.994c0.231,0.529,0.962,0.481,1.485,0.546c0.784,0.096,1.569,0.104,2.354,0.18
			c1.008,0.098,2.041,0.209,2.995,0.556c0.189,0.069,0.338,0.212,0.553,0.197c0.038-0.252-0.197-0.558-0.395-0.737
			C47.537,28.826,46.598,28.385,45.809,28.145z"/>
		<path style="clip-path:url(#SVGID_2_);fill:#121B21;" d="M45.462,30.946c-2.489-0.452-3.192,1.998-3.192,1.998
			s1.205-1.552,2.822-0.862c3.667,1.565,5.607-1.036,5.607-1.036C48.08,32.27,46.735,31.178,45.462,30.946z"/>
		<path style="clip-path:url(#SVGID_2_);fill:#121B21;" d="M26.52,31.218c-1.271,0.245-2.605,1.352-5.236,0.155
			c0,0,1.968,2.581,5.618,0.977c1.609-0.707,2.831,0.833,2.831,0.833S29.003,30.74,26.52,31.218z"/>
		<path style="opacity:0.35;clip-path:url(#SVGID_2_);fill:#C4170E;" d="M36.133,41.093c-3.164,0.139-7.796,1.077-10.311-0.19
			c4.248,6.241,6.829,7.365,10.078,7.507c4.074,0.176,5.427-2.425,6.016-4.37c0.249-0.821,2.279-2.957,3.07-3.447
			C42.458,41.189,39.958,40.926,36.133,41.093z"/>
		<path style="clip-path:url(#SVGID_2_);fill:#8F2621;" d="M27.754,41.973c0,0,2.562,4.202,7.625,4.231
			c3.244,0.017,5.365-1.008,5.948-2.452c0.637-1.578,2.011-2.165,2.011-2.165C34.534,43.736,27.754,41.973,27.754,41.973z"/>
		<path style="clip-path:url(#SVGID_2_);fill:#FFF9F0;" d="M29.64,42.325c0,0,0.17,1.279,1.978,1.75
			c2.32,0.604,4.81,0.61,7.373,0.201c1.727-0.273,2.551-2.296,2.551-2.296S36.609,43.153,29.64,42.325z"/>
		<path style="clip-path:url(#SVGID_2_);fill:#FFF9F0;" d="M36.643,44.477c-2.316,0.11-4.242-0.011-5.41-0.695
			c-0.833-0.487-0.901,0.05-0.719,0.382c0,0,0.772,1.747,4.62,2.1c3.7,0.341,5.584-1.781,5.158-2.14
			C39.865,43.766,38.788,44.373,36.643,44.477z"/>
		<path style="clip-path:url(#SVGID_2_);fill:#E8DAC5;" d="M29.64,42.325c0,0,0.138,0.593,0.472,0.897c0,0,8.653-0.805,10.734-0.115
			c0,0,0.601-0.715,0.695-1.127C41.541,41.98,35.502,43.107,29.64,42.325z"/>
		<path style="clip-path:url(#SVGID_2_);fill:#E8DAC5;" d="M31.926,44.03c3.129,1.712,6.829,0.188,6.829,0.188
			C34.855,45.104,31.926,44.03,31.926,44.03z"/>
	</g>
</g>
<g id="Layer_1">
</g>
</svg>
