<?xml version="1.0" encoding="iso-8859-1"?>
<!-- Generator: Adobe Illustrator 16.0.0, SVG Export Plug-In . SVG Version: 6.00 Build 0)  -->
<!DOCTYPE svg PUBLIC "-//W3C//DTD SVG 1.1//EN" "http://www.w3.org/Graphics/SVG/1.1/DTD/svg11.dtd">
<svg version="1.1" xmlns="http://www.w3.org/2000/svg" xmlns:xlink="http://www.w3.org/1999/xlink" x="0px" y="0px" width="66.01px"
	 height="66px" viewBox="0 0 66.01 66" style="enable-background:new 0 0 66.01 66;" xml:space="preserve">
<g id="Layer_38">
	<g>
		<defs>
			<circle id="SVGID_1_" cx="33.01" cy="33" r="33"/>
		</defs>
		<clipPath id="SVGID_2_">
			<use xlink:href="#SVGID_1_"  style="overflow:visible;"/>
		</clipPath>
		<rect style="clip-path:url(#SVGID_2_);fill:#D6BB40;" width="66" height="66"/>
		<path style="clip-path:url(#SVGID_2_);fill:#3A3A4A;" d="M41.873,64.225c0.051-4.514,4.382-7.238,1.925-9.055
			c-6.095-4.508-16.198-3.23-21.282,0c-2.322,1.475,1.719,4.686,1.813,9.055c0.013,0.622,0.036,1.211,0.064,1.775h17.449
			C41.854,65.432,41.866,64.844,41.873,64.225z"/>
		<path style="clip-path:url(#SVGID_2_);fill:#535363;" d="M22.912,51.389c-1.949,2.709,2.212,5.482,10.159,5.482
			c8.604,0,12.142-2.607,10.257-5.482C37.184,42.006,28.903,43.059,22.912,51.389z"/>
		<path style="clip-path:url(#SVGID_2_);fill:#23232D;" d="M26.235,51.732c-2.279,2.695,2.347,4.096,6.823,4.158
			c4.477,0.064,8.048-1.268,7.185-3.703C39.221,49.301,28.283,49.311,26.235,51.732z"/>
		<path style="clip-path:url(#SVGID_2_);fill:#E88E61;" d="M33.004,48.26c-1.983-0.004-4.777,0.963-4.976,3.504
			c-0.094,1.182,0.117,1.867,0.85,2.523c1.173,1.047,2.624,1.898,4.126,1.922c1.502-0.023,2.952-0.875,4.124-1.922
			c0.733-0.656,0.943-1.342,0.852-2.523C37.78,49.223,34.985,48.256,33.004,48.26z"/>
		<path style="clip-path:url(#SVGID_2_);fill:#535363;" d="M28.083,56.057c-1.379,1.426-2.415,3.434-3.076,5.963
			c-0.061,0.229,0.077,0.463,0.307,0.523c0.036,0.01,0.072,0.014,0.107,0.014c0.191,0,0.365-0.127,0.415-0.32
			c0.624-2.385,1.588-4.264,2.864-5.584c0.165-0.17,0.16-0.441-0.01-0.605C28.52,55.881,28.249,55.887,28.083,56.057z"/>
		<path style="clip-path:url(#SVGID_2_);fill:#535363;" d="M38.079,56.057c-0.164-0.17-0.435-0.176-0.606-0.01
			c-0.17,0.164-0.175,0.436-0.011,0.605c1.277,1.32,2.24,3.199,2.865,5.584c0.05,0.193,0.224,0.32,0.414,0.32
			c0.036,0,0.072-0.004,0.108-0.014c0.229-0.061,0.366-0.295,0.307-0.523C40.494,59.49,39.459,57.482,38.079,56.057z"/>
		<path style="clip-path:url(#SVGID_2_);fill:#3A3A4A;" d="M28.103,50.965c-1.753,0.674-3.24,5.559,5.261,5.432
			C34.985,56.373,28.111,56.008,28.103,50.965z"/>
		<path style="clip-path:url(#SVGID_2_);fill:#3A3A4A;" d="M37.881,50.965c0.661,4.77-6.883,5.408-5.262,5.432
			C41.121,56.523,39.634,51.639,37.881,50.965z"/>
		<path style="clip-path:url(#SVGID_2_);fill:#EBA971;" d="M48.092,33.583c-1.519-0.616-2.483,0.422-2.998,2.469
			c-0.205,0.811-0.794,5.15-0.424,5.945c0.017,0.037,0.034,0.07,0.049,0.105c0.851,0.119,1.734,0.109,2.573-0.236
			C49.902,40.791,51.256,34.867,48.092,33.583z"/>
		<path style="clip-path:url(#SVGID_2_);fill:#D99A64;" d="M16.868,20.663c-1.312,4.574-1.243,11.146,1.064,15.726
			c1.203,2.391,4.077,0.795,6.105,0.291c2.495-0.617,5.004-1.18,7.514-1.734c4.125-0.908,8.648-0.002,12.834,0.395
			c3.277,0.313,3.518,1.846,3.521-0.824c0.004-3.303,0.594-8.704,0.007-12.382C45.202,5.116,20.475,8.079,16.868,20.663z"/>
		<path style="clip-path:url(#SVGID_2_);fill:#FFBC82;" d="M31.159,14.788c-11.689,1.591-13.537,12.284-12.4,22.765
			c0.854,7.852,6.655,16.596,15.759,16.195c9.29-0.41,14.215-11.785,13.277-21.436C46.775,21.82,44.518,12.97,31.159,14.788z"/>
		<path style="clip-path:url(#SVGID_2_);fill:#FFBC82;" d="M16.21,33.139c-3.902,0.978-2.03,8.376,0.9,10.033
			c1.165,0.66,2.482,0.336,3.032-1.135c0.659-1.021,0.276-3.852-0.391-6.309C19.212,33.737,18.082,32.67,16.21,33.139z"/>
		<path style="opacity:0.5;clip-path:url(#SVGID_2_);fill:#B54319;" d="M17.455,35.209c-0.844-0.416-2.995,0.234-2.037,1.932
			c0.57-1.533,1.485-0.492,1.312,0.604c-0.116,0.736-0.909,0.725-0.148,1.693c0.413,0.525,1.281,0.357,1.725,0.096
			C19.714,38.697,18.485,35.717,17.455,35.209z"/>
		<path style="clip-path:url(#SVGID_2_);fill:#E85216;" d="M32.303,12.738c-9.482-0.078-16.225,6.73-15.596,20.301
			c0.395-0.011,1.207-0.011,1.796,0.569c0.786,0.773,0.758,1.619,0.973,2.044c0.1,0.217,0.215,0.574,0.962,0.539
			c-1.408-4.561-0.504-11.492,1.046-13.57c3.845-5.155,10.019,0.689,14.734,0.578c3.762-0.09,7.875-4.916,9.936-0.036
			C47.556,26.49,47.518,12.865,32.303,12.738z"/>
		<circle style="clip-path:url(#SVGID_2_);fill:#23232D;" cx="17.926" cy="41.569" r="1.007"/>
		<path style="opacity:0.5;clip-path:url(#SVGID_2_);fill:#B54319;" d="M35.592,38.143c-1.216,0.043-1.708-0.502-2.549,0.023
			c-0.839,0.523,0.414,2.117,2.564,1.99c2.141-0.123,3.039-1.617,2.58-2.156C37.655,37.375,36.94,38.098,35.592,38.143z"/>
		<path style="clip-path:url(#SVGID_2_);fill:#FFD4AD;" d="M35.034,32.664c-0.986,0.156-2.188,5.446-1.639,5.825
			c1.346,0.924,4.067,0.375,4.792-0.488C38.472,37.66,36.147,32.49,35.034,32.664z"/>
		<path style="clip-path:url(#SVGID_2_);fill:#C93712;" d="M25.552,26.125c-0.982-0.112-2.403,0.351-3.589,0.9
			c-0.854,0.396-0.701,1.157,0.059,1.063c0.728-0.092,1.495-0.278,1.789-0.313c1.274-0.153,2.664,0.054,3.708,0.66
			c0.557,0.323,1.87,1.079,2.415,0.326C31.022,27.252,26.446,26.227,25.552,26.125z"/>
		<path style="clip-path:url(#SVGID_2_);fill:#C93712;" d="M47.12,27.397c-1.061-0.591-2.359-1.109-3.277-1.021
			c-0.817,0.079-5.028,0.991-4.12,2.52c0.454,0.765,1.688,0.042,2.21-0.266c0.981-0.578,2.255-0.752,3.404-0.566
			c0.264,0.042,0.951,0.247,1.607,0.354C47.559,28.52,47.832,27.794,47.12,27.397z"/>
		<path style="clip-path:url(#SVGID_2_);fill:#FFD4AD;" d="M46.459,37.201c-0.612-0.875-1.913-1.047-2.845-1.053
			c-1.214-0.01-2.827,0.432-1.738,2.162c0.582,0.922,5.421,1.592,4.849-0.535C46.664,37.557,46.575,37.367,46.459,37.201z"/>
		<path style="clip-path:url(#SVGID_2_);fill:#FFD4AD;" d="M27.373,36.561c-0.822-0.762-2.196-0.645-3.152-0.443
			c-1.246,0.264-2.8,1.078-1.296,2.605c0.803,0.813,5.914,0.416,4.851-1.633C27.664,36.877,27.529,36.703,27.373,36.561z"/>
		<path style="clip-path:url(#SVGID_2_);fill:#C26346;" d="M24.97,41.098c0.609,2.143,3.068,1.398,2.439-0.791
			C26.853,41.309,25.704,41.623,24.97,41.098z"/>
		<path style="clip-path:url(#SVGID_2_);fill:#C26346;" d="M41.941,40.896c-0.859,2.105,1.505,3.119,2.341,1.057
			C43.495,42.395,42.387,41.953,41.941,40.896z"/>
		<path style="clip-path:url(#SVGID_2_);fill:#C26346;" d="M42.812,42.295c-0.312-0.145-0.685-0.014-0.832,0.299
			c-0.78,1.66-1.48,1.51-3.174,1.146c-0.705-0.15-1.504-0.322-2.434-0.361c-1.408-0.061-2.767,0.168-3.966,0.371
			c-2.968,0.502-4.436,0.633-5.306-1.85c-0.114-0.326-0.47-0.496-0.796-0.383c-0.326,0.115-0.497,0.471-0.384,0.797
			c0.835,2.377,2.33,2.973,4.022,2.973c0.859,0,1.771-0.154,2.671-0.305c1.194-0.203,2.432-0.414,3.704-0.355
			c0.824,0.035,1.568,0.195,2.226,0.336c1.729,0.369,3.363,0.721,4.566-1.836C43.257,42.814,43.123,42.441,42.812,42.295z"/>
		<path style="clip-path:url(#SVGID_2_);fill:#261B18;" d="M25.869,30.772c-2.249-0.78-3.339,3.188-1.76,4.343
			c0.679-0.254,1.504-0.24,2.173,0.027C27.69,34.279,27.543,31.353,25.869,30.772z"/>
		<path style="clip-path:url(#SVGID_2_);fill:#261B18;" d="M45.125,31.105c-2.188-1.394-3.937,2.851-2.136,4.112
			c0.59-0.369,1.754-0.219,2.313,0.059C46.22,34.313,46.297,31.852,45.125,31.105z"/>
		<path style="opacity:0.7;clip-path:url(#SVGID_2_);fill:#E6D2C3;" d="M25.142,31.503c-0.862,0.365-0.063,2.036,0.754,1.348
			C26.486,32.354,25.91,31.18,25.142,31.503z"/>
		<path style="opacity:0.7;clip-path:url(#SVGID_2_);fill:#E6D2C3;" d="M44.243,31.549c-0.88,0.151-0.508,1.884,0.401,1.42
			C45.302,32.635,45.024,31.416,44.243,31.549z"/>
		<path style="clip-path:url(#SVGID_2_);fill:#8E9194;" d="M38.809,9.545c-11.021-4.244-21.762,2.427-24.399,9.027
			c-2.238,5.602,0.491,7.073,0.491,7.073s-0.936,1.293-0.184,3.814c0.494,1.655,0.395,2.644,0.142,3.9
			c-0.223,1.106,1.762-0.858,3.891,0.512c0.544-8.888,5.225-15.669,17.821-15.077c13.11,0.617,11.087,11.107,11.225,14.691
			c0,0,0.688,0.621,0.965-0.482C49.036,31.902,51.932,14.596,38.809,9.545z"/>
		<path style="opacity:0.3;clip-path:url(#SVGID_2_);fill:#FFFFFF;" d="M42.103,15.074c-1.012-0.284-2.062-0.347-3.103-0.455
			c-0.521-0.054-2.531-0.685-2.893-0.503c1.097-0.553,1.996-0.309,3.164-0.253c1.321,0.064,3.323,0.089,1.995-1.499
			c-0.663-0.793-1.814-1.379-2.76-1.763c-2.651-1.074-5.618-1.354-8.455-1.193c-4.019,0.229-7.903,1.868-10.774,4.939
			c-1.338,1.432-1.135,3.132,1.039,2.753c1.594-0.277,2.89-1.408,4.291-2.132c1.428-0.737,3.975-1.033,5.489-0.352
			c-0.921,0.046-1.875,0.272-2.771,0.484c-3.03,0.72-5.572,2.516-7.502,4.938c-0.87,1.094-1.54,2.42-1.689,3.813
			c-0.051,0.472-0.335,2.792,0.731,2.354c0.568-0.234,0.516-1.882,0.524-2.317c1.251,0.331,0.715-1.054,0.882-1.972
			c1.796,1.199,0.812-0.938,1.008-2.067c0.383,0.229,0.954,1.318,1.48,1.058c0.55-0.273-0.287-1.789,0.226-2.046
			c0.641-0.319,1.241,1.244,1.978,0.975c0.672-0.248,0.372-1.351,0.546-1.876c0.456,0.186,1.185,1.33,1.722,1.074
			c0.426-0.203,0.006-1.521,0.105-1.892c1.099,0.299,1.768,2.33,2.27,0.375c0.134-0.524,0.033-1.072,0.624-1.087
			c0.682-0.018,1.079,1.358,1.645,1.371c0.872,0.021,0.028-1.877,0.768-2.053c0.778-0.186,1.379,1.692,2.209,1.741
			c0.248-0.731,0.356-2.745,1.239-1.529c0.342,0.469,1.376,2.831,2.392,1.845c0.395-0.384-0.188-1.795,0.592-1.826
			c0.736-0.029,1.095,1.749,1.376,2.179c0.267,0.41,0.973,0.988,1.411,0.449c0.305-0.377-0.193-1.028,0.218-1.451
			c0.901-0.928,0.92,1.981,1.685,2.205c1.143,0.335,0.856-1.229,1.247-1.736c1.188,0.744,0.193,4.313,2.33,4.208
			c0.288-1.433-0.729-2.89-1.486-4.008C44.905,16.425,43.75,15.537,42.103,15.074z"/>
		<path style="clip-path:url(#SVGID_2_);fill:#3A3A4A;" d="M44.563,55.654c-0.93-0.836-2.36-0.76-3.195,0.17
			c-0.835,0.928-0.76,2.359,0.17,3.195c1.495,1.344,3.148,3.416,2.546,5.664c-0.122,0.457-0.345,0.896-0.629,1.316h4.954
			c0.014-0.048,0.032-0.095,0.045-0.143C48.995,63.84,49.209,59.832,44.563,55.654z"/>
		<path style="clip-path:url(#SVGID_2_);fill:#3A3A4A;" d="M24.854,59.02c0.929-0.836,1.005-2.268,0.17-3.195
			c-0.835-0.93-2.265-1.006-3.195-0.17c-4.646,4.178-4.433,8.186-3.891,10.203c0.013,0.048,0.031,0.095,0.045,0.143h4.953
			c-0.284-0.42-0.506-0.859-0.628-1.316C21.705,62.436,23.359,60.363,24.854,59.02z"/>
		<path style="opacity:0.3;clip-path:url(#SVGID_2_);fill:#B54D26;" d="M46.062,28.708c-1.427,0.04-2.85,0.229-4.24,0.567
			c-1.185,0.288-2.572,0.398-3.669,0.947c-1.014,0.508-1.464,0.845-2.703,0.763c-2.214-0.147-4.048-1.575-6.255-1.859
			c-2.3-0.297-4.652-0.628-6.938-0.059c-0.596,0.148-2.399,0.781-1.208,1.445c1.162,0.648,2.93,0.496,4.217,0.578
			c0.596,0.039,1.194,0.068,1.787,0.139c2.103,0.245,5.352,0.035,5.118,2.662c-0.161,1.802-1.37,3.628-2.847,3.931
			c-1.416,0.291-2.927,0.379-4.351,0.338c-1.091-0.031-2.139-0.27-3.121-0.754c-0.279-0.139-1.109-0.697-1.394-0.322
			c-0.48,0.637,1.206,1.756,1.649,1.967c1.015,0.49,2.102,0.656,3.212,0.803c2.74,0.361,5.574,0.287,7.189-2.201
			c0.936-1.443,1.43-3.154,2.3-4.636c1.427-2.427,2.005,0.929,2.391,2.402c0.217,0.826,0.541,1.631,1.012,2.336
			c0.838,1.246,2.522,1.953,3.944,2.059c0.876,0.064,1.774,0.039,2.604-0.287c0.503-0.199,0.719-0.785,0.128-1.031
			c-0.357-0.148-0.934-0.061-1.311-0.086c-0.55-0.037-1.112-0.061-1.651-0.178c-0.693-0.152-1.387-0.465-1.963-0.922
			c-0.404-0.32-0.752-0.711-1.002-1.168c-0.521-0.949-0.52-2.096-0.139-3.101c0.523-1.382,2.02-1.455,3.259-1.534
			c1.504-0.093,3.019-0.027,4.513-0.13c0.667-0.046,1.328,0.063,1.99,0.102c0.854,0.051,2.704-0.183,1.721-1.479
			C49.354,28.745,47.446,28.669,46.062,28.708z"/>
		<path style="clip-path:url(#SVGID_2_);fill:#3A3A4A;" d="M19.881,28.774c-1.813,0.121-3.376-0.332-3.792,0.048
			c-0.539,0.493,0.487,2.079,0.487,2.079s0.591,0.389,1.442,0.429c0.16,1.256,0.203,4.512,2.584,6.489
			c1.988,1.646,8.31,1.928,10.237,0.875c2.388-1.305,3.346-3.605,3.698-5.856C35.404,27.324,22.436,28.605,19.881,28.774z
			 M30.92,37.211c-2.345,1.631-8.498,1.111-10.158-0.805c-1.28-1.477-1.605-4.644-0.87-5.123c2.249-1.461,10.898-1.226,12.947,0.23
			C33.831,32.219,32.698,35.975,30.92,37.211z"/>
		<path style="clip-path:url(#SVGID_2_);fill:#3A3A4A;" d="M49.649,28.748c-2.25-0.146-13.665-1.301-12.909,4.204
			c0.31,2.246,1.15,4.535,3.25,5.818c1.697,1.033,7.263,0.691,9.014-0.975c2.099-1.998,2.14-5.255,2.282-6.511
			c0.749-0.049,1.271-0.443,1.271-0.443s0.905-1.595,0.431-2.083C52.621,28.381,51.244,28.849,49.649,28.748z M48.867,36.385
			c-1.464,1.932-6.882,2.51-8.945,0.904c-1.563-1.219-2.561-4.962-1.684-5.678c1.804-1.475,9.42-1.795,11.398-0.355
			C50.284,31.726,49.995,34.896,48.867,36.385z"/>
		<path style="opacity:0.3;clip-path:url(#SVGID_2_);fill:#FFFFFF;" d="M39.747,31.214c-1.277,0.473,0.943,1.292,1.424,1.396
			c1.673,0.363,3.592,0.363,5.408,0.134c0.955-0.12,3.037-0.875,2.484-1.447C48.293,30.499,41.161,30.693,39.747,31.214z"/>
		<path style="clip-path:url(#SVGID_2_);fill:#FFFFFF;" d="M45.328,31.246c-0.683,0.067-1.137,0.243-0.968,0.566
			c0.328,0.638,4.317,0.535,4.615,0.082C49.267,31.448,46.781,31.102,45.328,31.246z"/>
		<path style="opacity:0.7;clip-path:url(#SVGID_2_);fill:#FFFFFF;" d="M40.9,35.902c-0.427-0.031-0.725,0.055-0.656,0.33
			c0.133,0.547,2.594,0.949,2.826,0.625C43.297,36.539,41.809,35.963,40.9,35.902z"/>
		<path style="opacity:0.7;clip-path:url(#SVGID_2_);fill:#FFFFFF;" d="M22.155,35.904c-0.459-0.057-0.786,0.008-0.731,0.289
			c0.104,0.555,2.733,1.117,3.008,0.809C24.698,36.699,23.131,36.027,22.155,35.904z"/>
		<path style="opacity:0.3;clip-path:url(#SVGID_2_);fill:#FFFFFF;" d="M31.87,31.226c-1.639-0.521-9.701-0.848-10.505-0.107
			c-0.577,0.531,1.837,1.286,2.925,1.419c2.07,0.253,4.232,0.291,6.091-0.019C30.914,32.431,33.353,31.7,31.87,31.226z"/>
		<path style="clip-path:url(#SVGID_2_);fill:#FFFFFF;" d="M28.357,30.879c-0.739,0.051-1.236,0.213-1.065,0.542
			c0.339,0.646,4.658,0.65,4.992,0.203C32.614,31.187,29.934,30.774,28.357,30.879z"/>
		<path style="clip-path:url(#SVGID_2_);fill:#3A3A4A;" d="M38.489,29.731c-1.791,0.513-3.541,0.658-5.791-0.024
			c-1.794-0.546,0.923,1.113,1.107,2.034c0.185,0.923-0.154,3.89,0.498,2.232c0.652-1.656,1.853-1.694,2.587-0.141
			c0.734,1.554,0.901-2.479,1.222-2.846C38.435,30.622,40.226,29.234,38.489,29.731z"/>
		<path style="clip-path:url(#SVGID_2_);fill:#C1C5C9;" d="M20.749,29.284c4.904,0.079,8.82,0.085,11.817,1.127
			C30.584,28.89,27.252,28.653,20.749,29.284z"/>
		<path style="clip-path:url(#SVGID_2_);fill:#C1C5C9;" d="M39.021,30.273c2.594-1.065,5.842-0.771,10.198-1.126
			C43.393,28.988,40.679,28.856,39.021,30.273z"/>
	</g>
</g>
<g id="Layer_1">
</g>
</svg>
