<?xml version="1.0" encoding="iso-8859-1"?>
<!-- Generator: Adobe Illustrator 16.0.0, SVG Export Plug-In . SVG Version: 6.00 Build 0)  -->
<!DOCTYPE svg PUBLIC "-//W3C//DTD SVG 1.1//EN" "http://www.w3.org/Graphics/SVG/1.1/DTD/svg11.dtd">
<svg version="1.1" xmlns="http://www.w3.org/2000/svg" xmlns:xlink="http://www.w3.org/1999/xlink" x="0px" y="0px"
	 width="66.002px" height="66px" viewBox="0 0 66.002 66" style="enable-background:new 0 0 66.002 66;" xml:space="preserve">
<g id="Layer_74">
	<g>
		<defs>
			<circle id="SVGID_1_" cx="33.002" cy="33" r="33"/>
		</defs>
		<clipPath id="SVGID_2_">
			<use xlink:href="#SVGID_1_"  style="overflow:visible;"/>
		</clipPath>
		<rect style="clip-path:url(#SVGID_2_);fill:#FFFFFF;" width="66" height="65.998"/>
		<path style="clip-path:url(#SVGID_2_);fill:#FFB06B;" d="M25.911,59.714c0.151-0.292,0.298-0.577,0.436-0.854
			c0.41-0.824,0.075-1.824-0.75-2.234c-0.823-0.41-1.823-0.074-2.234,0.75c-0.131,0.262-0.271,0.532-0.414,0.811
			c-1.077,2.091-2.506,4.873-1.984,7.812h3.434c-0.005-0.014-0.013-0.027-0.018-0.042C23.71,63.985,24.88,61.717,25.911,59.714z"/>
		<path style="clip-path:url(#SVGID_2_);fill:#FFB06B;" d="M47.546,58.187c-0.144-0.278-0.283-0.549-0.413-0.811
			c-0.411-0.824-1.412-1.16-2.235-0.75c-0.824,0.41-1.16,1.41-0.75,2.234c0.138,0.276,0.284,0.562,0.436,0.854
			c1.032,2.003,2.202,4.271,1.532,6.242c-0.005,0.015-0.014,0.028-0.019,0.042h3.434C50.053,63.06,48.624,60.277,47.546,58.187z"/>
		<path style="clip-path:url(#SVGID_2_);fill:#85B428;" d="M43.892,63.481c1.03-4.596,2.202-8.704-1.627-10.759
			c-2.917-1.564-10.625-2.516-13.845,0c-3.52,2.751-2.718,7.148-1.754,11.322c0.168,0.725,0.428,1.351,0.682,1.953h15.6
			C43.279,65.194,43.684,64.411,43.892,63.481z"/>
		<path style="clip-path:url(#SVGID_2_);fill:#ACD14B;" d="M29.797,52.704c-0.143,0.56,0.016,1.126,0.357,1.673
			c2.457,3.933,9.178,3.8,11.044-0.25c0.29-0.628,0.319-1.283-0.077-1.934C39.466,49.468,30.623,49.456,29.797,52.704z"/>
		<path style="clip-path:url(#SVGID_2_);fill:#EB8449;" d="M35.611,47.638c-1.896-0.005-4.567,1.096-4.757,3.984
			c-0.089,1.345,0.112,2.123,0.813,2.87c1.963,2.088,6.055,1.952,7.888,0c0.7-0.747,0.901-1.525,0.813-2.87
			C40.178,48.733,37.506,47.633,35.611,47.638z"/>
		<path style="clip-path:url(#SVGID_2_);fill:#85B428;" d="M41.912,52.602c-1.391-0.66,1.471,7.794,2.001,12.982
			c1.986,0.335,6.785-1.594,8.032-2.899C49.233,57.888,46.733,54.89,41.912,52.602z"/>
		<path style="opacity:0.1;clip-path:url(#SVGID_2_);" d="M44.286,62.922c0.039-0.746,0.826-4.473-0.512-4.516
			c-0.413-0.013,0.033,6.425,0.033,6.425c0.604-0.757,2.571-3.139,2.169-3.664C45.702,60.808,44.308,62.603,44.286,62.922z"/>
		<path style="clip-path:url(#SVGID_2_);fill:#261B18;" d="M16.942,18.504c-2.596,7.131-2.755,12.615-4.428,23.851
			c-0.422,2.845-2.143,7.24-1.345,8.955c1.116,2.401,3.853,0.969,6.131,1.671c2.462,0.757,5.193,1.859,5.722-1.603
			c0.257,0.654,0.32,1.402,0.294,2.094c1.901,0.016,8.389-2.15,12.789-2.045c3.919,0.096,12.09,3.521,13.668-1.008
			c1.177-3.377,2.151-18.245,1.549-23.094c-0.037-0.299,1.151-0.725,1.184-0.982c0.106-0.866,0.17-1.479,0.18-1.722
			C53.439,5.282,23.409,0.736,16.942,18.504z"/>
		<path style="clip-path:url(#SVGID_2_);fill:#FFB06B;" d="M32.351,15.692c-7.585,1.469-12.945,12.365-11.567,22.598
			c1.022,7.593,8.053,15.067,15.438,15.067c7.82,0,13.965-11.906,12.854-20.927C47.813,22.185,42.975,13.638,32.351,15.692z"/>
		<path style="opacity:0.3;clip-path:url(#SVGID_2_);fill:#BF3C1B;" d="M45.671,18.56c-4.127-1.646-8.133-2.597-12.66-2.717
			c-2.769-0.074-6.487-0.253-9.081,0.861c-3.881,1.667-5.554,4.222-6.096,8.143c-0.368,2.664,2.306,5.213,4.357,6.876
			c1.461-1.424,0.773-3.351,0.733-5.03c0.35,1.915,1.916,1.356,3.573,1.437c1.474,0.07,4.002,0.713,5.346-0.014
			c0.604-0.328,0.711-0.763,0.941-1.408c0.234,0.297,0.513,0.506,0.823,0.655c0.989,0.475,2.287,0.318,3.382,0.365
			c1.615,0.069,3.323,0.24,4.884-0.293c0.681-0.233,1.085-0.432,1.285-1.204c0.266,1.627,2.727,1.369,4.065,1.302
			C51.322,27.325,48.889,19.841,45.671,18.56z"/>
		<path style="clip-path:url(#SVGID_2_);fill:#FFB06B;" d="M18.144,34.024c-3.726,1.021-2.24,6.459,0.801,7.556
			c0.975,0.351,2.011,0.399,3.009,0.331c0.019-0.031,0.039-0.061,0.059-0.092c0.448-0.707-0.171-4.671-0.398-5.417
			C21.044,34.522,19.932,33.535,18.144,34.024z"/>
		<path style="opacity:0.5;clip-path:url(#SVGID_2_);fill:#B54319;" d="M19.447,36.026c-0.837-0.385-2.925,0.307-1.947,1.943
			c0.521-1.516,1.443-0.52,1.3,0.559c-0.095,0.723-0.871,0.731-0.102,1.661c0.417,0.503,1.263,0.317,1.689,0.049
			C21.745,39.386,20.468,36.5,19.447,36.026z"/>
		<path style="clip-path:url(#SVGID_2_);fill:#261B18;" d="M32.535,24.39c0.007,0.017,0.014,0.04,0.021,0.06
			c0.002-0.013,0.007-0.024,0.009-0.037C32.553,24.366,32.543,24.358,32.535,24.39z"/>
		<path style="clip-path:url(#SVGID_2_);fill:#261B18;" d="M42.763,24.349c0.001,0.001,0.001,0.004,0.002,0.005
			c0.001-0.002,0.001-0.005,0.002-0.007C42.757,24.298,42.756,24.299,42.763,24.349z"/>
		<path style="clip-path:url(#SVGID_2_);fill:#261B18;" d="M43.373,13.607c-4.188-3.562-9.65-3.54-14.812-2.655
			c-1.977,0.337-4.792,0.834-6.561,1.818c-1.541,0.858-2.155,2.882-2.867,4.415c-1.275,2.741-1.677,6.062-1.928,9.039
			c-0.135,1.603,0.494,3.242,0.656,4.846c0.156,1.567,0.853,2.91,1.147,4.45c0.449,2.345,0.295,4.737-0.454,7.006
			c-0.316,0.955-1.074,1.744-0.377,2.598c0.547,0.672,1.881,0.975,2.462,0.365c0.487-0.512,1.433-4.712,1.641-5.787
			c0.511-2.642,0.441-5.716,0.343-8.384c-0.094-2.517-0.011-5.105,0.827-7.499c-0.084,1.021,0.315,2.352,0.381,3.429
			c2.564-0.308,5.301-0.093,7.876-0.193c0.413-0.818,0.681-1.711,0.848-2.605c-0.007-0.02-0.014-0.043-0.021-0.06
			c0.008-0.031,0.018-0.023,0.029,0.022c-0.002,0.013-0.007,0.024-0.009,0.037c0.172,0.464,0.348,1.479,0.681,1.747
			c0.618,0.497,2.415,0.192,3.163,0.243c1.407,0.094,3.794,0.591,5.142,0.007c0.872-0.376,1.004-1.191,1.224-2.093
			c-0.001-0.001-0.001-0.004-0.002-0.005c-0.007-0.05-0.006-0.051,0.004-0.002c-0.001,0.002-0.001,0.005-0.002,0.007
			c0.272,0.464,0.395,1.277,0.832,1.495c0.511,0.252,1.944,0.438,2.553,0.459c0.708,0.024,2.34,0.081,3.052-0.051
			c2.022-0.373,0.573-3.949,0.043-5.24C48.054,18.118,45.586,15.487,43.373,13.607z"/>
		<path style="clip-path:url(#SVGID_2_);fill:#57443A;" d="M31.091,9.062c-3.907,0.41-9.453,3.537-11.19,7.053
			c-3.925,7.94-5.43,16.755-5.761,25.52c-0.085,2.217-1.368,5.602-1.238,7.633c0.12,1.875,1.022,1.912,2.517,0.851
			c1.952-1.385-0.208-8.627,0.156-13.136c0.287-3.546,3.212-3.713,4.186-8.396c1.106,6.289,0.114,14.527-2.28,21.411
			c8.272-13.923,1.775-21.147,6.106-30.473c1.884,2.098,5.2,2.744,7.994,1.576c2.485-1.039,5.974-1.219,8.557-0.238
			c3.391,1.289,6.559,1.933,10.803,0.117C48.878,11.067,38.177,8.318,31.091,9.062z"/>
		<path style="clip-path:url(#SVGID_2_);fill:#FFC48F;" d="M45.61,35.631c-1.173-0.195-2.8-0.017-2.014,1.824
			c0.421,0.979,4.998,2.372,4.771,0.229c-0.024-0.221-0.082-0.419-0.17-0.597C47.742,36.146,46.511,35.78,45.61,35.631z"/>
		<path style="clip-path:url(#SVGID_2_);fill:#FFC48F;" d="M29.971,36.233c-0.871-0.666-2.199-0.426-3.112-0.144
			c-1.192,0.37-2.633,1.307-1.026,2.657c0.856,0.722,5.804-0.135,4.579-2.035C30.284,36.518,30.137,36.359,29.971,36.233z"/>
		<path style="opacity:0.5;clip-path:url(#SVGID_2_);fill:#B54319;" d="M37.732,37.365c-0.978-0.066-0.956-0.593-1.663-0.19
			c-0.706,0.399-0.185,1.944,1.549,2.016c1.727,0.073,2.541-1.2,2.206-1.729C39.438,36.85,38.817,37.442,37.732,37.365z"/>
		<path style="clip-path:url(#SVGID_2_);fill:#FFC48F;" d="M37.488,34.522c-0.802,0.015-1.988,2.714-1.587,3.123
			c0.983,1.004,3.166,0.532,3.829-0.153C39.992,37.221,38.396,34.507,37.488,34.522z"/>
		<path style="opacity:0.35;clip-path:url(#SVGID_2_);fill:#C4170E;" d="M27.023,39.363c2.525,7.615,5.194,9.917,9.947,10.059
			c4.565,0.135,6.978-3.073,7.539-6.003c0.173-0.904,2.176-3.701,2.859-4.358c-2.401,0.949-6.524,0.709-10.295,0.879
			C33.874,40.086,29.602,40.873,27.023,39.363z"/>
		<path style="clip-path:url(#SVGID_2_);fill:#8F2621;" d="M27.996,40.344c0,0,1.831,7.065,8.654,6.771
			c6.143-0.267,7.082-2.691,7.505-4.387c0.563-2.269,2.297-3.176,2.297-3.176C35.759,42.576,27.996,40.344,27.996,40.344z"/>
		<path style="clip-path:url(#SVGID_2_);fill:#FFF9F0;" d="M29.805,40.797c0,0-0.01,1.568,2.065,2.047
			c2.66,0.611,5.667,0.655,8.756,0.136c2.083-0.351,3.199-2.602,3.199-2.602S37.668,41.506,29.805,40.797z"/>
		<path style="clip-path:url(#SVGID_2_);fill:#FFF9F0;" d="M38.253,45.564c-2.36,0.09-4.391-0.098-5.49-0.404
			c-0.916-0.257-0.931,0.134-0.763,0.477c0,0,0.278,1.409,4.579,1.546c3.762,0.119,5.425-1.717,5.01-2.074
			C41.173,44.751,40.616,45.478,38.253,45.564z"/>
		<path style="clip-path:url(#SVGID_2_);fill:#E8DAC5;" d="M29.805,40.797c0,0-0.024,0.491,0.299,0.917
			c0,0,10.586-0.784,13.007-0.286c0,0,0.583-0.733,0.715-1.05C43.825,40.378,38.226,41.465,29.805,40.797z"/>
		<path style="clip-path:url(#SVGID_2_);fill:#E8DAC5;" d="M33.141,45.458c3.693,1.26,7.817-0.107,7.817-0.107
			C36.352,46.191,33.141,45.458,33.141,45.458z"/>
		<path style="clip-path:url(#SVGID_2_);fill:#261B18;" d="M46.639,31.468c-2.699-1.152-5.164,2.179-3.222,3.912
			c0.392-0.425,2.506-1.106,3.813-0.121C48.338,34.464,48.084,32.087,46.639,31.468z"/>
		<path style="clip-path:url(#SVGID_2_);fill:#CFC4C4;" d="M46.938,33.341c-0.739,0.232-0.389,1.65,0.366,1.152
			C47.853,34.135,47.596,33.136,46.938,33.341z"/>
		<path style="clip-path:url(#SVGID_2_);fill:#CFC4C4;" d="M44.408,31.865c-1.257,0.394-0.663,2.807,0.623,1.959
			C45.961,33.215,45.525,31.519,44.408,31.865z"/>
		<path style="clip-path:url(#SVGID_2_);fill:#261B18;" d="M26.53,31.687c-1.428,0.661-1.612,3.045-0.479,3.806
			c1.275-1.022,3.409-0.401,3.813,0.011C31.754,33.715,29.195,30.456,26.53,31.687z"/>
		<path style="clip-path:url(#SVGID_2_);fill:#CFC4C4;" d="M26.285,33.567c-0.664-0.186-0.892,0.82-0.333,1.162
			C26.722,35.206,27.03,33.776,26.285,33.567z"/>
		<path style="clip-path:url(#SVGID_2_);fill:#CFC4C4;" d="M28.771,32.019c-1.127-0.314-1.514,1.395-0.566,1.977
			C29.515,34.805,30.038,32.376,28.771,32.019z"/>
		<path style="clip-path:url(#SVGID_2_);fill:#261B18;" d="M30.186,27.825c-1.341,0.069-2.614,0.179-3.919,0.599
			c-0.811,0.261-1.776,0.734-2.381,1.297c-0.204,0.19-0.446,0.513-0.41,0.774c0.22,0.013,0.372-0.139,0.565-0.213
			c0.981-0.375,2.041-0.505,3.072-0.622c0.804-0.092,1.608-0.11,2.41-0.222c0.538-0.074,1.284-0.035,1.526-0.589
			C31.356,28.149,30.909,27.787,30.186,27.825z"/>
		<path style="clip-path:url(#SVGID_2_);fill:#2B221C;" d="M46.447,28.204c-1.272-0.385-2.514-0.473-3.824-0.521
			c-0.707-0.027-1.146,0.327-0.854,0.994c0.232,0.528,0.962,0.481,1.486,0.546c0.783,0.096,1.569,0.104,2.354,0.18
			c1.007,0.098,2.041,0.208,2.996,0.556c0.188,0.069,0.336,0.212,0.551,0.196c0.039-0.252-0.196-0.557-0.394-0.737
			C48.176,28.887,47.236,28.444,46.447,28.204z"/>
		<path style="clip-path:url(#SVGID_2_);fill:#121B21;" d="M46.101,31.007c-2.489-0.452-3.193,1.997-3.193,1.997
			s1.206-1.551,2.822-0.862c3.668,1.565,5.607-1.036,5.607-1.036C48.719,32.33,47.374,31.237,46.101,31.007z"/>
		<path style="clip-path:url(#SVGID_2_);fill:#121B21;" d="M27.157,31.278c-1.271,0.245-2.604,1.352-5.235,0.155
			c0,0,1.968,2.581,5.618,0.977c1.608-0.708,2.831,0.832,2.831,0.832S29.642,30.8,27.157,31.278z"/>
		<path style="clip-path:url(#SVGID_2_);fill:#85B428;" d="M28.583,52.602c-4.821,2.288-7.322,5.286-10.033,10.083
			c1.247,1.306,6.046,3.234,8.031,2.899C27.111,60.396,29.973,51.941,28.583,52.602z"/>
		<path style="opacity:0.1;clip-path:url(#SVGID_2_);" d="M26.208,62.922c-0.021-0.319-1.415-2.114-1.689-1.755
			c-0.402,0.525,1.564,2.907,2.169,3.664c0,0,0.445-6.438,0.032-6.425C25.382,58.449,26.17,62.176,26.208,62.922z"/>
		<path style="opacity:0.5;clip-path:url(#SVGID_2_);fill:#ACD14B;" d="M40.239,57.592c-1.903,1.834-8.132,1.799-10.405-0.693
			c-1.28-1.404-2.656,1.41-2.137,3.377c0.689,2.61,4.404,3.401,7.649,3.444c6.403,0.084,8.551-2.788,7.519-6.007
			C42.59,56.85,41.508,56.37,40.239,57.592z"/>
	</g>
</g>
<g id="Layer_1">
</g>
</svg>
