<?xml version="1.0" encoding="iso-8859-1"?>
<!-- Generator: Adobe Illustrator 16.0.0, SVG Export Plug-In . SVG Version: 6.00 Build 0)  -->
<!DOCTYPE svg PUBLIC "-//W3C//DTD SVG 1.1//EN" "http://www.w3.org/Graphics/SVG/1.1/DTD/svg11.dtd">
<svg version="1.1" xmlns="http://www.w3.org/2000/svg" xmlns:xlink="http://www.w3.org/1999/xlink" x="0px" y="0px" width="66px"
	 height="66px" viewBox="0 0 66 66" style="enable-background:new 0 0 66 66;" xml:space="preserve">
<g id="Layer_94">
	<g>
		<defs>
			<circle id="SVGID_1_" cx="33" cy="33" r="33"/>
		</defs>
		<clipPath id="SVGID_2_">
			<use xlink:href="#SVGID_1_"  style="overflow:visible;"/>
		</clipPath>
		<rect style="clip-path:url(#SVGID_2_);fill:#FFFFFF;" width="65.999" height="65.998"/>
		<path style="clip-path:url(#SVGID_2_);fill:#E6E6E6;" d="M42.174,62.864c0.986-4.404,2.109-8.34-1.56-10.309
			c-2.796-1.5-10.182-2.411-13.267,0c-3.373,2.636-2.604,6.849-1.681,10.85c0.228,0.985,0.633,1.782,0.947,2.593h14.39
			C41.332,64.955,41.912,64.029,42.174,62.864z"/>
		<path style="clip-path:url(#SVGID_2_);fill:#F2F2F2;" d="M29.291,52.537c-0.12,0.537,0.015,1.078,0.305,1.604
			c2.089,3.769,7.803,3.641,9.391-0.239c0.246-0.603,0.271-1.229-0.066-1.854C37.513,49.436,29.993,49.426,29.291,52.537z"/>
		<path style="clip-path:url(#SVGID_2_);fill:#F1AA83;" d="M34.235,47.681c-1.612-0.003-3.883,1.052-4.044,3.82
			c-0.075,1.288,0.095,2.033,0.69,2.749c1.669,2.002,5.147,1.87,6.706,0c0.597-0.716,0.767-1.461,0.692-2.749
			C38.118,48.732,35.847,47.678,34.235,47.681z"/>
		<path style="clip-path:url(#SVGID_2_);fill:#FFCB9E;" d="M24.538,59.835c0.586-0.711,0.485-1.761-0.225-2.347
			c-0.71-0.587-1.761-0.487-2.347,0.223c-2.306,2.793-3.34,5.64-3.052,8.287h3.355C21.923,64.185,22.703,62.056,24.538,59.835z"/>
		<path style="clip-path:url(#SVGID_2_);fill:#E6E6E6;" d="M27.679,52.278c-4.821,2.289-7.321,5.287-10.034,10.083
			c1.248,1.307,6.047,3.233,8.033,2.899C26.207,60.073,29.069,51.618,27.679,52.278z"/>
		<path style="opacity:0.1;clip-path:url(#SVGID_2_);" d="M25.304,62.6c-0.021-0.319-1.415-2.114-1.69-1.754
			c-0.401,0.525,1.565,2.907,2.17,3.663c0,0,0.446-6.438,0.033-6.425C24.478,58.128,25.265,61.854,25.304,62.6z"/>
		<path style="clip-path:url(#SVGID_2_);fill:#FFCB9E;" d="M45.604,57.711c-0.585-0.71-1.637-0.81-2.347-0.223
			c-0.71,0.586-0.81,1.636-0.224,2.347c1.835,2.221,2.615,4.35,2.268,6.163h3.354C48.945,63.351,47.911,60.504,45.604,57.711z"/>
		<path style="clip-path:url(#SVGID_2_);fill:#E6E6E6;" d="M39.894,52.278c-1.391-0.66,1.471,7.795,2.001,12.982
			c1.985,0.334,6.784-1.593,8.032-2.899C47.215,57.565,44.714,54.567,39.894,52.278z"/>
		<path style="opacity:0.1;clip-path:url(#SVGID_2_);" d="M42.269,62.6c0.038-0.746,0.826-4.472-0.513-4.516
			c-0.413-0.014,0.032,6.425,0.032,6.425c0.604-0.756,2.572-3.138,2.17-3.663C43.684,60.485,42.289,62.28,42.269,62.6z"/>
		<path style="clip-path:url(#SVGID_2_);fill:#261B18;" d="M52.69,28.944c2.514-0.701,5.306-6.229,1.021-5.876
			c1.178,1.723-1.556,2.553-2.47,1.251c-0.081-0.114-0.141-0.221-0.148-0.324c-0.174-2.159-2.418-3.623-4.129-4.939
			c-2.5-1.924-5.762-3.481-8.931-4.17c-5.59-1.215-12.249-0.824-16.635,2.911c-1.765,1.503-3.292,4.628-5.757,5.242
			c-3.025,0.756-4.674,3.861-2.249,5.773c-1.24,0.756-2.448-0.117-2.675-1.276c-2.596,1.845-3.534,5.378,0.103,6.931
			c-4.212,2.233-3.108,6.671,1.443,8.553c-2.102,1.991-0.976,5.323,1.172,6.622c-0.182-1.39,1.082-4.512,3.512-2.952
			c1.489,0.956,0.738,3.575-1.291,2.289c-0.506,2.369,3.502,3.79,4.65,1.813c-0.114,1.772,1.109,2.443,2.748,2.319
			c2.439-0.186,3.677-1.67,5.312-2.189c2.034-0.646,4.139-0.901,6.267-0.962c4.043-0.113,7.578,3.841,11.59,2.062
			c1.546-0.688,2.288-1.692,2.104-3.205c-1.092,0.787-3.982-0.304-1.655-2.171c1.163-0.933,2.912-0.102,4.097-0.812
			c1.396-0.838,0.792-3.78,0.891-3.845c1.006-0.645,2.682-0.715,2.805,1.053c2.033-4.13,0.042-5.244-2.197-5.526
			C57.204,36.676,58.089,29.849,52.69,28.944z"/>
		<path style="clip-path:url(#SVGID_2_);fill:#FFF9F0;" d="M47.712,40.11c-0.772,0.031-1.383,0.682-1.365,1.454
			c0.017,0.773,0.658,1.374,1.429,1.345c0.772-0.032,1.384-0.683,1.368-1.456C49.124,40.681,48.483,40.08,47.712,40.11z"/>
		<path style="clip-path:url(#SVGID_2_);fill:#FFCB9E;" d="M32.586,14.497c-8.214,0.848-14.526,7.923-13.893,18.985
			c0.634,11.062,8.77,19.792,17.461,18.724c7.204-0.885,13.243-9.945,11.739-22.051C46.547,19.313,40.801,13.648,32.586,14.497z"/>
		<path style="clip-path:url(#SVGID_2_);fill:#FFCB9E;" d="M16.552,31.754c-3.557,1.679-1.822,7.805,1.185,8.678
			c0.964,0.28,1.971,0.202,2.935-0.011c0.019-0.038,0.034-0.075,0.054-0.115c0.395-0.879-0.568-4.983-0.828-5.822
			C19.242,32.372,18.26,30.948,16.552,31.754z"/>
		<path style="opacity:0.4;clip-path:url(#SVGID_2_);fill:#D14F2E;" d="M18.619,33.877c-0.967-0.504-3.454,0.203-2.381,2.199
			c0.684-1.77,1.721-0.539,1.502,0.731c-0.147,0.853-1.061,0.819-0.198,1.965c0.466,0.618,1.469,0.445,1.983,0.149
			C21.159,37.985,19.794,34.492,18.619,33.877z"/>
		<path style="opacity:0.2;clip-path:url(#SVGID_2_);fill:#BF3C1B;" d="M29.583,18.843c-2.247,0.444-4.394,1.184-6.252,2.153
			c-2.908,1.519-3.077,3.053-4.468,5.862c-0.701,1.419-2.426,2.86-0.74,4.321c-1.673,0.658-2.025,3.556-0.953,4.849
			c0.298,0.36,0.642,0.613,1.107,0.684c-0.372,0.726-0.574,1.68-0.196,2.48c0.427,0.912,1.168,1.719,2.088,1.537
			c0.038,0.731,0.382,2.024,0.861,2.626c1.185,1.48,3.283,2.013,4.587,0.859c1.256-1.107,1.074-2.655-0.548-3.305
			c-0.142,0.467-0.689,0.974-1.187,0.607c-0.628-0.464,0.178-2.036,0.156-2.668c-0.058-1.688-1.091-1.021-2.06-1.894
			c0.49-0.474,1.184-1.036,1.157-1.862c-0.033-1.029-0.746-1.16-1.374-1.68c-1.05-0.869-0.73-0.717-0.181-1.659
			c0.679-1.161,1.099-2.679-0.312-3.552c0.679-0.075,1.367-0.39,1.468-1.123c1.21,0.625,2.605-0.658,2.978-1.746
			c-0.114,0.334,1.326-0.312,1.416-0.38c0.49-0.372,0.866-1.173,1.067-1.729c0.122,1.511,1.692,2.511,2.898,1.312
			c0.805,1.863,2.392,1.79,4.129,1.344c0.629,2.145-1.209,1.278-1.813,2.36c-1.004,1.801,2.689,2.537,3.676,2.173
			c1.151-0.425,1.771-1.692,1.698-2.872c0.156,1.4,2.156,0.726,2.873,0.191c0.446,1.962,2.273,2.351,3.688,0.998
			c0.287,3.24,4.523,3.142,3.635-0.629C46.933,19.397,37.613,17.25,29.583,18.843z"/>
		<path style="clip-path:url(#SVGID_2_);fill:#261B18;" d="M49.885,15.081c1.763-3.794-5.712-6.592-8.517-4.508
			c-0.495-4.644-6.356-4.85-9.117-1.523c-1.05-1.67-3.384-2.052-3.736-2.105c-1.604-0.252-3.367,0.096-4.402,1.334
			c1.562-0.035,4.236,2.94-0.466,2.558c-1.95-0.157-3.113-0.886-5.048,0.188c-1.567,0.87-2.617,2.377-1.111,3.815
			c-0.017,0.016-3.489-0.16-3.977,2.982c-0.199,1.292,0.332,1.604-0.943,2.585c-0.858,0.66-1.761,1.056-2.893,0.714
			c0.004,1.267,1.204,2.865,1.814,3.295c1.22,0.857,2.547,0.706,3.837,0.062c-0.121,0.794,2.327,7.515,3.365,6.786
			c-1.706,1.198-2.414,3.584-0.707,4.658c0.27,0.171,0.599,0.309,0.993,0.403c-2.591,0.99-0.48,4.846,2.077,3.544
			c-2.2,2.68,4.475,5.709,4.579,2.515c0.026-0.854-0.574-1.791-1.433-1.96c0.439,0.086,0.63,2.036-0.541,1.559
			c-1.727-0.702,1.244-3.086-0.336-4.031c-0.775-0.464-3.028,0.08-2.206-1.352c0.586-1.02,1.87-1.561,0.313-2.776
			c-0.464-0.359-1.261-0.394-1.31-1.105c-0.048-0.668,0.772-0.976,1.075-1.411c1.062-1.527-0.635-3.296-2.014-3.834
			c0.881-0.061,3.383,0.342,3.077-1.327c1.397,1.188,3.405-0.531,2.83-2.149c0.262,0.732,1.585,0.476,2.02,0.172
			c0.815-0.568,0.727-1.65,1.138-2.467c0.179,0.883,0.376,1.765,1.229,2.207c0.854,0.444,1.776,0.282,2.219-0.598
			c0.541,1.801,2.341,3.25,3.902,1.414c0.362,0.689,0.583,1.672,0.088,2.354c-0.747,1.025-1.764-0.027-2.399,0.461
			c-0.797,0.612,0.684,1.867,1.224,2.03c1.051,0.32,2.542-0.226,3.171-1.12c0.513-0.729,0.371-1.561,0.402-2.392
			c0.895,1.411,2.378,2.347,3.822,0.847c1.074,1.323,2.129,1.948,3.63,0.607c0.742,1.2,0.634,2.828,2.386,3.062
			c2.035,0.271,1.892-2.079,1.511-3.433c-0.479-1.7-1.143-5.02,0.811-6.539c1.211-0.94,3.028-0.367,2.48,1.246
			c1.757-1.162,1.92-2.813,1.13-4.44C53.324,16.318,51.702,15.272,49.885,15.081z"/>
		<path style="clip-path:url(#SVGID_2_);fill:#FFF9F0;" d="M19.12,41.03c-0.711,0.027-1.276,0.631-1.259,1.342
			c0.016,0.714,0.607,1.268,1.318,1.239c0.714-0.027,1.276-0.629,1.26-1.343C20.423,41.557,19.833,41.002,19.12,41.03z"/>
		<path style="clip-path:url(#SVGID_2_);fill:#45362E;" d="M28.309,13.737c0.001,0.01,0.002,0.019,0.003,0.028
			c0-0.01,0.001-0.019,0.002-0.028C28.317,13.671,28.309,13.671,28.309,13.737z"/>
		<path style="clip-path:url(#SVGID_2_);fill:#45362E;" d="M49.207,24.214c-0.053-0.945-0.001-1.508-0.238-2.499
			c-0.31-1.306-1.071-1.645-2.29-1.585c1.406-2.14,4.091-2.521,5.83-0.768c0.628-2.352-2.256-4.396-4.556-3.769
			c0.469-1.365,0.849-3.052-0.507-4.092c-1.454-1.116-3.763-1.19-5.282-0.243c-1.26,0.786-2.659,2.335-4.478,1.236
			c1.079,0.652,3.609-3.029,0.55-4.301c-1.906-0.792-3.539,0.293-4.811,1.568c-0.398,0.398-0.802,0.839-1.013,1.355
			c-1.326-2.438-3.321-3.91-6.443-3.129c2.379,0.013,3.412,3.701,1.285,4.766c-1.238,0.62-2.4-0.686-3.41-1.127
			c-0.942-0.412-2.38-0.562-3.391-0.275c-0.951,0.268-2.178,1.191-2.542,2.088c1.697-0.24,2.707,3.085,6.41,1.993
			c-1.55,1.324-3.25,1.466-4.665,0.827c-0.957-0.433-2.189-0.805-3.27-0.197c-1.565,0.883-1.141,3.086-1.904,4.458
			c-0.688,1.237-1.354,1.394-2.631,1.775c1.371,0.87,2.142,0.948,3.804,0.763c-1.123,0.125-1.763,1.714-1.849,2.58
			c-0.111,1.131,0.875,2.004,0.723,3.051c-0.13,0.885-1.33,1.479-2.155,1.46c0.566,0.613,1.446,0.619,2.208,0.347
			c0.95-0.34,1.143-1.593,1.927-1.773c1.073-0.246,2.213,1.545,2.204,2.374c1.605-0.8-0.335-3.27-1.294-3.984
			c1.063-0.003,3.981-0.166,3.767-1.656c0.13,0.898,2.054-0.021,2.296-0.51c0.34-0.68,0.159-1.725-0.533-2.15
			c0.602,0.074,1.725,0.637,2.187,0.076c0.393-0.478-0.097-1.582-0.362-2.006c4.883,1.819,3.437-3.19,0.459-3.085
			c2.253-0.208,2.85-0.557,3.079-4.017c-0.001-0.01-0.002-0.019-0.003-0.028c0-0.066,0.009-0.066,0.005,0
			c-0.001,0.01-0.002,0.019-0.002,0.028c0.186,2.005-0.323,4.027,3.075,3.671c-4.893,1.794-2.898,5.739,1.989,4.534
			c-0.743,0.184-0.781,1.588,0.344,2.377c0.693,0.487,2.163,0.19,2.435-0.171c0.887,1.329,1.17,2.502,0.143,3.697
			c1.182,0.052,1.602-1.708,1.769-2.564c0.895,0.525,1.711,1.34,2.813,0.888c0.835-0.343,1.271-1.255,1.806-1.9
			c0.027,1.477,0.6,2.568,1.495,2.753c1.078,0.22,1.917-0.164,2.689-0.978c-0.066,1.239,0.519,2.331,1.184,2.962
			c0.63,0.598,2.071,1.402,3.322,0.492c-0.544,0.006-0.984-0.255-1.218-0.714c2.068-0.225,3.673-1.342,3.467-3.464
			C52.212,26.01,49.328,26.378,49.207,24.214z"/>
		<path style="clip-path:url(#SVGID_2_);fill:#261B18;" d="M40.205,21.454c0.968,3.284,3.809,4.135,5.47,1.424
			C43.926,24.477,41.021,23.172,40.205,21.454z"/>
		<path style="clip-path:url(#SVGID_2_);fill:#261B18;" d="M18.355,25.406c2.019,1.659,4.386,0.02,3.354-2.397
			C21.506,24.594,19.588,25.863,18.355,25.406z"/>
		<path style="clip-path:url(#SVGID_2_);fill:#261B18;" d="M45.867,24.065c-1.188,2.272,1.075,4.032,3.283,2.476
			C47.482,26.754,45.708,25.313,45.867,24.065z"/>
		<path style="clip-path:url(#SVGID_2_);fill:#261B18;" d="M43.044,18.858c1.519,1.719,3.439,2.064,5.659,1.17l-0.104-1.511
			C47.232,19.236,45.135,19.615,43.044,18.858z"/>
		<path style="clip-path:url(#SVGID_2_);fill:#261B18;" d="M44.058,14.438c1.52,1.719,2.909,1.58,4.319,1.072l0.231-1.714
			C47.624,14.646,45.558,15.26,44.058,14.438z"/>
		<path style="clip-path:url(#SVGID_2_);fill:#261B18;" d="M13.472,23.156l0.481,1.479c2.41,0.024,4.05-0.99,4.769-3.129
			C17.09,22.961,15.022,23.328,13.472,23.156z"/>
		<path style="clip-path:url(#SVGID_2_);fill:#45362E;" d="M10.385,29.605l-0.07-0.974c-1.011,1.134-1.736,2.406-0.97,3.781
			c0.501,0.899,1.875,1.853,2.967,1.063c0.439-0.317,0.571-1.141,0.664-1.615c-0.021-0.018-0.042-0.035-0.063-0.053
			C11.554,31.972,10.092,30.931,10.385,29.605z"/>
		<path style="clip-path:url(#SVGID_2_);fill:#45362E;" d="M11.908,34.895l-0.813,0.498c-1.966,0.064-2.926,3.328-2.061,4.713
			c0.529,0.849,1.617,1.434,2.64,1.609c-0.722-1.084-1.401-2.384-1.076-3.694C10.874,36.911,11.891,36.085,11.908,34.895z"/>
		<path style="clip-path:url(#SVGID_2_);fill:#45362E;" d="M54.148,30.576c-0.524-0.351-1.126-0.595-1.764-0.702l0.004,0.324
			c1.772,2.222,1.464,3.92,0.506,6.224c0.003,0,0.09,0.081,0.091,0.059C55.413,35.457,56.54,32.17,54.148,30.576z"/>
		<path style="clip-path:url(#SVGID_2_);fill:#45362E;" d="M53.012,38.478l-0.82-0.208c-0.338,1.917,2.068,1.441,2.369,2.847
			C54.964,39.938,54.744,38.365,53.012,38.478z"/>
		<path style="clip-path:url(#SVGID_2_);fill:#45362E;" d="M12.367,44.149c-0.989,0.988-0.831,3.103,0.238,4.043
			c0.038-0.615,0.431-1.099,0.423-1.724c-0.008-0.575-0.429-1.023-0.36-1.672L12.367,44.149z"/>
		<path style="clip-path:url(#SVGID_2_);fill:#FF9873;" d="M46.681,37.672c-0.431-0.784-1.498-0.989-2.271-1.035
			c-1.006-0.06-2.385,0.252-1.631,1.798c0.401,0.825,4.361,1.616,4.07-0.253C46.821,37.989,46.763,37.82,46.681,37.672z"/>
		<path style="clip-path:url(#SVGID_2_);fill:#FF9873;" d="M28.355,37.503c-0.607-0.81-1.814-0.803-2.672-0.678
			c-1.118,0.163-2.577,0.844-1.486,2.463c0.581,0.862,5.067,0.866,4.433-1.232C28.563,37.839,28.47,37.656,28.355,37.503z"/>
		<path style="clip-path:url(#SVGID_2_);fill:#261B18;" d="M40.92,29.913c2.2,0.183,4.03-0.489,7.33-0.253
			C47.023,28.157,42.547,28.179,40.92,29.913z"/>
		<path style="opacity:0.4;clip-path:url(#SVGID_2_);fill:#D14F2E;" d="M36.603,38.248c-0.748,0.019-1.051-0.293-1.57,0.001
			c-0.519,0.294,0.63,1.299,1.555,1.211c1.047-0.099,1.896-0.969,1.615-1.279C37.877,37.821,37.436,38.229,36.603,38.248z"/>
		<path style="clip-path:url(#SVGID_2_);fill:#261B18;" d="M22.531,29.762c4.123,0.05,5.516,0.216,8.376,0.108
			C29.381,27.957,24.331,28.147,22.531,29.762z"/>
		<path style="clip-path:url(#SVGID_2_);fill:#261B18;" d="M27.149,31.139c-2.18-0.791-3.243,3.22-1.714,4.389
			c0.659-0.255,1.459-0.239,2.107,0.029C28.909,34.684,28.771,31.726,27.149,31.139z"/>
		<path style="opacity:0.7;clip-path:url(#SVGID_2_);fill:#E6D2C3;" d="M26.736,33.637c-0.898,0.149-0.54,1.982,0.392,1.508
			C27.8,34.8,27.534,33.508,26.736,33.637z"/>
		<path style="clip-path:url(#SVGID_2_);fill:#261B18;" d="M45.252,31.22c-2.195-1.365-4.05,3.752-1.618,4.455
			c0.58-0.407,1.283-0.418,1.909-0.328C46.363,34.253,46.429,31.95,45.252,31.22z"/>
		<path style="opacity:0.7;clip-path:url(#SVGID_2_);fill:#E6D2C3;" d="M44.371,33.485c-0.86,0.031-0.713,1.938,0.212,1.578
			C45.251,34.804,45.134,33.459,44.371,33.485z"/>
		<path style="clip-path:url(#SVGID_2_);fill:#121B21;" d="M45.312,31.109c-2.005-0.744-2.632,1.631-2.632,1.631
			s0.953-1.204,2.322-0.463c3.105,1.683,5.068-0.431,5.068-0.431C47.635,32.696,46.388,31.509,45.312,31.109z"/>
		<path style="clip-path:url(#SVGID_2_);fill:#121B21;" d="M25.697,31.263c-0.793,0.415-2.631,1.652-5.1,0.967
			c0,0,2.368,2.008,5.319,0.133c1.293-0.823,2.421,0.156,2.421,0.156S27.768,30.179,25.697,31.263z"/>
		<path style="opacity:0.8;clip-path:url(#SVGID_2_);fill:#E63535;" d="M44.801,41.194c-0.748,0.481-1.984,0.186-2.632-0.739
			c-0.18,0.671-0.002,1.19,0.33,1.519c-1.038,2.604-3.874,4.31-7.183,4.287c-3.222-0.02-5.801-1.682-6.894-3.887
			c0.285-0.352,0.359-0.905-0.005-1.591c-0.411,0.971-1.559,1.371-2.419,0.961c0.355,0.673,0.891,0.987,1.389,1.034
			c1.262,2.505,4.124,4.387,7.684,4.502c0.102,0.003,0.204,0.006,0.307,0.006c3.806,0.024,7.028-1.921,8.22-4.93
			C44.111,42.296,44.605,41.932,44.801,41.194z"/>
	</g>
</g>
<g id="Layer_1">
</g>
</svg>
