<?xml version="1.0" encoding="iso-8859-1"?>
<!-- Generator: Adobe Illustrator 16.0.0, SVG Export Plug-In . SVG Version: 6.00 Build 0)  -->
<!DOCTYPE svg PUBLIC "-//W3C//DTD SVG 1.1//EN" "http://www.w3.org/Graphics/SVG/1.1/DTD/svg11.dtd">
<svg version="1.1" xmlns="http://www.w3.org/2000/svg" xmlns:xlink="http://www.w3.org/1999/xlink" x="0px" y="0px" width="66px"
	 height="66px" viewBox="0 0 66 66" style="enable-background:new 0 0 66 66;" xml:space="preserve">
<g id="Layer_108">
	<g>
		<defs>
			<circle id="SVGID_1_" cx="33" cy="33" r="33"/>
		</defs>
		<clipPath id="SVGID_2_">
			<use xlink:href="#SVGID_1_"  style="overflow:visible;"/>
		</clipPath>
		<rect style="clip-path:url(#SVGID_2_);fill:#FFFFFF;" width="66" height="66"/>
		<path style="clip-path:url(#SVGID_2_);fill:#E62628;" d="M40.105,61.83c1.08-4.037,1.2-6.482-1.295-7.303
			c-2.426-0.799-6.898-1.064-9.557,0.072c-2.12,0.906-2.8,2.377-1.353,6.854c0.526,1.629,0.957,3.182,1.147,4.547h10.18
			C39.37,64.871,39.651,63.529,40.105,61.83z"/>
		<linearGradient id="SVGID_3_" gradientUnits="userSpaceOnUse" x1="34.0313" y1="51.9277" x2="33.3637" y2="55.7239">
			<stop  offset="0" style="stop-color:#E88958"/>
			<stop  offset="0.3384" style="stop-color:#F49D62"/>
			<stop  offset="0.6924" style="stop-color:#FCAB69"/>
			<stop  offset="1" style="stop-color:#FFB06B"/>
		</linearGradient>
		<path style="clip-path:url(#SVGID_2_);fill:url(#SVGID_3_);" d="M36.852,50.355c0.206-3.57-5.96-3.703-5.953,0.193
			c0.001,1.727,0.05,2.996-0.226,3.602c-0.33,0.725,0.155,3.164,3.391,3.164c2.929,0,2.994-2.488,2.755-2.982
			C36.354,53.377,36.763,51.93,36.852,50.355z"/>
		<path style="clip-path:url(#SVGID_2_);fill:#FF3B3B;" d="M36.612,59.203c-1.747,0.619-3.875,0.359-5.668-0.09
			c-1.031-0.258-1.61,0.91-1.293,1.908c0.42,1.322,2.56,1.67,4.425,1.641c3.678-0.059,5.056-1.424,4.432-3.053
			C38.342,59.172,37.554,58.873,36.612,59.203z"/>
		<path style="clip-path:url(#SVGID_2_);fill:#E62628;" d="M29.556,58.035l-1.552-2.678c-2.608,1.512-3.525,6.168-3.669,10.643
			h3.115C27.722,63.176,27.744,59.086,29.556,58.035z"/>
		<path style="clip-path:url(#SVGID_2_);fill:#FFB06B;" d="M25.714,58.258c2.772,0.66,3.891-0.691,3.383-3.59
			C27.003,55.402,26.174,57.09,25.714,58.258z"/>
		<path style="clip-path:url(#SVGID_2_);fill:#E62628;" d="M40.279,55.357l-1.552,2.678c1.812,1.051,1.834,5.141,2.105,7.965h3.115
			C43.806,61.525,42.888,56.869,40.279,55.357z"/>
		<path style="clip-path:url(#SVGID_2_);fill:#FFB06B;" d="M39.187,54.668c-0.508,2.898,0.611,4.25,3.383,3.59
			C42.11,57.09,41.28,55.402,39.187,54.668z"/>
		<path style="clip-path:url(#SVGID_2_);fill:#FDD281;" d="M17.422,18.058c-2.711,7.087-2.96,12.57-4.814,23.776
			c-0.469,2.838-2.261,7.203-1.491,8.93c1.079,2.422,3.837,1.035,6.105,1.771c2.446,0.799,5.161,1.945,5.745-1.51
			c0.246,0.66,0.297,1.408,0.261,2.1c1.901,0.047,8.421-2.014,12.821-1.836c3.915,0.158,12.03,3.715,13.682-0.787
			c1.231-3.357,2.447-18.208,1.924-23.065c-0.032-0.301,1.163-0.707,1.2-0.965c0.12-0.863,0.193-1.476,0.206-1.718
			C54.129,5.43,24.177,0.398,17.422,18.058z"/>
		<path style="clip-path:url(#SVGID_2_);fill:#FFA763;" d="M32.873,15.498c-7.608,1.346-13.145,12.153-11.932,22.407
			c0.898,7.607,7.806,15.195,15.19,15.314c7.818,0.127,14.156-11.678,13.192-20.714C48.229,22.239,43.529,13.616,32.873,15.498z"/>
		<path style="opacity:0.2;clip-path:url(#SVGID_2_);fill:#C4170E;" d="M46.146,18.58c-4.101-1.713-8.089-2.728-12.615-2.921
			c-2.767-0.119-6.482-0.358-9.093,0.714c-3.908,1.604-5.622,4.13-6.228,8.041c-0.411,2.659,2.222,5.25,4.245,6.946
			c1.483-1.399,0.827-3.337,0.815-5.018c0.316,1.921,1.894,1.388,3.549,1.494c1.473,0.095,3.989,0.779,5.345,0.074
			c0.61-0.318,0.724-0.753,0.965-1.395c0.229,0.302,0.505,0.517,0.812,0.669c0.982,0.492,2.284,0.357,3.376,0.422
			c1.615,0.095,3.319,0.294,4.888-0.215c0.685-0.222,1.092-0.413,1.305-1.184c0.239,1.632,2.703,1.391,4.045,1.368
			C53.375,27.481,49.342,19.915,46.146,18.58z"/>
		<path style="clip-path:url(#SVGID_2_);fill:#FFA763;" d="M18.371,33.597c-3.741,0.959-2.345,6.42,0.677,7.567
			c0.971,0.365,2.005,0.432,3.003,0.381c0.019-0.031,0.041-0.061,0.062-0.092c0.459-0.699-0.097-4.672-0.312-5.424
			C21.262,34.141,20.166,33.135,18.371,33.597z"/>
		<path style="opacity:0.5;clip-path:url(#SVGID_2_);fill:#B54319;" d="M19.642,35.619c-0.831-0.398-2.93,0.258-1.979,1.912
			c0.546-1.508,1.451-0.496,1.29,0.578c-0.106,0.723-0.882,0.719-0.128,1.66c0.408,0.51,1.257,0.338,1.688,0.078
			C21.884,39.016,20.654,36.107,19.642,35.619z"/>
		<path style="clip-path:url(#SVGID_2_);fill:#FDD281;" d="M43.929,13.591c-4.131-3.63-9.593-3.696-14.767-2.896
			c-1.982,0.306-4.805,0.756-6.589,1.714c-1.555,0.833-2.202,2.847-2.94,4.367c-1.317,2.719-1.774,6.032-2.073,9.006
			c-0.16,1.601,0.442,3.251,0.578,4.856c0.132,1.569,0.805,2.924,1.074,4.467c0.412,2.352,0.219,4.742-0.567,6.998
			c-0.331,0.949-1.102,1.727-0.419,2.59c0.536,0.682,1.864,1.008,2.456,0.406c0.495-0.504,1.509-4.688,1.734-5.76
			c0.554-2.633,0.533-5.708,0.478-8.377c-0.053-2.518,0.072-5.104,0.949-7.484c-0.1,1.02,0.277,2.357,0.325,3.436
			c2.569-0.267,5.303-0.009,7.878-0.065c0.427-0.814,0.709-1.701,0.891-2.594c-0.007-0.019-0.014-0.042-0.021-0.06
			c0.008-0.03,0.019-0.021,0.029,0.024c-0.002,0.012-0.007,0.023-0.009,0.035c0.164,0.47,0.324,1.487,0.652,1.76
			c0.609,0.507,2.411,0.231,3.158,0.294c1.404,0.117,3.784,0.652,5.142,0.092c0.877-0.363,1.022-1.175,1.256-2.074
			c0-0.001-0.001-0.003-0.002-0.004c-0.006-0.05-0.004-0.052,0.004-0.003c0,0.002-0.001,0.005-0.002,0.007
			c0.267,0.468,0.374,1.284,0.808,1.507c0.508,0.262,1.938,0.471,2.546,0.502c0.707,0.035,2.339,0.119,3.052-0.001
			c2.029-0.34,0.638-3.941,0.129-5.24C48.534,18.177,46.109,15.507,43.929,13.591z"/>
		<path style="clip-path:url(#SVGID_2_);fill:#FDD281;" d="M32.916,24.195c0.007,0.017,0.014,0.041,0.021,0.06
			c0.002-0.012,0.007-0.023,0.009-0.035C32.935,24.173,32.924,24.165,32.916,24.195z"/>
		<path style="clip-path:url(#SVGID_2_);fill:#FDD281;" d="M43.143,24.322c0.001,0.001,0.002,0.003,0.002,0.004
			c0.001-0.002,0.002-0.005,0.002-0.007C43.139,24.27,43.137,24.272,43.143,24.322z"/>
		<path style="clip-path:url(#SVGID_2_);fill:#FFEBBD;" d="M31.721,8.846c-3.913,0.346-9.509,3.384-11.304,6.87
			c-4.052,7.875-5.7,16.664-6.173,25.424c-0.121,2.215-1.459,5.578-1.362,7.611c0.09,1.877,0.991,1.928,2.503,0.891
			c1.975-1.354-0.067-8.629,0.37-13.133c0.344-3.54,3.271-3.66,4.319-8.325c1.005,6.305-0.121,14.528-2.626,21.372
			c8.496-13.787,2.117-21.117,6.599-30.371c1.851,2.128,5.156,2.828,7.969,1.705c2.502-0.998,5.992-1.121,8.559-0.099
			c3.369,1.344,6.525,2.039,10.799,0.293C49.474,11.14,38.819,8.218,31.721,8.846z"/>
		<path style="clip-path:url(#SVGID_2_);fill:#FFC48F;" d="M45.522,35.492c-1.174-0.195-2.801-0.016-2.015,1.824
			c0.421,0.98,4.998,2.373,4.771,0.229c-0.023-0.219-0.082-0.418-0.169-0.596C47.653,36.008,46.421,35.643,45.522,35.492z"/>
		<path style="clip-path:url(#SVGID_2_);fill:#FFC48F;" d="M29.881,36.096c-0.87-0.666-2.198-0.426-3.112-0.143
			c-1.191,0.369-2.632,1.305-1.025,2.656c0.856,0.721,5.804-0.135,4.579-2.035C30.195,36.379,30.048,36.221,29.881,36.096z"/>
		<path style="opacity:0.5;clip-path:url(#SVGID_2_);fill:#B54319;" d="M37.644,37.229c-0.978-0.068-0.956-0.594-1.663-0.191
			c-0.706,0.4-0.185,1.943,1.549,2.016c1.727,0.074,2.541-1.199,2.206-1.729C39.349,36.711,38.729,37.305,37.644,37.229z"/>
		<path style="clip-path:url(#SVGID_2_);fill:#FFC48F;" d="M37.399,34.385c-0.802,0.014-1.988,2.713-1.587,3.123
			c0.984,1.004,3.166,0.531,3.83-0.154C39.903,37.082,38.308,34.369,37.399,34.385z"/>
		<path style="clip-path:url(#SVGID_2_);fill:#305D80;" d="M46.55,31.331c-2.699-1.152-5.164,2.179-3.222,3.912
			c0.392-0.424,2.506-1.107,3.813-0.121C48.249,34.326,47.995,31.949,46.55,31.331z"/>
		<path style="clip-path:url(#SVGID_2_);fill:#86BAE3;" d="M46.85,33.204c-0.739,0.231-0.389,1.65,0.366,1.152
			C47.764,33.997,47.507,32.999,46.85,33.204z"/>
		<path style="clip-path:url(#SVGID_2_);fill:#86BAE3;" d="M44.319,31.727c-1.256,0.395-0.663,2.806,0.623,1.96
			C45.872,33.078,45.437,31.38,44.319,31.727z"/>
		<path style="clip-path:url(#SVGID_2_);fill:#305D80;" d="M26.441,31.549c-1.428,0.661-1.612,3.044-0.479,3.806
			c1.275-1.023,3.409-0.402,3.813,0.01C31.665,33.577,29.106,30.319,26.441,31.549z"/>
		<path style="clip-path:url(#SVGID_2_);fill:#86BAE3;" d="M26.196,33.43c-0.664-0.187-0.892,0.82-0.333,1.162
			C26.633,35.068,26.941,33.639,26.196,33.43z"/>
		<path style="clip-path:url(#SVGID_2_);fill:#86BAE3;" d="M28.683,31.88c-1.127-0.313-1.514,1.395-0.566,1.977
			C29.426,34.666,29.95,32.238,28.683,31.88z"/>
		<path style="clip-path:url(#SVGID_2_);fill:#6E4C3C;" d="M30.098,27.687c-1.343,0.069-2.615,0.18-3.92,0.599
			c-0.811,0.261-1.776,0.734-2.381,1.297c-0.204,0.191-0.446,0.513-0.411,0.774c0.22,0.014,0.373-0.139,0.566-0.212
			c0.981-0.376,2.041-0.506,3.072-0.623c0.804-0.091,1.608-0.109,2.41-0.221c0.538-0.074,1.283-0.035,1.526-0.589
			C31.269,28.011,30.82,27.649,30.098,27.687z"/>
		<path style="clip-path:url(#SVGID_2_);fill:#6E4C3C;" d="M46.358,28.067c-1.272-0.385-2.514-0.473-3.824-0.521
			c-0.707-0.027-1.146,0.328-0.853,0.994c0.231,0.529,0.961,0.481,1.485,0.546c0.784,0.096,1.569,0.104,2.354,0.181
			c1.007,0.097,2.041,0.208,2.995,0.555c0.189,0.069,0.338,0.212,0.552,0.197c0.039-0.252-0.196-0.558-0.394-0.737
			C48.087,28.749,47.147,28.307,46.358,28.067z"/>
		<path style="clip-path:url(#SVGID_2_);fill:#121B21;" d="M46.012,30.869c-2.489-0.451-3.193,1.998-3.193,1.998
			s1.206-1.552,2.822-0.862c3.668,1.565,5.607-1.036,5.607-1.036C48.63,32.193,47.285,31.1,46.012,30.869z"/>
		<path style="clip-path:url(#SVGID_2_);fill:#121B21;" d="M27.068,31.14c-1.271,0.245-2.604,1.352-5.235,0.156
			c0,0,1.968,2.58,5.618,0.976c1.609-0.707,2.831,0.833,2.831,0.833S29.553,30.663,27.068,31.14z"/>
		<path style="opacity:0.35;clip-path:url(#SVGID_2_);fill:#C4170E;" d="M36.683,41.016c-3.164,0.139-7.796,1.076-10.311-0.191
			c4.248,6.242,6.829,7.365,10.078,7.508c4.074,0.176,5.427-2.426,6.016-4.371c0.249-0.82,2.278-2.957,3.07-3.445
			C43.008,41.111,40.507,40.85,36.683,41.016z"/>
		<path style="clip-path:url(#SVGID_2_);fill:#8F2621;" d="M28.304,41.896c0,0,2.561,4.201,7.624,4.23
			c3.245,0.016,5.366-1.008,5.949-2.453c0.637-1.578,2.011-2.164,2.011-2.164C35.083,43.658,28.304,41.896,28.304,41.896z"/>
		<path style="clip-path:url(#SVGID_2_);fill:#FFF9F0;" d="M30.188,42.248c0,0,0.171,1.279,1.979,1.75
			c2.319,0.605,4.81,0.609,7.373,0.201c1.727-0.273,2.551-2.297,2.551-2.297S37.159,43.076,30.188,42.248z"/>
		<path style="clip-path:url(#SVGID_2_);fill:#FFF9F0;" d="M37.192,44.398c-2.316,0.111-4.242-0.01-5.41-0.695
			c-0.833-0.486-0.901,0.051-0.719,0.383c0,0,0.772,1.746,4.62,2.1c3.699,0.34,5.584-1.781,5.157-2.141
			C40.415,43.688,39.337,44.295,37.192,44.398z"/>
		<path style="clip-path:url(#SVGID_2_);fill:#E8DAC5;" d="M30.188,42.248c0,0,0.139,0.592,0.473,0.896
			c0,0,8.653-0.805,10.734-0.115c0,0,0.601-0.715,0.695-1.127C42.091,41.902,36.051,43.029,30.188,42.248z"/>
		<path style="clip-path:url(#SVGID_2_);fill:#E8DAC5;" d="M32.476,43.953c3.129,1.711,6.829,0.188,6.829,0.188
			C35.405,45.027,32.476,43.953,32.476,43.953z"/>
	</g>
</g>
<g id="Layer_1">
</g>
</svg>
