<?xml version="1.0" encoding="iso-8859-1"?>
<!-- Generator: Adobe Illustrator 16.0.0, SVG Export Plug-In . SVG Version: 6.00 Build 0)  -->
<!DOCTYPE svg PUBLIC "-//W3C//DTD SVG 1.1//EN" "http://www.w3.org/Graphics/SVG/1.1/DTD/svg11.dtd">
<svg version="1.1" xmlns="http://www.w3.org/2000/svg" xmlns:xlink="http://www.w3.org/1999/xlink" x="0px" y="0px"
	 width="66.002px" height="66px" viewBox="0 0 66.002 66" style="enable-background:new 0 0 66.002 66;" xml:space="preserve">
<g id="Layer_87">
	<g>
		<defs>
			<circle id="SVGID_1_" cx="33.002" cy="33" r="33"/>
		</defs>
		<clipPath id="SVGID_2_">
			<use xlink:href="#SVGID_1_"  style="overflow:visible;"/>
		</clipPath>
		<rect style="clip-path:url(#SVGID_2_);fill:#FFFFFF;" width="66" height="66"/>
		<path style="clip-path:url(#SVGID_2_);fill:#FDD281;" d="M55.847,39.018c3.275-1.499,1.89-8.496-1.813-6.236
			c2.515-0.095,0.088,3.909-1.32,0.896c-0.888-1.902,1.16-2.824,2.082-4.094c1.156-1.593,1.476-3.227,1.299-5.276
			c-0.446-5.157-5.189-8.407-7.921-12.382c-2.977-4.33-7.188-7.098-12.607-5.148c-1.337,0.481-2.443,1.455-3.383,2.496
			c-0.303-0.814-0.877-1.763-1.691-2.366c-0.086,0.772-0.127,1.549-0.147,2.337c-2.944-1.805-7.56-1.072-10.121,0.587
			c-3.48,2.254-3.151,5.725-4.557,9.112c-1.283,3.096-5.356,6.704-5.098,10.298c0.163,2.251,1.77,3.414,1.663,5.73
			c-0.09,1.935-2.19,2.977-1.231,4.865c0.915,1.799,4.908,1.254,2.896,4.496c-1.844,2.971-5.452-0.541-3.191-1.021
			c-2.493-1.212-3.534,2.017-3.167,3.948c0.511,2.684,4.275,2.741,6.298,2.191c-5.271,9.649,9.739,12.034,17.162,5.641
			c3.181-2.74,5.733,4.486,9.578,4.829c5.194,0.462,7.935-3.266,6.876-6.599c0.886,2.789,3.984,2.953,6.318,1.951
			c1.162-0.498,3.705-2.332,3.486-5.884c-0.958,1.183-2.905,1.466-4.271,0.86c-1.917-0.85-2.53-2.788-1.353-4.468
			c1.438-2.05,5.527-4.656,1.537-6.818C54.025,39.43,54.97,39.42,55.847,39.018z"/>
		<path style="clip-path:url(#SVGID_2_);fill:#F4BB6E;" d="M51.395,34.686c-0.481-1.998,1.084-3.544,1.133-5.436
			c0.047-1.81-4.877-10.437-6.926-7.403c-0.475,0.704,2.248,4.848,1.646,5.485c-0.661,0.699-1.688,1.128-2.589,1.404
			c-3.781,1.158-7.825,1.596-11.724,2.177c-2.42,0.361-4.783,0.981-7.19,1.356c-1.551,0.241-3.237,0.561-4.791,0.201
			c-1.801-0.417-1.815-2.173-3.322-2.934c-2.873-1.451-5.187,1.539-4.772,4.266c0.186,1.218,1.122,2.615,1.914,3.539
			c1.297,1.514,2.879,2.006,3.751,3.949c1.604,3.57,0.578,7.265-2.223,9.871c-1.443,1.343-1.883,2.436,0.182,3.773
			c3.344,2.166,8.048,2.297,13.339,0.525c2.513-0.842,10.665,3.664,13.45,2.205c2.233-1.171,2.922-2.34,3.81-6.369
			c0.719,0.896,1.689,2.367,3.012,2.361c-1.02-1.92-0.709-4.444-0.455-6.501c0.244-1.978,1.659-3.521,1.703-5.513
			c0.017-0.706-0.383-2.143-0.132-2.758c0.248-0.607,1.587-1.416,2.1-1.965C52.352,36.371,51.668,35.82,51.395,34.686z"/>
		<path style="clip-path:url(#SVGID_2_);fill:#C9BEB7;" d="M40.657,54.012l-1.633,3.208c0.143,0.071,0.525,0.491,1.027,2.817
			l3.52-0.76C43.107,57.127,42.5,54.948,40.657,54.012z"/>
		<path style="clip-path:url(#SVGID_2_);fill:#FFCB9E;" d="M43.263,59.345l-2.903,0.626c0.159,0.736,0.276,1.424,0.388,2.078
			c0.229,1.333,0.451,2.629,0.96,3.951h3.276c-0.768-1.369-1.011-2.713-1.309-4.452C43.557,60.854,43.431,60.125,43.263,59.345z"/>
		<path style="clip-path:url(#SVGID_2_);fill:#C9BEB7;" d="M26.608,59.277l3.52,0.76c0.501-2.326,0.885-2.746,1.026-2.817
			l-1.632-3.208C27.68,54.948,27.072,57.127,26.608,59.277z"/>
		<path style="clip-path:url(#SVGID_2_);fill:#FFCB9E;" d="M29.819,59.971l-2.903-0.626c-0.168,0.78-0.293,1.51-0.412,2.203
			c-0.297,1.739-0.54,3.083-1.309,4.452h3.277c0.509-1.322,0.731-2.618,0.959-3.951C29.543,61.395,29.661,60.707,29.819,59.971z"/>
		<path style="clip-path:url(#SVGID_2_);fill:#C9BEB7;" d="M41.04,60.853c1.079-4.037,1.2-6.484-1.296-7.304
			c-2.426-0.798-6.897-1.064-9.558,0.072c-2.119,0.907-2.798,2.377-1.352,6.854c0.656,2.033,1.166,3.949,1.238,5.525h9.997
			C40.141,64.69,40.447,63.069,41.04,60.853z"/>
		<linearGradient id="SVGID_3_" gradientUnits="userSpaceOnUse" x1="34.6582" y1="51.9121" x2="34.6582" y2="55.3976">
			<stop  offset="0" style="stop-color:#EEA17A"/>
			<stop  offset="0.0031" style="stop-color:#EEA17A"/>
			<stop  offset="0.3647" style="stop-color:#F7B88E"/>
			<stop  offset="0.705" style="stop-color:#FDC69A"/>
			<stop  offset="1" style="stop-color:#FFCB9E"/>
		</linearGradient>
		<path style="clip-path:url(#SVGID_2_);fill:url(#SVGID_3_);" d="M37.786,49.377c0.205-3.57-5.961-3.703-5.954,0.193
			c0.002,1.727,0.133,3.042-0.225,3.602c-2.469,3.859,8.45,4.321,6.146,0.182C37.234,52.426,37.696,50.951,37.786,49.377z"/>
		<path style="opacity:0.4;clip-path:url(#SVGID_2_);fill:#F0EAE6;" d="M37.547,58.225c-1.747,0.619-3.876,0.358-5.669-0.09
			c-1.032-0.258-1.61,0.909-1.292,1.907c0.418,1.324,2.56,1.67,4.425,1.641c3.677-0.059,5.055-1.424,4.431-3.052
			C39.274,58.193,38.487,57.895,37.547,58.225z"/>
		<path style="clip-path:url(#SVGID_2_);fill:#FFCB9E;" d="M33.332,15.626c-8.235,1.053-14.766,7.683-13.686,19.099
			c1.08,11.416,8.784,18.305,17.087,18.236c6.372-0.052,14.061-10.472,13.635-22.261C49.957,19.393,41.565,14.573,33.332,15.626z"/>
		<path style="clip-path:url(#SVGID_2_);fill:#FFCB9E;" d="M16.052,30.019c-3.938,1.392-2.217,7.096,1.045,8.026
			c1.046,0.3,2.149,0.27,3.21,0.115c0.02-0.033,0.039-0.067,0.06-0.104c0.458-0.792-0.477-4.605-0.736-5.387
			C18.976,30.702,17.942,29.353,16.052,30.019z"/>
		<path style="opacity:0.15;clip-path:url(#SVGID_2_);fill:#BF3C1B;" d="M43.018,15.055c-4.435-0.47-9.116-0.306-13.472,0.683
			c-3.015,0.684-6.192,1.936-7.933,4.639c-1.24,1.925-3.344,4.038-3.627,6.417c-0.265,2.227-3.487,2.66,0.413,6.316
			c1.914,1.794-0.098,2.388,0.292,6.191c0.157,1.527,2.584,2.876,4.891,1.609c-2.333-2.261-0.494-3.962-0.064-6.481
			c0.231-1.346-0.997-3.513-0.984-4.893c0.003-0.313,0.022-0.626,0.058-0.936c0.139-1.221,0.493-2.413,0.845-3.586
			c-0.476,4.211,5.619,1.904,7.335,1.225c0.568-0.226,1.162-0.454,1.772-0.327c-2.059,2.124,0.964,5.81,3.479,5.81
			c4.085,0,5.12-1.694,6.829-4.028c0.974-1.328,2.294-2.238,3.848-2.433c1.056-0.131,3.252,0.596,3.694-0.653
			c0.661-1.862-0.159-5.418-1.093-7.119C48.154,15.404,45.109,15.277,43.018,15.055z"/>
		<path style="opacity:0.2;clip-path:url(#SVGID_2_);fill:#BF3C1B;" d="M18.511,32.148c-1.041-0.503-3.781,0.04-2.665,1.92
			c0.798-1.598,1.897-0.422,1.621,0.734c-0.184,0.777-1.185,0.71-0.273,1.799c0.491,0.588,1.593,0.471,2.164,0.223
			C21.172,36.03,19.781,32.764,18.511,32.148z"/>
		<path style="clip-path:url(#SVGID_2_);fill:#FDD281;" d="M37.549,9.736c-1.69-0.148-3.282-0.648-5.008-0.603
			c-2.878,0.075-5.662,1.05-8.2,2.401c-3.779,2.014-6.216,6.576-7.321,10.629c-0.642,2.365-0.982,5.023-0.468,7.446
			c0.459,2.162,3.263,2.978,3.429,5.208c0.072,0.999-0.808,1.749-0.786,2.706c0.02,0.786,0.388,1.64,0.956,2.149
			c0.502,0.451,1.659,0.611,2.366,0.715c-1.562-1.713-0.053-2.71,0.088-4.385c0.099-1.148-0.153-3.367-0.575-4.462
			c-1.104-2.868-0.438-6.159,2.052-8.033c0.251,3.074,3.392,2.951,5.639,2.507c1.011-0.199,3.95-1.387,4.466,0.141
			c0.32,0.955-1.205,1.782-1.555,0.689c-0.031,1.626,0.054,2.964,1.997,3.379c2.924,0.625,5.302-0.409,6.853-2.942
			c0.628-1.026,1.247-1.648,1.968-2.027c0.877-0.46,1.907-0.561,3.296-0.59c2.563-0.052,3.449-1.913,3.332-4.36
			C49.759,13.663,43.423,10.257,37.549,9.736z"/>
		<path style="clip-path:url(#SVGID_2_);fill:#FFE8BD;" d="M35.526,9.187c-1.21,0.326-2.372,1.056-3.212,1.982
			c0.91,0.904,2.274,3.665,2.326,4.132c0.19,1.739-0.351,3.435-1.842,4.437c-1.497,1.005-10.059,2.513-4.133,4.565
			c1.814,0.628,3.694-0.548,5.488-0.138c1.424,0.325,2.359,2.409,0.875,3.385c1.284,0.613,3.274-0.17,4.348-0.858
			c0.793-0.507,1.472-1.101,2.341-1.476c2.115-0.916,3.798-2.09,4.86-3.502c1.768-2.349,1.817-5.356-0.722-8.919
			C43.808,9.917,38.912,8.276,35.526,9.187z"/>
		<path style="clip-path:url(#SVGID_2_);fill:#FFE8BD;" d="M26.227,10.695c-7.476,0.503-5.974,6.946-9.151,11.559
			c-1.083,1.57-2.122,2.933-1.207,4.765c0.752,1.505,3.116,3.687,4.797,3.884c-0.552-1.083-0.843-2.774-0.513-3.943
			c1.355-4.784,6.929-6.245,9.356-10.105C31.516,13.666,30.077,10.437,26.227,10.695z"/>
		<path style="clip-path:url(#SVGID_2_);fill:#FFB387;" d="M47.875,37.535c-0.415-0.777-1.461-0.99-2.221-1.045
			c-0.989-0.07-2.349,0.221-1.626,1.75c0.387,0.815,4.272,1.638,4.008-0.203C48.011,37.849,47.953,37.682,47.875,37.535z"/>
		<path style="clip-path:url(#SVGID_2_);fill:#FFB387;" d="M28.869,37.404c-0.588-0.805-1.775-0.81-2.621-0.698
			c-1.1,0.148-2.545,0.801-1.49,2.407c0.563,0.854,4.975,0.91,4.374-1.162C29.069,37.737,28.979,37.557,28.869,37.404z"/>
		<path style="clip-path:url(#SVGID_2_);fill:#A16B43;" d="M42.271,29.528c2.162,0.204,3.969-0.436,7.213-0.167
			C48.294,27.871,43.891,27.84,42.271,29.528z"/>
		<path style="opacity:0.2;clip-path:url(#SVGID_2_);fill:#BF3C1B;" d="M37.465,38.232c-0.736,0.008-1.03-0.301-1.545-0.018
			c-0.514,0.283,0.605,1.285,1.516,1.208c1.03-0.085,1.876-0.932,1.604-1.238C38.722,37.826,38.283,38.223,37.465,38.232z"/>
		<path style="clip-path:url(#SVGID_2_);fill:#A16B43;" d="M22.985,29.065c4.055,0.095,5.422,0.274,8.237,0.203
			C29.743,27.368,24.775,27.498,22.985,29.065z"/>
		<path style="opacity:0.5;clip-path:url(#SVGID_2_);fill:#F04D4D;" d="M36.889,40.779c-2.9,0.057-7.165,0.879-9.433-0.461
			c3.72,6.393,6.053,7.59,9.024,7.818c3.724,0.283,5.033-2.299,5.624-4.239c0.25-0.821,2.166-2.918,2.903-3.39
			C42.679,41.043,40.396,40.713,36.889,40.779z"/>
		<path style="clip-path:url(#SVGID_2_);fill:#8F3935;" d="M29.195,41.446c0,0,2.23,4.296,6.865,4.456
			c2.971,0.103,4.939-0.873,5.513-2.311c0.626-1.572,1.9-2.125,1.9-2.125C35.355,43.397,29.195,41.446,29.195,41.446z"/>
		<path style="clip-path:url(#SVGID_2_);fill:#FFF9F0;" d="M30.912,41.85c0,0,0.121,1.293,1.764,1.813
			c2.107,0.67,4.386,0.74,6.743,0.396c1.59-0.23,2.398-2.244,2.398-2.244S37.271,42.865,30.912,41.85z"/>
		<path style="clip-path:url(#SVGID_2_);fill:#FFF9F0;" d="M37.266,44.197c-2.123,0.052-3.884-0.121-4.935-0.84
			c-0.75-0.514-0.826,0.025-0.669,0.365c0,0,0.66,1.777,4.174,2.234c3.378,0.439,5.161-1.647,4.778-2.019
			C40.235,43.566,39.232,44.151,37.266,44.197z"/>
		<path style="clip-path:url(#SVGID_2_);fill:#E8DAC5;" d="M30.912,41.85c0,0,0.11,0.602,0.408,0.916c0,0,7.943-0.584,9.83,0.166
			c0,0,0.569-0.706,0.667-1.117C41.817,41.814,36.257,42.791,30.912,41.85z"/>
		<path style="clip-path:url(#SVGID_2_);fill:#E8DAC5;" d="M32.959,43.627c2.818,1.803,6.248,0.365,6.248,0.365
			C35.612,44.783,32.959,43.627,32.959,43.627z"/>
		<path style="clip-path:url(#SVGID_2_);fill:#305D80;" d="M27.755,31.129c-2.134-0.801-3.226,3.132-1.735,4.296
			c0.651-0.241,1.438-0.217,2.073,0.057C29.445,34.639,29.345,31.727,27.755,31.129z"/>
		<path style="clip-path:url(#SVGID_2_);fill:#86BAE3;" d="M28.089,32.43c-0.885,0.135-0.554,1.945,0.367,1.487
			C29.122,33.588,28.875,32.313,28.089,32.43z"/>
		<path style="clip-path:url(#SVGID_2_);fill:#305D80;" d="M46.544,31.172c-2.143-1.368-4.025,3.645-1.642,4.363
			c0.575-0.394,1.266-0.396,1.881-0.301C47.602,34.168,47.693,31.903,46.544,31.172z"/>
		<path style="clip-path:url(#SVGID_2_);fill:#86BAE3;" d="M46.42,32.238c-0.847,0.021-0.725,1.899,0.188,1.555
			C47.269,33.544,47.17,32.221,46.42,32.238z"/>
		<path style="clip-path:url(#SVGID_2_);fill:#121B21;" d="M46.604,31.063c-1.964-0.754-2.608,1.574-2.608,1.574
			s0.951-1.173,2.29-0.428c3.035,1.691,4.99-0.366,4.99-0.366C48.871,32.652,47.657,31.471,46.604,31.063z"/>
		<path style="clip-path:url(#SVGID_2_);fill:#121B21;" d="M26.327,31.238c-0.786,0.398-2.607,1.593-5.027,0.89
			c0,0,2.307,2.002,5.23,0.192c1.281-0.795,2.38,0.181,2.38,0.181S28.376,30.194,26.327,31.238z"/>
	</g>
</g>
<g id="Layer_1">
</g>
</svg>
