<?xml version="1.0" encoding="iso-8859-1"?>
<!-- Generator: Adobe Illustrator 16.0.0, SVG Export Plug-In . SVG Version: 6.00 Build 0)  -->
<!DOCTYPE svg PUBLIC "-//W3C//DTD SVG 1.1//EN" "http://www.w3.org/Graphics/SVG/1.1/DTD/svg11.dtd">
<svg version="1.1" xmlns="http://www.w3.org/2000/svg" xmlns:xlink="http://www.w3.org/1999/xlink" x="0px" y="0px"
	 width="66.004px" height="66px" viewBox="0 0 66.004 66" style="enable-background:new 0 0 66.004 66;" xml:space="preserve">
<g id="Layer_62">
	<g>
		<defs>
			<circle id="SVGID_1_" cx="33.004" cy="33" r="33"/>
		</defs>
		<clipPath id="SVGID_2_">
			<use xlink:href="#SVGID_1_"  style="overflow:visible;"/>
		</clipPath>
		<rect style="clip-path:url(#SVGID_2_);fill:#FFFFFF;" width="66" height="65.998"/>
		<path style="clip-path:url(#SVGID_2_);fill:#6F6E82;" d="M30.446,55.439l-1.492-2.839c-2.025,0.994-2.546,3.257-3.098,5.655
			c-0.291,1.263-1.439,6.011-2.104,7.742h3.526c0.495-1.612,1.564-6.055,1.794-7.051C29.434,57.376,29.808,55.753,30.446,55.439z"/>
		<path style="clip-path:url(#SVGID_2_);fill:#6F6E82;" d="M38.628,52.601l-1.492,2.839c0.639,0.313,1.013,1.937,1.374,3.508
			c0.229,0.996,1.299,5.438,1.794,7.051h3.526c-0.665-1.731-1.813-6.479-2.104-7.742C41.174,55.857,40.653,53.595,38.628,52.601z"/>
		
			<ellipse transform="matrix(0.0223 -0.9998 0.9998 0.0223 -14.9127 88.1983)" style="clip-path:url(#SVGID_2_);fill:#FFF9F0;" cx="37.637" cy="51.724" rx="0.416" ry="0.425"/>
		
			<ellipse transform="matrix(0.0235 -0.9997 0.9997 0.0235 -22.5286 80.5012)" style="clip-path:url(#SVGID_2_);fill:#FFF9F0;" cx="29.943" cy="51.783" rx="0.416" ry="0.424"/>
		<path style="clip-path:url(#SVGID_2_);fill:#6F6E82;" d="M40.509,60.417c1.03-2.557,1.073-3.172,0.473-4.608
			c-2.635-6.307-9.624-5.374-12.024-3.243c-0.78,0.692-1.314,1.628-1.505,2.583c-1.02,2.682-0.041,3.925,0.538,6.216
			c0.347,1.37,0.44,2.868,0.255,4.634h11.41C39.45,64.361,39.617,62.627,40.509,60.417z"/>
		<circle style="clip-path:url(#SVGID_2_);fill:#FFFFFF;" cx="33.925" cy="61.496" r="0.508"/>
		<circle style="clip-path:url(#SVGID_2_);fill:#FFFFFF;" cx="33.993" cy="64.609" r="0.507"/>
		<linearGradient id="SVGID_3_" gradientUnits="userSpaceOnUse" x1="33.8003" y1="49.0049" x2="33.8003" y2="53.28">
			<stop  offset="0" style="stop-color:#EEA17A"/>
			<stop  offset="1" style="stop-color:#FFCCA6"/>
		</linearGradient>
		<path style="clip-path:url(#SVGID_2_);fill:url(#SVGID_3_);" d="M37.587,51.807c-1.846-1.046,0.151-5.817-1.327-7.012
			c-1.112-0.897-2.956-0.981-4.237-0.452c-2.534,1.051-0.033,6.847-2.464,7.894c-0.483,0.208-0.589,0.79,0.351,2.315
			c1.168,1.896,1.96,2.816,4.186,3.845c1.792-0.81,3.637-2.563,4.162-4.192C38.694,52.846,38.067,52.077,37.587,51.807z"/>
		<path style="opacity:0.5;clip-path:url(#SVGID_2_);fill:#3A3A4A;" d="M34.095,58.396c-0.572,0.001-5.323-1.275-5.323-1.275
			l0.408,4.41c0,0,4.466-2.891,4.901-2.891c0.476,0,5.021,2.749,5.021,2.749l-0.037-4.504
			C39.064,56.886,34.865,58.394,34.095,58.396z"/>
		<path style="clip-path:url(#SVGID_2_);fill:#F5F5F5;" d="M37.793,51.73c0,0,0.859,1.916-0.259,3.673
			c-0.894,1.402-3.439,2.993-3.439,2.993l4.716,2.024C38.811,60.421,39.854,53.143,37.793,51.73z"/>
		<path style="clip-path:url(#SVGID_2_);fill:#F5F5F5;" d="M30.754,55.758c-1.551-2.225-1.081-3.707-1.081-3.707
			c-2.299,1.567-0.264,8.341-0.264,8.341l4.686-1.995C34.095,58.396,31.899,57.401,30.754,55.758z"/>
		
			<ellipse transform="matrix(0.0235 -0.9997 0.9997 0.0235 -14.9777 88.714)" style="clip-path:url(#SVGID_2_);fill:#FFF9F0;" cx="37.923" cy="52.024" rx="0.416" ry="0.424"/>
		
			<ellipse transform="matrix(0.0223 -0.9998 0.9998 0.0223 -23.3153 80.6632)" style="clip-path:url(#SVGID_2_);fill:#FFF9F0;" cx="29.584" cy="52.252" rx="0.416" ry="0.424"/>
		<circle style="clip-path:url(#SVGID_2_);fill:#FFF9F0;" cx="30.5" cy="53.115" r="0.505"/>
		<circle style="clip-path:url(#SVGID_2_);fill:#FFF9F0;" cx="31.671" cy="53.871" r="0.504"/>
		<circle style="clip-path:url(#SVGID_2_);fill:#FFF9F0;" cx="33.174" cy="54.361" r="0.504"/>
		<circle style="clip-path:url(#SVGID_2_);fill:#FFF9F0;" cx="34.67" cy="54.408" r="0.504"/>
		<circle style="clip-path:url(#SVGID_2_);fill:#FFF9F0;" cx="37.344" cy="52.905" r="0.504"/>
		<circle style="clip-path:url(#SVGID_2_);fill:#FFF9F0;" cx="36.165" cy="53.818" r="0.504"/>
		<path style="clip-path:url(#SVGID_2_);fill:#F06799;" d="M35.417,60.634c-0.257,0.021-0.275,2.821,0.079,2.9
			c0.353,0.078,4.198,0.031,4.41-0.047c0.213-0.077,0.262-2.594,0.013-2.789C39.671,60.502,35.417,60.634,35.417,60.634z"/>
		<path style="clip-path:url(#SVGID_2_);fill:#F5F5F5;" d="M39.588,61.114c-0.216-0.076-3.901-0.022-3.901-0.022
			c-0.222,0.009-0.24,1.086,0.066,1.116c0.307,0.031,3.637,0.009,3.821-0.021C39.758,62.156,39.802,61.189,39.588,61.114z"/>
		<path style="opacity:0.5;clip-path:url(#SVGID_2_);fill:#D9AF96;" d="M19.183,31.351c-1.797-0.184-3.295,1.161-2.764,5.354
			c0.533,4.192,4.435,3.68,4.435,3.68S20.978,31.534,19.183,31.351z"/>
		<path style="clip-path:url(#SVGID_2_);fill:#4F2619;" d="M35.388,9.445c-30.067,2.383-32.661,42.232-9.421,36.5
			c4.262-1.053,1.76-5.293,8.467-5.784c4.228-0.309,5.692,4.96,7.396,5.436C60.959,50.948,58.573,14.613,35.388,9.445z"/>
		<path style="clip-path:url(#SVGID_2_);fill:#FFF9F0;" d="M44.278,38.997c-1.483,0.122-2.558,1.604-2.396,3.307
			c0.161,1.705,1.496,2.985,2.98,2.863c1.484-0.123,2.559-1.602,2.396-3.307C47.099,40.156,45.764,38.875,44.278,38.997z
			 M44.772,44.091c-1.077,0.089-2.045-0.842-2.163-2.078c-0.116-1.236,0.662-2.311,1.739-2.399c1.078-0.089,2.045,0.841,2.163,2.077
			C46.629,42.926,45.851,44.001,44.772,44.091z"/>
		<path style="clip-path:url(#SVGID_2_);fill:#FFCB9E;" d="M32.854,17.202c-10.185,0.315-13.532,7.028-13.271,17.07
			c0.262,10.04,7.47,16.659,14.989,17.104c5.774,0.341,13.059-8.644,12.468-18.672C46.454,22.81,42.645,16.899,32.854,17.202z"/>
		<path style="opacity:0.2;clip-path:url(#SVGID_2_);fill:#BF3C1B;" d="M42.339,17.254c-2.085-1.303-4.696-1.203-7.008-0.737
			c-1.481,0.299-2.953,0.775-4.338,1.376c-4.18,1.812-8.316,4.764-10.622,8.777c-0.499,0.869-2.074,3.632-1.139,4.597
			c0.609,0.627,0.315,1.946,0.909,1.374c3.81-3.677,10.521-2.57,15.203-6.932c1.489-1.388,3.1-3.876,3.982-5.322
			c-0.363,1.803,6.309,6.264,7.307,9.13c0.813,2.332,0.736-2.039,0.813-3.239C47.691,22.454,45.451,19.2,42.339,17.254z"/>
		<path style="clip-path:url(#SVGID_2_);fill:#2F2120;" d="M25.857,31.188c-2.097-0.788-3.169,3.076-1.704,4.222
			c0.639-0.239,1.41-0.215,2.034,0.053C27.518,34.634,27.417,31.775,25.857,31.188z"/>
		<path style="clip-path:url(#SVGID_2_);fill:#7D4732;" d="M25.572,26.507c-0.888,0.151-1.87,0.742-2.354,2.088
			c2.572-2.144,4.26-0.888,5.194-0.516C27.884,27.104,26.824,26.293,25.572,26.507z"/>
		<path style="clip-path:url(#SVGID_2_);fill:#B08A72;" d="M26.271,32.921c-0.868,0.132-0.544,1.909,0.361,1.458
			C27.285,34.056,27.044,32.805,26.271,32.921z"/>
		<path style="clip-path:url(#SVGID_2_);fill:#4F2619;" d="M44.391,17.701c-2.133-2.489-5.234-3.782-8.258-4.864
			c-2.24-0.803-4.58-1.073-6.934-0.615c-5.931,1.156-9.6,6.853-10.551,12.477c-0.3,1.771-1.938,7.965,0.392,10.907
			c0.537-3.173,1.404-4.942,8.523-7.009c7.569-2.197,11.062-7.661,12.062-9.307c0.205,4.38,7.292,6.075,7.347,12.47
			c0.039-1.596,1.127-4.358,0.86-5.969C47.349,22.893,46.326,19.959,44.391,17.701z"/>
		<path style="clip-path:url(#SVGID_2_);fill:#FFB696;" d="M45.481,37.396c-0.408-0.763-1.435-0.974-2.181-1.026
			c-0.973-0.069-2.307,0.217-1.597,1.72c0.379,0.8,4.195,1.608,3.936-0.199C45.613,37.704,45.559,37.541,45.481,37.396z"/>
		<path style="clip-path:url(#SVGID_2_);fill:#FFB696;" d="M26.813,37.269c-0.577-0.79-1.743-0.796-2.572-0.687
			c-1.082,0.146-2.501,0.787-1.465,2.362c0.552,0.842,4.887,0.896,4.296-1.14C27.011,37.596,26.922,37.419,26.813,37.269z"/>
		<path style="opacity:0.7;clip-path:url(#SVGID_2_);fill:#E65050;" d="M34.691,40.585c-2.85,0.053-7.038,0.861-9.267-0.455
			c3.655,6.278,5.946,7.455,8.864,7.679c3.658,0.279,4.943-2.257,5.525-4.164c0.246-0.807,2.128-2.864,2.853-3.327
			C40.378,40.842,38.135,40.518,34.691,40.585z"/>
		<path style="clip-path:url(#SVGID_2_);fill:#8F3935;" d="M27.134,41.237c0,0,2.191,4.221,6.744,4.377
			c2.916,0.102,4.852-0.855,5.413-2.269c0.615-1.546,1.866-2.089,1.866-2.089C33.185,43.154,27.134,41.237,27.134,41.237z"/>
		<path style="clip-path:url(#SVGID_2_);fill:#FFF9F0;" d="M28.82,41.635c0,0,0.12,1.268,1.733,1.781
			c2.068,0.657,4.308,0.726,6.623,0.388c1.56-0.227,2.354-2.204,2.354-2.204S35.065,42.633,28.82,41.635z"/>
		<path style="clip-path:url(#SVGID_2_);fill:#FFF9F0;" d="M35.061,43.94c-2.086,0.05-3.813-0.118-4.847-0.825
			c-0.737-0.506-0.812,0.024-0.656,0.358c0,0,0.647,1.745,4.1,2.194c3.316,0.431,5.068-1.617,4.693-1.982
			C37.977,43.32,36.993,43.894,35.061,43.94z"/>
		<path style="clip-path:url(#SVGID_2_);fill:#E8DAC5;" d="M28.82,41.635c0,0,0.107,0.59,0.4,0.898c0,0,7.803-0.571,9.656,0.163
			c0,0,0.559-0.692,0.654-1.097C39.531,41.6,34.071,42.558,28.82,41.635z"/>
		<path style="clip-path:url(#SVGID_2_);fill:#E8DAC5;" d="M30.83,43.379c2.769,1.772,6.138,0.36,6.138,0.36
			C33.437,44.516,30.83,43.379,30.83,43.379z"/>
		<path style="opacity:0.3;clip-path:url(#SVGID_2_);fill:#D14F2E;" d="M35.224,36.807c-0.655-0.012-0.913-0.295-1.373-0.058
			c-0.46,0.238,0.523,1.157,1.334,1.116c0.916-0.049,1.679-0.777,1.439-1.059C36.347,36.48,35.951,36.82,35.224,36.807z"/>
		<path style="clip-path:url(#SVGID_2_);fill:#2F2120;" d="M44.312,31.229c-2.106-1.343-3.954,3.58-1.613,4.287
			c0.564-0.388,1.245-0.39,1.848-0.297C45.351,34.171,45.438,31.947,44.312,31.229z"/>
		<path style="clip-path:url(#SVGID_2_);fill:#B08A72;" d="M44.209,32.686c-0.831,0.021-0.71,1.865,0.187,1.528
			C45.044,33.969,44.946,32.669,44.209,32.686z"/>
		<path style="clip-path:url(#SVGID_2_);fill:#121B21;" d="M44.37,31.124c-1.929-0.742-2.563,1.546-2.563,1.546
			s0.936-1.154,2.25-0.422c2.982,1.661,4.901-0.359,4.901-0.359C46.596,32.683,45.405,31.522,44.37,31.124z"/>
		<path style="clip-path:url(#SVGID_2_);fill:#121B21;" d="M24.454,31.292c-0.771,0.393-2.562,1.568-4.938,0.876
			c0,0,2.266,1.967,5.137,0.188c1.258-0.779,2.336,0.18,2.336,0.18S26.467,30.269,24.454,31.292z"/>
		<path style="clip-path:url(#SVGID_2_);fill:#784430;" d="M43.59,13.479c-8.616,7.903-21.794,1.127-21.794,1.127
			c-4.136,2.417-7.744,7.892-7.754,7.907c0.171-0.26,3.168,0.811,3.457,0.927c1.525,0.619,2.961,1.446,4.518,1.991
			c1.688,0.591,3.824,1.128,5.651,1.177c3.71,0.099,8.922-3.396,12.314-8.311c0.114,1.72,0.659,2.845,1.491,3.783
			c4.077,4.599,9.554-0.052,9.554-0.052S49.201,17.207,43.59,13.479z"/>
		<path style="clip-path:url(#SVGID_2_);fill:#784430;" d="M44.044,26.452c-1.247-0.248-2.327,0.537-2.88,1.497
			c0.943-0.348,2.663-1.559,5.179,0.65C45.895,27.244,44.927,26.628,44.044,26.452z"/>
		<path style="clip-path:url(#SVGID_2_);fill:#FFCB9E;" d="M17.972,31.326c-2.708,1.209-1.614,6.807,0.6,7.827
			c0.71,0.326,1.465,0.338,2.189,0.226c0.015-0.031,0.028-0.063,0.042-0.097c0.325-0.752-0.259-4.487-0.425-5.255
			C19.958,32.095,19.272,30.746,17.972,31.326z"/>
		<path style="opacity:0.3;clip-path:url(#SVGID_2_);fill:#D14F2E;" d="M18.841,33.198c-0.551-0.298-1.713,0.601-0.922,2.123
			c0.121-1.556,0.799-0.662,0.849,0.421c0.035,0.727-0.43,0.814,0.148,1.656c0.313,0.456,0.796,0.188,1.018-0.124
			C20.64,36.292,19.511,33.562,18.841,33.198z"/>
		<path style="clip-path:url(#SVGID_2_);fill:#FFF9F0;" d="M19.856,39.546c-1.49,0.013-2.669,1.41-2.634,3.121
			c0.034,1.711,1.271,3.087,2.762,3.074s2.668-1.408,2.633-3.12C22.582,40.91,21.347,39.532,19.856,39.546z M19.973,44.662
			c-1.081,0.009-1.978-0.99-2.002-2.23c-0.027-1.242,0.829-2.257,1.91-2.266c1.08-0.01,1.978,0.99,2.003,2.23
			C21.909,43.639,21.054,44.652,19.973,44.662z"/>
	</g>
</g>
<g id="Layer_1">
</g>
</svg>
