<?xml version="1.0" encoding="iso-8859-1"?>
<!-- Generator: Adobe Illustrator 16.0.0, SVG Export Plug-In . SVG Version: 6.00 Build 0)  -->
<!DOCTYPE svg PUBLIC "-//W3C//DTD SVG 1.1//EN" "http://www.w3.org/Graphics/SVG/1.1/DTD/svg11.dtd">
<svg version="1.1" xmlns="http://www.w3.org/2000/svg" xmlns:xlink="http://www.w3.org/1999/xlink" x="0px" y="0px" width="66px"
	 height="66px" viewBox="0 0 66 66" style="enable-background:new 0 0 66 66;" xml:space="preserve">
<g id="Layer_105">
	<g>
		<defs>
			<circle id="SVGID_1_" cx="33" cy="33" r="33"/>
		</defs>
		<clipPath id="SVGID_2_">
			<use xlink:href="#SVGID_1_"  style="overflow:visible;"/>
		</clipPath>
		<rect style="clip-path:url(#SVGID_2_);fill:#88AF91;" width="66" height="65.999"/>
		<path style="clip-path:url(#SVGID_2_);fill:#E8DBDB;" d="M32.536,55.907c1.031-0.866-0.17-3.971-1.563-3.22
			c-3.358,1.812-3.982,8.967-5.299,13.312h3.098C29.701,62.462,30.516,57.606,32.536,55.907z"/>
		<path style="clip-path:url(#SVGID_2_);fill:#E8DBDB;" d="M40.753,52.688c-1.393-0.751-2.595,2.354-1.563,3.22
			c2.02,1.699,2.834,6.555,3.765,10.092h3.097C44.736,61.654,44.111,54.499,40.753,52.688z"/>
		<path style="clip-path:url(#SVGID_2_);fill:#E8DBDB;" d="M41.863,60.659c1.009-2.501,0.702-5.195-0.218-6.409
			c-3.706-4.883-8.271-3.708-10.62-1.623c-0.764,0.677-1.285,1.594-1.472,2.527c-0.998,2.624-0.041,3.84,0.525,6.081
			c0.354,1.401,0.445,2.934,0.229,4.764h11.055C40.979,64.482,40.96,62.897,41.863,60.659z"/>
		<circle style="clip-path:url(#SVGID_2_);fill:#FFFFFF;" cx="35.887" cy="61.365" r="0.498"/>
		<circle style="clip-path:url(#SVGID_2_);fill:#FFFFFF;" cx="35.953" cy="64.412" r="0.496"/>
		<linearGradient id="SVGID_3_" gradientUnits="userSpaceOnUse" x1="35.7656" y1="49.1426" x2="35.7656" y2="53.3263">
			<stop  offset="0" style="stop-color:#EE986D"/>
			<stop  offset="1" style="stop-color:#FFC498"/>
		</linearGradient>
		<path style="clip-path:url(#SVGID_2_);fill:url(#SVGID_3_);" d="M39.471,51.883c-1.807-1.022,0.147-5.69-1.3-6.859
			c-1.089-0.88-2.893-0.962-4.146-0.441c-2.479,1.026-0.033,6.699-2.41,7.723c-0.474,0.204-0.577,0.773,0.343,2.266
			c1.141,1.854,1.917,2.755,4.096,3.763c1.753-0.792,3.559-2.509,4.072-4.103C40.554,52.901,39.94,52.148,39.471,51.883z"/>
		<path style="opacity:0.1;clip-path:url(#SVGID_2_);" d="M36.054,58.333c-0.56,0.001-5.332-2.145-5.332-2.145l0.521,4.312
			c0,0,4.37-1.93,4.796-1.93c0.466,0,4.913,2.082,4.913,2.082l-0.001-3.54C40.951,57.112,36.806,58.329,36.054,58.333z"/>
		<path style="clip-path:url(#SVGID_2_);fill:#F5ECEC;" d="M39.673,51.809c0,0,0.84,1.877-0.255,3.594
			c-0.874,1.373-3.364,2.931-3.364,2.931l4.613,1.366C40.667,59.699,41.688,53.191,39.673,51.809z"/>
		<path style="clip-path:url(#SVGID_2_);fill:#F5ECEC;" d="M32.785,55.75c-1.519-2.178-1.059-3.628-1.059-3.628
			c-2.25,1.534-0.258,7.548-0.258,7.548l4.585-1.337C36.054,58.333,33.905,57.359,32.785,55.75z"/>
		<path style="opacity:0.15;clip-path:url(#SVGID_2_);" d="M39.029,53.688c0.044-0.296,0.334-0.538,0.431-0.82
			c0.124-0.374,0.071-0.78,0.025-1.162c-0.421-0.156-1.147,0.406-1.537,0.551c-0.573,0.215-1.16,0.493-1.754,0.635
			c-1.054,0.248-2.293,0.02-3.236-0.498c-0.392-0.216-0.778-0.491-1.012-0.86c-0.159,1.216,0.286,1.817,1.279,2.436
			c0.496,0.311,1.067,0.338,1.553,0.605c-0.634,0.554-0.833,1.774-0.987,2.567c-0.272,1.398,0.09,2.854-0.183,4.236
			c0.868,0.076,2.14-0.934,2.794-1.459c0.673-0.541,1.179-1.146,1.574-1.915c0.188-0.367,0.366-0.74,0.396-1.154
			c1.192,0.849,2.332,1.214,3.816,1.19c-0.352-0.855-0.962-1.979-1.636-2.618C40.112,55,38.925,54.425,39.029,53.688z"/>
		<path style="clip-path:url(#SVGID_2_);fill:#19B2AC;" d="M38.871,50.695c-0.272,0.147-0.519,0.502-0.748,0.721
			c-0.665,0.635-1.567,0.971-2.473,0.953c-0.357-0.007-0.715-0.069-1.059-0.188c-0.797-0.281-1.719-0.731-1.989-1.608
			c-0.431,0.197-0.768,0.53-1.081,0.886c0.151,0.724,0.483,1.313,1.019,1.822c0.303,0.287,0.732,0.542,1.123,0.687
			c2.087,0.772,4.862-0.071,6.076-1.949c0.113-0.176,0.162-0.245,0.047-0.429C39.716,51.479,38.943,50.656,38.871,50.695z"/>
		<path style="clip-path:url(#SVGID_2_);fill:#19B2AC;" d="M36.444,54.793c1.333,0.456,3.253-0.879,2.387-2.324
			C37.411,50.095,33.692,53.852,36.444,54.793z"/>
		<path style="clip-path:url(#SVGID_2_);fill:#19B2AC;" d="M36.916,53.356c-0.546,0.74-1.436,1.001-1.98,1.789
			c-0.474,0.685-0.819,1.551-0.956,2.403c-0.202,1.259-0.169,2.602-0.624,3.8c2.628-0.109,5.308-2.836,4.509-5.953
			C37.692,54.724,37.364,53.861,36.916,53.356z"/>
		<path style="clip-path:url(#SVGID_2_);fill:#19B2AC;" d="M37.228,52.924c0.637,5.767,5.168,6.179,7.545,5.196
			C42.115,57.112,41.117,52.068,37.228,52.924z"/>
		<path style="clip-path:url(#SVGID_2_);fill:#118F8D;" d="M40.215,55.913c-1.09-0.712-1.682-0.674-2.159-1.246
			c0.179,0.802,0.329,1.316,1.022,1.95c0.592,0.539,1.391,1.019,2.208,0.977C41.145,56.997,40.727,56.245,40.215,55.913z"/>
		<path style="clip-path:url(#SVGID_2_);fill:#118F8D;" d="M36.603,57.362c-0.222,0.531-0.241,1.389-0.133,1.984
			c0.546-0.336,0.904-1.129,1.108-1.881c0.238-0.88,0.163-1.407,0.01-2.2C37.47,55.993,37.073,56.23,36.603,57.362z"/>
		<path style="clip-path:url(#SVGID_2_);fill:#118F8D;" d="M37.487,54.533c-0.195,0.062-0.424,0.109-0.629,0.108
			c-0.25-0.002-0.47-0.06-0.699-0.159c-0.062-0.025-0.106-0.062-0.175-0.056c0.198,0.247,0.427,0.34,0.691,0.51
			c0.213,0.137,0.452,0.223,0.66,0.36c0.167,0.109,0.287,0.182,0.494,0.111c0.218-0.074,0.309-0.328,0.408-0.517
			c0.188-0.352,0.453-0.786,0.477-1.195c-0.147,0.115-0.244,0.288-0.395,0.409C38.076,54.304,37.786,54.44,37.487,54.533z"/>
		<path style="opacity:0.5;clip-path:url(#SVGID_2_);fill:#D9A78A;" d="M21.412,31.564c-1.766-0.18-3.237,1.141-2.715,5.26
			c0.523,4.117,4.356,3.615,4.356,3.615S23.175,31.745,21.412,31.564z"/>
		<path style="clip-path:url(#SVGID_2_);fill:#4F2315;" d="M37.33,10.047c-11.999,0.951-17.409,10.353-20.607,17.982
			c-7.454,8.813-4.795,24.55,11.338,19.223c4.095-1.353,1.743-6.55,8.333-7.032c4.151-0.304,5.026,4.517,6.459,5.496
			c9.268,6.337,17.297-7.802,7.267-19.646C42.055,24.118,47.158,12.237,37.33,10.047z"/>
		<path style="clip-path:url(#SVGID_2_);fill:#FFF3E2;" d="M46.078,39.074c-1.451,0.12-2.502,1.569-2.344,3.235
			c0.158,1.669,1.464,2.923,2.917,2.803c1.452-0.12,2.503-1.569,2.345-3.236C48.837,40.208,47.532,38.955,46.078,39.074z
			 M46.562,44.059c-1.055,0.086-2.001-0.822-2.115-2.033c-0.114-1.209,0.646-2.262,1.702-2.349c1.053-0.086,2.001,0.824,2.115,2.033
			C48.377,42.92,47.616,43.971,46.562,44.059z"/>
		<path style="clip-path:url(#SVGID_2_);fill:#FFCB9E;" d="M34.841,17.667c-10.006,0.31-13.292,6.903-13.035,16.767
			c0.257,9.864,7.336,16.365,14.724,16.801c5.671,0.336,12.828-8.488,12.246-18.338C48.201,23.175,44.458,17.369,34.841,17.667z"/>
		<path style="clip-path:url(#SVGID_2_);fill:#2F1F1D;" d="M27.969,31.404c-2.06-0.773-3.112,3.021-1.676,4.146
			c0.628-0.234,1.387-0.211,2.001,0.052C29.599,34.789,29.501,31.981,27.969,31.404z"/>
		<path style="clip-path:url(#SVGID_2_);fill:#7D422B;" d="M27.689,26.807c-0.874,0.149-1.838,0.73-2.313,2.049
			c2.526-2.104,4.183-0.869,5.102-0.503C29.959,27.396,28.919,26.598,27.689,26.807z"/>
		<path style="clip-path:url(#SVGID_2_);fill:#B08468;" d="M28.122,32.594c-0.854,0.131-0.533,1.875,0.354,1.435
			C29.119,33.709,28.881,32.48,28.122,32.594z"/>
		<path style="clip-path:url(#SVGID_2_);fill:#4F2315;" d="M46.174,18.158c-2.097-2.447-5.142-3.717-8.113-4.779
			c-2.199-0.788-4.497-1.055-6.811-0.604c-5.825,1.136-9.429,6.731-10.363,12.256c-0.294,1.739-1.904,7.825,0.385,10.715
			c0.528-3.116,1.38-4.855,8.372-6.886c7.438-2.158,10.866-7.525,11.85-9.141c0.2,4.301,7.16,5.967,7.217,12.247
			c0.036-1.566,1.106-4.281,0.843-5.861C49.08,23.257,48.074,20.375,46.174,18.158z"/>
		<path style="clip-path:url(#SVGID_2_);fill:#FFAC88;" d="M47.245,37.504c-0.4-0.75-1.409-0.957-2.143-1.009
			c-0.954-0.068-2.266,0.214-1.568,1.688c0.373,0.787,4.121,1.58,3.866-0.194C47.375,37.807,47.321,37.645,47.245,37.504z"/>
		<path style="clip-path:url(#SVGID_2_);fill:#FFAC88;" d="M28.907,37.379c-0.565-0.778-1.711-0.783-2.527-0.674
			c-1.063,0.141-2.455,0.771-1.438,2.32c0.544,0.825,4.801,0.879,4.22-1.121C29.102,37.698,29.015,37.524,28.907,37.379z"/>
		<path style="opacity:0.6;clip-path:url(#SVGID_2_);fill:#F04D4D;" d="M36.646,40.634c-2.799,0.053-6.914,0.849-9.103-0.445
			c3.59,6.167,5.841,7.323,8.708,7.543c3.592,0.274,4.855-2.217,5.426-4.09c0.242-0.793,2.091-2.813,2.802-3.27
			C42.232,40.889,40.028,40.568,36.646,40.634z"/>
		<path style="clip-path:url(#SVGID_2_);fill:#8F312D;" d="M29.223,41.277c0,0,2.152,4.146,6.624,4.3
			c2.865,0.1,4.766-0.842,5.318-2.229c0.604-1.519,1.833-2.053,1.833-2.053C35.166,43.159,29.223,41.277,29.223,41.277z"/>
		<path style="clip-path:url(#SVGID_2_);fill:#FFF9F0;" d="M30.878,41.668c0,0,0.118,1.245,1.703,1.747
			c2.032,0.646,4.231,0.715,6.506,0.384c1.533-0.224,2.313-2.167,2.313-2.167S37.014,42.646,30.878,41.668z"/>
		<path style="clip-path:url(#SVGID_2_);fill:#FFF9F0;" d="M37.009,43.933c-2.049,0.048-3.746-0.118-4.761-0.812
			c-0.723-0.495-0.798,0.025-0.646,0.353c0,0,0.637,1.713,4.026,2.155c3.259,0.424,4.98-1.589,4.612-1.947
			C39.873,43.322,38.906,43.887,37.009,43.933z"/>
		<path style="clip-path:url(#SVGID_2_);fill:#E8DAC5;" d="M30.878,41.668c0,0,0.107,0.578,0.394,0.882c0,0,7.665-0.563,9.485,0.159
			c0,0,0.55-0.679,0.644-1.077C41.4,41.632,36.036,42.574,30.878,41.668z"/>
		<path style="clip-path:url(#SVGID_2_);fill:#E8DAC5;" d="M32.854,43.381c2.72,1.74,6.028,0.353,6.028,0.353
			C35.413,44.497,32.854,43.381,32.854,43.381z"/>
		<path style="opacity:0.3;clip-path:url(#SVGID_2_);fill:#B54D26;" d="M37.17,36.925c-0.644-0.012-0.897-0.291-1.35-0.058
			c-0.452,0.234,0.514,1.138,1.31,1.097c0.901-0.047,1.649-0.765,1.414-1.04C38.272,36.604,37.883,36.938,37.17,36.925z"/>
		<path style="clip-path:url(#SVGID_2_);fill:#2F1F1D;" d="M46.096,31.444c-2.068-1.318-3.885,3.518-1.585,4.211
			c0.556-0.38,1.223-0.382,1.815-0.29C47.115,34.336,47.204,32.152,46.096,31.444z"/>
		<path style="clip-path:url(#SVGID_2_);fill:#B08468;" d="M45.991,32.513c-0.816,0.021-0.698,1.834,0.184,1.503
			C46.813,33.775,46.716,32.497,45.991,32.513z"/>
		<path style="clip-path:url(#SVGID_2_);fill:#121B21;" d="M46.154,31.343c-1.896-0.729-2.517,1.518-2.517,1.518
			s0.919-1.133,2.209-0.414c2.929,1.632,4.813-0.353,4.813-0.353C48.34,32.873,47.17,31.733,46.154,31.343z"/>
		<path style="clip-path:url(#SVGID_2_);fill:#121B21;" d="M26.59,31.508c-0.758,0.385-2.516,1.539-4.851,0.86
			c0,0,2.226,1.932,5.046,0.184c1.236-0.766,2.297,0.177,2.297,0.177S28.565,30.502,26.59,31.508z"/>
		<path style="clip-path:url(#SVGID_2_);fill:#783F29;" d="M45.953,27.056c-1.224-0.242-2.285,0.529-2.828,1.472
			c0.928-0.341,2.616-1.532,5.086,0.639C47.771,27.835,46.822,27.228,45.953,27.056z"/>
		<path style="clip-path:url(#SVGID_2_);fill:#FFCB9E;" d="M20.224,31.541c-2.661,1.188-1.588,6.687,0.588,7.688
			c0.698,0.321,1.438,0.332,2.151,0.223c0.013-0.032,0.026-0.064,0.043-0.096c0.316-0.739-0.257-4.408-0.421-5.162
			C22.174,32.295,21.5,30.972,20.224,31.541z"/>
		<path style="clip-path:url(#SVGID_2_);fill:#FFF3E2;" d="M22.182,39.611c-1.457,0.012-2.611,1.381-2.575,3.054
			c0.033,1.675,1.243,3.022,2.701,3.01c1.457-0.013,2.611-1.38,2.576-3.054C24.85,40.946,23.64,39.6,22.182,39.611z M22.297,44.616
			c-1.059,0.01-1.936-0.968-1.96-2.183c-0.026-1.214,0.813-2.206,1.869-2.215c1.059-0.01,1.935,0.969,1.96,2.182
			C24.191,43.616,23.354,44.608,22.297,44.616z"/>
		<path style="opacity:0.3;clip-path:url(#SVGID_2_);fill:#B54D26;" d="M21.076,33.379c-0.54-0.292-1.685,0.591-0.905,2.088
			c0.119-1.529,0.785-0.652,0.834,0.411c0.033,0.713-0.423,0.8,0.146,1.629c0.308,0.446,0.781,0.183,0.999-0.123
			C22.841,36.418,21.733,33.736,21.076,33.379z"/>
		<path style="opacity:0.2;clip-path:url(#SVGID_2_);fill:#5E0900;" d="M44.158,17.719c-2.048-1.279-4.611-1.184-6.884-0.726
			c-2.105,0.424-3.558,1.347-5.441,2.236c-2.952,1.394-6.196,1.54-9.229,2.654c-1.235,0.453-6.597,6.57-4.521,6.961
			c0.974,0.184,2.467-0.845,3.26-1.338c0.884,1.567,3.36,3.86,5.27,3.816c2.174-0.05,4.463-1.563,6.563-2.142
			c1.379-0.38,2.827-0.636,4.276-0.797c3.297-0.363,6.697,0.321,9.991,0.666c1.383,0.146,3.783,1.367,4.428-0.402
			c1.021-2.805-1.948-5.42-3.322-7.429C47.34,19.453,46.022,18.883,44.158,17.719z"/>
		<path style="clip-path:url(#SVGID_2_);fill:#118F8D;" d="M29.807,7.153C17.858,9.417,16.438,21.648,15.819,26.249
			c-0.449,3.331,3.532,1.347,6.165-0.407c0.288-0.192,0.58-0.368,0.872-0.531c5.81-3.213,12.146-2.525,18.423-2.957
			c2.109-0.145,4.55-0.517,7.232,0.009C50.816,22.813,47.744,3.756,29.807,7.153z"/>
		<path style="clip-path:url(#SVGID_2_);fill:#19B2AC;" d="M41.903,9.582c-3.078-2.005-5.884-2.637-9.472-2.379
			c-4.01,0.288-7.905,1.913-9.587,3.587c-0.494,1.615-0.848,6.104,0.538,10.827c0.553,1.884,1.386,0.475,4.058-0.583
			c7.563-2.994,12.782-2.48,18.751-1.214c1.013,0.216,2.221,0.629,2.103-0.354c-0.266-2.255-1.702-5.468-4.076-7.945
			C43.501,10.775,42.721,10.116,41.903,9.582z"/>
		<path style="clip-path:url(#SVGID_2_);fill:#38E0D5;" d="M29.815,11.973c-2.75,1.328-1.479,6.272,1.441,5.547
			c2.322-0.574,4.65-1.117,8.224-0.694c1.435,0.17,4.951,1.39,4.571-1.599C43.354,9.744,32.898,10.482,29.815,11.973z"/>
		<path style="clip-path:url(#SVGID_2_);fill:#38E0D5;" d="M30.84,18.504l-0.266,0.071c-0.18,0.05-0.359,0.077-0.534,0.079
			c-0.121,0.003-0.218,0.109-0.218,0.238c0,0.121,0.087,0.219,0.197,0.229c0.007,0.002,0.015,0.002,0.022,0.002
			c0.207-0.005,0.423-0.035,0.636-0.095l0.265-0.071c0.117-0.032,0.189-0.158,0.162-0.284C31.075,18.548,30.958,18.472,30.84,18.504
			z"/>
		<path style="clip-path:url(#SVGID_2_);fill:#38E0D5;" d="M31.175,9.976c-0.297,0.065-0.584,0.138-0.855,0.216
			c-0.117,0.033-0.188,0.162-0.158,0.287c0.022,0.097,0.102,0.165,0.191,0.174c0.024,0.002,0.048,0,0.074-0.008
			c0.263-0.075,0.544-0.146,0.832-0.209c0.118-0.027,0.195-0.15,0.173-0.277C31.408,10.03,31.294,9.949,31.175,9.976z"/>
		<path style="clip-path:url(#SVGID_2_);fill:#38E0D5;" d="M29.473,10.468c-0.307,0.114-0.586,0.236-0.827,0.362l-0.021,0.01
			c-0.107,0.059-0.145,0.193-0.093,0.309c0.034,0.076,0.104,0.12,0.179,0.127c0.041,0.003,0.083-0.005,0.121-0.024
			c0.228-0.118,0.489-0.234,0.78-0.342c0.114-0.043,0.176-0.177,0.139-0.298C29.711,10.488,29.588,10.425,29.473,10.468z"/>
		<path style="clip-path:url(#SVGID_2_);fill:#38E0D5;" d="M34.247,17.713c-0.281,0.045-0.571,0.1-0.861,0.16
			c-0.119,0.023-0.199,0.146-0.177,0.273c0.017,0.106,0.1,0.181,0.194,0.19c0.019,0.001,0.039,0,0.059-0.005
			c0.286-0.059,0.57-0.111,0.846-0.156c0.119-0.02,0.203-0.139,0.186-0.267C34.477,17.781,34.366,17.693,34.247,17.713z"/>
		<path style="clip-path:url(#SVGID_2_);fill:#38E0D5;" d="M32.904,9.681c-0.29,0.036-0.582,0.079-0.866,0.127
			c-0.12,0.021-0.203,0.141-0.185,0.268c0.015,0.109,0.098,0.189,0.194,0.198c0.018,0.002,0.035,0,0.053-0.003
			c0.278-0.048,0.565-0.089,0.85-0.125c0.12-0.015,0.208-0.13,0.195-0.259S33.025,9.664,32.904,9.681z"/>
		<path style="clip-path:url(#SVGID_2_);fill:#38E0D5;" d="M32.53,18.063c-0.284,0.069-0.564,0.141-0.849,0.215
			c-0.117,0.03-0.19,0.157-0.162,0.284c0.021,0.1,0.101,0.168,0.192,0.177c0.022,0.002,0.046,0.001,0.071-0.007
			c0.278-0.072,0.557-0.144,0.838-0.211c0.117-0.028,0.193-0.153,0.168-0.279C32.764,18.115,32.648,18.036,32.53,18.063z"/>
		<path style="clip-path:url(#SVGID_2_);fill:#38E0D5;" d="M28.601,18.086c-0.093-0.082-0.23-0.066-0.309,0.033
			c-0.077,0.1-0.065,0.247,0.026,0.33c0.248,0.221,0.517,0.39,0.8,0.503c0.019,0.008,0.037,0.013,0.057,0.015
			c0.096,0.009,0.189-0.051,0.224-0.152c0.046-0.122-0.011-0.256-0.124-0.302C29.038,18.419,28.813,18.274,28.601,18.086z"/>
		<path style="clip-path:url(#SVGID_2_);fill:#38E0D5;" d="M26.982,14.322c0.002,0,0.004,0,0.006,0
			c0.12,0.01,0.225-0.09,0.233-0.219c0.001-0.032,0.005-0.064,0.007-0.097c0.025-0.269,0.069-0.526,0.134-0.771
			c0.032-0.125-0.036-0.254-0.151-0.287c-0.116-0.034-0.237,0.041-0.27,0.166c-0.072,0.271-0.12,0.558-0.146,0.852
			c-0.004,0.036-0.006,0.071-0.009,0.108C26.777,14.203,26.864,14.312,26.982,14.322z"/>
		<path style="clip-path:url(#SVGID_2_);fill:#38E0D5;" d="M44.289,14.061c0.106,0.266,0.191,0.547,0.253,0.836
			c0.021,0.102,0.101,0.171,0.192,0.178c0.023,0.003,0.046,0.002,0.069-0.005c0.118-0.03,0.192-0.156,0.164-0.283
			c-0.067-0.316-0.159-0.625-0.276-0.915c-0.047-0.118-0.175-0.172-0.287-0.12C44.293,13.804,44.242,13.942,44.289,14.061z"/>
		<path style="clip-path:url(#SVGID_2_);fill:#38E0D5;" d="M27.376,15.862c-0.069-0.286-0.117-0.579-0.145-0.873
			c-0.01-0.128-0.118-0.221-0.238-0.207c-0.12,0.013-0.208,0.129-0.197,0.258c0.029,0.318,0.081,0.637,0.158,0.945
			c0.022,0.1,0.102,0.164,0.19,0.172c0.024,0.003,0.05,0,0.075-0.007C27.337,16.116,27.406,15.987,27.376,15.862z"/>
		<path style="clip-path:url(#SVGID_2_);fill:#38E0D5;" d="M27.651,16.695c-0.05-0.117-0.18-0.169-0.289-0.114
			c-0.11,0.056-0.16,0.194-0.11,0.313c0.129,0.303,0.278,0.584,0.449,0.837c0.038,0.057,0.095,0.089,0.156,0.096
			c0.05,0.003,0.103-0.01,0.148-0.045c0.099-0.077,0.121-0.223,0.051-0.326C27.902,17.226,27.768,16.972,27.651,16.695z"/>
		<path style="clip-path:url(#SVGID_2_);fill:#38E0D5;" d="M34.648,9.538c-0.291,0.012-0.584,0.03-0.873,0.053
			c-0.12,0.01-0.212,0.122-0.204,0.252c0.008,0.116,0.091,0.206,0.197,0.215c0.011,0.002,0.023,0.002,0.035,0
			c0.282-0.021,0.57-0.039,0.854-0.051c0.121-0.004,0.218-0.112,0.214-0.242S34.769,9.534,34.648,9.538z"/>
		<path style="clip-path:url(#SVGID_2_);fill:#38E0D5;" d="M27.861,11.415c-0.221,0.226-0.412,0.491-0.569,0.788
			c-0.061,0.113-0.023,0.256,0.081,0.319c0.027,0.017,0.058,0.025,0.088,0.028c0.082,0.008,0.167-0.037,0.211-0.121
			c0.135-0.256,0.301-0.484,0.488-0.679c0.09-0.091,0.094-0.238,0.01-0.332C28.087,11.327,27.948,11.323,27.861,11.415z"/>
		<path style="clip-path:url(#SVGID_2_);fill:#38E0D5;" d="M39.852,10.076c-0.273-0.077-0.562-0.147-0.854-0.209
			c-0.12-0.024-0.233,0.059-0.26,0.186c-0.023,0.127,0.052,0.25,0.17,0.275c0.284,0.059,0.563,0.127,0.828,0.202
			c0.012,0.003,0.023,0.004,0.036,0.006c0.104,0.009,0.203-0.063,0.232-0.173C40.036,10.236,39.968,10.109,39.852,10.076z"/>
		<path style="clip-path:url(#SVGID_2_);fill:#38E0D5;" d="M42.298,11.119c-0.104-0.064-0.237-0.025-0.3,0.087
			c-0.062,0.111-0.027,0.256,0.077,0.319c0.246,0.152,0.479,0.318,0.692,0.492c0.033,0.028,0.073,0.043,0.113,0.048
			c0.072,0.006,0.146-0.025,0.193-0.093c0.074-0.103,0.057-0.25-0.038-0.327C42.809,11.459,42.56,11.281,42.298,11.119z"/>
		<path style="clip-path:url(#SVGID_2_);fill:#38E0D5;" d="M40.691,10.346c-0.114-0.041-0.238,0.025-0.278,0.147
			c-0.041,0.122,0.019,0.256,0.133,0.297c0.271,0.101,0.534,0.212,0.782,0.329c0.023,0.011,0.048,0.018,0.071,0.019
			c0.091,0.009,0.18-0.044,0.219-0.138c0.051-0.118,0.003-0.257-0.107-0.31C41.251,10.567,40.977,10.451,40.691,10.346z"/>
		<path style="clip-path:url(#SVGID_2_);fill:#38E0D5;" d="M42.871,17.943c-0.247,0.017-0.521,0.013-0.834-0.014
			c-0.12-0.011-0.228,0.085-0.238,0.215c-0.011,0.129,0.077,0.24,0.197,0.252l0,0c0.335,0.027,0.628,0.033,0.896,0.016
			c0.12-0.008,0.213-0.118,0.208-0.248C43.093,18.035,42.993,17.938,42.871,17.943z"/>
		<path style="clip-path:url(#SVGID_2_);fill:#38E0D5;" d="M44.061,13.392c0.048,0.005,0.098-0.009,0.141-0.04
			c0.101-0.072,0.128-0.219,0.063-0.324c-0.164-0.263-0.354-0.514-0.563-0.747c-0.083-0.092-0.222-0.096-0.309-0.005
			s-0.091,0.238-0.008,0.332c0.191,0.215,0.364,0.444,0.514,0.684C43.937,13.352,43.997,13.387,44.061,13.392z"/>
		<path style="clip-path:url(#SVGID_2_);fill:#38E0D5;" d="M44.284,17.354c-0.156,0.193-0.361,0.336-0.625,0.436
			c-0.114,0.044-0.176,0.178-0.136,0.299c0.028,0.09,0.103,0.148,0.187,0.155c0.029,0.003,0.061-0.001,0.091-0.013
			c0.333-0.126,0.605-0.318,0.811-0.571c0.08-0.098,0.072-0.246-0.019-0.331C44.503,17.245,44.364,17.255,44.284,17.354z"/>
		<path style="clip-path:url(#SVGID_2_);fill:#38E0D5;" d="M44.865,15.522c-0.12,0.009-0.213,0.121-0.207,0.25
			c0.011,0.196,0.008,0.383-0.007,0.55c-0.01,0.109-0.024,0.212-0.045,0.308c-0.025,0.127,0.048,0.251,0.167,0.277
			c0.008,0.002,0.018,0.004,0.027,0.005c0.107,0.009,0.21-0.069,0.232-0.186c0.025-0.113,0.043-0.237,0.054-0.365
			c0.018-0.192,0.021-0.401,0.008-0.621C45.088,15.611,44.986,15.513,44.865,15.522z"/>
		<path style="clip-path:url(#SVGID_2_);fill:#38E0D5;" d="M36.395,9.546c-0.288-0.016-0.582-0.021-0.873-0.022
			c-0.121-0.001-0.221,0.104-0.223,0.233C35.298,9.88,35.384,9.98,35.496,9.99c0.006,0.001,0.012,0.001,0.018,0.001
			c0.287,0.001,0.573,0.009,0.856,0.021c0.12,0.008,0.224-0.094,0.23-0.222C36.607,9.66,36.514,9.548,36.395,9.546z"/>
		<path style="clip-path:url(#SVGID_2_);fill:#38E0D5;" d="M37.731,17.476c-0.295-0.007-0.589-0.008-0.873-0.001
			c-0.121,0.002-0.218,0.108-0.216,0.237c0,0.122,0.086,0.22,0.197,0.229c0.007,0.001,0.015,0.002,0.022,0.001
			c0.278-0.004,0.566-0.004,0.854,0.002c0.122,0.004,0.223-0.1,0.228-0.229C37.947,17.585,37.851,17.477,37.731,17.476z"/>
		<path style="clip-path:url(#SVGID_2_);fill:#38E0D5;" d="M35.985,17.512c-0.29,0.02-0.583,0.047-0.872,0.08
			c-0.119,0.014-0.208,0.129-0.196,0.259c0.01,0.112,0.094,0.198,0.196,0.208c0.014,0.001,0.028,0.001,0.042-0.001
			c0.282-0.032,0.569-0.059,0.853-0.078c0.119-0.008,0.213-0.119,0.207-0.249C36.208,17.603,36.108,17.505,35.985,17.512z"/>
		<path style="clip-path:url(#SVGID_2_);fill:#38E0D5;" d="M39.471,17.583c-0.299-0.029-0.587-0.053-0.867-0.07
			c-0.121-0.007-0.226,0.092-0.234,0.221c-0.009,0.127,0.079,0.236,0.197,0.247c0.002,0,0.004,0,0.006,0.001
			c0.275,0.018,0.561,0.04,0.854,0.069c0,0,0.001,0,0.002,0c0.119,0.011,0.226-0.084,0.238-0.213
			C39.679,17.71,39.592,17.595,39.471,17.583z"/>
		<path style="clip-path:url(#SVGID_2_);fill:#38E0D5;" d="M38.135,9.713c-0.283-0.042-0.575-0.078-0.868-0.105
			c-0.001,0-0.001,0-0.001,0c-0.12-0.011-0.227,0.084-0.239,0.213c-0.012,0.128,0.076,0.242,0.196,0.254
			c0.285,0.026,0.57,0.063,0.847,0.103c0.005,0.001,0.009,0.003,0.012,0.003c0.115,0.009,0.219-0.079,0.236-0.202
			C38.337,9.849,38.254,9.73,38.135,9.713z"/>
		<path style="clip-path:url(#SVGID_2_);fill:#38E0D5;" d="M41.193,17.825c-0.147-0.023-0.292-0.047-0.431-0.069
			c-0.147-0.025-0.289-0.049-0.424-0.069c-0.116-0.018-0.23,0.071-0.249,0.2c-0.018,0.128,0.063,0.246,0.183,0.265
			c0.133,0.021,0.273,0.044,0.419,0.067c0.141,0.023,0.286,0.047,0.435,0.069c0.004,0.001,0.009,0.001,0.013,0.001
			c0.114,0.012,0.219-0.076,0.237-0.199C41.394,17.961,41.313,17.842,41.193,17.825z"/>
		<path style="clip-path:url(#SVGID_2_);fill:#118F8D;" d="M49.116,21.641c-2.228-2.882-20.379-3.465-28.011,4.412
			c2.964,2.443,3.038,4.993,7.242,3.651c3.354-1.07,6.662-2.293,10.146-2.457c6.354-0.3,12.276,0.517,15.128,3.355
			c2.563,0.805,0.833-1.562,0.203-2.476C52.105,25.628,50.748,23.75,49.116,21.641z"/>
		<path style="clip-path:url(#SVGID_2_);fill:#1DC2B7;" d="M48.873,21.722c-2.178-2.815-19.644-4.01-27.101,3.689
			c3.698,3.051,3.24,4.015,8.517,2.331c5.811-1.854,18.316-3.205,22.991,1.449c1.67,1.412,1.472,0.411,0.194-1.129
			C51.595,25.795,50.467,23.783,48.873,21.722z"/>
		<path style="clip-path:url(#SVGID_2_);fill:#19B2AC;" d="M19.853,24.883c-1.134,0.909-2.205,1.253-3.002,0.884
			c-0.799-0.367-0.581,0.306-0.634,0.895c-0.053,0.59,0.839,1.145,2.977,0.147c2.139-0.998,4.078-3.499,4.078-3.499
			c-0.407-1.007-0.512-1.71-0.512-1.71S20.985,23.975,19.853,24.883z"/>
		<path style="clip-path:url(#SVGID_2_);fill:#5CE6DC;" d="M35.663,26.307c-4.495,0.611-7.183,2.106-9.325,1.838
			c-1.72-0.215-3.913-2.181-3.913-2.181s1.918,2.575,3.659,2.93c2.278,0.464,3.499-1.129,9.682-2.194
			c6.181-1.067,11.348-0.268,11.348-0.268S41.936,25.455,35.663,26.307z"/>
		<path style="clip-path:url(#SVGID_2_);fill:#169E99;" d="M31.159,25.937c-4.115,0.972-5.616,1.099-7.696-0.86
			c0,0,1.003,2.305,2.849,2.373c2.578,0.093,4.665-1.469,12.157-2.2C38.469,25.249,35.272,24.964,31.159,25.937z"/>
		<path style="clip-path:url(#SVGID_2_);fill:#169E99;" d="M43.43,25.121c0,0,6.298,0.414,9.004,2.444l-0.522-0.809
			C51.911,26.757,47.717,24.784,43.43,25.121z"/>
	</g>
</g>
<g id="Layer_1">
</g>
</svg>
