<?xml version="1.0" encoding="iso-8859-1"?>
<!-- Generator: Adobe Illustrator 16.0.0, SVG Export Plug-In . SVG Version: 6.00 Build 0)  -->
<!DOCTYPE svg PUBLIC "-//W3C//DTD SVG 1.1//EN" "http://www.w3.org/Graphics/SVG/1.1/DTD/svg11.dtd">
<svg version="1.1" xmlns="http://www.w3.org/2000/svg" xmlns:xlink="http://www.w3.org/1999/xlink" x="0px" y="0px" width="66px"
	 height="66px" viewBox="0 0 66 66" style="enable-background:new 0 0 66 66;" xml:space="preserve">
<g id="Layer_95">
	<g>
		<defs>
			<circle id="SVGID_1_" cx="33" cy="33" r="33"/>
		</defs>
		<clipPath id="SVGID_2_">
			<use xlink:href="#SVGID_1_"  style="overflow:visible;"/>
		</clipPath>
		<rect style="clip-path:url(#SVGID_2_);fill:#FFFFFF;" width="65.999" height="65.999"/>
		<path style="clip-path:url(#SVGID_2_);fill:#918FA0;" d="M44.794,53.936c-2.21-5.059-15.979-5.591-20.068-0.15
			c-1.911,2.542-1.27,7.799-0.222,12.214h20.317C45.618,61.879,46.112,56.954,44.794,53.936z"/>
		<path style="clip-path:url(#SVGID_2_);fill:#1F1F26;" d="M36.186,59.205l0.956-2.013c0,0-0.738-1.692-2.892-1.287
			c-1.923,0.36-2.203,2.015-2.203,2.015l1.588,1.61l-1.718,5.803l0.438,0.666h5.582l0.431-0.939L36.186,59.205z"/>
		<path style="clip-path:url(#SVGID_2_);fill:#918FA0;" d="M25.522,58.525l0.791-6.261c0,0-7.554,3.563-7.176,13.734h4.487
			C23.817,61.401,25.522,58.525,25.522,58.525z"/>
		<path style="clip-path:url(#SVGID_2_);fill:#918FA0;" d="M43.148,52.265l0.791,6.261c0,0,1.706,2.876,1.898,7.474h4.487
			C50.702,55.828,43.148,52.265,43.148,52.265z"/>
		<path style="opacity:0.2;clip-path:url(#SVGID_2_);" d="M27.52,54.05c0.91,3.884,4.219,5.753,4.219,5.753l2.993-3.126l3.185,2.958
			c3.045-2.954,3.713-3.548,3.946-6.111C42.097,50.96,26.684,50.483,27.52,54.05z"/>
		<path style="clip-path:url(#SVGID_2_);fill:#A7A5B2;" d="M27.602,51.336c-1.485,4.157,3.913,7.541,3.913,7.541l3.217-2.2
			l3.003,2.068c0,0,5.938-3.378,3.689-8.227C39.402,46.159,29.323,46.511,27.602,51.336z"/>
		<path style="clip-path:url(#SVGID_2_);fill:#F7B07C;" d="M32.332,46.374c-1.976,0.434-3.288,2.31-3.424,4.244
			c-0.106,1.497,0.134,2.366,0.97,3.197c0.604,0.601,1.594,1.193,2.615,1.506c0.728,0.223,2.003,1.077,2.229,1.083
			c0.091,0.001,0.513-0.367,1.199-0.721c1.005-0.518,2.43-1.203,2.983-2.288c0.809-1.585,1.532-4.726,0-5.957
			C37.318,46.162,34.228,45.957,32.332,46.374z"/>
		<path style="clip-path:url(#SVGID_2_);fill:#C9BEB7;" d="M51.196,19.21c-0.604,0.405-1.445,0.713-1.961,0.555
			c1.17-0.738,1.688-1.665,1.652-3.351c-3.121-2.493-10.541-7.521-18.854-7.94c-5.11-0.257-10.438,1.061-13.255,5.669
			c-0.671,1.097-1.065,1.954-1.369,3.206c-0.466-0.935-0.875-1.477-0.83-2.54c-1.077,1.189-0.884,3.164-0.037,4.169
			c-0.941-0.049-1.983,0.486-2.636,1.121c0.611,0.01,1.621,0.018,2.124,0.316c-0.708,0.946-0.832,2.376-0.832,3.504
			c0.001,1.882,0.186,4.631,0.734,6.749c0.554,2.126,1.33,7.34,4.556,6.681c4.431-0.905,9.264-3.335,13.825-1.616
			c3.181,1.198,6.066,3.176,9.295,4.363c2.873,1.059,5.675,3.833,6.478-0.102c0.624-3.053,0.757-6.218,0.26-9.298
			c-0.403-2.498-0.841-5.564-2.172-7.745C49.005,22.686,51.008,21.573,51.196,19.21z"/>
		<path style="clip-path:url(#SVGID_2_);fill:#FFC490;" d="M32.948,16.012c-8.399,0.563-15.623,9.793-14.936,20.014
			c0.689,10.219,7.645,17.086,17.429,16.994c10.828-0.102,14.991-9.014,14.303-19.235C49.057,23.565,41.348,15.445,32.948,16.012z"
			/>
		<path style="opacity:0.3;clip-path:url(#SVGID_2_);fill:#BC551E;" d="M48.114,32.785c-0.359-0.188-2.926-0.502-2.292,0.459
			c0.149,0.228,1.588,0.899,1.86,0.952c0.458,0.087,0.543-0.082,0.221-0.405c-0.304-0.305-1.19-0.446-1.399-0.856
			C46.868,32.896,47.935,33.36,48.114,32.785z"/>
		<path style="opacity:0.3;clip-path:url(#SVGID_2_);fill:#BC551E;" d="M26.026,34.608c0.224,0.561,1.25,0.015,1.617,0.026
			c-0.178,0.423-1.051,0.634-1.33,0.96c-0.297,0.348-0.198,0.509,0.25,0.386c0.27-0.071,1.651-0.851,1.784-1.09
			C28.904,33.885,26.37,34.395,26.026,34.608z"/>
		<path style="clip-path:url(#SVGID_2_);fill:#1F1A17;" d="M29.803,31.595c-1.875-0.821-3.077,2.507-1.802,3.604
			c0.6-0.171,1.306-0.103,1.862,0.171C31.128,34.725,31.2,32.207,29.803,31.595z"/>
		<path style="opacity:0.4;clip-path:url(#SVGID_2_);fill:#BC551E;" d="M37.79,36.23c-1.049,0.05-1.488-0.372-2.202,0.054
			c-0.714,0.424,0.288,2.02,2.143,1.893c1.848-0.127,2.709-1.673,2.3-2.093C39.555,35.597,38.954,36.176,37.79,36.23z"/>
		<path style="clip-path:url(#SVGID_2_);fill:#FFD1A7;" d="M36.852,30.603c-0.953,0.074-1.582,1.426-1.707,3.161
			c-0.129,1.805-0.064,2.555,0.396,2.895c1.183,0.872,3.368,0.681,4.392-0.362C41.236,34.963,39.127,30.429,36.852,30.603z"/>
		<path style="clip-path:url(#SVGID_2_);fill:#1F1A17;" d="M45.545,30.466c-2-0.876-3.18,3.311-1.021,3.656
			c0.446-0.382,1.046-0.616,1.597-0.599C46.761,32.611,46.617,30.937,45.545,30.466z"/>
		<path style="clip-path:url(#SVGID_2_);fill:#A88888;" d="M28.838,32.28c-0.764,0.253-0.192,1.74,0.555,1.205
			C29.933,33.1,29.518,32.054,28.838,32.28z"/>
		<path style="clip-path:url(#SVGID_2_);fill:#A88888;" d="M44.632,31.234c-0.714,0.238-0.181,1.625,0.517,1.126
			C45.652,32,45.266,31.024,44.632,31.234z"/>
		<path style="clip-path:url(#SVGID_2_);fill:#FFC490;" d="M16.563,33.635c-4.166,1.039-2.644,6.261,0.712,7.273
			c1.075,0.326,2.224,0.359,3.336,0.277c0.021-0.029,0.043-0.059,0.068-0.09c0.513-0.687-0.281-4.166-0.517-4.883
			C19.573,34.407,18.562,33.136,16.563,33.635z"/>
		<path style="opacity:0.3;clip-path:url(#SVGID_2_);fill:#BC551E;" d="M29.365,20.884c-3.24,0.322-7.381,1.723-8.14,5.35
			c-0.273,1.301-0.631,2.851-0.709,4.296c-0.024,0.467-0.021,0.923,0.024,1.355c0.058,0.535,1.216,5.793,1.247,5.247
			c0.477-8.173,2.438-10.883,2.853-12.07c9.789,1.435,14.837,1.006,18.406,0.594c1.382-0.158,4.73-0.493,3.062-2.617
			C45.005,21.633,33.968,20.425,29.365,20.884z"/>
		<path style="opacity:0.3;clip-path:url(#SVGID_2_);fill:#BC551E;" d="M18.755,35.589c-1.062-0.511-3.94-0.17-2.865,1.581
			c0.905-1.394,1.995-0.276,1.652,0.749c-0.229,0.689-1.264,0.574-0.368,1.603c0.484,0.555,1.636,0.51,2.242,0.316
			C21.341,39.225,20.047,36.209,18.755,35.589z"/>
		<path style="clip-path:url(#SVGID_2_);fill:#C9BEB7;" d="M42.038,15.425c-4.65-2.157-11.825-2.787-16.839-0.256
			c-1.558,0.787-2.906,1.878-3.905,3.324c-2.178,3.148-4.933,8.33-3.809,12.149c0.254,0.856,0.113,2.07,0.421,2.937
			c0.752,2.115,1.901,10.365,3.718,10.405c0.679,0.014,2.624,0.462,2.293-0.154c-2.915-5.44-2.176-15.015,0.248-19.529
			c15.029,1.829,23.588-0.248,23.022-3.623C46.793,18.354,44.036,16.353,42.038,15.425z"/>
		<path style="clip-path:url(#SVGID_2_);fill:#FAB27B;" d="M30.656,36.779c-1.019-0.795-2.567-0.495-3.635-0.143
			c-1.391,0.458-3.069,1.601-1.189,3.216c1.001,0.861,6.773-0.217,5.339-2.5C31.021,37.117,30.849,36.929,30.656,36.779z"/>
		<path style="clip-path:url(#SVGID_2_);fill:#FAB27B;" d="M45.448,35.005c-0.648,0.158-1.215,0.517-1.566,0.954
			c-0.588,0.733-0.57,1.688,0.689,2.294c1.215,0.586,3.835,0.705,4.467-0.888C49.903,35.19,46.844,34.663,45.448,35.005z"/>
		<path style="clip-path:url(#SVGID_2_);fill:#F5AE79;" d="M36.808,48.127c-1.227,0.396-1.657,1.295-1.723,2.348
			c0.011-0.179,0.654-1.208,2.505-1.49c1.098-0.169,2.754,0.268,3.312,0.957C41.035,48.225,38.307,47.644,36.808,48.127z"/>
		<path style="clip-path:url(#SVGID_2_);fill:#3D302A;" d="M43.94,26.15c-1.166,0.134-2.503,1.063-3.671,0.77
			c0.175,1.257,0.959,1.891,2.044,2.052c0.958,0.145,1.612-0.186,2.36-0.514c0.29-0.129,0.596-0.255,0.937-0.354
			c0.572-0.167,1.055-0.025,1.627-0.014c-0.033-0.195-0.098-0.401-0.196-0.573C46.352,26.301,45.15,26.011,43.94,26.15z"/>
		<path style="clip-path:url(#SVGID_2_);fill:#3D302A;" d="M31.079,27.509c-0.729-0.132-1.484-0.511-2.194-0.582
			c-1.801-0.183-3.632,2.217-2.479,3.776c0.231-0.202,0.432-0.468,0.648-0.696c1.125-1.191,2.751-0.285,4.1-0.05
			c1.808,0.316,2.667-0.818,2.592-2.538C32.871,27.72,31.973,27.672,31.079,27.509z"/>
		<path style="opacity:0.3;clip-path:url(#SVGID_2_);fill:#BC551E;" d="M44.179,38.603c0.186-0.075,0.737,0.503,0.753,0.69
			c0.028,0.371-0.405,0.605-0.678,0.755c-0.918,0.51-2.096,0.577-3.111,0.755c-2.57,0.443-5.137,0.604-7.74,0.358
			c-1.444-0.137-2.935-0.477-4.295-0.987c0.042-0.035,0.085-0.071,0.137-0.104c0.717-0.445,1.783-0.504,1.476-0.639
			c-1.618-0.707-3.438,0.128-4.729,1.054c1.481-0.32,3.036-0.2,3.872,1.232c2.107,3.624,4.28,6.042,7.81,5.985
			c4.615-0.076,5.582-3.138,6.149-5.181c0.235-0.842,0.545-1.276,1.104-1.887c0.626-0.685,1.226-1.226,1.954-1.55
			c0.476-0.213,1.006-0.332,1.634-0.341C47.504,37.783,45.323,38.139,44.179,38.603z"/>
		<path style="clip-path:url(#SVGID_2_);fill:#8F322D;" d="M30.128,41.026c0,0,2.341,5.326,7.786,4.896
			c3.693-0.29,5.169-2.11,5.583-3.679c0.438-1.653,1.379-2.127,1.379-2.127C37.218,43.535,30.128,41.026,30.128,41.026z"/>
		<path style="clip-path:url(#SVGID_2_);fill:#FFF3E2;" d="M31.957,41.519c0,0,0.176,1.714,1.903,2.311
			c2.214,0.765,4.639,0.783,7.063,0.067c1.633-0.481,2.418-3.113,2.418-3.113S38.722,42.511,31.957,41.519z"/>
		<path style="clip-path:url(#SVGID_2_);fill:#FFF3E2;" d="M38.993,43.971c-2.332,0.105-4.365-0.131-5.487-0.516
			c-0.934-0.322-0.911,0.167-0.711,0.594c0,0,0.416,1.759,4.697,1.938c3.742,0.157,5.211-2.134,4.764-2.581
			C41.81,42.957,41.327,43.864,38.993,43.971z"/>
		<path style="clip-path:url(#SVGID_2_);fill:#E8DAC5;" d="M31.947,41.493c0,0,0.059,1.017,0.709,1.537c0,0,7.827-1.075,9.836-0.457
			c0,0,0.771-1.107,0.849-1.79C43.341,40.783,37.528,42.533,31.947,41.493z"/>
		<path style="clip-path:url(#SVGID_2_);fill:#E8DAC5;" d="M33.992,43.451c3.791,1.581,7.746-0.12,7.746-0.12
			C37.252,44.372,33.992,43.451,33.992,43.451z"/>
		<path style="opacity:0.3;clip-path:url(#SVGID_2_);fill:#BC551E;" d="M45.854,36.282c-0.273,0.006-0.763,0.147-0.982,0.321
			c-0.518,0.406,0.184,0.27,0.487,0.445c0.679,0.394,0.109,1.274-0.486,1.307c-1.036,0.057-2.065,0.135-3.107,0.227
			c-3.144,0.273-6.304,0.714-9.467,0.676c-0.706-0.007-2.05,0.229-2.645-0.224c-0.892-0.681,1.222-1.315,0.112-1.497
			c-0.745-0.123-1.731,0.827-2.003,1.441c-0.047,0.105-0.081,0.211-0.101,0.316c-0.25,1.327,0.877,2.081,1.896,2.643
			c0.901,0.497,1.897,0.484,2.894,0.402c1.021-0.084,1.979-0.021,3.002,0.031c0.998,0.052,1.99,0.13,2.988,0.053
			c0.989-0.076,1.946-0.281,2.924-0.416c1.749-0.241,3.254-0.143,4.661-1.404c0.862-0.772,1.284-1.368,1.205-2.558
			C47.177,37.197,46.856,36.262,45.854,36.282z"/>
		<path style="clip-path:url(#SVGID_2_);fill:#C9BEB7;" d="M44.595,36.758c0.666-0.407,1.298,0.008,1.269,0.475
			c-0.047,0.721-0.949,0.652-1.449,0.604c-1.604-0.157-3.291-0.734-4.929-0.219c-2.124,0.67-3.577-0.092-5.783,0.246
			c-1.108,0.17-2.209,0.547-3.251,0.832c-0.538,0.146-1.24,0.245-1.375-0.351c-0.104-0.455,0.535-0.929,1.034-0.557
			c-0.249-0.505-1.228-0.63-1.696-0.46c-0.764,0.278-0.967,0.902-0.828,1.604c0.209,1.065,1.743,1.775,2.665,2.134
			c1.346,0.522,2.992,0.788,4.422,0.964c1.041,0.13,2.088,0.171,3.138,0.136c1.112-0.037,2.218-0.16,3.303-0.407
			c1.363-0.311,2.713-0.802,3.887-1.574c0.918-0.604,2.313-1.409,2.184-2.816C47.065,36.089,45.388,35.568,44.595,36.758z"/>
		<path style="clip-path:url(#SVGID_2_);fill:#F0EAE6;" d="M16.746,23.518c-0.058,1.249,2.552,2.338,3.489,2.506
			c-0.633,0.133-1.225,0.193-1.877,0.111c-0.681-0.085-1.406-0.565-2.08-0.516c0.186,1.502,2.504,1.82,3.624,2.309
			c-0.464,0.1-0.813,0.152-1.279,0.128c-0.317-0.017-0.9-0.212-1.209-0.09c-0.92,0.363-0.593,2.494-0.499,3.235
			c0.161,1.256,0.973,2.671,1.94,0.542c-0.318,3.102,2.87,7.966,2.613,5.923c-0.291-2.31-0.128-4.438,0.153-6.721
			c0.135-1.101,0.231-2.143,0.505-3.229c0.063-0.251,0.696-3.073,0.675-3.073c-0.616-0.002-1.233-0.069-1.845-0.122
			C19.489,24.393,18.211,23.616,16.746,23.518z"/>
		<path style="clip-path:url(#SVGID_2_);fill:#F0EAE6;" d="M38.042,22.731c-9.372,1.34-16.48,0.05-16.48,0.05
			s9.518,2.555,18.283,1.353c8.767-1.203,7.513-3.907,7.513-3.907S47.412,21.391,38.042,22.731z"/>
		<path style="clip-path:url(#SVGID_2_);fill:#F0EAE6;" d="M42.65,38.26c-1.304-0.25-2.305-0.301-3.456,0.149
			c-1.152,0.451-2.065,0.619-3.396,0.067c-1.622-0.673-5.27,0.535-4.769,1.135c0.5,0.602,2.203,0.302,2.203,0.302
			s0.05,0.801,0.752,1c0.701,0.201,2.005-0.749,2.005-0.749s-0.051,0.95,0.899,1.001c0.952,0.05,1.755-1.052,1.755-1.052
			s0.604,1.014,1.552,0.851c0.947-0.161,0.852-1.001,0.852-1.001s1.145,0.567,1.854,0.35c0.709-0.217,0.3-1.202,0.3-1.202
			s0.802,0.401,1.854-0.099C46.106,38.51,43.953,38.51,42.65,38.26z"/>
		<path style="clip-path:url(#SVGID_2_);fill:#F0EAE6;" d="M20.937,17.826c2.686,2.4,6.487,1.992,9.729,1.513
			c-2.114,1.492-9.003,1.243-12.076,0.362c2.377,1.271,5.415,2.367,12.475,2.662c4.804,0.201,9.576-0.56,13.993-2.549
			c1.743-0.786,3.601-2.021,4.81-3.565c-1.773-0.649-9.48-5.438-15.076-6.424C24.473,8.01,17.252,14.534,20.937,17.826z"/>
	</g>
</g>
<g id="Layer_1">
</g>
</svg>
