<?xml version="1.0" encoding="iso-8859-1"?>
<!-- Generator: Adobe Illustrator 16.0.0, SVG Export Plug-In . SVG Version: 6.00 Build 0)  -->
<!DOCTYPE svg PUBLIC "-//W3C//DTD SVG 1.1//EN" "http://www.w3.org/Graphics/SVG/1.1/DTD/svg11.dtd">
<svg version="1.1" xmlns="http://www.w3.org/2000/svg" xmlns:xlink="http://www.w3.org/1999/xlink" x="0px" y="0px" width="66.01px"
	 height="66.001px" viewBox="0 0 66.01 66.001" style="enable-background:new 0 0 66.01 66.001;" xml:space="preserve">
<g id="Layer_40">
	<g>
		<defs>
			<circle id="SVGID_1_" cx="33.01" cy="33" r="33"/>
		</defs>
		<clipPath id="SVGID_2_">
			<use xlink:href="#SVGID_1_"  style="overflow:visible;"/>
		</clipPath>
		<rect style="clip-path:url(#SVGID_2_);fill:#507D52;" width="66" height="66"/>
		<path style="clip-path:url(#SVGID_2_);fill:#C9BEB7;" d="M24.064,66c-0.438-4.225,0.65-7.928,2.713-9.127l-2.559-2.892
			c-3.124,1.587-4.239,6.104-4.246,12.019H24.064z"/>
		<path style="clip-path:url(#SVGID_2_);fill:#C9BEB7;" d="M43.268,66c0.438-4.225-0.65-7.928-2.713-9.127l2.56-2.892
			c3.123,1.587,4.238,6.104,4.245,12.019H43.268z"/>
		<path style="clip-path:url(#SVGID_2_);fill:#C9BEB7;" d="M40.123,52.395c-4.02-2.239-9.88-1.467-12.551,0.335
			c-3.733,2.52-2.831,6.705-1.83,13.271h15.951C42.789,59.824,43.792,54.439,40.123,52.395z"/>
		<path style="clip-path:url(#SVGID_2_);fill:#1E1E29;" d="M34.555,59.855l1.626-1.604c0,0-0.421-1.365-2.276-1.482
			c-2.076-0.131-2.615,1.364-2.615,1.364l1.652,1.692l-2.068,5.045L31.732,66h4.056l1.012-1.191L34.555,59.855z"/>
		<path style="clip-path:url(#SVGID_2_);fill:#3A3A4A;" d="M28.004,51.984c0,0-3.97,1.271-4.31,2.082
			c-0.238,0.571,0.634,6.17,1.265,11.934l4.314,0.001C29.5,62.336,29.484,56.413,28.004,51.984z"/>
		<path style="clip-path:url(#SVGID_2_);fill:#3A3A4A;" d="M39.328,51.984c0,0,3.97,1.271,4.31,2.082
			c0.238,0.571-0.634,6.17-1.265,11.934l-4.314,0.001C37.832,62.336,37.848,56.413,39.328,51.984z"/>
		<path style="opacity:0.1;clip-path:url(#SVGID_2_);" d="M39.544,54.139c-0.027,1.996-1.68,4.387-3.388,5.387l-2.505-2.358
			l-1.909,2.374c0,0-2.678-1.679-3.456-4.645C27.51,51.931,39.562,52.703,39.544,54.139z"/>
		<path style="clip-path:url(#SVGID_2_);fill:#E3D9D3;" d="M33.666,56.884l2.378,1.962c0,0,4.879-3.053,3.15-7.146
			c-1.557-3.683-8.729-3.616-10.878-0.33c-2.133,3.266,3.257,7.391,3.257,7.391L33.666,56.884z"/>
		
			<linearGradient id="SVGID_3_" gradientUnits="userSpaceOnUse" x1="-1648.2705" y1="51.1221" x2="-1648.2705" y2="56.1343" gradientTransform="matrix(-1 0 0 1 -1614.1934 0)">
			<stop  offset="0" style="stop-color:#EE996D"/>
			<stop  offset="0.0163" style="stop-color:#EE9A6E"/>
			<stop  offset="0.3731" style="stop-color:#F8B181"/>
			<stop  offset="0.7088" style="stop-color:#FDBF8D"/>
			<stop  offset="1" style="stop-color:#FFC491"/>
		</linearGradient>
		<path style="clip-path:url(#SVGID_2_);fill:url(#SVGID_3_);" d="M33.978,56.496c1.237,0.031,6.489-4.071,2.799-8.063
			c-1.06-1.147-3.13-1.332-4.397-0.956c-1.321,0.389-2.2,2.077-2.291,3.815C29.973,53.493,32.336,56.438,33.978,56.496z"/>
		<path style="clip-path:url(#SVGID_2_);fill:#DB5F07;" d="M10.862,30.489c-0.59,0.067-1.796,0.133-2.638,0.125
			c2.744,8.881,15.76,4.76,21.666,3.141c3.71-1.018,8.077-1.49,11.822-0.309c1.594,0.505,2.892,1.525,4.642,1.474
			c2.685-0.076,9.754,2.051,10.584-2.256c-0.088,0.454-2.228-1.206-2.415-1.5c-0.558-0.872-0.401-1.933-0.438-2.902
			c-0.111-3.126,0.282-6.247-0.422-9.364c-0.813-3.606-3.122-7.119-6.26-9.12c-1.484-0.946-3.266-1.547-5.032-1.585
			c-1.401-0.03-4.453,0.526-5.34,1.766c0.464-0.649,1.534-2.102,0.812-2.932c-0.873-1.004-3.338,0.599-3.421,1.692
			c-0.408-0.757-1.496-2.811-2.68-1.885c-0.89,0.695,0.252,2.35,0.551,3.085c-1.057-0.405-2.061-0.629-3.175-0.782
			c-5.753-0.791-12.082,0.3-15.539,5.444c-2.023,3.012-0.603,6.347-0.371,9.702c0.17,2.5-0.812,4.549-3.712,3.107
			C9.305,28.647,9.963,29.695,10.862,30.489z"/>
		<path style="clip-path:url(#SVGID_2_);fill:#FBB37B;" d="M16.734,34.751c1.638,5.688,1.594,7.089,3.997,12.769
			c2.438,5.764,8.317,9.287,16.341,8.82c7.289-0.424,9.928-4.061,11.795-10.178c1.309-4.294,2.346-9.029,1.876-14.385
			c-0.999-11.427-9.422-20.024-18.814-19.202C22.538,13.396,13.563,23.729,16.734,34.751z"/>
		<path style="opacity:0.4;clip-path:url(#SVGID_2_);fill:#D14F2E;" d="M27.03,34.747c1.083-0.953-2.263-0.997-2.772-0.848
			c0.062,0.653,1.546,0.309,1.998,0.405c-0.384,0.416-1.552,0.438-2.023,0.723c-0.502,0.304-0.443,0.5,0.159,0.474
			C24.756,35.486,26.774,34.973,27.03,34.747z"/>
		<path style="opacity:0.4;clip-path:url(#SVGID_2_);fill:#D14F2E;" d="M47.284,34.047c-0.748-1.002,2.057-0.823,2.458-0.644
			c-0.157,0.636-1.346,0.199-1.738,0.264c0.252,0.43,1.224,0.53,1.573,0.84c0.371,0.329,0.288,0.518-0.212,0.452
			C49.064,34.921,47.461,34.284,47.284,34.047z"/>
		<path style="clip-path:url(#SVGID_2_);fill:#EA750C;" d="M49.317,28.677c0.125-0.055,0.222-0.123,0.298-0.212
			c2.244-2.712-8.752-3.541-7.585-0.344c0.576,1.58,2.578,0.821,3.761,0.664C46.562,28.685,48.463,29.055,49.317,28.677z"/>
		<path style="clip-path:url(#SVGID_2_);fill:#EA750C;" d="M24.273,29.671c-0.145-0.043-0.268-0.105-0.363-0.188
			c-2.938-2.565,8.94-4.479,8.233-1.086c-0.35,1.675-2.675,1.091-3.995,1.044C27.288,29.412,25.275,29.977,24.273,29.671z"/>
		<path style="clip-path:url(#SVGID_2_);fill:#F89E66;" d="M49.177,36.305c0.086,0.181,0.144,0.383,0.166,0.614
			c0.209,2.233-4.406,1.06-4.823,0.058c-0.781-1.881,0.869-2.169,2.053-2.037C47.479,35.04,48.724,35.348,49.177,36.305z"/>
		<path style="clip-path:url(#SVGID_2_);fill:#F89E66;" d="M27.993,36.045c0.171,0.126,0.324,0.285,0.458,0.483
			c1.296,1.936-3.662,3.011-4.546,2.292c-1.663-1.348-0.241-2.376,0.945-2.806C25.766,35.684,27.095,35.386,27.993,36.045z"/>
		<path style="clip-path:url(#SVGID_2_);fill:#472117;" d="M28.399,35.447c-0.595-0.356-1.376-0.5-2.061-0.367
			c-1.32-1.343,0.338-4.945,2.354-3.851C30.191,32.044,29.872,34.846,28.399,35.447z"/>
		<path style="opacity:0.4;clip-path:url(#SVGID_2_);fill:#BC551E;" d="M46.951,39.268c-0.345-0.924-2.453-0.401-2.453-0.401
			c-0.355,0.102,0.296,0.249,1.149,0.505c0.167,0.05,0.267,0.146,0.323,0.27c-4.658,1.275-12.684,2.381-18.532,0.262
			c0.049-0.053,0.101-0.102,0.158-0.143c0.831-0.613,1.998-0.639,1.68-0.854c0,0-1.951-0.105-2.749,0.494
			c-0.709,0.534-0.745,2.271-0.192,2.357c0.439,0.07,0.49-0.869,0.877-1.546c0.348,1.897,2.165,9.905,8.835,10.096
			c5.025,0.142,6.628-2.478,6.924-5.595c0.165-1.734,1.952-3.85,3.059-4.863c0.072,0.529-0.255,1.285,0.134,1.352
			C46.714,41.295,47.294,40.189,46.951,39.268z"/>
		<path style="clip-path:url(#SVGID_2_);fill:#96342F;" d="M28.446,41.199c0,0,7.415,4.053,16.133-0.514c0,0-1.478,0.96-1.867,3.432
			c-0.291,1.848-1.004,4.482-6.372,4.656C30.376,48.964,28.446,41.199,28.446,41.199z"/>
		<path style="clip-path:url(#SVGID_2_);fill:#FFF5E6;" d="M30.378,42.02c0,0-0.009,2.51,1.8,3.473
			c2.316,1.239,4.951,1.4,7.667,0.49c1.83-0.614,2.989-4.408,2.989-4.408S37.613,43.839,30.378,42.02z"/>
		<path style="clip-path:url(#SVGID_2_);fill:#FFF5E6;" d="M30.995,45.757c-0.168-0.635-0.136-1.349,0.843-0.827
			c1.173,0.623,3.353,1.08,5.902,1.054c2.549-0.025,3.178-1.322,3.61-0.645c0.435,0.677-1.429,3.938-5.478,3.503
			C31.243,48.346,30.995,45.757,30.995,45.757z"/>
		<path style="clip-path:url(#SVGID_2_);fill:#EFDBBD;" d="M30.78,43.967c0,0,9.14-1.418,11.252-0.406c0,0,0.68-1.388,0.802-1.986
			c0,0-6.52,2.232-12.465,0.408C30.369,41.982,30.406,43.387,30.78,43.967z"/>
		<path style="clip-path:url(#SVGID_2_);fill:#EFDBBD;" d="M32.365,44.951c0,0,3.435,1.522,8.433,0.25
			C40.798,45.201,36.3,47.465,32.365,44.951z"/>
		<path style="clip-path:url(#SVGID_2_);fill:#472117;" d="M47.8,30.509c1.085,0.848,0.761,2.826-0.235,3.698
			c-0.623-0.177-1.377-0.076-1.995,0.236C43.203,33.429,45.774,28.925,47.8,30.509z"/>
		<path style="clip-path:url(#SVGID_2_);fill:#AF968E;" d="M28.041,31.705c0.776-0.188,1.141,1.017,0.504,1.398
			C27.659,33.628,27.162,31.916,28.041,31.705z"/>
		<path style="clip-path:url(#SVGID_2_);fill:#AF968E;" d="M47.007,30.808c0.785-0.062,0.942,1.176,0.263,1.449
			C46.327,32.633,46.124,30.879,47.007,30.808z"/>
		<path style="clip-path:url(#SVGID_2_);fill:#FBB37B;" d="M14.937,40.802c1.212,0.339,2.5,0.352,3.743,0.235
			c0.022-0.033,0.047-0.066,0.072-0.102c0.561-0.781-0.408-4.658-0.686-5.456c-0.698-2.008-1.861-3.408-4.089-2.805
			C9.337,33.929,11.16,39.744,14.937,40.802z"/>
		<path style="opacity:0.3;clip-path:url(#SVGID_2_);fill:#BC551E;" d="M20.938,28.758c-0.459,2.501,0.156,5.048-0.48,5.551
			c-1.385,1.098-2.287-2.49-2.393-3.215c-0.481-3.358,2.183-5.932,3.933-8.465c1.838-2.664,5.075-3.819,8.131-4.411
			c4.411-0.855,9.125-0.87,13.572-0.252c1.588,0.22,6.353,0.55,5.099,3.297c-0.759,1.659-3.303,2.107-4.856,2.538
			c-2.667,0.739-4.872,2.385-6.674,4.457c-0.676,0.776-1.069,1.774-1.756,2.515c-0.045,0.047-1.652-3.71-1.959-3.962
			c-1.555,1.317-2.384,2.07-3.055,3.634c-1.172-0.688-2.476-2.389-2.225-4.827c-0.998,0.515-4.987,6.258-5.168,6.138
			C22.309,31.215,21.366,30.392,20.938,28.758z"/>
		<path style="opacity:0.4;clip-path:url(#SVGID_2_);fill:#D14F2E;" d="M17.313,39.555c2.144-0.731,0.625-4.075-0.837-4.742
			c-1.197-0.549-4.414-0.102-3.173,1.836c0.984-1.582,2.228-0.357,1.868,0.8c-0.241,0.776-1.402,0.671-0.378,1.802
			C15.349,39.861,16.639,39.785,17.313,39.555z"/>
		<path style="clip-path:url(#SVGID_2_);fill:#BC4411;" d="M38.429,41.326c-0.083,1.202-1.946,1.053-1.58-0.001
			c-0.541,1.552-2.113,0.769-1.33-0.146c-1.095,0.697-3.353,1.002-2.772-0.141c-0.605,0.623-3.684,0.955-2.539-0.382
			c-1.088,0.542-2.724,0.784-2.707,0.011c-0.985,1.545-4.977,5.659-4.64,1.041c0.256-3.512,4.824-4.505,7.521-4.354
			c2.858,0.158,5.795,0.847,8.647,0.357c2.588-0.441,6.322-1.995,8.724-0.075c3.84,3.069,0.749,5.729-0.3,5.348
			c-0.63-0.229-1.558-1.79-2.177-3.069c-0.067,1.514-1.706,0.976-2.566,0.53c0.383,0.698-0.957,1.569-2.454,0.318
			C40.964,41.717,39.904,42.461,38.429,41.326z"/>
		<path style="clip-path:url(#SVGID_2_);fill:#BC4411;" d="M17.524,40.211c-1.094,4.104-0.26,5.717,0.486,4.198
			c-0.076,0.595-0.48,4.134,0.875,2.658c-0.587,0.976-0.141,4.572,1.284,3.534c-0.177,0.947,0.46,3.773,1.464,3.622
			c0.187,0.921,1.753,3.749,2.666,2.072c-0.14,0.259,1.123,1.862,1.344,2.121c0.538,0.637,1.369,1.472,2.277,1.429
			c0.494-0.023,0.678-0.44,1.171-0.369c0.538,0.078,1.157,0.916,1.669,1.16c0.563,0.271,1.099,0.465,1.566-0.08
			c0.664,1.198,2.472,1.41,3.308,0.326c0.516,1.125,2.623,0.97,3.053-0.16c0.999,1.533,2.367-0.409,2.872-1.306
			c-0.511,0.909,2.04,1.849,2.834-2.548c0.095,1.113,1.051,0.879,1.581,0.238c0.461-0.556,0.599-1.522,0.656-2.219
			c1.54,1.119,1.971-2,1.837-2.881c1.527,0.385,1.116-2.924,0.924-3.65c1.859,0.88,1.014-2.773,0.76-3.432
			c0.799,2.065,1.84-0.7,0.58-3.645c1.902,1.496,0.758-7.765,0.034-9.248c-0.307,1.568-0.256,6.181-1.548,7.3
			c-0.977,0.846-2.556-0.723-3.847-0.13c-0.819,0.378,2.999,12.286-2.672,12.439c-2.057,0.056-2.182-2.079-5.895-1.474
			c-1.902,0.31-3.918,3.216-6.398,2.09c-4.747-2.158-4.426-9.005-3.328-11.449c0.861-1.918-3.736,0.136-5.25-1.807
			c-0.957-1.229-0.683-3.209-1.561-4.41c-1.089-1.486-2.485-0.728-2.563,0.964C17.634,37.148,17.934,38.675,17.524,40.211z"/>
		<path style="clip-path:url(#SVGID_2_);fill:#D65B14;" d="M22.08,40.986c0.478,0.63,1.278,1.08,1.614,1.797
			c0.464,0.997,0.362,7.991-1.076,8.258c-1.343,0.248-1.239-2.906-1.257-3.663c-1.13,2.019-1.472-2.245-1.21-3.038
			c-1.823,1.185-0.766-3.529-0.694-4.191c-0.04,0.367-0.789-0.879-0.806-0.941c-0.14-0.521-0.074-1.219-0.013-1.738
			c0.288,0.475,1.585,1.227,1.675,0.214C20.247,38.425,21.629,40.389,22.08,40.986z"/>
		<path style="clip-path:url(#SVGID_2_);fill:#DB5F07;" d="M46.854,15.68c-2.647-1.603-5.786-2.9-8.863-3.267
			c-1.744-0.209-3.375-0.767-5.162-0.781c-2.981-0.023-5.894,0.862-8.563,2.135c-3.972,1.896-6.639,6.402-7.906,10.441
			c-0.739,2.356-1.175,5.021-0.717,7.475c0.296,1.595,1.667,5.006,4.031,5.48c0.527,0.105,1.258-0.199,1.104-2.068
			c-0.223-2.722-1.318-6.488,0.788-9.044c-0.48,1.349,0.257,2.976,1.234,3.954c1.181-2.275,3.492-4.93,6.117-5.477
			c-0.208,1.905,1.078,4.179,1.404,4.583c0.446-1.455,1.46-3.119,2.961-3.649c0.582,1.35,1.052,2.667,2.138,3.766
			c1.729-1.898,3.008-4.313,5.182-5.761c2.279-1.517,5.368-1.153,7.626-2.719C50.313,19.302,48.472,16.659,46.854,15.68z"/>
		<path style="clip-path:url(#SVGID_2_);fill:#FFC08D;" d="M40.762,37.445c0.698-0.606-0.57-7.334-3.653-7.13
			c-2.585,0.172-3.48,6.758-2.06,7.585C36.803,38.923,39.821,38.259,40.762,37.445z"/>
		<path style="clip-path:url(#SVGID_2_);fill:#D65B14;" d="M39.854,51.604c-2.355-1.135-4.692,0.207-6.6,1.971
			c-1.633,1.51-2.148,4.729-0.033,6.279c0.666,0.488,1.499,0.613,1.451-1.216c0.83,1.517,2.938,2.802,3.226,0.733
			c1.341,1.147,2.446,0.376,2.959-1.148c1.393,1.99,3.051-1.168,3.021-2.498C43.83,53.483,41.574,52.431,39.854,51.604z"/>
		<path style="clip-path:url(#SVGID_2_);fill:#D65B14;" d="M34.699,38.615c-4.9-2.657-13.424,0.463-11.29,7.148
			c0.277,0.871,0.479,1.883,1.484,2.138c1.199-2.818-0.318-7.169,3.113-8.675c-1.441,2.367,2.676,0.107,3.295-0.125
			c-1.809,2.718,1.423,1.514,2.73,0.627c-0.391,0.408-0.509,0.879-0.565,1.404c0.936,0.374,1.723-0.428,2.333-1.066
			c-0.4,1.294,0.978,1.465,1.675,0.693c0.392,0.671,0.765,0.544,1.029-0.174c0.394,0.36,0.706,0.234,1.133,0.408
			c-0.012-0.254,0.169-0.531,0.082-0.848c0.836,0.516,2.773,0.879,2.098-0.793c0.695,1.189,3.398,1.203,2.767-0.596
			c1.565,1.098,1.953,3.189,2.102,4.97c0.097,1.149-0.501,6.462,1.78,4.61c0.979-0.795,1.019-2.885,0.564-3.945
			c2.238,1.61-0.242-3.615-0.557-4.15c-1.127-1.918-2.418-3.158-4.734-2.955c-1.952,0.172-2.852,1.283-4.479,2.01
			C37.537,40.068,36.082,39.363,34.699,38.615z"/>
		<path style="clip-path:url(#SVGID_2_);fill:#D65B14;" d="M28.122,52.51c1.111,0.917,2.212,1.648,3.723,1.439
			c0.557-0.078,1.128-0.352,1.669-0.506c-0.048,1.443-0.229,6.323-2.416,5.503c-0.71-0.266-1.27-1.188-1.941-1.593
			c0.331,0.201-0.758,1.271-1.611,0.754c-0.826-0.502-1.384-2.137-1.138-3.045c-0.685,2.012-1.621-1.367-1.649-1.986
			c-0.039-0.791-0.464-3.288,0.611-3.561C26.483,49.236,27.397,51.912,28.122,52.51z"/>
		<path style="clip-path:url(#SVGID_2_);fill:#D65B14;" d="M45.496,51.409c0.265-0.423,0.324-1.466,0.949-1.386
			c0.849,0.107,0.971,2.48,0.828,3.029c-0.201,0.773-0.927,1.859-1.56,0.73c0.002-0.066,0.004,0.049,0.001,0.045
			c-0.07,2.463-2.118,3.442-3.86,1.693c-0.575-0.574-1.061-2.066-0.242-2.58c0.311-0.193,1.395,0.11,1.832,0.012
			C44.343,52.746,45.013,52.186,45.496,51.409z"/>
		<path style="clip-path:url(#SVGID_2_);fill:#EA771A;" d="M22.885,28.64c-1.563-1.624,0.455-2.875,0.043-4.655
			c-1.043,1.199-2.464,2.032-3.328,3.393c0.104-0.671,0.275-1.345,0.404-2.016c-0.621,1.408-2.02,2.698-3.523,3.075
			c0.66-1.055-1.458-3.552-1.928-4.583c-0.812-1.775-0.871-3.47-0.821-5.441c0.106-4.21,3.881-6.63,7.414-7.735
			c3.98-1.246,8.368-1.343,12.272,0.224c2.918,1.172,4.833,3.455,5.672,6.506c0.96,3.487,0.399,8.195-3.021,10.197
			c-0.279,0.163-0.544,0.352-0.821,0.517c-0.143-0.736-0.719-1.558-1.004-2.285c-0.248-0.626-0.436-1.392-0.758-1.936
			c-1.223,0.812-2.237,2.035-3.365,2.863c-0.337-1.049-0.564-2.374-0.421-3.455c-1.259-0.116-2.826,1.182-3.814,1.841
			C23.939,26.443,22.647,28.394,22.885,28.64z"/>
		<path style="clip-path:url(#SVGID_2_);fill:#EA771A;" d="M36.41,11.307c1.602,1.382,3.083,3.19,3.732,5.23
			c0.315,0.992,0.559,2.125,0.537,3.173c-0.006,0.393-0.374,1.409-0.088,1.724c0.479,0.53,3.45-0.313,4.024-0.466
			c1.003-0.268,1.917-0.639,2.737-1.287c0.604-0.475,0.943-1.164,1.758-1.057c2.697,0.354,0.578,6.019,2.757,7.241
			c-0.01-0.899,0.149-1.648,0.454-2.495c1.295-3.582-0.313-6.284-2.478-8.988c-2.722-3.4-7.73-5.284-11.897-3.784
			C37.723,10.679,36.608,11.477,36.41,11.307z"/>
	</g>
</g>
<g id="Layer_1">
</g>
</svg>
