<?xml version="1.0" encoding="iso-8859-1"?>
<!-- Generator: Adobe Illustrator 16.0.0, SVG Export Plug-In . SVG Version: 6.00 Build 0)  -->
<!DOCTYPE svg PUBLIC "-//W3C//DTD SVG 1.1//EN" "http://www.w3.org/Graphics/SVG/1.1/DTD/svg11.dtd">
<svg version="1.1" xmlns="http://www.w3.org/2000/svg" xmlns:xlink="http://www.w3.org/1999/xlink" x="0px" y="0px" width="66.01px"
	 height="66px" viewBox="0 0 66.01 66" style="enable-background:new 0 0 66.01 66;" xml:space="preserve">
<g id="Layer_36">
	<g>
		<defs>
			<circle id="SVGID_1_" cx="33.01" cy="33" r="33"/>
		</defs>
		<clipPath id="SVGID_2_">
			<use xlink:href="#SVGID_1_"  style="overflow:visible;"/>
		</clipPath>
		<rect style="clip-path:url(#SVGID_2_);fill:#825F5D;" width="66" height="66"/>
		<path style="clip-path:url(#SVGID_2_);fill:#FFB224;" d="M31.793,59.447l-2.895-3.437c-4.176,1.222-5.86,4.61-6.413,9.989h5.546
			C28.248,63.219,30.897,60.148,31.793,59.447z"/>
		<polygon style="clip-path:url(#SVGID_2_);fill:#1E1E29;" points="23.251,61.646 22.637,63.987 27.649,64.262 27.572,61.923 		"/>
		<polygon style="clip-path:url(#SVGID_2_);fill:#E62628;" points="22.637,63.987 22.485,66 27.848,66 27.649,64.262 		"/>
		<path style="clip-path:url(#SVGID_2_);fill:#FFB224;" d="M42.129,56.011l-2.895,3.437c0.896,0.701,3.545,3.771,3.762,6.553h5.546
			C47.989,60.621,46.305,57.232,42.129,56.011z"/>
		<polygon style="clip-path:url(#SVGID_2_);fill:#1E1E29;" points="43.455,61.923 43.378,64.262 48.391,63.987 47.776,61.646 		"/>
		<polygon style="clip-path:url(#SVGID_2_);fill:#E62628;" points="43.378,64.262 43.18,66 48.542,66 48.391,63.987 		"/>
		<path style="clip-path:url(#SVGID_2_);fill:#1E1E29;" d="M43.767,64.422c0.022-0.604-16.85-0.506-16.824,0.125
			c0.019,0.441,0.041,0.932,0.064,1.453h16.691C43.725,65.434,43.748,64.898,43.767,64.422z"/>
		<path style="clip-path:url(#SVGID_2_);fill:#E62628;" d="M35.228,54.631c-8.367,0.039-9.385,2.621-9.271,2.918
			c0.42,1.117,0.929,3.033,0.939,4.686c0.003,0.561,0.018,1.1,0.037,1.615c0.043,1.123,16.802,1.084,16.841-0.049
			c0.019-0.514,0.03-1.047,0.031-1.605c0.002-2.041,0.437-3.646,1.057-4.801C45.021,57.096,43.848,54.588,35.228,54.631z"/>
		<path style="clip-path:url(#SVGID_2_);fill:#FFB224;" d="M38.555,54.598c-0.254-0.168-0.397,0.02-0.64-0.154
			c-0.227-0.164,0.049-3.393,0.049-3.393H32.86c0,0,0.275,3.229,0.047,3.393c-0.241,0.174-0.385-0.014-0.639,0.154
			c-1.488,0.977-4.688,5.953-5.296,6.986c-0.132,0.225-0.193,2.697,0.014,2.787c1.586,0.678,15.265,0.678,16.851,0
			c0.207-0.09,0.146-2.563,0.014-2.787C43.241,60.551,40.044,55.574,38.555,54.598z"/>
		<polygon style="clip-path:url(#SVGID_2_);fill:#EBEBEB;" points="35.235,51.043 34.958,66 35.858,66 36.136,51.059 		"/>
		<path style="clip-path:url(#SVGID_2_);fill:#EBEBEB;" d="M35.671,55.086c-0.734-0.039-2.072,3.383-1.931,3.59
			c0.299,0.434,2.801,0.516,3.1,0.189S36.188,55.113,35.671,55.086z"/>
		<path style="clip-path:url(#SVGID_2_);fill:#D4A070;" d="M27.859,34.334c-0.772-0.791-1.825-1.277-2.955-1.482
			c-1.595-0.285-3.345-0.004-4.683,0.8c-1.57,0.944-2.914,2.157-3.966,3.659c-0.854,1.223-2.303,2.422-2.602,3.928
			c-0.214,1.084,0.214,2.262,1.312,1.172c-0.311,1.115-0.327,2.359-0.289,3.51c0.047,1.332,0.779,2.346,1.869,0.883
			c-0.051,1.104-0.147,5.865,1.67,3.301c0.258,0.875,0.151,2.305,0.809,3.021c0.809,0.883,1.596-0.344,1.885-1.029
			c0.125,0.764,0.275,1.955,1.288,2.072c0.898,0.104,1.69-1.154,1.951-1.893c0.371,1.92,1.522,0.516,2.202-0.254
			c0.625,1.436,2.271,0.961,3.242,0.014c2.626-2.57,1.998-7.08,1.68-10.346C30.995,38.854,29.843,36.363,27.859,34.334z"/>
		<path style="clip-path:url(#SVGID_2_);fill:#F2D89B;" d="M28.218,32.667c-14.799,0.112-16.946,7.997-17.863,11.364l-0.059,0.215
			c-0.168,0.613,0.191,1.248,0.805,1.416c0.103,0.027,0.205,0.041,0.307,0.041c0.506,0,0.969-0.336,1.109-0.848l0.06-0.219
			c0.911-3.344,2.606-9.566,15.659-9.666c0.636-0.006,1.148-0.523,1.143-1.161C29.374,33.174,28.86,32.664,28.218,32.667z"/>
		<path style="clip-path:url(#SVGID_2_);fill:#F2D89B;" d="M27.999,34.379c-11.773-0.295-16.165,9.811-16.852,15.207
			c-0.08,0.631,0.367,1.207,0.998,1.287c0.049,0.008,0.098,0.01,0.146,0.01c0.571,0,1.066-0.424,1.141-1.006
			c0.07-0.553,1.848-13.527,14.505-13.195c0.63-0.006,1.165-0.484,1.183-1.119C29.136,34.926,28.634,34.396,27.999,34.379z"/>
		<path style="clip-path:url(#SVGID_2_);fill:#F2D89B;" d="M27.722,33.268c-7.889,4.173-12.511,9.937-14.547,18.136
			c-0.153,0.619,0.223,1.242,0.84,1.396c0.094,0.023,0.188,0.033,0.279,0.033c0.516,0,0.986-0.35,1.117-0.873
			c1.174-4.732,3.838-11.607,13.388-16.658c0.562-0.297,0.776-0.994,0.479-1.556C28.981,33.184,28.286,32.97,27.722,33.268z"/>
		<path style="clip-path:url(#SVGID_2_);fill:#F2D89B;" d="M29.374,35.158c-10.1,3.535-12.759,13.494-13.445,19.117
			c-0.077,0.631,0.372,1.205,1.003,1.281c0.048,0.006,0.095,0.01,0.142,0.01c0.573,0,1.07-0.43,1.141-1.012
			c0.761-6.221,3.445-14.256,11.921-17.225c0.601-0.211,0.917-0.867,0.706-1.467C30.632,35.262,29.972,34.943,29.374,35.158z"/>
		<path style="clip-path:url(#SVGID_2_);fill:#F2D89B;" d="M31.397,36.547C21.2,40.24,19.354,49.494,18.853,56.133
			c-0.049,0.635,0.427,1.188,1.061,1.236c0.029,0.002,0.059,0.002,0.088,0.002c0.597,0,1.102-0.459,1.146-1.064
			c0.492-6.508,2.191-14.391,11.034-17.596c0.599-0.217,0.907-0.877,0.69-1.475C32.656,36.639,31.995,36.33,31.397,36.547z"/>
		<path style="clip-path:url(#SVGID_2_);fill:#F2D89B;" d="M31.407,38.619c-7.65,3.25-9.063,11.748-9.223,16.523
			c-0.022,0.635,0.477,1.168,1.111,1.189c0.014,0,0.026,0,0.039,0c0.619,0,1.129-0.49,1.15-1.111
			c0.143-4.229,1.35-11.73,7.821-14.48c0.585-0.25,0.858-0.926,0.61-1.512C32.668,38.645,31.993,38.369,31.407,38.619z"/>
		<path style="clip-path:url(#SVGID_2_);fill:#F2D89B;" d="M32.214,39.85c-5.742,3.268-6.924,9.051-6.903,13.326
			c0.003,0.635,0.518,1.146,1.151,1.146c0.002,0,0.004,0,0.006,0c0.636-0.002,1.148-0.521,1.146-1.156
			c-0.017-3.662,0.965-8.598,5.739-11.314c0.553-0.314,0.746-1.018,0.432-1.57C33.468,39.729,32.767,39.537,32.214,39.85z"/>
		<path style="clip-path:url(#SVGID_2_);fill:#F2D89B;" d="M32.641,41.629c-3.692,2.703-4.243,7.574-4.243,10.238
			c0,0.635,0.515,1.15,1.15,1.15c0.637,0,1.152-0.516,1.152-1.15c0-1.793,0.321-6.199,3.301-8.379
			c0.514-0.375,0.625-1.096,0.249-1.609S33.151,41.254,32.641,41.629z"/>
		<path style="opacity:0.5;clip-path:url(#SVGID_2_);fill:#CF854D;" d="M27.216,37.084c-2.013-1.662-5.906-2.842-8.532-2.195
			c-0.155,0.039-0.306,0.082-0.456,0.135c-2.576,0.896-2.816,4.725-1.708,7.566c1.512,3.875,4.335,4.639,5.634,3.115
			c0.602,2.322,4.57,6.848,7.439,6.33c2.229-0.404,1.949-2.818,2.41-4.549C33.087,43.4,30.208,39.555,27.216,37.084z"/>
		<path style="clip-path:url(#SVGID_2_);fill:#AB6A3F;" d="M19.444,35.5c-2.432,0.625-4.752,3.129-5.787,5.279
			c-0.091,0.191-0.011,0.42,0.181,0.514c0.054,0.025,0.11,0.037,0.167,0.037c0.142,0,0.279-0.08,0.346-0.219
			c0.957-1.99,3.08-4.303,5.283-4.867c0.207-0.053,0.33-0.262,0.277-0.467C19.858,35.57,19.647,35.451,19.444,35.5z"/>
		<path style="clip-path:url(#SVGID_2_);fill:#AB6A3F;" d="M19.251,39.088c-1.692,1.113-3.108,3.326-3.76,5.027
			c-0.076,0.199,0.023,0.422,0.222,0.496c0.045,0.018,0.091,0.025,0.138,0.025c0.154,0,0.299-0.094,0.357-0.246
			c0.588-1.535,1.923-3.648,3.465-4.662c0.177-0.117,0.227-0.354,0.11-0.531C19.666,39.018,19.428,38.969,19.251,39.088z"/>
		<path style="clip-path:url(#SVGID_2_);fill:#AB6A3F;" d="M19.364,42.93c-0.178-0.111-0.416-0.063-0.531,0.115
			c-1.139,1.777-1.818,3.234-2.201,4.727c-0.053,0.205,0.07,0.414,0.275,0.467c0.033,0.008,0.064,0.012,0.096,0.012
			c0.172,0,0.327-0.115,0.372-0.287c0.362-1.41,1.011-2.799,2.104-4.502C19.595,43.281,19.542,43.045,19.364,42.93z"/>
		<path style="clip-path:url(#SVGID_2_);fill:#AB6A3F;" d="M21.532,43.727c-0.995,1.438-1.58,3.041-2.145,4.594l-0.209,0.566
			c-0.072,0.199,0.029,0.42,0.229,0.494c0.043,0.016,0.088,0.023,0.133,0.023c0.156,0,0.303-0.096,0.359-0.252l0.209-0.57
			c0.574-1.576,1.116-3.063,2.055-4.418c0.121-0.174,0.077-0.414-0.097-0.533C21.892,43.508,21.653,43.553,21.532,43.727z"/>
		<path style="clip-path:url(#SVGID_2_);fill:#AB6A3F;" d="M23.694,46.018c-1.164,1.516-1.686,3.564-1.918,5.018
			c-0.033,0.209,0.109,0.406,0.318,0.439c0.02,0.004,0.041,0.006,0.062,0.006c0.185,0,0.348-0.135,0.378-0.324
			c0.219-1.363,0.703-3.283,1.77-4.67c0.129-0.168,0.098-0.41-0.07-0.539S23.824,45.85,23.694,46.018z"/>
		<path style="clip-path:url(#SVGID_2_);fill:#AB6A3F;" d="M25.748,48.025c-0.206-0.027-0.405,0.111-0.437,0.322
			c-0.041,0.281-0.092,0.563-0.143,0.844c-0.127,0.691-0.257,1.408-0.246,2.141c0.004,0.209,0.175,0.379,0.385,0.379h0.003
			c0.214-0.004,0.384-0.178,0.38-0.389c-0.01-0.66,0.109-1.309,0.233-1.994c0.053-0.289,0.105-0.578,0.147-0.867
			C26.103,48.25,25.958,48.055,25.748,48.025z"/>
		<path style="clip-path:url(#SVGID_2_);fill:#AB6A3F;" d="M28.255,49.803c-0.207-0.059-0.416,0.064-0.473,0.268
			c-0.182,0.66-0.262,1.375-0.246,2.186c0.005,0.209,0.176,0.377,0.385,0.377c0.002,0,0.006,0,0.006,0
			c0.214-0.004,0.382-0.18,0.378-0.393c-0.015-0.734,0.057-1.377,0.218-1.965C28.579,50.07,28.458,49.859,28.255,49.803z"/>
		<path style="clip-path:url(#SVGID_2_);fill:#F29F63;" d="M46.583,36.422c-0.368,1.008-1.846,6.527-1.658,7.662
			c0.009,0.051,0.018,0.1,0.026,0.148c0.789,0.367,1.641,0.576,2.518,0.334c2.731-0.752,5.275-8.154,2.51-10.622
			C48.651,32.76,47.507,33.876,46.583,36.422z"/>
		<path style="clip-path:url(#SVGID_2_);fill:#E89361;" d="M18.491,20.703c-1.031,4.928-1.275,11.458,1.094,16.165
			c1.24,2.457,4.191,0.816,6.275,0.301c2.564-0.635,5.144-1.213,7.725-1.783c4.239-0.934,9.652-1.819,12.419,1.5
			c2.672,3.205,4.388,0.801,4.39-1.941c0.004-3.397,0.87-8.997,0.007-12.727C46.199,4.082,21.202,7.76,18.491,20.703z"/>
		<path style="clip-path:url(#SVGID_2_);fill:#FFBC82;" d="M33.177,15.685c-11.521,1.568-13.342,12.107-12.221,22.438
			c0.84,7.738,7.775,16.375,15.531,15.959c7.771-0.414,14.01-11.613,13.085-21.125C48.569,22.616,46.344,13.894,33.177,15.685z"/>
		<path style="clip-path:url(#SVGID_2_);fill:#FFBC82;" d="M18.409,33.763c-3.773,0.93-1.559,9.698,1.277,11.286
			c1.129,0.631,2.4,0.211,2.957-1.715c0.637-0.979-0.154-4.738-0.803-7.088C21.317,34.338,20.222,33.316,18.409,33.763z"/>
		<path style="opacity:0.3;clip-path:url(#SVGID_2_);fill:#BF3C1B;" d="M19.671,35.813c-0.832-0.41-2.953,0.23-2.009,1.904
			c0.563-1.512,1.466-0.486,1.294,0.594c-0.116,0.725-0.898,0.715-0.146,1.67c0.406,0.516,1.263,0.352,1.7,0.094
			C21.897,39.25,20.686,36.313,19.671,35.813z"/>
		<path style="clip-path:url(#SVGID_2_);fill:#E89361;" d="M40.864,22.019c0.001,0.001,0.002,0.002,0.002,0.004
			c0.001-0.002,0.002-0.003,0.002-0.005C40.866,21.992,40.866,21.992,40.864,22.019z"/>
		<path style="clip-path:url(#SVGID_2_);fill:#E89361;" d="M34.304,13.665c-9.345-0.077-15.989,6.632-15.371,20.008
			c0.389-0.01,1.189-0.01,1.771,0.562c0.775,0.762,0.747,1.594,0.958,2.014c0.099,0.213,0.213,0.566,0.949,0.531
			c-0.557-1.807-0.762-3.721-0.74-5.609c0.01-0.889,0.072-1.776,0.189-2.657c0.087-0.633,0.579-1.791,0.076-2.325
			c0.895-0.472,0.45-1.724,0.292-2.446c1.38-0.221,1.793-0.727,2.036-1.969c0.75,0.198,1.299-0.029,1.861-0.54
			c0.781,2.294,4.011,2.258,4.661-0.045c0.306,0.287,0.667,0.51,1.09,0.329c-0.007,2.106,4.718,2.123,4.458,0.11
			c0.826,0.149,0.854,1.362,1.835,1.621c0.952,0.252,2.235-0.178,2.497-1.226c0-0.001-0.001-0.002-0.002-0.004
			c0.002-0.027,0.002-0.027,0.004-0.001c0,0.002-0.001,0.003-0.002,0.005c0.288,0.883,1.764,0.837,2.454,0.657
			c0.84-0.22,1.264-0.747,1.849-1.339c0.16,0.862,1.184,1.311,1.85,0.686c-0.769,0.722,0.954,2.166,1.167,2.671
			C49.569,27.974,49.3,13.789,34.304,13.665z"/>
		
			<ellipse transform="matrix(-0.1917 -0.9815 0.9815 -0.1917 -17.7071 71.0223)" style="clip-path:url(#SVGID_2_);fill:#694330;" cx="20.393" cy="42.803" rx="1.829" ry="1.541"/>
		<path style="clip-path:url(#SVGID_2_);fill:#F2D89B;" d="M33.062,8.7c-5.029,0.412-8.979,2.32-11.733,5.671
			c-5.08,6.177-4.497,15.321-4.196,17.978c0.07,0.624,0.623,1.133,1.258,1.065c0.625-0.059,1.093-0.56,1.045-1.186L19.42,32.09
			c-0.274-2.429-0.819-10.779,3.687-16.257c2.345-2.851,5.758-4.479,10.143-4.838c4.742-0.392,8.538,0.823,11.273,3.602
			c4.839,4.918,5.396,13.693,4.962,18.103c-0.062,0.633,0.4,1.196,1.034,1.259c0.038,0.004,0.075,0.005,0.113,0.005
			c0.585,0,1.086-0.443,1.146-1.038c0.13-1.325,1.079-13.141-5.614-19.942C42.928,9.694,38.522,8.255,33.062,8.7z"/>
		<path style="clip-path:url(#SVGID_2_);fill:#F2D89B;" d="M37.722,8.799c-0.581,0.259-0.842,0.939-0.584,1.521
			c1.771,3.975,1.789,8.394,0.907,10.532c-0.243,0.588,0.038,1.262,0.626,1.504c0.143,0.06,0.291,0.087,0.438,0.087
			c0.453,0,0.882-0.268,1.065-0.712c1.273-3.087,0.882-8.28-0.933-12.349C38.983,8.8,38.302,8.541,37.722,8.799z"/>
		<path style="clip-path:url(#SVGID_2_);fill:#F2D89B;" d="M45.648,12.075c-0.632,0.066-1.091,0.634-1.024,1.266
			c0.352,3.343-1.297,5.695-2.312,6.8c-0.431,0.468-0.4,1.196,0.068,1.627c0.221,0.203,0.5,0.304,0.778,0.304
			c0.312,0,0.621-0.125,0.849-0.373c1.277-1.39,3.354-4.355,2.907-8.599C46.848,12.466,46.283,12.005,45.648,12.075z"/>
		<path style="clip-path:url(#SVGID_2_);fill:#F2D89B;" d="M23.399,20.664c-1.358-0.891-2.551-2.504-2.838-3.837
			c-0.133-0.622-0.75-1.02-1.367-0.884c-0.623,0.134-1.018,0.746-0.885,1.367c0.415,1.929,1.953,4.049,3.825,5.278
			c0.195,0.128,0.414,0.188,0.632,0.188c0.375,0,0.742-0.183,0.963-0.52C24.078,21.726,23.931,21.011,23.399,20.664z"/>
		<path style="clip-path:url(#SVGID_2_);fill:#F2D89B;" d="M33.887,8.439c-0.546,0.324-0.728,1.03-0.403,1.578
			c2.397,4.047,2.257,9.196,2.255,9.248c-0.021,0.635,0.478,1.168,1.113,1.188c0.013,0.001,0.025,0.001,0.038,0.001
			c0.619,0,1.13-0.491,1.15-1.114c0.008-0.237,0.16-5.877-2.575-10.497C35.142,8.296,34.435,8.116,33.887,8.439z"/>
		<path style="clip-path:url(#SVGID_2_);fill:#F2D89B;" d="M29.038,10.172c-0.249-0.584-0.926-0.859-1.51-0.608
			c-0.586,0.249-0.858,0.925-0.608,1.511c1.671,3.928,2.995,8.275,3.009,8.318c0.15,0.498,0.607,0.817,1.102,0.817
			c0.109,0,0.223-0.016,0.334-0.049c0.609-0.185,0.953-0.828,0.768-1.437C32.077,18.543,30.761,14.218,29.038,10.172z"/>
		<path style="clip-path:url(#SVGID_2_);fill:#F2D89B;" d="M41.504,9.862c-0.593,0.229-0.888,0.896-0.659,1.488
			c1.126,2.911,0.503,5.5,0.496,5.525c-0.153,0.616,0.222,1.241,0.839,1.396c0.094,0.023,0.188,0.034,0.279,0.034
			c0.517,0,0.986-0.349,1.116-0.873c0.034-0.134,0.804-3.328-0.582-6.911C42.765,9.926,42.101,9.631,41.504,9.862z"/>
		<path style="clip-path:url(#SVGID_2_);fill:#F2D89B;" d="M23.058,13.969c-0.1-0.629-0.697-1.059-1.315-0.96
			c-0.628,0.098-1.058,0.687-0.96,1.315c0.604,3.865,3.137,5.994,3.243,6.083c0.214,0.177,0.475,0.263,0.732,0.263
			c0.332,0,0.661-0.143,0.89-0.419c0.402-0.489,0.334-1.213-0.152-1.617C25.446,18.591,23.518,16.917,23.058,13.969z"/>
		<path style="clip-path:url(#SVGID_2_);fill:#F2D89B;" d="M35.132,19.361c-0.235-2.337-0.59-5.869-3.126-10.051
			c-0.329-0.546-1.038-0.719-1.581-0.388c-0.544,0.329-0.717,1.038-0.388,1.581c2.267,3.736,2.576,6.829,2.803,9.088
			c0.07,0.698,0.132,1.303,0.241,1.834c0.113,0.544,0.592,0.918,1.127,0.918c0.077,0,0.155-0.008,0.234-0.024
			c0.623-0.129,1.023-0.739,0.894-1.361C35.25,20.543,35.194,19.996,35.132,19.361z"/>
		<path style="clip-path:url(#SVGID_2_);fill:#F2D89B;" d="M25.768,11.708c-0.186-0.606-0.828-0.949-1.437-0.767
			c-0.609,0.186-0.953,0.828-0.768,1.437c1.207,3.975,2.631,6.819,4.615,9.223c0.229,0.276,0.557,0.418,0.889,0.418
			c0.259,0,0.518-0.086,0.732-0.264c0.49-0.404,0.561-1.13,0.154-1.62C28.755,18.682,27.194,16.412,25.768,11.708z"/>
		<path style="clip-path:url(#SVGID_2_);fill:#F2D89B;" d="M48.952,15.766c-0.627-0.102-1.22,0.319-1.324,0.946
			c-0.159,0.957-1.105,2.197-1.423,2.557c-0.422,0.476-0.378,1.203,0.098,1.625c0.219,0.194,0.492,0.29,0.764,0.29
			c0.317,0,0.634-0.131,0.861-0.388c0.171-0.192,1.677-1.931,1.972-3.706C50.003,16.463,49.58,15.87,48.952,15.766z"/>
		<path style="clip-path:url(#SVGID_2_);fill:#F2D89B;" d="M49.981,19.722L48.14,21.06c-0.514,0.375-0.627,1.095-0.254,1.609
			c0.226,0.31,0.576,0.475,0.933,0.475c0.234,0,0.472-0.071,0.676-0.221l1.842-1.338c0.514-0.375,0.627-1.095,0.254-1.608
			C51.216,19.461,50.497,19.347,49.981,19.722z"/>
		<path style="clip-path:url(#SVGID_2_);fill:#F2D89B;" d="M21.627,23.417c-0.567-0.363-2.147-1.56-2.64-2.718
			c-0.248-0.586-0.922-0.86-1.51-0.61c-0.586,0.249-0.858,0.925-0.609,1.51c0.858,2.022,3.25,3.589,3.521,3.761
			c0.191,0.122,0.405,0.18,0.616,0.18c0.381,0,0.752-0.188,0.972-0.531C22.319,24.47,22.162,23.759,21.627,23.417z"/>
		<path style="clip-path:url(#SVGID_2_);fill:#F2D89B;" d="M50.768,22.983l-1.105,0.304c-0.613,0.168-0.974,0.802-0.806,1.415
			c0.141,0.512,0.604,0.847,1.11,0.847c0.1,0,0.203-0.014,0.306-0.041l1.105-0.305c0.613-0.168,0.974-0.802,0.806-1.415
			C52.016,23.173,51.38,22.813,50.768,22.983z"/>
		<path style="clip-path:url(#SVGID_2_);fill:#F2D89B;" d="M50.966,25.912l-0.787,0.186c-0.619,0.146-1.003,0.765-0.857,1.384
			c0.125,0.531,0.598,0.888,1.12,0.888c0.088,0,0.177-0.01,0.265-0.031l0.788-0.185c0.618-0.146,1.002-0.766,0.855-1.385
			C52.205,26.149,51.584,25.765,50.966,25.912z"/>
		<path style="clip-path:url(#SVGID_2_);fill:#F2D89B;" d="M50.82,28.99l-0.333,0.066c-0.623,0.123-1.029,0.729-0.906,1.353
			c0.109,0.548,0.591,0.928,1.129,0.928c0.074,0,0.149-0.007,0.225-0.021l0.334-0.066c0.623-0.123,1.028-0.729,0.905-1.353
			C52.051,29.272,51.443,28.867,50.82,28.99z"/>
		<path style="clip-path:url(#SVGID_2_);fill:#F2D89B;" d="M51.074,31.688l-0.366-0.024c-0.63-0.052-1.184,0.437-1.227,1.071
			c-0.042,0.635,0.438,1.185,1.072,1.227l0.365,0.024c0.026,0.002,0.053,0.003,0.079,0.003c0.602,0,1.106-0.466,1.148-1.074
			C52.188,32.28,51.708,31.73,51.074,31.688z"/>
		<path style="clip-path:url(#SVGID_2_);fill:#F2D89B;" d="M21.149,26.236l-3.639-1.886c-0.566-0.292-1.261-0.071-1.553,0.492
			c-0.293,0.565-0.072,1.26,0.492,1.553l3.639,1.885c0.17,0.088,0.351,0.129,0.529,0.129c0.416,0,0.818-0.227,1.023-0.621
			C21.934,27.222,21.713,26.528,21.149,26.236z"/>
		<path style="clip-path:url(#SVGID_2_);fill:#F2D89B;" d="M20.68,29.041l-3.153-1.394c-0.582-0.255-1.262,0.006-1.518,0.588
			c-0.258,0.581,0.006,1.262,0.588,1.519l3.152,1.393c0.152,0.066,0.309,0.099,0.465,0.099c0.441,0,0.863-0.256,1.054-0.687
			C21.524,29.977,21.261,29.296,20.68,29.041z"/>
		<path style="clip-path:url(#SVGID_2_);fill:#F2D89B;" d="M20.884,31.985l-2.934-1.001c-0.604-0.206-1.258,0.116-1.463,0.719
			c-0.204,0.602,0.117,1.257,0.719,1.461l2.934,1c0.123,0.043,0.249,0.063,0.372,0.063c0.479,0,0.927-0.301,1.09-0.781
			C21.806,32.844,21.485,32.189,20.884,31.985z"/>
		<path style="clip-path:url(#SVGID_2_);fill:#AB6A3F;" d="M40.317,11.568c-0.191,0.093-0.27,0.322-0.178,0.513
			c0.737,1.514,0.926,4.285,0.635,5.825c-0.039,0.209,0.098,0.409,0.307,0.448c0.023,0.005,0.047,0.008,0.071,0.008
			c0.18,0,0.342-0.129,0.377-0.313c0.319-1.693,0.115-4.631-0.699-6.304C40.737,11.555,40.509,11.473,40.317,11.568z"/>
		<path style="clip-path:url(#SVGID_2_);fill:#AB6A3F;" d="M44.387,14.658c-0.202-0.074-0.42,0.033-0.491,0.232l-0.203,0.564
			c-0.242,0.67-0.549,1.521-0.762,2.183c-0.064,0.202,0.046,0.418,0.248,0.483c0.039,0.013,0.078,0.019,0.117,0.019
			c0.162,0,0.313-0.104,0.365-0.267c0.211-0.654,0.515-1.495,0.753-2.156l0.205-0.568C44.69,14.948,44.586,14.729,44.387,14.658z"/>
		<path style="clip-path:url(#SVGID_2_);fill:#AB6A3F;" d="M46.981,16.877c-0.196-0.074-0.418,0.026-0.494,0.225
			c-0.106,0.284-0.244,0.564-0.379,0.842c-0.129,0.261-0.254,0.52-0.358,0.778c-0.078,0.196,0.017,0.421,0.214,0.499
			c0.048,0.02,0.095,0.028,0.143,0.028c0.152,0,0.297-0.092,0.356-0.241c0.097-0.241,0.216-0.484,0.334-0.728
			c0.146-0.3,0.294-0.602,0.409-0.908C47.28,17.174,47.181,16.953,46.981,16.877z"/>
		<path style="clip-path:url(#SVGID_2_);fill:#AB6A3F;" d="M48.847,19.988c-0.375,0.151-0.726,0.386-1.016,0.678
			c-0.149,0.149-0.149,0.394,0.001,0.543c0.075,0.073,0.173,0.111,0.271,0.111c0.098,0,0.196-0.038,0.272-0.113
			c0.216-0.219,0.479-0.395,0.758-0.507c0.197-0.08,0.292-0.304,0.212-0.501C49.267,20.002,49.042,19.908,48.847,19.988z"/>
		<path style="clip-path:url(#SVGID_2_);fill:#AB6A3F;" d="M36.608,10.834c-0.188,0.101-0.258,0.332-0.158,0.52
			c1.007,1.882,1.379,3.645,1.141,5.389c-0.029,0.209,0.117,0.403,0.327,0.433c0.018,0.001,0.036,0.003,0.053,0.003
			c0.188,0,0.354-0.14,0.38-0.332c0.262-1.909-0.138-3.824-1.223-5.854C37.027,10.804,36.794,10.734,36.608,10.834z"/>
		<path style="clip-path:url(#SVGID_2_);fill:#AB6A3F;" d="M35.319,15.333c-0.18-1.488-0.366-3.029-1.328-4.316
			c-0.127-0.169-0.368-0.203-0.539-0.077c-0.169,0.128-0.203,0.367-0.076,0.538c0.84,1.122,1.006,2.495,1.182,3.948
			c0.122,1.003,0.246,2.039,0.615,2.986c0.059,0.152,0.203,0.245,0.357,0.245c0.047,0,0.094-0.009,0.139-0.026
			c0.198-0.076,0.296-0.299,0.219-0.496C35.556,17.276,35.44,16.332,35.319,15.333z"/>
		<path style="clip-path:url(#SVGID_2_);fill:#AB6A3F;" d="M30.642,12.228c-0.07-0.199-0.288-0.307-0.489-0.234
			c-0.2,0.07-0.306,0.289-0.235,0.489c0.167,0.474,0.367,0.959,0.57,1.451c0.453,1.103,0.923,2.24,1.039,3.344
			c0.02,0.196,0.188,0.344,0.381,0.344c0.014,0,0.027-0.001,0.041-0.003c0.21-0.021,0.363-0.211,0.341-0.422
			c-0.128-1.212-0.618-2.402-1.093-3.555C30.999,13.163,30.804,12.691,30.642,12.228z"/>
		<path style="clip-path:url(#SVGID_2_);fill:#AB6A3F;" d="M27.262,13.15c-0.013-0.212-0.195-0.36-0.404-0.362
			c-0.212,0.011-0.374,0.192-0.362,0.404c0.115,2.066,0.814,4.006,1.872,5.188c0.077,0.086,0.181,0.129,0.286,0.129
			c0.092,0,0.184-0.033,0.256-0.098c0.158-0.142,0.172-0.384,0.031-0.542C27.995,16.812,27.367,15.047,27.262,13.15z"/>
		<path style="clip-path:url(#SVGID_2_);fill:#AB6A3F;" d="M23.69,15.034c-0.074-0.197-0.295-0.301-0.494-0.228
			c-0.198,0.074-0.301,0.295-0.227,0.493c0.458,1.246,1.111,2.785,2.105,3.635c0.072,0.062,0.16,0.093,0.25,0.093
			c0.107,0,0.215-0.046,0.291-0.135c0.139-0.16,0.119-0.403-0.042-0.541C24.706,17.608,24.083,16.103,23.69,15.034z"/>
		<path style="clip-path:url(#SVGID_2_);fill:#AB6A3F;" d="M23.073,19.343c-0.482-0.271-0.822-0.75-1.182-1.258
			c-0.16-0.225-0.318-0.446-0.486-0.65c-0.137-0.163-0.379-0.186-0.541-0.05c-0.162,0.135-0.186,0.377-0.051,0.54
			c0.158,0.189,0.304,0.396,0.451,0.604c0.393,0.554,0.8,1.127,1.432,1.483c0.061,0.033,0.124,0.049,0.188,0.049
			c0.134,0,0.264-0.07,0.335-0.196C23.323,19.681,23.257,19.448,23.073,19.343z"/>
		<path style="clip-path:url(#SVGID_2_);fill:#AB6A3F;" d="M20.283,21.089c-0.078-0.196-0.302-0.293-0.499-0.215
			c-0.196,0.078-0.293,0.301-0.215,0.498c0.247,0.62,0.748,1.208,1.531,1.794c0.069,0.051,0.15,0.076,0.23,0.076
			c0.117,0,0.232-0.054,0.307-0.153c0.127-0.171,0.093-0.411-0.076-0.538C20.894,22.053,20.476,21.575,20.283,21.089z"/>
		<path style="clip-path:url(#SVGID_2_);fill:#AB6A3F;" d="M20.627,24.783c-0.503-0.146-1.002-0.504-1.433-0.826
			c-0.166-0.127-0.408-0.096-0.536,0.076c-0.128,0.169-0.093,0.41,0.076,0.537c0.482,0.363,1.05,0.767,1.677,0.949
			c0.035,0.011,0.072,0.016,0.107,0.016c0.166,0,0.319-0.108,0.368-0.275C20.946,25.055,20.829,24.842,20.627,24.783z"/>
		<path style="clip-path:url(#SVGID_2_);fill:#AB6A3F;" d="M18.491,27.407c-0.18-0.107-0.417-0.045-0.523,0.139
			c-0.107,0.183-0.047,0.417,0.137,0.524c0.289,0.169,0.572,0.382,0.82,0.614c0.074,0.069,0.169,0.104,0.264,0.104
			c0.102,0,0.203-0.04,0.279-0.121c0.145-0.154,0.138-0.397-0.018-0.542C19.161,27.853,18.83,27.605,18.491,27.407z"/>
		<path style="clip-path:url(#SVGID_2_);fill:#AB6A3F;" d="M20.058,30.891c-0.439-0.276-0.932-0.451-1.422-0.501
			c-0.205-0.028-0.399,0.13-0.422,0.342c-0.021,0.211,0.131,0.4,0.342,0.421c0.369,0.039,0.758,0.176,1.092,0.387
			c0.063,0.041,0.135,0.06,0.205,0.06c0.127,0,0.252-0.063,0.324-0.179C20.29,31.241,20.236,31.003,20.058,30.891z"/>
		<path style="clip-path:url(#SVGID_2_);fill:#FAE7BB;" d="M35.571,9.083c-0.191-0.606-0.84-0.943-1.444-0.75
			c-0.606,0.191-0.942,0.838-0.751,1.444c0.249,0.789,0.578,1.607,0.926,2.476c0.654,1.634,1.332,3.322,1.436,4.739
			c0.044,0.605,0.549,1.067,1.146,1.067c0.029,0,0.057-0.001,0.086-0.003c0.634-0.046,1.111-0.599,1.064-1.232
			c-0.129-1.774-0.875-3.632-1.596-5.429C36.108,10.569,35.795,9.789,35.571,9.083z"/>
		<path style="clip-path:url(#SVGID_2_);fill:#FAE7BB;" d="M37.681,9.008c-0.466,0.281-0.615,0.887-0.334,1.353
			c0.547,0.903,1.706,4.902,1.379,8.219c-0.053,0.541,0.342,1.023,0.884,1.076c0.033,0.004,0.065,0.006,0.099,0.006
			c0.5,0,0.928-0.38,0.979-0.889c0.373-3.78-0.879-8.149-1.654-9.432C38.751,8.877,38.146,8.727,37.681,9.008z"/>
		<path style="clip-path:url(#SVGID_2_);fill:#FAE7BB;" d="M41.653,10.11c-0.383,0.351-0.427,0.932-0.113,1.333
			c0.201,0.476,0.284,2.632,0.085,4.687c-0.053,0.542,0.344,1.023,0.885,1.076c0.032,0.003,0.065,0.005,0.097,0.005
			c0.501,0,0.93-0.381,0.979-0.89c0.081-0.839,0.438-5.075-0.541-6.147C42.679,9.772,42.056,9.744,41.653,10.11z"/>
		<path style="clip-path:url(#SVGID_2_);fill:#FAE7BB;" d="M45.798,12.544c-0.01,0-0.019,0-0.027,0.001
			c-0.545,0.016-0.973,0.468-0.958,1.012c0.001,0.032,0.07,3.183-1.438,5.486c-0.298,0.455-0.17,1.066,0.285,1.364
			c0.166,0.108,0.354,0.16,0.539,0.16c0.32,0,0.636-0.157,0.824-0.445c1.842-2.814,1.763-6.466,1.759-6.62
			C46.768,12.968,46.329,12.544,45.798,12.544z"/>
		<path style="clip-path:url(#SVGID_2_);fill:#FAE7BB;" d="M48.142,16.442c-0.177,0.224-0.286,0.494-0.413,0.809
			c-0.147,0.364-0.331,0.819-0.583,1.06c-0.395,0.376-0.408,1-0.034,1.394c0.194,0.203,0.454,0.305,0.714,0.305
			c0.244,0,0.489-0.091,0.68-0.272c0.56-0.534,0.843-1.235,1.05-1.747c0.059-0.143,0.103-0.269,0.153-0.354
			c0.339-0.426,0.257-1.029-0.17-1.367C49.112,15.93,48.48,16.016,48.142,16.442z"/>
		<path style="clip-path:url(#SVGID_2_);fill:#FAE7BB;" d="M49.777,20.08c-0.098,0.074-0.34,0.23-0.542,0.362
			c-0.183,0.12-0.34,0.224-0.389,0.261c-0.438,0.324-0.527,0.942-0.202,1.378c0.193,0.261,0.489,0.397,0.791,0.397
			c0.204,0,0.409-0.063,0.587-0.195c0.042-0.029,0.158-0.104,0.291-0.192c0.513-0.335,0.666-0.439,0.774-0.539
			c0.398-0.37,0.421-0.993,0.051-1.393C50.778,19.77,50.178,19.739,49.777,20.08z"/>
		<path style="clip-path:url(#SVGID_2_);fill:#FAE7BB;" d="M30.583,9.024c-0.486,0.242-0.686,0.834-0.443,1.321
			c0.861,1.732,2.459,6.082,2.728,7.969c0.07,0.491,0.492,0.847,0.975,0.847c0.046,0,0.093-0.004,0.14-0.01
			c0.539-0.077,0.914-0.577,0.837-1.114c-0.31-2.165-1.981-6.69-2.915-8.568C31.662,8.981,31.071,8.783,30.583,9.024z"/>
		<path style="clip-path:url(#SVGID_2_);fill:#FAE7BB;" d="M30.401,14.154c-0.66-1.966-1.16-3.408-1.602-4.074
			c-0.302-0.454-0.912-0.579-1.365-0.277c-0.453,0.301-0.577,0.913-0.277,1.365c0.333,0.502,0.961,2.374,1.375,3.612
			c0.33,0.982,0.615,1.832,0.824,2.294c0.164,0.364,0.522,0.579,0.898,0.579c0.135,0,0.273-0.028,0.404-0.088
			c0.496-0.224,0.716-0.809,0.492-1.304C30.983,15.89,30.7,15.047,30.401,14.154z"/>
		<path style="clip-path:url(#SVGID_2_);fill:#FAE7BB;" d="M26.604,14.179c-0.486-1.346-0.801-2.194-1.115-2.675
			c-0.299-0.456-0.911-0.582-1.363-0.285c-0.455,0.299-0.583,0.909-0.285,1.364c0.205,0.313,0.58,1.35,0.91,2.266
			c0.695,1.919,1.48,4.095,2.423,5.112c0.193,0.209,0.458,0.315,0.722,0.315c0.24,0,0.48-0.087,0.67-0.263
			c0.399-0.369,0.424-0.993,0.053-1.393C27.948,17.898,27.172,15.749,26.604,14.179z"/>
		<path style="clip-path:url(#SVGID_2_);fill:#FAE7BB;" d="M22.903,14.091c-0.031-0.543-0.478-0.958-1.04-0.928
			c-0.543,0.031-0.958,0.496-0.927,1.04c0.082,1.435,1.344,4.448,2.057,5.184c0.191,0.2,0.449,0.301,0.707,0.301
			c0.247,0,0.494-0.093,0.685-0.278c0.392-0.378,0.401-1.002,0.022-1.392C24.054,17.625,22.961,15.11,22.903,14.091z"/>
		<path style="clip-path:url(#SVGID_2_);fill:#FAE7BB;" d="M20.427,16.986c-0.182-0.513-0.746-0.778-1.258-0.602
			c-0.513,0.182-0.781,0.744-0.601,1.258c0.329,0.932,2.214,3.597,2.636,4.016c0.192,0.19,0.443,0.286,0.694,0.286
			c0.253,0,0.507-0.098,0.698-0.291c0.385-0.387,0.382-1.01-0.004-1.393C22.229,19.884,20.615,17.52,20.427,16.986z"/>
		<path style="clip-path:url(#SVGID_2_);fill:#FAE7BB;" d="M18.869,20.857c-0.296-0.459-0.906-0.589-1.362-0.292
			c-0.457,0.296-0.588,0.906-0.292,1.362c0.274,0.423,1.16,1.366,1.462,1.633c0.188,0.165,0.42,0.246,0.652,0.246
			c0.271,0,0.543-0.113,0.738-0.334c0.359-0.408,0.321-1.031-0.088-1.391C19.724,21.857,18.997,21.054,18.869,20.857z"/>
		<path style="clip-path:url(#SVGID_2_);fill:#FAE7BB;" d="M18.11,24.669c-0.48-0.258-1.076-0.083-1.337,0.395
			c-0.259,0.479-0.083,1.076,0.396,1.337c0.23,0.126,0.471,0.274,0.696,0.429c0.171,0.117,0.364,0.173,0.558,0.173
			c0.313,0,0.621-0.149,0.813-0.427c0.308-0.448,0.194-1.062-0.254-1.37C18.7,25.012,18.399,24.827,18.11,24.669z"/>
		<path style="clip-path:url(#SVGID_2_);fill:#FAE7BB;" d="M50.265,23.478c-0.542-0.074-1.022,0.302-1.097,0.841
			c-0.072,0.538,0.318,1.033,0.858,1.106c0.09,0.012,0.179,0.019,0.267,0.019c0.249,0,0.492-0.049,0.725-0.145
			c0.503-0.208,0.742-0.784,0.533-1.287C51.343,23.51,50.767,23.27,50.265,23.478z"/>
		<path style="clip-path:url(#SVGID_2_);fill:#FAE7BB;" d="M51.299,26.509c-0.572-0.142-1.132,0.05-1.457,0.502
			c-0.318,0.44-0.218,1.057,0.223,1.374c0.175,0.126,0.377,0.187,0.575,0.187c0.167,0,0.33-0.042,0.479-0.123
			c0.42-0.023,0.794-0.316,0.901-0.747C52.149,27.173,51.828,26.64,51.299,26.509z"/>
		<path style="clip-path:url(#SVGID_2_);fill:#261B18;" d="M28.724,31.426c-2.217-0.769-3.29,3.142-1.732,4.281
			c0.668-0.25,1.481-0.236,2.141,0.027C30.519,34.883,30.374,32,28.724,31.426z"/>
		<path style="clip-path:url(#SVGID_2_);fill:#261B18;" d="M47.669,31.617c-2.155-1.373-3.88,2.809-2.105,4.051
			c0.583-0.361,1.729-0.213,2.279,0.059C48.748,34.779,48.824,32.353,47.669,31.617z"/>
		<path style="opacity:0.7;clip-path:url(#SVGID_2_);fill:#E6D2C3;" d="M27.991,32.802c-0.85,0.359-0.063,2.006,0.742,1.329
			C29.316,33.64,28.749,32.483,27.991,32.802z"/>
		<path style="opacity:0.7;clip-path:url(#SVGID_2_);fill:#E6D2C3;" d="M46.697,32.52c-0.867,0.148-0.501,1.857,0.396,1.399
			C47.739,33.59,47.467,32.388,46.697,32.52z"/>
		<path style="clip-path:url(#SVGID_2_);fill:#FA9769;" d="M48.78,37.9c-0.579-0.889-1.858-1.033-2.776-1.016
			c-1.196,0.023-2.798,0.523-1.771,2.289c0.549,0.941,5.302,1.508,4.794-0.684C48.974,38.266,48.891,38.068,48.78,37.9z"/>
		<path style="clip-path:url(#SVGID_2_);fill:#FA9769;" d="M30.12,37.684c-0.874-0.814-2.338-0.688-3.357-0.469
			c-1.329,0.285-2.984,1.162-1.385,2.801c0.854,0.873,6.299,0.436,5.169-1.764C30.431,38.025,30.286,37.84,30.12,37.684z"/>
		<path style="clip-path:url(#SVGID_2_);fill:#1F1A17;" d="M46.959,31.308c-1.419-0.241-1.839,1.404-1.839,1.404
			s0.575-0.545,2.299-0.042c2.962,0.861,4.335-1.713,4.335-1.713C49.889,32.951,47.933,31.472,46.959,31.308z"/>
		<path style="clip-path:url(#SVGID_2_);fill:#1F1A17;" d="M28.036,31.308c-0.973,0.164-2.93,1.643-4.793-0.351
			c0,0,1.371,2.574,4.333,1.713c1.725-0.503,2.3,0.042,2.3,0.042S29.456,31.067,28.036,31.308z"/>
		<path style="opacity:0.3;clip-path:url(#SVGID_2_);fill:#BF3C1B;" d="M37.854,39.15c-0.887-0.002-1.234-0.379-1.859-0.047
			c-0.623,0.332,0.707,1.557,1.807,1.48c1.24-0.084,2.275-1.09,1.951-1.465C39.376,38.684,38.843,39.152,37.854,39.15z"/>
		<path style="clip-path:url(#SVGID_2_);fill:#694330;" d="M28.331,27.684c-3.073-0.54-4.369,1.636-4.572,1.698
			c0.451-0.139,0.898-0.224,1.318-0.36c2.237-0.724,4.744,1.346,6.145,0.752c0.479-0.204,1.037-0.561,1.123-1.071
			C30.775,29.18,29.716,27.927,28.331,27.684z"/>
		<path style="clip-path:url(#SVGID_2_);fill:#694330;" d="M46.493,27.808c-1.393,0.211-2.482,1.437-4.041,0.922
			c0.073,0.511,0.624,0.883,1.099,1.097c1.387,0.628,3.097-1.304,5.148-0.726c0.425,0.119,0.539,0.259,0.8,0.533
			C49.471,29.392,49.576,27.341,46.493,27.808z"/>
		<path style="clip-path:url(#SVGID_2_);fill:#DE6049;" d="M27.608,42.055c4.158,6.213,6.649,7.309,9.768,7.408
			c3.909,0.125,5.172-2.504,5.711-4.465c0.228-0.83,2.145-3.002,2.898-3.502c-2.416,0.631-4.819,0.398-8.486,0.615
			C34.467,42.291,30.037,43.293,27.608,42.055z"/>
		<path style="clip-path:url(#SVGID_2_);fill:#80221D;" d="M29.477,43.104c0,0,2.512,4.188,7.368,4.15
			c3.113-0.023,5.134-1.08,5.673-2.537c0.591-1.596,1.9-2.201,1.9-2.201C36.003,44.787,29.477,43.104,29.477,43.104z"/>
		<path style="clip-path:url(#SVGID_2_);fill:#FFF9F0;" d="M31.288,43.434c0,0,0.182,1.283,1.922,1.732
			c2.232,0.578,4.621,0.551,7.074,0.107c1.651-0.297,2.415-2.34,2.415-2.34S37.985,44.176,31.288,43.434z"/>
		<path style="clip-path:url(#SVGID_2_);fill:#FFF9F0;" d="M38.035,45.504c-2.22,0.141-4.068,0.043-5.198-0.629
			c-0.807-0.479-0.864,0.063-0.686,0.393c0,0,0.766,1.744,4.46,2.051c3.553,0.295,5.333-1.861,4.919-2.217
			C41.116,44.748,40.091,45.373,38.035,45.504z"/>
		<path style="clip-path:url(#SVGID_2_);fill:#E8DAC5;" d="M31.288,43.434c0,0,0.141,0.594,0.465,0.895c0,0,8.289-0.92,10.296-0.252
			c0,0,0.565-0.729,0.65-1.143C42.699,42.934,36.922,44.143,31.288,43.434z"/>
		<path style="clip-path:url(#SVGID_2_);fill:#E8DAC5;" d="M33.505,45.117c3.023,1.678,6.554,0.1,6.554,0.1
			C36.329,46.158,33.505,45.117,33.505,45.117z"/>
	</g>
</g>
<g id="Layer_1">
</g>
</svg>
