<?xml version="1.0" encoding="iso-8859-1"?>
<!-- Generator: Adobe Illustrator 16.0.0, SVG Export Plug-In . SVG Version: 6.00 Build 0)  -->
<!DOCTYPE svg PUBLIC "-//W3C//DTD SVG 1.1//EN" "http://www.w3.org/Graphics/SVG/1.1/DTD/svg11.dtd">
<svg version="1.1" xmlns="http://www.w3.org/2000/svg" xmlns:xlink="http://www.w3.org/1999/xlink" x="0px" y="0px"
	 width="66.002px" height="66px" viewBox="0 0 66.002 66" style="enable-background:new 0 0 66.002 66;" xml:space="preserve">
<g id="Layer_79">
	<g>
		<defs>
			<circle id="SVGID_1_" cx="33.002" cy="33" r="33"/>
		</defs>
		<clipPath id="SVGID_2_">
			<use xlink:href="#SVGID_1_"  style="overflow:visible;"/>
		</clipPath>
		<rect style="clip-path:url(#SVGID_2_);fill:#FFFFFF;" width="66" height="66"/>
		<path style="clip-path:url(#SVGID_2_);fill:#FCCB68;" d="M43.213,61.733c2.771-3.841,5.681-6.893,6.924-11.649
			c0.462-1.765,0.32-3.58,0.112-5.375c-0.418-3.603,0.05-6.732,0.831-10.227c0.742-3.318,0.568-6.972,0.43-10.372
			C50.783,6.233,27.854,2.35,19.373,12.722c-10.046,12.287-4.754,20.979-5.27,23.89c-0.778,4.397-3.252,7.839-2.598,11.429
			c1.004,5.513,6.225,6.114,2.426,13.46c2.216,0.697,5.065-1.266,6.394-3.172c1.551,3.481,4.4,6.38,7.953,7.672h8.44
			C39.334,65.18,41.798,63.696,43.213,61.733z"/>
		<path style="clip-path:url(#SVGID_2_);fill:#EEA54C;" d="M20.565,34.888c-2.775,6.106-3.548,12.802-0.542,17.505
			c3.899,6.102,10.074,7.74,16.82,5.549c6.489-2.107,8.905-8.082,10.771-14.123c1.949-6.314,2.737-12.176-0.698-18.105
			C39.515,12.937,26.082,22.75,20.565,34.888z"/>
		<path style="clip-path:url(#SVGID_2_);fill:#FFAE6D;" d="M29.362,59.32c0.727-0.25,1.874-2.34,1.49-3.037
			s-0.764-1.027-1.479-0.738C25.41,57.146,24.51,60.391,24.254,66h2.882C27.385,63.785,27.154,60.08,29.362,59.32z"/>
		<path style="clip-path:url(#SVGID_2_);fill:#FFAE6D;" d="M38.213,55.297c-0.717-0.296-1.097,0.043-1.479,0.756
			c-0.384,0.714,0.763,2.854,1.489,3.109C40.431,59.939,40.2,63.733,40.45,66h2.881C43.076,60.258,42.175,56.936,38.213,55.297z"/>
		<path style="clip-path:url(#SVGID_2_);fill:#EBEBEB;" d="M39.999,62.23c0.611-2.152,0.685-5.455-1.343-6.707
			c-2.481-1.533-6.771-1.304-9.453,0.052c-2.04,1.031-2.855,2.075-1.408,6.3c0.503,1.47,0.925,2.877,1.127,4.125h10.223
			C39.294,64.968,39.567,63.752,39.999,62.23z"/>
		<path style="clip-path:url(#SVGID_2_);fill:#FFAE6D;" d="M27.652,61.435c1.376-1.657,1.381-3.985,1.453-5.808
			C27.097,56.496,26.275,57.678,27.652,61.435z"/>
		<path style="clip-path:url(#SVGID_2_);fill:#FFAE6D;" d="M38.656,55.523c-0.336-0.207-0.708-0.377-1.101-0.521
			c1.185,2.055,1.07,4.788,2.729,5.846C40.787,58.795,40.289,56.531,38.656,55.523z"/>
		<linearGradient id="SVGID_3_" gradientUnits="userSpaceOnUse" x1="34.0205" y1="52.9707" x2="33.8778" y2="56.6495">
			<stop  offset="0" style="stop-color:#EE996D"/>
			<stop  offset="0.0629" style="stop-color:#F09B6D"/>
			<stop  offset="0.5645" style="stop-color:#FBA96D"/>
			<stop  offset="1" style="stop-color:#FFAE6D"/>
		</linearGradient>
		<path style="clip-path:url(#SVGID_2_);fill:url(#SVGID_3_);" d="M36.712,55.179c-0.464-0.956-0.057-2.403,0.033-3.978
			c0.206-3.57-5.961-3.703-5.953,0.193c0.001,1.727,0.05,2.996-0.226,3.602c-0.115,0.254,0.104,3.336,0.264,5.133
			c0.826-0.337,1.916-0.357,2.963-0.384c1.514-0.038,2.604-0.086,3.354,0.13C37.137,58.232,36.979,55.729,36.712,55.179z"/>
		<path style="clip-path:url(#SVGID_2_);fill:#FFAE6D;" d="M31.424,15.639c-7.715,1.364-13.328,12.323-12.099,22.72
			c0.912,7.714,7.473,16.031,15.403,15.529c9.539-0.605,14.354-11.842,13.377-21.005C46.994,22.475,42.229,13.731,31.424,15.639z"/>
		<path style="opacity:0.2;clip-path:url(#SVGID_2_);fill:#C4170E;" d="M44.881,18.764c-4.157-1.736-8.201-2.766-12.79-2.962
			c-2.806-0.12-6.573-0.363-9.221,0.724c-5.656,2.322-5.247,7.253-5.392,12.188c-0.073,2.531-1.119,4.854-0.478,7.379
			c0.304,1.197,1.042,2.725,2.457,2.795c1.729,0.086,2.29-2.164,2.907-3.393c1.59-3.162,4.538-5.196,7.51-6.936
			c0.766-0.449,1.637-0.867,2.513-1.313c2.158-1.099,4.354-2.366,5.116-4.661c1.498,2.399,8.63,7.361,11.313,4.415
			C50.968,24.642,47.134,19.706,44.881,18.764z"/>
		<path style="clip-path:url(#SVGID_2_);fill:#FCCB68;" d="M42.635,13.706c-4.189-3.681-9.727-3.748-14.973-2.937
			c-3.456,0.534-6.458,2.979-8.509,5.7c-2.282,3.027-2.88,5.846-3.257,9.597c-0.242,2.41,0.077,5.535,0.311,7.995
			c0.123,1.289,0.163,5.396,1.846,5.846c1.982,0.526,2.878-5.647,3.735-6.861c1.974-2.793,4.954-4.646,8.094-6.049
			c2.937-1.312,6.346-2.985,7.515-6.256c2.306,2.321,6.734,6.112,10.296,5.923c2.855-0.151,1.461-3.596,0.771-5.354
			C47.302,18.354,44.845,15.648,42.635,13.706z"/>
		<path style="clip-path:url(#SVGID_2_);fill:#FFE496;" d="M31.136,8.607c-5.32,0.266-10.712,3.985-13.073,8.841
			c-0.854,1.755-2.41,5.383-2.115,7.379c0.178,1.194,0.932,1.973,2.11,2.201c0.773,0.15,3.604-0.464,3.788-1.453
			c-0.22,1.181-1.243,2.168-1.649,3.339c4.438-0.923,9.222-2.736,12.789-5.656c0.598-0.49,4.663-4.538,4.013-5.338
			c3.344,4.13,8.278,5.696,13.21,3.872C48.705,11.641,38.221,8.254,31.136,8.607z"/>
		<path style="clip-path:url(#SVGID_2_);fill:#FFE496;" d="M16.449,41.094c-3.486,2.24-5.025,10.241,0.729,9.193
			C15.951,46.945,16.449,41.094,16.449,41.094z"/>
		<path style="opacity:0.5;clip-path:url(#SVGID_2_);fill:#FF7752;" d="M46.832,36.711c-0.604-0.872-1.895-1.048-2.819-1.059
			c-1.205-0.014-2.81,0.416-1.737,2.14c0.573,0.917,5.376,1.604,4.816-0.509C47.035,37.066,46.945,36.877,46.832,36.711z"/>
		<path style="opacity:0.5;clip-path:url(#SVGID_2_);fill:#FF7752;" d="M28.458,36.334c-0.84-0.727-2.199-0.566-3.142-0.335
			c-1.228,0.302-2.743,1.16-1.2,2.626c0.822,0.783,5.882,0.22,4.76-1.779C28.758,36.641,28.619,36.472,28.458,36.334z"/>
		<path style="opacity:0.2;clip-path:url(#SVGID_2_);fill:#BA5124;" d="M36.064,37.959c-0.992,0.062-1.035-0.385-1.697,0.041
			c-0.661,0.422,0.051,1.66,1.804,1.511c1.745-0.149,2.41-1.319,2.009-1.725C37.717,37.316,37.164,37.891,36.064,37.959z"/>
		<path style="clip-path:url(#SVGID_2_);fill:#1E4C76;" d="M45.292,31.372c-2.737-1.168-5.235,2.209-3.267,3.966
			c0.396-0.43,2.541-1.122,3.865-0.123C47.015,34.409,46.758,31.999,45.292,31.372z"/>
		<path style="clip-path:url(#SVGID_2_);fill:#9CD0FF;" d="M44.109,31.877c-1.273,0.399-0.672,2.846,0.632,1.986
			C45.684,33.246,45.242,31.525,44.109,31.877z"/>
		<path style="clip-path:url(#SVGID_2_);fill:#1E4C76;" d="M24.902,31.593c-1.447,0.67-1.635,3.087-0.486,3.859
			c1.294-1.038,3.458-0.407,3.865,0.011C30.199,33.649,27.604,30.346,24.902,31.593z"/>
		<path style="clip-path:url(#SVGID_2_);fill:#9CD0FF;" d="M26.609,31.98c-1.143-0.318-1.534,1.414-0.573,2.004
			C27.364,34.806,27.895,32.343,26.609,31.98z"/>
		<path style="clip-path:url(#SVGID_2_);fill:#6E4C3C;" d="M28.725,28.278c-1.361-0.058-2.657-0.066-4.014,0.232
			c-0.844,0.186-1.863,0.573-2.528,1.083c-0.223,0.173-0.5,0.476-0.487,0.743c0.221,0.035,0.389-0.104,0.592-0.161
			c1.027-0.286,2.107-0.316,3.158-0.337c0.822-0.016,1.637,0.042,2.456,0.003c0.551-0.023,1.299,0.088,1.597-0.448
			C29.874,28.716,29.456,28.309,28.725,28.278z"/>
		<path style="clip-path:url(#SVGID_2_);fill:#6E4C3C;" d="M47.48,29.212c-0.654-0.465-1.653-0.798-2.477-0.946
			c-1.327-0.236-2.587-0.175-3.912-0.068c-0.716,0.058-1.115,0.467-0.741,1.104c0.298,0.505,1.027,0.37,1.562,0.371
			c0.801,0.003,1.594-0.083,2.393-0.099c1.024-0.022,2.08-0.034,3.082,0.202c0.199,0.047,0.364,0.173,0.579,0.132
			C47.975,29.649,47.702,29.37,47.48,29.212z"/>
		<path style="clip-path:url(#SVGID_2_);fill:#121B21;" d="M44.746,30.903c-2.523-0.458-3.237,2.026-3.237,2.026
			s1.223-1.573,2.861-0.875c3.72,1.587,5.687-1.051,5.687-1.051C47.401,32.246,46.038,31.138,44.746,30.903z"/>
		<path style="clip-path:url(#SVGID_2_);fill:#121B21;" d="M25.538,31.179c-1.288,0.249-2.642,1.371-5.309,0.158
			c0,0,1.995,2.616,5.696,0.99c1.633-0.717,2.871,0.844,2.871,0.844S28.057,30.694,25.538,31.179z"/>
		<path style="clip-path:url(#SVGID_2_);fill:#FF3B3B;" d="M24.832,41.32c4.308,6.329,6.924,7.469,10.219,7.612
			c4.131,0.178,5.502-2.459,6.1-4.431c0.253-0.834,2.312-3,3.114-3.496c-2.564,0.605-5.1,0.339-8.979,0.508
			C32.078,41.654,27.382,42.605,24.832,41.32z"/>
		<path style="clip-path:url(#SVGID_2_);fill:#A80A0A;" d="M26.791,42.406c0,0,2.597,4.261,7.73,4.29
			c3.29,0.017,5.441-1.022,6.031-2.486c0.646-1.601,2.039-2.194,2.039-2.194C33.665,44.193,26.791,42.406,26.791,42.406z"/>
		<path style="clip-path:url(#SVGID_2_);fill:#FFF9F0;" d="M28.702,42.764c0,0,0.173,1.297,2.007,1.774
			c2.352,0.612,4.876,0.618,7.475,0.204c1.751-0.277,2.587-2.329,2.587-2.329S35.771,43.604,28.702,42.764z"/>
		<path style="clip-path:url(#SVGID_2_);fill:#FFF9F0;" d="M35.803,44.944c-2.348,0.112-4.301-0.011-5.484-0.705
			c-0.845-0.493-0.914,0.051-0.729,0.388c0,0,0.783,1.771,4.685,2.129c3.752,0.345,5.662-1.807,5.23-2.17
			C39.071,44.223,37.979,44.84,35.803,44.944z"/>
		<path style="clip-path:url(#SVGID_2_);fill:#E8DAC5;" d="M28.702,42.764c0,0,0.14,0.601,0.479,0.91c0,0,8.775-0.816,10.885-0.117
			c0,0,0.609-0.726,0.705-1.144C40.771,42.413,34.646,43.557,28.702,42.764z"/>
		<path style="clip-path:url(#SVGID_2_);fill:#E8DAC5;" d="M31.021,44.492c3.173,1.735,6.925,0.189,6.925,0.189
			C33.992,45.582,31.021,44.492,31.021,44.492z"/>
		<path style="opacity:0.1;clip-path:url(#SVGID_2_);fill:#C4170E;" d="M39.497,37.895c-0.718-0.598-0.961-1.714-1.199-2.569
			c-0.303-1.097-0.219-2.314-1.738-2.15c-1.262,0.139-2.201,1.102-2.52,2.298c-0.505,1.9-1.197,2.679-2.865,3.632
			c-1.531,0.875-3.155,1.263-4.906,1.375c-2.435,0.152-4.447-0.539-6.193-2.351c-1.086-1.125-1.294-2.833-1.673-4.286
			c-0.242-0.931-0.302-2.103-0.943-2.873c-0.786-0.938-1.595-0.038-1.862,0.844c-0.606,1.983,0.641,4.48,1.409,6.236
			c0.735,1.679,1.33,2.96,3.11,3.783c1.641,0.76,3.704,1.08,5.396,0.31c1.001-0.453,1.73-0.66,2.827-0.809
			c3.23-0.434,5.338-1.704,6.299-4.011c0.587-1.408,0.418-2.872,1.464-2.925c0.715-0.038,0.64,0.757,0.906,1.565
			c0.948,2.871,2.87,4.078,7.367,5.271c0.917,0.244,2.213,0.499,2.631,1.48c0.297-0.428,0.552-0.903,0.729-1.372
			c0.176-0.461,0.605-1.102,0.706-1.546c0.064-0.288,0.245-0.565,0.26-0.862c-0.729,0.461-1.656,0.574-2.505,0.549
			C44.233,39.426,41.103,39.24,39.497,37.895z"/>
		<linearGradient id="SVGID_4_" gradientUnits="userSpaceOnUse" x1="34.6055" y1="33.7734" x2="37.7871" y2="33.7734">
			<stop  offset="0" style="stop-color:#B89377"/>
			<stop  offset="0.139" style="stop-color:#C59E83"/>
			<stop  offset="0.4374" style="stop-color:#DAB297"/>
			<stop  offset="0.728" style="stop-color:#E7BDA3"/>
			<stop  offset="1" style="stop-color:#EBC1A7"/>
		</linearGradient>
		<path style="clip-path:url(#SVGID_2_);fill:url(#SVGID_4_);" d="M36.196,32.584c0,0-0.833-0.026-1.209,0.231
			c-0.229,0.156-0.774,1.612,0.09,2.148c0.246-0.753,0.733-0.837,1.119-0.841c0.384,0,0.872,0.081,1.117,0.828
			c0.867-0.544,0.32-1.985,0.094-2.139C37.027,32.554,36.196,32.584,36.196,32.584z"/>
		<linearGradient id="SVGID_5_" gradientUnits="userSpaceOnUse" x1="15.6353" y1="35.7363" x2="15.6353" y2="31.0046">
			<stop  offset="0" style="stop-color:#B89377"/>
			<stop  offset="0.139" style="stop-color:#C59E83"/>
			<stop  offset="0.4374" style="stop-color:#DAB297"/>
			<stop  offset="0.728" style="stop-color:#E7BDA3"/>
			<stop  offset="1" style="stop-color:#EBC1A7"/>
		</linearGradient>
		<path style="clip-path:url(#SVGID_2_);fill:url(#SVGID_5_);" d="M14.983,32.164c-0.378,0.077-0.61,0.444-0.481,0.753
			c0.17,0.411,0.773,1.859,0.915,2.198c0.141,0.34,0.86,0.318,1.388,0.26l-0.89-3.326C15.818,32.06,15.11,32.138,14.983,32.164z"/>
		<linearGradient id="SVGID_6_" gradientUnits="userSpaceOnUse" x1="15.5332" y1="35.4727" x2="15.5332" y2="31.2305">
			<stop  offset="0" style="stop-color:#F2EBE6"/>
			<stop  offset="0.2029" style="stop-color:#F9F5F3"/>
			<stop  offset="0.4777" style="stop-color:#FDFDFC"/>
			<stop  offset="0.8548" style="stop-color:#FFFFFF"/>
		</linearGradient>
		<path style="opacity:0.6;clip-path:url(#SVGID_2_);fill:url(#SVGID_6_);" d="M14.867,32.253c-0.35,0.063-0.552,0.385-0.425,0.664
			c0.174,0.372,0.778,1.681,0.921,1.983c0.142,0.307,0.81,0.3,1.299,0.256l-0.931-2.99C15.641,32.174,14.984,32.233,14.867,32.253z"
			/>
		<linearGradient id="SVGID_7_" gradientUnits="userSpaceOnUse" x1="25.2524" y1="41.2842" x2="25.2524" y2="25.3049">
			<stop  offset="0" style="stop-color:#B89377"/>
			<stop  offset="0.139" style="stop-color:#C59E83"/>
			<stop  offset="0.4374" style="stop-color:#DAB297"/>
			<stop  offset="0.728" style="stop-color:#E7BDA3"/>
			<stop  offset="1" style="stop-color:#EBC1A7"/>
		</linearGradient>
		<path style="clip-path:url(#SVGID_2_);fill:url(#SVGID_7_);" d="M17.351,26.382c-4.633,2.727-0.333,12.807,3.744,14.388
			c4.004,1.531,11.042-0.594,13.07-3.219c1.783-2.271,1.152-6.755-1.755-9.171C29.403,25.87,22.011,23.7,17.351,26.382z
			 M32.475,37.205c-1.646,1.844-6.996,2.967-9.899,1.545c-2.951-1.461-5.604-9.262-2.008-11.01
			c3.606-1.726,9.733,0.857,11.331,2.433C33.442,31.699,33.916,35.602,32.475,37.205z"/>
		<linearGradient id="SVGID_8_" gradientUnits="userSpaceOnUse" x1="25.0649" y1="41.0439" x2="25.0649" y2="24.9632">
			<stop  offset="0" style="stop-color:#F2EBE6"/>
			<stop  offset="0.3776" style="stop-color:#F9F5F3"/>
			<stop  offset="0.7957" style="stop-color:#FFFDFD"/>
		</linearGradient>
		<path style="clip-path:url(#SVGID_2_);fill:url(#SVGID_8_);" d="M32.263,28.184c-2.417-2.038-7.087-3.597-11.67-3.175
			c-1.396,0.129-2.598,0.479-3.565,1.045c-2.133,1.255-2.036,4.047-1.79,5.6c0.609,3.84,3.25,8.039,5.644,8.975
			c1.306,0.508,3.024,0.646,4.972,0.402c0,0,0,0,0.002-0.002c3.465-0.437,6.912-1.973,8.2-3.647
			C35.855,35.069,35.06,30.528,32.263,28.184z M32.717,37.336c-0.944,1.051-3.049,1.92-5.364,2.207
			c-1.949,0.24-3.718,0.035-4.993-0.589c-1.876-0.923-3.676-4.209-3.921-7.169c-0.178-2.129,0.493-3.674,1.887-4.345
			c0.622-0.298,1.345-0.487,2.147-0.565c3.581-0.344,8.182,1.624,9.65,3.069C33.724,31.515,34.293,35.592,32.717,37.336z"/>
		<linearGradient id="SVGID_9_" gradientUnits="userSpaceOnUse" x1="26.0835" y1="39.6221" x2="26.0835" y2="27.0724">
			<stop  offset="0" style="stop-color:#D63600"/>
			<stop  offset="0.1431" style="stop-color:#D53000"/>
			<stop  offset="0.6128" style="stop-color:#D22100"/>
			<stop  offset="1" style="stop-color:#D11C00"/>
		</linearGradient>
		<path style="opacity:0.45;clip-path:url(#SVGID_2_);fill:url(#SVGID_9_);" d="M20.362,27.542
			c-3.727,1.809-0.977,9.902,2.085,11.416c3.007,1.473,8.55,0.307,10.255-1.608c1.495-1.659,1.009-5.701-0.596-7.282
			C30.453,28.434,24.104,25.755,20.362,27.542z"/>
		<path style="opacity:0.5;clip-path:url(#SVGID_2_);fill:#FFFFFF;" d="M31.74,30.184c-1.545-1.495-7.485-3.937-10.994-2.279
			c-1.653,0.785-1.959,2.859-1.516,4.977c0.492,2.367,14.111,0.674,13.509-1.026C32.503,31.186,32.164,30.595,31.74,30.184z"/>
		<path style="clip-path:url(#SVGID_2_);fill:#FFFFFF;" d="M20.754,27.834c-2.281,1.122-1.97,4.797-0.681,7.623
			c-1.231-2.805-0.681-5.368,1.558-6.47c3.511-1.705,8.666-0.149,10.222,1.413c0.309,0.308,0.571,0.715,0.785,1.18
			c-0.224-0.524-0.51-0.985-0.85-1.327C30.231,28.69,24.263,26.129,20.754,27.834z"/>
		<linearGradient id="SVGID_10_" gradientUnits="userSpaceOnUse" x1="46.124" y1="40.4365" x2="46.124" y2="25.273">
			<stop  offset="0" style="stop-color:#B89377"/>
			<stop  offset="0.139" style="stop-color:#C59E83"/>
			<stop  offset="0.4374" style="stop-color:#DAB297"/>
			<stop  offset="0.728" style="stop-color:#E7BDA3"/>
			<stop  offset="1" style="stop-color:#EBC1A7"/>
		</linearGradient>
		<path style="clip-path:url(#SVGID_2_);fill:url(#SVGID_10_);" d="M53.242,26.318c-4.302-2.578-11.013-0.535-13.724,1.954
			c-2.632,2.457-3.147,6.937-1.477,9.093c1.907,2.447,8.426,4.048,12.08,2.396C53.83,38.12,57.534,28.851,53.242,26.318z
			 M48.903,37.977c-2.641,1.476-7.583,0.691-9.125-1.016c-1.351-1.507-0.973-5.369,0.422-6.907
			c1.436-1.571,6.992-4.094,10.319-2.447C53.841,29.232,51.58,36.5,48.903,37.977z"/>
		<linearGradient id="SVGID_11_" gradientUnits="userSpaceOnUse" x1="53.2939" y1="35.9238" x2="39.7798" y2="28.5203">
			<stop  offset="0" style="stop-color:#F2EBE6"/>
			<stop  offset="0.3776" style="stop-color:#F9F5F3"/>
			<stop  offset="0.7957" style="stop-color:#FFFDFD"/>
		</linearGradient>
		<path style="clip-path:url(#SVGID_2_);fill:url(#SVGID_11_);" d="M53.438,25.981c-0.892-0.537-1.989-0.879-3.262-1.013
			c-4.169-0.439-8.387,1.064-10.554,3.088c-2.517,2.379-3.179,6.925-1.495,9.123c1.203,1.567,4.388,2.855,7.572,3.069
			c1.791,0.121,3.362-0.102,4.547-0.641c2.169-0.978,4.481-4.922,4.947-8.45C55.382,29.729,55.404,27.159,53.438,25.981z
			 M52.548,31.352c-0.16,2.732-1.728,5.822-3.42,6.756c-1.147,0.641-2.758,0.925-4.54,0.798c-2.118-0.148-4.053-0.871-4.93-1.846
			c-1.462-1.628-1.003-5.654,0.434-7.237c1.311-1.435,5.451-3.371,8.702-3.04c0.727,0.074,1.385,0.255,1.956,0.538
			C52.024,27.948,52.665,29.379,52.548,31.352z"/>
		<linearGradient id="SVGID_12_" gradientUnits="userSpaceOnUse" x1="45.5605" y1="38.9717" x2="45.5605" y2="26.9791">
			<stop  offset="0" style="stop-color:#D63600"/>
			<stop  offset="0.1431" style="stop-color:#D53000"/>
			<stop  offset="0.6128" style="stop-color:#D22100"/>
			<stop  offset="1" style="stop-color:#D11C00"/>
		</linearGradient>
		<path style="opacity:0.45;clip-path:url(#SVGID_2_);fill:url(#SVGID_12_);" d="M50.702,27.419
			c-3.447-1.708-9.207,0.906-10.696,2.534c-1.445,1.594-1.833,5.602-0.434,7.16c1.598,1.771,6.719,2.58,9.455,1.053
			C51.803,36.635,54.145,29.106,50.702,27.419z"/>
		<path style="opacity:0.5;clip-path:url(#SVGID_2_);fill:#FFFFFF;" d="M50.647,27.767c-3.188-1.548-8.499,0.797-9.867,2.264
			c-0.378,0.402-0.677,0.981-0.881,1.635c-0.52,1.661,11.815,2.823,12.213,0.653C52.467,30.382,52.15,28.489,50.647,27.767z"/>
		<path style="clip-path:url(#SVGID_2_);fill:#FFFFFF;" d="M50.639,27.704c-3.188-1.595-8.521,0.865-9.901,2.39
			c-0.303,0.338-0.554,0.79-0.751,1.303c0.188-0.455,0.42-0.855,0.693-1.161c1.382-1.527,6.017-3.282,9.205-1.688
			c2.038,1.01,2.574,3.555,1.52,6.141C52.51,32.083,52.713,28.729,50.639,27.704z"/>
		<linearGradient id="SVGID_13_" gradientUnits="userSpaceOnUse" x1="36.1348" y1="39.5576" x2="36.1348" y2="24.0596">
			<stop  offset="0" style="stop-color:#F2EBE6"/>
			<stop  offset="0.3776" style="stop-color:#F9F5F3"/>
			<stop  offset="0.7957" style="stop-color:#FFFDFD"/>
		</linearGradient>
		<path style="clip-path:url(#SVGID_2_);fill:url(#SVGID_13_);" d="M37.305,32.796c-0.364-0.19-1.162-0.165-1.162-0.165
			s-0.8-0.013-1.167,0.187c-0.218,0.12-0.751,1.231,0.08,1.633c0.24-0.575,0.706-0.643,1.078-0.646
			c0.368-0.005,0.838,0.053,1.07,0.621C38.039,34.007,37.521,32.913,37.305,32.796z"/>
	</g>
</g>
<g id="Layer_1">
</g>
</svg>
