<?xml version="1.0" encoding="iso-8859-1"?>
<!-- Generator: Adobe Illustrator 16.0.0, SVG Export Plug-In . SVG Version: 6.00 Build 0)  -->
<!DOCTYPE svg PUBLIC "-//W3C//DTD SVG 1.1//EN" "http://www.w3.org/Graphics/SVG/1.1/DTD/svg11.dtd">
<svg version="1.1" xmlns="http://www.w3.org/2000/svg" xmlns:xlink="http://www.w3.org/1999/xlink" x="0px" y="0px" width="66.01px"
	 height="66px" viewBox="0 0 66.01 66" style="enable-background:new 0 0 66.01 66;" xml:space="preserve">
<g id="Layer_35">
	<g>
		<defs>
			<circle id="SVGID_1_" cx="33.01" cy="33" r="33"/>
		</defs>
		<clipPath id="SVGID_2_">
			<use xlink:href="#SVGID_1_"  style="overflow:visible;"/>
		</clipPath>
		<rect style="clip-path:url(#SVGID_2_);fill:#7997A0;" width="66" height="65.999"/>
		<path style="clip-path:url(#SVGID_2_);fill:#E0E0E0;" d="M40.757,52.386c-3.343-1.229-11.07-1.714-15.079,0
			c-2.158,0.923-1.86,7.752-1.557,13.613h18.16C42.547,60.083,42.872,53.163,40.757,52.386z"/>
		<path style="clip-path:url(#SVGID_2_);fill:#EBEBEB;" d="M26.773,52.402c-0.771,2.885,6.42,5.939,6.42,5.939
			s8.133-3.285,6.096-6.479C37.46,48.992,27.687,48.982,26.773,52.402z"/>
		<path style="clip-path:url(#SVGID_2_);fill:#F2B081;" d="M31.293,47.003c-1.89,0.415-3.145,2.21-3.274,4.059
			c-0.102,1.433,0.128,2.263,0.927,3.056c0.578,0.575,1.601,1.277,2.599,1.748c0.658,0.31,1.688,0.58,1.902,0.584
			c0.088,0.001,0.621-0.205,1.277-0.545c0.961-0.495,2.322-1.149,2.851-2.187c0.775-1.516,1.467-4.519,0.002-5.697
			C36.061,46.801,33.104,46.605,31.293,47.003z"/>
		<path style="clip-path:url(#SVGID_2_);fill:#E0E0E0;" d="M25.628,52.387c-5.078,2.489-7.24,5.654-10.096,10.868
			c0.847,0.915,3.241,2.106,5.399,2.744h3.104C24.67,60.338,27.055,51.687,25.628,52.387z"/>
		<path style="clip-path:url(#SVGID_2_);fill:#EBEBEB;" d="M15.855,62.438l-0.877,1.574c1.566,0.89,2.925,1.518,4.18,1.987h4.965
			l-0.021-0.41C21.536,65.197,19.438,64.474,15.855,62.438z"/>
		<path style="opacity:0.1;clip-path:url(#SVGID_2_);" d="M23.599,63.515c-0.021-0.349-1.491-2.3-1.779-1.909
			c-0.424,0.571,1.647,3.162,2.283,3.983c0,0,0.471-6.999,0.036-6.984C22.729,58.651,23.559,62.703,23.599,63.515z"/>
		<path style="clip-path:url(#SVGID_2_);fill:#E0E0E0;" d="M40.759,52.387c-1.427-0.7,0.958,7.951,1.592,13.612h3.104
			c2.158-0.638,4.553-1.829,5.399-2.744C47.999,58.041,45.837,54.876,40.759,52.387z"/>
		<path style="clip-path:url(#SVGID_2_);fill:#EBEBEB;" d="M50.534,62.438c-3.573,2.036-5.69,2.76-8.25,3.151l-0.015,0.41h4.972
			c1.251-0.471,2.605-1.098,4.167-1.987L50.534,62.438z"/>
		<path style="opacity:0.1;clip-path:url(#SVGID_2_);" d="M42.788,63.515c0.04-0.812,0.869-4.863-0.54-4.91
			c-0.435-0.015,0.036,6.984,0.036,6.984c0.636-0.821,2.707-3.412,2.283-3.983C44.279,61.215,42.81,63.166,42.788,63.515z"/>
		<path style="clip-path:url(#SVGID_2_);fill:#322B2A;" d="M31.581,9.923c-3.353,0.081-6.525,0.995-9.326,2.853
			c-1.367,0.905-2.655,2.529-3.224,4.076c-0.28,0.767-0.749,1.388-1.096,2.112c-0.528,1.105-2.852,6.938-2.965,9.003
			c-0.048,0.896-0.029,3.693,0.073,4.56c0.202,1.736,0.755,3.557,1.965,4.881c0.472,0.516,1.113,0.739,1.814,0.631
			c4.354-0.673,8.648-1.659,12.973-2.49c4.024-0.771,8.386,0.228,12.435,0.726c3.17,0.389,3.192-0.961,3.49-3.53
			c0.555-4.789,0.118-6.582,0.458-8.512C49.627,16.026,43.317,9.64,31.581,9.923z"/>
		<path style="clip-path:url(#SVGID_2_);fill:#FFCB9E;" d="M31.953,15.987c-7.582,1.055-13.458,11.552-12.635,21.747
			c0.618,7.636,6.01,16.272,14.851,16.127c9.02-0.149,14.099-11.049,13.448-20.434C46.911,23.226,42.572,14.516,31.953,15.987z"/>
		<path style="clip-path:url(#SVGID_2_);fill:#1B2C33;" d="M28.231,31.583c-1.886-0.937-3.29,2.427-2.033,3.62
			c0.625-0.146,1.348-0.041,1.907,0.265C29.438,34.87,29.638,32.283,28.231,31.583z"/>
		<path style="opacity:0.3;clip-path:url(#SVGID_2_);fill:#C94614;" d="M36.694,38.515c-0.988-0.019-1.387-0.306-2.074-0.071
			c-0.686,0.236,0.19,1.289,1.941,1.297c1.741,0.007,2.613-0.928,2.245-1.211C38.378,38.198,37.792,38.536,36.694,38.515z"/>
		<path style="clip-path:url(#SVGID_2_);fill:#FFE1C7;" d="M36.41,34.556c-0.862-0.001-1.162,1.631-1.521,2.391
			c-0.364,0.771-0.623,1.488-0.185,1.737c1.076,0.606,3.41,0.345,4.108-0.056c0.274-0.16-0.29-0.982-0.721-1.8
			C37.711,36.102,37.385,34.553,36.41,34.556z"/>
		<path style="clip-path:url(#SVGID_2_);fill:#1B2C33;" d="M44.938,32.366c-1.903-1.289-3.556,2.429-1.99,3.589
			c0.529-0.313,1.557-0.15,2.045,0.109C45.828,35.234,45.955,33.059,44.938,32.366z"/>
		<path style="clip-path:url(#SVGID_2_);fill:#A5ABB8;" d="M28.018,33.087c-0.8,0.223-0.284,1.779,0.51,1.267
			C29.101,33.98,28.727,32.887,28.018,33.087z"/>
		<path style="clip-path:url(#SVGID_2_);fill:#A5ABB8;" d="M44.649,33.677c-0.782,0.115-0.492,1.657,0.322,1.269
			C45.561,34.665,45.346,33.576,44.649,33.677z"/>
		<path style="clip-path:url(#SVGID_2_);fill:#FFCB9E;" d="M16.935,33.375c-3.743,0.814-2.557,6.273,0.392,7.516
			c0.946,0.399,1.968,0.504,2.959,0.486c0.02-0.029,0.042-0.055,0.063-0.087c0.48-0.675-0.111-4.297-0.296-5.049
			C19.584,34.353,18.727,32.984,16.935,33.375z"/>
		<path style="opacity:0.3;clip-path:url(#SVGID_2_);fill:#C94614;" d="M18.116,35.426c-0.807-0.426-2.91,0.149-2.027,1.82
			c0.595-1.475,1.454-0.44,1.256,0.619c-0.133,0.71-0.9,0.678-0.188,1.639c0.386,0.52,1.233,0.381,1.669,0.138
			C20.214,38.869,19.101,35.944,18.116,35.426z"/>
		<path style="clip-path:url(#SVGID_2_);fill:#322B2A;" d="M45.937,16.434c-2.265-2.981-5.363-5.154-9.053-5.938
			c-2.263-0.479-4.636-0.35-6.886,0.15c-3.313,0.735-5.271,2.016-7.952,4.113c-3.113,2.434-3.947,5.432-4.217,9.255
			c-0.197,2.78,0.771,5.405,0.733,8.142c-0.025,1.641,0.822,3.707,1.31,4.418c0.396,0.222,1.287,0.271,2.012,0.122
			c-1.278-1.32-1.641-4.746-0.391-7.875c0.524-1.316,1.001-2.477,1.358-3.859c0.244-0.939,0.37-1.607,1.446-1.629
			c1.475-0.03,2.273,1.375,3.624,1.635c0.462,0.09,0.951,0.145,1.421,0.197c1.418,0.166,2.901,0.202,4.329,0.15
			c1.99-0.07,3.952-0.017,5.945-0.013c1.436,0.003,2.834,0.121,4.268,0.034c0.049-0.002,0.097-0.005,0.146-0.007
			c1.051-0.044,2.265,0.087,3.171-0.524c1.068-0.719,1.717-2.325,1.399-3.571C48.157,19.497,47.007,17.842,45.937,16.434z"/>
		<path style="clip-path:url(#SVGID_2_);fill:#322B2A;" d="M27.295,27.846c-1.362,0.193-2.846,1.108-3.326,2.372
			c-0.117,0.309,0.134,0.853,0.713,0.571c0.873-0.427,1.737-0.869,2.724-0.995c0.984-0.125,1.982-0.015,2.913,0.304
			c0.563,0.195,1.171-0.359,0.818-0.983C30.509,28.005,28.417,27.684,27.295,27.846z"/>
		<path style="clip-path:url(#SVGID_2_);fill:#322B2A;" d="M44.415,28.433c-1.018-0.05-3.069,0.565-3.529,1.578
			c-0.259,0.568,0.333,0.998,0.819,0.786c0.801-0.348,1.755-0.701,2.646-0.67c0.894,0.03,1.635,0.525,2.452,0.826
			c0.541,0.198,0.719-0.291,0.588-0.549C46.848,29.348,45.649,28.493,44.415,28.433z"/>
		<path style="clip-path:url(#SVGID_2_);fill:#FFE1C7;" d="M46.293,37.874c-0.656-0.803-1.929-0.872-2.829-0.812
			c-1.176,0.082-2.702,0.627-1.523,2.22c0.63,0.85,5.361,1.142,4.651-0.872C46.519,38.202,46.417,38.024,46.293,37.874z"/>
		<path style="clip-path:url(#SVGID_2_);fill:#FFE1C7;" d="M28.629,37.233c-0.658-0.859-1.99-0.977-2.938-0.943
			c-1.236,0.046-2.856,0.567-1.67,2.276c0.633,0.911,5.584,1.375,4.905-0.761C28.855,37.588,28.756,37.4,28.629,37.233z"/>
		<path style="clip-path:url(#SVGID_2_);fill:#322B2A;" d="M40.916,8.497c-4.171,1.24-8.587,1.299-10.655,1.499
			c-1.062,0.104-3.019,0.396-3.5,1.547c1.227,0.302,2.546,0.339,3.799,0.577c3.284,0.629,7.27,0.94,10.608,0.789
			c1.105-0.047,2.319-1.411,2.918-2.013c-1.193-0.11-2.892-0.355-4.39-0.52C40.116,9.876,40.436,9.447,40.916,8.497z"/>
		<path style="clip-path:url(#SVGID_2_);fill:#423736;" d="M46.482,17.36c-2.245-3.072-5.625-5.454-9.399-6
			c-3.249-0.471-6.479-0.699-9.685,0.215c-1.634,0.466-3.314,1.343-4.557,2.517c-1.349,1.27-2.626,3.413-1.104,5.054
			c0.788,0.852,4.764,4.223,5.922,4.854c-0.121-0.806,0.043-1.655-0.049-2.434c2.173,0.577,8.456,2.82,9.365,3.335
			c0.094-0.752,0.123-1.594,0.396-2.289c2.174,0.208,4.01,1.278,5.76,2.475c0.124-1.023,0.552-1.934,0.688-2.927
			c1.861,0.176,4.321,0.846,5.813,2.019c-0.518-1.737-1.188-3.528-2.066-5.115C47.243,18.478,46.882,17.906,46.482,17.36z"/>
		<path style="opacity:0.15;clip-path:url(#SVGID_2_);fill:#5E0900;" d="M46.317,20.841c-0.334-0.562-0.796-1.054-1.394-1.331
			c-4.014-1.855-7.935-3-12.411-3.326c-2.737-0.195-5.703-0.512-8.317,0.503c-2.393,0.929-4.766,2.696-6.027,4.954
			c-0.589,1.054-2.684,3.571-2.091,4.905c0.688,1.55,2.92,0.384,3.975-0.203c1.765,2.239,3.854,5.156,6.978,4.103
			c9.861-3.327,15.533-1.605,17.485-1.554c0.729,0.021,2.032,0.455,2.703,0.241c1.953-0.624-0.212-5.524-0.444-6.707
			C46.653,21.821,46.655,21.398,46.317,20.841z"/>
		<path style="clip-path:url(#SVGID_2_);fill:#C96E53;" d="M25.875,42.271c0.853,2.16,3.369,1.143,2.493-1.065
			C27.88,42.301,26.699,42.743,25.875,42.271z"/>
		<path style="clip-path:url(#SVGID_2_);fill:#C96E53;" d="M42.136,40.962c-0.696,2.269,1.894,3.082,2.569,0.859
			C43.922,42.357,42.709,42.012,42.136,40.962z"/>
		<path style="clip-path:url(#SVGID_2_);fill:#C96E53;" d="M43.221,42.146c-0.294-0.13-0.637,0.003-0.766,0.298
			c-1.075,2.45-3.351,3.977-6.246,4.188c-3.289,0.241-6.448-1.265-8.057-3.834c-0.173-0.271-0.528-0.354-0.8-0.183
			s-0.354,0.527-0.185,0.8c1.831,2.927,5.414,4.646,9.127,4.376c0.901-0.067,1.754-0.245,2.542-0.527
			c2.117-0.761,3.767-2.271,4.682-4.355C43.646,42.617,43.514,42.276,43.221,42.146z"/>
		<path style="clip-path:url(#SVGID_2_);fill:#CF1F3A;" d="M29.755,6.742c-12.724,1.464-14.803,13.43-15.676,17.925
			c-0.631,3.255,3.665,1.555,6.53-0.004c0.312-0.173,0.626-0.328,0.943-0.469c6.287-2.799,12.943-1.713,19.592-1.735
			c2.235-0.006,4.826-0.217,7.636,0.474C51.192,23.524,48.853,4.542,29.755,6.742z"/>
		<path style="clip-path:url(#SVGID_2_);fill:#F22944;" d="M42.409,9.911c-3.154-2.175-6.088-2.976-9.888-2.949
			c-4.246,0.022-8.436,1.379-10.292,2.919c-0.596,1.561-1.183,5.961,0.055,10.707c0.495,1.889,1.442,0.557,4.313-0.313
			c8.124-2.468,13.609-1.629,19.854,0.003c1.057,0.276,2.313,0.762,2.236-0.215c-0.173-2.238-1.539-5.496-3.928-8.092
			C44.041,11.188,43.248,10.49,42.409,9.911z"/>
		<path style="clip-path:url(#SVGID_2_);fill:#FF677B;" d="M29.533,11.49c-2.965,1.136-1.859,6.09,1.261,5.563
			c2.479-0.418,4.961-0.801,8.715-0.158c1.506,0.261,5.159,1.688,4.903-1.281C43.934,10.162,32.859,10.222,29.533,11.49z"/>
		<path style="clip-path:url(#SVGID_2_);fill:#FF677B;" d="M26.433,13.629c0.002,0,0.004,0,0.004,0
			c0.127,0.015,0.243-0.075,0.258-0.199c0.006-0.033,0.008-0.067,0.015-0.097c0.037-0.263,0.095-0.516,0.176-0.753
			c0.04-0.121-0.026-0.251-0.147-0.292c-0.121-0.038-0.251,0.025-0.29,0.146c-0.091,0.262-0.156,0.542-0.2,0.832
			c-0.002,0.036-0.007,0.07-0.011,0.105C26.22,13.497,26.308,13.609,26.433,13.629z"/>
		<path style="clip-path:url(#SVGID_2_);fill:#FF677B;" d="M27.96,17.441c-0.095-0.086-0.238-0.081-0.327,0.012
			c-0.087,0.092-0.079,0.239,0.012,0.327c0.255,0.234,0.529,0.418,0.82,0.547c0.02,0.009,0.041,0.013,0.062,0.019
			c0.1,0.014,0.201-0.039,0.244-0.135c0.053-0.117-0.001-0.253-0.117-0.306C28.407,17.796,28.174,17.64,27.96,17.441z"/>
		<path style="clip-path:url(#SVGID_2_);fill:#FF677B;" d="M27.021,11.91c0.085,0.015,0.176-0.025,0.226-0.104
			c0.158-0.244,0.342-0.457,0.551-0.641c0.098-0.08,0.108-0.229,0.024-0.323c-0.083-0.099-0.229-0.109-0.326-0.024
			c-0.242,0.208-0.458,0.459-0.638,0.742c-0.068,0.105-0.035,0.251,0.071,0.317C26.959,11.895,26.989,11.908,27.021,11.91z"/>
		<path style="clip-path:url(#SVGID_2_);fill:#FF677B;" d="M27.025,16.008c-0.049-0.118-0.182-0.176-0.3-0.131
			c-0.119,0.047-0.179,0.182-0.13,0.301c0.117,0.306,0.265,0.594,0.432,0.854c0.039,0.058,0.098,0.097,0.162,0.105
			c0.054,0.008,0.11-0.003,0.157-0.035c0.109-0.07,0.14-0.211,0.07-0.32C27.267,16.546,27.135,16.288,27.025,16.008z"/>
		<path style="clip-path:url(#SVGID_2_);fill:#FF677B;" d="M26.776,15.172c-0.063-0.289-0.1-0.58-0.113-0.873
			c-0.006-0.127-0.115-0.226-0.242-0.218c-0.127,0.004-0.228,0.112-0.221,0.24c0.016,0.316,0.055,0.634,0.123,0.944
			c0.018,0.098,0.098,0.167,0.192,0.18c0.025,0.005,0.055,0.004,0.081-0.001C26.721,15.418,26.8,15.297,26.776,15.172z"/>
		<path style="clip-path:url(#SVGID_2_);fill:#FF677B;" d="M30.163,10.225c0.025,0.004,0.052,0.003,0.08-0.003
			c0.281-0.056,0.58-0.107,0.889-0.153c0.125-0.017,0.212-0.134,0.195-0.262c-0.02-0.126-0.136-0.215-0.263-0.194
			C30.748,9.657,30.442,9.71,30.15,9.77c-0.125,0.025-0.206,0.146-0.18,0.272C29.99,10.14,30.07,10.211,30.163,10.225z"/>
		<path style="clip-path:url(#SVGID_2_);fill:#FF677B;" d="M44.339,13.694c0.038,0.063,0.1,0.1,0.166,0.109
			c0.05,0.008,0.104-0.002,0.152-0.03c0.109-0.066,0.145-0.207,0.08-0.316c-0.161-0.268-0.348-0.525-0.558-0.771
			c-0.083-0.097-0.227-0.107-0.326-0.022c-0.098,0.081-0.107,0.227-0.024,0.324C44.023,13.213,44.194,13.447,44.339,13.694z"/>
		<path style="clip-path:url(#SVGID_2_);fill:#FF677B;" d="M44.715,14.479c0.101,0.269,0.179,0.55,0.229,0.841
			c0.018,0.099,0.099,0.174,0.194,0.187c0.023,0.002,0.049,0.005,0.073,0c0.125-0.022,0.211-0.143,0.187-0.267
			c-0.056-0.317-0.14-0.628-0.247-0.919c-0.045-0.123-0.178-0.185-0.299-0.14C44.733,14.227,44.672,14.356,44.715,14.479z"/>
		<path style="clip-path:url(#SVGID_2_);fill:#FF677B;" d="M37.443,10.096c0.301,0.047,0.601,0.098,0.89,0.156
			c0.005,0.001,0.008,0.001,0.013,0.002c0.121,0.018,0.237-0.063,0.26-0.183c0.024-0.127-0.056-0.247-0.182-0.273
			c-0.297-0.058-0.604-0.111-0.911-0.16h-0.001c-0.125-0.015-0.242,0.07-0.261,0.195C37.231,9.958,37.317,10.074,37.443,10.096z"/>
		<path style="clip-path:url(#SVGID_2_);fill:#FF677B;" d="M31.972,9.961c0.017,0.001,0.037,0.002,0.056,0
			c0.297-0.027,0.601-0.052,0.901-0.067c0.128-0.006,0.227-0.115,0.22-0.243c-0.009-0.128-0.117-0.227-0.243-0.217
			c-0.311,0.016-0.621,0.038-0.922,0.066c-0.127,0.013-0.219,0.127-0.209,0.252C31.788,9.861,31.87,9.945,31.972,9.961z"/>
		<path style="clip-path:url(#SVGID_2_);fill:#FF677B;" d="M35.625,9.903c0.007,0,0.014,0.001,0.021,0
			c0.301,0.021,0.604,0.048,0.9,0.078c0.128,0.013,0.241-0.078,0.255-0.206c0.013-0.129-0.079-0.244-0.205-0.253
			c-0.304-0.032-0.614-0.059-0.921-0.08c-0.127-0.007-0.237,0.089-0.245,0.217C35.422,9.781,35.509,9.885,35.625,9.903z"/>
		<path style="clip-path:url(#SVGID_2_);fill:#FF677B;" d="M33.798,9.858c0.012,0.004,0.026,0.004,0.039,0.004
			c0.298-0.006,0.602-0.003,0.903,0.004c0.128,0.003,0.233-0.099,0.238-0.226c0.003-0.129-0.099-0.235-0.227-0.239
			c-0.307-0.006-0.617-0.006-0.923-0.002c-0.13,0.002-0.232,0.108-0.229,0.235C33.601,9.749,33.688,9.845,33.798,9.858z"/>
		<path style="clip-path:url(#SVGID_2_);fill:#FF677B;" d="M28.402,10.734c0.04,0.004,0.086,0,0.13-0.017
			c0.244-0.102,0.526-0.197,0.836-0.287c0.125-0.033,0.196-0.16,0.162-0.283s-0.164-0.196-0.288-0.161
			c-0.328,0.095-0.628,0.196-0.888,0.306l-0.021,0.01c-0.118,0.049-0.163,0.181-0.114,0.296
			C28.25,10.673,28.322,10.722,28.402,10.734z"/>
		<path style="clip-path:url(#SVGID_2_);fill:#FF677B;" d="M43.034,18.215c-0.262,0-0.553-0.021-0.882-0.068
			c-0.123-0.017-0.24,0.068-0.26,0.197c-0.018,0.125,0.07,0.243,0.197,0.262c0.351,0.048,0.66,0.072,0.942,0.071
			c0.13,0.002,0.232-0.103,0.232-0.228C43.266,18.318,43.163,18.214,43.034,18.215z"/>
		<path style="clip-path:url(#SVGID_2_);fill:#FF677B;" d="M41.942,10.979c-0.268-0.14-0.554-0.272-0.848-0.393
			c-0.119-0.047-0.254,0.008-0.303,0.129c-0.049,0.117,0.008,0.252,0.127,0.3c0.281,0.117,0.554,0.239,0.812,0.374
			c0.024,0.013,0.047,0.02,0.073,0.021c0.094,0.015,0.19-0.032,0.237-0.121C42.1,11.178,42.057,11.038,41.942,10.979z"/>
		<path style="clip-path:url(#SVGID_2_);fill:#FF677B;" d="M41.268,17.989c-0.155-0.031-0.305-0.063-0.45-0.096
			c-0.156-0.032-0.305-0.064-0.445-0.093c-0.123-0.025-0.248,0.056-0.271,0.18c-0.026,0.125,0.055,0.248,0.18,0.271
			c0.137,0.03,0.284,0.06,0.439,0.094c0.146,0.031,0.3,0.064,0.453,0.097c0.005,0.002,0.01,0.002,0.015,0.002
			c0.12,0.019,0.235-0.063,0.261-0.183C41.475,18.138,41.395,18.017,41.268,17.989z"/>
		<path style="clip-path:url(#SVGID_2_);fill:#FF677B;" d="M42.752,11.451c-0.106-0.07-0.247-0.041-0.318,0.067
			c-0.072,0.104-0.042,0.25,0.065,0.319c0.252,0.165,0.49,0.346,0.707,0.53c0.033,0.03,0.075,0.047,0.116,0.053
			c0.077,0.013,0.157-0.016,0.21-0.079c0.082-0.096,0.072-0.24-0.025-0.324C43.276,11.819,43.022,11.628,42.752,11.451z"/>
		<path style="clip-path:url(#SVGID_2_);fill:#FF677B;" d="M45.255,15.955c-0.13,0.002-0.231,0.105-0.229,0.233
			c0,0.195-0.011,0.377-0.033,0.544c-0.018,0.104-0.035,0.206-0.062,0.301c-0.035,0.12,0.039,0.248,0.161,0.283
			c0.01,0.002,0.019,0.002,0.028,0.005c0.111,0.019,0.224-0.054,0.255-0.166s0.057-0.23,0.074-0.357
			c0.026-0.188,0.039-0.396,0.038-0.614C45.486,16.06,45.381,15.954,45.255,15.955z"/>
		<path style="clip-path:url(#SVGID_2_);fill:#FF677B;" d="M44.555,17.722c-0.174,0.182-0.397,0.31-0.683,0.392
			c-0.121,0.035-0.191,0.162-0.156,0.285c0.026,0.093,0.101,0.153,0.19,0.166c0.03,0.004,0.063,0.002,0.096-0.006
			c0.358-0.105,0.654-0.277,0.885-0.512c0.088-0.095,0.087-0.24-0.006-0.328C44.79,17.63,44.644,17.631,44.555,17.722z"/>
		<path style="clip-path:url(#SVGID_2_);fill:#FF677B;" d="M40.366,10.559c0.041-0.123-0.025-0.251-0.147-0.291
			c-0.284-0.095-0.586-0.182-0.891-0.263c-0.123-0.031-0.249,0.042-0.281,0.167c-0.031,0.124,0.045,0.249,0.167,0.283
			c0.296,0.076,0.586,0.162,0.861,0.252c0.013,0.005,0.026,0.008,0.038,0.01C40.223,10.733,40.331,10.666,40.366,10.559z"/>
		<path style="clip-path:url(#SVGID_2_);fill:#FF677B;" d="M30.306,17.994l-0.281,0.055c-0.194,0.039-0.387,0.054-0.571,0.043
			c-0.128-0.002-0.235,0.096-0.239,0.223c-0.007,0.121,0.081,0.223,0.196,0.239c0.008,0,0.016,0.001,0.023,0.003
			c0.22,0.009,0.445-0.009,0.674-0.052l0.284-0.054c0.126-0.024,0.21-0.146,0.187-0.271C30.553,18.055,30.433,17.974,30.306,17.994z
			"/>
		<path style="clip-path:url(#SVGID_2_);fill:#FF677B;" d="M32.11,17.67c-0.302,0.05-0.603,0.104-0.904,0.157
			C31.08,17.85,31,17.973,31.022,18.096c0.015,0.1,0.097,0.175,0.192,0.188c0.023,0.004,0.049,0.004,0.075-0.003
			c0.299-0.053,0.595-0.105,0.896-0.154c0.125-0.021,0.212-0.139,0.189-0.265C32.354,17.735,32.236,17.65,32.11,17.67z"/>
		<path style="clip-path:url(#SVGID_2_);fill:#FF677B;" d="M35.785,17.349c-0.307,0-0.618,0.009-0.925,0.021
			c-0.127,0.006-0.227,0.115-0.221,0.244c0.006,0.112,0.09,0.202,0.197,0.218c0.014,0.002,0.03,0.004,0.045,0.001
			c0.301-0.014,0.604-0.021,0.906-0.023c0.125,0.003,0.23-0.102,0.23-0.229C36.018,17.451,35.915,17.348,35.785,17.349z"/>
		<path style="clip-path:url(#SVGID_2_);fill:#FF677B;" d="M33.939,17.435c-0.298,0.027-0.607,0.062-0.918,0.104
			c-0.126,0.016-0.215,0.133-0.2,0.259c0.016,0.103,0.096,0.185,0.198,0.197c0.02,0.004,0.042,0.005,0.063,0.001
			c0.302-0.039,0.606-0.072,0.897-0.1c0.128-0.012,0.22-0.123,0.21-0.251C34.18,17.519,34.066,17.422,33.939,17.435z"/>
		<path style="clip-path:url(#SVGID_2_);fill:#FF677B;" d="M37.632,17.423c-0.311-0.024-0.622-0.045-0.923-0.057
			c-0.128-0.006-0.235,0.092-0.242,0.223c-0.004,0.118,0.084,0.221,0.199,0.238c0.007,0,0.016,0.002,0.023,0.002
			c0.295,0.014,0.6,0.03,0.903,0.057c0.128,0.008,0.241-0.084,0.252-0.211C37.852,17.546,37.756,17.432,37.632,17.423z"/>
		<path style="clip-path:url(#SVGID_2_);fill:#FF677B;" d="M39.463,17.643c-0.315-0.046-0.619-0.089-0.914-0.125
			c-0.128-0.016-0.243,0.074-0.26,0.202c-0.014,0.124,0.075,0.239,0.197,0.256c0.002,0.001,0.004,0.001,0.007,0.001
			c0.291,0.035,0.59,0.075,0.898,0.123h0.003c0.126,0.019,0.242-0.069,0.263-0.194C39.675,17.78,39.587,17.662,39.463,17.643z"/>
		<path style="clip-path:url(#SVGID_2_);fill:#CF1F3A;" d="M49.45,22.258c-2.213-2.98-21.35-4.722-29.78,2.555
			c3.014,2.599,2.97,5.116,7.472,4.065c3.592-0.843,7.145-1.835,10.831-1.773c6.721,0.109,12.936,1.295,15.811,4.276
			c2.67,0.957,0.954-1.486,0.332-2.428C52.419,26.381,51.073,24.443,49.45,22.258z"/>
		<path style="clip-path:url(#SVGID_2_);fill:#FF3E4A;" d="M49.19,22.325c-2.162-2.916-20.546-5.212-28.788,1.899
			c3.762,3.241,3.232,4.166,8.884,2.842c6.222-1.457,19.488-1.986,24.205,2.903c1.695,1.497,1.532,0.496,0.257-1.102
			C51.872,26.51,50.777,24.459,49.19,22.325z"/>
		<path style="clip-path:url(#SVGID_2_);fill:#F22944;" d="M18.402,23.577c-1.239,0.825-2.386,1.096-3.213,0.683
			c-0.821-0.415-0.626,0.262-0.709,0.839c-0.084,0.577,0.831,1.183,3.136,0.334c2.304-0.844,4.472-3.186,4.472-3.186
			c-0.384-1.017-0.459-1.715-0.459-1.715S19.643,22.757,18.402,23.577z"/>
		<path style="clip-path:url(#SVGID_2_);fill:#FF8A9A;" d="M35.027,25.997c-4.772,0.313-7.895,1.681-10.138,1.249
			s-3.822-2.436-3.822-2.436s1.313,2.627,3.721,3.122c2.413,0.493,3.75-0.889,10.328-1.543c6.577-0.654,11.993,0.463,11.993,0.463
			S41.688,25.559,35.027,25.997z"/>
		<path style="clip-path:url(#SVGID_2_);fill:#E3203D;" d="M30.289,25.343c-4.388,0.693-5.979,0.722-8.083-1.342
			c0,0,0.947,2.337,2.894,2.521c2.719,0.26,4.995-1.147,12.941-1.389C38.041,25.134,34.68,24.647,30.289,25.343z"/>
		<path style="clip-path:url(#SVGID_2_);fill:#E3203D;" d="M43.283,25.324c0,0,6.63,0.814,9.393,2.988l-0.516-0.83
			C52.16,27.482,47.823,25.267,43.283,25.324z"/>
	</g>
</g>
<g id="Layer_1">
</g>
</svg>
