<?xml version="1.0" encoding="iso-8859-1"?>
<!-- Generator: Adobe Illustrator 16.0.0, SVG Export Plug-In . SVG Version: 6.00 Build 0)  -->
<!DOCTYPE svg PUBLIC "-//W3C//DTD SVG 1.1//EN" "http://www.w3.org/Graphics/SVG/1.1/DTD/svg11.dtd">
<svg version="1.1" xmlns="http://www.w3.org/2000/svg" xmlns:xlink="http://www.w3.org/1999/xlink" x="0px" y="0px"
	 width="66.013px" height="66.001px" viewBox="0 0 66.013 66.001" style="enable-background:new 0 0 66.013 66.001;"
	 xml:space="preserve">
<g id="Layer_2">
	<g>
		<defs>
			<circle id="SVGID_1_" cx="33.013" cy="33.001" r="33"/>
		</defs>
		<clipPath id="SVGID_2_">
			<use xlink:href="#SVGID_1_"  style="overflow:visible;"/>
		</clipPath>
		<rect style="clip-path:url(#SVGID_2_);fill:#B6D2A5;" width="66" height="65.998"/>
		<path style="clip-path:url(#SVGID_2_);fill:#C47A35;" d="M47.288,15.23c-7.515-2.247-17.227-2.139-24.275-0.068
			c-3.674,1.08-9.489,4.521-14.363,8.804c-1.07,0.81-0.333,1.793,1.388,2.97c5.073,3.463,17.273,3.97,22.341,3.961
			c6.616-0.011,18.207-1.929,22.706-4.224c2.123-1.084,3.313-2.209,2.803-3.277C54.681,21.381,48.557,15.61,47.288,15.23z"/>
		<path style="clip-path:url(#SVGID_2_);fill:#912907;" d="M52.67,33.822c2.446-0.092,0.086,3.802-1.283,0.872
			c-1.302-2.788,3.902-3.837,3.151-6.896c-0.482-1.963-1.92-4.19-2.569-6.191c-1.592-4.896-4.474-7.316-8.91-10.121
			c-6.704-4.237-23.606-3.376-27.575,8.538c-0.509,1.529-1.959,4.121-2.749,5.563c-0.809,1.476-2.47,2.946-2.336,4.793
			c0.158,2.189,1.721,3.32,1.617,5.573c-0.087,1.882-2.132,2.896-1.198,4.732c0.891,1.749,4.773,1.22,2.816,4.373
			c-1.793,2.889-5.303-0.526-3.104-0.993c-2.425-1.179-3.438,1.961-3.08,3.84c0.497,2.61,4.157,2.666,6.124,2.132
			c-5.125,9.384,12.342,6.694,16.349,8.356c3.771,1.565,5.742,3.671,9.658,1.825c1.998-0.94,7.717-3.176,6.688-6.417
			c1.162,3.656,6.116,3.079,5.854-0.474c-1.704,0.577-1.928-1.042-0.659-3.527c0.532-1.044,0.612-2.18,0.257-3.312
			c-0.407-1.305-0.793-1.398,0.386-2.397c1.537-1.303,1.976-3.035-0.276-4.255c0.833,0.451,1.751,0.441,2.604,0.05
			C57.62,38.43,56.271,31.624,52.67,33.822z"/>
		<path style="clip-path:url(#SVGID_2_);fill:#801A00;" d="M49.5,33.91c-0.947-2.755-5.2-2.561-7.509-2.543
			c-3.272,0.023-6.599,0.051-9.812,0.751c-1.485,0.325-2.69,0.732-3.919,1.584c-0.866,0.603-2.122,1.877-3.283,1.756
			c-0.571-0.062-0.316-0.378-0.758-0.567c-0.743-0.319-1.708-1.113-2.519-1.246c-1.87-0.307-4.407,1.271-4.858,3.13
			c-0.459,1.894,0.564,3.699,1.292,5.324c1.56,3.472,0.563,7.065-2.162,9.6c-1.404,1.307-1.83,2.369,0.176,3.671
			c3.253,2.106,9.466,1.463,13.14,1.456c3.797-0.005,10.035,0.504,13.766-0.292c2.399-0.512,3.226-1.23,2.854-4.703
			c0.7,0.872,1.644,2.301,2.93,2.296c-1.214-2.286,0.013-4.903,0.332-7.261c0.349-2.562-0.11-5.139,0.002-7.721
			C49.243,37.521,50.043,35.49,49.5,33.91z"/>
		<path style="clip-path:url(#SVGID_2_);fill:#9EB02C;" d="M28.049,57.279l-0.536-4.174c-4.242,1.166-5.183,4.729-5.892,7.915
			c-0.323,1.452-0.684,3.004-1.3,4.978h5.298C26.33,62.84,27.358,57.631,28.049,57.279z"/>
		<path style="clip-path:url(#SVGID_2_);fill:#9EB02C;" d="M40.841,53.105l-0.536,4.174c0.69,0.352,1.719,5.561,2.43,8.719h5.298
			c-0.616-1.974-0.977-3.525-1.3-4.978C46.023,57.835,45.083,54.271,40.841,53.105z"/>
		<path style="clip-path:url(#SVGID_2_);fill:#9EB02C;" d="M43.796,62.925c0.209-1.254-0.448-2.383-0.515-3.518
			c-0.142-2.447,0.388-5.064-0.949-5.731c-1.218-0.607-2.532-1.007-2.853-1.231c-2.024-1.417-6.199-1.438-11.115,0.396
			c-0.462,0.171-1.924,0.723-2.429,0.922c-2.153,0.856-0.236,3.098-0.717,5.201c-0.141,0.616-0.431,1.441-0.522,2.073
			c-0.313,2.153,0.366,3.818,1.723,4.961h15.604C42.99,65.22,43.582,64.198,43.796,62.925z"/>
		<path style="clip-path:url(#SVGID_2_);fill:#4670BD;" d="M43.943,62.767c-2.5,0.018-2.049-9.369-2.049-9.369l-2.274-0.936
			c0.726,4.174-0.027,8.038-0.027,8.038c-6.613,0.978-10.771-0.12-10.771-0.12c-0.086-5.613,0.579-7.998,0.579-7.998l-2.35,0.786
			c0.58,10.688-2.49,9.466-2.49,9.466c0.159,0.938,0.502,2.16,0.918,3.364h17.343C43.214,64.941,44.05,62.767,43.943,62.767z"/>
		<path style="clip-path:url(#SVGID_2_);fill:#31589E;" d="M29.276,63.44c0,0,4.462,0.885,9.524-0.283
			C38.801,63.157,31.401,63.562,29.276,63.44z"/>
		<path style="clip-path:url(#SVGID_2_);fill:#78A1E8;" d="M29.138,63.383c-0.032-0.005-0.167,1.271-0.198,1.354
			c0.604,0.077,1.169,0.218,1.785,0.283c1.755,0.19,3.707,0.26,5.45,0.108c0.804-0.07,1.867-0.187,2.374-0.591
			c0.325-0.259,0.182-1.399,0.433-1.464C38.944,63.085,34.389,64.229,29.138,63.383z"/>
		<ellipse style="clip-path:url(#SVGID_2_);fill:#F2E6B3;" cx="27.306" cy="61.777" rx="0.719" ry="0.841"/>
		<ellipse style="clip-path:url(#SVGID_2_);fill:#F2E6B3;" cx="40.98" cy="61.993" rx="0.717" ry="0.84"/>
		<polygon style="clip-path:url(#SVGID_2_);fill:#31589E;" points="28.596,62.775 26.954,63.979 25.802,62.435 25.765,62.55 
			26.897,64.515 28.868,63.045 28.858,60.417 		"/>
		<polygon style="clip-path:url(#SVGID_2_);fill:#31589E;" points="39.701,63.217 39.609,60.515 39.432,63.423 41.337,64.814 
			42.861,62.468 41.248,64.204 		"/>
		<path style="clip-path:url(#SVGID_2_);fill:#F29661;" d="M34.207,46.54c-1.37-0.298-3.075-0.037-3.861,1.701
			C29.962,49.09,29.97,50.8,29.94,51.83c-0.14,4.797,6.294,5.783,8.017,1.731C39.487,49.963,36.756,47.094,34.207,46.54z"/>
		<path style="clip-path:url(#SVGID_2_);fill:#AFC236;" d="M37.677,52.984c-0.676,2.052-2.758,2.983-5.134,2.248
			c-1.21-0.376-1.891-1.981-1.979-3.129c-0.062-0.79-0.337-2.191-0.846-0.471c-0.449,1.522,0.209,3.308,1.39,4.193
			c2.55,1.914,6.813,0.794,7.379-1.891c0.189-0.903,0.085-2.592-0.125-2.852C37.858,50.459,37.791,52.638,37.677,52.984z"/>
		<path style="clip-path:url(#SVGID_2_);fill:#FAB077;" d="M32.537,17.138c-8.01,1.023-14.361,7.472-13.311,18.574
			c1.051,11.104,8.543,17.803,16.618,17.736c6.197-0.05,13.676-10.185,13.262-21.65C48.706,20.801,40.545,16.113,32.537,17.138z"/>
		<path style="clip-path:url(#SVGID_2_);fill:#591702;" d="M45.97,27.175c-1.237-0.208-3.781,0.303-3.326,2.156
			c0.14,0.572,0.441,0.616,0.849,0.337c0.312-0.212,0.42-0.847,0.718-1.127c1.468-1.384,3.919-0.01,4.651,1.452
			C48.407,28.157,47.142,27.372,45.97,27.175z"/>
		<path style="clip-path:url(#SVGID_2_);fill:#591702;" d="M25.359,28.142c-1.288,0.368-2.562,1.335-2.692,3.222
			c0.525-1.56,3.02-3.284,4.972-2.131c0.394,0.235,0.649,0.848,1.046,1.012c0.521,0.216,0.853,0.128,0.894-0.46
			C29.709,27.88,26.719,27.752,25.359,28.142z"/>
		<path style="clip-path:url(#SVGID_2_);fill:#F59A62;" d="M47.544,36.958c-0.476-0.907-1.688-1.153-2.569-1.215
			c-1.149-0.078-2.729,0.266-1.899,2.05c0.44,0.951,4.945,1.9,4.652-0.248C47.698,37.322,47.634,37.129,47.544,36.958z"/>
		<path style="clip-path:url(#SVGID_2_);fill:#F59A62;" d="M27.639,36.742c-0.896-0.603-2.167-0.262-3.034,0.094
			c-1.131,0.464-2.462,1.514-0.802,2.749c0.884,0.657,5.626-0.581,4.297-2.396C27.963,37.001,27.809,36.854,27.639,36.742z"/>
		<path style="clip-path:url(#SVGID_2_);fill:#283B21;" d="M27.264,31.318c-2.077-0.769-3.273,2.952-1.556,4.288
			c0.592-0.418,1.24-0.473,1.858-0.212C28.893,34.617,28.81,31.891,27.264,31.318z"/>
		<path style="opacity:0.3;clip-path:url(#SVGID_2_);fill:#C90B00;" d="M36.188,41.557c-1.495,0.104-2.997,0.111-4.489-0.023
			c-1-0.093-2.974-0.637-4.062-1.403c0.345,1.132,0.794,2.194,1.277,3.057c0.445,0.792,1.015,1.585,1.633,2.249
			c1.557,1.668,3.574,2.767,5.901,2.743c4.217-0.042,4.771-2.67,4.91-4.655c0.085-1.213,1.309-2.038,1.888-3.129
			c0.139-0.257,0.24-0.53,0.281-0.827c-0.923,0.624-2.058,1.25-3.157,1.455C38.989,41.279,37.591,41.461,36.188,41.557z"/>
		<path style="clip-path:url(#SVGID_2_);fill:#8F2F2B;" d="M29.063,41.68c0,0,1.887,4.873,6.878,4.594
			c4.496-0.252,5.001-1.94,5.182-3.12c0.24-1.578,1.445-2.225,1.445-2.225C35.42,44.053,29.063,41.68,29.063,41.68z"/>
		<path style="clip-path:url(#SVGID_2_);fill:#FFF2DE;" d="M30.711,42.147c0,0,0.08,1.592,1.629,2.156
			c1.986,0.723,4.198,0.757,6.445,0.107c1.512-0.438,2.351-2.874,2.351-2.874S36.838,43.11,30.711,42.147z"/>
		<path style="clip-path:url(#SVGID_2_);fill:#FFF2DE;" d="M37.02,44.467c-2.136,0.084-3.979-0.147-4.984-0.513
			c-0.838-0.304-0.84,0.148-0.677,0.547c0,0,0.298,1.637,4.196,1.828c3.408,0.168,4.857-1.947,4.471-2.366
			C39.638,43.546,39.155,44.384,37.02,44.467z"/>
		<path style="clip-path:url(#SVGID_2_);fill:#E8D3B5;" d="M30.702,42.125c0,0,0.081,0.891,0.414,1.247c0,0,7.611-1.14,9.415-0.553
			c0,0,0.522-0.898,0.604-1.282C41.136,41.537,35.748,43.125,30.702,42.125z"/>
		<path style="clip-path:url(#SVGID_2_);fill:#E8D3B5;" d="M32.479,43.954c3.384,1.49,7.074-0.063,7.074-0.063
			C35.412,44.829,32.479,43.954,32.479,43.954z"/>
		<path style="opacity:0.3;clip-path:url(#SVGID_2_);fill:#BF3C1B;" d="M36.633,37.81c-1.105,0.054-1.604-0.318-2.326,0.07
			c-0.721,0.389,0.466,1.813,2.42,1.679c1.944-0.134,2.734-1.53,2.267-1.904C38.45,37.222,37.861,37.749,36.633,37.81z"/>
		<path style="clip-path:url(#SVGID_2_);fill:#283B21;" d="M46.634,30.753c-2.142-1.306-3.769,2.977-1.659,3.895
			c0.644-0.201,1.423-0.07,1.919,0.281C47.882,34.101,47.783,31.455,46.634,30.753z"/>
		<path style="clip-path:url(#SVGID_2_);fill:#82A375;" d="M26.915,32.223c-0.87,0.021-0.752,1.741,0.191,1.425
			C27.788,33.417,27.689,32.205,26.915,32.223z"/>
		<path style="clip-path:url(#SVGID_2_);fill:#82A375;" d="M45.837,31.713c-0.855-0.021-0.843,1.685,0.101,1.418
			C46.62,32.94,46.597,31.735,45.837,31.713z"/>
		<path style="clip-path:url(#SVGID_2_);fill:#FAB077;" d="M15.73,31.136c-3.829,1.354-2.156,6.902,1.016,7.807
			c1.019,0.291,2.092,0.262,3.122,0.111c0.02-0.032,0.039-0.066,0.059-0.102c0.445-0.77-0.464-4.479-0.716-5.238
			C18.574,31.8,17.569,30.487,15.73,31.136z"/>
		<path style="opacity:0.2;clip-path:url(#SVGID_2_);fill:#A61900;" d="M41.957,16.582c-4.313-0.457-8.866-0.298-13.102,0.663
			c-2.933,0.666-6.023,1.883-7.716,4.513c-1.206,1.872-3.251,3.927-3.527,6.24c-0.258,2.165,1.204,3.817,2.104,5.621
			c1.139,2.283,0.099,4.035,0.172,6.325c0.048,1.493,0.784,1.774,2.187,1.821c-2.269-2.198-0.157-4.826,0.262-7.276
			c0.225-1.309-0.314-2.482-0.301-3.825c0.002-0.305,0.021-0.608,0.055-0.91c0.135-1.188,0.48-2.347,0.822-3.487
			c-0.463,4.096,5.465,1.852,7.133,1.191c0.554-0.22,1.131-0.441,1.725-0.318c-2.002,2.065,0.938,5.65,3.383,5.65
			c3.973,0,4.98-1.647,6.643-3.917c0.946-1.292,2.23-2.177,3.741-2.366c1.026-0.127,3.163,0.58,3.594-0.634
			c0.643-1.812-0.155-5.271-1.063-6.925C46.953,16.921,43.991,16.798,41.957,16.582z"/>
		<path style="opacity:0.3;clip-path:url(#SVGID_2_);fill:#BF3C1B;" d="M18.122,33.206c-1.012-0.489-3.678,0.039-2.592,1.868
			c0.776-1.554,1.846-0.411,1.576,0.714c-0.179,0.756-1.151,0.69-0.266,1.749c0.478,0.572,1.549,0.458,2.104,0.217
			C20.71,36.982,19.357,33.805,18.122,33.206z"/>
		<path style="clip-path:url(#SVGID_2_);fill:#912907;" d="M36.638,11.409c-1.644-0.144-3.192-0.631-4.87-0.587
			c-2.799,0.073-5.507,1.021-7.975,2.336c-3.676,1.958-6.046,6.396-7.12,10.337c-0.625,2.3-0.956,4.886-0.456,7.242
			c0.446,2.103,3.173,2.896,3.334,5.066c0.071,0.971-0.785,1.7-0.764,2.631c0.019,0.765,0.377,1.596,0.93,2.091
			c0.488,0.438,1.613,0.595,2.302,0.695c-1.52-1.666-0.052-2.636,0.085-4.265c0.096-1.117-0.149-3.274-0.559-4.34
			c-1.074-2.789-0.426-5.99,1.995-7.813c0.243,2.989,3.298,2.87,5.483,2.438c0.984-0.193,3.842-1.35,4.344,0.137
			c0.312,0.929-1.172,1.733-1.513,0.671c-0.03,1.581,0.053,2.883,1.942,3.286c2.845,0.608,5.157-0.398,6.665-2.861
			c0.611-0.998,1.212-1.604,1.913-1.972c0.853-0.447,1.854-0.545,3.207-0.574c2.491-0.051,3.354-1.86,3.24-4.24
			C48.514,15.229,42.352,11.916,36.638,11.409z"/>
		<path style="clip-path:url(#SVGID_2_);fill:#FFBE8A;" d="M36.615,38.626c1.611-0.091,3.426-0.522,1.968-2.452
			C36.036,32.805,31.082,38.934,36.615,38.626z"/>
		<path style="clip-path:url(#SVGID_2_);fill:#1F1A17;" d="M25.824,31.367c-0.599,0.439-1.949,1.679-4.055,1.425
			c0,0,2.188,1.35,4.369-0.554c0.958-0.832,2.002-0.17,2.002-0.17S27.384,30.224,25.824,31.367z"/>
		<path style="clip-path:url(#SVGID_2_);fill:#1F1A17;" d="M46.852,30.862c-1.559-1.147-2.492,0.7-2.492,0.7s1.045-0.661,2,0.173
			c2.182,1.905,4.37,0.559,4.37,0.559C48.624,32.546,47.448,31.302,46.852,30.862z"/>
		<path style="clip-path:url(#SVGID_2_);fill:#F7985C;" d="M35.798,34.196c-0.456,0.081-0.794,0.4-0.753,0.711
			c0.042,0.31,0.445,0.494,0.903,0.413c0.457-0.082,0.793-0.401,0.752-0.71C36.659,34.298,36.255,34.114,35.798,34.196z"/>
		<path style="clip-path:url(#SVGID_2_);fill:#F7985C;" d="M34.532,35.552c-0.313,0.196-0.48,0.528-0.371,0.742
			c0.11,0.216,0.455,0.232,0.771,0.039c0.314-0.196,0.481-0.528,0.371-0.742C35.192,35.374,34.849,35.358,34.532,35.552z"/>
		<path style="clip-path:url(#SVGID_2_);fill:#F7985C;" d="M40.092,34.987c-0.34-0.134-0.677-0.054-0.753,0.178
			c-0.075,0.232,0.139,0.529,0.479,0.662c0.343,0.135,0.679,0.055,0.756-0.178C40.646,35.418,40.434,35.12,40.092,34.987z"/>
		<path style="clip-path:url(#SVGID_2_);fill:#F7985C;" d="M31.595,34.154c-0.354,0.089-0.581,0.351-0.509,0.583
			c0.074,0.234,0.421,0.351,0.775,0.262c0.354-0.09,0.582-0.351,0.51-0.585C32.298,34.182,31.95,34.065,31.595,34.154z"/>
		<ellipse style="clip-path:url(#SVGID_2_);fill:#E6864A;" cx="27.619" cy="36.756" rx="0.655" ry="0.447"/>
		<ellipse style="clip-path:url(#SVGID_2_);fill:#E6864A;" cx="43.433" cy="36.814" rx="0.653" ry="0.447"/>
		
			<ellipse transform="matrix(-0.3167 -0.9485 0.9485 -0.3167 -2.1205 71.9725)" style="clip-path:url(#SVGID_2_);fill:#E6864A;" cx="24.862" cy="36.75" rx="0.567" ry="0.865"/>
		<path style="clip-path:url(#SVGID_2_);fill:#E6864A;" d="M28.878,35.497c-0.366,0.039-0.62,0.267-0.57,0.504
			c0.052,0.239,0.389,0.4,0.753,0.358c0.366-0.041,0.621-0.266,0.57-0.505C29.581,35.615,29.243,35.456,28.878,35.497z"/>
		<path style="clip-path:url(#SVGID_2_);fill:#E6864A;" d="M47.358,36.217c-0.325-0.171-0.663-0.126-0.754,0.1
			c-0.092,0.227,0.1,0.549,0.425,0.72c0.325,0.17,0.662,0.124,0.754-0.101C47.875,36.708,47.684,36.387,47.358,36.217z"/>
		<path style="clip-path:url(#SVGID_2_);fill:#F7985C;" d="M34.277,33.872c-0.252,0.047-0.433,0.229-0.406,0.405
			c0.026,0.175,0.251,0.282,0.503,0.236c0.251-0.046,0.434-0.227,0.406-0.403C34.753,33.933,34.527,33.827,34.277,33.872z"/>
		<path style="clip-path:url(#SVGID_2_);fill:#E6864A;" d="M26.092,37.292c-0.251,0.048-0.433,0.228-0.405,0.405
			c0.025,0.177,0.252,0.282,0.503,0.237c0.251-0.047,0.433-0.228,0.406-0.405C26.568,37.354,26.342,37.247,26.092,37.292z"/>
		<path style="clip-path:url(#SVGID_2_);fill:#F7985C;" d="M41.013,34.351c-0.242-0.086-0.479-0.019-0.528,0.152
			c-0.051,0.171,0.104,0.38,0.346,0.466c0.243,0.085,0.479,0.017,0.531-0.154C41.411,34.645,41.255,34.437,41.013,34.351z"/>
		<path style="clip-path:url(#SVGID_2_);fill:#E6864A;" d="M45.775,36.73c-0.244-0.084-0.48-0.016-0.53,0.155
			c-0.05,0.17,0.105,0.378,0.348,0.464c0.241,0.087,0.479,0.018,0.529-0.152C46.172,37.026,46.017,36.816,45.775,36.73z"/>
		<path style="clip-path:url(#SVGID_2_);fill:#F7985C;" d="M39.611,33.537c-0.305-0.049-0.571,0.09-0.594,0.308
			c-0.021,0.22,0.208,0.433,0.514,0.483c0.305,0.047,0.571-0.092,0.594-0.309C40.146,33.802,39.917,33.585,39.611,33.537z"/>
		<path style="clip-path:url(#SVGID_2_);fill:#F7985C;" d="M32.539,36.626c-0.349,0.104-0.585,0.38-0.526,0.619
			c0.059,0.238,0.389,0.348,0.738,0.243c0.35-0.102,0.585-0.379,0.525-0.616C33.218,36.633,32.889,36.523,32.539,36.626z"/>
		<path style="clip-path:url(#SVGID_2_);fill:#F7985C;" d="M37.69,33.611c-0.428-0.071-0.808,0.113-0.85,0.412
			c-0.041,0.299,0.271,0.598,0.7,0.671c0.429,0.07,0.809-0.114,0.851-0.412C38.431,33.983,38.117,33.684,37.69,33.611z"/>
		<path style="clip-path:url(#SVGID_2_);fill:#E6864A;" d="M42.477,35.089c-0.429-0.072-0.809,0.112-0.849,0.412
			c-0.042,0.298,0.272,0.597,0.7,0.67c0.428,0.07,0.808-0.113,0.849-0.412S42.904,35.161,42.477,35.089z"/>
		<path style="clip-path:url(#SVGID_2_);fill:#F7985C;" d="M29.576,36.715c-0.435,0.005-0.773,0.251-0.759,0.552
			c0.015,0.3,0.381,0.541,0.814,0.537s0.773-0.251,0.758-0.552C30.375,36.951,30.009,36.71,29.576,36.715z"/>
		<path style="clip-path:url(#SVGID_2_);fill:#E6864A;" d="M44.73,35.179c-0.435,0.005-0.773,0.253-0.759,0.553
			c0.017,0.301,0.381,0.542,0.814,0.537c0.436-0.003,0.773-0.25,0.76-0.551C45.53,35.417,45.164,35.177,44.73,35.179z"/>
		<path style="clip-path:url(#SVGID_2_);fill:#F7985C;" d="M38.515,35.013c-0.412-0.178-0.824-0.106-0.918,0.156
			c-0.093,0.264,0.164,0.621,0.578,0.798c0.412,0.177,0.823,0.108,0.918-0.155C39.186,35.548,38.926,35.19,38.515,35.013z"/>
		<path style="clip-path:url(#SVGID_2_);fill:#F7985C;" d="M31.165,35.462c-0.483,0.074-0.842,0.402-0.802,0.731
			c0.042,0.332,0.468,0.538,0.951,0.464c0.485-0.072,0.842-0.399,0.802-0.729C32.074,35.596,31.648,35.388,31.165,35.462z"/>
		<path style="clip-path:url(#SVGID_2_);fill:#F7985C;" d="M33.107,34.833c-0.462,0.168-0.762,0.562-0.667,0.878
			c0.094,0.316,0.547,0.437,1.012,0.27c0.464-0.167,0.762-0.56,0.669-0.877C34.025,34.787,33.573,34.667,33.107,34.833z"/>
		<path style="clip-path:url(#SVGID_2_);fill:#F7985C;" d="M41.206,36.175c-0.484-0.067-0.907,0.144-0.948,0.475
			c-0.039,0.33,0.323,0.654,0.808,0.723c0.483,0.07,0.907-0.143,0.947-0.473C42.051,36.569,41.69,36.245,41.206,36.175z"/>
		<path style="clip-path:url(#SVGID_2_);fill:#9C3106;" d="M43.904,21.955c-3.58-2.109-8.495-1.308-12.33-0.511
			c-2.222,0.461-9.133,2.207-3.575,4.132c1.765,0.611,3.593-0.532,5.338-0.134c1.384,0.316,2.295,2.343,0.852,3.292
			c1.248,0.597,3.184-0.165,4.228-0.835c0.771-0.493,1.432-1.07,2.277-1.436c1.267-0.548,3.754-1.211,4.43-2.562
			C45.559,23.027,44.57,22.348,43.904,21.955z"/>
		<path style="clip-path:url(#SVGID_2_);fill:#9C3106;" d="M22.577,23.729c-0.63,0.1-1.259,0.19-1.887,0.309
			c-1.586,0.297-3.112,0.546-3.865,2.131c-1.17,2.461,0.703,5.511,3.393,5.826c-0.536-1.053-0.82-2.698-0.499-3.835
			C20.169,26.568,21.848,25.248,22.577,23.729z"/>
		<path style="opacity:0.3;clip-path:url(#SVGID_2_);fill:#5E0900;" d="M46.524,15.333c-7.504-4.053-14.934-2.395-22.762-0.75
			c-2.096,0.44-4.318,1.056-6.03,2.404c-1.978,1.558-2.12,2.47-3.053,4.657c-0.817,1.911-1.588,3.306-2.688,5.079
			c10.911-7.769,30.229-10.482,36.777-3.689c0.342-2.535,2.748-1.052,3.779,0.044C50.944,18.073,49.654,17.022,46.524,15.333z"/>
		<path style="clip-path:url(#SVGID_2_);fill:#E0A859;" d="M40.077,4.392c-8.208-1.22-15.961-0.063-18.597,2.326
			c-1.815,1.644-5.165,8.063-5.846,12.221c10.769-6.227,24.764-5.432,34.633-0.947C48.396,12.8,46.61,5.36,40.077,4.392z"/>
		<path style="clip-path:url(#SVGID_2_);fill:#F2CA83;" d="M42.92,5.079c-1.67-0.871-6.794-1.594-14.229-0.877
			c-7.436,0.716-8.508,4.102-8.508,4.102s2.956-2.698,7.706-1.25c4.749,1.45,9.528,0.229,12.641-0.493
			c3.112-0.721,5.558,1.734,5.558,1.734S44.59,5.953,42.92,5.079z"/>
		<path style="clip-path:url(#SVGID_2_);fill:#F2CA83;" d="M57.238,22.134c-3.01-1.818-5.797-4.193-7.789-6.501
			c-10.034-4.244-23.904-3.065-33.351,1.335c-2.532,2.488-4.284,3.929-7.01,5.988c-1.8,1.361-1.8,2.591,0.948,3.979
			c-3.583-2.135-0.164-3.6,1.818-4.945c1.214-0.826,2.852-1.56,4.75-2.19c0.185-0.321,0.39-0.613,0.483-0.742
			c0.432-0.592,1.04-1.19,1.733-1.461c0.23,0.327,0.061,0.991-0.228,1.605c4.739-1.289,10.582-1.995,15.573-1.934
			c3.373,0.044,6.186,0.291,8.567,0.66c-0.124-0.956-0.048-2.012,0.824-1.583c0.703,0.345,0.782,1.376,1.226,1.951
			c0.993,0.202,1.9,0.429,2.735,0.668c0.04-0.336,0.086-0.713,0.349-0.83c0.534-0.236,1.61,0.677,1.862,1.057
			c0.076,0.114,0.229,0.362,0.369,0.628c0.912,0.345,1.718,0.696,2.45,1.038c-0.213-0.505-0.271-0.931,0.16-0.917
			c0.666,0.022,1.904,1.343,2.716,2.298c0.027,0.015,0.058,0.026,0.088,0.039c1.572,0.71,3.051,1.358,2,2.705
			C58.834,23.707,58.224,22.729,57.238,22.134z"/>
		<path style="clip-path:url(#SVGID_2_);fill:#F2CA83;" d="M14.054,19.678c-0.212,0.064-0.359,0.319-0.488,0.479
			c-0.159,0.197-1.448,2.711-1.296,2.692c0.192-0.023,0.363-0.036,0.56-0.031c0.603-1.019,0.927-2.2,1.747-3.082
			C14.625,19.684,14.101,19.665,14.054,19.678z"/>
		<path style="clip-path:url(#SVGID_2_);fill:#F2CA83;" d="M48.938,17.556c-0.058-0.021-0.695,0.009-0.637,0.084
			c1,1.277,1.396,2.995,2.13,4.47c0.239-0.007,0.448,0.013,0.683,0.045c0.185,0.025-1.387-3.619-1.58-3.904
			C49.378,18.019,49.197,17.647,48.938,17.556z"/>
		<path style="clip-path:url(#SVGID_2_);fill:#F2CA83;" d="M19.548,17.423c-0.277,0.133-0.428,0.52-0.57,0.768
			c-0.175,0.308-1.565,4-1.361,3.943c0.26-0.07,0.545-0.039,0.813-0.074c0.609-1.542,0.91-3.269,1.849-4.668
			C20.332,17.31,19.609,17.393,19.548,17.423z"/>
	</g>
</g>
<g id="Layer_1">
</g>
</svg>
