<?xml version="1.0" encoding="iso-8859-1"?>
<!-- Generator: Adobe Illustrator 16.0.0, SVG Export Plug-In . SVG Version: 6.00 Build 0)  -->
<!DOCTYPE svg PUBLIC "-//W3C//DTD SVG 1.1//EN" "http://www.w3.org/Graphics/SVG/1.1/DTD/svg11.dtd">
<svg version="1.1" xmlns="http://www.w3.org/2000/svg" xmlns:xlink="http://www.w3.org/1999/xlink" x="0px" y="0px"
	 width="66.002px" height="66px" viewBox="0 0 66.002 66" style="enable-background:new 0 0 66.002 66;" xml:space="preserve">
<g id="Layer_80">
	<g>
		<defs>
			<circle id="SVGID_1_" cx="33.002" cy="33" r="33"/>
		</defs>
		<clipPath id="SVGID_2_">
			<use xlink:href="#SVGID_1_"  style="overflow:visible;"/>
		</clipPath>
		<rect y="0" style="clip-path:url(#SVGID_2_);fill:#FFFFFF;" width="66" height="66"/>
		<path style="clip-path:url(#SVGID_2_);fill:#3A3A4A;" d="M41.243,51.742C37.517,50.443,30.408,49.946,26,51.918
			c-2.43,1.088-2.124,7.86-1.927,14.082h19.21C43.428,59.749,43.593,52.561,41.243,51.742z"/>
		<polygon style="clip-path:url(#SVGID_2_);fill:#66667D;" points="32.136,58.373 35.42,58.496 35.065,65.254 32.27,65.295 		"/>
		<path style="clip-path:url(#SVGID_2_);fill:#66667D;" d="M33.699,58.795l2.99,2.352c0,0,5.913-3.84,3.674-9.349
			c-2.013-4.952-12.05-4.553-13.766,0.929c-1.478,4.725,3.898,8.569,3.898,8.569L33.699,58.795z"/>
		<path style="clip-path:url(#SVGID_2_);fill:#F1AA83;" d="M27.103,51.004c0.199-4.071,3.854-5.688,6.465-5.73
			c2.608-0.055,6.311,1.426,6.633,5.488c0.151,1.892-0.109,2.993-1.058,4.062c-1.518,1.706-4.961,3.296-5.38,3.371
			c-0.419-0.005-3.913-1.521-5.48-3.171C27.302,53.99,27.008,52.898,27.103,51.004z"/>
		<path style="clip-path:url(#SVGID_2_);fill:#5E5A3A;" d="M46.789,54.408c-0.443-1.01-5.103-2.514-5.103-2.514
			c-2.845,4.348-4.027,9.5-4.432,14.104L44.58,66C45.496,59.064,47.173,55.279,46.789,54.408z"/>
		<path style="clip-path:url(#SVGID_2_);fill:#5E5A3A;" d="M45.632,53.09l-2.671,4.414c0.828,0.908,1.175,4.89,1.375,8.496
			l6.63-0.002C50.455,59.025,48.409,54.633,45.632,53.09z"/>
		<path style="clip-path:url(#SVGID_2_);fill:#9E996F;" d="M40.654,48.748c9.12,0.512,4.661,12.541,0.2,8.485
			c-0.781,0.541-1.972,1.95-2.905,4.04C39.165,55.635,40.654,48.748,40.654,48.748z"/>
		<path style="clip-path:url(#SVGID_2_);fill:#5E5A3A;" d="M20.763,54.408c0.442-1.01,5.103-2.514,5.103-2.514
			c2.845,4.348,4.027,9.5,4.432,14.104L22.971,66C22.056,59.064,20.379,55.279,20.763,54.408z"/>
		<path style="clip-path:url(#SVGID_2_);fill:#5E5A3A;" d="M21.92,53.09l2.67,4.414c-0.827,0.908-1.175,4.89-1.374,8.496
			l-6.63-0.002C17.097,59.025,19.143,54.633,21.92,53.09z"/>
		<path style="clip-path:url(#SVGID_2_);fill:#9E996F;" d="M26.897,48.748c-9.121,0.512-4.661,12.541-0.2,8.485
			c0.781,0.541,1.972,1.95,2.905,4.04C28.386,55.635,26.897,48.748,26.897,48.748z"/>
		<circle style="clip-path:url(#SVGID_2_);fill:#918FA0;" cx="33.711" cy="60.27" r="0.577"/>
		<circle style="clip-path:url(#SVGID_2_);fill:#918FA0;" cx="33.728" cy="63.488" r="0.577"/>
		<path style="clip-path:url(#SVGID_2_);fill:#EBA971;" d="M47.582,41.598c-0.854,0.327-1.75,0.344-2.612,0.243
			c-0.016-0.032-0.032-0.063-0.048-0.097c-0.369-0.73,0.271-4.738,0.486-5.488c0.542-1.893,1.53-2.86,3.065-2.306
			C51.671,35.104,50.241,40.581,47.582,41.598z"/>
		<path style="clip-path:url(#SVGID_2_);fill:#D99A64;" d="M24.052,37.119c2.533-0.627,5.081-1.199,7.629-1.761
			c4.188-0.924,8.781-0.003,13.031,0.399c3.328,0.317,3.572,1.874,3.575-0.836c0.004-3.354,0.603-8.838,0.007-12.573
			c-2.753-17.28-27.86-14.271-31.522-1.494c-1.332,4.645-1.262,11.317,1.08,15.967C19.074,39.25,21.992,37.629,24.052,37.119z"/>
		<path style="clip-path:url(#SVGID_2_);fill:#FFBC82;" d="M18.691,38.006c0.868,7.971,6.758,16.851,16.002,16.443
			c9.432-0.416,14.433-11.966,13.48-21.765c-1.035-10.654-3.328-19.64-16.891-17.794C19.413,16.505,17.537,27.363,18.691,38.006z"/>
		<path style="clip-path:url(#SVGID_2_);fill:#FFBC82;" d="M16.881,42.383c1.172,0.566,2.512,0.263,3.09-1.046
			c0.683-0.913,0.332-3.411-0.311-5.575c-0.521-1.756-1.652-2.683-3.558-2.243C12.132,34.436,13.932,40.955,16.881,42.383z"/>
		<path style="opacity:0.3;clip-path:url(#SVGID_2_);fill:#B54319;" d="M18.231,40.016c1.43-0.848,0.183-3.875-0.864-4.391
			c-0.856-0.423-3.04,0.238-2.068,1.962c0.579-1.558,1.509-0.501,1.332,0.612c-0.118,0.748-0.923,0.735-0.15,1.721
			C16.9,40.451,17.781,40.281,18.231,40.016z"/>
		<path style="clip-path:url(#SVGID_2_);fill:#45362E;" d="M32.444,12.809c-9.629-0.079-16.475,6.833-15.836,20.613
			c0.4-0.011,1.226-0.011,1.823,0.578c0.799,0.786,0.77,1.643,0.987,2.076c0.102,0.22,0.218,0.583,0.978,0.547
			c-1.431-4.631-0.513-11.667,1.062-13.778c3.904-5.234,10.173,0.7,14.961,0.587c3.82-0.091,7.996-4.991,10.088-0.037
			C47.932,26.771,47.893,12.937,32.444,12.809z"/>
		<path style="opacity:0.3;clip-path:url(#SVGID_2_);fill:#B54319;" d="M38.419,38.459c-0.54-0.634-1.267,0.099-2.636,0.145
			c-1.234,0.045-1.734-0.509-2.588,0.024c-0.852,0.532,0.421,2.15,2.604,2.021C37.973,40.523,38.885,39.007,38.419,38.459z"/>
		<path style="clip-path:url(#SVGID_2_);fill:#FFD4AD;" d="M35.217,33.041c-1.001,0.159-2.221,5.53-1.663,5.914
			c1.366,0.938,4.13,0.381,4.865-0.496C38.707,38.114,36.348,32.864,35.217,33.041z"/>
		<path style="clip-path:url(#SVGID_2_);fill:#45362E;" d="M22.005,28.394c-0.772,0.096-0.927-0.677-0.061-1.079
			c1.204-0.558,2.647-1.028,3.645-0.914c0.908,0.104,5.555,1.145,4.449,2.676c-0.553,0.764-1.888-0.003-2.452-0.331
			c-1.061-0.616-2.472-0.827-3.766-0.67C23.522,28.112,22.742,28.301,22.005,28.394z"/>
		<path style="clip-path:url(#SVGID_2_);fill:#45362E;" d="M47.311,28.73c0.623,0.103,0.901-0.633,0.178-1.037
			c-1.076-0.601-2.395-1.127-3.327-1.037c-0.83,0.081-5.105,1.006-4.184,2.558c0.461,0.776,1.714,0.043,2.244-0.27
			c0.997-0.587,2.29-0.764,3.456-0.575C45.946,28.413,46.645,28.621,47.311,28.73z"/>
		<path style="clip-path:url(#SVGID_2_);fill:#FFD4AD;" d="M46.817,37.648c0.118,0.168,0.209,0.36,0.27,0.584
			c0.582,2.158-4.331,1.478-4.923,0.543c-1.105-1.758,0.532-2.206,1.766-2.195C44.875,36.586,46.196,36.76,46.817,37.648z"/>
		<path style="clip-path:url(#SVGID_2_);fill:#FFD4AD;" d="M27.438,36.997c0.158,0.146,0.296,0.322,0.408,0.537
			c1.08,2.081-4.109,2.485-4.925,1.658c-1.527-1.551,0.05-2.378,1.315-2.644C25.208,36.343,26.604,36.225,27.438,36.997z"/>
		<path style="clip-path:url(#SVGID_2_);fill:#C26346;" d="M27.476,40.802c0.638,2.223-1.859,2.978-2.478,0.802
			C25.744,42.139,26.91,41.818,27.476,40.802z"/>
		<path style="clip-path:url(#SVGID_2_);fill:#C26346;" d="M42.23,41.399c-0.873,2.138,1.528,3.167,2.376,1.073
			C43.809,42.921,42.683,42.475,42.23,41.399z"/>
		<path style="clip-path:url(#SVGID_2_);fill:#C26346;" d="M30.048,45.859c-1.719,0-3.237-0.605-4.083-3.02
			c-0.116-0.33,0.058-0.692,0.389-0.809c0.329-0.116,0.692,0.059,0.808,0.389c0.883,2.519,2.371,2.389,5.388,1.877
			c1.219-0.205,2.604-0.44,4.027-0.377c0.943,0.041,1.754,0.215,2.471,0.368c1.719,0.368,2.43,0.521,3.223-1.164
			c0.149-0.317,0.528-0.452,0.844-0.304c0.317,0.148,0.454,0.527,0.304,0.844c-1.221,2.594-2.879,2.24-4.637,1.865
			c-0.666-0.144-1.422-0.305-2.26-0.342c-1.294-0.058-2.548,0.156-3.761,0.361C31.846,45.703,30.921,45.859,30.048,45.859z"/>
		<path style="clip-path:url(#SVGID_2_);fill:#261B18;" d="M26.33,35.559c-0.679-0.271-1.518-0.287-2.206-0.029
			c-1.603-1.172-0.496-5.201,1.787-4.41C27.611,31.71,27.761,34.682,26.33,35.559z"/>
		<path style="clip-path:url(#SVGID_2_);fill:#261B18;" d="M45.463,31.458c1.19,0.758,1.112,3.257,0.18,4.235
			c-0.566-0.281-1.749-0.435-2.349-0.061C41.467,34.354,43.242,30.043,45.463,31.458z"/>
		<path style="opacity:0.7;clip-path:url(#SVGID_2_);fill:#E6D2C3;" d="M25.173,31.863c0.779-0.329,1.365,0.863,0.765,1.368
			C25.108,33.931,24.297,32.233,25.173,31.863z"/>
		<path style="opacity:0.7;clip-path:url(#SVGID_2_);fill:#E6D2C3;" d="M44.567,31.909c0.794-0.135,1.074,1.102,0.408,1.441
			C44.052,33.822,43.675,32.063,44.567,31.909z"/>
		<path style="clip-path:url(#SVGID_2_);fill:#E62628;" d="M48.174,33.877c0,0,0.699,0.629,0.98-0.49
			c0.28-1.12,3.221-18.692-10.104-23.821c-11.19-4.309-22.097,2.465-24.774,9.166c-2.272,5.688,0.499,7.183,0.499,7.183
			s-0.951,1.313-0.187,3.873c0.501,1.681,0.4,2.684,0.144,3.96c-0.227,1.123,1.788-0.872,3.95,0.519
			c0.552-9.024,5.305-15.91,18.095-15.309C50.089,19.585,48.034,30.238,48.174,33.877z"/>
		<path style="clip-path:url(#SVGID_2_);fill:#FF3B3B;" d="M18.059,24.093c0.151-1.414,0.831-2.76,1.715-3.871
			c1.959-2.46,4.54-4.284,7.617-5.014c0.909-0.216,1.878-0.445,2.813-0.493c-1.538-0.692-4.125-0.392-5.574,0.357
			c-1.423,0.735-2.739,1.883-4.356,2.165c-2.208,0.384-2.414-1.341-1.055-2.795c2.914-3.119,6.858-4.784,10.939-5.016
			c2.88-0.164,5.894,0.121,8.585,1.212c0.96,0.389,2.129,0.984,2.802,1.789c1.35,1.613-0.684,1.588-2.025,1.523
			c-1.186-0.057-2.1-0.306-3.213,0.257c0.367-0.185,2.407,0.456,2.938,0.51c1.057,0.11,2.123,0.173,3.15,0.462
			c1.673,0.47,2.846,1.372,3.81,2.794c0.769,1.136,1.801,2.615,1.508,4.07c-2.168,0.106-1.16-3.518-2.365-4.273
			c-0.396,0.514-0.105,2.103-1.266,1.763c-0.776-0.227-0.796-3.181-1.71-2.239c-0.418,0.43,0.088,1.091-0.222,1.473
			c-0.445,0.548-1.162-0.039-1.433-0.455c-0.285-0.437-0.649-2.243-1.397-2.212c-0.793,0.031-0.2,1.465-0.601,1.854
			c-1.032,1.002-2.081-1.397-2.429-1.873c-0.896-1.235-1.006,0.81-1.258,1.553c-0.844-0.05-1.453-1.957-2.244-1.768
			c-0.75,0.179,0.106,2.105-0.778,2.084c-0.575-0.013-0.979-1.41-1.67-1.393c-0.601,0.016-0.498,0.571-0.634,1.104
			c-0.51,1.984-1.188-0.078-2.305-0.381c-0.102,0.376,0.325,1.714-0.107,1.921c-0.545,0.26-1.284-0.902-1.747-1.091
			c-0.177,0.534,0.128,1.653-0.556,1.905c-0.747,0.273-1.356-1.314-2.007-0.99c-0.521,0.261,0.329,1.8-0.229,2.078
			c-0.534,0.265-1.114-0.842-1.503-1.074c-0.2,1.146,0.8,3.317-1.023,2.099c-0.169,0.933,0.375,2.338-0.896,2.002
			c-0.009,0.442,0.044,2.115-0.532,2.354C17.718,26.928,18.007,24.572,18.059,24.093z"/>
	</g>
</g>
<g id="Layer_1">
</g>
</svg>
