<?xml version="1.0" encoding="iso-8859-1"?>
<!-- Generator: Adobe Illustrator 16.0.0, SVG Export Plug-In . SVG Version: 6.00 Build 0)  -->
<!DOCTYPE svg PUBLIC "-//W3C//DTD SVG 1.1//EN" "http://www.w3.org/Graphics/SVG/1.1/DTD/svg11.dtd">
<svg version="1.1" xmlns="http://www.w3.org/2000/svg" xmlns:xlink="http://www.w3.org/1999/xlink" x="0px" y="0px"
	 width="66.003px" height="66px" viewBox="0 0 66.003 66" style="enable-background:new 0 0 66.003 66;" xml:space="preserve">
<g id="Layer_68">
	<g>
		<defs>
			<circle id="SVGID_1_" cx="33.003" cy="33" r="33"/>
		</defs>
		<clipPath id="SVGID_2_">
			<use xlink:href="#SVGID_1_"  style="overflow:visible;"/>
		</clipPath>
		<rect style="clip-path:url(#SVGID_2_);fill:#D6BB40;" width="65.999" height="65.998"/>
		<path style="clip-path:url(#SVGID_2_);fill:#8D573E;" d="M18.801,65.998h8.246l-0.386-13.393
			C21.106,55.433,18.801,58.652,18.801,65.998z"/>
		<path style="clip-path:url(#SVGID_2_);fill:#8D573E;" d="M42.313,52.605l-0.387,13.393h8.247
			C50.173,58.652,47.867,55.433,42.313,52.605z"/>
		<path style="clip-path:url(#SVGID_2_);fill:#8D573E;" d="M43.231,53.866c-2.043-4.968-13.698-3.675-16.57-1.261
			c-2.448,2.055-2.067,8.279-1.244,13.393h17.782C43.963,61.782,44.44,56.807,43.231,53.866z"/>
		<path style="clip-path:url(#SVGID_2_);fill:#37231A;" d="M36.835,57.605c0,0-0.727-1.663-2.842-1.266
			c-1.892,0.354-2.166,1.981-2.166,1.981l1.561,1.582l-2.06,6.095h6.596l-2.504-6.249L36.835,57.605z"/>
		<path style="clip-path:url(#SVGID_2_);fill:#C78B6D;" d="M27.267,52.342c-1.503,3.838,3.964,6.965,3.964,6.965l3.256-2.034
			l3.043,1.91c0,0,6.011-3.119,3.734-7.595C39.217,47.562,29.011,47.887,27.267,52.342z"/>
		<path style="clip-path:url(#SVGID_2_);fill:#F2B081;" d="M32.107,46.971c-1.942,0.427-3.231,2.272-3.365,4.174
			c-0.104,1.472,0.132,2.325,0.954,3.143c0.593,0.59,1.565,1.172,2.569,1.479c0.715,0.219,1.969,1.06,2.19,1.063
			c0.091,0.002,0.504-0.359,1.179-0.707c0.987-0.51,2.387-1.183,2.93-2.248c0.797-1.559,1.508-4.646,0.003-5.856
			C37.008,46.765,33.969,46.563,32.107,46.971z"/>
		<path style="clip-path:url(#SVGID_2_);fill:#322B2A;" d="M30.746,9.53c-3.37,0.267-6.514,1.361-9.233,3.387
			c-1.325,0.987-2.533,2.692-3.021,4.284c-0.24,0.785-0.678,1.438-0.986,2.186c-0.472,1.143-2.489,7.143-2.489,9.229
			c0,0.904,0.172,3.72,0.322,4.587c0.303,1.737,0.956,3.542,2.247,4.808c0.506,0.493,1.164,0.683,1.863,0.534
			c4.347-0.915,8.618-2.147,12.926-3.221c4.011-0.998,8.459-0.231,12.563,0.047c3.215,0.217,3.163-1.144,3.321-3.748
			c0.295-4.854-0.244-6.635-0.007-8.596C49.257,14.685,42.552,8.601,30.746,9.53z"/>
		<path style="clip-path:url(#SVGID_2_);fill:#FFCB9E;" d="M31.456,15.619C23.88,17.096,18.54,27.991,19.931,38.213
			c1.042,7.657,6.948,16.056,15.843,15.422c9.073-0.646,13.591-11.901,12.416-21.316C46.916,22.083,42.069,13.55,31.456,15.619z"/>
		<path style="clip-path:url(#SVGID_2_);fill:#1B2C33;" d="M28.568,31.527c-1.952-0.841-3.18,2.626-1.849,3.756
			c0.622-0.181,1.355-0.114,1.935,0.166C29.964,34.771,30.022,32.154,28.568,31.527z"/>
		<path style="opacity:0.3;clip-path:url(#SVGID_2_);fill:#C94614;" d="M37.47,38.042c-0.996,0.036-1.411-0.231-2.091,0.044
			c-0.679,0.272,0.264,1.286,2.025,1.198c1.755-0.089,2.583-1.077,2.194-1.344C39.149,37.631,38.575,38.003,37.47,38.042z"/>
		<path style="clip-path:url(#SVGID_2_);fill:#FFE1C7;" d="M36.968,34.068c-0.869,0.049-1.08,1.708-1.399,2.494
			c-0.325,0.798-0.547,1.533-0.093,1.758c1.118,0.552,3.454,0.161,4.136-0.281c0.268-0.176-0.346-0.974-0.825-1.772
			C38.361,35.559,37.948,34.014,36.968,34.068z"/>
		<path style="clip-path:url(#SVGID_2_);fill:#1B2C33;" d="M45.435,31.397c-1.987-1.193-3.447,2.64-1.809,3.724
			c0.519-0.345,1.562-0.238,2.066-0.005C46.49,34.235,46.497,32.037,45.435,31.397z"/>
		<path style="clip-path:url(#SVGID_2_);fill:#A5ABB8;" d="M28.435,33.052c-0.792,0.27-0.189,1.809,0.583,1.249
			C29.577,33.896,29.139,32.813,28.435,33.052z"/>
		<path style="clip-path:url(#SVGID_2_);fill:#A5ABB8;" d="M45.217,32.732c-0.782,0.156-0.406,1.694,0.394,1.259
			C46.188,33.678,45.911,32.595,45.217,32.732z"/>
		<path style="clip-path:url(#SVGID_2_);fill:#FFCB9E;" d="M17.287,33.955c-3.721,1.025-2.228,6.456,0.812,7.547
			c0.975,0.35,2.01,0.396,3.005,0.326c0.021-0.03,0.04-0.059,0.06-0.091c0.446-0.708-0.35-4.321-0.576-5.067
			C20.014,34.792,19.073,33.462,17.287,33.955z"/>
		<path style="opacity:0.3;clip-path:url(#SVGID_2_);fill:#C94614;" d="M18.594,35.955c-0.837-0.386-2.925,0.308-1.943,1.943
			c0.519-1.517,1.441-0.522,1.3,0.555c-0.094,0.723-0.87,0.732-0.1,1.66c0.417,0.502,1.263,0.315,1.689,0.047
			C20.895,39.306,19.614,36.424,18.594,35.955z"/>
		<path style="clip-path:url(#SVGID_2_);fill:#322B2A;" d="M45.563,15.298c-2.444-2.877-5.685-4.895-9.443-5.48
			c-2.305-0.358-4.688-0.097-6.926,0.529c-3.297,0.922-5.196,2.321-7.782,4.578c-3.001,2.622-3.675,5.688-3.735,9.554
			c-0.045,2.811,1.072,5.402,1.186,8.157c0.067,1.655,1.031,3.689,1.561,4.377c0.411,0.203,1.311,0.203,2.033,0.014
			c-1.359-1.26-1.912-4.69-0.826-7.908c0.456-1.354,0.871-2.55,1.155-3.962c0.193-0.96,0.283-1.639,1.366-1.721
			c1.484-0.112,2.368,1.261,3.74,1.447c0.471,0.064,0.965,0.093,1.44,0.123c1.438,0.085,2.935,0.042,4.369-0.088
			c2-0.181,3.979-0.235,5.986-0.342c1.447-0.074,2.861-0.035,4.301-0.2c0.047-0.006,0.096-0.011,0.145-0.014
			c1.058-0.104,2.286-0.038,3.164-0.702c1.037-0.783,1.602-2.438,1.213-3.674C47.97,18.261,46.719,16.656,45.563,15.298z"/>
		<path style="clip-path:url(#SVGID_2_);fill:#322B2A;" d="M27.419,27.814c-1.36,0.271-2.807,1.273-3.22,2.571
			c-0.101,0.319,0.184,0.852,0.75,0.536c0.856-0.477,1.7-0.971,2.688-1.15c0.982-0.18,1.996-0.124,2.95,0.147
			c0.577,0.165,1.158-0.426,0.77-1.036C30.664,27.798,28.54,27.59,27.419,27.814z"/>
		<path style="clip-path:url(#SVGID_2_);fill:#322B2A;" d="M44.692,27.465c-1.026,0.004-3.06,0.738-3.467,1.784
			c-0.23,0.583,0.389,0.985,0.867,0.746c0.788-0.396,1.729-0.806,2.626-0.822c0.903-0.019,1.675,0.44,2.516,0.697
			c0.557,0.171,0.707-0.331,0.561-0.585C47.191,28.252,45.938,27.458,44.692,27.465z"/>
		<path style="clip-path:url(#SVGID_2_);fill:#FFE1C7;" d="M47.102,36.869c-0.705-0.773-1.989-0.773-2.893-0.66
			c-1.181,0.146-2.688,0.78-1.412,2.318c0.682,0.818,5.462,0.854,4.636-1.136C47.347,37.188,47.235,37.014,47.102,36.869z"/>
		<path style="clip-path:url(#SVGID_2_);fill:#FFE1C7;" d="M29.281,37.196c-0.714-0.831-2.061-0.876-3.013-0.787
			c-1.242,0.113-2.844,0.727-1.557,2.382c0.688,0.883,5.7,1.078,4.898-1.033C29.527,37.54,29.416,37.354,29.281,37.196z"/>
		<path style="clip-path:url(#SVGID_2_);fill:#322B2A;" d="M40.07,7.58c-4.133,1.479-8.575,1.781-10.647,2.098
			c-1.063,0.16-3.017,0.568-3.44,1.75c1.253,0.236,2.584,0.201,3.856,0.372c3.345,0.451,7.375,0.544,10.729,0.21
			c1.111-0.109,2.257-1.549,2.825-2.187c-1.205-0.049-2.93-0.199-4.447-0.282C39.343,9.014,39.64,8.563,40.07,7.58z"/>
		<path style="clip-path:url(#SVGID_2_);fill:#423736;" d="M46.162,16.199c-2.429-2.969-5.964-5.182-9.795-5.524
			c-3.297-0.295-6.561-0.347-9.738,0.75c-1.62,0.557-3.265,1.533-4.454,2.786c-1.286,1.354-2.455,3.58-0.829,5.15
			c0.838,0.812,5.029,3.99,6.23,4.562c-0.166-0.802-0.049-1.67-0.185-2.449c2.221,0.463,8.669,2.376,9.614,2.843
			c0.052-0.762,0.036-1.61,0.271-2.325c2.202,0.089,4.11,1.065,5.938,2.175c0.068-1.038,0.449-1.976,0.532-2.987
			c1.884,0.076,4.4,0.616,5.965,1.713c-0.615-1.72-1.39-3.485-2.362-5.038C46.992,17.283,46.596,16.729,46.162,16.199z"/>
		<path style="opacity:0.2;clip-path:url(#SVGID_2_);fill:#C4170E;" d="M26.239,40.623c0,0,2.313,8.508,8.975,8.981
			c4.257,0.3,5.581-1.931,7.157-4.624c0.938-1.601,1.575-3.338,2.659-4.641C42.198,42.732,34.458,45.114,26.239,40.623z"/>
		<path style="opacity:0.3;clip-path:url(#SVGID_2_);fill:#C94614;" d="M43.493,40.555c-0.234,0.173,0.287,0.056,0.985-0.063
			c0.7-0.119,0.462,1.046,0.895,0.927c0.432-0.118,0.547-0.961,0.034-1.403C44.896,39.574,43.493,40.555,43.493,40.555z"/>
		<path style="opacity:0.3;clip-path:url(#SVGID_2_);fill:#C94614;" d="M26.066,40.265c-0.621,0.169-0.941,1.24-0.544,1.421
			c0.399,0.18,0.606-0.775,1.283-0.952c0.724-0.188,1.601,0.063,1.398-0.144C28.204,40.59,26.762,40.076,26.066,40.265z"/>
		<path style="clip-path:url(#SVGID_2_);fill:#8F3935;" d="M27.583,41.83c0,0,2.077,6.193,8.12,6.441
			c3.002,0.123,5.024-2.036,5.938-3.65c1.021-1.799,2.305-2.979,2.305-2.979C35.016,47.102,27.583,41.83,27.583,41.83z"/>
		<path style="clip-path:url(#SVGID_2_);fill:#FFF9F0;" d="M27.583,41.83c0,0,1.644,2.582,3.682,3.438
			c2.61,1.096,5.013,1.209,8.015,0.519c2.023-0.465,4.667-4.144,4.667-4.144S36.877,46.218,27.583,41.83z"/>
		<path style="clip-path:url(#SVGID_2_);fill:#FFF9F0;" d="M36.471,45.854c-2.773-0.034-4.233-0.621-5.524-1.168
			c-1.074-0.457-0.957,0.631-0.762,1.164c0,0,1.034,1.936,5.02,2.385c3.756,0.427,5.579-2.409,5.093-2.984
			C39.81,44.675,39.244,45.889,36.471,45.854z"/>
		<path style="clip-path:url(#SVGID_2_);fill:#E8DAC5;" d="M27.583,41.83c0,0,0.814,1.392,1.587,1.939c0,0,6.854,1.529,13.334-0.374
			c0,0,1.326-1.255,1.442-1.753C43.946,41.643,36.644,46.141,27.583,41.83z"/>
		<path style="clip-path:url(#SVGID_2_);fill:#E8DAC5;" d="M30.181,44.676c5.86,3.507,9.658,0.801,9.658,0.801
			C34.499,46.662,30.181,44.676,30.181,44.676z"/>
		<path style="opacity:0.15;clip-path:url(#SVGID_2_);fill:#5E0900;" d="M46.19,19.714c-0.37-0.544-0.859-1.018-1.479-1.265
			c-4.143-1.648-8.154-2.583-12.68-2.663c-2.768-0.049-5.772-0.203-8.35,0.962c-2.356,1.068-4.651,2.977-5.795,5.322
			c-0.44,0.903-3.457,5.978-1.373,6.394c1.088,0.218,2.528-1.052,3.381-1.617c0.963,0.619,2.015,1.338,2.905,2.048
			c1.379,1.1,2.67,2.301,4.495,1.553c8.48-3.477,15.553-2.469,17.521-2.525c0.735-0.021,2.071,0.346,2.737,0.093
			c1.931-0.734-0.519-5.553-0.82-6.729C46.58,20.682,46.56,20.26,46.19,19.714z"/>
		<path style="clip-path:url(#SVGID_2_);fill:#59362A;" d="M28.733,6.428c-12.73,2.177-14.168,14.34-14.799,18.915
			c-0.457,3.312,3.776,1.362,6.575-0.364c0.305-0.19,0.614-0.365,0.928-0.523c6.174-3.163,12.938-2.437,19.631-2.825
			c2.25-0.132,4.851-0.485,7.716,0.055C51.246,22.148,47.846,3.163,28.733,6.428z"/>
		<path style="clip-path:url(#SVGID_2_);fill:#8E523B;" d="M41.652,8.924c-3.297-2.017-6.293-2.664-10.119-2.429
			c-4.275,0.26-8.419,1.854-10.204,3.507c-0.515,1.604-0.863,6.068,0.645,10.779c0.603,1.877,1.481,0.481,4.325-0.554
			c8.047-2.932,13.617-2.387,19.992-1.087c1.084,0.221,2.373,0.641,2.243-0.34c-0.298-2.245-1.852-5.451-4.4-7.934
			C43.364,10.119,42.529,9.46,41.652,8.924z"/>
		<path style="clip-path:url(#SVGID_2_);fill:#D69F85;" d="M28.772,11.225c-2.924,1.305-1.537,6.232,1.575,5.528
			c2.472-0.557,4.951-1.08,8.768-0.637c1.531,0.179,5.288,1.415,4.864-1.562C43.2,9.093,32.052,9.762,28.772,11.225z"/>
		<path style="clip-path:url(#SVGID_2_);fill:#C78B6D;" d="M29.909,17.73L29.627,17.8c-0.192,0.048-0.385,0.073-0.571,0.075
			c-0.13,0.002-0.232,0.107-0.23,0.236c0,0.121,0.094,0.22,0.211,0.23c0.008,0,0.016,0.001,0.024,0.001
			c0.222-0.003,0.45-0.033,0.678-0.089l0.282-0.07c0.126-0.031,0.201-0.157,0.171-0.282C30.16,17.776,30.033,17.7,29.909,17.73z"/>
		<path style="clip-path:url(#SVGID_2_);fill:#C78B6D;" d="M28.398,9.724c-0.327,0.112-0.623,0.231-0.879,0.355l-0.022,0.011
			c-0.116,0.057-0.153,0.191-0.098,0.307c0.036,0.075,0.111,0.119,0.191,0.126c0.044,0.004,0.088-0.003,0.13-0.023
			c0.241-0.116,0.52-0.229,0.829-0.335c0.121-0.041,0.188-0.174,0.145-0.294C28.651,9.748,28.521,9.683,28.398,9.724z"/>
		<path style="clip-path:url(#SVGID_2_);fill:#C78B6D;" d="M28.239,17.729c-0.253-0.097-0.497-0.24-0.723-0.43
			c-0.099-0.081-0.246-0.067-0.329,0.031c-0.082,0.099-0.068,0.246,0.031,0.328c0.267,0.222,0.554,0.393,0.854,0.506
			c0.021,0.008,0.041,0.014,0.063,0.016c0.101,0.009,0.2-0.05,0.237-0.149C28.42,17.911,28.359,17.776,28.239,17.729z"/>
		<path style="clip-path:url(#SVGID_2_);fill:#C78B6D;" d="M30.21,9.245c-0.316,0.063-0.621,0.135-0.911,0.211
			c-0.125,0.031-0.199,0.159-0.166,0.282c0.025,0.099,0.109,0.166,0.203,0.175c0.027,0.002,0.054,0,0.08-0.007
			c0.282-0.074,0.58-0.142,0.887-0.203c0.126-0.025,0.208-0.148,0.183-0.273C30.459,9.302,30.336,9.221,30.21,9.245z"/>
		<path style="clip-path:url(#SVGID_2_);fill:#C78B6D;" d="M32.055,8.963c-0.312,0.033-0.622,0.074-0.924,0.121
			c-0.129,0.02-0.215,0.138-0.196,0.266c0.018,0.108,0.105,0.188,0.21,0.197c0.019,0.001,0.037,0,0.056-0.002
			c0.298-0.046,0.602-0.085,0.905-0.118c0.128-0.014,0.221-0.129,0.206-0.258C32.298,9.042,32.183,8.947,32.055,8.963z"/>
		<path style="clip-path:url(#SVGID_2_);fill:#C78B6D;" d="M31.708,17.304c-0.302,0.065-0.602,0.135-0.902,0.208
			c-0.126,0.03-0.202,0.155-0.172,0.281c0.022,0.1,0.107,0.169,0.205,0.178c0.024,0.003,0.05,0.001,0.076-0.006
			c0.297-0.071,0.595-0.141,0.893-0.205c0.126-0.028,0.206-0.152,0.178-0.277C31.959,17.355,31.834,17.276,31.708,17.304z"/>
		<path style="clip-path:url(#SVGID_2_);fill:#C78B6D;" d="M33.536,16.966c-0.299,0.042-0.606,0.095-0.918,0.152
			c-0.125,0.024-0.209,0.146-0.186,0.272c0.02,0.104,0.106,0.18,0.209,0.188c0.021,0.003,0.042,0.001,0.063-0.002
			c0.305-0.057,0.608-0.107,0.9-0.149c0.128-0.02,0.216-0.139,0.196-0.265C33.782,17.035,33.664,16.946,33.536,16.966z"/>
		<path style="clip-path:url(#SVGID_2_);fill:#C78B6D;" d="M42.59,11.354c0.035,0.028,0.078,0.044,0.119,0.047
			c0.078,0.008,0.157-0.024,0.209-0.091c0.077-0.103,0.058-0.249-0.045-0.327c-0.243-0.187-0.51-0.365-0.79-0.527
			c-0.111-0.065-0.254-0.027-0.319,0.084c-0.063,0.112-0.027,0.254,0.085,0.318C42.111,11.012,42.361,11.179,42.59,11.354z"/>
		<path style="clip-path:url(#SVGID_2_);fill:#C78B6D;" d="M25.767,13.545c0.002,0,0.004,0,0.006,0
			c0.128,0.009,0.239-0.088,0.249-0.216c0.002-0.032,0.004-0.065,0.007-0.098c0.024-0.267,0.07-0.522,0.137-0.767
			c0.033-0.123-0.04-0.251-0.164-0.285s-0.252,0.038-0.286,0.163c-0.074,0.269-0.124,0.554-0.151,0.849
			c-0.003,0.034-0.005,0.07-0.01,0.105C25.547,13.423,25.641,13.533,25.767,13.545z"/>
		<path style="clip-path:url(#SVGID_2_);fill:#C78B6D;" d="M26.685,10.656c-0.233,0.225-0.437,0.487-0.603,0.78
			c-0.063,0.113-0.023,0.256,0.089,0.319c0.03,0.016,0.062,0.025,0.095,0.028c0.088,0.008,0.177-0.036,0.224-0.118
			c0.143-0.254,0.317-0.481,0.518-0.673c0.093-0.09,0.096-0.236,0.008-0.33C26.926,10.57,26.778,10.566,26.685,10.656z"/>
		<path style="clip-path:url(#SVGID_2_);fill:#C78B6D;" d="M44.228,13.395c0.114,0.266,0.206,0.545,0.273,0.834
			c0.023,0.101,0.109,0.171,0.207,0.18c0.023,0.002,0.05,0.001,0.074-0.006c0.125-0.028,0.203-0.154,0.173-0.279
			c-0.073-0.315-0.174-0.623-0.302-0.912c-0.051-0.12-0.188-0.174-0.306-0.123C44.229,13.141,44.176,13.278,44.228,13.395z"/>
		<path style="clip-path:url(#SVGID_2_);fill:#C78B6D;" d="M26.196,15.08c-0.077-0.286-0.131-0.578-0.16-0.869
			c-0.013-0.129-0.128-0.222-0.255-0.209c-0.128,0.012-0.222,0.128-0.209,0.255c0.032,0.317,0.092,0.635,0.174,0.943
			c0.026,0.098,0.109,0.163,0.204,0.173c0.027,0.001,0.054,0,0.082-0.008C26.156,15.33,26.23,15.205,26.196,15.08z"/>
		<path style="clip-path:url(#SVGID_2_);fill:#C78B6D;" d="M26.495,15.909c-0.055-0.116-0.192-0.168-0.31-0.114
			c-0.117,0.055-0.168,0.192-0.115,0.31c0.139,0.303,0.302,0.584,0.483,0.836c0.043,0.058,0.104,0.09,0.17,0.096
			c0.054,0.006,0.109-0.01,0.156-0.043c0.104-0.075,0.128-0.222,0.053-0.325C26.768,16.439,26.62,16.185,26.495,15.909z"/>
		<path style="clip-path:url(#SVGID_2_);fill:#C78B6D;" d="M40.947,17.121c-0.157-0.024-0.311-0.048-0.459-0.072
			c-0.157-0.024-0.309-0.049-0.452-0.069c-0.125-0.019-0.246,0.068-0.264,0.196c-0.02,0.128,0.068,0.246,0.196,0.265
			c0.142,0.021,0.29,0.044,0.446,0.069c0.149,0.024,0.306,0.05,0.465,0.071c0.003,0.001,0.009,0.002,0.013,0.002
			c0.122,0.012,0.233-0.074,0.252-0.197C41.163,17.26,41.075,17.139,40.947,17.121z"/>
		<path style="clip-path:url(#SVGID_2_);fill:#C78B6D;" d="M40.365,9.677c-0.123-0.043-0.255,0.021-0.298,0.144
			c-0.042,0.121,0.022,0.253,0.144,0.297c0.291,0.102,0.573,0.212,0.838,0.332c0.025,0.011,0.051,0.018,0.075,0.02
			c0.097,0.008,0.191-0.044,0.233-0.138c0.054-0.117,0.001-0.256-0.117-0.308C40.963,9.898,40.669,9.782,40.365,9.677z"/>
		<path style="clip-path:url(#SVGID_2_);fill:#C78B6D;" d="M43.978,12.729c0.051,0.006,0.105-0.009,0.151-0.039
			c0.107-0.072,0.135-0.217,0.063-0.324c-0.177-0.261-0.38-0.512-0.605-0.745c-0.089-0.094-0.236-0.097-0.33-0.007
			c-0.092,0.089-0.095,0.236-0.005,0.329c0.206,0.215,0.393,0.444,0.553,0.685C43.846,12.688,43.911,12.722,43.978,12.729z"/>
		<path style="clip-path:url(#SVGID_2_);fill:#C78B6D;" d="M42.737,17.252c-0.263,0.014-0.555,0.008-0.889-0.021
			c-0.128-0.012-0.242,0.083-0.253,0.212c-0.01,0.127,0.084,0.24,0.212,0.252c0.001,0,0.001,0,0.001,0
			c0.355,0.03,0.668,0.038,0.955,0.021c0.128-0.006,0.226-0.117,0.219-0.244C42.978,17.343,42.868,17.244,42.737,17.252z"/>
		<path style="clip-path:url(#SVGID_2_);fill:#C78B6D;" d="M44.85,14.854c-0.129,0.009-0.227,0.119-0.219,0.246
			c0.013,0.197,0.011,0.382-0.003,0.55c-0.01,0.106-0.025,0.21-0.047,0.305c-0.026,0.126,0.055,0.25,0.181,0.278
			c0.009,0.001,0.02,0.002,0.028,0.003c0.115,0.011,0.223-0.066,0.247-0.182c0.025-0.115,0.043-0.235,0.055-0.363
			c0.018-0.192,0.019-0.399,0.005-0.619C45.088,14.942,44.979,14.845,44.85,14.854z"/>
		<path style="clip-path:url(#SVGID_2_);fill:#C78B6D;" d="M44.242,16.672c-0.166,0.192-0.384,0.332-0.664,0.431
			c-0.121,0.042-0.186,0.174-0.143,0.296c0.029,0.091,0.11,0.148,0.199,0.155c0.032,0.004,0.065-0.001,0.098-0.011
			c0.354-0.124,0.644-0.313,0.861-0.563c0.085-0.098,0.075-0.245-0.022-0.329C44.475,16.564,44.327,16.574,44.242,16.672z"/>
		<path style="clip-path:url(#SVGID_2_);fill:#C78B6D;" d="M35.776,8.851c-0.309-0.016-0.621-0.025-0.933-0.026
			c-0.128-0.003-0.233,0.101-0.235,0.229c0,0.122,0.093,0.225,0.212,0.235c0.006,0,0.014,0.001,0.02,0.001
			c0.305,0.001,0.612,0.012,0.912,0.026c0.13,0.006,0.238-0.093,0.245-0.222C36.003,8.966,35.902,8.854,35.776,8.851z"/>
		<path style="clip-path:url(#SVGID_2_);fill:#C78B6D;" d="M37.253,16.751c-0.313-0.009-0.627-0.011-0.931-0.007
			c-0.129,0.001-0.232,0.106-0.229,0.236c0.001,0.121,0.094,0.221,0.211,0.229c0.009,0.001,0.017,0.001,0.023,0.001
			c0.299-0.004,0.606-0.001,0.913,0.008c0.129,0.004,0.236-0.099,0.24-0.227C37.483,16.862,37.379,16.752,37.253,16.751z"/>
		<path style="clip-path:url(#SVGID_2_);fill:#C78B6D;" d="M33.912,8.834c-0.308,0.009-0.621,0.025-0.93,0.045
			C32.854,8.89,32.758,9,32.766,9.129c0.008,0.115,0.099,0.205,0.213,0.215c0.012,0.002,0.023,0.002,0.036,0
			c0.302-0.02,0.609-0.035,0.912-0.045c0.128-0.003,0.23-0.11,0.227-0.239C34.149,8.93,34.042,8.829,33.912,8.834z"/>
		<path style="clip-path:url(#SVGID_2_);fill:#C78B6D;" d="M35.391,16.777c-0.309,0.018-0.621,0.042-0.93,0.072
			c-0.127,0.015-0.222,0.129-0.208,0.256c0.012,0.114,0.102,0.199,0.211,0.209c0.014,0,0.029,0,0.045,0
			c0.3-0.031,0.606-0.054,0.908-0.071c0.128-0.008,0.227-0.118,0.22-0.246C35.63,16.868,35.522,16.771,35.391,16.777z"/>
		<path style="clip-path:url(#SVGID_2_);fill:#C78B6D;" d="M39.11,16.869c-0.32-0.029-0.628-0.056-0.928-0.074
			c-0.128-0.008-0.239,0.09-0.248,0.218c-0.008,0.126,0.086,0.235,0.212,0.248c0.002,0,0.004,0,0.006,0
			c0.294,0.019,0.6,0.043,0.911,0.073c0.001,0,0.002,0,0.003,0c0.127,0.011,0.24-0.081,0.253-0.209
			C39.33,16.997,39.236,16.884,39.11,16.869z"/>
		<path style="clip-path:url(#SVGID_2_);fill:#C78B6D;" d="M37.633,9.029c-0.303-0.044-0.614-0.082-0.927-0.111
			c-0.001,0-0.001,0-0.001,0C36.577,8.907,36.463,9,36.452,9.129c-0.013,0.128,0.081,0.24,0.209,0.254
			c0.307,0.029,0.61,0.066,0.905,0.107c0.004,0.001,0.009,0.001,0.013,0.001c0.121,0.011,0.233-0.074,0.251-0.198
			C37.849,9.166,37.76,9.047,37.633,9.029z"/>
		<path style="clip-path:url(#SVGID_2_);fill:#C78B6D;" d="M39.466,9.401c-0.291-0.078-0.599-0.15-0.911-0.213
			c-0.127-0.025-0.249,0.057-0.275,0.183c-0.024,0.125,0.057,0.249,0.184,0.275c0.303,0.061,0.601,0.128,0.884,0.206
			c0.013,0.003,0.025,0.004,0.039,0.008c0.11,0.01,0.217-0.063,0.246-0.174C39.665,9.563,39.592,9.436,39.466,9.401z"/>
		<path style="clip-path:url(#SVGID_2_);fill:#59362A;" d="M49.424,20.97c-2.394-2.881-21.762-3.579-29.85,4.21
			c3.176,2.452,3.271,4.989,7.747,3.682c3.57-1.044,7.094-2.239,10.808-2.381c6.776-0.257,13.1,0.592,16.16,3.438
			c2.739,0.818,0.877-1.55,0.2-2.462C52.639,24.958,51.178,23.08,49.424,20.97z"/>
		<path style="clip-path:url(#SVGID_2_);fill:#A86B4D;" d="M49.165,21.05c-2.342-2.817-20.979-4.116-28.887,3.497
			c3.967,3.06,3.484,4.017,9.102,2.375c6.187-1.811,19.519-3.072,24.535,1.59c1.79,1.416,1.572,0.418,0.201-1.123
			C52.095,25.119,50.879,23.111,49.165,21.05z"/>
		<path style="clip-path:url(#SVGID_2_);fill:#8E523B;" d="M18.229,24.009c-1.202,0.897-2.343,1.233-3.196,0.859
			c-0.854-0.371-0.619,0.3-0.67,0.887c-0.053,0.587,0.901,1.145,3.177,0.165c2.274-0.979,4.327-3.455,4.327-3.455
			c-0.442-1.005-0.557-1.704-0.557-1.704S19.432,23.111,18.229,24.009z"/>
		<path style="clip-path:url(#SVGID_2_);fill:#D69F85;" d="M35.104,25.528c-4.789,0.578-7.874,2.237-10.141,1.814
			c-1.836-0.341-3.983-2.242-3.983-2.242s1.468,2.574,3.921,2.939c2.456,0.366,3.728-1.101,10.314-2.122
			c6.588-1.021,12.103-0.194,12.103-0.194S41.789,24.721,35.104,25.528z"/>
		<path style="clip-path:url(#SVGID_2_);fill:#7A4733;" d="M30.296,25.129c-4.382,0.942-5.983,1.058-8.215-0.904
			c0,0,1.084,2.301,3.056,2.379c2.749,0.108,4.965-1.432,12.953-2.109C38.09,24.494,34.679,24.188,30.296,25.129z"/>
		<path style="clip-path:url(#SVGID_2_);fill:#7A4733;" d="M43.381,24.396c0,0,6.72,0.454,9.62,2.49l-0.563-0.808
			C52.438,26.079,47.951,24.089,43.381,24.396z"/>
	</g>
</g>
<g id="Layer_1">
</g>
</svg>
