<?xml version="1.0" encoding="iso-8859-1"?>
<!-- Generator: Adobe Illustrator 16.0.0, SVG Export Plug-In . SVG Version: 6.00 Build 0)  -->
<!DOCTYPE svg PUBLIC "-//W3C//DTD SVG 1.1//EN" "http://www.w3.org/Graphics/SVG/1.1/DTD/svg11.dtd">
<svg version="1.1" xmlns="http://www.w3.org/2000/svg" xmlns:xlink="http://www.w3.org/1999/xlink" x="0px" y="0px" width="66px"
	 height="66.001px" viewBox="0 0 66 66.001" style="enable-background:new 0 0 66 66.001;" xml:space="preserve">
<g id="Layer_102">
	<g>
		<defs>
			<circle id="SVGID_1_" cx="33" cy="33.001" r="33"/>
		</defs>
		<clipPath id="SVGID_2_">
			<use xlink:href="#SVGID_1_"  style="overflow:visible;"/>
		</clipPath>
		<rect style="clip-path:url(#SVGID_2_);fill:#FFFFFF;" width="66" height="65.998"/>
		<path style="clip-path:url(#SVGID_2_);fill:#FF9819;" d="M26.139,60.257c0.773-0.896,0.437-6.809-0.551-6.522
			c-3.301,0.958-7.08,7.085-6.612,12.264h5.319C24.036,64.002,24.855,61.742,26.139,60.257z"/>
		<path style="clip-path:url(#SVGID_2_);fill:#765AA3;" d="M25.559,53.121c-3.121,2.016-6.827,6.099-7.106,11.496
			c1.783,0.682,4.488,1.078,6.314,0.919c-0.058-1.932,0.302-3.876,1.519-5.284C27.092,59.316,26.46,52.537,25.559,53.121z"/>
		<path style="clip-path:url(#SVGID_2_);fill:#FF9819;" d="M41.106,53.734c-0.986-0.286-1.324,5.626-0.551,6.522
			c1.283,1.485,2.103,3.745,1.845,5.741h5.319C48.188,60.819,44.407,54.692,41.106,53.734z"/>
		<path style="clip-path:url(#SVGID_2_);fill:#765AA3;" d="M41.137,53.121c-0.902-0.584-1.533,6.195-0.727,7.131
			c1.217,1.408,1.576,3.353,1.519,5.284c1.826,0.159,4.53-0.237,6.313-0.919C47.964,59.22,44.257,55.137,41.137,53.121z"/>
		<path style="clip-path:url(#SVGID_2_);fill:#3A3A4A;" d="M41.591,59.832c0.01-1.753,0.688-4.124,1.098-5.311
			c0.108-0.312-1.135-2.712-9.264-2.756c-8.374-0.044-9.465,2.312-9.31,2.628c0.603,1.225,1.045,3.232,1.048,5.396
			c0.002,2.438,0.176,4.461,0.296,6.208h15.845C41.408,64.263,41.576,62.248,41.591,59.832z"/>
		<path style="clip-path:url(#SVGID_2_);fill:#FF9819;" d="M27.556,53.08c-0.701,2.575,5.834,5.554,5.834,5.554
			s7.393-3.186,5.541-6.033C37.269,50.04,28.385,50.03,27.556,53.08z"/>
		<path style="clip-path:url(#SVGID_2_);fill:#8F4721;" d="M33.365,46.817c-1.884-0.004-4.538,1.184-4.728,4.298
			c-0.088,1.449,0.112,2.288,0.809,3.093c1.113,1.285,2.493,2.329,3.919,2.359c1.429-0.03,2.807-1.074,3.921-2.359
			c0.695-0.805,0.896-1.644,0.808-3.093C37.904,48.001,35.249,46.813,33.365,46.817z"/>
		<path style="clip-path:url(#SVGID_2_);fill:#1F1A17;" d="M52.677,18.728c3.277-2.436,0.854-7.198-3.725-6.089
			c1.648-2.937-1.862-6.375-5.069-2.925c0.271-4.811-5.03-5.455-7.322-2.16c0.634-3.961-6.231-4.357-6.86-0.049
			c-1.701-2.771-7.799-2.959-7.32,1.248c-2.532-3.541-6.259-0.48-4.82,3.365c-4.048-1.93-6.7,2.586-3.202,5.108
			c-3.728-1.032-5.963,3.956-1.409,5.722c-4.268-0.447-4.557,5.039-0.786,4.873c-2.714,1.127-1.299,4.727,1.507,4.368
			c-1.662,1.72,0.191,7.594,3.98,6.828c5.064-1.022,10.59-3.772,15.808-1.819c2.889,1.081,5.293,3.285,8.292,4.112
			c2.393,0.66,6.904,0.077,8.98-1.391c1.848-1.306,2.916-5.262-0.48-5.109c3.35-0.31,3.848-4.569,0.775-5.203
			c4.392-0.723,4.879-4.528,1.831-5.868C56.588,23.563,56.237,17.743,52.677,18.728z"/>
		<path style="clip-path:url(#SVGID_2_);fill:#9C552C;" d="M31.825,15.454c-8.834,0.594-16.431,10.299-15.707,21.045
			c0.725,10.748,8.039,17.969,18.329,17.872c11.387-0.106,15.765-9.479,15.04-20.227C48.764,23.398,40.658,14.858,31.825,15.454z"/>
		<path style="opacity:0.3;clip-path:url(#SVGID_2_);fill:#661004;" d="M47.772,33.094c-0.377-0.196-3.076-0.528-2.41,0.482
			c0.157,0.239,1.67,0.946,1.957,1c0.481,0.091,0.57-0.086,0.23-0.425c-0.318-0.32-1.251-0.47-1.47-0.9
			C46.462,33.21,47.584,33.698,47.772,33.094z"/>
		<path style="opacity:0.3;clip-path:url(#SVGID_2_);fill:#661004;" d="M24.546,35.011c0.234,0.589,1.314,0.016,1.699,0.027
			c-0.186,0.443-1.104,0.667-1.398,1.01c-0.312,0.365-0.208,0.535,0.264,0.405c0.283-0.075,1.737-0.894,1.875-1.146
			C27.571,34.249,24.908,34.786,24.546,35.011z"/>
		<path style="clip-path:url(#SVGID_2_);fill:#1F1A17;" d="M28.518,31.841c-1.974-0.863-3.237,2.638-1.896,3.791
			c0.631-0.18,1.374-0.107,1.958,0.18C29.909,35.132,29.985,32.485,28.518,31.841z"/>
		<path style="opacity:0.4;clip-path:url(#SVGID_2_);fill:#661004;" d="M36.917,36.716c-1.104,0.053-1.566-0.392-2.318,0.057
			c-0.749,0.446,0.305,2.125,2.254,1.99c1.943-0.133,2.85-1.759,2.419-2.2C38.771,36.05,38.141,36.659,36.917,36.716z"/>
		<path style="clip-path:url(#SVGID_2_);fill:#BF6C3C;" d="M35.931,30.799c-1.005,0.078-1.666,1.499-1.797,3.324
			c-0.136,1.897-0.066,2.687,0.416,3.042c1.244,0.918,3.541,0.718,4.618-0.381C40.54,35.384,38.322,30.616,35.931,30.799z"/>
		<path style="clip-path:url(#SVGID_2_);fill:#1F1A17;" d="M45.071,30.654c-2.104-0.921-3.345,3.482-1.072,3.845
			c0.469-0.402,1.099-0.647,1.677-0.63C46.349,32.91,46.198,31.149,45.071,30.654z"/>
		<path style="opacity:0.7;clip-path:url(#SVGID_2_);fill:#E6D2C3;" d="M27.501,32.562c-0.803,0.266-0.201,1.832,0.584,1.27
			C28.653,33.423,28.218,32.323,27.501,32.562z"/>
		<path style="opacity:0.7;clip-path:url(#SVGID_2_);fill:#E6D2C3;" d="M44.112,31.463c-0.752,0.249-0.189,1.708,0.542,1.183
			C45.183,32.267,44.777,31.241,44.112,31.463z"/>
		<path style="clip-path:url(#SVGID_2_);fill:#9C552C;" d="M14.593,33.987c-4.38,1.092-2.779,6.584,0.748,7.648
			c1.13,0.342,2.341,0.379,3.51,0.293c0.022-0.033,0.045-0.063,0.071-0.096c0.538-0.723-0.295-4.383-0.542-5.135
			C17.76,34.8,16.696,33.462,14.593,33.987z"/>
		<path style="opacity:0.3;clip-path:url(#SVGID_2_);fill:#661004;" d="M40.835,21.163c-4.135-0.715-8.584-1.199-12.778-0.781
			c-3.407,0.34-7.762,1.813-8.561,5.625c-0.216,1.031-0.736,2.639-1.191,4.402c-0.863,3.34-1.496,7.231,0.61,8.791
			c1.848,1.362,3.795-0.907,2.613-2.666c1.544-0.694,2.15-3.055,0.36-3.795c1.319-0.713,1.591-2.203,0.713-3.391
			c1.31-0.299,1.978-1.497,1.673-2.771c1.609,1.027,3.721,0.889,5.159-0.563c1.042,1.799,3.478,1.088,4.937,0.052
			c0.91,2.178,4.022,0.529,5.267-0.579c0.877,1.512,2.986,0.764,4.132-0.203c1.898,0.678,2.459-0.753,1.726-2.229
			C44.716,21.495,42.304,21.417,40.835,21.163z"/>
		<path style="opacity:0.3;clip-path:url(#SVGID_2_);fill:#661004;" d="M16.898,36.042c-1.116-0.537-4.144-0.179-3.013,1.662
			c0.951-1.465,2.098-0.291,1.737,0.789c-0.239,0.725-1.329,0.604-0.387,1.684c0.508,0.583,1.72,0.535,2.357,0.333
			C19.618,39.864,18.257,36.692,16.898,36.042z"/>
		<path style="clip-path:url(#SVGID_2_);fill:#1F1A17;" d="M36.293,13.27c-4.165-0.769-8.78-0.638-12.617,1.3
			c-1.638,0.826-3.056,1.975-4.108,3.494c-2.288,3.313-5.187,8.76-4.004,12.777c0.266,0.898,0.119,2.174,0.441,3.083
			c0.65,1.835,0.293,5.962,3.044,6.273c2.532,0.288,2.632-2.196,1.241-3.689c2.659,0.147,1.807-3.032,0.002-3.706
			c2.303-0.52,2.019-3.318,0.727-4.734c1.944-0.259,1.501-2.59,0.843-3.861c1.888,1.47,4.495,2.463,6.285,0.232
			c0.914,2.322,4.681,1.463,6.073-0.07c0.604,2.061,3.705,1.793,4.396-0.131c1.133,1.625,4.457,1.635,4.874-0.525
			c1.743,1.058,3.634-0.23,3.197-2.25c2.618,0.26,1.481-2.809,0.481-3.98C45.014,14.96,39.444,13.852,36.293,13.27z"/>
		<path style="clip-path:url(#SVGID_2_);fill:#BF6C3C;" d="M29.415,37.292c-1.072-0.834-2.702-0.52-3.822-0.148
			c-1.463,0.482-3.229,1.683-1.251,3.382c1.052,0.905,7.121-0.229,5.613-2.629C29.798,37.649,29.616,37.45,29.415,37.292z"/>
		<path style="clip-path:url(#SVGID_2_);fill:#BF6C3C;" d="M44.968,35.428c-0.681,0.166-1.275,0.544-1.646,1.003
			c-0.617,0.771-0.6,1.775,0.727,2.412c1.277,0.617,4.032,0.741,4.696-0.933C49.654,35.622,46.438,35.067,44.968,35.428z"/>
		<path style="opacity:0.4;clip-path:url(#SVGID_2_);fill:#661004;" d="M35.915,49.923c-1.297,0.311-1.762,0.986-1.844,1.773
			c0.016-0.135,0.705-0.91,2.654-1.146c1.154-0.141,2.891,0.162,3.467,0.668C40.354,49.938,37.496,49.542,35.915,49.923z"/>
		<path style="clip-path:url(#SVGID_2_);fill:#1F1A17;" d="M43.864,26.116c-1.228,0.141-2.633,1.118-3.861,0.81
			c0.184,1.32,1.01,1.988,2.15,2.157c1.006,0.152,1.694-0.195,2.48-0.54c0.306-0.136,0.627-0.27,0.986-0.372
			c0.601-0.176,1.108-0.026,1.712-0.014c-0.036-0.205-0.105-0.424-0.208-0.604C46.399,26.274,45.136,25.97,43.864,26.116z"/>
		<path style="clip-path:url(#SVGID_2_);fill:#1F1A17;" d="M29.858,27.545c-0.765-0.14-1.561-0.538-2.308-0.612
			c-1.894-0.192-3.819,2.33-2.606,3.972c0.243-0.214,0.454-0.491,0.682-0.733c1.183-1.253,2.893-0.3,4.313-0.051
			c1.898,0.331,2.804-0.861,2.725-2.67C31.743,27.768,30.8,27.716,29.858,27.545z"/>
		<path style="clip-path:url(#SVGID_2_);fill:#D47B48;" d="M43.762,40.222c-0.968-0.121-2.04,0.578-2.979,0.738
			c-2.913,0.5-5.823,0.68-8.774,0.403c-1.307-0.124-5.165-2.249-4.012,0.63c2.178,5.433,4.225,7.608,8.764,7.425
			c6.172-0.249,6.416-4.216,7.061-6.519C44.173,41.646,45.745,40.474,43.762,40.222z"/>
		<path style="clip-path:url(#SVGID_2_);fill:#78231F;" d="M28.858,41.759c0,0,2.462,5.6,8.188,5.15
			c3.885-0.305,5.437-2.219,5.871-3.869c0.461-1.738,1.451-2.237,1.451-2.237C36.315,44.398,28.858,41.759,28.858,41.759z"/>
		<path style="clip-path:url(#SVGID_2_);fill:#FFF3E2;" d="M30.782,42.277c0,0,0.185,1.802,2.002,2.429
			c2.327,0.805,4.878,0.824,7.427,0.072c1.718-0.508,2.542-3.273,2.542-3.273S37.896,43.321,30.782,42.277z"/>
		<path style="clip-path:url(#SVGID_2_);fill:#FFF3E2;" d="M38.181,44.856c-2.452,0.109-4.59-0.138-5.769-0.543
			c-0.982-0.34-0.959,0.176-0.749,0.625c0,0,0.438,1.85,4.939,2.037c3.936,0.164,5.479-2.244,5.01-2.714
			C41.144,43.79,40.637,44.743,38.181,44.856z"/>
		<path style="clip-path:url(#SVGID_2_);fill:#E8DAC5;" d="M30.771,42.25c0,0,0.062,1.069,0.746,1.618c0,0,8.231-1.133,10.344-0.482
			c0,0,0.811-1.164,0.892-1.881C42.753,41.505,36.64,43.343,30.771,42.25z"/>
		<path style="clip-path:url(#SVGID_2_);fill:#E8DAC5;" d="M32.922,44.31c3.986,1.661,8.146-0.125,8.146-0.125
			C36.35,45.277,32.922,44.31,32.922,44.31z"/>
		<path style="opacity:0.2;clip-path:url(#SVGID_2_);fill:#330500;" d="M41.337,38.686c-3.679,0.46-7.369,1.126-11.08,1.199
			c-0.937,0.019-2.791-0.072-3.394,0.909c-0.01,0.016-0.02,0.029-0.027,0.045c-1.22,2.355,2.374,2.301,3.548,1.528
			c1.027,1.901,5.528,1.409,7.186,1.22c2.019-0.229,3.809-0.987,5.667-1.483c1.116-0.298,3.635,0.284,3.608-1.501
			C46.801,37.86,42.863,38.493,41.337,38.686z"/>
		<path style="clip-path:url(#SVGID_2_);fill:#1F1A17;" d="M44.447,37.595c-1.804-0.426-4.366-0.629-6.248,0.045
			c-2.443,0.873-4.583-0.348-7.122,0.113c-8.057,1.469-2.836,5.788-0.523,3.93c0.028,2.215,11.341,1.666,12.98-0.838
			C46.755,42.608,48.786,38.619,44.447,37.595z"/>
		<path style="clip-path:url(#SVGID_2_);fill:#332823;" d="M42.098,38.413c-1.514-0.291-2.675-0.338-4.007,0.242
			c-1.334,0.578-2.392,0.803-3.939,0.137c-1.89-0.811-6.741,0.771-6.155,1.511c0.587,0.739,3.189,0.315,3.189,0.315
			s0.065,0.996,0.882,1.234s2.32-0.967,2.32-0.967s-0.051,1.186,1.053,1.232c1.107,0.046,2.027-1.336,2.027-1.336
			s0.711,1.251,1.809,1.033c1.097-0.217,0.977-1.26,0.977-1.26s1.335,0.688,2.156,0.406c0.819-0.281,0.337-1.498,0.337-1.498
			s0.935,0.484,2.149-0.154C46.112,38.668,43.612,38.702,42.098,38.413z"/>
		<path style="clip-path:url(#SVGID_2_);fill:#332823;" d="M47.36,15.703c2.775-3.554-2.017-6.315-3.932-2.118
			c1.471-3.557-2.555-5.725-4.761-2.363c-1.55-3.303-5.466-3.578-6.768-0.32c-1.912-2.535-6.705-3.479-5.771,0.777
			c-2.664-3.078-9.4-0.484-5.828,2.215c-3.612-1.969-6.984,2.031-2.363,2.705c-4.513-0.088-4.488,6.6,1.451,3.376
			c-2.539,2.995,2.228,4.169,5.775,1.995c-1.293,3.36,3.5,1.227,4.602,0.215c0.066,0.441,0.201,0.787,0.385,1.047
			c0.865,1.222,2.795,0.543,3.547-0.951c1.605,2.067,4.459,1.607,4.344-1.26c1.165,1.258,3.898,2.902,4.52,0.352
			c1.701,1.6,4.363,1.184,4.363-1.28C50.879,21.233,52.92,15.922,47.36,15.703z"/>
	</g>
</g>
<g id="Layer_1">
</g>
</svg>
