<?xml version="1.0" encoding="iso-8859-1"?>
<!-- Generator: Adobe Illustrator 16.0.0, SVG Export Plug-In . SVG Version: 6.00 Build 0)  -->
<!DOCTYPE svg PUBLIC "-//W3C//DTD SVG 1.1//EN" "http://www.w3.org/Graphics/SVG/1.1/DTD/svg11.dtd">
<svg version="1.1" xmlns="http://www.w3.org/2000/svg" xmlns:xlink="http://www.w3.org/1999/xlink" x="0px" y="0px"
	 width="66.013px" height="66.064px" viewBox="0 0 66.013 66.064" style="enable-background:new 0 0 66.013 66.064;"
	 xml:space="preserve">
<g id="Layer_11">
	<g>
		<defs>
			<circle id="SVGID_1_" cx="33.013" cy="33" r="33"/>
		</defs>
		<clipPath id="SVGID_2_">
			<use xlink:href="#SVGID_1_"  style="overflow:visible;"/>
		</clipPath>
		<rect y="0" style="clip-path:url(#SVGID_2_);fill:#B6A8A9;" width="66" height="66"/>
		<path style="clip-path:url(#SVGID_2_);fill:#E34F7E;" d="M25.21,52.172c-4.166,2.709-3.493,7.095-2.412,13.828l19.51,0.001
			c1.181-6.491,1.948-12.022-2.133-14.214C35.381,49.214,28.396,50.102,25.21,52.172z"/>
		<path style="clip-path:url(#SVGID_2_);fill:#3A3A4A;" d="M33.022,56.703c-2.005-0.166-2.515,1.539-2.515,1.539l1.607,1.945
			L30.099,66h5.754l-2.181-5.768l1.558-1.82C35.229,58.412,34.814,56.849,33.022,56.703z"/>
		<path style="clip-path:url(#SVGID_2_);fill:#1E1E29;" d="M16.093,66c0-0.246,0.308-4.929,0.569-6.765
			c0.42-2.941,1.513-5.042,5.518-6.524l2.015,4.723C21.919,58.618,21.609,66,21.609,66H16.093z"/>
		<path style="clip-path:url(#SVGID_2_);fill:#1E1E29;" d="M25.224,51.355c0,0-4.234,1.566-4.638,2.617
			c-0.31,0.804-0.085,6.931,0.782,12.027h5.82C27.104,61.491,26.605,55.846,25.224,51.355z"/>
		<path style="clip-path:url(#SVGID_2_);fill:#3A3A4A;" d="M25.338,50.595c-2.358,1.177-3.44,4.368-3.386,5.019
			s4.438,1.027,4.276,0.379C26.064,55.343,25.338,50.595,25.338,50.595z"/>
		<path style="clip-path:url(#SVGID_2_);fill:#3A3A4A;" d="M26.064,55.343c-0.499-0.86-2.326,3.626-2.055,4.384
			c0.163,0.455,1.313,3.516,2.178,6.275l1.068,0.063C27.223,61.572,26.796,56.602,26.064,55.343z"/>
		<path style="clip-path:url(#SVGID_2_);fill:#1E1E29;" d="M49.951,66c0-0.246-0.307-4.929-0.568-6.765
			c-0.42-2.941-1.513-5.042-5.518-6.524l-2.015,4.723C44.126,58.618,44.436,66,44.436,66H49.951z"/>
		<path style="clip-path:url(#SVGID_2_);fill:#1E1E29;" d="M40.821,51.355c0,0,4.234,1.566,4.638,2.617
			c0.31,0.804,0.085,6.931-0.782,12.027h-5.821C38.941,61.491,39.438,55.846,40.821,51.355z"/>
		<path style="clip-path:url(#SVGID_2_);fill:#3A3A4A;" d="M40.707,50.595c2.358,1.177,3.439,4.368,3.386,5.019
			c-0.055,0.65-4.438,1.027-4.276,0.379C39.98,55.343,40.707,50.595,40.707,50.595z"/>
		<path style="clip-path:url(#SVGID_2_);fill:#3A3A4A;" d="M39.98,55.343c0.499-0.86,2.326,3.626,2.055,4.384
			c-0.163,0.455-1.313,3.516-2.178,6.275l-1.069,0.063C38.822,61.572,39.248,56.602,39.98,55.343z"/>
		<path style="opacity:0.1;clip-path:url(#SVGID_2_);" d="M40.308,53.66c-0.037,2.209-2.099,4.438-4.065,5.824l-3.266-2.768
			l-3.069,2.924c0,0-3.574-1.858-4.61-5.141C24.262,51.215,40.333,52.071,40.308,53.66z"/>
		<path style="clip-path:url(#SVGID_2_);fill:#F06799;" d="M32.977,56.717l3.078,1.934c0,0,6.958-3.523,4.652-8.056
			c-2.073-4.076-12.506-3.64-15.369,0c-2.846,3.614,4.34,8.181,4.34,8.181L32.977,56.717z"/>
		<path style="clip-path:url(#SVGID_2_);fill:#FFB67D;" d="M32.814,56.27c1.88,0.035,9.858-4.508,4.251-8.925
			c-1.61-1.271-4.755-1.476-6.682-1.06c-2.007,0.432-3.341,2.301-3.479,4.225C26.729,52.945,30.321,56.203,32.814,56.27z"/>
		<path style="clip-path:url(#SVGID_2_);fill:#2B2521;" d="M47.269,31.547c0.646-0.875,1.589-9.812,2.553-8.706
			c3.67,4.208-0.559,10.19,1.226,15.085c0.234,0.642-2.263,0.266-2.466,0.182C46.096,37.068,45.772,33.57,47.269,31.547z"/>
		<path style="clip-path:url(#SVGID_2_);fill:#2B2521;" d="M46.832,30.349c1.924-0.501,4.129-0.794,2.94-8.892
			C48.475,12.639,37.959,7.189,29.069,8.862C7.544,12.917,11.308,37.618,17.595,36.586S44.909,30.851,46.832,30.349z"/>
		<path style="clip-path:url(#SVGID_2_);fill:#FFCB9E;" d="M16.02,34.531c0.319,11.277,8.092,20.205,17.359,19.941
			s16.521-9.619,16.202-20.894c-0.32-11.276-8.093-20.204-17.362-19.942C22.954,13.899,15.698,23.255,16.02,34.531z"/>
		<path style="clip-path:url(#SVGID_2_);fill:#FFCB9E;" d="M13.903,40.367c1.17,0.404,2.435,0.489,3.659,0.448
			c0.026-0.03,0.052-0.063,0.078-0.097c0.597-0.734-0.131-4.598-0.357-5.396c-0.571-2.011-1.629-3.454-3.854-2.992
			C8.803,33.295,10.256,39.109,13.903,40.367z"/>
		<path style="opacity:0.3;clip-path:url(#SVGID_2_);fill:#BF3C1B;" d="M19.48,29.243c0.338-1.83,0.776-3.658,1.701-5.294
			c1.831-3.241,5.449-4.411,8.941-4.875c4.383-0.584,9.01-0.325,13.34,0.537c1,0.2,5.581,0.879,4.604,2.67
			c-0.801,1.475-2.99,2.715-4.407,2.982c-1.973,0.374-5.925,0.129-7.926-0.086c-6.763-0.726-9.847,1.368-10.743,2.698
			c-0.107-0.774,0.442-2.29,0.837-2.979c-0.139,0.129-4.708,1.983-5.856,9.328C19.423,34.031,19.062,31.51,19.48,29.243z"/>
		<path style="clip-path:url(#SVGID_2_);fill:#2B2521;" d="M24.627,14.366c-6.287,2.557-10.177,12.562-9.691,18.616
			c0.277,3.443,5.035,3.672,5.03,1.729c0-5.919,0.972-10.11,9.712-12.167c6.966-1.639,15.193-0.736,17.27,0.702
			c2.076,1.44,0.004-4.208-6.008-7.898C34.925,11.656,29.449,12.402,24.627,14.366z"/>
		<path style="opacity:0.3;clip-path:url(#SVGID_2_);fill:#BF3C1B;" d="M16.308,39.279c2.145-0.592,0.847-3.965-0.546-4.704
			c-1.147-0.606-4.33-0.354-3.225,1.617c1.06-1.493,2.211-0.22,1.791,0.896c-0.283,0.75-1.418,0.578-0.476,1.746
			C14.363,39.467,15.633,39.467,16.308,39.279z"/>
		<path style="clip-path:url(#SVGID_2_);fill:#2B2521;" d="M51.251,22.469c-6.285,4.658-17.698-1.205-24.399,2.784
			c0.021-0.893,0.34-1.78,0.748-2.519c-0.249,0.452-3.416,1.466-4.022,1.37c-1.621-0.262-2.411-2.124-2.823-3.434
			c-1.248-3.972-0.612-7.794,2.941-9.846c4.929-2.85,10.873-2.795,16.354-1.312C49.637,12.108,54.211,20.274,51.251,22.469z"/>
		<path style="clip-path:url(#SVGID_2_);fill:#2B2521;" d="M19.854,39.275c0.147,0.02,0.299,0.035,0.455,0.047
			c0.149-1.991-0.27-3.904-0.245-5.96c0.016-1.474-0.115-1.655-1.111-2.266c-1.095-0.667-2.751-0.126-3.95-0.827
			c0.568,0.34,0.1,2.721,0.074,3.259C14.938,36.75,16.813,38.872,19.854,39.275z"/>
		<path style="clip-path:url(#SVGID_2_);fill:#2B2521;" d="M15.302,11.585c1.634,5.246,8.29,4.044,11.232,2.372
			c1.396-0.792,3.135-5.215,0.796-4.746c-3.176,0.637-6.61,1.305-9.191-0.272c0.004,0.571-0.121,2.078,1.216,2.8
			C18.563,12.383,16.888,12.438,15.302,11.585z"/>
		<path style="clip-path:url(#SVGID_2_);fill:#211011;" d="M27.423,35.769c-0.651-0.353-1.493-0.466-2.216-0.292
			c-1.475-1.367,0.121-5.287,2.319-4.222C29.167,32.052,28.963,35.056,27.423,35.769z"/>
		<path style="opacity:0.3;clip-path:url(#SVGID_2_);fill:#BF3C1B;" d="M38.638,36.688c0.429,0.452-0.534,1.979-2.521,2.003
			c-1.998,0.024-3.032-1.658-2.256-2.051c0.777-0.396,1.238,0.061,2.368,0.07C37.479,36.724,38.136,36.164,38.638,36.688z"/>
		<path style="clip-path:url(#SVGID_2_);fill:#FFD8B5;" d="M38.459,36.819c0.582-0.494,0.023-2.488-2.337-2.442
			c-1.986,0.041-3.005,1.711-1.997,2.486C35.375,37.819,37.679,37.482,38.459,36.819z"/>
		<path style="clip-path:url(#SVGID_2_);fill:#211011;" d="M45.305,30.646c1.259,0.61,1.354,2.618,0.546,3.678
			c-0.656-0.043-1.383,0.207-1.933,0.641C41.353,34.453,42.956,29.508,45.305,30.646z"/>
		<path style="clip-path:url(#SVGID_2_);fill:#A89191;" d="M26.854,31.795c0.821-0.237,1.269,1.03,0.607,1.468
			C26.542,33.865,25.93,32.064,26.854,31.795z"/>
		<path style="clip-path:url(#SVGID_2_);fill:#A89191;" d="M44.75,31.293c0.768-0.222,1.184,0.961,0.567,1.371
			C44.461,33.228,43.888,31.546,44.75,31.293z"/>
		<path style="clip-path:url(#SVGID_2_);fill:#2B2521;" d="M46.273,27.589c1.263-0.051,1.657-0.678,0.411-1.238
			c-0.713-0.32-1.609-0.334-2.379-0.359c-0.474-0.016-2.269-0.313-2.628,0.072C40.346,27.513,45.793,27.607,46.273,27.589z"/>
		<path style="clip-path:url(#SVGID_2_);fill:#2B2521;" d="M24.595,28.246c-1.264,0.074-1.718-0.513-0.53-1.189
			c0.678-0.39,1.568-0.491,2.332-0.591c0.469-0.063,2.229-0.531,2.624-0.183C30.489,27.589,25.076,28.219,24.595,28.246z"/>
		<path style="clip-path:url(#SVGID_2_);fill:#F7A286;" d="M44.91,39.525c-1.142-0.793-2.519,0.775-8.979,1.145
			c-5.579,0.318-7.673-0.606-9.068-0.628c0.797,5.431,3.786,9.106,7.824,9.454c2.501,0.215,5.721-0.347,7.29-2.781
			c0.609-0.949,0.731-1.952,1.02-3.037c0.471-1.793,1.013-2.721,2.285-3.783C45.17,39.74,45.045,39.619,44.91,39.525z"/>
		<path style="clip-path:url(#SVGID_2_);fill:#8F2722;" d="M27.717,40.684c0,0,7.187,2.496,17.104-0.977
			c0,0-1.609,1.035-2.138,3.609c-0.396,1.925-1.272,4.68-6.966,5.007C29.395,48.685,27.717,40.684,27.717,40.684z"/>
		<path style="clip-path:url(#SVGID_2_);fill:#FFF7EB;" d="M29.391,41.189c0,0-0.013,1.779,1.908,2.311
			c2.464,0.682,5.25,0.721,8.114,0.118c1.93-0.407,2.972-2.964,2.972-2.964S36.675,41.961,29.391,41.189z"/>
		<path style="clip-path:url(#SVGID_2_);fill:#FFF7EB;" d="M30.964,46.446c-0.13-0.397-0.088-0.839,0.741-0.499
			c0.994,0.404,2.859,0.723,5.05,0.745c2.19,0.025,2.76-0.767,3.117-0.341c0.36,0.428-1.312,2.416-4.782,2.084
			C31.119,48.055,30.964,46.446,30.964,46.446z"/>
		<path style="clip-path:url(#SVGID_2_);fill:#E8DAC5;" d="M29.664,42.229c0,0,9.812-0.936,12.054-0.381
			c0,0,0.543-0.836,0.667-1.193c0,0-5.193,1.256-12.994,0.535C29.391,41.189,29.367,41.746,29.664,42.229z"/>
		<path style="clip-path:url(#SVGID_2_);fill:#E8DAC5;" d="M32.032,46.303c0,0,2.919,1,7.239,0.29
			C39.271,46.593,35.359,47.923,32.032,46.303z"/>
		<path style="opacity:0.3;clip-path:url(#SVGID_2_);fill:#A67663;" d="M40.342,36.742c-0.401-0.321-0.746-0.712-0.996-1.17
			c-0.519-0.957-0.521-2.114-0.148-3.13c0.512-1.399,1.991-1.482,3.216-1.569c0.817-0.058,1.643-0.073,2.461-0.085
			c0.647-0.009,1.47,0.087,2.083-0.168c0.859-0.359,0.683-1.553,0.155-2.157c-0.56-0.644-1.36-0.423-2.106-0.347
			c-0.964,0.099-1.919,0.269-2.857,0.508c-1.172,0.298-2.543,0.419-3.627,0.981c-0.998,0.52-1.415,0.843-2.666,0.798
			c-2.238-0.079-4.132-1.461-6.367-1.68c-2.328-0.227-4.711-0.488-6.998,0.158c-0.596,0.169-2.396,0.862-1.174,1.496
			c1.191,0.616,2.97,0.408,4.272,0.451c0.601,0.02,1.205,0.032,1.806,0.083c2.128,0.183,5.396-0.131,5.243,2.526
			c-0.106,1.823-1.271,3.702-2.75,4.054c-1.417,0.337-2.938,0.473-4.376,0.475c-1.101,0.003-2.164-0.205-3.172-0.662
			c-0.284-0.131-1.14-0.668-1.414-0.282c-0.466,0.657,1.271,1.733,1.726,1.934c1.037,0.46,2.138,0.595,3.264,0.708
			c2.773,0.279,5.63,0.115,7.181-2.443c0.898-1.482,1.345-3.225,2.176-4.747c1.362-2.492,1.943,0.899,2.33,2.381
			c0.216,0.832,0.541,1.642,1.012,2.35c0.834,1.252,2.501,1.952,3.907,2.048c0.868,0.058,3.623-0.136,4.442-0.474
			c0.495-0.203,0.756-1.027,0.173-1.271c-0.355-0.147-2.842,0.344-3.215,0.318c-0.544-0.031-1.099-0.051-1.634-0.166
			C41.602,37.51,40.915,37.199,40.342,36.742z"/>
		<path style="clip-path:url(#SVGID_2_);fill:#3A3A4A;" d="M16.265,28.826c0.405-0.396,1.997,0.012,3.821-0.167
			c2.57-0.25,15.607-1.946,14.906,3.641c-0.286,2.28-1.18,4.629-3.548,6.02c-1.911,1.122-8.292,1.035-10.35-0.563
			c-2.463-1.918-2.606-5.201-2.808-6.462c-0.86-0.015-1.469-0.389-1.469-0.389S15.732,29.339,16.265,28.826z M21.212,36.329
			c1.734,1.88,7.955,2.213,10.267,0.496c1.756-1.302,2.782-5.125,1.76-5.807c-2.111-1.404-10.842-1.373-13.064,0.171
			C19.447,31.694,19.874,34.877,21.212,36.329z"/>
		<path style="clip-path:url(#SVGID_2_);fill:#3A3A4A;" d="M52.768,30.13c0,0-0.512,0.4-1.253,0.455
			c-0.135,1.268-0.161,4.554-2.229,6.583c-1.726,1.693-7.228,2.076-8.91,1.047c-2.08-1.278-2.922-3.584-3.237-5.846
			c-0.771-5.548,10.521-4.463,12.745-4.332c1.578,0.091,2.939-0.389,3.304-0.012C53.656,28.515,52.768,30.13,52.768,30.13z
			 M49.884,30.568c-1.963-1.439-9.493-1.063-11.271,0.437c-0.863,0.728,0.139,4.499,1.69,5.718c2.045,1.605,7.401,0.984,8.84-0.975
			C50.253,34.238,50.525,31.038,49.884,30.568z"/>
		<path style="opacity:0.3;clip-path:url(#SVGID_2_);fill:#FFFFFF;" d="M40.105,30.596c1.395-0.536,8.446-0.782,9.212,0.017
			c0.549,0.574-1.509,1.351-2.45,1.478c-1.796,0.243-3.693,0.256-5.35-0.098C41.042,31.893,38.843,31.08,40.105,30.596z"/>
		<path style="clip-path:url(#SVGID_2_);fill:#FFFFFF;" d="M45.624,30.587c1.437-0.155,3.896,0.177,3.608,0.628
			c-0.291,0.459-4.236,0.591-4.564-0.051C44.502,30.842,44.948,30.661,45.624,30.587z"/>
		<path style="opacity:0.7;clip-path:url(#SVGID_2_);fill:#FFFFFF;" d="M41.266,35.316c0.896,0.057,2.369,0.625,2.147,0.949
			c-0.226,0.327-2.664-0.062-2.798-0.611C40.549,35.375,40.842,35.288,41.266,35.316z"/>
		<path style="opacity:0.7;clip-path:url(#SVGID_2_);fill:#FFFFFF;" d="M22.602,35.778c0.987,0.093,2.588,0.724,2.328,1.038
			c-0.267,0.317-2.936-0.169-3.059-0.723C21.809,35.811,22.136,35.736,22.602,35.778z"/>
		<path style="opacity:0.3;clip-path:url(#SVGID_2_);fill:#FFFFFF;" d="M21.655,30.976c0.788-0.77,8.928-0.692,10.598-0.218
			c1.508,0.431-0.927,1.245-1.464,1.35c-1.861,0.371-4.045,0.399-6.141,0.209C23.548,32.216,21.09,31.53,21.655,30.976z"/>
		<path style="clip-path:url(#SVGID_2_);fill:#FFFFFF;" d="M28.699,30.519c1.585-0.156,4.303,0.176,3.983,0.628
			c-0.322,0.46-4.68,0.591-5.042-0.05C27.459,30.772,27.955,30.592,28.699,30.519z"/>
		<path style="clip-path:url(#SVGID_2_);fill:#3A3A4A;" d="M33.041,29.201c2.29,0.619,4.044,0.436,5.813-0.094
			c1.715-0.514-0.051,0.898-0.367,1.271c-0.313,0.372-0.464,4.441-1.197,2.879c-0.732-1.563-1.892-1.494-2.498,0.198
			s-0.355-1.312-0.571-2.237C34.005,30.294,31.213,28.707,33.041,29.201z"/>
		<path style="clip-path:url(#SVGID_2_);fill:#C1C5C9;" d="M32.93,29.914c-2.047-1.472-5.414-1.605-11.953-0.769
			C25.926,29.074,29.875,28.958,32.93,29.914z"/>
		<path style="clip-path:url(#SVGID_2_);fill:#C1C5C9;" d="M39.382,29.649c1.633-1.44,4.317-1.326,10.08-1.207
			C45.154,28.832,41.941,28.557,39.382,29.649z"/>
	</g>
</g>
<g id="Layer_1">
</g>
</svg>
