<?xml version="1.0" encoding="iso-8859-1"?>
<!-- Generator: Adobe Illustrator 16.0.0, SVG Export Plug-In . SVG Version: 6.00 Build 0)  -->
<!DOCTYPE svg PUBLIC "-//W3C//DTD SVG 1.1//EN" "http://www.w3.org/Graphics/SVG/1.1/DTD/svg11.dtd">
<svg version="1.1" xmlns="http://www.w3.org/2000/svg" xmlns:xlink="http://www.w3.org/1999/xlink" x="0px" y="0px"
	 width="66.012px" height="66.001px" viewBox="0 0 66.012 66.001" style="enable-background:new 0 0 66.012 66.001;"
	 xml:space="preserve">
<g id="Layer_12">
	<g>
		<defs>
			<circle id="SVGID_1_" cx="33.012" cy="33.001" r="33"/>
		</defs>
		<clipPath id="SVGID_2_">
			<use xlink:href="#SVGID_1_"  style="overflow:visible;"/>
		</clipPath>
		<rect style="clip-path:url(#SVGID_2_);fill:#A55A86;" width="66" height="65.998"/>
		<path style="clip-path:url(#SVGID_2_);fill:#E8E8E8;" d="M41.822,54.429c-2.098-5.104-13.27-3.613-16.223-1.134
			c-2.95,2.479-3.768,5.453,0.663,9.797c1.296,1.271,2.476,2.207,3.503,2.906h5.961C38.465,63.033,43.06,57.438,41.822,54.429z"/>
		<path style="opacity:0.2;clip-path:url(#SVGID_2_);fill:#A09D98;" d="M26.583,55.882c1.051,3.33,3.782,4.99,3.782,4.99
			l3.114-2.967l3.313,2.808c3.168-2.803,3.788-4.565,4.052-5.565C41.667,52.017,25.203,51.509,26.583,55.882z"/>
		<path style="clip-path:url(#SVGID_2_);fill:#5E4684;" d="M35.892,58.247c0,0-0.747-1.709-2.919-1.301
			c-1.945,0.365-2.227,2.037-2.227,2.037l1.604,1.625l-1.597,5.39h6.303l-2.132-5.718L35.892,58.247z"/>
		<path style="clip-path:url(#SVGID_2_);fill:#1C1C26;" d="M46.518,56.229c-0.733-0.798-4.309-3.095-5.614-3.72
			c0.138,0.322,0.605,1.019,0.575,1.353c-0.359,3.89-2.984,8.812-5.03,12.137h8.262C45.461,62.223,46.958,56.707,46.518,56.229z"/>
		<path style="clip-path:url(#SVGID_2_);fill:#1C1C26;" d="M25.516,53.804c0.144-0.367,0.32-0.701,0.537-1.01
			c-2.348,1.002-6.666,3.067-7.047,3.828c-0.313,0.628,1.751,4.914,2.759,9.376h9.198C28.118,62.229,24.436,56.582,25.516,53.804z"
			/>
		<path style="clip-path:url(#SVGID_2_);fill:#313142;" d="M43.162,61.829c-0.1-0.523-1.842-3.224-1.842-3.224l3.222-1.983
			c-1.538-3.166-4.505-5.13-4.505-5.13c0.542,5.436-2.209,11.062-4.215,14.506h3.099C41.109,63.946,43.188,61.958,43.162,61.829z"/>
		<path style="clip-path:url(#SVGID_2_);fill:#313142;" d="M22.139,57.264l3.846,1.576c0,0-1.654,3.467-1.708,4.024
			c-0.016,0.146,1.702,1.56,3.679,3.134h3.642c-2.103-3.096-4.948-8.148-4.948-13.877C26.648,52.121,23.39,53.798,22.139,57.264z"/>
		<path style="clip-path:url(#SVGID_2_);fill:#F5F5F5;" d="M26.061,52.839c-1.545,3.945,4.072,7.156,4.072,7.156l3.347-2.09
			l3.123,1.963c0,0,6.179-3.206,3.841-7.805C38.339,47.928,27.852,48.262,26.061,52.839z"/>
		<path style="clip-path:url(#SVGID_2_);fill:#854422;" d="M31.033,47.321c-1.995,0.438-3.32,2.335-3.457,4.287
			c-0.106,1.513,0.136,2.389,0.98,3.229c0.609,0.607,1.608,1.205,2.639,1.521c0.734,0.225,2.024,1.087,2.251,1.094
			c0.091,0.001,0.518-0.371,1.212-0.729c1.015-0.521,2.452-1.215,3.012-2.309c0.818-1.602,1.548-4.771,0-6.018
			C36.069,47.107,32.945,46.901,31.033,47.321z"/>
		<path style="clip-path:url(#SVGID_2_);fill:#261B18;" d="M49.432,15.413c0.664-1.084,1.355-1.642,0.143-2.615
			c-1.003-0.803-2.544-1.025-3.727-0.563c0.672-2.76-3.146-3.424-4.635-1.865c-0.429-3.059-3.362-3.47-5.151-1.275
			c-0.868-2.309-4.182-2.762-4.771,0.014c-1.994-2.57-5.656-1.219-6.312,1.736c-1.622-2.092-5.214-0.963-4.979,1.963
			c-1.29-0.547-3.017-0.684-4.311,0.837c-0.867,1.021-0.612,2.876,0.026,3.879c-3.503-0.229-2.945,2.875-1.209,4.609
			c-2.721,0.173-3.906,4.01-0.637,4.307c-1.774,0.63-1.99,3.014,0.159,3.345c-2.189,0.783-1.255,2.721,0.649,3.137
			c-0.669,1.945-0.242,2.715,1.274,3.914c0.929,0.733,1.57,1.658,2.371,2.553c2.104,2.352,3.609,5.162,5.654,7.508
			c1.973,2.268,4.235-1.627,5.892-2.574c2.194-1.256,4.863-1.936,7.387-1.56c2.235,0.331,3.809,2.666,6.082,2.717
			c1.378,0.03,2.261-1.141,2.833-2.247c0.646-1.246,0.438-2.226,0.706-3.445c0.253-1.148,1.348-1.474,2.051-2.281
			c0.303-0.35,1.199-2.641-0.005-2.628c2.034-0.021,2.03-1.712,1.366-3.011c-0.142-0.275-0.312-0.533-0.498-0.753
			c2.213-0.33,1.366-2.008,0.567-3.286c0.771-0.503,1.317-0.572,1.25-1.592c-0.058-0.885-0.869-1.609-1.601-1.965
			c0.779-0.564,1.744-0.58,1.842-1.672c0.091-1.014-0.844-2.003-1.537-2.586C53.613,19.246,52.122,15.749,49.432,15.413z"/>
		<path style="clip-path:url(#SVGID_2_);fill:#9C552C;" d="M30.451,13.993c-8.178,1.594-13.939,13.352-12.439,24.385
			c1.127,8.262,7.499,17.326,17.098,16.643c9.792-0.697,14.666-12.846,13.4-23.005C47.135,20.97,41.902,11.761,30.451,13.993z"/>
		<path style="opacity:0.4;clip-path:url(#SVGID_2_);fill:#66241B;" d="M40.987,15.731c-3.223-0.966-6.553-1.499-9.916-1.558
			c-2.985-0.054-6.229-0.22-9.011,1.04c-1.531,0.691-3.408,1.641-3.98,3.332c-0.71,2.107-0.369,4.758-0.023,6.91
			c0.379,2.355,0.954,4.764,2.207,6.824c0.097-1.463,0.752-2.854,1.074-4.277c0.188-0.829,0.383-1.652,0.576-2.479
			c1.53-0.068,2.773-1.282,2.551-2.814c1.059,0.028,2.41-0.381,2.609-1.561c0.432,0.448,1.109,0.67,1.763,0.701
			c0.045,0.002,0.09,0.004,0.134,0.004c1.192,0.012,1.362-0.752,2.16-1.067c1.095-0.433,2.957,0.804,3.688-0.827
			c1.276,0.799,2.885,1.332,4.043-0.02c0.817,1.25,3.169,2.013,4.381,0.868c1.267,1.239,4.985-0.165,3.908-2.177
			C46.248,16.948,42.641,16.226,40.987,15.731z"/>
		<path style="clip-path:url(#SVGID_2_);fill:#9C552C;" d="M15.159,33.782c-4.015,1.105-2.405,6.968,0.875,8.144
			c1.053,0.378,2.169,0.429,3.243,0.354c0.021-0.032,0.043-0.065,0.064-0.101c0.481-0.761-0.191-5.035-0.436-5.84
			C18.287,34.313,17.087,33.25,15.159,33.782z"/>
		<path style="opacity:0.7;clip-path:url(#SVGID_2_);fill:#66241B;" d="M16.568,35.94c-0.903-0.418-3.154,0.334-2.097,2.096
			c0.559-1.635,1.556-0.563,1.403,0.6c-0.103,0.781-0.94,0.791-0.106,1.791c0.449,0.543,1.36,0.34,1.821,0.051
			C19.051,39.556,17.669,36.446,16.568,35.94z"/>
		<path style="clip-path:url(#SVGID_2_);fill:#261B18;" d="M37.118,10.656c-2.729-0.528-5.659-0.58-8.41-0.253
			c-4.632,0.553-10.22,2.75-11.685,7.656c-0.899,3.014-0.43,6.508-0.198,9.588c0.14,1.865-0.613,5.467,0.982,6.875
			c1.856,1.639,2.59-0.828,2.768-2.601c0.259-2.616,0.562-5.139,0.917-7.715c1.673,0.151,2.438-1.268,2.362-2.737
			c1.335,0.328,2.99,0.064,3.47-1.412c0.566,0.375,1.483,0.664,2.192,0.538c0.769-0.136,1.048-1.04,1.475-1.161
			c0.608-0.174,1.567,0.62,2.304,0.479c0.797-0.153,1.188-0.728,1.613-1.413c1.115,1.753,3.667,1.358,4.977,0.124
			c0.645,1.689,2.518,2.284,4.025,1.288c-0.628,0.416,0.915,1.707,1.712,2.176c0.17,0.1,0.307,0.162,0.381,0.17
			c1.092,0.131,1.681-0.701,2.176-1.572c1.234-2.18,0.269-4.455-1.303-6.201C44.869,12.255,39.96,11.204,37.118,10.656z"/>
		<path style="clip-path:url(#SVGID_2_);fill:#45362E;" d="M48.103,16.628c0.461-0.693,0.774-1.846-0.005-2.465
			c-0.694-0.553-2.894-0.355-3.46,0.336c0.263-0.982,0.139-2.574-0.891-3.133c-0.89-0.482-2.054,1.048-2.474,1.751
			c0.004-1.122-1.067-2.702-1.996-3.298c-1.461-0.937-2.204,0.838-2.831,1.874c-0.269-1.089-1.429-2.006-2.518-2.185
			c-1.309-0.213-1.891,1.438-2.385,2.417c-0.981-0.919-1.515-2.272-3.055-2.274c-0.891-0.002-1.667,0.192-2.117,1.016
			c-0.412,0.754-0.125,1.581-0.425,2.346c-1.22-0.597-1.944-1.619-3.444-1.514c-1.776,0.125-1.789,1.447-1.865,2.892
			c-3.907-1.612-5.152,1.835-3.461,4.101c-1.845,0.279-2.137,4.12-0.006,4.244c-1.454,0.74-1.85,2.168-0.064,2.925
			c2.021,0.856,2.533-1.659,2.008-3.092c1.368,0.12,1.58-1.042,1.559-2.11c0.72,0.219,1.064,0.584,1.827,0.257
			c0.821-0.352,0.808-0.876,0.888-1.692c0.675,0.333,1.321,0.99,2.155,0.611c0.611-0.278,0.924-1.18,1.044-1.791
			c0.416,0.589,1.136,1.057,1.856,0.967c0.918-0.114,1.133-0.659,1.477-1.383c0.748,0.594,1.457,0.969,2.413,0.713
			c1.08-0.29,1.272-0.877,1.649-1.824c1.463,1.113,4.228,2.228,5.385,0.002c1.051,1.459,3.65,3.258,5.243,1.354
			c1.1,1.27,2.108,2.946,4.103,2.281C50.948,19.206,50.323,16.677,48.103,16.628z"/>
		<path style="opacity:0.5;clip-path:url(#SVGID_2_);fill:#66241B;" d="M21.786,34.245c0.128,0.672,1.63,0.166,2.104,0.221
			c-0.355,0.466-1.557,0.605-2.017,0.949c-0.49,0.365-0.408,0.563,0.215,0.475c0.37-0.055,2.402-0.787,2.646-1.047
			C25.757,33.749,22.297,34.042,21.786,34.245z"/>
		<path style="opacity:0.5;clip-path:url(#SVGID_2_);fill:#66241B;" d="M46.269,34.188c0.411-0.055,1.713,0.455,1.822-0.216
			c-0.442-0.204-3.44-0.504-2.552,0.591c0.211,0.261,1.972,0.998,2.293,1.053c0.541,0.088,0.61-0.109,0.185-0.475
			C47.619,34.796,46.578,34.655,46.269,34.188z"/>
		<path style="clip-path:url(#SVGID_2_);fill:#D17642;" d="M47.178,36.723c-0.62-0.919-1.962-1.083-2.921-1.075
			c-1.255,0.005-2.926,0.494-1.827,2.311c0.588,0.967,5.574,1.612,5.013-0.629C47.383,37.097,47.294,36.896,47.178,36.723z"/>
		<path style="clip-path:url(#SVGID_2_);fill:#D17642;" d="M28.051,36.675c-0.81-0.818-2.241-0.766-3.245-0.606
			c-1.31,0.212-3.567,1.472-1.679,2.769c1.362,0.936,6.295,0.555,5.31-1.598C28.335,37.015,28.204,36.829,28.051,36.675z"/>
		<path style="clip-path:url(#SVGID_2_);fill:#261B18;" d="M27.291,31.511c-2.924-0.793-4.765,2.471-2.77,3.536
			c0.93-0.17,2.029-0.106,2.896,0.155C29.381,34.563,29.469,32.101,27.291,31.511z"/>
		<path style="opacity:0.7;clip-path:url(#SVGID_2_);fill:#66241B;" d="M35.589,38.153c-1.025,0.012-1.925-0.455-2.887-0.028
			c-0.96,0.425,0.143,1.79,2.861,1.725c2.706-0.063,3.458-1.306,2.952-1.767C37.932,37.544,36.726,38.14,35.589,38.153z"/>
		<path style="clip-path:url(#SVGID_2_);fill:#D17642;" d="M35.523,32.276c-2.314-0.201-4.134,4.288-3.149,5.76
			c0.691,1.031,5.787,0.996,6.587-0.213C39.254,37.384,37.733,32.468,35.523,32.276z"/>
		<path style="opacity:0.7;clip-path:url(#SVGID_2_);fill:#F0DED1;" d="M26.251,32.081c-1.188,0.254-0.283,1.705,0.873,1.176
			C27.961,32.875,27.306,31.856,26.251,32.081z"/>
		<path style="clip-path:url(#SVGID_2_);fill:#261B18;" d="M27.879,26.61c-2.582-0.34-6.681,0.558-6.293,1.916
			c0.387,1.359,1.842,0.27,3.81,0.311c2.089,0.043,3.744,0.633,4.606,0.01C31.444,27.804,30.021,26.892,27.879,26.61z"/>
		<path style="clip-path:url(#SVGID_2_);fill:#261B18;" d="M42.6,26.46c-2.039,0.321-3.406,1.254-2.058,2.262
			c0.806,0.602,2.389-0.016,4.371-0.1c1.869-0.079,3.229,0.975,3.623-0.383C48.93,26.884,45.057,26.073,42.6,26.46z"/>
		<path style="clip-path:url(#SVGID_2_);fill:#261B18;" d="M45.291,31.106c-3.004-0.395-4.394,3.085-2.273,3.876
			c0.896-0.294,1.996-0.378,2.892-0.233C47.768,33.854,47.527,31.402,45.291,31.106z"/>
		<path style="opacity:0.7;clip-path:url(#SVGID_2_);fill:#F0DED1;" d="M44.336,31.81c-1.144,0.408-0.055,1.728,1.022,1.051
			C46.136,32.37,45.352,31.447,44.336,31.81z"/>
		<path style="clip-path:url(#SVGID_2_);fill:#D47B48;" d="M44.675,40.463c-3.776,1.192-13.46,1.261-17.657,0.686
			c-0.667-0.091-2.154-0.798-1.604,0.538c0.336,0.813,0.601,1.682,0.997,2.467c1.846,3.639,3.604,6.643,8.723,6.727
			c5.312,0.084,6.764-3.187,6.971-5.984c0.067-0.905,0.62-1.746,1.164-2.444c0.198-0.255,1.907-1.888,1.781-2.041
			C44.992,40.341,44.736,40.443,44.675,40.463z"/>
		<path style="opacity:0.5;clip-path:url(#SVGID_2_);fill:#66241B;" d="M24.644,40.505c-0.732,0.486-0.716,2.045-0.126,2.116
			c0.557,0.069,0.601-1.056,0.749-1.378c0.139-0.304,0.469-0.494,0.815-0.631c0.236-0.093,0.48-0.16,0.678-0.223
			c0.082-0.026,0.982-0.233,0.771-0.349C27.531,40.041,25.464,39.962,24.644,40.505z"/>
		<path style="opacity:0.5;clip-path:url(#SVGID_2_);fill:#66241B;" d="M43.444,39.825c-0.376,0.095,0.317,0.222,1.229,0.444
			c0.828,0.192,0.029,1.558,0.604,1.636c0.586,0.081,1.163-0.916,0.768-1.742C45.65,39.339,43.444,39.825,43.444,39.825z"/>
		<path style="clip-path:url(#SVGID_2_);fill:#732E2B;" d="M26.646,41.868c0,0,2.295,6.946,8.586,6.725
			c5.669-0.201,6.334-2.569,6.582-4.229c0.328-2.219,1.859-3.092,1.859-3.092C34.024,44.134,26.646,41.868,26.646,41.868z"/>
		<path style="clip-path:url(#SVGID_2_);fill:#FFF9F0;" d="M28.713,42.587c0,0,0.074,2.25,2.018,3.1
			c2.489,1.092,5.275,1.213,8.116,0.373c1.913-0.564,3.01-3.975,3.01-3.975S36.514,43.206,28.713,42.587z"/>
		<path style="clip-path:url(#SVGID_2_);fill:#FFF9F0;" d="M36.623,46.08c-2.691,0.043-5.012-0.345-6.272-0.897
			c-1.052-0.458-1.061,0.184-0.863,0.75c0,0,0.35,2.32,5.257,2.725c4.292,0.357,6.153-2.583,5.673-3.188
			C39.936,44.867,39.315,46.035,36.623,46.08z"/>
		<path style="clip-path:url(#SVGID_2_);fill:#E8DAC5;" d="M28.702,42.556c0,0,0.061,0.681,0.212,0.984c0,0,10.18-1.09,12.444-0.2
			c0,0,0.389-0.718,0.498-1.255C41.856,42.085,34.66,43.204,28.702,42.556z"/>
		<path style="clip-path:url(#SVGID_2_);fill:#E8DAC5;" d="M30.91,45.198c4.241,2.222,8.915,0.154,8.915,0.154
			C34.591,46.536,30.91,45.198,30.91,45.198z"/>
		<path style="clip-path:url(#SVGID_2_);fill:#212126;" d="M38.159,29.657c-1.248,1.461-0.613,6.339,0.202,7.933
			c0.822,1.599,9.429,1.771,11.511,0.995c2.076-0.773,3.769-6.427,2.288-8.688C50.681,27.638,39.992,27.51,38.159,29.657z
			 M49.394,37.514c-1.563,0.544-9.251,0.394-9.979-0.647c-0.725-1.044-0.989-5.422-0.104-6.41
			c1.303-1.454,10.311-1.246,11.614,0.229C52.224,32.157,50.952,36.968,49.394,37.514z"/>
		<path style="clip-path:url(#SVGID_2_);fill:#212126;" d="M17.278,30.121c-1.58,1.527,0.048,6.53,1.375,8.061
			c1.333,1.53,11.305,0.895,13.309,0.017c2.008-0.875,2.01-6.329,0.308-8.492C30.566,27.543,19.598,27.878,17.278,30.121z
			 M31.128,37.253c-1.501,0.59-10.134,1.043-11.271,0.082c-1.138-0.959-2.431-5.374-1.315-6.371
			c1.638-1.467,11.171-1.822,12.614-0.469C32.598,31.849,32.628,36.659,31.128,37.253z"/>
		<path style="clip-path:url(#SVGID_2_);fill:#212126;" d="M33.385,32.596c-0.217,0.104-1.115,1.372-0.479,1.67
			c0.157,0.076,2.023-1.567,4.904-0.397c0.367,0.152,0.716,0.111,0.592-0.389C37.944,31.606,34.698,31.946,33.385,32.596z"/>
		<path style="opacity:0.3;clip-path:url(#SVGID_2_);fill:#FFFFFF;" d="M44.689,29.849c-0.583,0.152-4.562,0.908-3.815,2.778
			c0.49,1.233,9.731,2.079,10.356,0.031C52.505,28.481,45.831,29.55,44.689,29.849z"/>
		<path style="opacity:0.3;clip-path:url(#SVGID_2_);fill:#FFFFFF;" d="M30.489,29.844c-1.51-0.476-4.708-0.219-6.556,0.093
			c-0.663,0.111-3.711,0.613-2.666,2.598c1.068,2.025,8.722,2.335,10.126,0.65C32.771,31.532,31.371,30.123,30.489,29.844z"/>
		<path style="clip-path:url(#SVGID_2_);fill:#FFFFFF;" d="M45.332,30.164c-0.996,0.036-1.676,0.258-1.462,0.765
			c0.421,1.001,6.244,1.24,6.719,0.581C51.057,30.862,47.468,30.091,45.332,30.164z"/>
		<path style="opacity:0.7;clip-path:url(#SVGID_2_);fill:#FFFFFF;" d="M40.844,35.569c-0.615-0.078-1.058,0.025-0.981,0.451
			c0.151,0.84,3.708,1.65,4.072,1.177C44.291,36.732,42.165,35.734,40.844,35.569z"/>
		<path style="clip-path:url(#SVGID_2_);fill:#FFFFFF;" d="M26.264,29.985c-0.979,0.051-1.643,0.266-1.423,0.727
			c0.434,0.911,6.151,1.033,6.605,0.422C31.895,30.532,28.355,29.884,26.264,29.985z"/>
		<path style="opacity:0.7;clip-path:url(#SVGID_2_);fill:#FFFFFF;" d="M20.431,35.8c-0.61-0.063-1.036,0.039-0.958,0.429
			c0.169,0.771,3.673,1.452,4.021,1.013C23.837,36.808,21.729,35.93,20.431,35.8z"/>
		<path style="clip-path:url(#SVGID_2_);fill:#1E1E29;" d="M15.627,65.998h7.188l-3.028-10.021
			C17.048,57.696,15.568,58.787,15.627,65.998z"/>
		<path style="clip-path:url(#SVGID_2_);fill:#1E1E29;" d="M46.215,55.978l-3.028,10.021h7.188
			C50.434,58.787,48.954,57.696,46.215,55.978z"/>
	</g>
</g>
<g id="Layer_1">
</g>
</svg>
