<?xml version="1.0" encoding="iso-8859-1"?>
<!-- Generator: Adobe Illustrator 16.0.0, SVG Export Plug-In . SVG Version: 6.00 Build 0)  -->
<!DOCTYPE svg PUBLIC "-//W3C//DTD SVG 1.1//EN" "http://www.w3.org/Graphics/SVG/1.1/DTD/svg11.dtd">
<svg version="1.1" xmlns="http://www.w3.org/2000/svg" xmlns:xlink="http://www.w3.org/1999/xlink" x="0px" y="0px"
	 width="66.012px" height="66px" viewBox="0 0 66.012 66" style="enable-background:new 0 0 66.012 66;" xml:space="preserve">
<g id="Layer_17">
	<g>
		<defs>
			<circle id="SVGID_1_" cx="33.012" cy="33" r="33"/>
		</defs>
		<clipPath id="SVGID_2_">
			<use xlink:href="#SVGID_1_"  style="overflow:visible;"/>
		</clipPath>
		<rect style="clip-path:url(#SVGID_2_);fill:#507D52;" width="66" height="66"/>
		<path style="clip-path:url(#SVGID_2_);fill:#85B428;" d="M26.069,55.896c-4.117,1.621-8.105,5.189-9.097,10.104h7.299
			C26.182,61.138,27.317,55.404,26.069,55.896z"/>
		<path style="clip-path:url(#SVGID_2_);fill:#85B428;" d="M39.935,55.896c-1.248-0.492-0.112,5.241,1.798,10.104h7.299
			C48.04,61.086,44.052,57.518,39.935,55.896z"/>
		<path style="clip-path:url(#SVGID_2_);fill:#85B428;" d="M32.968,54.824c-8.096,0.041-9.079,2.648-8.972,2.945
			c0.267,0.738-0.146,4.324,0.06,8.23h17.848c0.292-3.962,0.012-7.506,0.409-8.277C42.467,57.421,41.308,54.783,32.968,54.824z"/>
		<path style="clip-path:url(#SVGID_2_);fill:#BBE351;" d="M27.483,55.621c-1.843,2.711,5.519,5.74,5.519,5.74
			s6.509-2.834,5.81-5.283C37.986,53.174,29.14,53.184,27.483,55.621z"/>
		<path style="clip-path:url(#SVGID_2_);fill:#8F4721;" d="M33.026,50.117c-1.877-0.005-4.521,1.125-4.709,4.09
			c-0.088,1.379,0.111,2.178,0.805,2.943c1.109,1.223,2.482,2.215,3.904,2.244c1.421-0.029,2.793-1.021,3.903-2.244
			c0.693-0.766,0.892-1.564,0.804-2.943C37.548,51.242,34.902,50.112,33.026,50.117z"/>
		<path style="clip-path:url(#SVGID_2_);fill:#261B18;" d="M50.683,15.8c0.781-0.977-0.408-2.558-1.624-2.454
			c0.253-0.928-0.572-1.644-1.666-1.169c-0.09-1.74-1.613-2.084-2.974-1.531c-0.297-1.197-1.485-1.551-2.38-0.716
			c-0.313-1.492-2.019-1.359-3.124-0.7c-0.843-1.178-2.453-1.413-3.623-0.52c-1.022-1.053-2.902-0.667-3.85,0.385
			c-1.165-0.999-2.465-0.477-3.177,0.752c-1.124-1.178-2.61-0.055-3.418,0.962c-1.094-0.997-2.758-0.091-3.12,1.192
			c-1.15-0.557-2.947,0.239-3.096,1.621c-1.67-0.144-3.423,1.35-2.398,3.021c-1.246,0.192-2.575,1.695-1.238,2.713
			c-1.341,0.142-1.425,1.598-0.712,2.469c-1.494,0.689-1.6,3.877-0.246,3.104c-1.05,0.6-1.144,1.98,0.217,2.146
			c-0.981,0.647-1.976,2.018-0.095,2.242c-0.632,0.602-1.104,1.983,0.05,2.295c-0.686,1.215-0.69,1.689,0.521,2.563
			c-0.323-0.233-0.253,1.439-0.188,1.588c0.281,0.654,0.998,1.055,1.526,1.473c0.951,0.752,1.608,1.697,2.429,2.613
			c2.154,2.408,3.695,5.285,5.788,7.687c2.02,2.321,4.336-1.667,6.03-2.636c2.247-1.286,4.979-1.98,7.561-1.598
			c2.289,0.34,3.9,2.73,6.228,2.782c2.412,0.052,3.451-3.407,3.921-5.187c0.304-1.152,0.38-2.766,0.97-3.684
			c0.518-0.803,1.729-1.277,0.868-2.605c0.745,0.063,1.139-1.609,0.237-1.888c0.905-0.146,0.981-1.558,0.293-2
			c1.125-0.411,1.525-1.187,0.238-1.787c1.908-0.431,1.015-2.514-0.429-2.879c1.468-0.648,1.611-2.143,0.501-2.582
			c1.286-0.411,1.498-2.129,0.434-2.484c1.09-0.411,0.849-1.781-0.081-2.677C52.401,18.119,52.479,15.35,50.683,15.8z"/>
		<path style="clip-path:url(#SVGID_2_);fill:#9C552C;" d="M30.908,13.854c-8.371,1.632-14.27,13.668-12.732,24.96
			c1.152,8.458,7.675,17.735,17.5,17.037c10.025-0.714,15.014-13.149,13.718-23.549C47.986,20.994,42.631,11.568,30.908,13.854z"/>
		<path style="clip-path:url(#SVGID_2_);fill:#261B18;" d="M27.941,28.899c-2.643-0.349-5.623,0.39-6.441,1.96
			c3.9-0.518,7.233,1.327,8.614,0.329C31.591,30.121,30.136,29.186,27.941,28.899z"/>
		<path style="clip-path:url(#SVGID_2_);fill:#261B18;" d="M44.136,28.459c-2.053,0.386-3.446,1.4-2.116,2.431
			c1.243,0.965,4.422-1.059,8.027-0.69C49.352,28.627,46.608,27.995,44.136,28.459z"/>
		<path style="opacity:0.4;clip-path:url(#SVGID_2_);fill:#661004;" d="M41.693,15.632c-3.298-0.988-6.707-1.534-10.149-1.594
			c-3.058-0.054-6.377-0.225-9.226,1.064c-1.566,0.708-3.487,1.68-4.073,3.412c-0.728,2.156-0.378,4.87-0.024,7.073
			c0.389,2.412,0.976,4.876,2.259,6.986c0.101-1.498,0.771-2.92,1.101-4.378c1.062-4.692,4.078-6.391,7.707-6.996
			c3.014-0.504,6.449-0.251,9.537-0.333c1.653-0.043,11.233,1.577,9.178-2.264C47.079,16.878,43.386,16.139,41.693,15.632z"/>
		<path style="clip-path:url(#SVGID_2_);fill:#9C552C;" d="M15.255,34.109c-4.109,1.133-2.461,7.133,0.896,8.337
			c1.076,0.387,2.219,0.439,3.32,0.362c0.021-0.033,0.043-0.066,0.066-0.102c0.491-0.781-0.197-5.156-0.447-5.979
			C18.457,34.654,17.228,33.566,15.255,34.109z"/>
		<path style="opacity:0.4;clip-path:url(#SVGID_2_);fill:#661004;" d="M16.697,36.319c-0.924-0.427-3.229,0.341-2.145,2.146
			c0.57-1.674,1.592-0.576,1.436,0.613c-0.105,0.799-0.963,0.81-0.11,1.834c0.461,0.555,1.394,0.348,1.865,0.053
			C19.239,40.021,17.825,36.838,16.697,36.319z"/>
		<path style="clip-path:url(#SVGID_2_);fill:#261B18;" d="M37.732,10.438c-2.793-0.541-5.792-0.594-8.609-0.259
			c-4.74,0.565-10.46,2.815-11.959,7.836c-0.921,3.086-0.44,6.662-0.204,9.815c0.144,1.91-0.627,5.596,1.006,7.037
			c1.899,1.678,2.652-0.848,2.833-2.661c0.202-2.038,0.044-4.265,0.632-6.251c1.434-4.822,3.995-5.75,10.936-6.283
			c3.601-0.276,12.496-0.96,14.206,2.243c0.636,1.192,5.864-2.316,1.149-7.558C45.668,12.075,40.642,10.999,37.732,10.438z"/>
		<path style="clip-path:url(#SVGID_2_);fill:#BF6C3C;" d="M48.411,36.094c-0.822-0.781-2.198-0.648-3.156-0.428
			c-1.254,0.283-2.815,1.143-1.313,2.715c0.802,0.836,5.928,0.375,4.87-1.74C48.701,36.422,48.567,36.241,48.411,36.094z"/>
		<path style="clip-path:url(#SVGID_2_);fill:#BF6C3C;" d="M28.123,37.027c-0.655-0.916-2.033-1.088-3.017-1.092
			c-1.284-0.002-3.63,0.859-2.011,2.406c1.166,1.115,5.942,1.521,5.313-0.711C28.345,37.399,28.247,37.201,28.123,37.027z"/>
		<path style="clip-path:url(#SVGID_2_);fill:#261B18;" d="M27.113,31.68c-2.994-0.81-4.878,2.53-2.837,3.621
			c0.952-0.176,2.078-0.109,2.966,0.158C29.251,34.806,29.341,32.285,27.113,31.68z"/>
		<path style="opacity:0.4;clip-path:url(#SVGID_2_);fill:#661004;" d="M36.769,38.584c-1.261,0.016-2.368-0.559-3.552-0.034
			c-1.182,0.522,0.176,2.204,3.521,2.122c3.33-0.078,4.256-1.605,3.634-2.174C39.652,37.836,38.167,38.569,36.769,38.584z"/>
		<path style="clip-path:url(#SVGID_2_);fill:#BF6C3C;" d="M36.694,32.485c-2.37-0.206-4.232,4.392-3.225,5.897
			c0.707,1.055,5.924,1.02,6.743-0.218C40.511,37.715,38.954,32.682,36.694,32.485z"/>
		<path style="opacity:0.7;clip-path:url(#SVGID_2_);fill:#F0DED1;" d="M26.047,32.264c-1.215,0.259-0.29,1.745,0.895,1.204
			C27.798,33.077,27.128,32.035,26.047,32.264z"/>
		<path style="clip-path:url(#SVGID_2_);fill:#261B18;" d="M46.5,31.167c-3.075-0.404-4.497,3.158-2.328,3.968
			c0.919-0.301,2.043-0.387,2.96-0.238C49.035,33.98,48.788,31.47,46.5,31.167z"/>
		<path style="opacity:0.7;clip-path:url(#SVGID_2_);fill:#F0DED1;" d="M45.521,31.887c-1.171,0.418-0.056,1.768,1.047,1.076
			C47.364,32.461,46.562,31.516,45.521,31.887z"/>
		<path style="opacity:0.8;clip-path:url(#SVGID_2_);fill:#541D15;" d="M47.689,41.238c-1.049,0.566-2.506,0.137-3.082-1.051
			c-0.412,0.879-0.286,1.566,0.092,1.988c-1.228,2.822-4.347,5.061-8.37,5.283c-4.131,0.234-7.783-1.72-9.239-4.91
			c0.393-0.43,0.582-1.09,0.316-1.916c-0.75,1.195-2.277,1.643-3.242,1.089c0.288,0.901,0.92,1.323,1.559,1.373
			c1.674,3.69,5.835,5.917,10.593,5.649c0.129-0.008,0.256-0.016,0.383-0.025c4.441-0.365,7.898-2.895,9.319-6.104
			C46.638,42.527,47.287,42.102,47.689,41.238z"/>
		<path style="clip-path:url(#SVGID_2_);fill:#45362E;" d="M17.466,22.483c-0.006-0.001-0.011,0.001-0.017,0
			c0.009,0,0.016,0.003,0.024,0.003C17.509,22.485,17.506,22.484,17.466,22.483z"/>
		<path style="clip-path:url(#SVGID_2_);fill:#45362E;" d="M48.376,15.729c0.314-0.88-0.432-2.13-1.434-1.531
			c0.668-0.915-0.534-2.643-1.507-1.23c-0.241-0.532,0.03-1.013-0.787-0.975c-0.724,0.035-0.909,0.626-1.212,1.173
			c-0.337-1.049-0.385-2.411-1.679-2.827c-1.49-0.477-1.758,0.875-2.461,1.768c-0.369-0.624-0.456-1.436-1.11-1.889
			c-0.904-0.626-1.369,0.271-1.803,0.947c-0.504-0.33-0.663-1.003-1.376-0.748c-0.793,0.285-1.057,1.492-1.438,2.153
			c-0.689-0.786-1.265-2.057-2.373-2.319c-1.417-0.335-2.003,0.748-2.509,1.79c-0.564-0.312-0.912-0.881-1.642-0.587
			c-0.686,0.275-0.934,1.1-1.156,1.735c-0.676-0.482-1.649,0.003-1.461,0.884c-0.434-0.883-1.919-1.351-2.791-1.055
			c-0.677,0.23-0.983,0.66-1.014,1.166c-0.023,0.385,0.111,0.813,0.364,1.233c-1.258-0.64-1.704,0.401-1.064,1.491
			c-0.502-0.468-1.779-1.3-2.472-0.858c-0.688,0.44-0.563,2.449-0.111,2.985c0.003-0.014-0.007-0.02-0.026-0.02
			c-1.307,0.173-0.323,0.879,0.417,1.104c-1.916-0.584-1.563,2.358-0.283,2.364c0.006,0.001,0.011-0.001,0.017,0
			c0.04,0.001,0.043,0.002,0.008,0.003c-0.009,0-0.016-0.003-0.024-0.003c-1.248-0.208-1.478,1.54-0.345,1.829
			c-1.444-0.305-0.749,1.151,0.201,1.385c1.272,0.313,1.576-0.982,0.549-1.571c1.37,0.787,1.677-0.609,0.701-1.442
			c1.727,0.713,0.802-1.874,0.497-2.557c0.495,0.22,0.962,0.86,1.549,0.71c0.648-0.167,0.661-1.037,0.638-1.603
			c0.242,0.679,1.483,1.289,2.082,0.757c0.489-0.432,0.277-1.747,0.437-2.325c0.422,0.566,1.451,2.021,2.351,1.594
			c0.677-0.323,0.448-1.633,0.637-2.253c0.379,0.932,1.348,1.813,2.413,1.72c1.339-0.117,1.4-0.99,1.772-2.163
			c0.195,0.738,1.132,1.84,2.044,1.768c1.154-0.091,1.357-1.23,1.778-2.261c1.178,2.219,3.7,2.648,4.605,0
			c0.706,3.463,3.432,2.163,5.33,0.594c-0.316,1.952,1.117,2.542,2.217,1.048c-0.936,1.27,0.495,2.225,1.717,1.884
			c0.72-0.2,1.186-0.783,1.278-1.531c0.06-0.49-0.083-0.969-0.352-1.38C49.481,16.583,48.42,15.604,48.376,15.729z"/>
	</g>
</g>
<g id="Layer_1">
</g>
</svg>
