<?xml version="1.0" encoding="iso-8859-1"?>
<!-- Generator: Adobe Illustrator 16.0.0, SVG Export Plug-In . SVG Version: 6.00 Build 0)  -->
<!DOCTYPE svg PUBLIC "-//W3C//DTD SVG 1.1//EN" "http://www.w3.org/Graphics/SVG/1.1/DTD/svg11.dtd">
<svg version="1.1" xmlns="http://www.w3.org/2000/svg" xmlns:xlink="http://www.w3.org/1999/xlink" x="0px" y="0px" width="66px"
	 height="66.002px" viewBox="0 0 66 66.002" style="enable-background:new 0 0 66 66.002;" xml:space="preserve">
<g id="Layer_110">
	<g>
		<defs>
			<circle id="SVGID_1_" cx="33" cy="33" r="33"/>
		</defs>
		<clipPath id="SVGID_2_">
			<use xlink:href="#SVGID_1_"  style="overflow:visible;"/>
		</clipPath>
		<rect style="clip-path:url(#SVGID_2_);fill:#C0B9AB;" width="66" height="66"/>
		<path style="clip-path:url(#SVGID_2_);fill:#FDD281;" d="M13.151,49.73C7.8,59.528,23.04,61.949,30.578,55.457
			c3.229-2.782,5.821,4.556,9.726,4.903c5.273,0.47,8.056-3.315,6.981-6.699c0.899,2.832,4.045,2.998,6.415,1.981
			c1.18-0.507,3.762-2.369,3.54-5.975c-0.973,1.201-2.949,1.487-4.337,0.873c-1.947-0.862-2.569-2.831-1.373-4.537
			c1.459-2.08,5.611-4.727,1.561-6.923c0.869,0.471,1.828,0.461,2.719,0.052c3.326-1.521,1.918-8.625-1.841-6.331
			c2.553-0.096,0.089,3.969-1.341,0.91c-0.901-1.932,1.178-2.868,2.113-4.157c1.174-1.618,1.498-3.277,1.319-5.357
			c-0.453-5.237-5.27-8.537-8.043-12.573c-3.022-4.396-7.298-7.207-12.801-5.228c-1.357,0.488-2.481,1.478-3.436,2.534
			c-0.308-0.827-0.89-1.79-1.718-2.403c-0.087,0.785-0.128,1.573-0.149,2.374c-2.989-1.833-7.676-1.089-10.276,0.596
			c-3.534,2.289-3.2,5.813-4.627,9.253c-1.303,3.144-5.438,6.807-5.176,10.456c0.165,2.285,1.797,3.467,1.688,5.818
			c-0.091,1.964-2.225,3.022-1.25,4.94c0.929,1.826,4.983,1.273,2.939,4.566c-1.872,3.016-5.535-0.55-3.24-1.037
			c-2.532-1.231-3.588,2.048-3.216,4.008C7.275,50.23,11.098,50.287,13.151,49.73z"/>
		<path style="clip-path:url(#SVGID_2_);fill:#F4BB6E;" d="M15.655,51.465c-1.466,1.363-1.911,2.473,0.185,3.832
			c3.396,2.199,8.171,2.332,13.544,0.533c2.552-0.854,10.829,3.721,13.657,2.238c2.268-1.188,2.967-2.375,3.868-6.466
			c0.729,0.91,1.715,2.403,3.059,2.397c-1.036-1.95-0.721-4.514-0.463-6.602c0.248-2.008,1.685-3.575,1.729-5.598
			c0.017-0.717-0.389-2.175-0.134-2.8c0.252-0.616,1.611-1.438,2.132-1.995c-0.972-0.559-1.666-1.118-1.943-2.27
			c-0.489-2.03,1.101-3.6,1.149-5.521c0.048-1.837-4.951-10.598-7.032-7.517c-0.481,0.715,2.283,4.922,1.671,5.57
			c-0.671,0.71-1.714,1.145-2.629,1.425c-3.838,1.176-7.945,1.62-11.903,2.21c-2.456,0.367-4.857,0.997-7.301,1.377
			c-1.575,0.245-3.287,0.569-4.865,0.205c-1.828-0.423-1.843-2.207-3.373-2.979c-2.917-1.473-5.267,1.563-4.846,4.332
			c0.188,1.237,1.139,2.655,1.943,3.593c1.317,1.537,2.924,2.036,3.809,4.01C19.54,45.067,18.499,48.818,15.655,51.465z"/>
		<path style="clip-path:url(#SVGID_2_);fill:#FFCB9E;" d="M45.77,66c-0.139-0.809-0.674-5.719-0.87-6.63L41.513,60.1
			c0.187,0.859,0.529,4.977,0.637,5.9H45.77z"/>
		<path style="clip-path:url(#SVGID_2_);fill:#1E1E29;" d="M39.31,61.374c-0.425-1.972-1.03-2.659-1.191-2.673l0.569-6.271
			c1.956,0.178,5.438,1.403,6.778,7.617L39.31,61.374z"/>
		<path style="clip-path:url(#SVGID_2_);fill:#FFCB9E;" d="M22.998,66c0.138-0.809,0.673-5.719,0.869-6.63l3.387,0.729
			c-0.186,0.859-0.528,4.977-0.636,5.9H22.998z"/>
		<path style="clip-path:url(#SVGID_2_);fill:#1E1E29;" d="M29.457,61.374c0.426-1.972,1.031-2.659,1.192-2.673L30.08,52.43
			c-1.957,0.178-5.438,1.403-6.779,7.617L29.457,61.374z"/>
		<path style="clip-path:url(#SVGID_2_);fill:#379BDB;" d="M39.825,66c0.119-1.233,0.427-2.738,0.949-4.695
			c1.096-4.1,1.219-6.584-1.315-7.416c-2.463-0.811-7.004-1.082-9.704,0.072c-2.152,0.922-2.842,2.414-1.372,6.961
			c0.593,1.838,1.075,3.586,1.226,5.077L39.825,66z"/>
		
			<linearGradient id="SVGID_3_" gradientUnits="userSpaceOnUse" x1="3366.3398" y1="52.2266" x2="3366.3398" y2="55.7656" gradientTransform="matrix(1 0 0 1 -3332.0449 0)">
			<stop  offset="0" style="stop-color:#EEA17A"/>
			<stop  offset="0.0031" style="stop-color:#EEA17A"/>
			<stop  offset="0.3647" style="stop-color:#F7B88E"/>
			<stop  offset="0.705" style="stop-color:#FDC69A"/>
			<stop  offset="1" style="stop-color:#FFCB9E"/>
		</linearGradient>
		<path style="clip-path:url(#SVGID_2_);fill:url(#SVGID_3_);" d="M37.438,53.691c-0.526-0.943-0.058-2.439,0.033-4.039
			c0.209-3.625-6.053-3.76-6.045,0.196c0.001,1.753,0.135,3.089-0.229,3.657C28.69,57.425,39.777,57.893,37.438,53.691z"/>
		<path style="opacity:0.5;clip-path:url(#SVGID_2_);fill:#8DC7EB;" d="M30.16,59.967c0.425,1.344,2.599,1.697,4.493,1.666
			c3.733-0.059,5.133-1.445,4.499-3.1c-0.17-0.443-0.97-0.747-1.925-0.41c-1.773,0.627-3.936,0.363-5.756-0.092
			C30.424,57.768,29.837,58.954,30.16,59.967z"/>
		<path style="clip-path:url(#SVGID_2_);fill:#1E1E29;" d="M31.333,52.621c0,0-4.513,1.003-5.032,1.693
			C24.163,57.156,27.77,61.581,27.303,66h5.17C32.463,61.734,31.979,55.895,31.333,52.621z"/>
		<path style="clip-path:url(#SVGID_2_);fill:#535361;" d="M31.667,55.25c-0.348-0.609-5.401,0.597-5.263,1.115
			c0.097,0.362,2.744,5.688,4.46,9.637L32.648,66C32.838,61.214,32.197,56.18,31.667,55.25z"/>
		<path style="clip-path:url(#SVGID_2_);fill:#535361;" d="M31.458,51.197c-2.515,1.002-5.784,2.203-5.842,2.629
			c-0.058,0.427,6.381,2.94,6.331,2.504C31.896,55.893,31.458,51.197,31.458,51.197z"/>
		<path style="clip-path:url(#SVGID_2_);fill:#1E1E29;" d="M37.431,52.621c0,0,4.513,1.003,5.032,1.693
			c2.138,2.842-1.469,7.267-1.002,11.686h-5.17C36.301,61.734,36.786,55.895,37.431,52.621z"/>
		<path style="clip-path:url(#SVGID_2_);fill:#535361;" d="M37.097,55.25c0.348-0.609,5.401,0.597,5.264,1.115
			c-0.097,0.362-2.745,5.688-4.461,9.637L36.115,66C35.926,61.214,36.566,56.18,37.097,55.25z"/>
		<path style="clip-path:url(#SVGID_2_);fill:#535361;" d="M37.306,51.197c2.515,1.002,5.784,2.203,5.842,2.629
			c0.058,0.427-6.381,2.94-6.33,2.504C36.867,55.893,37.306,51.197,37.306,51.197z"/>
		<path style="clip-path:url(#SVGID_2_);fill:#FFCB9E;" d="M50.247,30.688c-0.418-11.481-8.938-16.375-17.299-15.306
			c-8.362,1.069-14.992,7.801-13.896,19.393s8.919,18.586,17.35,18.516C42.872,53.24,50.679,42.658,50.247,30.688z"/>
		<path style="clip-path:url(#SVGID_2_);fill:#FFCB9E;" d="M16.463,38.146c1.063,0.305,2.184,0.273,3.26,0.117
			c0.021-0.034,0.04-0.068,0.061-0.105c0.465-0.805-0.484-4.676-0.747-5.47c-0.665-1.998-1.714-3.368-3.634-2.691
			C11.404,31.41,13.151,37.203,16.463,38.146z"/>
		<path style="opacity:0.15;clip-path:url(#SVGID_2_);fill:#BF3C1B;" d="M22.042,28.555c-0.036,0.315-0.056,0.632-0.058,0.95
			c-0.014,1.401,1.233,3.602,0.999,4.968c-0.437,2.559-2.304,4.287,0.065,6.582c-2.343,1.287-4.807-0.084-4.966-1.635
			c-0.396-3.861,1.646-4.465-0.297-6.286c-3.96-3.712-0.688-4.152-0.419-6.413c0.287-2.416,2.423-4.561,3.683-6.515
			c1.767-2.746,4.993-4.016,8.055-4.711c4.422-1.004,9.176-1.17,13.679-0.693c2.124,0.226,5.216,0.354,6.379,2.471
			c0.947,1.727,1.781,5.337,1.109,7.229c-0.449,1.268-2.68,0.53-3.751,0.663c-1.578,0.197-2.919,1.121-3.907,2.47
			c-1.735,2.37-2.786,4.09-6.935,4.09c-2.553,0-5.621-3.743-3.531-5.899c-0.62-0.129-1.223,0.103-1.8,0.332
			c-1.742,0.69-7.931,3.032-7.447-1.244C22.543,26.104,22.183,27.314,22.042,28.555z"/>
		<path style="opacity:0.2;clip-path:url(#SVGID_2_);fill:#BF3C1B;" d="M18.759,36.906c1.843-0.806,0.431-4.123-0.859-4.748
			c-1.057-0.511-3.839,0.041-2.706,1.95c0.811-1.622,1.927-0.429,1.646,0.746c-0.187,0.789-1.202,0.721-0.277,1.826
			C17.061,37.277,18.179,37.158,18.759,36.906z"/>
		<path style="clip-path:url(#SVGID_2_);fill:#FDD281;" d="M43.22,25.16c0.891-0.467,1.937-0.569,3.348-0.599
			c2.602-0.053,3.502-1.942,3.383-4.428c-0.322-6.744-6.756-10.202-12.721-10.731c-1.716-0.15-3.332-0.658-5.084-0.612
			c-2.923,0.076-5.75,1.066-8.326,2.438c-3.838,2.044-6.312,6.677-7.434,10.792c-0.652,2.401-0.998,5.1-0.476,7.561
			c0.466,2.195,3.313,3.023,3.481,5.29c0.073,1.013-0.82,1.775-0.798,2.746c0.02,0.799,0.394,1.666,0.971,2.184
			c0.51,0.457,1.685,0.62,2.402,0.726c-1.586-1.739-0.054-2.752,0.09-4.453c0.1-1.166-0.156-3.418-0.584-4.531
			c-1.122-2.912-0.444-6.254,2.083-8.156c0.254,3.121,3.443,2.996,5.725,2.545c1.027-0.202,4.012-1.408,4.535,0.144
			c0.325,0.969-1.224,1.809-1.578,0.7c-0.032,1.651,0.054,3.009,2.027,3.431c2.969,0.635,5.383-0.416,6.958-2.988
			C41.859,26.177,42.488,25.545,43.22,25.16z"/>
		<path style="clip-path:url(#SVGID_2_);fill:#FFE8BD;" d="M46.398,21.563c-1.079,1.434-2.788,2.626-4.935,3.556
			c-0.883,0.381-1.572,0.984-2.378,1.499c-1.09,0.699-3.109,1.494-4.414,0.872c1.508-0.991,0.557-3.107-0.889-3.438
			c-1.821-0.416-3.73,0.778-5.572,0.14c-6.018-2.083,2.676-3.615,4.196-4.635c1.514-1.018,2.063-2.739,1.87-4.505
			c-0.053-0.474-1.438-3.277-2.361-4.195c0.852-0.941,2.032-1.682,3.261-2.013c3.438-0.925,8.408,0.742,10.489,3.663
			C48.243,16.125,48.193,19.178,46.398,21.563z"/>
		<path style="clip-path:url(#SVGID_2_);fill:#FFE8BD;" d="M19.566,26.891c-0.336,1.187-0.04,2.904,0.521,4.003
			c-1.707-0.2-4.107-2.416-4.871-3.943c-0.929-1.86,0.127-3.244,1.227-4.838c3.226-4.684,1.7-11.226,9.291-11.737
			c3.91-0.263,5.371,3.016,3.333,6.254C26.602,20.549,20.942,22.033,19.566,26.891z"/>
		<path style="clip-path:url(#SVGID_2_);fill:#FFB387;" d="M47.716,37.629c0.079,0.148,0.137,0.318,0.163,0.51
			c0.269,1.869-3.677,1.033-4.069,0.205c-0.733-1.553,0.647-1.848,1.65-1.777C46.231,36.623,47.295,36.84,47.716,37.629z"/>
		<path style="clip-path:url(#SVGID_2_);fill:#FFB387;" d="M28.417,37.496c0.112,0.154,0.203,0.338,0.267,0.555
			c0.61,2.104-3.87,2.048-4.44,1.18c-1.071-1.631,0.396-2.293,1.513-2.443C26.614,36.674,27.82,36.678,28.417,37.496z"/>
		<path style="clip-path:url(#SVGID_2_);fill:#A16B43;" d="M49.349,29.33c-1.208-1.514-5.68-1.545-7.324,0.169
			C44.22,29.705,46.055,29.056,49.349,29.33z"/>
		<path style="opacity:0.2;clip-path:url(#SVGID_2_);fill:#BF3C1B;" d="M38.744,38.288c0.275,0.312-0.583,1.171-1.629,1.257
			c-0.925,0.078-2.061-0.939-1.539-1.227c0.522-0.287,0.821,0.027,1.568,0.018C37.976,38.327,38.421,37.925,38.744,38.288z"/>
		<path style="clip-path:url(#SVGID_2_);fill:#A16B43;" d="M22.443,29.028c1.816-1.591,6.861-1.723,8.363,0.207
			C27.948,29.307,26.56,29.124,22.443,29.028z"/>
		<path style="clip-path:url(#SVGID_2_);fill:#305D80;" d="M27.629,35.544c-0.646-0.278-1.444-0.302-2.105-0.057
			c-1.514-1.183-0.404-5.177,1.763-4.363C28.899,31.731,29.002,34.688,27.629,35.544z"/>
		<path style="clip-path:url(#SVGID_2_);fill:#86BAE3;" d="M27.625,32.445c0.798-0.119,1.049,1.176,0.372,1.51
			C27.063,34.42,26.727,32.582,27.625,32.445z"/>
		<path style="clip-path:url(#SVGID_2_);fill:#305D80;" d="M46.363,31.167c1.167,0.742,1.074,3.042,0.244,4.125
			c-0.625-0.097-1.326-0.094-1.911,0.306C42.276,34.868,44.188,29.779,46.363,31.167z"/>
		<path style="clip-path:url(#SVGID_2_);fill:#86BAE3;" d="M46.237,32.25C47,32.233,47.1,33.576,46.43,33.828
			C45.502,34.178,45.378,32.271,46.237,32.25z"/>
		<path style="clip-path:url(#SVGID_2_);fill:#121B21;" d="M51.169,31.849c0,0-1.985,2.089-5.066,0.372
			c-1.36-0.757-2.326,0.435-2.326,0.435s0.655-2.364,2.648-1.599C47.494,31.471,48.727,32.67,51.169,31.849z"/>
		<path style="clip-path:url(#SVGID_2_);fill:#121B21;" d="M20.731,32.138c0,0,2.342,2.033,5.311,0.195
			c1.302-0.808,2.417,0.184,2.417,0.184s-0.543-2.343-2.623-1.283C25.038,31.638,23.188,32.852,20.731,32.138z"/>
		<path style="opacity:0.8;clip-path:url(#SVGID_2_);fill:#F04D4D;" d="M45.837,41.094c-0.821,0.523-2.175,0.196-2.882-0.82
			c-0.199,0.734-0.006,1.305,0.356,1.666c-1.145,2.851-4.259,4.711-7.886,4.676c-3.531-0.03-6.353-1.861-7.541-4.281
			c0.313-0.385,0.395-0.991-0.002-1.743c-0.454,1.063-1.713,1.499-2.653,1.048c0.388,0.738,0.974,1.084,1.52,1.137
			c1.374,2.748,4.505,4.82,8.406,4.957c0.111,0.004,0.224,0.007,0.336,0.008c4.171,0.039,7.708-2.084,9.025-5.377
			C45.079,42.297,45.621,41.9,45.837,41.094z"/>
	</g>
</g>
<g id="Layer_1">
</g>
</svg>
