<?xml version="1.0" encoding="iso-8859-1"?>
<!-- Generator: Adobe Illustrator 16.0.0, SVG Export Plug-In . SVG Version: 6.00 Build 0)  -->
<!DOCTYPE svg PUBLIC "-//W3C//DTD SVG 1.1//EN" "http://www.w3.org/Graphics/SVG/1.1/DTD/svg11.dtd">
<svg version="1.1" xmlns="http://www.w3.org/2000/svg" xmlns:xlink="http://www.w3.org/1999/xlink" x="0px" y="0px" width="66.01px"
	 height="66.014px" viewBox="0 0 66.01 66.014" style="enable-background:new 0 0 66.01 66.014;" xml:space="preserve">
<g id="Layer_41">
	<g>
		<defs>
			<circle id="SVGID_1_" cx="33.01" cy="33" r="33"/>
		</defs>
		<clipPath id="SVGID_2_">
			<use xlink:href="#SVGID_1_"  style="overflow:visible;"/>
		</clipPath>
		<rect y="0" style="clip-path:url(#SVGID_2_);fill:#A77E64;" width="66" height="66"/>
		<path style="clip-path:url(#SVGID_2_);fill:#1E1E29;" d="M22.81,66c-0.438-4.574,0.65-8.581,2.713-9.88l-2.108-3.13
			c-3.123,1.717-4.239,6.608-4.246,13.01H22.81z"/>
		<path style="clip-path:url(#SVGID_2_);fill:#1E1E29;" d="M42.471,66c0.437-4.574-0.65-8.581-2.713-9.88l2.107-3.13
			c3.124,1.717,4.239,6.608,4.246,13.01H42.471z"/>
		<path style="clip-path:url(#SVGID_2_);fill:#F0F0F0;" d="M26.546,51.691c-3.927,2.65-2.728,7.143-1.677,14.309l15.614-0.001
			c1.152-6.603,2.486-12.483-1.388-14.642C35.076,49.118,29.216,49.89,26.546,51.691z"/>
		<path style="clip-path:url(#SVGID_2_);fill:#1E1E29;" d="M27.149,51.584c0,0-4.184,1.15-4.523,2.1
			c-0.306,0.855,1.058,7.203,1.792,12.314l3.896,0.016C28.473,61.803,28.361,55.93,27.149,51.584z"/>
		<path style="clip-path:url(#SVGID_2_);fill:#535361;" d="M27.97,53.821c-0.223-0.587-3.918,0.847-3.844,1.354
			c0.06,0.396,2.377,6.898,3.482,10.819l0.714,0.019C28.564,60.533,28.344,54.814,27.97,53.821z"/>
		<path style="clip-path:url(#SVGID_2_);fill:#535361;" d="M28.01,49.812c-1.857,1.111-3.918,2.489-3.979,2.915
			s4.104,2.584,4.09,2.152C28.104,54.447,28.01,49.812,28.01,49.812z"/>
		<path style="clip-path:url(#SVGID_2_);fill:#1E1E29;" d="M38.295,50.998c0,0,3.571,1.558,4.287,2.469
			c0.444,0.566-1.213,5.627-1.427,12.533H36.98C36.852,61.533,37.021,55.455,38.295,50.998z"/>
		<path style="clip-path:url(#SVGID_2_);fill:#535361;" d="M37.309,53.821c0.223-0.587,3.918,0.847,3.844,1.354
			c-0.06,0.396-2.387,6.903-3.494,10.823L36.945,66C36.706,60.523,36.937,54.813,37.309,53.821z"/>
		<path style="clip-path:url(#SVGID_2_);fill:#535361;" d="M37.269,49.812c1.858,1.111,3.919,2.489,3.98,2.915
			s-4.105,2.584-4.091,2.152C37.174,54.447,37.269,49.812,37.269,49.812z"/>
		<path style="opacity:0.1;clip-path:url(#SVGID_2_);" d="M38.517,53.102c-0.027,1.996-1.68,4.386-3.387,5.387l-2.506-2.358
			l-1.909,2.374c0,0-2.678-1.678-3.456-4.645C26.482,50.893,38.536,51.666,38.517,53.102z"/>
		<path style="clip-path:url(#SVGID_2_);fill:#FBFBFB;" d="M32.64,55.847l2.377,1.962c0,0,4.879-3.053,3.15-7.146
			c-1.556-3.684-8.729-3.617-10.878-0.33c-2.133,3.266,3.257,7.391,3.257,7.391L32.64,55.847z"/>
		
			<linearGradient id="SVGID_3_" gradientUnits="userSpaceOnUse" x1="-1709.5034" y1="50.084" x2="-1709.5034" y2="55.0957" gradientTransform="matrix(-1 0 0 1 -1676.4531 0)">
			<stop  offset="0" style="stop-color:#EE996D"/>
			<stop  offset="0.0163" style="stop-color:#EE9A6E"/>
			<stop  offset="0.3731" style="stop-color:#F8B181"/>
			<stop  offset="0.7088" style="stop-color:#FDBF8D"/>
			<stop  offset="1" style="stop-color:#FFC491"/>
		</linearGradient>
		<path style="clip-path:url(#SVGID_2_);fill:url(#SVGID_3_);" d="M32.951,55.458c1.236,0.032,6.489-4.071,2.798-8.062
			c-1.06-1.147-3.13-1.332-4.397-0.957c-1.321,0.389-2.2,2.078-2.29,3.816C28.945,52.456,31.311,55.399,32.951,55.458z"/>
		<circle style="clip-path:url(#SVGID_2_);fill:#FBFBFB;" cx="32.614" cy="59.793" r="0.544"/>
		<circle style="clip-path:url(#SVGID_2_);fill:#FBFBFB;" cx="32.614" cy="62.873" r="0.544"/>
		<path style="clip-path:url(#SVGID_2_);fill:#261B18;" d="M27.365,11.977c2.758,3.5,1.835,8.826-2.065,11.898
			c-3.896,3.068-9.292,2.723-12.049-0.777c-2.757-3.5-2.631-8.95,1.267-12.021C18.414,8.006,24.607,8.478,27.365,11.977z"/>
		<path style="clip-path:url(#SVGID_2_);fill:#573D2F;" d="M23.545,11.214c-1.417,0.584-2.649,2.218-4.209,2.519
			c-0.133,0.748-1.413,2.248-2.172,1.456c-0.041,1.094-0.896,3.268-1.768,1.515c-0.305,1.176-1.071,3.069-2.074,1.334
			c-1.199-2.076,0.041-4.829,1.924-6.311C17.18,10.202,22.017,8.868,23.545,11.214z"/>
		<path style="clip-path:url(#SVGID_2_);fill:#261B18;" d="M48.894,32.117c2.062-8.277,0.875-15.402-4.784-19.603
			c-10.87-8.075-25.932-1.978-28.29,7.899c-1.635,6.84,0.368,12.839,4.124,17.286c1.885,2.233,3.203,4.873,5.03,7.1
			c1.768,2.153,3.966-1.393,5.523-2.227c2.065-1.103,4.556-1.66,6.88-1.245c2.059,0.366,3.455,2.571,5.555,2.679
			c2.763,0.14,3.667-4.455,4.36-6.396C47.933,35.815,48.434,33.965,48.894,32.117z"/>
		<path style="clip-path:url(#SVGID_2_);fill:#FFC38F;" d="M19.681,36.755c0.82,7.677,8.491,15.626,15.38,15.863
			c7.346,0.251,13.918-11.498,13.019-20.937C47.1,21.423,42.505,12.758,31.846,14.518C24.233,15.775,18.584,26.503,19.681,36.755z"
			/>
		<path style="opacity:0.3;clip-path:url(#SVGID_2_);fill:#BF3C1B;" d="M30.188,21.116c-3.297,0.454-6.069,1.913-7.151,6.124
			c-0.335,1.312-0.979,2.58-1.109,3.93c-1.106-1.938-1.571-4.183-1.861-6.374c-0.262-2.003-0.507-4.464,0.209-6.394
			c0.573-1.551,2.339-2.38,3.771-2.98c2.609-1.091,5.606-0.849,8.369-0.721c3.113,0.146,6.181,0.728,9.136,1.707
			c1.519,0.502,4.836,1.269,5.627,2.851c1.759,3.527-6.861,1.812-8.357,1.806C36.027,21.059,32.927,20.742,30.188,21.116z"/>
		<path style="clip-path:url(#SVGID_2_);fill:#FFC38F;" d="M17.963,40.396c0.961,0.376,1.888,0.497,2.786,0.006
			c0.02-0.03,0.039-0.06,0.061-0.091c0.465-0.691-0.041-4.666-0.248-5.416c-0.518-1.894-1.6-2.909-3.398-2.468
			C13.416,33.341,14.958,39.22,17.963,40.396z"/>
		<path style="opacity:0.3;clip-path:url(#SVGID_2_);fill:#B54D26;" d="M19.234,38.689c1.376-0.815,0.181-3.73-0.827-4.229
			c-0.822-0.409-2.926,0.224-1.994,1.887c0.559-1.498,1.454-0.479,1.281,0.591c-0.116,0.721-0.89,0.707-0.146,1.656
			C17.95,39.107,18.798,38.945,19.234,38.689z"/>
		<path style="clip-path:url(#SVGID_2_);fill:#261B18;" d="M45.798,22.217c0.544,1.095,5.363-1.94,1.236-6.803
			c-1.796-2.118-6.314-3.221-8.928-3.807c-2.512-0.559-5.225-0.686-7.778-0.457c-4.301,0.385-9.533,2.269-11.02,6.773
			c-0.914,2.765-0.572,6.013-0.441,8.868c0.082,1.73-0.711,5.044,0.727,6.392c1.672,1.565,2.42-0.698,2.631-2.333
			c0.235-1.839,0.151-3.858,0.733-5.635c1.423-4.325,3.765-5.097,10.055-5.397C36.277,19.663,44.336,19.275,45.798,22.217z"/>
		<path style="clip-path:url(#SVGID_2_);fill:#573D2F;" d="M21.563,13.561c1.604-1.371,3.54-2.406,5.517-2.878
			c5.754-1.375,12.922-1.097,17.193,3.374c1.253,1.31,3.51,4.59,1.398,5.177c-1.368,0.38-5.304-0.775-5.281-2.569
			c-0.011,0.743-0.387,1.264-1.016,1.612c-0.402-0.297-0.624-0.764-0.648-1.247c-0.735,1.569-1.054,1.348-2.802,1.379
			c-1.683,0.031-3.406,0.239-5.065,0.488c-1.294,0.196-2.525,0.777-3.651,0.197c-0.788-0.405-1.301-1.262-2.053-1.729
			c0.087,1.521-0.909,4.397-2.666,2.416c-0.082,0.434,0.167,1.87-0.31,2.128c-0.459,0.247-1.929-0.798-2.257-1.034
			c0.124,1.006,0.254,2.09,0.28,3.1c-1.604,0.547-2.428-1.676-2.493-2.717c-0.102-1.567,0.286-3.047,1.073-4.409
			C19.482,15.64,20.441,14.517,21.563,13.561z"/>
		<path style="clip-path:url(#SVGID_2_);fill:#FF7752;" d="M46.792,37.104c0.116,0.154,0.212,0.332,0.278,0.544
			c0.644,2.043-4.001,1.723-4.598,0.86c-1.117-1.617,0.399-2.164,1.559-2.236C44.919,36.21,46.168,36.289,46.792,37.104z"/>
		<path style="clip-path:url(#SVGID_2_);fill:#FF7752;" d="M28.771,36.906c0.129,0.144,0.237,0.311,0.319,0.512
			c0.798,1.938-3.533,2.077-4.698,1.198c-1.619-1.22,0.398-2.241,1.554-2.374C26.83,36.141,28.084,36.152,28.771,36.906z"/>
		<path style="clip-path:url(#SVGID_2_);fill:#1C5C57;" d="M28.23,31.483c-2.688-0.811-4.479,2.161-2.66,3.198
			c0.866-0.131,1.883-0.043,2.678,0.224C30.08,34.365,30.229,32.088,28.23,31.483z"/>
		<path style="opacity:0.3;clip-path:url(#SVGID_2_);fill:#B54D26;" d="M37.994,36.511c-0.41-0.413-1.185,0.089-1.938,0.128
			c-0.677,0.036-1.291-0.312-1.908,0.049c-0.621,0.359,0.167,1.41,1.963,1.291C37.901,37.863,38.348,36.863,37.994,36.511z"/>
		<path style="opacity:0.7;clip-path:url(#SVGID_2_);fill:#6CD9D2;" d="M27.976,33.069c-0.829,0.21-0.242,1.571,0.574,1.104
			C29.142,33.837,28.714,32.883,27.976,33.069z"/>
		<path style="clip-path:url(#SVGID_2_);fill:#1C5C57;" d="M45.491,31.327c-2.769-0.449-4.149,2.735-2.208,3.525
			c0.838-0.249,1.858-0.298,2.682-0.138C47.711,33.936,47.552,31.66,45.491,31.327z"/>
		<path style="opacity:0.7;clip-path:url(#SVGID_2_);fill:#6CD9D2;" d="M45.363,32.982c-0.78,0.317-0.027,1.59,0.705,1.022
			C46.597,33.592,46.055,32.701,45.363,32.982z"/>
		<path style="opacity:0.6;clip-path:url(#SVGID_2_);fill:#E64E4E;" d="M27.691,40.859c4.288,0.016,11.658-0.824,16.322,0.114
			c0.428,0.085,0.683,0.17,0.336,0.372c-1.055,0.623-2.424,1.652-2.574,2.536c-0.309,1.795-0.88,5.204-5.78,5.085
			c-5.858-0.141-8.179-6.035-8.788-7.639C27.064,40.951,27.346,40.859,27.691,40.859z"/>
		<path style="clip-path:url(#SVGID_2_);fill:#8F3935;" d="M27.865,41.445c0,0,6.604,1.699,15.535-0.139
			c0,0-1.439,0.586-1.853,2.126c-0.31,1.151-1.032,2.793-6.204,2.841C29.601,46.324,27.865,41.445,27.865,41.445z"/>
		<path style="clip-path:url(#SVGID_2_);fill:#FFF7EA;" d="M29.709,41.98c0,0-0.046,1.569,1.68,2.195
			c2.214,0.798,4.742,0.93,7.373,0.391c1.77-0.363,2.94-2.721,2.94-2.721S36.782,42.538,29.709,41.98z"/>
		<path style="clip-path:url(#SVGID_2_);fill:#FFF7EA;" d="M30.248,44.325c-0.152-0.397-0.112-0.845,0.821-0.509
			c1.12,0.404,3.213,0.713,5.665,0.727c2.454,0.014,3.08-0.789,3.487-0.361c0.405,0.428-1.437,2.446-5.327,2.129
			C30.444,45.947,30.248,44.325,30.248,44.325z"/>
		<path style="clip-path:url(#SVGID_2_);fill:#ECDCC4;" d="M29.845,42.648c0,0,9.324-0.595,11.342,0.064
			c0,0,0.391-0.494,0.516-0.867c0,0-6.608,0.664-12,0.112C29.702,41.958,29.723,42.435,29.845,42.648z"/>
		<path style="clip-path:url(#SVGID_2_);fill:#ECDCC4;" d="M31.579,43.836c0,0,3.282,0.992,8.109,0.253
			C39.688,44.089,35.326,45.453,31.579,43.836z"/>
		<path style="clip-path:url(#SVGID_2_);fill:#161110;" d="M21.185,30.612c0,0,0.732,2.832,5.518,1.254
			c1.946-0.64,2.957,1.432,2.957,1.432s0.092-3.249-2.779-2.688C25.412,30.901,23.518,32.381,21.185,30.612z"/>
		<path style="clip-path:url(#SVGID_2_);fill:#161110;" d="M50.733,31.242c0,0-1.021,2.609-5.25,0.889
			c-1.936-0.787-3.027,1.067-3.027,1.067s0.255-3.142,2.904-2.384C46.716,31.203,48.347,32.773,50.733,31.242z"/>
		<path style="clip-path:url(#SVGID_2_);fill:#261B18;" d="M48.273,27.947c-0.175-0.707-1.853-1.533-3.563-1.448
			c-1.873,0.089-3.73,1.156-3.541,2.082c0.208,1.039,1.768-0.092,3.606-0.475C47.079,27.63,48.332,28.186,48.273,27.947z"/>
		<path style="clip-path:url(#SVGID_2_);fill:#261B18;" d="M23.067,27.389c0.104-0.687,2.384-1.267,4.474-1.006
			c2.284,0.285,4.473,1.5,4.175,2.362c-0.334,0.973-1.969-0.213-4.19-0.773C24.742,27.272,23.002,27.836,23.067,27.389z"/>
		<path style="opacity:0.3;clip-path:url(#SVGID_2_);fill:#B54D26;" d="M40.419,37.631c-0.425-0.334-0.786-0.742-1.048-1.216
			c-0.543-0.986-0.529-2.17-0.113-3.203c0.572-1.421,2.155-1.479,3.471-1.547c1.591-0.08,3.196,0.006,4.779-0.083
			c0.959-0.055,1.302-0.277,1.539-1.284c0.34-1.445-0.95-1.495-2.072-1.476c-1.51,0.025-3.021,0.206-4.497,0.539
			c-1.259,0.284-2.729,0.382-3.898,0.937c-1.079,0.512-1.536,0.854-2.813,0.756c-2.285-0.175-4.161-1.668-6.437-1.987
			c-1.773-0.249-3.568-0.521-5.362-0.4c-1.055,0.071-3.13,0.568-1.579,1.88c0.786,0.666,1.894,0.433,2.865,0.505
			c0.613,0.046,1.229,0.083,1.841,0.162c2.167,0.276,5.524,0.096,5.254,2.805c-0.186,1.859-1.456,3.729-2.981,4.027
			c-1.465,0.285-3.025,0.358-4.495,0.3c-1.125-0.044-2.204-0.302-3.213-0.813c-0.287-0.145-1.138-0.73-1.434-0.348
			c-0.506,0.651,1.225,1.825,1.681,2.051c1.043,0.516,2.162,0.698,3.307,0.861c2.823,0.403,5.75,0.356,7.444-2.192
			c0.982-1.479,1.511-3.238,2.425-4.76c1.499-2.488,2.04,0.981,2.432,2.505c0.222,0.856,0.554,1.69,1.047,2.424
			c0.872,1.295,2.65,2.043,4.155,2.168c0.926,0.076,1.879,0.063,2.762-0.268c0.535-0.199,0.77-0.801,0.146-1.062
			c-0.375-0.157-0.988-0.074-1.388-0.105c-0.582-0.042-1.175-0.072-1.747-0.2C41.756,38.441,41.025,38.111,40.419,37.631z"/>
		<path style="clip-path:url(#SVGID_2_);fill:#F06799;" d="M16.039,27.633c0.452-0.361,2.032,0.214,3.905,0.218
			c2.645,0.005,16.09-0.403,14.811,5.215c-0.521,2.293-1.669,4.595-4.22,5.77c-2.061,0.949-8.549,0.217-10.481-1.62
			c-2.315-2.2-2.13-5.56-2.205-6.863c-0.875-0.103-1.455-0.543-1.455-0.543S15.446,28.103,16.039,27.633z M20.316,35.773
			c1.575,2.09,7.875,3.059,10.404,1.544c1.917-1.147,3.351-4.937,2.377-5.734c-2.006-1.643-10.898-2.494-13.317-1.147
			C18.989,30.877,19.102,34.162,20.316,35.773z"/>
		<path style="clip-path:url(#SVGID_2_);fill:#F06799;" d="M53.801,30.454c0,0-0.538,0.422-1.331,0.496
			c-0.113,1.3-0.059,4.662-2.223,6.787c-1.805,1.773-7.688,2.295-9.517,1.281c-2.262-1.258-3.22-3.596-3.615-5.903
			c-0.964-5.656,11.16-4.814,13.547-4.733c1.691,0.057,3.137-0.467,3.534-0.091C54.714,28.779,53.801,30.454,53.801,30.454z
			 M50.725,30.971c-2.14-1.426-10.196-0.863-12.063,0.714c-0.906,0.766,0.261,4.599,1.954,5.808c2.23,1.596,7.951,0.833,9.443-1.205
			C51.209,34.717,51.422,31.437,50.725,30.971z"/>
		<path style="opacity:0.3;clip-path:url(#SVGID_2_);fill:#FFFFFF;" d="M40.25,31.23c1.48-0.581,9.026-1,9.868-0.2
			c0.603,0.575-1.582,1.417-2.588,1.571c-1.918,0.291-3.948,0.35-5.732,0.026C41.287,32.534,38.909,31.757,40.25,31.23z"/>
		<path style="clip-path:url(#SVGID_2_);fill:#FFFFFF;" d="M46.16,31.092c1.535-0.193,4.179,0.089,3.882,0.558
			c-0.302,0.478-4.524,0.705-4.891,0.057C44.964,31.377,45.439,31.182,46.16,31.092z"/>
		<path style="opacity:0.7;clip-path:url(#SVGID_2_);fill:#FFFFFF;" d="M41.429,36.189c0.961,0.074,2.531,0.685,2.287,1.012
			c-0.248,0.332-2.853-0.111-2.986-0.678C40.66,36.238,40.976,36.154,41.429,36.189z"/>
		<path style="opacity:0.7;clip-path:url(#SVGID_2_);fill:#FFFFFF;" d="M21.786,35.354c0.996,0.195,2.563,0.998,2.268,1.292
			c-0.303,0.298-2.973-0.468-3.04-1.044C20.976,35.308,21.318,35.264,21.786,35.354z"/>
		<path style="opacity:0.3;clip-path:url(#SVGID_2_);fill:#FFFFFF;" d="M21.31,30.371c0.88-0.707,9.161,0.197,10.811,0.849
			c1.493,0.591-1.067,1.173-1.622,1.227c-1.937,0.19-4.162-0.003-6.273-0.409C23.11,31.824,20.68,30.876,21.31,30.371z"/>
		<path style="clip-path:url(#SVGID_2_);fill:#FFFFFF;" d="M28.527,30.616c1.632,0.002,4.363,0.615,3.992,1.043
			c-0.377,0.436-4.824,0.128-5.126-0.562C27.24,30.749,27.764,30.616,28.527,30.616z"/>
		<path style="clip-path:url(#SVGID_2_);fill:#F06799;" d="M32.962,29.644c2.386,0.939,4.08,0.872,5.843,0.135
			c1.761-0.737-0.023,0.641-0.366,1.015c-0.345,0.375-0.428,4.612-1.188,2.999c-0.762-1.611-2.039-1.544-2.73,0.159
			c-0.691,1.703-0.279-1.182-0.46-2.135C33.88,30.862,31.16,28.936,32.962,29.644z"/>
		<path style="clip-path:url(#SVGID_2_);fill:#FFD1E2;" d="M32.895,30.428c-1.935-1.705-5.351-2.183-12.089-1.991
			C25.851,28.863,29.883,29.145,32.895,30.428z"/>
		<path style="clip-path:url(#SVGID_2_);fill:#FFD1E2;" d="M39.452,30.281c1.711-1.513,4.591-1.459,10.767-1.473
			C45.614,29.308,42.166,29.101,39.452,30.281z"/>
	</g>
</g>
<g id="Layer_1">
</g>
</svg>
