<?xml version="1.0" encoding="iso-8859-1"?>
<!-- Generator: Adobe Illustrator 16.0.0, SVG Export Plug-In . SVG Version: 6.00 Build 0)  -->
<!DOCTYPE svg PUBLIC "-//W3C//DTD SVG 1.1//EN" "http://www.w3.org/Graphics/SVG/1.1/DTD/svg11.dtd">
<svg version="1.1" xmlns="http://www.w3.org/2000/svg" xmlns:xlink="http://www.w3.org/1999/xlink" x="0px" y="0px"
	 width="66.002px" height="66.001px" viewBox="0 0 66.002 66.001" style="enable-background:new 0 0 66.002 66.001;"
	 xml:space="preserve">
<g id="Layer_91">
	<g>
		<defs>
			<circle id="SVGID_1_" cx="33.002" cy="33" r="33"/>
		</defs>
		<clipPath id="SVGID_2_">
			<use xlink:href="#SVGID_1_"  style="overflow:visible;"/>
		</clipPath>
		<rect style="clip-path:url(#SVGID_2_);fill:#FFFFFF;" width="66" height="66"/>
		<path style="clip-path:url(#SVGID_2_);fill:#94ABD4;" d="M19.469,66c0-0.244,0.196-3.078,0.357-4.902
			c0.294-3.325,2.809-6.963,7.21-7.732l0.873,4.178C25.538,58.712,25.216,66,25.216,66H19.469z"/>
		<path style="clip-path:url(#SVGID_2_);fill:#94ABD4;" d="M45.283,66c0-0.244-0.196-3.078-0.357-4.902
			c-0.294-3.325-2.809-6.963-7.21-7.732l-0.873,4.178C39.214,58.712,39.536,66,39.536,66H45.283z"/>
		<path style="clip-path:url(#SVGID_2_);fill:#94ABD4;" d="M26.438,53.701c-3.21,2.166-2.792,6.512-2.522,12.3L41.909,66
			c0.114-5.755-0.086-10.867-3.241-12.625C34.751,51.193,29.041,51.945,26.438,53.701z"/>
		<path style="clip-path:url(#SVGID_2_);fill:#1E1E29;" d="M32.629,57.639c-1.859-0.121-2.347,1.338-2.347,1.338l1.474,1.643
			L30.167,66h4.751L33.2,60.644l1.461-1.568C34.661,59.075,34.29,57.746,32.629,57.639z"/>
		<path style="opacity:0.2;clip-path:url(#SVGID_2_);" d="M38.103,55.074c-0.026,1.945-1.636,4.273-3.3,5.25l-2.441-2.299
			l-1.859,2.313c0,0-2.61-1.635-3.368-4.525C26.377,52.922,38.121,53.676,38.103,55.074z"/>
		<path style="clip-path:url(#SVGID_2_);fill:#BACBE3;" d="M32.376,57.749l2.316,1.911c0,0,4.754-2.975,3.069-6.963
			c-1.517-3.588-8.505-3.523-10.599-0.32c-2.078,3.182,3.173,7.199,3.173,7.199L32.376,57.749z"/>
		
			<linearGradient id="SVGID_3_" gradientUnits="userSpaceOnUse" x1="-2772.7861" y1="52.1348" x2="-2772.7861" y2="57.0177" gradientTransform="matrix(-1 0 0 1 -2740.0098 0)">
			<stop  offset="0" style="stop-color:#EE996D"/>
			<stop  offset="0.0163" style="stop-color:#EE9A6E"/>
			<stop  offset="0.3731" style="stop-color:#F8B181"/>
			<stop  offset="0.7088" style="stop-color:#FDBF8D"/>
			<stop  offset="1" style="stop-color:#FFC491"/>
		</linearGradient>
		<path style="clip-path:url(#SVGID_2_);fill:url(#SVGID_3_);" d="M32.68,57.37c1.205,0.03,6.322-3.966,2.727-7.854
			c-1.033-1.118-3.05-1.298-4.285-0.932c-1.287,0.379-2.144,2.024-2.231,3.717C28.777,54.445,31.08,57.313,32.68,57.37z"/>
		<path style="clip-path:url(#SVGID_2_);fill:#D4BFA0;" d="M32.471,11.913c-31.588,2.653-29.681,39.93,2.344,34.25
			C66.581,40.529,59.829,9.615,32.471,11.913z"/>
		<path style="clip-path:url(#SVGID_2_);fill:#704432;" d="M47.133,17.679c-0.771-1.656-1.891-3.148-3.324-4.067
			c-3.374-2.164-7.227-2.584-11.117-2.601c-3.664-0.017-7.726,0.37-10.896,2.37c-2.062,1.301-3.73,2.73-4.655,5.03
			c-0.704,1.749-1.521,3.302-0.313,5.004c0.948,1.334,2.486,1.764,4.045,1.373c1.403-0.354,2.297-0.184,3.667,0.336
			c1.44,0.545,2.769,1.377,4.253,1.802c2.541,0.726,5.271,0.417,7.771,1.27c2.401,0.818,4.515,1.086,7.073,0.322
			c1.44-0.429,3.729-0.731,4.495-2.229c0.573-1.123,0.294-3.203,0.17-4.42C48.163,20.514,47.767,19.041,47.133,17.679z"/>
		<path style="clip-path:url(#SVGID_2_);fill:#FFCB9E;" d="M18.575,38.123c1.066,7.833,7.108,16.426,16.208,15.779
			c9.283-0.661,13.903-12.178,12.704-21.809c-1.304-10.472-6.264-19.203-17.12-17.086C22.615,16.52,17.152,27.667,18.575,38.123z"/>
		<path style="opacity:0.3;clip-path:url(#SVGID_2_);fill:#BF3C1B;" d="M19.269,19.454c0.532-1.531,2.28-2.387,3.703-3.013
			c2.589-1.138,5.607-0.986,8.386-0.94c3.131,0.054,6.23,0.538,9.229,1.409c1.979,0.575,5.701,1.087,6.387,3.322
			c0.87,2.83-0.697,3.641-4.052,2.878c-4.917-1.117-16.058-0.513-18.437,0.72c-1.055,0.546-1.863,0.808-2.567,1.835
			c-0.665,0.969-1.06,2.092-1.706,3.073c-0.163,0.247-0.621,1.162-1.008,1.095c-0.549-0.095-0.335-1.635-0.319-1.98
			c0.049-1.033,0.237-2.187,0.069-3.207C18.636,22.718,18.621,21.317,19.269,19.454z"/>
		<path style="clip-path:url(#SVGID_2_);fill:#FFCB9E;" d="M16.7,41.488c0.997,0.358,2.057,0.407,3.076,0.335
			c0.019-0.031,0.04-0.062,0.06-0.095c0.457-0.723-0.181-4.773-0.414-5.535c-0.586-1.922-1.725-2.929-3.552-2.426
			C12.063,34.816,13.592,40.373,16.7,41.488z"/>
		<path style="opacity:0.3;clip-path:url(#SVGID_2_);fill:#C94614;" d="M18.175,40.117c1.387-0.875,0.075-3.824-0.969-4.305
			c-0.855-0.394-2.99,0.316-1.985,1.988c0.528-1.55,1.473-0.533,1.328,0.568c-0.097,0.74-0.891,0.75-0.102,1.699
			C16.874,40.581,17.738,40.391,18.175,40.117z"/>
		<path style="clip-path:url(#SVGID_2_);fill:#704432;" d="M41.562,14.548c-1.754-0.67-3.664-1.015-5.403-1.086
			c-3.214-0.131-6.839-0.25-9.986,0.45c-1.924,0.428-4.551,0.977-6.096,2.26c-2.158,1.79-2.338,4.284-2.214,6.865
			c0.108,2.289,2.502,3.24,3.798,1.6c1.109-1.402,3.351-2.364,5.126-2.43c2.94-0.108,15.922-0.991,18.172,0.775
			c5.018,3.938,2.942-3.64,0.471-6.061C44.371,15.885,43.021,15.105,41.562,14.548z"/>
		<path style="clip-path:url(#SVGID_2_);fill:#704432;" d="M21.66,24.637c-1.905,3.024-2.352,6.843-0.933,11.666
			c0,0-2.238-2.449-4.057-2.663c-0.253-0.677-0.674-8.229,0.39-9.93C18.755,24.095,19.951,24.615,21.66,24.637z"/>
		<path style="clip-path:url(#SVGID_2_);fill:#EDDBC0;" d="M37.413,4.346c1.586,0.647,7.983,7.412,7.983,7.412l-28.699,4.91
			c0,0,2.078-8.1,4.126-9.708C24.085,4.399,34.113,2.998,37.413,4.346z"/>
		<path style="clip-path:url(#SVGID_2_);fill:#636F75;" d="M42.998,9.29c1.579,1.575,2.398,2.468,2.398,2.468l-28.699,4.91
			c0,0,0.127-0.732,0.782-2.698C19.238,8.696,39.254,5.555,42.998,9.29z"/>
		<path style="clip-path:url(#SVGID_2_);fill:#D4BFA0;" d="M31.642,11.053C12.034,13.732,8.381,25.427,9.992,33.889
			c0.642,3.364,3.719,1.033,4.471-2.992c2.66-14.24,30.307-20.494,36.505-4.596c2.323,5.959,4.906,6.099,4.966,1.143
			C56.037,19.062,50.081,8.533,31.642,11.053z"/>
		<path style="clip-path:url(#SVGID_2_);fill:#FFA073;" d="M46.939,36.766c0.114,0.166,0.202,0.357,0.259,0.578
			c0.548,2.135-4.288,1.404-4.859,0.475c-1.068-1.744,0.552-2.166,1.768-2.143C45.037,35.693,46.339,35.882,46.939,36.766z"/>
		<path style="clip-path:url(#SVGID_2_);fill:#FFA073;" d="M26.903,36.416c0.159,0.141,0.299,0.313,0.413,0.521
			c1.112,2.025-3.993,2.541-4.814,1.744c-1.542-1.495-0.004-2.344,1.236-2.637C24.69,35.822,26.063,35.674,26.903,36.416z"/>
		<path style="clip-path:url(#SVGID_2_);fill:#224245;" d="M26.136,35.154c-0.593-0.287-1.344-0.356-1.979-0.17
			c-1.362-1.158-0.105-4.702,1.893-3.842C27.536,31.784,27.477,34.459,26.136,35.154z"/>
		<path style="opacity:0.3;clip-path:url(#SVGID_2_);fill:#B54D26;" d="M38.039,37.582c-0.497-0.613-1.199,0.065-2.494,0.08
			c-1.168,0.014-1.63-0.519-2.447-0.033c-0.816,0.484,0.352,2.042,2.419,1.967C37.573,39.523,38.468,38.109,38.039,37.582z"/>
		<path style="clip-path:url(#SVGID_2_);fill:#FFDFC2;" d="M35.239,33.275c-2.194-0.19-2.359,4.446-1.857,4.842
			c1.229,0.971,3.799,0.285,4.548-0.496C38.225,37.313,37.333,33.457,35.239,33.275z"/>
		<path style="clip-path:url(#SVGID_2_);fill:#224245;" d="M45.287,31.293c1.089,0.654,1.079,2.903,0.265,3.807
			c-0.518-0.24-1.585-0.35-2.115,0.003C41.761,33.995,43.255,30.074,45.287,31.293z"/>
		<path style="opacity:0.7;clip-path:url(#SVGID_2_);fill:#D4E6DD;" d="M25.088,31.987c0.722-0.244,1.169,0.865,0.598,1.279
			C24.895,33.839,24.278,32.263,25.088,31.987z"/>
		<path style="opacity:0.7;clip-path:url(#SVGID_2_);fill:#D4E6DD;" d="M44.241,31.994c0.711-0.141,0.994,0.966,0.403,1.288
			C43.824,33.728,43.442,32.155,44.241,31.994z"/>
		<path style="clip-path:url(#SVGID_2_);fill:#2B221C;" d="M28.83,26.677c0.747,0.05,1.218,0.609,0.917,1.526
			c-0.238,0.726-1.891,0.429-4.055,0.558c-2.349,0.141-3.826,0.508-4.04,0.037c-0.215-0.472,1.092-1.394,3.137-1.852
			C26.148,26.642,27.443,26.583,28.83,26.677z"/>
		<path style="clip-path:url(#SVGID_2_);fill:#2B221C;" d="M41.269,26.677c-0.747,0.05-1.218,0.609-0.916,1.526
			c0.238,0.726,1.89,0.429,4.055,0.558c2.348,0.141,3.051,0.377,3.266-0.094c0.214-0.473-0.317-1.263-2.363-1.721
			C43.95,26.642,42.655,26.583,41.269,26.677z"/>
		<path style="opacity:0.8;clip-path:url(#SVGID_2_);fill:#AD4C3D;" d="M45.214,40.322c-0.798,0.513-2.118,0.197-2.81-0.791
			c-0.191,0.717-0.002,1.271,0.352,1.622c-1.107,2.781-4.137,4.604-7.671,4.579c-3.441-0.02-6.195-1.797-7.359-4.152
			c0.304-0.376,0.382-0.967-0.006-1.698c-0.439,1.038-1.664,1.466-2.584,1.028c0.38,0.719,0.952,1.054,1.484,1.104
			c1.346,2.676,4.404,4.685,8.205,4.807c0.109,0.003,0.218,0.006,0.327,0.006c4.067,0.027,7.507-2.051,8.78-5.264
			C44.479,41.498,45.006,41.109,45.214,40.322z"/>
	</g>
</g>
<g id="Layer_1">
</g>
</svg>
