<?xml version="1.0" encoding="iso-8859-1"?>
<!-- Generator: Adobe Illustrator 16.0.0, SVG Export Plug-In . SVG Version: 6.00 Build 0)  -->
<!DOCTYPE svg PUBLIC "-//W3C//DTD SVG 1.1//EN" "http://www.w3.org/Graphics/SVG/1.1/DTD/svg11.dtd">
<svg version="1.1" xmlns="http://www.w3.org/2000/svg" xmlns:xlink="http://www.w3.org/1999/xlink" x="0px" y="0px"
	 width="66.013px" height="66px" viewBox="0 0 66.013 66" style="enable-background:new 0 0 66.013 66;" xml:space="preserve">
<g id="Layer_4">
	<g>
		<defs>
			<circle id="SVGID_1_" cx="33.013" cy="33" r="33"/>
		</defs>
		<clipPath id="SVGID_2_">
			<use xlink:href="#SVGID_1_"  style="overflow:visible;"/>
		</clipPath>
		<rect style="clip-path:url(#SVGID_2_);fill:#A77E64;" width="66" height="65.998"/>
		<path style="clip-path:url(#SVGID_2_);fill:#1E1E29;" d="M17.738,65.998h7.472L21.886,55
			C19.025,56.795,17.533,57.886,17.738,65.998z"/>
		<path style="clip-path:url(#SVGID_2_);fill:#1E1E29;" d="M48.487,55l-3.324,10.998h7.472C52.84,57.886,51.348,56.795,48.487,55z"
			/>
		<path style="clip-path:url(#SVGID_2_);fill:#FFF7EB;" d="M44.013,53.506c-2.111-5.137-13.354-3.636-16.324-1.141
			c-2.969,2.494-3.791,5.486,0.667,9.857c1.925,1.887,3.603,3.055,4.891,3.775h3.831C39.591,63.386,45.389,56.854,44.013,53.506z"/>
		<path style="clip-path:url(#SVGID_2_);fill:#5E4684;" d="M37.071,59.394l0.973-2.045c0,0-0.751-1.721-2.938-1.31
			c-1.956,0.367-2.24,2.049-2.24,2.049l1.614,1.636l-1.747,5.896l0.249,0.379h6.007l0.3-0.655L37.071,59.394z"/>
		<path style="clip-path:url(#SVGID_2_);fill:#1E1E29;" d="M27.604,52.876c0.144-0.368,0.321-0.705,0.54-1.015
			c-2.361,1.007-6.707,3.086-7.09,3.852c-0.335,0.671,2.033,5.503,2.952,10.285h11.972C34.783,64.941,26.005,56.99,27.604,52.876z"
			/>
		<path style="clip-path:url(#SVGID_2_);fill:#1E1E29;" d="M48.638,55.081c-0.738-0.802-4.237-2.878-5.551-3.507
			c0.14,0.323,0.61,1.024,0.579,1.361c-0.559,6.035-6.536,12.176-7.429,13.063h10.52C47.416,62.22,49.115,55.601,48.638,55.081z"/>
		<path style="clip-path:url(#SVGID_2_);fill:#313142;" d="M45.962,61.216c-0.106-0.511-1.967-3.146-1.967-3.146l3.44-1.935
			c-1.641-3.092-4.812-5.009-4.812-5.009c0.855,7.851-5.696,13.992-6.338,14.872h1.397c0.758-0.608,1.773-1.362,2.887-2.013
			C43.09,62.518,46.019,61.482,45.962,61.216z"/>
		<path style="clip-path:url(#SVGID_2_);fill:#313142;" d="M28.317,51.74c0,0-3.481,1.636-4.817,5.02l4.109,1.538
			c0,0-1.768,3.384-1.826,3.929c-0.037,0.335,3.07,0.224,6.926,2.208c0.935,0.481,1.703,1.064,2.275,1.563h1.14
			c-0.005-0.009-0.007-0.019-0.012-0.027C35.791,65.405,28.317,60.486,28.317,51.74z"/>
		<path style="opacity:0.1;clip-path:url(#SVGID_2_);" d="M39.313,53.13c-2.31-1.213-11.693-1.515-10.636,1.838
			c1.058,3.352,3.807,5.021,3.807,5.021l3.133-2.984l3.335,2.824c3.188-2.82,4.076-5.601,4.076-5.601S41.624,54.341,39.313,53.13z"
			/>
		<path style="clip-path:url(#SVGID_2_);fill:#FFF7EB;" d="M28.152,51.906c-1.555,3.969,4.098,7.2,4.098,7.2l3.367-2.102
			l3.144,1.975c0,0,6.217-3.227,3.863-7.854C40.507,46.965,29.955,47.301,28.152,51.906z"/>
		<path style="clip-path:url(#SVGID_2_);fill:#ED9D6C;" d="M33.155,46.354c-2.006,0.44-3.34,2.349-3.479,4.313
			c-0.106,1.521,0.137,2.404,0.986,3.249c0.614,0.61,1.619,1.212,2.656,1.53c0.739,0.226,2.036,1.094,2.266,1.101
			c0.091,0.001,0.521-0.373,1.219-0.733c1.021-0.524,2.468-1.222,3.03-2.323c0.823-1.61,1.558-4.801,0-6.055
			C38.224,46.14,35.081,45.932,33.155,46.354z"/>
		<path style="clip-path:url(#SVGID_2_);fill:#4F2C1E;" d="M46.691,20.555c0.13-8.624-7.368-14.112-19.319-11.893
			c-20.876,3.88-14.277,32.728-8.409,30.83c4.338-1.4,8.566-3.119,12.846-4.679c3.988-1.449,8.609-1.145,12.829-1.304
			c3.303-0.122,3.104-1.506,2.985-4.182C47.403,24.341,46.662,22.581,46.691,20.555z"/>
		<path style="clip-path:url(#SVGID_2_);fill:#FFB97F;" d="M28.754,14.8c-7.577,2.323-11.854,14.019-9.335,24.301
			c1.888,7.703,8.818,15.642,17.83,14.038c9.192-1.635,12.591-13.609,10.381-23.093C45.229,19.734,39.363,11.545,28.754,14.8z"/>
		<path style="clip-path:url(#SVGID_2_);fill:#FFB97F;" d="M16.263,35.039c-3.688,1.447-1.579,6.831,1.641,7.617
			c1.031,0.251,2.093,0.188,3.103,0.01c0.018-0.033,0.033-0.065,0.05-0.101c0.381-0.769-0.821-4.373-1.135-5.109
			C19.135,35.601,18.033,34.346,16.263,35.039z"/>
		<path style="opacity:0.3;clip-path:url(#SVGID_2_);fill:#BF3C1B;" d="M42.588,16.266c-4.406-1.238-8.601-1.764-13.23-1.357
			c-3.094,0.271-7.726,0.576-9.956,3.101c-1.789,2.024-1.579,5.429-1.432,7.938c0.057,0.954,0.837,8.22,1.222,6.591
			c0.701-2.96,2.906-4.287,2.514-7.27c4.675,1.515,11.362,0.626,17.133-0.582c3.62-0.759,6.465-1.982,7.523,0.988
			C46.555,22.96,45.633,17.12,42.588,16.266z"/>
		<path style="opacity:0.35;clip-path:url(#SVGID_2_);fill:#B54319;" d="M17.813,36.939c-0.896-0.303-2.953,0.63-1.774,2.194
			c0.364-1.604,1.414-0.688,1.387,0.426c-0.02,0.748-0.812,0.841,0.077,1.705c0.479,0.467,1.321,0.188,1.728-0.134
			C20.521,40.114,18.903,37.31,17.813,36.939z"/>
		<path style="clip-path:url(#SVGID_2_);fill:#4F2C1E;" d="M49.18,8.362c-4.512,4.51-13.501-3.354-24.388,1.256
			c-14.886,6.304-7.353,21.948-7.063,23.905c0.246,1.683,1.45,3.654,2.063,4.3c0.44,0.163,1.359,0.066,2.077-0.206
			c-1.522-1.139-2.456-4.581-1.693-7.982c0.425-1.896,1.195-3.281,0.72-5.727c1.481,1.079,11.354,1.853,23.162-2.006
			c3.851-1.257,5.896-3.875,6.911-5.889c-1.005,0.145-1.722,0.373-2.918,0.665C49.612,14.643,49.439,11.013,49.18,8.362z"/>
		<path style="clip-path:url(#SVGID_2_);fill:#693A27;" d="M36.416,9.36c-5.685-0.943-14.131-0.17-17.957,4.816
			c-3.829,4.989,0.327,8.487,15.031,6.682C46.911,19.21,48.656,9.416,48.656,9.416C44.85,11.76,42.101,10.303,36.416,9.36z"/>
		<path style="clip-path:url(#SVGID_2_);fill:#9E8F88;" d="M17.101,34.853c1.341-0.058,1.805,2.516,2.835,3.071
			c0.422,0.128,1.278-0.013,1.934-0.307c-1.17-1.354-1.82-5.08-1.948-6.122C19.367,33.133,15.867,34.906,17.101,34.853z"/>
		<path style="opacity:0.5;clip-path:url(#SVGID_2_);fill:#B54319;" d="M24.527,34.527c0.114,0.62,1.504,0.162,1.941,0.216
			c-0.33,0.428-1.441,0.55-1.867,0.864c-0.455,0.333-0.381,0.517,0.193,0.439c0.344-0.048,2.226-0.713,2.451-0.95
			C28.197,34.093,25.002,34.342,24.527,34.527z"/>
		<path style="opacity:0.5;clip-path:url(#SVGID_2_);fill:#B54319;" d="M46.489,32.627c-0.384-0.229-1.316-0.146-1.631-0.505
			c0.357-0.133,1.553,0.063,1.588-0.565c-0.413-0.095-3.083,0.245-2.197,1.053c0.21,0.191,1.833,0.499,2.124,0.481
			C46.855,33.063,46.899,32.871,46.489,32.627z"/>
		<path style="clip-path:url(#SVGID_2_);fill:#121B21;" d="M28.051,31.42c-2.083-0.647-2.965,3.022-1.483,4.032
			c0.615-0.251,1.372-0.261,1.993-0.038C29.824,34.58,29.603,31.904,28.051,31.42z"/>
		<path style="opacity:0.35;clip-path:url(#SVGID_2_);fill:#B54319;" d="M36.79,36.365c-0.996,0.142-1.465-0.199-2.099,0.25
			c-0.632,0.45,0.508,1.799,2.265,1.512c1.749-0.286,2.396-1.762,1.956-2.103C38.402,35.629,37.896,36.207,36.79,36.365z"/>
		<path style="clip-path:url(#SVGID_2_);fill:#FFCB9E;" d="M35.541,30.787c-0.863,0.147-0.768,2.517-0.942,3.657
			c-0.178,1.159-0.265,2.22,0.235,2.496c1.229,0.678,3.506-0.088,4.108-0.777c0.238-0.271-0.527-1.345-1.16-2.431
			C37.221,32.768,36.517,30.62,35.541,30.787z"/>
		<path style="clip-path:url(#SVGID_2_);fill:#121B21;" d="M44.067,29.571c-2.159-0.867-3.281,3.633-0.966,3.929
			c0.46-0.42,1.093-0.688,1.679-0.688C45.434,31.817,45.225,30.038,44.067,29.571z"/>
		<path style="clip-path:url(#SVGID_2_);fill:#7D8BA8;" d="M27.529,31.984c-0.777,0.361,0.002,1.868,0.73,1.214
			C28.786,32.724,28.224,31.667,27.529,31.984z"/>
		<path style="clip-path:url(#SVGID_2_);fill:#7D8BA8;" d="M43.615,30.183c-0.753,0.277-0.139,1.737,0.586,1.183
			C44.729,30.966,44.284,29.938,43.615,30.183z"/>
		<path style="opacity:0.5;clip-path:url(#SVGID_2_);fill:#B54319;" d="M46.091,38.838c-0.429-0.683-2.453-0.089-2.453-0.089
			c-0.343,0.111,0.313,0.167,1.18,0.288c0.169,0.021,0.276,0.09,0.344,0.18c-3.904,1.658-12.674,3.127-18.238,1.868
			c0.044-0.045,0.09-0.088,0.144-0.126c0.761-0.547,1.908-0.673,1.574-0.809c0,0-1.935,0.094-2.661,0.628
			c-0.648,0.478-0.519,1.822,0.035,1.84c0.438,0.013,0.397-0.717,0.717-1.274c0.524,1.435,2.998,7.031,9.594,6.578
			c4.964-0.342,6.374-2.083,6.365-4.518c-0.004-1.355,1.556-3.149,2.548-4.032c0.123,0.402-0.128,1.016,0.263,1.031
			C46.054,40.429,46.52,39.521,46.091,38.838z"/>
		<path style="clip-path:url(#SVGID_2_);fill:#4F2C1E;" d="M42.4,26.139c-1.492-0.009-2.608-0.145-2.613-0.09
			c0.005,0.846,0.365,2.581,1.491,2.462c0.675-0.072,1.366-0.263,2.036-0.276c1.195-0.023,2.092,0.253,2.507,0.391
			c0.516,0.169,0.63-0.582,0.43-0.788C45.495,27.057,44.55,26.153,42.4,26.139z"/>
		<path style="clip-path:url(#SVGID_2_);fill:#4F2C1E;" d="M27.31,27.831c-2.217,0.727-2.86,1.894-3.353,2.88
			c-0.131,0.262,0.266,0.931,0.735,0.603c0.38-0.269,1.204-0.829,2.447-1.203c0.699-0.21,1.486-0.261,2.209-0.417
			c1.211-0.261,0.938-2.018,0.631-2.817C29.953,26.826,28.85,27.325,27.31,27.831z"/>
		<path style="clip-path:url(#SVGID_2_);fill:#8F2724;" d="M28.042,41.995c0,0,2.646,5.827,8.503,5.143
			c5.275-0.617,5.725-2.717,5.836-4.17c0.146-1.945,1.512-2.819,1.512-2.819C35.094,43.377,28.042,41.995,28.042,41.995z"/>
		<path style="clip-path:url(#SVGID_2_);fill:#FFF9F0;" d="M32.131,44.978c2.402,0.749,5.014,0.637,7.603-0.312
			c1.745-0.639,2.522-3.674,2.522-3.674s-4.906,1.389-12.232,1.463C30.023,42.455,30.256,44.395,32.131,44.978z"/>
		<path style="clip-path:url(#SVGID_2_);fill:#FFF9F0;" d="M37.659,44.857c-2.509,0.248-4.702,0.093-5.919-0.285
			c-1.014-0.314-0.977,0.241-0.75,0.716c0,0,0.493,1.979,5.103,1.944c4.032-0.026,5.556-2.715,5.064-3.199
			C40.664,43.55,40.169,44.607,37.659,44.857z"/>
		<path style="clip-path:url(#SVGID_2_);fill:#FFCB9E;" d="M46.883,34.727c-0.802-0.71-2.113-0.572-3.023-0.362
			c-1.188,0.276-2.66,1.086-1.19,2.519c0.783,0.765,5.666,0.285,4.608-1.657C47.168,35.025,47.035,34.86,46.883,34.727z"/>
		<path style="clip-path:url(#SVGID_2_);fill:#FFCB9E;" d="M28.988,36.745c-0.866-0.719-2.236-0.528-3.186-0.274
			c-1.236,0.33-2.75,1.229-1.159,2.68c0.848,0.772,5.952,0.102,4.775-1.896C29.298,37.048,29.151,36.88,28.988,36.745z"/>
		<path style="clip-path:url(#SVGID_2_);fill:#E8DAC5;" d="M30.281,43.264c0,0,9.422-1.738,11.6-1.146c0,0,0.312-0.65,0.375-1.125
			c0,0-6.638,1.532-12.244,1.437C30.012,42.429,30.117,43.014,30.281,43.264z"/>
		<path style="clip-path:url(#SVGID_2_);fill:#E8DAC5;" d="M32.265,44.542c4.118,1.589,8.332-0.564,8.332-0.564
			C35.796,45.41,32.265,44.542,32.265,44.542z"/>
	</g>
</g>
<g id="Layer_1">
</g>
</svg>
