<?xml version="1.0" encoding="iso-8859-1"?>
<!-- Generator: Adobe Illustrator 16.0.0, SVG Export Plug-In . SVG Version: 6.00 Build 0)  -->
<!DOCTYPE svg PUBLIC "-//W3C//DTD SVG 1.1//EN" "http://www.w3.org/Graphics/SVG/1.1/DTD/svg11.dtd">
<svg version="1.1" xmlns="http://www.w3.org/2000/svg" xmlns:xlink="http://www.w3.org/1999/xlink" x="0px" y="0px"
	 width="66.003px" height="66px" viewBox="0 0 66.003 66" style="enable-background:new 0 0 66.003 66;" xml:space="preserve">
<g id="Layer_71">
	<g>
		<defs>
			<circle id="SVGID_1_" cx="33.003" cy="33" r="33"/>
		</defs>
		<clipPath id="SVGID_2_">
			<use xlink:href="#SVGID_1_"  style="overflow:visible;"/>
		</clipPath>
		<rect style="clip-path:url(#SVGID_2_);fill:#FFFFFF;" width="65.999" height="66"/>
		<path style="clip-path:url(#SVGID_2_);fill:#ED904E;" d="M30.548,56.983l-1.426-2.645c-2.188,1.046-2.635,3.258-3.106,5.599
			c-0.399,1.977-0.85,4.179-2.394,6.063h3.715c1.032-1.894,1.436-3.833,1.773-5.508C29.5,58.557,29.778,57.352,30.548,56.983z"/>
		<path style="clip-path:url(#SVGID_2_);fill:#ED904E;" d="M38.675,56.983l1.426-2.645c2.188,1.046,2.635,3.258,3.106,5.599
			c0.399,1.977,0.85,4.179,2.395,6.063h-3.716c-1.032-1.894-1.436-3.833-1.773-5.508C39.723,58.557,39.444,57.352,38.675,56.983z"/>
		<linearGradient id="SVGID_3_" gradientUnits="userSpaceOnUse" x1="34.8945" y1="51.8701" x2="34.8049" y2="55.6039">
			<stop  offset="0" style="stop-color:#E37C32"/>
			<stop  offset="1" style="stop-color:#ED904E"/>
		</linearGradient>
		<path style="clip-path:url(#SVGID_2_);fill:url(#SVGID_3_);" d="M34.642,49.727c2.728,0,1.327,2.485,3.404,3.395
			c2.078,0.908,6.117,3.576,2.439,6.906c-3.68,3.332-8.396,2.945-11.08,0.26c-2.683-2.682-2.718-5.311,1.815-7.021
			C33.168,52.529,31.959,49.727,34.642,49.727z"/>
		<path style="clip-path:url(#SVGID_2_);fill:#3A3A4A;" d="M39.247,53.553c-0.182-0.15-1.037-0.535-1.229-0.561
			c0.379,1.68,0.951,5.762-3.25,5.762c-4.244,0-3.83-3.377-3.527-5.641c-0.267-0.012-0.668,0.175-0.92,0.419
			c-1.187,3.608-3.167,4.624-1.347,8.978c0.442,1.058,1.07,2.313,1.088,3.49h9.012c0.073-1.318,0.688-2.313,1.269-3.611
			C42.254,58.111,40.247,55.846,39.247,53.553z"/>
		<path style="opacity:0.1;clip-path:url(#SVGID_2_);" d="M33.016,64.115c0.183-0.029,0.356-0.098,0.532-0.123
			c-1.013-0.186-2.303-0.176-2.729-0.893c1.236,0.02,2.465,0.184,3.735,0.209c1.451,0.029,2.781-0.09,4.211-0.25
			c-0.205,0.021-1.243,0.67-1.628,0.781C35.929,64.191,34.232,64.449,33.016,64.115z"/>
		<path style="clip-path:url(#SVGID_2_);fill:#DE3E78;" d="M34.768,59.211c-1.451,0-2.521-0.381-3.177-1.135
			c-1.086-1.244-0.823-3.16-0.612-4.699l0.039-0.289c0.034-0.25,0.262-0.424,0.514-0.393c0.25,0.033,0.426,0.264,0.393,0.514
			l-0.04,0.291c-0.186,1.355-0.417,3.043,0.396,3.975c0.476,0.547,1.313,0.822,2.488,0.822c1.076,0,1.855-0.291,2.316-0.867
			c0.966-1.209,0.453-3.48,0.26-4.337c-0.056-0.246,0.099-0.49,0.345-0.546c0.247-0.059,0.491,0.098,0.547,0.345
			c0.22,0.974,0.803,3.558-0.438,5.108C37.155,58.805,36.136,59.211,34.768,59.211z"/>
		<path style="clip-path:url(#SVGID_2_);fill:#DE3E78;" d="M28.243,59.615c-0.008,0-0.016,0-0.023,0
			c-0.252-0.014-0.446-0.229-0.434-0.48c0.065-1.293,0.443-2.166,0.92-3.273c0.266-0.617,0.565-1.314,0.857-2.201
			c0.079-0.24,0.337-0.369,0.577-0.291c0.239,0.078,0.37,0.336,0.291,0.576c-0.304,0.926-0.613,1.645-0.887,2.277
			c-0.458,1.063-0.788,1.83-0.845,2.959C28.688,59.426,28.485,59.615,28.243,59.615z"/>
		<path style="clip-path:url(#SVGID_2_);fill:#DE3E78;" d="M41.139,59.615c-0.242,0-0.444-0.189-0.456-0.434
			c-0.058-1.129-0.388-1.896-0.846-2.959c-0.273-0.633-0.582-1.352-0.887-2.277c-0.078-0.24,0.052-0.498,0.292-0.576
			c0.239-0.08,0.497,0.051,0.576,0.291c0.292,0.887,0.593,1.584,0.857,2.201c0.478,1.107,0.854,1.98,0.92,3.273
			c0.013,0.252-0.182,0.467-0.434,0.48C41.154,59.615,41.146,59.615,41.139,59.615z"/>
		<path style="opacity:0.1;clip-path:url(#SVGID_2_);fill:#FFFFFF;" d="M29.296,60.85c0.49,1.494,3.015,1.877,5.213,1.838
			c4.339-0.08,5.97-1.631,5.242-3.471c-0.195-0.494-1.123-0.83-2.233-0.449c-2.063,0.705-4.573,0.42-6.687-0.082
			C29.614,58.4,28.927,59.723,29.296,60.85z"/>
		<polygon style="clip-path:url(#SVGID_2_);fill:#F06799;" points="47.171,39.969 45.218,44.173 49.126,44.173 		"/>
		<path style="clip-path:url(#SVGID_2_);fill:#331F1B;" d="M24.062,31.42c-7.012-2.761-12.022,1.863-11.108,10.925
			c0.521,5.166-0.996,7.525-3.67,6.616c0.644,2.993,9.901,7.521,17.565,0.423C37.076,39.912,27.42,32.744,24.062,31.42z"/>
		<path style="clip-path:url(#SVGID_2_);fill:#593C2D;" d="M22.672,32.289c-1.691-1.335-6.545-0.57-8.431,4.396
			c-1.618,4.26,1.099,8.721-0.329,11.813c4.264,0.053,3.092-7.045,6.2-9.163C24.55,36.311,22.672,32.289,22.672,32.289z"/>
		<path style="clip-path:url(#SVGID_2_);fill:#F06799;" d="M18.948,23.443c-8.833,2.235-7.172,19.701,4.314,18.533
			C31.896,41.098,25.108,21.885,18.948,23.443z"/>
		<path style="clip-path:url(#SVGID_2_);fill:#DE3E78;" d="M23.321,33.788c-0.891,0.28-1.772,0.562-2.896,0.398
			c-1.068-0.154-3.261-1.518-4.049-0.49c-0.274,0.36-0.088,1.232-0.356,1.679c-0.845,1.406-1.711,1.498-0.631,3.143
			c0.581,0.885,1.433,1.783,2.301,2.398c1.745,1.238,3.72,1.275,5.834,1.061c2.23-0.227,3.656-1.482,4.025-3.587
			c0.312-1.79,0.499-5.068-2.021-5.045C24.71,33.353,24.014,33.571,23.321,33.788z"/>
		<path style="clip-path:url(#SVGID_2_);fill:#331F1B;" d="M49.091,17.53c-0.064-0.165-0.137-0.325-0.218-0.478
			c1.302-0.396,2.836-1.551,3.939-2.339c-1.164-0.355-4.117-1.01-6.229-1.98c0.834-0.436,1.847-0.764,2.497-1.436
			c-4.165-0.206-10.209-2.419-13.542-2.659c-5.516-0.396-11.466,1.227-15.417,5.445c-7.134,7.618-6.063,21.785,2.587,29.122
			c3.063,2.6,6.67,3.414,10.517,4.193c4.779,0.967,8.77,0.154,11.848-3.92c4.294-5.682,6.089-14.592,4.443-21.426
			C49.169,20.611,49.637,18.943,49.091,17.53z"/>
		<path style="clip-path:url(#SVGID_2_);fill:#ED904E;" d="M21.601,37.932c0.821,7.218,6.831,14.824,14.571,14.824
			c7.532,0,13.021-10.906,12.114-19.781C47.3,23.328,42.92,15.207,32.902,16.933C25.748,18.164,20.505,28.295,21.601,37.932z"/>
		<path style="opacity:0.3;clip-path:url(#SVGID_2_);fill:#85260F;" d="M48.098,21.422c-2.413-0.91-4.199-1.928-6.621-2.774
			c-2.591-0.906-5.293-1.438-8.038-1.546c-2.6-0.104-5.421-0.312-7.868,0.731c-1.927,0.822-3.216,1.645-3.674,3.644
			c-0.75,3.266-0.521,8.402,1.218,11.297c0.149-3.203,1.203-5.655,1.7-6.969c2.837,1.054,9.021,1.237,13.053,0.347
			c-0.658-0.331-1.22-0.82-1.5-1.08c3.172,0.135,6.477-0.44,9.622-1.046C47.931,23.652,50.743,22.419,48.098,21.422z"/>
		<path style="clip-path:url(#SVGID_2_);fill:#ED904E;" d="M19.81,40.984c0.909,0.35,1.881,0.416,2.819,0.371
			c0.02-0.029,0.037-0.057,0.059-0.086c0.433-0.655-0.072-4.39-0.271-5.094c-0.498-1.779-1.523-2.727-3.213-2.302
			C15.686,34.76,16.976,39.898,19.81,40.984z"/>
		<path style="opacity:0.3;clip-path:url(#SVGID_2_);fill:#85260F;" d="M21.192,39.754c1.291-0.774,0.147-3.512-0.803-3.973
			c-0.778-0.38-2.754,0.229-1.865,1.786c0.518-1.413,1.364-0.46,1.21,0.549c-0.104,0.677-0.833,0.671-0.129,1.559
			C19.988,40.154,20.786,39.998,21.192,39.754z"/>
		<path style="clip-path:url(#SVGID_2_);fill:#331F1B;" d="M55.449,19.444c-1.104,0.258-3.771-0.034-3.719-0.03
			c1.05-0.351,2.596-1.179,3.086-2.125c-2.413,0.289-5.93-0.397-6.618-0.514c-2.211-0.375-4.021-1.16-5.882-2.357
			c-3.927-2.53-8.363-2.691-12.882-2.012c-1.863,0.28-3.846,0.706-5.525,1.596c-1.464,0.776-2.08,2.665-2.778,4.092
			c-1.639,3.341-0.329,15.679,0.217,16.21c0.726,0.708,0.704,1.483,0.903,1.875c0.093,0.198,0.889,0.491,1.576,0.454
			c-0.563-1.928-0.862-4.185-0.765-6.226c0.105-2.214,0.663-4.647,1.346-6.775c2.521,2.389,8.361,2.199,11.212,1.813
			c-0.405-0.356-1.079-0.93-1.436-1.312C38.903,24.246,51.914,23.347,55.449,19.444z"/>
		<path style="clip-path:url(#SVGID_2_);fill:#593C2D;" d="M30.987,10.246c9.459-0.708,16.868,4.795,17.82,5.044
			c-0.653,1.274-2.344,1.607-3.329,2.576c1.671,0.477,3.404,0.619,5.133,0.326c-0.343,0.754-1.73,1.271-2.469,1.602
			c-4.563,2.044-8.834,1.914-13.547,0.903c0.59,0.553,1.451,0.86,2.124,1.329c-3.079,0.503-7.079,0.154-9.609-1.924
			c0.63,1.556,2.063,2.407,2.806,3.87c-2.455,0.137-5.312-1.076-7.251-2.474c-0.758,3.036-1.623,6.065-1.407,10.032
			c-2.524,0-4.104-2.866-4.108-2.885c-1.295-5.676,0.938-11.342,4.045-14.259C23.674,12.057,27.613,10.5,30.987,10.246z"/>
		<polygon style="clip-path:url(#SVGID_2_);fill:#F06799;" points="20.831,40.695 18.729,44.898 22.934,44.898 		"/>
		<path style="clip-path:url(#SVGID_2_);fill:#FCA760;" d="M47.934,37.369c-0.293-0.902-1.468-1.227-2.347-1.348
			c-1.146-0.16-2.817,0.055-2.353,1.822c0.25,0.939,4.609,2.175,4.762,0.1C48.012,37.729,47.988,37.539,47.934,37.369z"/>
		<path style="clip-path:url(#SVGID_2_);fill:#FCA760;" d="M30.45,37.465c-0.078-0.211-0.186-0.385-0.317-0.531
			c-0.691-0.769-2.026-0.696-2.97-0.527c-1.229,0.219-2.827,0.967-1.578,2.508C26.251,39.735,31.209,39.501,30.45,37.465z"/>
		<path style="clip-path:url(#SVGID_2_);fill:#331F1B;" d="M29.091,35.206c-0.599-0.28-1.361-0.364-2.009-0.216
			c-1.373-1.099-0.056-4.293,1.965-3.445C30.55,32.177,30.461,34.615,29.091,35.206z"/>
		<path style="opacity:0.7;clip-path:url(#SVGID_2_);fill:#E6D2C3;" d="M28.261,32.151c0.737-0.199,1.179,0.826,0.593,1.186
			C28.044,33.835,27.435,32.377,28.261,32.151z"/>
		<path style="clip-path:url(#SVGID_2_);fill:#331F1B;" d="M46.372,35.211c-0.599-0.279-1.361-0.365-2.009-0.215
			c-1.373-1.1-0.056-4.293,1.965-3.447C47.832,32.181,47.741,34.621,46.372,35.211z"/>
		<path style="opacity:0.7;clip-path:url(#SVGID_2_);fill:#E6D2C3;" d="M45.504,32.189c0.736-0.201,1.177,0.824,0.592,1.184
			C45.286,33.873,44.677,32.415,45.504,32.189z"/>
		<path style="clip-path:url(#SVGID_2_);fill:#2B221C;" d="M29.614,30.158c0.705-0.025,1.51-0.079,1.596-0.59
			c0.116-0.684-0.377-0.938-1.158-0.947c-1.083-0.011-5.632,0.455-5.759,0.905C24.112,30.17,26.103,30.285,29.614,30.158z"/>
		<path style="clip-path:url(#SVGID_2_);fill:#2B221C;" d="M48.47,29.717c-0.109-0.451-3.768-0.886-4.635-0.869
			c-0.626,0.013-1.018,0.271-0.912,0.954c0.079,0.511,0.725,0.56,1.291,0.58C47.032,30.486,48.626,30.358,48.47,29.717z"/>
		<path style="opacity:0.4;clip-path:url(#SVGID_2_);fill:#960800;" d="M37.352,40.658c-3.168,0.146-7.27,0.788-9.79-0.499
			c3.198,5.081,5.699,7.931,9.43,7.895c4.083-0.039,5.519-2.804,6.106-4.788c0.23-0.776,1.713-2.787,2.548-3.182
			C43.252,40.92,41.084,40.487,37.352,40.658z"/>
		<path style="clip-path:url(#SVGID_2_);fill:#8F2621;" d="M28.912,41.184c0,0,6.793,1.786,15.607-0.424
			c0,0-1.375,0.602-2.012,2.213c-0.583,1.476-2.706,2.525-5.955,2.514C31.481,45.467,28.912,41.184,28.912,41.184z"/>
		<path style="clip-path:url(#SVGID_2_);fill:#FFF9F0;" d="M30.802,41.539c0,0,0.161,0.973,1.974,1.449
			c2.321,0.612,4.815,0.614,7.381,0.191c1.731-0.282,2.564-2.016,2.564-2.016S37.783,42.369,30.802,41.539z"/>
		<path style="clip-path:url(#SVGID_2_);fill:#FFF9F0;" d="M31.68,43.414c-0.185-0.34-0.116-0.889,0.719-0.392
			c1.172,0.696,3.124,1.038,5.444,0.919c2.147-0.107,3.201-0.951,3.629-0.588c0.428,0.364-1.458,2.534-5.163,2.193
			C32.453,45.193,31.68,43.414,31.68,43.414z"/>
		<path style="clip-path:url(#SVGID_2_);fill:#E8DAC5;" d="M31.449,42.398c0,0,8.405-0.875,10.49-0.174c0,0,0.687-0.641,0.781-1.061
			c0,0-6.048,1.162-11.919,0.375C30.802,41.539,30.933,42.162,31.449,42.398z"/>
		<path style="clip-path:url(#SVGID_2_);fill:#E8DAC5;" d="M33.19,43.4c0,0,2.935,1.09,6.839,0.175
			C40.029,43.575,36.325,45.141,33.19,43.4z"/>
		<path style="opacity:0.3;clip-path:url(#SVGID_2_);fill:#85260F;" d="M39.585,37.482c-0.372-0.65-1.039-0.066-2.154-0.195
			c-1.006-0.114-0.959-0.656-1.706-0.273c-0.747,0.381-0.28,1.998,1.505,2.151C39.008,39.319,39.905,38.041,39.585,37.482z"/>
		<path style="clip-path:url(#SVGID_2_);fill:#F7A25B;" d="M37.309,34.343c-0.828-0.021-2.175,2.71-1.78,3.149
			c0.97,1.08,3.244,0.693,3.958,0.017C39.769,37.24,38.246,34.367,37.309,34.343z"/>
		<path style="clip-path:url(#SVGID_2_);fill:#121B21;" d="M50.229,29.565c0,0-0.55,2.916-4.289,2.679
			c-1.647-0.104-2.137,1.568-2.137,1.568s-0.308-2.312,1.977-2.691C46.947,30.925,48.535,31.473,50.229,29.565z"/>
		<path style="clip-path:url(#SVGID_2_);fill:#121B21;" d="M23.457,29.717c0,0,0.724,2.878,4.441,2.418
			c1.639-0.204,2.227,1.438,2.227,1.438s0.169-2.327-2.134-2.569C26.814,30.879,25.262,31.521,23.457,29.717z"/>
	</g>
</g>
<g id="Layer_1">
</g>
</svg>
