<?xml version="1.0" encoding="iso-8859-1"?>
<!-- Generator: Adobe Illustrator 16.0.0, SVG Export Plug-In . SVG Version: 6.00 Build 0)  -->
<!DOCTYPE svg PUBLIC "-//W3C//DTD SVG 1.1//EN" "http://www.w3.org/Graphics/SVG/1.1/DTD/svg11.dtd">
<svg version="1.1" xmlns="http://www.w3.org/2000/svg" xmlns:xlink="http://www.w3.org/1999/xlink" x="0px" y="0px"
	 width="66.006px" height="66px" viewBox="0 0 66.006 66" style="enable-background:new 0 0 66.006 66;" xml:space="preserve">
<g id="Layer_49">
	<g>
		<defs>
			<circle id="SVGID_1_" cx="33.006" cy="33" r="33"/>
		</defs>
		<clipPath id="SVGID_2_">
			<use xlink:href="#SVGID_1_"  style="overflow:visible;"/>
		</clipPath>
		<rect style="clip-path:url(#SVGID_2_);fill:#A44F49;" width="66" height="65.998"/>
		<path style="clip-path:url(#SVGID_2_);fill:#C4BAB1;" d="M27.937,59.307c0.693-0.918-0.008-6.631-0.947-6.291
			c-2.911,1.056-5.945,8.106-5.753,12.982h5.383C26.41,63.938,26.89,60.691,27.937,59.307z"/>
		<path style="clip-path:url(#SVGID_2_);fill:#765AA3;" d="M27.095,52.791c-3.473,1.812-6.299,5.918-6.334,11.17
			c1.76,0.583,4.403,0.85,6.17,0.615c-0.141-1.872,0.123-3.775,1.243-5.196C28.916,58.438,28.02,52.309,27.095,52.791z"/>
		<path style="clip-path:url(#SVGID_2_);fill:#C4BAB1;" d="M41.459,53.016c-0.939-0.34-1.641,5.373-0.947,6.291
			c1.047,1.385,1.526,4.632,1.317,6.691h5.383C47.404,61.122,44.37,54.071,41.459,53.016z"/>
		<path style="clip-path:url(#SVGID_2_);fill:#765AA3;" d="M41.354,52.791c-0.925-0.482-1.821,5.646-1.079,6.589
			c1.12,1.421,1.384,3.324,1.243,5.196c1.767,0.234,4.41-0.032,6.17-0.615C47.652,58.709,44.826,54.603,41.354,52.791z"/>
		<path style="clip-path:url(#SVGID_2_);fill:#3A3A4A;" d="M42.344,59.626c0.01-1.725,0.677-4.058,1.08-5.225
			c0.106-0.308-1.116-2.67-9.114-2.713c-8.241-0.044-9.314,2.275-9.161,2.586c0.593,1.205,1.028,3.18,1.031,5.311
			c0.003,2.542,0.194,4.627,0.313,6.413h15.552C42.144,64.224,42.329,62.146,42.344,59.626z"/>
		<path style="clip-path:url(#SVGID_2_);fill:#C4BAB1;" d="M28.533,52.983c-0.689,2.534,5.741,5.463,5.741,5.463
			s7.273-3.133,5.452-5.935C38.09,49.991,29.35,49.981,28.533,52.983z"/>
		<path style="clip-path:url(#SVGID_2_);fill:#B86037;" d="M34.25,46.821c-1.854-0.004-4.466,1.163-4.651,4.228
			c-0.087,1.426,0.11,2.252,0.795,3.044c1.096,1.265,2.453,2.291,3.856,2.321c1.405-0.03,2.762-1.057,3.857-2.321
			c0.685-0.792,0.882-1.618,0.795-3.044C38.717,47.984,36.104,46.817,34.25,46.821z"/>
		<path style="clip-path:url(#SVGID_2_);fill:#261B18;" d="M49.485,18.775c0.477-0.536,0.647-1.204,0.544-1.786
			c-0.145-0.816-0.832-1.463-1.978-1.335c1.527-2.268-1.533-5.444-3.414-3.33c0.321-0.362-1.167-2.072-1.49-2.224
			c-0.907-0.427-2.103,0.056-2.962,0.499c-1.197-1.54-3.955-2.04-5.44-0.598c-0.673-1.951-4.567-1.345-5.52,0.113
			c-0.577-1.579-4.034-0.55-3.959,1.063c-1.926-0.975-4.29,0.607-3.802,2.831c-2.131-0.548-4.017,1.237-2.478,3.291
			c-1.75,0.125-1.457,2.167-0.745,3.21c-1.546,0.185-2.288,3.538-0.332,3.668c-1.226,0.887-2.457,3.654-0.198,4.069
			c-1.511,1.528-0.435,1.929-0.263,3.243c0.069,0.522-0.378,1.264-0.205,1.814c0.176,0.558,0.89,0.854,0.995,1.195
			c0.407,1.325,0.149,2.308,1.038,3.672c0.679,1.042,1.479,1.915,2.417,2.718c3.327,2.843,6.934,0.573,10.845,0.389
			c4.535-0.215,8.196,0.995,12.492-1.197c1.035-0.529,2.197-1.219,2.992-2.089c1.057-1.154,0.457-1.225,0.504-2.51
			c0.046-1.156,1.357-1.512,0.081-2.744c1.303,0.209,1.211-1.942,0.587-2.576c0.694,0.093,0.918-0.749,0.918-1.329
			c-0.002-0.845-0.448-1.021-0.93-1.595c0.873-0.277,0.664-1.725,0.422-2.353c1.503-0.434,1.726-2.375,0.418-3.233
			C51.594,20.809,51.226,18.851,49.485,18.775z"/>
		<path style="clip-path:url(#SVGID_2_);fill:#ED904E;" d="M31.447,17.181c-7.381,1.438-12.581,12.051-11.226,22.005
			c1.015,7.456,6.766,15.638,15.429,15.021c8.838-0.629,13.236-11.591,12.094-20.761C46.503,23.476,41.781,15.165,31.447,17.181z"/>
		<path style="opacity:0.5;clip-path:url(#SVGID_2_);fill:#B54319;" d="M44.356,19.939c-4.035-1.606-7.943-2.519-12.35-2.597
			c-2.695-0.047-5.622-0.198-8.133,0.938c-1.976,0.896-3.293,1.777-3.723,3.856c-0.302,1.464-0.941,3.878,0.146,5.16
			c1.291,1.523,2.496-0.695,3.035-1.964c0.822,1.435,2.766,0.387,3.55-0.596c1.649,1.16,3.797,1.146,5.348-0.052
			c0.165-0.128,0.323-0.269,0.475-0.423c0.815,1.386,3.074,1.143,4.106,0.226c1.032,1.191,2.727,1.406,4.036,0.516
			c0.754,1.28,2.978,1.79,3.965,0.476C46.605,23.982,45.488,20.39,44.356,19.939z"/>
		<path style="clip-path:url(#SVGID_2_);fill:#ED904E;" d="M17.646,35.039c-3.625,0.998-2.17,6.289,0.789,7.351
			c0.949,0.341,1.957,0.387,2.929,0.318c0.018-0.029,0.038-0.059,0.058-0.09c0.435-0.688-0.174-4.544-0.396-5.27
			C20.47,35.519,19.386,34.561,17.646,35.039z"/>
		<path style="opacity:0.5;clip-path:url(#SVGID_2_);fill:#B54319;" d="M18.917,36.986c-0.813-0.375-2.846,0.301-1.891,1.894
			c0.504-1.476,1.404-0.508,1.266,0.54c-0.092,0.704-0.848,0.713-0.097,1.617c0.405,0.489,1.229,0.307,1.645,0.047
			C21.158,40.251,19.912,37.443,18.917,36.986z"/>
		<path style="clip-path:url(#SVGID_2_);fill:#261B18;" d="M42.17,15.135c-4.081-3.459-9.397-3.431-14.418-2.564
			c-1.923,0.332-3.966,0.819-5.687,1.78c-1.497,0.837-2.093,2.807-2.784,4.3c-1.621,3.498,0.018,16.246,0.594,16.784
			c0.769,0.717,0.764,1.521,0.979,1.921c0.101,0.204,0.931,0.489,1.643,0.437c-0.309-2.099-0.349-4.286-0.294-6.399
			c0.043-1.699-0.114-6.197,1.451-7.216c0.949,1.248,2.537,0.359,3.305-0.633c1.772,1.312,4.624,1.085,6.244-0.183
			c0.696,0.978,2.507,1.477,3.21,0.243c1.615,1.328,3.434,1.114,5.096,0.086c-0.2,0.123,1.025,1.223,1.175,1.292
			c0.726,0.336,2.119,0.122,1.958-0.968c0.211,1.422,2.406-0.09,2.61-0.832c0.053-0.193,0.073-0.384,0.068-0.571
			c-0.032-1.127-1.006-2.135-1.507-3.072C44.897,17.83,43.646,16.389,42.17,15.135z"/>
		<path style="clip-path:url(#SVGID_2_);fill:#45362E;" d="M46.534,16.39c0.973-0.528,0.464-1.935-0.257-2.431
			c-0.833-0.574-2.058-0.17-2.854,0.32c0.444-2.526-2.416-2.79-4.096-1.672c0.089-0.863-0.175-1.83-1.101-2.149
			c-1.322-0.454-2.396,0.771-3.206,1.583c-0.524-1.195-2.092-1.775-3.309-1.784c-0.623-0.005-0.984,0.116-1.363,0.623
			c-0.251,0.336-0.711,1.422-0.418,1.817c-1.282-1.733-3.532-0.76-3.41,0.601c-0.128-1.423-2.779,0.11-2.125,1.614
			c-0.668-0.223-1.033-0.747-1.795-0.405c-0.644,0.288-0.923,0.929-0.872,1.599c-0.783-0.021-1.818,0.527-1.57,1.485
			c0.27,1.041,1.847,0.938,2.609,0.714c-0.214,0.49,0.107,0.999,0.564,1.205c0.874,0.394,1.857-0.348,2.544-0.792
			c0.003,0.713,0.791,1.223,1.41,1.392c1.096,0.302,1.842-0.285,2.685-0.773c0.533,1.74,2.778,1.124,3.62,0.094
			c0.355,0.875,1.343,1.503,2.28,1.46c1.107-0.053,1.367-0.95,1.969-1.673c0.189,0.827,0.847,1.418,1.703,1.577
			c1.016,0.187,1.6-0.591,2.004-1.426c0.622,0.569,1.208,1.275,2.188,0.969c0.853-0.267,0.464-1.263,1.161-1.21
			c0.777,0.058,1.395,0.837,2.346,0.462c0.686-0.271,1.367-1.163,1.205-1.935C48.266,16.782,47.279,16.571,46.534,16.39z"/>
		<path style="clip-path:url(#SVGID_2_);fill:#F7AD6F;" d="M44.525,35.796c-1.191-0.159-2.916,0.128-2.389,2.17
			c0.281,1.088,4.828,2.424,4.934,0.009c0.011-0.25-0.02-0.471-0.081-0.667C46.664,36.268,45.438,35.917,44.525,35.796z"/>
		<path style="clip-path:url(#SVGID_2_);fill:#F7AD6F;" d="M29.165,36.632c-0.773-0.898-2.162-0.748-3.137-0.496
			c-1.271,0.325-2.89,1.312-1.482,3.118c0.749,0.963,5.913,0.438,4.987-1.995C29.437,37.008,29.313,36.8,29.165,36.632z"/>
		<path style="opacity:0.12;clip-path:url(#SVGID_2_);" d="M47.141,37.225c-0.864,6.632,0.094,3.093-2.938,2.341
			c-2.299-0.57-4.258,0.416-7.55,0.691c-3.278,0.273-5.729-1.963-9.328-0.461c-2.483,1.035-4.717,3.833-4.822-2.025
			c-0.049-2.675-2.162-3.645-1.584,0.602c0.169,1.245-0.028,2.705,0.181,3.435c1.892,6.565,6.958,12.94,14.552,12.399
			c7.561-0.538,11.6-8.638,11.972-16.71C47.686,36.132,47.367,35.481,47.141,37.225z"/>
		<path style="clip-path:url(#SVGID_2_);fill:#261B18;" d="M27.735,31.658c-2.112-0.831-3.403,2.507-1.957,3.614
			c0.668-0.17,1.459-0.099,2.085,0.178C29.27,34.807,29.307,32.278,27.735,31.658z"/>
		<path style="opacity:0.6;clip-path:url(#SVGID_2_);fill:#B54D26;" d="M36.496,38.248c-1.551,0.041-2.155-0.66-3.247,0.001
			c-1.09,0.658,0.439,2.71,3.182,2.573c2.73-0.134,3.936-2.03,3.375-2.725C39.153,37.292,38.213,38.206,36.496,38.248z"/>
		<path style="clip-path:url(#SVGID_2_);fill:#F7AD6F;" d="M35.791,33c-1.393,0.091-3.08,4.862-2.593,5.553
			c1.296,1.839,6.086,1.03,6.638-0.527C40.017,37.516,37.366,32.897,35.791,33z"/>
		<path style="opacity:0.7;clip-path:url(#SVGID_2_);fill:#E6D2C3;" d="M26.993,32.237c-0.852,0.253-0.188,1.748,0.64,1.213
			C28.23,33.063,27.749,32.013,26.993,32.237z"/>
		<path style="clip-path:url(#SVGID_2_);fill:#2B221C;" d="M30.974,28.625c-0.999,0.606-2.891-0.074-4.858,0.367
			c-1.447,0.321-3.974,2.437-2.938,2.615c0.438,0.075,2.021-0.934,2.824-1.096c2.284-0.461,3.963,0.711,4.488,0.662
			C32.113,31.027,32.28,27.831,30.974,28.625z"/>
		<path style="clip-path:url(#SVGID_2_);fill:#261B18;" d="M45.446,31.271c-2.11-0.832-3.402,2.505-1.956,3.612
			c0.666-0.17,1.459-0.099,2.084,0.179C46.979,34.417,47.018,31.889,45.446,31.271z"/>
		<path style="opacity:0.7;clip-path:url(#SVGID_2_);fill:#E6D2C3;" d="M44.703,31.847c-0.851,0.253-0.187,1.749,0.642,1.215
			C45.942,32.675,45.46,31.623,44.703,31.847z"/>
		<path style="clip-path:url(#SVGID_2_);fill:#2B221C;" d="M45.638,28.595c-1.669-0.439-3.306,0.24-4.143-0.365
			c-1.095-0.793-1.041,2.397,0.343,2.545c0.448,0.047,1.916-1.121,3.856-0.661c0.684,0.163,2.007,1.171,2.385,1.095
			C48.969,31.03,46.866,28.918,45.638,28.595z"/>
		<path style="opacity:0.4;clip-path:url(#SVGID_2_);fill:#B54D26;" d="M28.473,43.937c-0.55,0.423,1.674,6.754,7.841,6.701
			c6.28-0.055,6.946-5.445,6.386-6.555C42.112,42.922,28.804,43.682,28.473,43.937z"/>
		<path style="clip-path:url(#SVGID_2_);fill:#FFB373;" d="M44.218,40.446c-0.617-0.169-6.465,0.286-7.787,0.376
			c-1.751,0.119-9.002,0.011-9.241,0.653c-0.275,0.742,2.56,8.224,9.597,7.798c5.267-0.319,5.474-3.616,6.058-5.759
			c0.163-0.602,0.604-1.253,1.116-1.622c0.192-0.139,0.434-0.195,0.604-0.376C44.977,41.077,44.77,40.599,44.218,40.446z"/>
		<path style="clip-path:url(#SVGID_2_);fill:#8F2621;" d="M27.582,41.618c0,0,2.856,4.531,8.295,4.432
			c3.484-0.063,5.736-1.238,6.326-2.834c0.646-1.745,2.104-2.422,2.104-2.422C34.908,43.372,27.582,41.618,27.582,41.618z"/>
		<path style="clip-path:url(#SVGID_2_);fill:#FFF9F0;" d="M29.615,41.954c0,0,0.197,1.039,2.152,1.509
			c2.503,0.603,5.179,0.543,7.919,0.031c1.849-0.345,2.701-2.223,2.701-2.223S37.122,42.68,29.615,41.954z"/>
		<path style="clip-path:url(#SVGID_2_);fill:#FFF9F0;" d="M37.224,44.608c-2.485,0.156-4.588-0.119-5.861-0.741
			c-0.906-0.443-0.967,0.066-0.761,0.377c0,0,0.872,1.633,5.016,1.881c3.979,0.239,5.95-1.807,5.484-2.136
			C40.634,43.661,39.522,44.464,37.224,44.608z"/>
		<path style="clip-path:url(#SVGID_2_);fill:#E8DAC5;" d="M29.615,41.954c0,0,0.155,0.666,0.716,0.906
			c0,0,8.991-1.137,11.245-0.434c0,0,0.721-0.703,0.812-1.155C42.388,41.271,35.932,42.661,29.615,41.954z"/>
		<path style="clip-path:url(#SVGID_2_);fill:#E8DAC5;" d="M32.221,44.2c3.403,1.547,7.339,0.025,7.339,0.025
			C35.394,45.149,32.221,44.2,32.221,44.2z"/>
		<path style="opacity:0.8;clip-path:url(#SVGID_2_);fill:#B54D26;" d="M42.404,39.743h-0.656c0.647,0.201,1.236,0.416,1.775,0.838
			c0.529,0.413,0.979,0.846,1.051,1.543c0.039,0.384-0.165,1.568,0.438,0.834c0.547-0.67,0.43-1.863-0.161-2.452
			C44.229,39.887,43.223,39.834,42.404,39.743z"/>
		<path style="opacity:0.8;clip-path:url(#SVGID_2_);fill:#B54D26;" d="M27.104,40.655c-0.814,0.484-1.249,1.76-0.801,2.635
			c0.494,0.962,0.563-0.385,0.704-0.793c0.258-0.744,0.873-1.098,1.576-1.41c0.715-0.316,1.433-0.396,2.215-0.444l-0.739-0.172
			C29.111,40.351,27.963,40.143,27.104,40.655z"/>
		<path style="clip-path:url(#SVGID_2_);fill:#261B18;" d="M39.546,51.055c-0.841,0.051-1.421-0.503-1.702-0.904
			c-0.513-0.736-1.703-0.686-2.391,0.362c-0.394,0.602-0.783,0.936-1.67,0.907c-2.5-0.079-3.313-3.068-3.313-3.068
			c-0.867,0.783,0.303,6.194,6.174,5.661c5.847-0.531,5.674-5.56,5.458-6.229C41.739,47.72,41.414,50.944,39.546,51.055z"/>
	</g>
</g>
<g id="Layer_1">
</g>
</svg>
