<?xml version="1.0" encoding="iso-8859-1"?>
<!-- Generator: Adobe Illustrator 16.0.0, SVG Export Plug-In . SVG Version: 6.00 Build 0)  -->
<!DOCTYPE svg PUBLIC "-//W3C//DTD SVG 1.1//EN" "http://www.w3.org/Graphics/SVG/1.1/DTD/svg11.dtd">
<svg version="1.1" xmlns="http://www.w3.org/2000/svg" xmlns:xlink="http://www.w3.org/1999/xlink" x="0px" y="0px"
	 width="66.003px" height="66px" viewBox="0 0 66.003 66" style="enable-background:new 0 0 66.003 66;" xml:space="preserve">
<g id="Layer_70">
	<g>
		<defs>
			<circle id="SVGID_1_" cx="33.003" cy="33" r="33"/>
		</defs>
		<clipPath id="SVGID_2_">
			<use xlink:href="#SVGID_1_"  style="overflow:visible;"/>
		</clipPath>
		<rect style="clip-path:url(#SVGID_2_);fill:#FFFFFF;" width="65.999" height="66"/>
		<path style="clip-path:url(#SVGID_2_);fill:#1E1E29;" d="M46.828,54.46c0,0-3.357,3.526-3.358,3.523
			c0.452,0.92,0.783,4.403,1.027,8.017h4.958C48.938,58.193,48.369,55.579,46.828,54.46z"/>
		<path style="clip-path:url(#SVGID_2_);fill:#1E1E29;" d="M21.761,54.46c-1.541,1.119-2.109,3.733-2.627,11.54h4.957
			c0.244-3.613,0.575-7.097,1.027-8.017C25.117,57.986,21.761,54.46,21.761,54.46z"/>
		<path style="clip-path:url(#SVGID_2_);fill:#918FA0;" d="M42.089,52.255c-4.893-2.627-12.025-1.722-15.277,0.393
			c-4.09,2.659-3.608,6.916-2.584,13.353h20.176C45.524,59.707,46.093,54.405,42.089,52.255z"/>
		<path style="clip-path:url(#SVGID_2_);fill:#1E1E29;" d="M22.091,54.486c-0.315,0.821,0.801,6.307,1.688,11.514h6.543
			c-1.091-5.225-2.423-10.699-3.495-14.187C26.826,51.813,22.503,53.413,22.091,54.486z"/>
		<path style="clip-path:url(#SVGID_2_);fill:#121219;" d="M21.402,54.582c0.056,0.664,6.614,2.628,6.448,1.966
			c-0.166-0.663-0.908-5.51-0.908-5.51C22.865,51.319,21.347,53.919,21.402,54.582z"/>
		<path style="clip-path:url(#SVGID_2_);fill:#3A3A4A;" d="M22.865,58.351c0.125,0.351,1.882,3.736,3.855,7.649h3.813
			c-1.063-4.989-2.29-9.153-2.849-10.115C27.175,55.007,22.589,57.577,22.865,58.351z"/>
		<path style="clip-path:url(#SVGID_2_);fill:#1E1E29;" d="M46.628,54.486c-0.412-1.073-4.735-2.673-4.735-2.673
			c-1.073,3.487-2.405,8.962-3.495,14.187h6.543C45.827,60.793,46.943,55.308,46.628,54.486z"/>
		<path style="clip-path:url(#SVGID_2_);fill:#121219;" d="M41.776,51.038c0,0-0.743,4.847-0.909,5.51
			c-0.166,0.662,6.394-1.302,6.449-1.966C47.371,53.919,45.854,51.319,41.776,51.038z"/>
		<path style="clip-path:url(#SVGID_2_);fill:#3A3A4A;" d="M41.033,55.885c-0.558,0.962-1.785,5.126-2.849,10.115h3.813
			c1.974-3.913,3.73-7.299,3.855-7.649C46.13,57.577,41.543,55.007,41.033,55.885z"/>
		<path style="clip-path:url(#SVGID_2_);fill:#66667D;" d="M33.527,45.79c-9.076,0-9.053,13.114,0.777,13.114
			C43.494,58.904,46.151,45.79,33.527,45.79z"/>
		<path style="clip-path:url(#SVGID_2_);fill:#918FA0;" d="M33.465,45.351c-9.685,0-9.66,12.418,0.829,12.418
			C44.1,57.769,46.935,45.351,33.465,45.351z"/>
		<path style="clip-path:url(#SVGID_2_);fill:#4F3023;" d="M44.259,8.506c-8.372-1.809-22.444-0.263-27.205,6.76
			c-1.343,1.98-2.032,4.381-1.458,6.721c0.612,2.492,2.412,4.145,5.165,3.338c1.433-0.42,2.361-0.281,3.795,0.2
			c1.507,0.503,2.909,1.309,4.457,1.688c2.477,0.604,5.083,0.3,7.558,0.826c1.635,0.349,3.165,1.442,4.49,2.379
			c1.092,0.772,2.212,1.494,3.021,2.561c0.548,0.723,1.1,1.612,1.955,1.999c0.616,0.277,1.979,0.778,2.434,0.075
			c0.279-0.432,0.164-1.655,0.206-2.164c0.066-0.815,0.064-1.636,0.101-2.452c0.093-2.095,0.524-4.133,0.729-6.207
			c0.589,0.693,0.598,1.757,0.475,2.613c1.515-0.99,2.72-2.926,3.008-3.808c1.005-3.074,0.679-6.089-0.634-8.591
			C50.819,11.522,47.938,9.3,44.259,8.506z"/>
		<path style="clip-path:url(#SVGID_2_);fill:#FFCB9E;" d="M30.158,14.863c-7.931,1.869-13.116,13.579-11.23,24.302
			c1.412,8.032,7.984,16.649,17.339,15.618c9.544-1.054,13.846-13.109,12.224-22.992C46.728,21.049,41.267,12.247,30.158,14.863z"/>
		<path style="opacity:0.3;clip-path:url(#SVGID_2_);fill:#BF3C1B;" d="M40.769,16.416c-3.125-0.778-6.339-1.152-9.569-1.082
			c-2.867,0.063-5.983,0.027-8.607,1.304c-1.441,0.703-3.209,1.655-3.696,3.254c-0.4,1.309-0.866,3.039-0.103,4.144
			c1.62,2.341,4.548,0.788,5.653,0.159c2.404-1.366,13.583-0.932,18.781-1.143c2.161-0.088,5.268-0.584,4.259-3.467
			C46.689,17.31,42.832,16.931,40.769,16.416z"/>
		<path style="clip-path:url(#SVGID_2_);fill:#FFCB9E;" d="M15.965,34.784c-3.883,1.232-2.086,6.899,1.165,7.926
			c1.041,0.328,2.135,0.336,3.183,0.222c0.019-0.033,0.039-0.065,0.06-0.101c0.44-0.763-0.379-4.913-0.649-5.689
			C19.042,35.184,17.829,34.19,15.965,34.784z"/>
		<path style="opacity:0.3;clip-path:url(#SVGID_2_);fill:#C94614;" d="M17.424,36.838c-0.898-0.371-3.07,0.446-1.968,2.13
			c0.482-1.619,1.497-0.608,1.393,0.532c-0.07,0.767-0.889,0.808-0.038,1.755c0.461,0.512,1.345,0.281,1.783-0.019
			C19.987,40.28,18.519,37.292,17.424,36.838z"/>
		<path style="clip-path:url(#SVGID_2_);fill:#4F3023;" d="M44.69,12.255c-0.577-0.517-1.259-0.93-2.002-1.254
			c-1.885-0.823-4.161-1.074-6.086-0.989c-1.609,0.07-3.211-0.213-4.836-0.141c-1.777,0.081-3.542,0.351-5.28,0.712
			c-2.031,0.423-4.184,1.009-5.973,2.071c-1.56,0.926-2.113,2.984-2.789,4.555c-0.305,0.709-0.225,1.658-0.24,2.407
			c-0.025,1.316-0.009,2.716,0.104,4.025c0.203,2.354,3.389,2.594,4.659,0.852c1.087-1.49,2.679-1.926,4.507-2.063
			c3.027-0.229,14.882-1.25,17.706-0.403c1.55,0.465,3.613,1.179,3.824-1.266c0.115-1.335-0.484-3.041-0.975-4.288
			C46.712,14.948,45.942,13.379,44.69,12.255z"/>
		<path style="clip-path:url(#SVGID_2_);fill:#693A27;" d="M46.729,11.054c-4.074-2.107-9.413-2.032-13.83-1.644
			c-3.772,0.33-7.154,1.469-10.531,3.255c-3.487,1.848-4.417,5.693-3.821,7.561c1.299-2.076,5.097-4.198,6.866-4.454
			c-0.148,0.927-1.769,2.812-2.081,3.688c1.398-0.876,8.246-4.256,10.065-4.306c-0.582,0.711-1.919,1.648-1.785,2.657
			c2.993-0.613,6.174-2.458,9.29-2.359c-0.92,0.954-2.432,1.221-3.184,2.396c2.999-0.088,6.297-0.646,9.402-0.795
			c-1.004,0.604-1.944,0.901-2.791,1.747c2.472-0.019,5.466-0.397,7.852,0.228C51.765,15.63,49.865,12.676,46.729,11.054z"/>
		<path style="clip-path:url(#SVGID_2_);fill:#BF795C;" d="M16.789,24.367c-1.028,1.796-0.292,9.563-0.004,10.253
			c1.882,0.147,4.289,2.583,4.289,2.583c-0.827-4.524-0.213-6.995,0.494-12.065C19.805,25.185,18.551,24.696,16.789,24.367z"/>
		<path style="clip-path:url(#SVGID_2_);fill:#FFA073;" d="M48.113,36.631c-0.655-0.888-2.004-1.028-2.965-1.009
			c-1.255,0.023-2.907,0.522-1.735,2.279c0.625,0.936,5.64,1.494,4.989-0.686C48.336,36.991,48.238,36.798,48.113,36.631z"/>
		<path style="clip-path:url(#SVGID_2_);fill:#FFA073;" d="M27.444,37.073c-0.896-0.731-2.306-0.525-3.277-0.256
			c-1.269,0.35-2.818,1.287-1.171,2.766c0.879,0.789,6.122,0.055,4.895-1.991C27.765,37.381,27.613,37.211,27.444,37.073z"/>
		<path style="clip-path:url(#SVGID_2_);fill:#224245;" d="M26.358,31.817c-2.093-0.808-3.247,2.897-1.797,4.036
			c0.647-0.217,1.424-0.178,2.047,0.095C27.963,35.181,27.917,32.419,26.358,31.817z"/>
		<path style="opacity:0.3;clip-path:url(#SVGID_2_);fill:#B54D26;" d="M36.402,38.011c-1.203,0.062-1.7-0.469-2.524,0.064
			c-0.821,0.532,0.444,2.091,2.572,1.931c2.118-0.157,2.983-1.651,2.521-2.178C38.434,37.217,37.736,37.944,36.402,38.011z"/>
		<path style="clip-path:url(#SVGID_2_);fill:#FFDFC2;" d="M35.912,33.5c-2.27-0.108-2.255,4.678-1.723,5.067
			c1.308,0.951,3.93,0.14,4.67-0.695C39.151,37.543,38.077,33.604,35.912,33.5z"/>
		<path style="clip-path:url(#SVGID_2_);fill:#224245;" d="M46.184,30.909c-2.143-1.176-3.525,2.926-1.754,4.001
			c0.533-0.385,1.638-0.315,2.18-0.09C47.413,33.859,47.333,31.54,46.184,30.909z"/>
		<path style="opacity:0.7;clip-path:url(#SVGID_2_);fill:#D4E6DD;" d="M25.402,32.751c-0.823,0.316-0.125,1.917,0.666,1.295
			C26.642,33.595,26.136,32.471,25.402,32.751z"/>
		<path style="opacity:0.7;clip-path:url(#SVGID_2_);fill:#D4E6DD;" d="M45.135,31.649c-0.819,0.197-0.361,1.803,0.467,1.311
			C46.198,32.605,45.861,31.474,45.135,31.649z"/>
		<path style="clip-path:url(#SVGID_2_);fill:#2B221C;" d="M31.206,27.37c-1.649-0.257-3.206-0.342-4.867-0.178
			c-2.5,0.248-4.167,1.066-3.964,1.586c0.203,0.521,2.014,0.303,4.841,0.422c2.604,0.111,4.548,0.613,4.916-0.124
			C32.595,28.148,32.095,27.507,31.206,27.37z"/>
		<path style="clip-path:url(#SVGID_2_);fill:#2B221C;" d="M45.002,26.564c-1.48-0.081-2.861,0.084-4.318,0.423
			c-0.785,0.183-1.211,0.848-0.771,1.75c0.348,0.715,2.06,0.118,4.37-0.124c2.509-0.263,4.122-0.136,4.288-0.665
			C48.736,27.419,47.229,26.685,45.002,26.564z"/>
		<path style="opacity:0.5;clip-path:url(#SVGID_2_);fill:#94110C;" d="M44.529,42.81c-0.338-0.243-0.817-0.201-1.076,0.088
			c-0.243,0.271-6.016,6.535-15.02,0.966c-0.356-0.217-0.831-0.146-1.065,0.161c-0.233,0.307-0.134,0.734,0.22,0.952
			c2.234,1.381,4.302,2.095,6.146,2.383c2.555,0.399,4.688-0.011,6.268-0.591c2.938-1.074,4.601-2.92,4.668-2.997
			C44.929,43.479,44.866,43.049,44.529,42.81z"/>
	</g>
</g>
<g id="Layer_1">
</g>
</svg>
