<?xml version="1.0" encoding="iso-8859-1"?>
<!-- Generator: Adobe Illustrator 16.0.0, SVG Export Plug-In . SVG Version: 6.00 Build 0)  -->
<!DOCTYPE svg PUBLIC "-//W3C//DTD SVG 1.1//EN" "http://www.w3.org/Graphics/SVG/1.1/DTD/svg11.dtd">
<svg version="1.1" xmlns="http://www.w3.org/2000/svg" xmlns:xlink="http://www.w3.org/1999/xlink" x="0px" y="0px"
	 width="66.004px" height="66px" viewBox="0 0 66.004 66" style="enable-background:new 0 0 66.004 66;" xml:space="preserve">
<g id="Layer_65">
	<g>
		<defs>
			<circle id="SVGID_1_" cx="33.004" cy="33" r="33"/>
		</defs>
		<clipPath id="SVGID_2_">
			<use xlink:href="#SVGID_1_"  style="overflow:visible;"/>
		</clipPath>
		<rect style="clip-path:url(#SVGID_2_);fill:#B3977F;" width="66" height="66"/>
		<path style="clip-path:url(#SVGID_2_);fill:#FFCB9E;" d="M42.174,54.065c-0.829-0.562-1.959-0.343-2.522,0.488
			c-0.561,0.832-0.342,1.961,0.49,2.522c3.618,2.442,5.583,5.051,5.537,7.344c-0.013,0.584-0.171,1.105-0.406,1.58h3.831
			c0.115-0.491,0.196-0.991,0.207-1.505C49.362,61.971,48.166,58.111,42.174,54.065z"/>
		<path style="clip-path:url(#SVGID_2_);fill:#918FA0;" d="M40.093,52.553c-1.013-0.288,0.362,6.354,1.388,7.006
			c1.549,0.983,2.449,2.729,2.955,4.585c1.756-0.388,4.173-1.563,5.645-2.737C48.252,56.348,43.599,53.553,40.093,52.553z"/>
		<path style="clip-path:url(#SVGID_2_);fill:#D9D9D9;" d="M44.629,65.66l-0.941-2.849c1.966-0.649,4.404-1.837,5.93-2.886
			l1.699,2.472C49.557,63.607,46.869,64.92,44.629,65.66z"/>
		<path style="clip-path:url(#SVGID_2_);fill:#FFCB9E;" d="M25.527,54.065c0.83-0.562,1.96-0.343,2.522,0.488
			c0.561,0.832,0.342,1.961-0.49,2.522c-3.617,2.442-5.583,5.051-5.536,7.344c0.012,0.584,0.171,1.105,0.405,1.58h-3.831
			c-0.114-0.491-0.196-0.991-0.206-1.505C18.34,61.971,19.535,58.111,25.527,54.065z"/>
		<path style="clip-path:url(#SVGID_2_);fill:#918FA0;" d="M27.608,52.553c1.014-0.288-0.361,6.354-1.388,7.006
			c-1.549,0.983-2.448,2.729-2.955,4.585c-1.756-0.388-4.173-1.563-5.644-2.737C19.45,56.348,24.103,53.553,27.608,52.553z"/>
		<path style="clip-path:url(#SVGID_2_);fill:#D9D9D9;" d="M23.073,65.66c-2.238-0.74-4.926-2.051-6.688-3.262l1.699-2.473
			c1.528,1.05,3.966,2.236,5.931,2.886L23.073,65.66z"/>
		<path style="clip-path:url(#SVGID_2_);fill:#918FA0;" d="M33.886,51.71c-8.241-0.044-9.314,2.275-9.161,2.587
			c0.594,1.203,1.028,3.18,1.031,5.31c0.003,2.527,0.194,4.613,0.313,6.394h15.55c0.1-1.769,0.286-3.848,0.301-6.353
			c0.01-1.725,0.677-4.058,1.08-5.225C43.106,54.115,41.884,51.752,33.886,51.71z"/>
		<path style="clip-path:url(#SVGID_2_);fill:#D9D9D9;" d="M33.851,58.468c0,0,7.273-3.133,5.452-5.935
			c-1.637-2.52-10.376-2.529-11.193,0.471C27.42,55.539,33.851,58.468,33.851,58.468z"/>
		<path style="clip-path:url(#SVGID_2_);fill:#F7B586;" d="M29.175,51.07c0.187-3.064,2.798-4.232,4.651-4.228
			c1.854-0.005,4.467,1.163,4.652,4.228c0.087,1.426-0.11,2.252-0.795,3.043c-1.096,1.266-2.452,2.292-3.857,2.322
			c-1.403-0.03-2.76-1.057-3.856-2.322C29.285,53.322,29.089,52.496,29.175,51.07z"/>
		<path style="clip-path:url(#SVGID_2_);fill:#322825;" d="M47.699,31.559c0.293-4.822-0.242-6.593-0.006-8.541
			c1-8.291-5.664-14.336-17.395-13.412C9.804,11.225,13.229,39.669,19.072,38.438c4.319-0.908,8.563-2.133,12.845-3.199
			c3.984-0.992,8.405-0.23,12.484,0.045C47.593,35.5,47.543,34.148,47.699,31.559z"/>
		<path style="clip-path:url(#SVGID_2_);fill:#FFCB9E;" d="M19.553,38.107c1.034,7.609,6.903,15.955,15.741,15.326
			c9.016-0.643,13.504-11.828,12.339-21.183C46.366,22.08,41.55,13.6,31.005,15.657C23.475,17.125,18.17,27.951,19.553,38.107z"/>
		<path style="clip-path:url(#SVGID_2_);fill:#FFCB9E;" d="M17.73,41.377c0.969,0.348,1.996,0.395,2.987,0.324
			c0.019-0.03,0.039-0.06,0.06-0.092c0.442-0.701-0.349-4.293-0.575-5.035c-0.568-1.865-1.502-3.187-3.277-2.697
			C13.228,34.896,14.711,40.293,17.73,41.377z"/>
		<path style="opacity:0.2;clip-path:url(#SVGID_2_);fill:#BF3C1B;" d="M31.372,25.296c-0.821-0.397-1.685-0.715-2.542-0.81
			c-0.062,0.793-0.131,1.433-0.42,2.291c-1.4-0.324-2.865-2.597-4.338-2.033c-1.078,0.413-1.104,2.022-1.591,2.896
			c-0.789,1.415-1.938,2.566-2.483,4.124c-0.536,1.53-0.55-5.546-0.507-6.47c0.112-2.429,0.255-5.729,2.184-7.498
			c2.404-2.204,6.894-2.027,9.901-1.975c4.497,0.079,8.482,1.01,12.601,2.649c2.846,1.132,3.139,6.848,2.677,9.442
			c0.082-0.457-0.751-1.273-0.962-1.633c-0.311-0.53-0.818-1.335-1.532-1.366c-0.533-0.023-1.579,1.588-1.343,1.692
			c-0.891-0.39-1.802-0.947-2.721-1.251c-0.764-0.251-1.594-0.308-2.393-0.564c0.182,0.058-1.055,3.039-1.063,3.341
			c-0.428-0.167-0.839-0.437-1.263-0.641c-0.817-0.391-1.627-0.756-2.41-1.215C32.609,25.95,32.003,25.6,31.372,25.296z"/>
		<path style="opacity:0.3;clip-path:url(#SVGID_2_);fill:#B54D26;" d="M19.162,40.044c1.347-0.85,0.074-3.712-0.938-4.181
			c-0.833-0.383-2.907,0.307-1.932,1.934c0.515-1.508,1.433-0.52,1.292,0.55c-0.094,0.718-0.866,0.729-0.099,1.649
			C17.9,40.494,18.738,40.311,19.162,40.044z"/>
		<path style="clip-path:url(#SVGID_2_);fill:#322825;" d="M44.222,26.097c-2.528-0.532-3.77-1.317-6.183-2.205
			c0.083,0.773,0.358,2.027,0.262,2.818c-1.462-0.504-7.065-2.186-9.979-3.078c0.272,0.665,0.292,1.469,0.497,2.189
			c-1.535-0.678-3.281-2.532-5.072-2.397c-1.076,0.081-1.165,0.754-1.358,1.71c-0.282,1.401-0.694,2.589-1.147,3.935
			c-1.079,3.198-0.53,6.609,0.819,7.858c-0.716,0.189-1.611,0.189-2.019-0.012c-0.526-0.685-1.483-2.705-1.551-4.35
			c-0.113-2.737-1.222-5.314-1.179-8.104c0.06-3.842,0.73-6.888,3.713-9.494c2.567-2.244,4.456-3.633,7.732-4.549
			c12.208-3.416,20.624,4.168,22.477,14.978c-1.722-0.146-4.464-0.957-6.011-2.022C45.156,23.694,44.458,25.717,44.222,26.097z"/>
		<path style="clip-path:url(#SVGID_2_);fill:#322825;" d="M39.564,7.669c-0.429,0.977-0.723,1.425-1.117,1.949
			c1.509,0.08,3.221,0.233,4.417,0.279c-0.562,0.634-1.703,2.064-2.807,2.174c-3.333,0.332-7.337,0.238-10.662-0.209
			c-1.263-0.17-2.585-0.134-3.83-0.368c0.421-1.177,2.362-1.581,3.419-1.742C31.043,9.438,35.458,9.138,39.564,7.669z"/>
		<path style="clip-path:url(#SVGID_2_);fill:#523E3B;" d="M45.618,16.234c0.43,0.526,0.824,1.076,1.179,1.644
			c0.967,1.541,1.736,3.295,2.347,5.006c-1.555-1.091-4.053-1.627-5.926-1.702c-0.085,1.004-0.462,1.937-0.529,2.967
			c-1.815-1.101-3.714-2.072-5.901-2.16c-0.232,0.709-0.218,1.553-0.269,2.31c-0.938-0.464-7.348-2.365-9.553-2.824
			c0.135,0.773,0.019,1.635,0.184,2.432c-1.193-0.568-5.359-3.725-6.193-4.531c-1.613-1.562-0.452-3.773,0.825-5.119
			c1.182-1.243,2.817-2.214,4.426-2.769c3.156-1.089,6.402-1.038,9.677-0.745C39.69,11.084,43.204,13.284,45.618,16.234z"/>
		<path style="clip-path:url(#SVGID_2_);fill:#162A33;" d="M28.22,35.361c-0.574-0.277-1.306-0.344-1.922-0.164
			c-1.323-1.123-0.103-4.568,1.838-3.731C29.579,32.088,29.521,34.688,28.22,35.361z"/>
		<path style="opacity:0.3;clip-path:url(#SVGID_2_);fill:#B54D26;" d="M39.095,37.836c0.385,0.266-0.436,1.249-2.18,1.336
			c-1.753,0.089-2.688-0.92-2.014-1.189c0.677-0.273,1.089-0.008,2.078-0.043C38.08,37.9,38.649,37.531,39.095,37.836z"/>
		<path style="clip-path:url(#SVGID_2_);fill:#FFE1C7;" d="M39.107,37.935c0.266-0.173-0.342-0.966-0.819-1.761
			c-0.423-0.703-0.834-2.239-1.809-2.184c-0.861,0.048-1.072,1.699-1.389,2.478c-0.323,0.793-0.546,1.524-0.092,1.747
			C36.109,38.764,38.43,38.375,39.107,37.935z"/>
		<path style="clip-path:url(#SVGID_2_);fill:#162A33;" d="M44.894,31.336c1.058,0.634,1.051,2.82,0.258,3.695
			c-0.504-0.232-1.539-0.338-2.055,0.005C41.47,33.96,42.92,30.151,44.894,31.336z"/>
		<path style="clip-path:url(#SVGID_2_);fill:#95A0B8;" d="M27.996,32.967c0.7-0.237,1.136,0.839,0.579,1.242
			C27.808,34.767,27.208,33.236,27.996,32.967z"/>
		<path style="clip-path:url(#SVGID_2_);fill:#95A0B8;" d="M44.643,32.663c0.693-0.138,0.967,0.938,0.393,1.251
			C44.238,34.348,43.867,32.82,44.643,32.663z"/>
		<path style="clip-path:url(#SVGID_2_);fill:#322825;" d="M24.572,30.476c-0.564,0.314-0.848-0.216-0.746-0.531
			c0.411-1.291,1.848-2.288,3.199-2.559c1.114-0.221,3.226-0.017,3.914,1.063c0.386,0.605-0.192,1.191-0.765,1.029
			c-0.948-0.27-1.955-0.326-2.932-0.147C26.263,29.512,25.423,30.002,24.572,30.476z"/>
		<path style="clip-path:url(#SVGID_2_);fill:#322825;" d="M46.578,29.544c0.555,0.168,0.705-0.33,0.56-0.581
			c-0.599-1.027-1.847-1.814-3.084-1.81c-1.021,0.005-3.039,0.734-3.444,1.772c-0.229,0.582,0.387,0.98,0.86,0.743
			c0.783-0.395,1.719-0.801,2.611-0.818C44.977,28.832,45.744,29.291,46.578,29.544z"/>
		<path style="clip-path:url(#SVGID_2_);fill:#FFE1C7;" d="M46.551,36.772c0.133,0.144,0.243,0.316,0.329,0.519
			c0.82,1.979-3.931,1.945-4.606,1.131c-1.269-1.531,0.229-2.16,1.401-2.305C44.574,36.005,45.85,36.005,46.551,36.772z"/>
		<path style="clip-path:url(#SVGID_2_);fill:#FFE1C7;" d="M28.842,37.1c0.136,0.156,0.246,0.34,0.328,0.555
			c0.796,2.101-4.185,1.906-4.867,1.028c-1.28-1.645,0.313-2.254,1.546-2.366C26.795,36.229,28.135,36.271,28.842,37.1z"/>
		<path style="opacity:0.3;clip-path:url(#SVGID_2_);fill:#B55623;" d="M44.232,39.632c-1.165-0.81-2.571,0.791-9.167,1.168
			c-5.695,0.325-7.834-0.618-9.259-0.641c0.813,5.543,4.51,9.487,8.646,9.495c2.174,0.005,5.183-0.197,6.784-2.683
			c0.622-0.969,0.747-1.993,1.041-3.103c0.481-1.828,1.033-2.777,2.334-3.86C44.498,39.852,44.37,39.727,44.232,39.632z"/>
		<path style="clip-path:url(#SVGID_2_);fill:#8F2722;" d="M26.681,40.814c0,0,7.336,2.549,17.459-0.997
			c0,0-1.642,1.056-2.182,3.685c-0.404,1.965-1.299,4.776-7.112,5.11C28.393,48.982,26.681,40.814,26.681,40.814z"/>
		<path style="clip-path:url(#SVGID_2_);fill:#FFF7EB;" d="M28.389,41.33c0,0-0.014,1.816,1.948,2.359
			c2.515,0.696,5.358,0.734,8.283,0.119c1.971-0.414,3.034-3.024,3.034-3.024S35.825,42.118,28.389,41.33z"/>
		<path style="clip-path:url(#SVGID_2_);fill:#FFF7EB;" d="M29.994,46.697c-0.132-0.406-0.089-0.857,0.757-0.511
			c1.015,0.413,2.919,0.738,5.155,0.763c2.237,0.025,2.817-0.785,3.183-0.349c0.368,0.437-1.339,2.466-4.883,2.127
			C30.153,48.339,29.994,46.697,29.994,46.697z"/>
		<path style="clip-path:url(#SVGID_2_);fill:#E8DAC5;" d="M28.668,42.391c0,0,10.017-0.955,12.306-0.389
			c0,0,0.554-0.853,0.681-1.218c0,0-5.302,1.282-13.266,0.546C28.389,41.33,28.364,41.898,28.668,42.391z"/>
		<path style="clip-path:url(#SVGID_2_);fill:#E8DAC5;" d="M31.085,46.551c0,0,2.979,1.02,7.391,0.296
			C38.476,46.847,34.481,48.205,31.085,46.551z"/>
	</g>
</g>
<g id="Layer_1">
</g>
</svg>
