<?xml version="1.0" encoding="iso-8859-1"?>
<!-- Generator: Adobe Illustrator 16.0.0, SVG Export Plug-In . SVG Version: 6.00 Build 0)  -->
<!DOCTYPE svg PUBLIC "-//W3C//DTD SVG 1.1//EN" "http://www.w3.org/Graphics/SVG/1.1/DTD/svg11.dtd">
<svg version="1.1" xmlns="http://www.w3.org/2000/svg" xmlns:xlink="http://www.w3.org/1999/xlink" x="0px" y="0px" width="66px"
	 height="66px" viewBox="0 0 66 66" style="enable-background:new 0 0 66 66;" xml:space="preserve">
<g id="Layer_104">
	<g>
		<defs>
			<circle id="SVGID_1_" cx="33" cy="33" r="33"/>
		</defs>
		<clipPath id="SVGID_2_">
			<use xlink:href="#SVGID_1_"  style="overflow:visible;"/>
		</clipPath>
		<rect style="clip-path:url(#SVGID_2_);fill:#FFFFFF;" width="66" height="65.998"/>
		<path style="clip-path:url(#SVGID_2_);fill:#E83133;" d="M26.483,54.766c0,0-6.883,2.959-7.456,11.232h4.834
			c0.503-3.297,1.797-5.292,1.797-5.292L26.483,54.766z"/>
		<path style="clip-path:url(#SVGID_2_);fill:#E83133;" d="M42.886,54.766l0.824,5.94c0,0,1.294,1.995,1.798,5.292h4.833
			C49.769,57.725,42.886,54.766,42.886,54.766z"/>
		<path style="clip-path:url(#SVGID_2_);fill:#E83133;" d="M42.365,53.626c-1.832-1.421-11.571-2.282-14.812,0
			c-3.786,2.669-4.58,7.609-3.749,12.372h21.778C46.269,61.646,45.988,56.438,42.365,53.626z"/>
		<path style="clip-path:url(#SVGID_2_);fill:#4986C2;" d="M45.174,55.164l-3.725-2.274c0.795,3.769-0.467,11.453-0.467,11.453
			c-7.644,0.97-12.449-0.117-12.449-0.117c-0.099-5.554-0.855-10.688-0.855-10.688l-3.134,1.551
			c1.339,5.859,0.913,9.135,0.255,10.909h19.793C43.6,62.043,45.174,55.164,45.174,55.164z"/>
		<path style="opacity:0.2;clip-path:url(#SVGID_2_);fill:#5E0900;" d="M38.632,53.908C36.325,52.7,27.394,52.25,27.044,55.74
			c-0.372,3.689,2.626,7.081,2.626,7.081l5.381-5.964l5.179,6.393c2.658-3.459,2.108-8.244,2.108-8.244S40.938,55.115,38.632,53.908
			z"/>
		<path style="clip-path:url(#SVGID_2_);fill:#E83133;" d="M27.371,51.804c-2.192,3.641,1.949,9.504,1.949,9.504l5.623-3.532
			l5.64,3.615c0,0,4.046-6.569,1.721-10.604C39.978,46.751,29.564,48.159,27.371,51.804z"/>
		<path style="clip-path:url(#SVGID_2_);fill:#F29966;" d="M28.092,52.559c0.046,2.045,1.949,5.444,6.828,7.389
			c0,0,7.143-2.653,6.529-8.461C40.838,45.68,27.948,46.221,28.092,52.559z"/>
		<path style="clip-path:url(#SVGID_2_);fill:#D45800;" d="M27.979,9.253C7.504,15.076,13.325,38.651,19.32,37.098
			c3.644-0.944,7.236-2.096,10.831-3.205c3.511-1.086,7.67-1.671,11.282-0.657c1.08,0.304,1.993,0.94,3.107,1.159
			c3.653,0.709,6.57-0.788,6.71-4.558c0.009-0.194,0.012-0.394,0.012-0.598c-0.012-3.023-0.889-6.639-1.836-9.411
			C46.467,11.156,36.65,6.787,27.979,9.253z"/>
		<path style="clip-path:url(#SVGID_2_);fill:#FAB37C;" d="M31.449,13.597c-8.947,1.07-17.205,11.217-13.837,21.651
			c1.738,5.383,1.738,6.724,4.208,12.074c2.507,5.433,8.232,8.618,15.882,7.928c6.95-0.63,9.359-4.184,10.956-10.085
			c1.121-4.143,1.964-8.696,1.353-13.801C48.707,20.479,40.396,12.524,31.449,13.597z"/>
		<path style="opacity:0.4;clip-path:url(#SVGID_2_);fill:#D14F2E;" d="M24.773,34.202c0.076,0.623,1.486,0.247,1.921,0.328
			c-0.354,0.408-1.468,0.463-1.912,0.752c-0.47,0.305-0.408,0.491,0.168,0.448c0.347-0.025,2.259-0.58,2.496-0.804
			C28.453,33.984,25.256,34.044,24.773,34.202z"/>
		<path style="opacity:0.4;clip-path:url(#SVGID_2_);fill:#D14F2E;" d="M47.452,33.256c0.373-0.075,1.52,0.304,1.651-0.308
			c-0.391-0.159-3.073-0.244-2.328,0.691c0.176,0.221,1.726,0.78,2.016,0.808c0.48,0.048,0.553-0.134,0.188-0.438
			C48.637,33.724,47.705,33.657,47.452,33.256z"/>
		<path style="clip-path:url(#SVGID_2_);fill:#E36E05;" d="M41.575,28.139c0.599,1.492,2.487,0.704,3.612,0.52
			c0.733-0.12,2.561,0.176,3.367-0.21c0.114-0.058,0.209-0.126,0.276-0.213C50.893,25.575,40.36,25.121,41.575,28.139z"/>
		<path style="clip-path:url(#SVGID_2_);fill:#E36E05;" d="M24.305,29.994c0.095,0.078,0.213,0.132,0.353,0.171
			c0.967,0.26,2.873-0.342,3.698-0.34c1.261,0.003,3.499,0.492,3.783-1.12C32.71,25.441,21.421,27.634,24.305,29.994z"/>
		<path style="clip-path:url(#SVGID_2_);fill:#F59D67;" d="M46.122,34.514c-1.137-0.09-2.701,0.237-1.897,2.009
			c0.428,0.944,4.875,1.925,4.604-0.202c-0.027-0.221-0.089-0.413-0.176-0.581C48.191,34.836,46.993,34.582,46.122,34.514z"/>
		<path style="clip-path:url(#SVGID_2_);fill:#F59D67;" d="M28.407,36.139c-0.88-0.602-2.142-0.276-3.003,0.067
			c-1.121,0.448-2.447,1.473-0.818,2.709c0.868,0.658,5.571-0.521,4.273-2.33C28.726,36.4,28.572,36.254,28.407,36.139z"/>
		<path style="clip-path:url(#SVGID_2_);fill:#401E15;" d="M28.928,31.518c-1.959-0.984-3.433,2.504-2.132,3.75
			c0.65-0.148,1.402-0.035,1.981,0.287C30.166,34.936,30.385,32.248,28.928,31.518z"/>
		<path style="opacity:0.4;clip-path:url(#SVGID_2_);fill:#BC551E;" d="M44.263,38.327c-0.339,0.108,0.288,0.23,1.111,0.448
			c0.161,0.042,0.258,0.133,0.317,0.248c-4.411,1.36-12.044,2.662-17.696,0.818c0.045-0.052,0.094-0.102,0.147-0.142
			c0.776-0.611,1.89-0.673,1.579-0.866c0,0-1.869-0.042-2.61,0.554c-0.663,0.533-0.645,2.192-0.113,2.259
			c0.42,0.054,0.438-0.846,0.791-1.503c0.39,1.799,2.371,9.397,8.75,9.374c4.805-0.017,6.253-2.57,6.441-5.557
			c0.104-1.663,1.748-3.737,2.772-4.739c0.086,0.502-0.203,1.233,0.17,1.286c0.53,0.074,1.05-1.001,0.693-1.872
			C46.259,37.765,44.263,38.327,44.263,38.327z"/>
		<path style="clip-path:url(#SVGID_2_);fill:#8F322E;" d="M28.998,41.049c0,0,2.08,7.36,7.771,6.993
			c5.126-0.33,5.727-2.867,5.948-4.641c0.295-2.376,1.678-3.337,1.678-3.337C36.205,44.692,28.998,41.049,28.998,41.049z"/>
		<path style="clip-path:url(#SVGID_2_);fill:#FFF4E3;" d="M30.868,41.773c0,0,0.068,2.396,1.824,3.265
			c2.253,1.111,4.774,1.185,7.341,0.23c1.729-0.643,2.72-4.302,2.72-4.302S37.835,43.29,30.868,41.773z"/>
		<path style="clip-path:url(#SVGID_2_);fill:#FFF4E3;" d="M38.022,45.334c-2.435,0.103-4.533-0.266-5.672-0.826
			c-0.95-0.468-0.958,0.215-0.778,0.816c0,0,0.314,2.467,4.753,2.8c3.883,0.29,5.563-2.882,5.127-3.516
			C41.018,43.973,40.456,45.232,38.022,45.334z"/>
		<path style="clip-path:url(#SVGID_2_);fill:#E8D5B9;" d="M30.857,41.739c0,0,0.08,1.34,0.456,1.882c0,0,8.688-1.635,10.734-0.732
			c0,0,0.608-1.347,0.705-1.922C42.753,40.967,36.594,43.299,30.857,41.739z"/>
		<path style="clip-path:url(#SVGID_2_);fill:#E8D5B9;" d="M32.855,44.512c3.837,2.283,8.064-0.02,8.064-0.02
			C36.185,45.862,32.855,44.512,32.855,44.512z"/>
		<path style="clip-path:url(#SVGID_2_);fill:#401E15;" d="M45.148,34.071c0.582-0.317,1.299-0.437,1.897-0.287
			c0.928-0.862,1.177-2.763,0.114-3.54C45.176,28.793,42.858,33.174,45.148,34.071z"/>
		<path style="clip-path:url(#SVGID_2_);fill:#A89089;" d="M28.317,31.991c-0.83,0.228-0.304,1.851,0.526,1.32
			C29.442,32.928,29.057,31.788,28.317,31.991z"/>
		<path style="clip-path:url(#SVGID_2_);fill:#A89089;" d="M46.41,30.554c-0.841,0.096-0.593,1.766,0.295,1.373
			C47.347,31.646,47.16,30.469,46.41,30.554z"/>
		<path style="clip-path:url(#SVGID_2_);fill:#FAB37C;" d="M14.913,33.346c-4.395,1.343-2.475,6.842,1.166,7.737
			c1.168,0.288,2.4,0.259,3.583,0.111c0.021-0.034,0.043-0.066,0.067-0.102c0.511-0.762-0.533-4.437-0.823-5.191
			C18.176,34.004,17.023,32.703,14.913,33.346z"/>
		<path style="opacity:0.2;clip-path:url(#SVGID_2_);fill:#BF3C1B;" d="M42.858,18.384c-4.267-0.452-8.77-0.294-12.958,0.657
			c-2.901,0.659-5.958,1.863-7.633,4.463c-1.595,2.477-4.061,5.014-3.496,8.209c0.12,0.688,1.092,4.089,2.385,2.999
			c0.592-0.502-0.075-2.915,0.287-5.318c0.461,1.546,1.386,2.305,2.165,2.796c0.175,0.109,3.811-5.501,4.749-6.023
			c-0.164,2.338,1.132,3.923,2.271,4.545c0.593-1.517,1.363-2.259,2.808-3.566c0.3,0.231,1.953,3.772,1.992,3.726
			c0.635-0.729,0.979-1.693,1.6-2.456c1.658-2.034,3.714-3.675,6.24-4.462c1.471-0.459,3.889-0.965,4.561-2.573
			C48.945,18.717,44.384,18.546,42.858,18.384z"/>
		<path style="opacity:0.4;clip-path:url(#SVGID_2_);fill:#D14F2E;" d="M17.367,35.313c-1.162-0.486-4.222,0.038-2.977,1.851
			c0.892-1.542,2.118-0.408,1.811,0.708c-0.207,0.75-1.321,0.684-0.307,1.733c0.549,0.566,1.779,0.452,2.416,0.212
			C20.336,39.057,18.782,35.905,17.367,35.313z"/>
		<path style="clip-path:url(#SVGID_2_);fill:#B53F0D;" d="M47.332,37.053c-2.354-1.759-5.874-0.16-8.331,0.342
			c-2.711,0.555-5.537-0.013-8.272-0.077c-2.581-0.063-6.916,1.026-7.052,4.389c-0.18,4.423,3.507,0.369,4.4-1.134
			c0.008,0.738,1.564,0.455,2.586-0.096c-1.053,1.311,1.879,0.901,2.437,0.288c-0.519,1.108,1.63,0.748,2.653,0.049
			c-0.721,0.897,0.807,1.598,1.277,0.099c-0.32,1.017,1.465,1.104,1.509-0.048c1.442,1.038,2.434,0.296,1.728-0.593
			c1.469,1.149,2.72,0.276,2.334-0.378c0.835,0.398,2.415,0.862,2.437-0.585c0.628,1.204,1.563,2.667,2.172,2.865
			C48.223,42.505,51.095,39.869,47.332,37.053z"/>
		<path style="clip-path:url(#SVGID_2_);fill:#B53F0D;" d="M50.038,31.609c-0.242,1.508-0.054,5.913-1.253,7.022
			c-0.908,0.837-2.467-0.614-3.681-0.008c-0.771,0.386,3.24,11.645-2.171,11.966c-1.962,0.117-2.147-1.919-5.676-1.229
			c-1.809,0.355-3.645,3.193-6.048,2.193c-4.603-1.916-4.505-8.466-3.53-10.836c0.765-1.858-3.565,0.245-5.071-1.563
			c-0.951-1.146-0.75-3.047-1.626-4.165c-1.086-1.389-2.396-0.621-2.418,0.998c-0.02,1.522,0.313,2.971-0.031,4.45
			c-0.92,3.955-0.072,5.47,0.595,3.998c-0.056,0.569-0.334,3.962,0.916,2.511c-0.531,0.948,0.006,4.372,1.333,3.337
			c-0.139,0.91,0.556,3.593,1.512,3.415c0.206,0.876,1.789,3.527,2.608,1.899c-0.125,0.251,1.131,1.743,1.35,1.983
			c0.534,0.594,1.354,1.365,2.22,1.296c0.47-0.037,0.635-0.441,1.107-0.39c0.517,0.06,1.134,0.842,1.63,1.061
			c0.546,0.238,1.064,0.408,1.496-0.126c0.669,1.125,2.401,1.271,3.168,0.209c0.526,1.06,2.535,0.848,2.911-0.245
			c1.003,1.432,2.249-0.464,2.704-1.336c-0.461,0.884,2.006,1.703,2.63-2.521c0.123,1.06,1.031,0.808,1.517,0.18
			c0.423-0.546,0.525-1.474,0.561-2.139c1.506,1.021,1.818-1.971,1.666-2.811c1.471,0.321,0.977-2.827,0.77-3.515
			c1.806,0.784,0.884-2.681,0.619-3.302c0.828,1.947,1.739-0.727,0.445-3.501C52.153,41.816,50.777,33.004,50.038,31.609z"/>
		<path style="clip-path:url(#SVGID_2_);fill:#CF550F;" d="M22.91,41.04c-0.448-0.558-1.831-2.391-1.79-3.103
			c-0.056,0.971-1.315,0.291-1.606-0.151c-0.043,0.498-0.083,1.165,0.065,1.658c0.019,0.059,0.771,1.227,0.8,0.874
			c-0.051,0.636-0.915,5.172,0.789,3.984c-0.225,0.766,0.231,4.827,1.25,2.864c0.041,0.725,0.038,3.74,1.313,3.462
			c1.365-0.299,1.248-6.983,0.774-7.921C24.164,42.033,23.384,41.629,22.91,41.04z"/>
		<path style="clip-path:url(#SVGID_2_);fill:#D45800;" d="M45.803,16.105c-2.579-1.45-5.617-2.593-8.565-2.85
			c-1.675-0.146-3.25-0.629-4.958-0.586c-2.848,0.067-5.604,1.001-8.114,2.302c-3.738,1.932-6.146,6.319-7.234,10.218
			c-0.634,2.271-0.968,4.83-0.457,7.16c0.332,1.514,1.745,4.733,4.02,5.113c0.507,0.084,1.195-0.229,0.993-2.011
			c-0.296-2.593-1.459-6.157,0.475-8.664c-0.418,1.304,0.338,2.836,1.3,3.74c1.061-2.21,3.186-4.816,5.679-5.42
			c-0.142,1.825,1.155,3.959,1.479,4.336c0.383-1.406,1.299-3.025,2.718-3.579c0.597,1.273,1.087,2.519,2.157,3.534
			c1.594-1.868,2.741-4.214,4.773-5.664c2.129-1.519,5.095-1.264,7.203-2.83C49.218,19.461,47.377,16.991,45.803,16.105z"/>
		<path style="clip-path:url(#SVGID_2_);fill:#FFC18F;" d="M36.94,30.39c-2.472,0.278-3.087,6.799-1.712,7.572
			c1.703,0.955,4.512,0.29,5.394-0.567C41.277,36.755,39.886,30.059,36.94,30.39z"/>
		<path style="clip-path:url(#SVGID_2_);fill:#DE6604;" d="M35.181,24.95c-1.089,1.368-0.217,2.159,0.125,3.474
			c-0.104-0.396,1.598-2.556,1.85-3.017c0.542-0.989,1.047-1.864,1.324-2.974C37.387,23.158,36.002,23.917,35.181,24.95z"/>
		<path style="clip-path:url(#SVGID_2_);fill:#CF550F;" d="M40.213,50.639c-2.284-1.012-4.476,0.343-6.243,2.085
			c-1.515,1.492-1.908,4.583,0.16,6c0.651,0.445,1.451,0.541,1.348-1.205c0.842,1.424,2.894,2.587,3.104,0.601
			c1.317,1.056,2.347,0.283,2.792-1.188c1.391,1.861,2.879-1.208,2.811-2.479C44.071,52.314,41.883,51.378,40.213,50.639z"/>
		<path style="clip-path:url(#SVGID_2_);fill:#CF550F;" d="M43.487,36.846c-1.859,0.223-2.686,1.311-4.217,2.056
			c-1.624,0.789-3.035,0.161-4.378-0.514C30.13,36,22.081,39.242,24.325,45.563c0.292,0.826,0.516,1.785,1.482,1.997
			c1.061-2.729-0.522-6.838,2.711-8.383c-1.305,2.308,2.557,0.022,3.143-0.219c-1.646,2.652,1.406,1.403,2.628,0.514
			c-0.361,0.402-0.458,0.856-0.497,1.36c0.904,0.328,1.632-0.462,2.197-1.093c-0.344,1.25,0.977,1.373,1.62,0.612
			c0.396,0.628,0.747,0.499,0.977-0.197c0.388,0.333,0.684,0.204,1.096,0.358c-0.019-0.246,0.145-0.515,0.052-0.815
			c0.815,0.467,2.677,0.755,1.981-0.82c0.701,1.112,3.282,1.045,2.625-0.656c1.528,1.003,1.963,2.988,2.159,4.687
			c0.127,1.092-0.281,6.187,1.842,4.346c0.911-0.788,0.886-2.785,0.418-3.782c2.188,1.469-0.342-3.447-0.659-3.95
			C46.966,37.725,45.693,36.579,43.487,36.846z"/>
		<path style="clip-path:url(#SVGID_2_);fill:#CF550F;" d="M29.033,51.863c-0.709-0.546-1.666-3.077-2.721-2.776
			c-1.02,0.294-0.536,2.665-0.477,3.422c0.048,0.59,1.046,3.788,1.64,1.846c-0.212,0.875,0.374,2.419,1.18,2.874
			c0.83,0.468,1.838-0.588,1.515-0.769c0.655,0.366,1.219,1.229,1.903,1.462c2.115,0.716,2.137-3.952,2.14-5.33
			c-0.512,0.163-1.049,0.442-1.578,0.533C31.198,53.371,30.125,52.705,29.033,51.863z"/>
		<path style="clip-path:url(#SVGID_2_);fill:#CF550F;" d="M45.88,52.541c0.001,0.001,0.001,0.001,0.002,0.002
			C45.881,52.522,45.88,52.509,45.88,52.541z"/>
		<path style="clip-path:url(#SVGID_2_);fill:#CF550F;" d="M46.464,48.927c-0.6-0.058-0.627,0.941-0.866,1.353
			c-0.438,0.758-1.061,1.314-1.913,1.538c-0.413,0.106-1.458-0.148-1.749,0.046c-0.769,0.515-0.256,1.925,0.31,2.457
			c1.718,1.617,3.645,0.62,3.637-1.736c0.001,0.002,0-0.022,0-0.041c-0.001-0.001-0.001-0.001-0.002-0.002
			c0-0.032,0.001-0.019,0.002,0.002c0.637,1.055,1.297-0.003,1.465-0.745C47.467,51.266,47.277,49.005,46.464,48.927z"/>
		<path style="clip-path:url(#SVGID_2_);fill:#DE6604;" d="M30.234,28.305c0.178-0.61,0.55-1.023,0.799-1.457
			c0.848-1.47,2.228-2.28,3.177-3.679C31.612,24.129,28.811,25.056,30.234,28.305z"/>
		<path style="clip-path:url(#SVGID_2_);fill:#DE6604;" d="M23.299,29.221c-0.233-0.229,0.941-2.13,2.76-3.428
			c1.023-0.729,2.524-1.142,3.099-2.471c-1.098,0.576-2.566,0.347-3.737,0.789C23.632,24.785,21.481,27.45,23.299,29.221z"/>
		<path style="opacity:0.6;clip-path:url(#SVGID_2_);fill:#B53F0D;" d="M44.605,14.708c-3.707-1.032-7.813-0.755-11.6-0.466
			c-5.654,0.429-11.153,2.104-16.022,5.019c-4.313,2.582-3.302,5.909,1.192,5.511c4.623-0.412,9.309-1.997,13.25-2.621
			c4.498-0.71,8.797-0.978,13.278-1.777C49.554,19.506,49.027,15.938,44.605,14.708z"/>
		<path style="clip-path:url(#SVGID_2_);fill:#B6773E;" d="M45.186,10.944c-8.075-1.497-17.108-1.288-24.651,2.43
			c-1.344,0.664-14.169,7.603-9.151,9.72c3.555,1.498,14.36-2.479,18.221-3.137c6.768-1.153,14.143-1.188,20.698-3.031
			C59.071,14.46,49.185,11.688,45.186,10.944z"/>
		<path style="clip-path:url(#SVGID_2_);fill:#9C6430;" d="M28.47,5.953c-0.845,0.097-1.714-0.069-2.584-0.254
			c-1.15-0.245-2.299-0.522-3.384-0.266c-2.184,0.518-2.509,2.708-2.972,4.575c-0.61,2.466-1.427,4.945-2.491,7.27
			c3.872,0.991,12.731,0.493,15.403-0.073c3.684-0.777,9.561-1.736,11.905-5.088c-1.916-1.856-3.437-5.104-5.277-7.023
			C34.992,0.839,32.962,5.438,28.47,5.953z"/>
		<path style="clip-path:url(#SVGID_2_);fill:#E6B242;" d="M42.24,8.945c-0.757,0.725-1.776,1.343-2.656,1.879
			c-3.063,1.859-6.41,2.836-9.875,3.186c-2.966,0.301-7.105,0.584-11.313-0.872c-0.095,1.033-0.56,1.911-1.041,2.813
			c1.239,0.155,2.482,0.667,3.753,0.833c4.676,0.611,9.306-0.132,13.957-0.927c3.288-0.562,6.141-2.468,8.903-4.471
			C43.224,10.692,42.563,10.084,42.24,8.945z"/>
		<path style="clip-path:url(#SVGID_2_);fill:#B6773E;" d="M35.332,3.889C34.97,3.96,32.731,5.377,32.904,5.42
			c0.681,0.179,1.453,0.524,2.182,0.49c-2.944,0.363-6.405,0.511-9.35,0.163c-2.084-0.242-3.919-0.466-4.621,1.991
			c-0.474,1.656,0.544,1.516,1.639,1.099c0.667-0.253,1.362-0.607,1.771-0.723c3.861-1.089,7.605-1.605,11.582-1.459
			c1.393,0.052,2.826-0.328,1.854-1.95C37.334,3.985,36.494,3.655,35.332,3.889z"/>
		<path style="clip-path:url(#SVGID_2_);fill:#D18C4D;" d="M48.333,16.848c-3.458,0.503-11.281,0.752-18.288,2.105
			c-5.783,1.114-9.397,2.795-13.891,3.519c-4.282,0.688-5.341-0.346-5.341-0.346s0.267,1.393,4.681,0.849
			c6.632-0.815,11.313-3.268,17.188-3.898c7.746-0.826,14.537-1.458,17.348-2.292c2.808-0.837,3.142-2.107,3.142-2.107
			S51.79,16.344,48.333,16.848z"/>
	</g>
</g>
<g id="Layer_1">
</g>
</svg>
