<?xml version="1.0" encoding="iso-8859-1"?>
<!-- Generator: Adobe Illustrator 16.0.0, SVG Export Plug-In . SVG Version: 6.00 Build 0)  -->
<!DOCTYPE svg PUBLIC "-//W3C//DTD SVG 1.1//EN" "http://www.w3.org/Graphics/SVG/1.1/DTD/svg11.dtd">
<svg version="1.1" xmlns="http://www.w3.org/2000/svg" xmlns:xlink="http://www.w3.org/1999/xlink" x="0px" y="0px"
	 width="66.008px" height="66px" viewBox="0 0 66.008 66" style="enable-background:new 0 0 66.008 66;" xml:space="preserve">
<g id="Layer_46">
	<g>
		<defs>
			<circle id="SVGID_1_" cx="33.008" cy="33" r="33"/>
		</defs>
		<clipPath id="SVGID_2_">
			<use xlink:href="#SVGID_1_"  style="overflow:visible;"/>
		</clipPath>
		<rect style="clip-path:url(#SVGID_2_);fill:#507D52;" width="66" height="66"/>
		<path style="clip-path:url(#SVGID_2_);fill:#8D573E;" d="M15.598,66h7.354l-4.056-9.789C17.592,57.283,15.66,59.381,15.598,66z"/>
		<path style="clip-path:url(#SVGID_2_);fill:#8D573E;" d="M46.306,55.921L42.318,66h7.775
			C50.031,59.381,47.61,56.993,46.306,55.921z"/>
		<path style="clip-path:url(#SVGID_2_);fill:#93B7F5;" d="M41.686,54.211c-2.111-5.137-13.354-3.635-16.324-1.141
			c-2.969,2.494-3.792,5.486,0.667,9.857c1.393,1.365,2.657,2.355,3.738,3.072h5.649C38.151,63.059,42.951,57.29,41.686,54.211z"/>
		<path style="clip-path:url(#SVGID_2_);fill:#2F58A1;" d="M35.717,58.055c0,0-0.751-1.721-2.938-1.309
			c-1.956,0.365-2.24,2.049-2.24,2.049l1.614,1.635L30.503,66h6.44l-2.199-5.9L35.717,58.055z"/>
		<path style="clip-path:url(#SVGID_2_);fill:#8D573E;" d="M25.277,53.582c0.144-0.369,0.321-0.705,0.54-1.016
			c-2.361,1.008-6.707,3.086-7.09,3.852c-0.319,0.64,1.808,5.039,2.809,9.582h9.334C27.993,62.209,24.176,56.414,25.277,53.582z"/>
		<path style="clip-path:url(#SVGID_2_);fill:#8D573E;" d="M46.409,56.023c-0.738-0.803-4.336-3.115-5.649-3.744
			c0.14,0.324,0.61,1.025,0.579,1.361c-0.367,3.971-3.081,9.014-5.152,12.359h8.377C45.308,62.198,46.859,56.51,46.409,56.023z"/>
		<path style="clip-path:url(#SVGID_2_);fill:#A1664C;" d="M43.032,61.922c-0.1-0.512-1.852-3.146-1.852-3.146l3.24-1.936
			c-1.546-3.09-4.531-5.008-4.531-5.008c0.545,5.311-2.229,10.807-4.247,14.168h3.113C40.961,63.994,43.058,62.049,43.032,61.922z"
			/>
		<path style="clip-path:url(#SVGID_2_);fill:#A1664C;" d="M21.879,57.467l3.87,1.537c0,0-1.665,3.385-1.72,3.928
			c-0.015,0.144,1.72,1.527,3.714,3.068h3.658c-2.116-3.021-4.985-7.957-4.985-13.555C26.416,52.445,23.138,54.082,21.879,57.467z"
			/>
		<path style="opacity:0.1;clip-path:url(#SVGID_2_);" d="M26.351,55.674c1.059,3.352,3.807,5.021,3.807,5.021l3.133-2.984
			l3.335,2.824c3.188-2.82,3.812-4.594,4.076-5.6C41.529,51.785,24.962,51.273,26.351,55.674z"/>
		<path style="clip-path:url(#SVGID_2_);fill:#93B7F5;" d="M25.825,52.611c-1.555,3.969,4.098,7.201,4.098,7.201l3.367-2.102
			l3.143,1.975c0,0,6.218-3.227,3.864-7.854C38.18,47.67,27.628,48.006,25.825,52.611z"/>
		<path style="clip-path:url(#SVGID_2_);fill:#ED9D6C;" d="M30.828,47.061c-2.007,0.439-3.34,2.348-3.479,4.313
			c-0.106,1.523,0.136,2.404,0.986,3.25c0.614,0.611,1.618,1.211,2.655,1.529c0.74,0.227,2.037,1.096,2.267,1.102
			c0.091,0.002,0.521-0.373,1.219-0.734c1.021-0.523,2.468-1.221,3.03-2.322c0.823-1.611,1.558-4.801,0-6.055
			C35.896,46.846,32.754,46.637,30.828,47.061z"/>
		<path style="clip-path:url(#SVGID_2_);fill:#C9BEB7;" d="M29.849,8.734C8.672,10.289,12.051,39.688,18.093,38.449
			c4.465-0.914,8.857-2.154,13.282-3.234c4.123-1,8.683-0.188,12.895,0.119c3.297,0.242,3.252-1.154,3.429-3.828
			c0.332-4.98-0.212-6.812,0.041-8.822C48.82,14.127,41.972,7.846,29.849,8.734z"/>
		<path style="clip-path:url(#SVGID_2_);fill:#FFB97F;" d="M30.546,14.987c-7.787,1.475-13.327,12.626-11.957,23.125
			c1.026,7.863,7.04,16.518,16.174,15.918c9.315-0.611,14.014-12.139,12.863-21.808C46.376,21.708,41.45,12.921,30.546,14.987z"/>
		<path style="clip-path:url(#SVGID_2_);fill:#FFB97F;" d="M15.899,33.726c-3.825,1.032-2.323,6.614,0.79,7.752
			c0.999,0.361,2.06,0.416,3.082,0.352c0.022-0.033,0.042-0.063,0.062-0.096c0.463-0.721-0.334-4.438-0.564-5.203
			C18.691,34.6,17.734,33.232,15.899,33.726z"/>
		<path style="opacity:0.2;clip-path:url(#SVGID_2_);fill:#BF3C1B;" d="M44.134,17.969c-4.243-1.717-8.354-2.701-13-2.808
			c-3.104-0.073-7.742-0.279-10.237,1.983c-2.002,1.815-2.169,5.221-2.299,7.732c-0.05,0.954-0.074,8.262,0.487,6.685
			c1.024-2.864,3.361-3.94,3.301-6.948c4.479,2.021,11.225,1.875,17.092,1.311c3.682-0.354,6.645-1.258,7.369,1.812
			C47.338,25.06,47.065,19.154,44.134,17.969z"/>
		<path style="opacity:0.35;clip-path:url(#SVGID_2_);fill:#B54319;" d="M17.229,35.785c-0.857-0.398-3.004,0.301-2.006,1.986
			c0.54-1.555,1.481-0.527,1.332,0.576c-0.102,0.742-0.898,0.746-0.111,1.701c0.424,0.518,1.293,0.332,1.732,0.059
			C19.57,39.24,18.273,36.273,17.229,35.785z"/>
		<path style="clip-path:url(#SVGID_2_);fill:#C9BEB7;" d="M51.557,10.841c-4.982,3.983-13.05-4.823-24.378-1.44
			c-15.489,4.623-9.728,21.004-9.656,22.98c0.061,1.699,1.039,3.791,1.578,4.501c0.419,0.211,1.344,0.215,2.086,0.025
			c-1.388-1.301-1.936-4.826-0.803-8.123c0.632-1.837,1.549-3.129,1.348-5.611c1.352,1.236,11.08,3.093,23.242,0.56
			c3.965-0.825,6.287-3.201,7.518-5.092c-1.015,0.033-1.753,0.182-2.973,0.34C51.294,17.131,51.522,13.503,51.557,10.841z"/>
		<path style="opacity:0.7;clip-path:url(#SVGID_2_);fill:#F0EAE6;" d="M38.761,10.425c-5.546-1.564-14.025-1.727-18.38,2.808
			c-4.354,4.536-0.609,8.472,14.204,8.298c13.521-0.159,16.334-9.699,16.334-9.699C46.878,13.741,44.307,11.99,38.761,10.425z"/>
		<path style="clip-path:url(#SVGID_2_);fill:#9E8F88;" d="M16.752,33.633c1.339,0.09,1.517,2.699,2.479,3.365
			c0.404,0.174,1.271,0.129,1.955-0.09c-1.014-1.475-1.25-5.251-1.26-6.301C19.195,32.172,15.521,33.55,16.752,33.633z"/>
		<path style="opacity:0.7;clip-path:url(#SVGID_2_);fill:#F0EAE6;" d="M15.989,19.032c-0.525,1.241-0.902,2.505-1.076,3.845
			c-0.205,1.593-0.35,3.838,0.834,5.119c1.396,1.513,3.569,0.625,4.131-1.061C21.524,22.002,15.989,19.032,15.989,19.032z"/>
		<path style="opacity:0.1;clip-path:url(#SVGID_2_);" d="M25.874,52.936c1.566,5.889,14.408,7.455,17.165,0.877
			C45.088,48.924,24.671,48.414,25.874,52.936z"/>
		<path style="clip-path:url(#SVGID_2_);fill:#C9BEB7;" d="M47.472,31.059c0.75,15.962-4.234,9.955-4.234,9.955L41.7,41.629
			c0.563,3.895-3.482,5.531-4.148,2.918l-3.789,0.205c-1.025,3.842-5.07-0.408-4.969-2.715c0.103-2.305-1.844-0.563-1.844-0.563
			c-2.512,2.455-5.948-3.664-6.261-4.979l-1.925-0.145c0,0,0.079,21.57,18.636,19.842c15.874-1.48,10.364-25.896,10.364-25.896
			L47.472,31.059z"/>
		<path style="opacity:0.3;clip-path:url(#SVGID_2_);fill:#BF3C1B;" d="M31.048,43.713c1.207,2.975,7.52,2.818,8.442,0.389
			C37.356,44.861,32.7,45.209,31.048,43.713z"/>
		<path style="clip-path:url(#SVGID_2_);fill:#FFCB9E;" d="M36.778,42.162c-1.507,0.131-3.427,0.008-4.755-0.252
			c-1.237-0.242-2.117,0.955-1.187,2.016c1.279,1.457,3.742,1.4,5.356,1.311c1.276-0.072,3.954-0.346,4.162-2.416
			C40.535,41.029,37.521,42.096,36.778,42.162z"/>
		<path style="opacity:0.3;clip-path:url(#SVGID_2_);fill:#6E2210;" d="M26.55,41.717c5.184,2.537,14.413,2.303,17.688-0.545
			C40.132,41.975,30.573,42.535,26.55,41.717z"/>
		<path style="opacity:0.5;clip-path:url(#SVGID_2_);fill:#B54319;" d="M24.171,34.129c0.044,0.629,1.477,0.326,1.905,0.428
			c-0.376,0.389-1.493,0.387-1.952,0.654c-0.488,0.281-0.436,0.471,0.145,0.457c0.347-0.01,2.29-0.463,2.541-0.674
			C27.864,34.102,24.661,33.997,24.171,34.129z"/>
		<path style="opacity:0.5;clip-path:url(#SVGID_2_);fill:#B54319;" d="M46.208,34.66c-0.357-0.268-1.293-0.289-1.566-0.681
			c0.369-0.093,1.537,0.232,1.641-0.387c-0.4-0.139-3.092-0.096-2.301,0.804c0.188,0.213,1.768,0.699,2.059,0.713
			C46.522,35.135,46.588,34.949,46.208,34.66z"/>
		<path style="clip-path:url(#SVGID_2_);fill:#121B21;" d="M28.015,31.428c-1.999-0.873-3.279,2.677-1.919,3.845
			c0.638-0.182,1.392-0.109,1.984,0.182C29.429,34.766,29.503,32.082,28.015,31.428z"/>
		<path style="clip-path:url(#SVGID_2_);fill:#C9BEB7;" d="M36.191,37.955l-1.515-0.047c-1.764-0.174-3.63,0.334-5.215,1.111
			c-0.781,0.381-2.926,1.768-3.309,2.582c4.869,1.465,10.783,1.545,15.854,0.443c0.973-0.211,1.854-0.461,2.666-1.059
			c-1.845-1.48-4.489-3.146-6.951-3.217C37.208,37.754,36.69,37.838,36.191,37.955z"/>
		<path style="opacity:0.3;clip-path:url(#SVGID_2_);fill:#A67663;" d="M36.157,37.264c-1.007,0.023-1.436-0.318-2.113,0.008
			c-0.676,0.328,0.312,1.609,2.089,1.535c1.771-0.072,2.57-1.287,2.169-1.625C37.838,36.787,37.272,37.236,36.157,37.264z"/>
		<path style="clip-path:url(#SVGID_2_);fill:#FFD2AB;" d="M35.528,31.625c-0.874,0.051-1.039,2.417-1.34,3.531
			c-0.305,1.133-0.508,2.176-0.041,2.506c1.146,0.811,3.494,0.301,4.169-0.318c0.267-0.244-0.377-1.395-0.886-2.545
			C36.979,33.78,36.517,31.567,35.528,31.625z"/>
		<path style="clip-path:url(#SVGID_2_);fill:#121B21;" d="M44.138,31.357c-2.051-1.101-3.662,3.249-1.395,3.797
			c0.504-0.365,1.163-0.563,1.744-0.498C45.247,33.74,45.235,31.949,44.138,31.357z"/>
		<path style="clip-path:url(#SVGID_2_);fill:#7D8BA8;" d="M27.435,31.932c-0.813,0.273-0.205,1.857,0.592,1.286
			C28.601,32.805,28.16,31.693,27.435,31.932z"/>
		<path style="clip-path:url(#SVGID_2_);fill:#7D8BA8;" d="M43.62,31.916c-0.779,0.191-0.329,1.71,0.453,1.239
			C44.641,32.816,44.313,31.746,43.62,31.916z"/>
		<path style="clip-path:url(#SVGID_2_);fill:#4F2C1E;" d="M42.366,27.092c-1.804,0.062-3.147-0.025-3.156,0.031
			c-0.01,0.851,0.393,2.577,1.754,2.403c0.816-0.102,1.654-0.326,2.465-0.37c1.443-0.078,2.519,0.158,3.018,0.275
			c0.619,0.147,0.77-0.613,0.535-0.811C46.082,27.874,44.96,27.007,42.366,27.092z"/>
		<path style="clip-path:url(#SVGID_2_);fill:#4F2C1E;" d="M27.979,27.321c-2.908,0.017-4.065,0.934-4.982,1.726
			c-0.242,0.209,0.012,0.97,0.688,0.799c0.545-0.139,1.722-0.423,3.34-0.4c0.912,0.012,1.874,0.206,2.796,0.278
			c1.542,0.12,1.793-1.641,1.687-2.499C31.491,27.17,30,27.308,27.979,27.321z"/>
		<path style="clip-path:url(#SVGID_2_);fill:#FFD2AB;" d="M46.372,36.689c-0.714-0.881-2.033-0.881-2.961-0.756
			c-1.213,0.17-2.77,0.896-1.477,2.66c0.688,0.939,5.596,0.977,4.771-1.305C46.62,37.057,46.509,36.857,46.372,36.689z"/>
		<path style="clip-path:url(#SVGID_2_);fill:#FFD2AB;" d="M28.475,36.826c-0.778-0.939-2.16-0.893-3.134-0.717
			c-1.266,0.229-2.873,1.082-1.457,2.959c0.754,0.998,5.902,0.859,4.961-1.602C28.747,37.215,28.622,37.002,28.475,36.826z"/>
		<path style="opacity:0.7;clip-path:url(#SVGID_2_);fill:#F0EAE6;" d="M37.974,38.908c-0.848,0.389-1.535,0.709-2.486,0.674
			c-0.594-0.021-2.169-0.795-3.088-0.693c-0.96,0.105-2.846,1.287-3.607,1.871c4.505,0.982,10.307,1.311,13.559-0.387
			C41.275,39.471,39.149,38.369,37.974,38.908z"/>
		<path style="opacity:0.7;clip-path:url(#SVGID_2_);fill:#F0EAE6;" d="M43.235,46.645c-1.353-1.633-2.789-0.227-2.729,1.498
			c-2.006-2.797-5.638-0.906-5.793,0.936c-1.137-3.107-4.277-2.896-4.063-0.746c-0.492-1.861-3.119-4.277-5.119-3.926
			c-3.479,0.609-0.513,5.16,0.663,6.725c4.22,5.627,21.376,5.072,20.168-5.85C46.054,42.479,42.833,43.162,43.235,46.645z"/>
		<path style="opacity:0.3;clip-path:url(#SVGID_2_);fill:#A67663;" d="M42.431,31.342c0.828-0.059,1.66-0.074,2.49-0.086
			c0.655-0.01,1.486,0.088,2.105-0.171c0.871-0.363,0.691-1.57,0.158-2.183c-0.566-0.65-1.376-0.428-2.131-0.351
			c-0.975,0.101-1.941,0.271-2.891,0.515c-1.184,0.302-2.572,0.425-3.668,0.992c-1.012,0.526-1.434,0.854-2.699,0.808
			c-2.264-0.08-4.18-1.479-6.44-1.699c-2.354-0.229-4.765-0.493-7.08,0.159c-0.603,0.171-2.423,0.872-1.187,1.513
			c1.205,0.624,3.004,0.414,4.321,0.456c0.608,0.021,1.22,0.033,1.826,0.085c2.153,0.185,5.46-0.133,5.305,2.555
			c-0.106,1.844-1.284,3.745-2.78,4.1c-1.435,0.342-2.973,0.479-4.428,0.482c-1.113,0.002-2.189-0.209-3.207-0.672
			c-0.29-0.131-1.154-0.674-1.432-0.285c-0.471,0.666,1.285,1.754,1.745,1.957c1.05,0.465,2.163,0.602,3.301,0.717
			c2.808,0.281,5.696,0.115,7.265-2.473c0.91-1.5,1.36-3.262,2.201-4.802c1.379-2.52,1.967,0.909,2.357,2.41
			c0.221,0.842,0.547,1.66,1.023,2.375c0.843,1.268,2.531,1.977,3.953,2.074c0.877,0.059,3.665-0.139,4.495-0.48
			c0.501-0.205,0.764-1.039,0.173-1.285c-0.358-0.15-2.875,0.346-3.252,0.322c-0.551-0.033-1.112-0.051-1.652-0.17
			c-0.693-0.148-1.389-0.463-1.969-0.926c-0.404-0.324-0.753-0.721-1.006-1.184c-0.525-0.969-0.529-2.138-0.152-3.167
			C39.695,31.514,41.19,31.43,42.431,31.342z"/>
		<path style="clip-path:url(#SVGID_2_);fill:#3A3A4A;" d="M19.844,29.103c-1.845,0.18-3.455-0.232-3.867,0.168
			c-0.536,0.52,0.562,2.104,0.562,2.104s0.615,0.377,1.485,0.393c0.204,1.276,0.349,4.597,2.841,6.539
			c2.08,1.617,8.538,1.705,10.472,0.57c2.395-1.406,3.3-3.785,3.589-6.09C35.634,27.133,22.444,28.85,19.844,29.103z M31.37,37.363
			c-2.34,1.736-8.634,1.4-10.389-0.502c-1.352-1.469-1.783-4.689-1.049-5.199c2.249-1.563,11.081-1.594,13.217-0.174
			C34.185,32.178,33.146,36.047,31.37,37.363z"/>
		<path style="clip-path:url(#SVGID_2_);fill:#3A3A4A;" d="M49.99,28.472c-2.251-0.132-13.675-1.23-12.896,4.383
			c0.318,2.288,1.17,4.622,3.275,5.915c1.701,1.041,7.268,0.654,9.014-1.061c2.092-2.053,2.117-5.375,2.254-6.659
			c0.751-0.056,1.27-0.46,1.27-0.46s0.899-1.635,0.423-2.13C52.963,28.079,51.586,28.565,49.99,28.472z M49.239,36.273
			c-1.455,1.982-6.873,2.611-8.943,0.986c-1.569-1.232-2.582-5.048-1.709-5.785c1.799-1.518,9.416-1.896,11.401-0.441
			C50.639,31.508,50.362,34.746,49.239,36.273z"/>
		<path style="opacity:0.3;clip-path:url(#SVGID_2_);fill:#FFFFFF;" d="M40.097,31.062c-1.277,0.489,0.947,1.312,1.43,1.413
			c1.674,0.358,3.594,0.346,5.409,0.1c0.956-0.129,3.034-0.914,2.481-1.495C48.642,30.271,41.507,30.52,40.097,31.062z"/>
		<path style="clip-path:url(#SVGID_2_);fill:#FFFFFF;" d="M45.679,31.053c-0.683,0.073-1.135,0.258-0.967,0.584
			c0.332,0.649,4.323,0.517,4.618,0.052C49.62,31.232,47.132,30.897,45.679,31.053z"/>
		<path style="opacity:0.7;clip-path:url(#SVGID_2_);fill:#FFFFFF;" d="M41.27,35.838c-0.427-0.029-0.726,0.059-0.655,0.342
			c0.134,0.555,2.599,0.949,2.83,0.617C43.669,36.471,42.177,35.895,41.27,35.838z"/>
		<path style="opacity:0.7;clip-path:url(#SVGID_2_);fill:#FFFFFF;" d="M22.388,36.305c-0.469-0.043-0.801,0.033-0.736,0.318
			c0.124,0.561,2.824,1.053,3.094,0.73C25.007,37.035,23.388,36.398,22.388,36.305z"/>
		<path style="opacity:0.3;clip-path:url(#SVGID_2_);fill:#FFFFFF;" d="M32.151,31.225c-1.688-0.479-9.924-0.557-10.719,0.222
			c-0.572,0.559,1.914,1.254,3.027,1.356c2.119,0.192,4.328,0.164,6.213-0.211C31.215,32.485,33.679,31.663,32.151,31.225z"/>
		<path style="clip-path:url(#SVGID_2_);fill:#FFFFFF;" d="M28.558,30.984c-0.753,0.074-1.254,0.257-1.07,0.585
			c0.366,0.648,4.772,0.516,5.1,0.051C32.91,31.162,30.162,30.827,28.558,30.984z"/>
		<path style="clip-path:url(#SVGID_2_);fill:#3A3A4A;" d="M38.831,29.555c-1.79,0.536-3.564,0.721-5.881,0.095
			c-1.85-0.5,0.976,1.106,1.193,2.04c0.217,0.937-0.036,3.974,0.578,2.264c0.613-1.711,1.785-1.781,2.527-0.2
			c0.74,1.581,0.893-2.537,1.211-2.913C38.779,30.463,40.565,29.035,38.831,29.555z"/>
		<path style="clip-path:url(#SVGID_2_);fill:#C1C5C9;" d="M20.745,29.594c5.007-0.072,9.002-0.19,12.092,0.777
			C30.767,28.883,27.359,28.748,20.745,29.594z"/>
		<path style="clip-path:url(#SVGID_2_);fill:#C1C5C9;" d="M39.364,30.105c2.59-1.105,5.84-0.828,10.197-1.222
			C43.731,28.762,41.017,28.648,39.364,30.105z"/>
	</g>
</g>
<g id="Layer_1">
</g>
</svg>
