<?xml version="1.0" encoding="iso-8859-1"?>
<!-- Generator: Adobe Illustrator 16.0.0, SVG Export Plug-In . SVG Version: 6.00 Build 0)  -->
<!DOCTYPE svg PUBLIC "-//W3C//DTD SVG 1.1//EN" "http://www.w3.org/Graphics/SVG/1.1/DTD/svg11.dtd">
<svg version="1.1" xmlns="http://www.w3.org/2000/svg" xmlns:xlink="http://www.w3.org/1999/xlink" x="0px" y="0px"
	 width="66.005px" height="66.001px" viewBox="0 0 66.005 66.001" style="enable-background:new 0 0 66.005 66.001;"
	 xml:space="preserve">
<g id="Layer_54">
	<g>
		<defs>
			<circle id="SVGID_1_" cx="33.005" cy="33.001" r="33"/>
		</defs>
		<clipPath id="SVGID_2_">
			<use xlink:href="#SVGID_1_"  style="overflow:visible;"/>
		</clipPath>
		<rect style="clip-path:url(#SVGID_2_);fill:#F1C4B5;" width="66" height="65.998"/>
		<path style="clip-path:url(#SVGID_2_);fill:#FF9819;" d="M46.145,50.872l-3.756,2.963c0.992,1.259,2.457,7.311,2.881,12.163h5.567
			C50.466,61.686,49.235,53.322,46.145,50.872z"/>
		<path style="clip-path:url(#SVGID_2_);fill:#FF9819;" d="M24.287,50.872c-3.091,2.45-4.322,10.813-4.692,15.126h5.567
			c0.424-4.853,1.889-10.904,2.881-12.163L24.287,50.872z"/>
		<path style="clip-path:url(#SVGID_2_);fill:#FFF7EB;" d="M42.315,48.403c-4.861-2.469-11.239-1.618-14.472,0.369
			c-5.519,3.394-2.672,7.041-1.457,17.226h17.665C45.334,57.416,47.795,51.186,42.315,48.403z"/>
		<path style="clip-path:url(#SVGID_2_);fill:#FF9819;" d="M46.526,51.255c-0.41-1.009-4.47-3.289-4.47-3.289
			c-2.17,6.671-1.526,14.388-1.102,18.032h5.502C46.688,57.627,46.873,52.109,46.526,51.255z"/>
		<path style="clip-path:url(#SVGID_2_);fill:#FF9819;" d="M28.408,47.966c0,0-4.061,2.28-4.471,3.289
			c-0.347,0.854-0.161,6.372,0.07,14.743h5.925C30.287,62.056,30.468,54.297,28.408,47.966z"/>
		<path style="opacity:0.1;clip-path:url(#SVGID_2_);" d="M28.706,51.006c0.942,3.149,4.183,4.933,4.183,4.933l2.308-2.522
			l3.03,2.506c2.068-1.063,4.068-3.602,4.102-5.722C42.351,48.676,27.768,47.854,28.706,51.006z"/>
		<path style="clip-path:url(#SVGID_2_);fill:#FFF7EB;" d="M28.743,47.259c-2.58,3.469,3.938,7.85,3.938,7.85l2.534-1.992
			l2.877,2.083c0,0,5.901-3.243,3.809-7.591C40.02,43.698,31.342,43.769,28.743,47.259z"/>
		<path style="clip-path:url(#SVGID_2_);fill:#854422;" d="M33.79,43.124c-1.497,0.414-2.491,2.207-2.595,4.054
			c-0.129,2.337,2.547,5.462,4.404,5.526c1.4,0.033,7.347-4.324,3.169-8.563C37.568,42.923,35.225,42.728,33.79,43.124z"/>
		<ellipse style="clip-path:url(#SVGID_2_);fill:#E6DED4;" cx="35.232" cy="56.83" rx="0.646" ry="0.61"/>
		<ellipse style="clip-path:url(#SVGID_2_);fill:#E6DED4;" cx="35.232" cy="60.356" rx="0.646" ry="0.609"/>
		<ellipse style="clip-path:url(#SVGID_2_);fill:#E6DED4;" cx="35.232" cy="63.882" rx="0.646" ry="0.609"/>
		<circle style="clip-path:url(#SVGID_2_);fill:#FFC566;" cx="28.326" cy="56.36" r="0.979"/>
		<circle style="clip-path:url(#SVGID_2_);fill:#FFC566;" cx="28.326" cy="60.276" r="0.979"/>
		<circle style="clip-path:url(#SVGID_2_);fill:#FFC566;" cx="28.326" cy="64.192" r="0.979"/>
		<rect x="41.966" y="56.335" style="clip-path:url(#SVGID_2_);fill:#FFC566;" width="3.636" height="1.736"/>
		<path style="clip-path:url(#SVGID_2_);fill:#C9BEB7;" d="M56.76,24.43c0.45-0.278,0.764-0.603,0.963-0.954
			c0.836-1.479-0.336-3.443-1.841-4.501c2.951-1.014,0.403-5.288-2.759-4.454c2.703-2.588-1.473-5.734-4.086-3.061
			c0.127-2.971-3.582-5.082-5.677-2.385c-0.387-4.549-5.083-3.92-6.478-0.682c-1.107-4.272-6.616-2.915-7.295,0.764
			c-1.425-2.616-6.646-2.453-6.066,1.639c-2.781-2.135-7.763-0.064-6.08,3.928c-2.828-0.813-6.949,2.322-3.799,4.936
			c-3.684,0.132-4.279,5.236-1.338,6.45c-3.197,1.276-2.414,7.033,1.525,6.352c-2.57,2.767-1.22,6.626,2.676,6.416
			c-0.867,1.741-0.69,5.506,2.16,4.835c-2.181,3.764,4.313,5.348,5.469,1.327c0.091,3.397,3.734,2.771,4.367,2.784
			c2.066,0.043,3.906-1.08,5.972-1.089c3.687-0.017,9.178,3.301,11.507-1.153c1.904,1.354,5.801-0.361,4.416-2.923
			c3.296,1.593,5.002-2.579,4.349-5.067c2.419,1.305,3.856-2.387,1.329-4.703c2.3-0.028,3.482-2.666,1.275-4.029
			C59.861,27.531,59.185,25.497,56.76,24.43z"/>
		<circle style="clip-path:url(#SVGID_2_);fill:#FFF7EB;" cx="49.864" cy="40.401" r="1.354"/>
		<path style="clip-path:url(#SVGID_2_);fill:#9C552C;" d="M32.793,13.182c-7.633,1.594-12.874,12.667-11.331,22.97
			c1.158,7.71,7.234,16.114,16.202,15.355c9.155-0.777,13.561-12.203,12.248-21.691C48.487,19.497,43.478,10.946,32.793,13.182z"/>
		<path style="opacity:0.4;clip-path:url(#SVGID_2_);fill:#66241B;" d="M47.919,16.484c-1.613-0.907-3.46-1.356-5.244-1.849
			c-3.028-0.827-6.152-1.275-9.3-1.299c-2.793-0.023-5.828-0.142-8.41,1c-5.141,2.266-4.792,7.306-4.564,12.053
			c0.076,1.594-0.027,5.92,1.188,6.417c2.007,0.821,2.859-2.159,2.169-3.056c0.368,0.477,2.714-1.056,2.167-2.033
			c1.085,0.154,1.781-0.024,2.504-0.814c0.209,1.011,1.815,1.685,2.738,1.826c1.2,0.186,2.094-0.592,2.724-1.498
			c1.326,1.094,3.718,1.992,4.329-0.247c1.146,1.772,3.247,0.128,4.146-0.819c0.097,0.963,2.225,1.349,3.014,1.178
			c1.111-0.24,1.667-1.189,2.08-2.164c0.684,0.658,2.404,0.553,3.107-0.008c0.992-0.794,0.654-2.525,0.567-3.602
			C50.979,19.649,49.564,17.417,47.919,16.484z"/>
		<path style="clip-path:url(#SVGID_2_);fill:#9C552C;" d="M18.734,31.884c-3.741,1.09-2.158,6.548,0.922,7.611
			c0.99,0.339,2.035,0.373,3.041,0.287c0.019-0.029,0.038-0.06,0.057-0.093c0.44-0.72-0.24-4.709-0.482-5.46
			C21.669,32.345,20.532,31.368,18.734,31.884z"/>
		<path style="opacity:0.7;clip-path:url(#SVGID_2_);fill:#66241B;" d="M20.081,33.888c-0.851-0.381-2.948,0.35-1.934,1.986
			c0.502-1.537,1.447-0.541,1.318,0.544c-0.085,0.731-0.869,0.752-0.076,1.677c0.429,0.506,1.277,0.3,1.703,0.025
			C22.449,37.239,21.118,34.345,20.081,33.888z"/>
		<path style="clip-path:url(#SVGID_2_);fill:#C9BEB7;" d="M49.816,15.394c-2.77-2.877-6.816-4.75-10.83-5.439
			c-2.559-0.432-5.301-0.443-7.871-0.118c-4.323,0.552-9.527,2.576-10.838,6.968c-0.806,2.698-0.326,5.806-0.072,8.542
			c0.189,2.034-0.057,5.146,0.675,7.099c0.343,0.918,2.327-0.268,1.433-3.717c1.274,0.609,2.498-0.023,2.467-2.324
			c1.139,0.486,3.481,0.445,3.647-1.244c0.776,2.111,4.61,2.529,5.868,0.666c0.627,1.312,3.628,0.9,3.668-0.852
			c0.906,1.588,4.318,1.218,5.185-0.418c0.565,1.84,3.984,1.594,4.426-0.531c3.341,1.057,5.314-3.631,3.512-6.748
			C50.74,16.68,50.406,16.007,49.816,15.394z"/>
		<path style="opacity:0.7;clip-path:url(#SVGID_2_);fill:#F0EAE6;" d="M24.271,24.345c0.002,0.002,0.004,0.003,0.006,0.005
			c0-0.002,0.001-0.004,0.001-0.007C24.278,24.289,24.276,24.289,24.271,24.345z"/>
		<path style="opacity:0.7;clip-path:url(#SVGID_2_);fill:#F0EAE6;" d="M53.818,19.077c3.572-1.012-0.259-4.961-2.936-3.37
			c1.081-3.183-0.832-3.421-3.258-2.501c-0.361-2.185-2.992-4.244-4.545-1.524c-0.477-3.243-4.539-3.413-5.769-0.649
			c-2.075-2.023-5.366-3.062-6.304,0.736c-2.158-1.807-6.246-2.527-6.215,1.594c-1.739-1.081-4.219-2.092-5.406,0.025
			c-0.789,1.406-0.463,2.617,0.25,3.975c-3.357-2.123-5.154,1.022-2.428,3.284c-1.276,0.275-3.111,0.702-3.161,2.282
			c-0.046,1.4,1.241,1.806,2.5,1.742c-0.88,0.758-1.69,2.418-0.469,3.23c1.718,1.142,3.076-0.971,3.901-2.097
			c-0.215,2.454,4.368,1.348,4.297-1.455c-0.002-0.002-0.004-0.003-0.006-0.005c0.005-0.056,0.007-0.056,0.007-0.002
			c0,0.003-0.001,0.005-0.001,0.007c1.746,1.641,4.2,0.536,5.26-1.252c0.135-0.226,0.246-0.462,0.33-0.706
			c-0.509,1.458,2.405,1.702,3.124,0.77c1.063,1.445,3.224,1.249,3.941-0.446c0.909,2.739,4.252,0.45,4.864-1.157
			c0.348,0.951,1.693,1.765,2.686,1.811c1.441,0.067,1.857-0.975,2.141-2.244c1.113,0.957,3.387,1.285,4.036-0.395
			c0.716,0.409,1.425,0.415,2.067-0.133c-0.24,1.164-1.271,3.949,0.064,4.779c2.107,1.31,2.453-2.435,1.846-3.549
			C56.449,23.19,55.904,19.714,53.818,19.077z"/>
		<path style="clip-path:url(#SVGID_2_);fill:#FFF7EB;" d="M20.805,40.331c-0.748,0.01-1.346,0.627-1.336,1.369
			c0.011,0.748,0.625,1.346,1.372,1.337c0.747-0.01,1.347-0.626,1.337-1.372C22.167,40.921,21.552,40.321,20.805,40.331z"/>
		<path style="opacity:0.7;clip-path:url(#SVGID_2_);fill:#66241B;" d="M24.618,33.823c0.044,0.625,1.469,0.324,1.895,0.424
			c-0.374,0.389-1.483,0.387-1.938,0.65c-0.486,0.279-0.434,0.469,0.143,0.455c0.344-0.01,2.275-0.459,2.523-0.669
			C28.291,33.796,25.106,33.691,24.618,33.823z"/>
		<path style="opacity:0.7;clip-path:url(#SVGID_2_);fill:#66241B;" d="M49.494,34.356c-0.457-0.266-1.566-0.264-1.939-0.65
			c0.426-0.102,1.849,0.199,1.893-0.426c-0.487-0.131-3.671-0.026-2.622,0.86c0.249,0.211,2.181,0.661,2.524,0.67
			C49.926,34.823,49.979,34.636,49.494,34.356z"/>
		<path style="clip-path:url(#SVGID_2_);fill:#D17642;" d="M45.947,35.552c-1.311-0.01-3.126,0.524-2.209,2.62
			c0.491,1.118,5.631,1.927,5.331-0.647c-0.028-0.271-0.098-0.5-0.199-0.699C48.342,35.765,46.953,35.56,45.947,35.552z"/>
		<path style="clip-path:url(#SVGID_2_);fill:#D17642;" d="M30.011,36.733c-0.786-1.026-2.327-1-3.421-0.83
			c-1.422,0.225-3.277,1.115-1.861,3.166c0.754,1.09,6.48,1.033,5.64-1.632C30.279,37.155,30.156,36.927,30.011,36.733z"/>
		<path style="clip-path:url(#SVGID_2_);fill:#261B18;" d="M28.403,30.615c-2.134-0.747-3.128,3.179-1.624,4.298
			c0.642-0.252,1.422-0.248,2.057,0.006C30.159,34.054,29.99,31.167,28.403,30.615z"/>
		<path style="opacity:0.7;clip-path:url(#SVGID_2_);fill:#F0DED1;" d="M28.039,32.036c-0.873,0.158-0.505,1.941,0.396,1.465
			C29.09,33.161,28.814,31.9,28.039,32.036z"/>
		<path style="clip-path:url(#SVGID_2_);fill:#261B18;" d="M47.33,30.434c-2.123-1.353-3.994,3.614-1.633,4.328
			c0.572-0.392,1.258-0.394,1.867-0.294C48.379,33.407,48.469,31.162,47.33,30.434z"/>
		<path style="opacity:0.7;clip-path:url(#SVGID_2_);fill:#F0DED1;" d="M46.483,31.638c-0.838,0.021-0.72,1.879,0.187,1.543
			C47.325,32.935,47.228,31.62,46.483,31.638z"/>
		<path style="clip-path:url(#SVGID_2_);fill:#121B21;" d="M47.39,30.329c-1.946-0.75-2.587,1.559-2.587,1.559
			s0.943-1.162,2.271-0.421c3.007,1.68,4.949-0.361,4.949-0.361C49.638,31.904,48.436,30.735,47.39,30.329z"/>
		<path style="clip-path:url(#SVGID_2_);fill:#121B21;" d="M26.99,30.753c-0.77,0.411-2.551,1.643-4.966,0.996
			c0,0,2.333,1.932,5.19,0.07c1.252-0.817,2.363,0.125,2.363,0.125S28.996,29.673,26.99,30.753z"/>
		<path style="opacity:0.7;clip-path:url(#SVGID_2_);fill:#66241B;" d="M26.94,40.829c1.077,2.043,3.7,1.053,2.593-1.029
			C29.093,40.84,27.86,41.271,26.94,40.829z"/>
		<path style="opacity:0.7;clip-path:url(#SVGID_2_);fill:#66241B;" d="M44.284,39.444c-0.576,2.16,2.267,2.908,2.823,0.793
			C46.305,40.755,44.98,40.44,44.284,39.444z"/>
		<path style="clip-path:url(#SVGID_2_);fill:#611F16;" d="M45.512,40.554c-0.328-0.107-0.679,0.036-0.779,0.317
			c-1.039,2.915-4.162,4.827-7.798,4.803c-3.501-0.021-6.3-1.844-7.444-4.251c-0.137-0.291-0.503-0.438-0.818-0.336
			c-0.314,0.106-0.464,0.42-0.326,0.704c1.313,2.767,4.437,4.85,8.325,4.978c0.11,0.004,0.22,0.006,0.328,0.006
			c4.183,0.029,7.724-2.152,8.925-5.514C46.025,40.974,45.84,40.659,45.512,40.554z"/>
		<path style="opacity:0.7;clip-path:url(#SVGID_2_);fill:#66241B;" d="M37.577,36.97c-0.843,0.022-1.594-0.414-2.37,0.002
			c-0.781,0.412,0.162,1.7,2.394,1.611c2.22-0.086,2.806-1.273,2.379-1.708C39.484,36.37,38.51,36.947,37.577,36.97z"/>
		<path style="clip-path:url(#SVGID_2_);fill:#D17642;" d="M37.449,33.128c-1.584-0.107-2.744,2.76-2.044,3.686
			c0.491,0.648,3.972,0.581,4.496-0.193C40.093,36.337,38.963,33.23,37.449,33.128z"/>
		<path style="clip-path:url(#SVGID_2_);fill:#C9BEB7;" d="M26.865,27.187c-1.965,0.285-3.463,1.035-3.373,1.607
			c0.061,0.373,0.943-0.264,3.656-0.361c2.168-0.078,4.063,0.902,4.146-0.35C31.345,27.325,29.017,26.876,26.865,27.187z"/>
		<path style="clip-path:url(#SVGID_2_);fill:#C9BEB7;" d="M47.363,26.884c-2.15-0.312-4.479,0.139-4.429,0.896
			c0.084,1.252,1.979,0.271,4.146,0.349c2.713,0.099,2.768,0.799,2.827,0.425C49.999,27.982,49.329,27.169,47.363,26.884z"/>
		<path style="opacity:0.3;clip-path:url(#SVGID_2_);fill:#66241B;" d="M48.415,28.262c-1.546,0.075-3.087,0.31-4.585,0.7
			c-1.277,0.332-2.78,0.48-3.959,1.088c-1.088,0.559-1.544,0.926-2.855,0.867c-2.344-0.104-4.313-1.57-6.654-1.821
			c-2.438-0.262-4.93-0.556-7.335,0.101c-0.625,0.169-2.517,0.879-1.242,1.553c1.243,0.658,3.106,0.458,4.472,0.514
			c0.629,0.026,1.263,0.045,1.89,0.105c2.228,0.21,5.656-0.086,5.47,2.695c-0.129,1.91-1.364,3.867-2.916,4.222
			c-1.49,0.34-3.084,0.468-4.592,0.457c-1.154-0.01-2.267-0.236-3.316-0.726c-0.297-0.14-1.188-0.711-1.479-0.309
			c-0.495,0.684,1.314,1.826,1.787,2.042c1.085,0.493,2.237,0.643,3.414,0.771c2.904,0.319,5.896,0.176,7.547-2.491
			c0.955-1.545,1.439-3.365,2.326-4.951c1.449-2.597,2.117,0.937,2.57,2.482c0.254,0.869,0.624,1.711,1.151,2.444
			c0.937,1.299,2.78,2.006,4.325,2.082c0.951,0.047,1.926,0,2.818-0.364c0.541-0.223,0.76-0.846,0.115-1.092
			c-0.391-0.147-1.016-0.043-1.425-0.061c-0.599-0.025-1.206-0.035-1.796-0.148c-0.754-0.144-1.514-0.457-2.149-0.928
			c-0.445-0.33-0.83-0.734-1.113-1.211c-0.588-0.99-0.612-2.203-0.222-3.274c0.537-1.474,2.156-1.585,3.5-1.698
			c1.626-0.135,3.271-0.1,4.891-0.244c0.723-0.064,1.44,0.035,2.161,0.061c0.927,0.033,2.929-0.256,1.831-1.605
			C51.989,28.224,49.914,28.187,48.415,28.262z"/>
		<path style="clip-path:url(#SVGID_2_);fill:#FF6DAA;" d="M20.717,28.165c-1.918,0.057-3.555-0.479-4.007-0.094
			c-0.589,0.5,0.437,2.214,0.437,2.214s0.609,0.433,1.508,0.509c0.121,1.333,0.042,4.775,2.484,6.951
			c2.039,1.816,8.704,2.352,10.783,1.312c2.57-1.287,3.668-3.682,4.127-6.046C37.17,27.216,23.422,28.081,20.717,28.165z
			 M32.059,37.496c-2.536,1.632-9.018,0.851-10.699-1.233c-1.297-1.611-1.521-4.969-0.726-5.447
			c2.431-1.457,11.561-0.883,13.669,0.733C35.326,32.331,33.986,36.256,32.059,37.496z"/>
		<path style="clip-path:url(#SVGID_2_);fill:#FF6DAA;" d="M52.174,27.688c-2.445-0.004-14.883-0.462-13.707,5.294
			c0.48,2.349,1.538,4.709,3.895,5.922c1.905,0.977,7.909,0.248,9.699-1.627c2.145-2.248,1.977-5.688,2.049-7.021
			c0.809-0.102,1.346-0.551,1.346-0.551s0.879-1.744,0.332-2.228C55.369,27.104,53.907,27.689,52.174,27.688z M51.82,35.8
			c-1.461,2.135-7.289,3.105-9.627,1.547c-1.773-1.182-3.095-5.065-2.191-5.88c1.858-1.677,10.085-2.52,12.321-1.132
			C53.054,30.788,52.945,34.153,51.82,35.8z"/>
		<path style="opacity:0.3;clip-path:url(#SVGID_2_);fill:#FFFFFF;" d="M41.612,30.949c-1.354,0.583,1.103,1.3,1.631,1.378
			c1.835,0.271,3.913,0.144,5.866-0.218c1.025-0.19,3.23-1.126,2.596-1.692C50.817,29.626,43.107,30.308,41.612,30.949z"/>
		<path style="clip-path:url(#SVGID_2_);fill:#FFFFFF;" d="M47.656,30.609c-0.734,0.117-1.216,0.333-1.012,0.663
			c0.396,0.65,4.711,0.279,5.002-0.221C51.936,30.563,49.221,30.36,47.656,30.609z"/>
		<path style="opacity:0.7;clip-path:url(#SVGID_2_);fill:#FFFFFF;" d="M42.982,35.986c-0.463-0.021-0.785,0.075-0.703,0.364
			c0.156,0.575,2.834,0.941,3.078,0.596C45.596,36.603,43.969,36.029,42.982,35.986z"/>
		<path style="opacity:0.7;clip-path:url(#SVGID_2_);fill:#FFFFFF;" d="M22.851,35.784c-0.482-0.078-0.831-0.023-0.783,0.277
			c0.089,0.588,2.847,1.281,3.146,0.969C25.507,36.719,23.876,35.948,22.851,35.784z"/>
		<path style="opacity:0.3;clip-path:url(#SVGID_2_);fill:#FFFFFF;" d="M33.29,31.207c-1.71-0.61-10.216-1.263-11.093-0.511
			c-0.629,0.539,1.893,1.428,3.037,1.61c2.176,0.345,4.46,0.468,6.436,0.21C32.236,32.444,34.838,31.765,33.29,31.207z"/>
		<path style="clip-path:url(#SVGID_2_);fill:#FFFFFF;" d="M29.593,30.708c-0.783,0.026-1.313,0.18-1.145,0.531
			c0.333,0.696,4.895,0.863,5.265,0.406C34.08,31.194,31.263,30.656,29.593,30.708z"/>
		<path style="clip-path:url(#SVGID_2_);fill:#FF6DAA;" d="M40.084,29.513c-1.778,0.811-3.511,0.937-5.984,0.055
			c-1.868-0.666,0.98,1.216,1.197,2.188c0.216,0.97-0.111,3.936,0.541,2.17c0.651-1.768,1.957-1.878,2.789-0.253
			c0.832,1.624,0.775-2.714,1.115-3.108C40.082,30.167,41.861,28.699,40.084,29.513z"/>
		<path style="clip-path:url(#SVGID_2_);fill:#FFD1E2;" d="M21.615,28.735c5.18,0.27,9.316,0.424,12.441,1.637
			C32.02,28.691,28.509,28.314,21.615,28.735z"/>
		<path style="clip-path:url(#SVGID_2_);fill:#FFD1E2;" d="M51.734,28.138c-6.32,0.22-9.268,0.26-10.971,1.865
			C43.503,28.706,47.039,28.802,51.734,28.138z"/>
	</g>
</g>
<g id="Layer_1">
</g>
</svg>
