<?xml version="1.0" encoding="iso-8859-1"?>
<!-- Generator: Adobe Illustrator 16.0.0, SVG Export Plug-In . SVG Version: 6.00 Build 0)  -->
<!DOCTYPE svg PUBLIC "-//W3C//DTD SVG 1.1//EN" "http://www.w3.org/Graphics/SVG/1.1/DTD/svg11.dtd">
<svg version="1.1" xmlns="http://www.w3.org/2000/svg" xmlns:xlink="http://www.w3.org/1999/xlink" x="0px" y="0px"
	 width="66.011px" height="66px" viewBox="0 0 66.011 66" style="enable-background:new 0 0 66.011 66;" xml:space="preserve">
<g id="Layer_28">
	<g>
		<defs>
			<circle id="SVGID_1_" cx="33.011" cy="33" r="33"/>
		</defs>
		<clipPath id="SVGID_2_">
			<use xlink:href="#SVGID_1_"  style="overflow:visible;"/>
		</clipPath>
		<rect style="clip-path:url(#SVGID_2_);fill:#B3977F;" width="66" height="66"/>
		<path style="clip-path:url(#SVGID_2_);fill:#BBA7DB;" d="M26.99,57.434c0.955-0.805,1.075-2.232,0.269-3.188
			c-0.806-0.955-2.234-1.072-3.188-0.268c-3.621,3.06-4.551,9.444-4.711,12.021h4.545C24.122,63.787,25.129,59.006,26.99,57.434z"/>
		<path style="clip-path:url(#SVGID_2_);fill:#BBA7DB;" d="M44.195,53.979c-0.954-0.805-2.383-0.688-3.188,0.268
			c-0.807,0.955-0.687,2.383,0.269,3.188c1.861,1.572,2.868,6.354,3.086,8.566h4.545C48.746,63.423,47.816,57.038,44.195,53.979z"/>
		<path style="clip-path:url(#SVGID_2_);fill:#DE3E78;" d="M43.123,63.461c0.093-4.367,3.398-8.35,1.208-9.6
			c-4.795-2.738-14.326-3.82-20.075,0c-2.318,1.539,1.271,5.084,1.321,9.6c0.01,0.904,0.029,1.74,0.05,2.539h17.385
			C43.061,65.207,43.104,64.375,43.123,63.461z"/>
		<path style="clip-path:url(#SVGID_2_);fill:#F06799;" d="M38.862,57.48c-1.768,1.814-7.734,1.967-9.986-0.35
			c-1.27-1.307-2.502,1.43-1.945,3.299c0.738,2.479,4.32,3.125,7.43,3.068c6.136-0.113,8.106-2.93,7.021-5.98
			C41.091,56.699,40.04,56.271,38.862,57.48z"/>
		<path style="clip-path:url(#SVGID_2_);fill:#FFD1E2;" d="M24.122,50.623c-1.884,2.877,1.653,5.482,10.258,5.482
			c7.946,0,12.108-2.771,10.158-5.482C38.547,42.295,30.267,41.242,24.122,50.623z"/>
		<path style="clip-path:url(#SVGID_2_);fill:#DE3E78;" d="M27.208,51.422c-0.863,2.438,2.707,3.77,7.184,3.707
			c4.477-0.064,9.103-1.467,6.824-4.16C39.167,48.547,28.229,48.537,27.208,51.422z"/>
		<path style="clip-path:url(#SVGID_2_);fill:#F1AA83;" d="M34.447,47.496c-1.982-0.004-4.777,0.963-4.976,3.504
			c-0.093,1.182,0.118,1.867,0.85,2.521c1.172,1.049,2.624,1.9,4.126,1.926c1.502-0.025,2.952-0.877,4.125-1.926
			c0.732-0.654,0.942-1.34,0.85-2.521C39.223,48.459,36.429,47.492,34.447,47.496z"/>
		<path style="clip-path:url(#SVGID_2_);fill:#FFD1E2;" d="M39.367,55.293c-0.164-0.172-0.434-0.176-0.606-0.012
			c-0.171,0.166-0.175,0.438-0.011,0.607c1.275,1.32,2.24,3.199,2.864,5.584c0.052,0.193,0.225,0.32,0.415,0.32
			c0.036,0,0.072-0.004,0.109-0.014c0.229-0.061,0.365-0.295,0.306-0.523C41.781,58.727,40.746,56.721,39.367,55.293z"/>
		<path style="clip-path:url(#SVGID_2_);fill:#FFD1E2;" d="M29.371,55.293c-1.38,1.428-2.415,3.434-3.077,5.963
			c-0.061,0.229,0.077,0.463,0.306,0.523c0.037,0.01,0.072,0.014,0.108,0.014c0.191,0,0.364-0.127,0.415-0.32
			c0.625-2.385,1.589-4.264,2.864-5.584c0.165-0.17,0.16-0.441-0.011-0.607C29.806,55.117,29.536,55.121,29.371,55.293z"/>
		<path style="clip-path:url(#SVGID_2_);fill:#F06799;" d="M39.347,50.201c-0.009,5.043-6.882,5.408-5.261,5.432
			C42.588,55.76,41.102,50.875,39.347,50.201z"/>
		<path style="clip-path:url(#SVGID_2_);fill:#F06799;" d="M29.57,50.201c-1.755,0.674-3.241,5.559,5.26,5.432
			C36.452,55.609,28.907,54.971,29.57,50.201z"/>
		<path style="clip-path:url(#SVGID_2_);fill:#C93712;" d="M52.863,28.605c2.514-0.701,5.305-6.229,1.021-5.876
			c1.178,1.723-1.556,2.554-2.47,1.252c-0.081-0.115-0.141-0.222-0.149-0.325c-0.172-2.159-2.417-3.624-4.127-4.938
			c-2.501-1.924-5.762-3.482-8.933-4.171c-5.589-1.215-12.247-0.823-16.633,2.911c-1.765,1.503-3.293,4.628-5.757,5.242
			c-3.026,0.756-4.675,3.86-2.249,5.774c-1.24,0.755-2.45-0.117-2.675-1.277c-2.597,1.844-3.535,5.377,0.101,6.93
			c-4.21,2.232-3.106,6.672,1.444,8.553c-2.103,1.992-0.976,5.324,1.173,6.623c-0.182-1.391,1.082-4.512,3.51-2.953
			c1.491,0.957,0.738,3.576-1.29,2.289c-0.505,2.369,5.44,4.514,8.563,1.68c2.993-2.719,6.094-3.568,9.687-3.568
			c7.462,0,8.099,1.785,10.125,3.443c2.742,2.244,6.271-1.146,6.087-2.66c-1.092,0.787-5.065-0.277-3.224-1.52
			c1.235-0.834,2.689,0.189,3.873-0.52c1.396-0.838,0.791-3.779,0.891-3.844c1.007-0.645,2.683-0.715,2.806,1.053
			c2.032-4.131,0.041-5.244-2.197-5.527C57.377,36.336,58.261,29.51,52.863,28.605z"/>
		<path style="clip-path:url(#SVGID_2_);fill:#FFF9F0;" d="M47.884,39.771c-0.772,0.031-1.384,0.682-1.365,1.455
			c0.017,0.773,0.659,1.373,1.43,1.344c0.772-0.033,1.383-0.684,1.366-1.457C49.295,40.342,48.655,39.74,47.884,39.771z"/>
		<path style="clip-path:url(#SVGID_2_);fill:#FFCB9E;" d="M32.759,14.158c-8.214,0.849-14.527,7.923-13.893,18.985
			c0.634,11.062,8.769,19.792,17.461,18.724c7.203-0.885,13.242-9.945,11.738-22.051C46.72,18.974,40.973,13.309,32.759,14.158z"/>
		<path style="clip-path:url(#SVGID_2_);fill:#FFCB9E;" d="M16.724,31.415c-3.558,1.678-1.821,7.804,1.186,8.677
			c0.964,0.281,1.97,0.203,2.935-0.01c0.018-0.037,0.034-0.076,0.053-0.115c0.396-0.881-0.568-4.984-0.828-5.822
			C19.414,32.033,18.433,30.609,16.724,31.415z"/>
		<path style="opacity:0.4;clip-path:url(#SVGID_2_);fill:#D14F2E;" d="M18.79,33.538c-0.966-0.503-3.453,0.203-2.379,2.199
			c0.682-1.769,1.72-0.539,1.501,0.732c-0.146,0.852-1.06,0.82-0.198,1.963c0.466,0.619,1.47,0.447,1.984,0.15
			C21.331,37.646,19.967,34.152,18.79,33.538z"/>
		<path style="opacity:0.2;clip-path:url(#SVGID_2_);fill:#BF3C1B;" d="M29.756,18.503c-2.248,0.444-4.394,1.184-6.252,2.153
			c-2.908,1.519-3.079,3.053-4.469,5.862c-0.701,1.419-2.426,2.86-0.739,4.321c-1.673,0.658-2.025,3.554-0.954,4.849
			c0.298,0.359,0.642,0.615,1.108,0.684c-0.373,0.725-0.575,1.678-0.198,2.48c0.429,0.912,1.17,1.719,2.09,1.535
			c0.037,0.732,0.381,2.025,0.861,2.627c1.184,1.48,3.281,2.012,4.587,0.859c1.256-1.107,1.074-2.654-0.549-3.305
			c-0.142,0.467-0.688,0.975-1.187,0.607c-0.627-0.461,0.179-2.035,0.156-2.668c-0.057-1.688-1.09-1.021-2.059-1.893
			c0.49-0.475,1.183-1.037,1.156-1.863c-0.033-1.029-0.745-1.16-1.373-1.679c-1.05-0.869-0.73-0.716-0.181-1.657
			c0.679-1.163,1.099-2.681-0.312-3.555c0.678-0.074,1.367-0.389,1.467-1.121c1.211,0.624,2.606-0.659,2.979-1.746
			c-0.114,0.333,1.326-0.313,1.416-0.381c0.49-0.372,0.866-1.173,1.066-1.729c0.122,1.512,1.693,2.511,2.898,1.312
			c0.806,1.863,2.392,1.79,4.13,1.344c0.628,2.146-1.21,1.278-1.813,2.36c-1.003,1.801,2.69,2.538,3.677,2.172
			c1.15-0.425,1.771-1.691,1.697-2.871c0.156,1.401,2.157,0.726,2.873,0.191c0.446,1.962,2.274,2.351,3.689,0.999
			c0.286,3.239,4.522,3.141,3.633-0.63C47.105,19.058,37.784,16.911,29.756,18.503z"/>
		<path style="clip-path:url(#SVGID_2_);fill:#C93712;" d="M50.058,14.742c1.761-3.794-5.712-6.592-8.517-4.507
			c-0.496-4.645-6.356-4.85-9.118-1.525c-1.05-1.669-3.384-2.051-3.736-2.105c-1.604-0.252-3.367,0.097-4.402,1.335
			c1.562-0.035,4.236,2.94-0.466,2.559c-1.95-0.158-3.113-0.887-5.047,0.187c-1.567,0.87-2.618,2.376-1.112,3.815
			c-0.016,0.015-3.488-0.16-3.977,2.981c-0.199,1.292,0.333,1.604-0.943,2.586c-0.858,0.66-1.76,1.056-2.892,0.715
			c0.003,1.267,1.204,2.865,1.813,3.294c1.221,0.856,2.548,0.706,3.838,0.061c-0.121,0.795,2.327,7.516,3.364,6.787
			c-1.705,1.198-2.413,3.584-0.707,4.661c0.271,0.168,0.599,0.305,0.993,0.4c-2.592,0.99-0.479,4.846,2.077,3.545
			c-2.2,2.68,4.476,5.709,4.578,2.514c0.028-0.854-0.574-1.791-1.432-1.959c0.439,0.088,0.629,2.035-0.54,1.559
			c-1.727-0.703,1.242-3.086-0.337-4.033c-0.774-0.461-3.028,0.082-2.205-1.35c0.585-1.02,1.868-1.561,0.313-2.777
			c-0.463-0.359-1.26-0.394-1.31-1.106c-0.047-0.667,0.772-0.976,1.076-1.41c1.06-1.526-0.635-3.297-2.014-3.833
			c0.881-0.062,3.383,0.341,3.077-1.329c1.397,1.189,3.404-0.53,2.83-2.148c0.261,0.733,1.584,0.476,2.02,0.172
			c0.814-0.568,0.726-1.65,1.138-2.467c0.178,0.882,0.376,1.765,1.229,2.208c0.854,0.444,1.776,0.281,2.218-0.599
			c0.542,1.803,2.342,3.249,3.902,1.415c0.362,0.688,0.583,1.671,0.088,2.353c-0.747,1.025-1.763-0.027-2.399,0.461
			c-0.797,0.612,0.685,1.867,1.224,2.031c1.051,0.318,2.542-0.227,3.171-1.121c0.513-0.729,0.371-1.561,0.403-2.392
			c0.895,1.411,2.378,2.346,3.822,0.847c1.074,1.323,2.129,1.948,3.63,0.607c0.741,1.2,0.634,2.829,2.385,3.062
			c2.036,0.271,1.892-2.079,1.511-3.433c-0.478-1.7-1.143-5.02,0.811-6.539c1.211-0.941,3.029-0.367,2.481,1.246
			c1.756-1.162,1.919-2.813,1.129-4.44C53.496,15.979,51.875,14.933,50.058,14.742z"/>
		<path style="clip-path:url(#SVGID_2_);fill:#FFF9F0;" d="M19.292,40.691c-0.711,0.027-1.276,0.629-1.259,1.342
			c0.017,0.713,0.606,1.268,1.318,1.238c0.713-0.027,1.276-0.629,1.261-1.342C20.596,41.217,20.006,40.664,19.292,40.691z"/>
		<path style="clip-path:url(#SVGID_2_);fill:#E85216;" d="M49.379,23.876c-0.052-0.948-0.001-1.51-0.237-2.501
			c-0.311-1.307-1.071-1.645-2.29-1.585c1.406-2.139,4.09-2.521,5.829-0.767c0.628-2.354-2.256-4.397-4.556-3.77
			c0.469-1.366,0.85-3.05-0.508-4.091c-1.452-1.116-3.762-1.191-5.281-0.243c-1.259,0.785-2.658,2.334-4.477,1.234
			c1.078,0.652,3.608-3.027,0.548-4.3c-1.906-0.791-3.537,0.293-4.81,1.568c-0.397,0.399-0.801,0.839-1.012,1.356
			c-1.326-2.438-3.322-3.912-6.443-3.129c2.378,0.012,3.412,3.701,1.284,4.765c-1.237,0.62-2.4-0.686-3.409-1.127
			c-0.943-0.412-2.381-0.561-3.392-0.276c-0.95,0.269-2.178,1.192-2.541,2.089c1.696-0.239,2.707,3.085,6.409,1.993
			c-1.549,1.325-3.249,1.466-4.666,0.826c-0.955-0.433-2.188-0.804-3.268-0.196c-1.566,0.883-1.142,3.086-1.904,4.458
			c-0.688,1.237-1.355,1.393-2.631,1.776c1.369,0.869,2.141,0.947,3.803,0.762c-1.122,0.126-1.762,1.714-1.848,2.58
			c-0.112,1.131,0.875,2.004,0.722,3.051c-0.13,0.885-1.329,1.479-2.154,1.46c0.565,0.613,1.445,0.619,2.207,0.347
			c0.95-0.34,1.143-1.593,1.927-1.773c1.073-0.246,2.213,1.546,2.204,2.374c1.606-0.799-0.335-3.27-1.294-3.984
			c1.063-0.003,3.982-0.166,3.767-1.656c0.13,0.898,2.054-0.021,2.297-0.51c0.339-0.679,0.159-1.725-0.534-2.15
			c0.603,0.074,1.724,0.637,2.188,0.075c0.393-0.477-0.098-1.581-0.362-2.005c4.882,1.819,3.437-3.19,0.459-3.085
			c2.252-0.208,2.848-0.556,3.078-4.012c-0.001-0.011-0.002-0.021-0.003-0.032c0.001-0.067,0.01-0.067,0.005,0.001
			c-0.001,0.011-0.002,0.021-0.002,0.031c0.186,2.002-0.32,4.021,3.075,3.666c-4.893,1.794-2.899,5.738,1.989,4.534
			c-0.743,0.184-0.78,1.588,0.344,2.377c0.693,0.486,2.164,0.19,2.435-0.171c0.887,1.329,1.171,2.502,0.144,3.697
			c1.181,0.052,1.602-1.707,1.768-2.564c0.895,0.525,1.712,1.339,2.813,0.887c0.834-0.342,1.271-1.255,1.805-1.898
			c0.028,1.476,0.6,2.568,1.496,2.751c1.077,0.221,1.917-0.162,2.689-0.978c-0.066,1.24,0.518,2.333,1.183,2.963
			c0.631,0.598,2.072,1.402,3.322,0.492c-0.544,0.007-0.984-0.256-1.217-0.713c2.068-0.226,3.673-1.343,3.466-3.466
			C52.385,25.67,49.5,26.039,49.379,23.876z"/>
		<path style="clip-path:url(#SVGID_2_);fill:#E85216;" d="M28.48,13.399c0.001,0.011,0.002,0.021,0.003,0.032
			c0-0.011,0.001-0.021,0.002-0.031C28.49,13.332,28.481,13.332,28.48,13.399z"/>
		<path style="clip-path:url(#SVGID_2_);fill:#C93712;" d="M40.376,21.115c0.97,3.284,3.811,4.136,5.472,1.424
			C44.099,24.138,41.192,22.833,40.376,21.115z"/>
		<path style="clip-path:url(#SVGID_2_);fill:#C93712;" d="M18.527,25.067c2.02,1.659,4.386,0.02,3.354-2.396
			C21.679,24.254,19.761,25.524,18.527,25.067z"/>
		<path style="clip-path:url(#SVGID_2_);fill:#C93712;" d="M46.039,23.726c-1.189,2.272,1.076,4.033,3.283,2.476
			C47.654,26.415,45.881,24.974,46.039,23.726z"/>
		<path style="clip-path:url(#SVGID_2_);fill:#C93712;" d="M43.216,18.518c1.519,1.72,3.44,2.065,5.659,1.171l-0.105-1.511
			C47.405,18.898,45.307,19.276,43.216,18.518z"/>
		<path style="clip-path:url(#SVGID_2_);fill:#C93712;" d="M44.23,14.097c1.52,1.72,2.909,1.581,4.318,1.072l0.231-1.713
			C47.796,14.307,45.729,14.92,44.23,14.097z"/>
		<path style="clip-path:url(#SVGID_2_);fill:#C93712;" d="M13.645,22.817l0.481,1.478c2.41,0.025,4.049-0.989,4.769-3.128
			C17.262,22.623,15.194,22.989,13.645,22.817z"/>
		<path style="clip-path:url(#SVGID_2_);fill:#E85216;" d="M10.557,29.266l-0.069-0.974c-1.011,1.133-1.736,2.406-0.971,3.781
			c0.501,0.899,1.876,1.853,2.968,1.063c0.439-0.318,0.571-1.14,0.663-1.614c-0.02-0.018-0.042-0.035-0.063-0.054
			C11.727,31.631,10.264,30.591,10.557,29.266z"/>
		<path style="clip-path:url(#SVGID_2_);fill:#E85216;" d="M12.081,34.555l-0.813,0.498c-1.965,0.064-2.925,3.328-2.061,4.715
			c0.529,0.848,1.618,1.432,2.64,1.609c-0.722-1.084-1.4-2.383-1.075-3.695C11.046,36.572,12.063,35.746,12.081,34.555z"/>
		<path style="clip-path:url(#SVGID_2_);fill:#E85216;" d="M54.32,30.237c-0.524-0.35-1.125-0.594-1.764-0.702l0.004,0.325
			c1.772,2.221,1.464,3.919,0.506,6.222c0.004,0,0.09,0.082,0.092,0.059C55.586,35.117,56.712,31.831,54.32,30.237z"/>
		<path style="clip-path:url(#SVGID_2_);fill:#E85216;" d="M53.185,38.137l-0.821-0.207c-0.337,1.918,2.068,1.443,2.37,2.848
			C55.137,39.6,54.917,38.027,53.185,38.137z"/>
		<path style="clip-path:url(#SVGID_2_);fill:#E85216;" d="M12.539,43.811c-0.989,0.988-0.83,3.102,0.238,4.043
			c0.038-0.615,0.431-1.098,0.423-1.723c-0.008-0.576-0.428-1.025-0.361-1.674L12.539,43.811z"/>
		<path style="clip-path:url(#SVGID_2_);fill:#FF9873;" d="M46.853,37.334c-0.431-0.785-1.497-0.99-2.27-1.037
			c-1.007-0.059-2.385,0.254-1.632,1.799c0.402,0.824,4.361,1.615,4.07-0.254C46.993,37.65,46.935,37.482,46.853,37.334z"/>
		<path style="clip-path:url(#SVGID_2_);fill:#FF9873;" d="M28.527,37.164c-0.607-0.811-1.813-0.803-2.672-0.678
			c-1.117,0.162-2.576,0.842-1.486,2.463c0.58,0.861,5.068,0.865,4.432-1.232C28.735,37.5,28.642,37.318,28.527,37.164z"/>
		<path style="clip-path:url(#SVGID_2_);fill:#C93712;" d="M41.093,29.574c2.199,0.183,4.029-0.489,7.33-0.253
			C47.195,27.818,42.72,27.839,41.093,29.574z"/>
		<path style="opacity:0.4;clip-path:url(#SVGID_2_);fill:#D14F2E;" d="M36.775,37.908c-0.749,0.018-1.051-0.293-1.57,0
			c-0.52,0.295,0.63,1.301,1.555,1.213c1.046-0.1,1.896-0.971,1.615-1.279C38.048,37.482,37.606,37.889,36.775,37.908z"/>
		<path style="clip-path:url(#SVGID_2_);fill:#C93712;" d="M22.704,29.422c4.123,0.05,5.515,0.216,8.376,0.108
			C29.554,27.617,24.503,27.808,22.704,29.422z"/>
		<path style="clip-path:url(#SVGID_2_);fill:#261B18;" d="M27.322,30.798c-2.18-0.79-3.243,3.221-1.714,4.389
			c0.658-0.254,1.459-0.238,2.107,0.029C29.081,34.344,28.942,31.387,27.322,30.798z"/>
		<path style="opacity:0.7;clip-path:url(#SVGID_2_);fill:#E6D2C3;" d="M27.676,32.117c-0.898,0.148-0.54,1.981,0.391,1.507
			C28.738,33.281,28.474,31.988,27.676,32.117z"/>
		<path style="clip-path:url(#SVGID_2_);fill:#261B18;" d="M45.425,30.88c-2.196-1.365-4.05,3.752-1.618,4.456
			c0.58-0.408,1.283-0.418,1.909-0.328C46.535,33.914,46.601,31.611,45.425,30.88z"/>
		<path style="opacity:0.7;clip-path:url(#SVGID_2_);fill:#E6D2C3;" d="M45.31,31.964c-0.859,0.033-0.713,1.94,0.213,1.58
			C46.189,33.284,46.073,31.938,45.31,31.964z"/>
		<path style="clip-path:url(#SVGID_2_);fill:#121B21;" d="M45.483,30.77c-2.005-0.744-2.632,1.632-2.632,1.632
			s0.953-1.206,2.322-0.465c3.106,1.685,5.069-0.431,5.069-0.431C47.808,32.358,46.56,31.171,45.483,30.77z"/>
		<path style="clip-path:url(#SVGID_2_);fill:#121B21;" d="M25.87,30.924c-0.794,0.414-2.632,1.652-5.1,0.966
			c0,0,2.368,2.007,5.318,0.133c1.294-0.824,2.421,0.157,2.421,0.157S27.939,29.84,25.87,30.924z"/>
		<path style="opacity:0.8;clip-path:url(#SVGID_2_);fill:#E63535;" d="M26.566,39.707c2.336,6.492,4.803,8.453,9.198,8.574
			c4.221,0.115,6.451-2.619,6.97-5.117c0.16-0.77,2.012-3.154,2.644-3.715c-2.22,0.811-6.032,0.604-9.519,0.75
			C32.9,40.324,28.95,40.994,26.566,39.707z"/>
		<path style="clip-path:url(#SVGID_2_);fill:#8F2621;" d="M27.466,40.543c0,0,1.693,6.021,8.002,5.771
			c5.679-0.229,6.548-2.293,6.938-3.74c0.521-1.934,2.124-2.705,2.124-2.705C34.644,42.445,27.466,40.543,27.466,40.543z"/>
		<path style="clip-path:url(#SVGID_2_);fill:#FFF9F0;" d="M29.138,40.93c0,0-0.009,1.336,1.91,1.744
			c2.46,0.521,5.239,0.559,8.097,0.115c1.924-0.297,2.957-2.217,2.957-2.217S36.408,41.533,29.138,40.93z"/>
		<path style="clip-path:url(#SVGID_2_);fill:#FFF9F0;" d="M36.95,44.994c-2.184,0.074-4.062-0.084-5.077-0.346
			c-0.847-0.219-0.859,0.115-0.705,0.406c0,0,0.258,1.201,4.234,1.318c3.478,0.1,5.016-1.465,4.631-1.77
			C39.649,44.299,39.135,44.918,36.95,44.994z"/>
		<path style="clip-path:url(#SVGID_2_);fill:#E8DAC5;" d="M29.138,40.93c0,0-0.022,0.418,0.276,0.781c0,0,9.788-0.668,12.026-0.244
			c0,0,0.54-0.625,0.661-0.895C42.102,40.572,36.924,41.498,29.138,40.93z"/>
		<path style="clip-path:url(#SVGID_2_);fill:#E8DAC5;" d="M32.223,44.902c3.415,1.074,7.229-0.092,7.229-0.092
			C35.191,45.527,32.223,44.902,32.223,44.902z"/>
	</g>
</g>
<g id="Layer_1">
</g>
</svg>
