<?xml version="1.0" encoding="iso-8859-1"?>
<!-- Generator: Adobe Illustrator 16.0.0, SVG Export Plug-In . SVG Version: 6.00 Build 0)  -->
<!DOCTYPE svg PUBLIC "-//W3C//DTD SVG 1.1//EN" "http://www.w3.org/Graphics/SVG/1.1/DTD/svg11.dtd">
<svg version="1.1" xmlns="http://www.w3.org/2000/svg" xmlns:xlink="http://www.w3.org/1999/xlink" x="0px" y="0px" width="66px"
	 height="66px" viewBox="0 0 66 66" style="enable-background:new 0 0 66 66;" xml:space="preserve">
<g id="Layer_98">
	<g>
		<defs>
			<circle id="SVGID_1_" cx="33" cy="33" r="33"/>
		</defs>
		<clipPath id="SVGID_2_">
			<use xlink:href="#SVGID_1_"  style="overflow:visible;"/>
		</clipPath>
		<rect style="clip-path:url(#SVGID_2_);fill:#FFFFFF;" width="65.999" height="66"/>
		<path style="clip-path:url(#SVGID_2_);fill:#3A3A4A;" d="M39.598,51.496c-4.893-2.627-12.026-1.721-15.278,0.393
			C20.07,54.653,20.754,59.131,21.857,66h19.918C42.98,59.377,43.762,53.732,39.598,51.496z"/>
		<path style="clip-path:url(#SVGID_2_);fill:#1E1E29;" d="M43.887,53.729c-0.412-1.074-5.266-2.697-5.266-2.697
			C37.269,55.428,37.005,61.227,37.1,66h6.333C43.795,59.416,44.15,54.414,43.887,53.729z"/>
		<path style="clip-path:url(#SVGID_2_);fill:#1E1E29;" d="M42.16,52.463L41.234,66h6.088c0.216-1.58,0.556-4.342,0.712-7.094
			C48.273,54.69,45.206,53.732,42.16,52.463z"/>
		<path style="clip-path:url(#SVGID_2_);fill:#1E1E29;" d="M24.854,51.031c0,0-4.854,1.623-5.266,2.697
			C19.325,54.414,19.68,59.416,20.043,66h6.333C26.47,61.227,26.207,55.428,24.854,51.031z"/>
		<path style="clip-path:url(#SVGID_2_);fill:#1E1E29;" d="M15.441,58.906c0.156,2.752,0.496,5.514,0.713,7.094h6.086l-0.925-13.537
			C18.27,53.732,15.201,54.69,15.441,58.906z"/>
		<path style="opacity:0.3;clip-path:url(#SVGID_2_);" d="M25.188,54.266c0.947,3.352,4.209,5.248,4.209,5.248l2.32-2.684
			l3.051,2.668c2.081-1.131,4.092-3.834,4.125-6.09C38.915,51.787,24.242,50.914,25.188,54.266z"/>
		<path style="clip-path:url(#SVGID_2_);fill:#535363;" d="M25.225,50.279c-2.597,3.691,3.963,8.352,3.963,8.352l2.55-2.119
			l2.896,2.217c0,0,5.937-3.451,3.832-8.078C36.571,46.49,27.84,46.564,25.225,50.279z"/>
		<path style="clip-path:url(#SVGID_2_);fill:#F29F63;" d="M36.424,46.961c-1.646-1.297-4.855-1.506-6.821-1.082
			c-2.05,0.441-3.411,2.35-3.554,4.314c-0.178,2.486,3.488,5.813,6.035,5.879C34.002,56.107,42.147,51.471,36.424,46.961z"/>
		<circle style="clip-path:url(#SVGID_2_);fill:#535363;" cx="31.634" cy="60.693" r="0.648"/>
		<circle style="clip-path:url(#SVGID_2_);fill:#535363;" cx="31.608" cy="63.941" r="0.648"/>
		<path style="clip-path:url(#SVGID_2_);fill:#1C1C26;" d="M31.774,58.24l3.985,2.664c0.733-0.822,1.069-3.766,0.231-4.678
			L31.774,58.24z"/>
		<path style="clip-path:url(#SVGID_2_);fill:#1C1C26;" d="M27.788,60.904l3.986-2.664l-4.217-2.014
			C26.719,57.139,27.055,60.082,27.788,60.904z"/>
		<path style="clip-path:url(#SVGID_2_);fill:#1C1C26;" d="M32.065,56.836c-0.1,0.004-0.219,0-0.349-0.006
			c-0.49-0.02-1.124-0.051-1.43,0.246c-0.451,0.439-0.038,1.531,0.162,2.033c0.304,0.766,1.082,0.473,1.783,0.488
			c1.03,0.023,1.26-0.768,1.285-1.727C33.545,56.848,32.886,56.805,32.065,56.836z"/>
		<path style="clip-path:url(#SVGID_2_);fill:#3D2518;" d="M30.23,9.682c-4.953,0.181-10.173,2.459-12.539,7.014
			c-0.92,1.77-1.276,3.998-1.334,5.964c-0.142,4.667-0.734,8.967,1.396,13.364c1.112,2.297,3.873,0.816,5.814,0.367
			c2.385-0.553,4.785-1.053,7.185-1.543c3.943-0.807,8.242,0.123,12.223,0.563c3.118,0.342,2.042-2.597,1.838-5.132
			c-0.305-3.778,0.835-4.832,0.96-6.751C46.378,14.286,41.754,9.262,30.23,9.682z"/>
		<path style="clip-path:url(#SVGID_2_);fill:#977053;" d="M41.312,20.774c-0.886,6.924-0.159,11.489,0.143,11.925
			c0.378-0.005,1.151,0.005,1.703,0.566c0.739,0.749,0.698,1.553,0.897,1.961c0.091,0.209,1.546,0.447,2.259,0.424
			C47.355,21.263,44.817,21.092,41.312,20.774z"/>
		<path style="clip-path:url(#SVGID_2_);fill:#FFBC82;" d="M30.67,15.634c-7.435,1.127-13.078,11.508-12.146,21.512
			c0.7,7.492,6.1,15.908,14.782,15.658c8.855-0.256,13.712-11.021,12.959-20.231C45.447,22.56,41.081,14.059,30.67,15.634z"/>
		<path style="opacity:0.3;clip-path:url(#SVGID_2_);fill:#A63F24;" d="M43.451,18.935c-3.964-1.773-7.829-2.85-12.229-3.114
			c-2.689-0.161-5.607-0.437-8.164,0.594c-3.826,1.54-5.534,4.039-6.181,7.938c-0.243,1.456-0.261,3.912,1.676,4.132
			c2.268,0.256,2.878-2.062,3.591-3.623c0.613-1.343,1.551-2.081,3.024-2.198c2.041-0.163,4.082,0.755,6.112,1.261
			c0.439,0.11,0.877,0.2,1.314,0.257c1.723,0.222,3.33,0.071,5.05-0.183c1.23-0.181,2.378-0.686,3.574-0.905
			c0.823-0.154,2.071-0.35,2.736-0.723C45.65,21.42,44.578,19.441,43.451,18.935z"/>
		<path style="clip-path:url(#SVGID_2_);fill:#FFBC82;" d="M16.128,32.894c-3.663,0.844-2.436,6.19,0.479,7.375
			c0.932,0.381,1.938,0.471,2.911,0.443c0.019-0.029,0.041-0.057,0.062-0.088c0.462-0.67,0.018-4.547-0.173-5.281
			C18.928,33.492,17.884,32.488,16.128,32.894z"/>
		<path style="opacity:0.5;clip-path:url(#SVGID_2_);fill:#B54319;" d="M17.315,34.893c-0.796-0.408-2.856,0.182-1.97,1.811
			c0.567-1.451,1.426-0.447,1.242,0.596c-0.121,0.699-0.877,0.678-0.164,1.611c0.385,0.504,1.213,0.359,1.641,0.115
			C19.416,38.25,18.29,35.393,17.315,34.893z"/>
		<path style="clip-path:url(#SVGID_2_);fill:#3D2518;" d="M45.338,12.051c-0.865-0.533-3.106-0.166-4.115-0.402
			c0.503-1.507,1.705-2.384,1.774-4.056c-1.026,0.348-1.983,0.966-3.106,0.975c0.193-0.67,0.577-1.589,0.598-2.286
			c-1.043,0.693-2.496,1.372-3.736,1.501c0.08-0.753,0.237-1.595,0.413-2.337c-0.933,0.433-1.781,1.015-2.655,1.551
			c-0.176,0.108-2.02,1.021-2.002,0.774c0.032-0.45-0.018-0.899,0.009-1.354c-0.768,0.801-2.027,1.482-3.138,1.579
			c-0.039-0.236-0.104-0.589-0.063-0.789c-2.362,1.888-4.433,3.233-7.839,5.255c-1.509,0.897-2.207,2.542-3.024,4.126
			c-0.586,1.141-1.705,3.915-0.98,5.075c0.547,0.873,3.628,2.833,4.718,1.532c0.597-0.711,1.457-1.514,3.691-1.54
			c2.175-0.026,4.325,0.804,6.377,1.432c2.318,0.708,4.506,0.385,6.796-0.229c0.89-0.238,2.062-0.382,3.186-0.624
			c1.379-0.298,3.063-0.713,3.237-2.326c0.162-1.513,0.205-3.878,1.25-4.079c-0.929-0.907-1.947-1.316-3.136-1.692
			C43.98,13.38,44.8,12.708,45.338,12.051z"/>
		<path style="clip-path:url(#SVGID_2_);fill:#977053;" d="M16.49,20.891c-0.887,6.923-0.156,11.489,0.145,11.924
			c0.377-0.007,1.149,0.006,1.704,0.566c0.737,0.75,0.696,1.554,0.896,1.964c0.091,0.205,0.908,0.525,1.622,0.502
			c-0.485-4.689,0.374-11.257,1.333-12.652C18.859,22.719,16.736,21.292,16.49,20.891z"/>
		<path style="clip-path:url(#SVGID_2_);fill:#82572E;" d="M45.822,15.672c-0.885-0.596-2.221-0.74-3.25-0.898
			c0.075-1.084,0.849-1.898,1.411-2.772c-1.4-0.197-2.788,0.862-4.176,0.741c0.606-1.281,1.858-2.94,2.093-4.271
			c-1.003,0.294-2.081,0.943-3.164,0.914c0.187-0.646,0.374-1.52,0.371-2.126c-0.994,0.644-2.126,1.774-3.431,1.813
			c-0.104-0.756,0.161-1.574,0.044-2.284c-1.116,1.119-2.439,1.794-3.874,2.494c-0.141-0.467-0.28-1.013-0.402-1.486
			c-0.634,0.446-3.345,2.924-3.046,0.978c-2.224,2.271-6.579,3.487-8.249,6.255c-0.967,1.608,1.288-1.494,9.302-3.215
			c0.498-0.106-4.991,3.637-4.945,4.094c0.461-0.166,7.595-3.939,7.681-3.277c0.228,1.758-6.022,5.104-6.964,6.39
			c-0.019,0.012,11.179-6.606,12.401-6.677c0.021,1.752-6.118,7.146-7.396,7.882c2.718-0.479,8.16-5.45,10.787-6.002
			c-0.285,0.633-6.215,6.124-7.338,6.95c1.35-0.464,7.904-4.365,9.467-4.903c-0.146,1.98-4.262,4.927-5.69,5.831
			c0.979-0.442,4.855-2.446,5.806-2.994c-0.134,0.813-0.646,1.534-1.025,2.268c0.777-0.602,1.836-1.135,2.35-2.045
			c0.372-0.664,0.532-1.551,0.813-2.23c-0.277,0.068-0.571,0.037-0.864,0.054C44.733,16.546,45.391,16.136,45.822,15.672z"/>
		<path style="clip-path:url(#SVGID_2_);fill:#202930;" d="M27.207,30.998c-1.867-0.898-3.204,2.422-1.955,3.579
			c0.61-0.152,1.323-0.059,1.876,0.24C28.43,34.211,28.594,31.667,27.207,30.998z"/>
		<path style="opacity:0.5;clip-path:url(#SVGID_2_);fill:#B54319;" d="M34.911,37.637c-1.11-0.033-1.527-0.557-2.325-0.127
			c-0.798,0.426,0.251,1.953,2.221,1.965c1.96,0.014,2.868-1.295,2.48-1.814C36.84,37.059,36.145,37.676,34.911,37.637z"/>
		<path style="clip-path:url(#SVGID_2_);fill:#FFD4AD;" d="M34.695,30.923c-0.909,0.044-1.248,2.814-1.637,4.118
			c-0.398,1.322-0.684,2.545-0.225,2.943c1.133,0.975,3.604,0.422,4.348-0.289c0.292-0.281-0.291-1.645-0.738-3.006
			C36.049,33.483,35.725,30.875,34.695,30.923z"/>
		<path style="clip-path:url(#SVGID_2_);fill:#202930;" d="M43.619,31.562c-1.882-1.24-3.461,2.429-1.91,3.549
			c0.52-0.313,1.528-0.166,2.011,0.082C44.531,34.369,44.629,32.229,43.619,31.562z"/>
		<path style="opacity:0.7;clip-path:url(#SVGID_2_);fill:#C3CEE6;" d="M26.505,31.556c-0.782,0.23-0.259,1.754,0.516,1.241
			C27.58,32.426,27.2,31.354,26.505,31.556z"/>
		<path style="opacity:0.7;clip-path:url(#SVGID_2_);fill:#C3CEE6;" d="M42.848,31.939c-0.767,0.12-0.466,1.632,0.33,1.241
			C43.756,32.897,43.529,31.832,42.848,31.939z"/>
		<path style="clip-path:url(#SVGID_2_);fill:#2B221C;" d="M28.791,27.928c-0.969-0.046-1.838-0.375-2.779-0.545
			c-1.229-0.223-2.795,0.855-3.241,1.986c0.287-0.006,0.568-0.059,0.847-0.12c0.412-0.09,0.818-0.202,1.228-0.209
			c0.8-0.016,1.61,0.294,2.393,0.397c0.592,0.077,3.427,0.815,3.479-0.095c0.017-0.303-0.1-1.134-0.347-1.35
			C30.05,27.717,29.182,27.948,28.791,27.928z"/>
		<path style="clip-path:url(#SVGID_2_);fill:#2B221C;" d="M40.768,28.268c-0.362-0.01-1.148-0.302-1.469-0.047
			c-0.247,0.195-0.429,1.017-0.441,1.317c-0.035,0.908,2.654,0.378,3.209,0.344c0.303-0.019,1.467-0.146,1.779-0.196
			c-0.018-0.443,0.203-1.449,0.219-1.632C43.244,28.167,41.605,28.291,40.768,28.268z"/>
		<path style="clip-path:url(#SVGID_2_);fill:#2B221C;" d="M44.648,28.335c-0.008,0.443-0.147,0.875-0.092,1.283
			c0.222,0.059,1.409,0.036,1.674,0.063C46.069,29.073,45.207,28.764,44.648,28.335z"/>
		<path style="clip-path:url(#SVGID_2_);fill:#FFD4AD;" d="M45.02,36.957c-0.655-0.781-1.904-0.834-2.788-0.762
			c-1.154,0.094-2.649,0.646-1.469,2.199c0.628,0.826,5.279,1.055,4.557-0.914C45.243,37.275,45.143,37.102,45.02,36.957z"/>
		<path style="clip-path:url(#SVGID_2_);fill:#FFD4AD;" d="M27.665,36.543c-0.659-0.84-1.97-0.938-2.901-0.893
			c-1.21,0.061-2.795,0.59-1.611,2.256c0.633,0.887,5.502,1.283,4.811-0.805C27.893,36.887,27.79,36.699,27.665,36.543z"/>
		<path style="opacity:0.5;clip-path:url(#SVGID_2_);fill:#B54319;" d="M24.563,39.75c0,0,1.901,8.373,8.366,9.109
			c4.129,0.471,5.508-1.646,7.153-4.203c0.978-1.52,1.67-3.184,2.777-4.408C40.006,42.463,32.375,44.459,24.563,39.75z"/>
		<path style="opacity:0.5;clip-path:url(#SVGID_2_);fill:#B54319;" d="M41.357,40.395c-0.235,0.16,0.274,0.064,0.961-0.02
			c0.684-0.088,0.404,1.037,0.829,0.938c0.427-0.098,0.573-0.912,0.093-1.363S41.357,40.395,41.357,40.395z"/>
		<path style="opacity:0.5;clip-path:url(#SVGID_2_);fill:#B54319;" d="M24.41,39.395c-0.61,0.141-0.967,1.166-0.586,1.359
			s0.621-0.729,1.285-0.873c0.713-0.152,1.557,0.127,1.367-0.082C26.477,39.799,25.095,39.24,24.41,39.395z"/>
		<path style="clip-path:url(#SVGID_2_);fill:#8F2A25;" d="M25.823,40.982c0,0,1.765,6.111,7.635,6.602
			c2.915,0.244,4.972-1.775,5.929-3.309c1.066-1.707,2.365-2.803,2.365-2.803C32.837,46.418,25.823,40.982,25.823,40.982z"/>
		<path style="clip-path:url(#SVGID_2_);fill:#FFF7EA;" d="M25.823,40.982c0,0,1.491,2.578,3.439,3.494
			c2.496,1.174,4.827,1.383,7.778,0.836c1.987-0.371,4.711-3.84,4.711-3.84S34.684,45.633,25.823,40.982z"/>
		<path style="clip-path:url(#SVGID_2_);fill:#FFF7EA;" d="M34.303,45.262c-2.696-0.148-4.095-0.777-5.325-1.365
			c-1.028-0.488-0.959,0.576-0.789,1.104c0,0,0.926,1.924,4.786,2.529c3.637,0.566,5.527-2.117,5.078-2.697
			S37.001,45.412,34.303,45.262z"/>
		<path style="clip-path:url(#SVGID_2_);fill:#ECDCC4;" d="M25.823,40.982c0,0,0.734,1.387,1.464,1.953
			c0,0,6.606,1.768,12.988,0.186c0,0,1.346-1.17,1.477-1.648C41.752,41.473,34.46,45.549,25.823,40.982z"/>
		<path style="clip-path:url(#SVGID_2_);fill:#ECDCC4;" d="M28.231,43.857c5.56,3.652,9.366,1.176,9.366,1.176
			C32.352,45.967,28.231,43.857,28.231,43.857z"/>
	</g>
</g>
<g id="Layer_1">
</g>
</svg>
