<?xml version="1.0" encoding="iso-8859-1"?>
<!-- Generator: Adobe Illustrator 16.0.0, SVG Export Plug-In . SVG Version: 6.00 Build 0)  -->
<!DOCTYPE svg PUBLIC "-//W3C//DTD SVG 1.1//EN" "http://www.w3.org/Graphics/SVG/1.1/DTD/svg11.dtd">
<svg version="1.1" xmlns="http://www.w3.org/2000/svg" xmlns:xlink="http://www.w3.org/1999/xlink" x="0px" y="0px" width="66px"
	 height="66px" viewBox="0 0 66 66" style="enable-background:new 0 0 66 66;" xml:space="preserve">
<g id="Layer_99">
	<g>
		<defs>
			<circle id="SVGID_1_" cx="33" cy="33" r="33"/>
		</defs>
		<clipPath id="SVGID_2_">
			<use xlink:href="#SVGID_1_"  style="overflow:visible;"/>
		</clipPath>
		<rect style="clip-path:url(#SVGID_2_);fill:#FFFFFF;" width="65.999" height="66"/>
		<path style="clip-path:url(#SVGID_2_);fill:#FFC38F;" d="M27.048,55.936l-1.679-2.664c-3.063,1.929-4.838,5.601-4.634,9.582
			c0.056,1.09,0.258,2.145,0.59,3.146h3.385c-0.479-1.016-0.769-2.126-0.829-3.308C23.735,59.848,24.949,57.259,27.048,55.936z"/>
		<path style="clip-path:url(#SVGID_2_);fill:#FFC38F;" d="M43.455,53.271l-1.679,2.664c2.1,1.323,3.313,3.912,3.168,6.757
			c-0.061,1.182-0.351,2.292-0.83,3.308h3.385c0.333-1.002,0.535-2.057,0.591-3.146C48.294,58.872,46.518,55.2,43.455,53.271z"/>
		<path style="clip-path:url(#SVGID_2_);fill:#F0F0F0;" d="M40.537,51.436c-3.959-2.205-9.73-1.445-12.36,0.33
			c-3.892,2.626-2.671,7.102-1.633,14.234H41.88C43.02,59.439,44.379,53.577,40.537,51.436z"/>
		<path style="clip-path:url(#SVGID_2_);fill:#E62628;" d="M35.053,58.785l1.601-1.58c0,0-0.413-1.346-2.241-1.459
			c-2.045-0.131-2.576,1.342-2.576,1.342l1.628,1.668l-2.037,4.968L33.161,66h2.117l1.985-2.338L35.053,58.785z"/>
		<path style="clip-path:url(#SVGID_2_);fill:#3A3A4A;" d="M28.602,51.033c0,0-3.91,1.464-4.245,2.398
			c-0.303,0.853,1.035,7.463,1.745,12.568h3.801C30.059,61.76,29.93,55.686,28.602,51.033z"/>
		<path style="clip-path:url(#SVGID_2_);fill:#3A3A4A;" d="M44.007,53.432c-0.333-0.935-4.26-2.35-4.26-2.35
			C38.482,55.511,38.393,61.577,38.57,66h3.959C42.67,59.148,44.247,54.104,44.007,53.432z"/>
		<path style="opacity:0.1;clip-path:url(#SVGID_2_);" d="M28.879,53.9c0.767,2.921,3.404,4.574,3.404,4.574l1.88-2.338l2.467,2.322
			c1.683-0.985,3.31-3.34,3.336-5.305C39.984,51.74,28.114,50.979,28.879,53.9z"/>
		<path style="clip-path:url(#SVGID_2_);fill:#FBFBFB;" d="M28.909,50.427c-2.101,3.216,3.207,7.278,3.207,7.278l2.062-1.848
			l2.342,1.932c0,0,4.805-3.006,3.103-7.038C38.089,47.125,31.025,47.189,28.909,50.427z"/>
		<linearGradient id="SVGID_3_" gradientUnits="userSpaceOnUse" x1="34.582" y1="50.1836" x2="34.582" y2="55.1187">
			<stop  offset="0" style="stop-color:#EE996D"/>
			<stop  offset="0.0163" style="stop-color:#EE9A6E"/>
			<stop  offset="0.3731" style="stop-color:#F8B181"/>
			<stop  offset="0.7088" style="stop-color:#FDBF8D"/>
			<stop  offset="1" style="stop-color:#FFC491"/>
		</linearGradient>
		<path style="clip-path:url(#SVGID_2_);fill:url(#SVGID_3_);" d="M32.909,46.594c-1.302,0.383-2.166,2.046-2.256,3.758
			c-0.113,2.166,2.215,5.066,3.831,5.123c1.219,0.031,6.391-4.009,2.757-7.939C36.196,46.405,34.157,46.225,32.909,46.594z"/>
		<path style="clip-path:url(#SVGID_2_);fill:#C93712;" d="M53.046,28.866c2.48-0.662,5.289-6.067,1.071-5.77
			c1.139,1.708-1.56,2.494-2.443,1.204c-0.079-0.115-0.135-0.22-0.143-0.321c-0.146-2.126-2.336-3.593-4.003-4.906
			c-2.438-1.92-5.627-3.49-8.738-4.205c-5.482-1.258-12.035-0.95-16.394,2.673c-1.752,1.458-3.29,4.513-5.721,5.089
			c-2.985,0.708-4.642,3.744-2.277,5.654c-1.229,0.728-2.408-0.144-2.617-1.289c-2.575,1.786-3.538,5.249,0.021,6.818
			c-4.167,2.148-3.132,6.525,1.321,8.429c-2.09,1.935-1.021,5.226,1.077,6.526c-0.162-1.367,1.117-4.423,3.487-2.863
			c1.455,0.959,0.685,3.525-1.295,2.237c-0.525,2.325,3.401,3.769,4.553,1.836c-0.132,1.742,1.063,2.418,2.676,2.313
			c2.401-0.154,3.242-1.764,4.855-2.256c2.009-0.612,4.475-0.676,6.567-0.711c3.98-0.064,7.41,3.865,11.375,2.16
			c1.529-0.656,2.271-1.638,2.107-3.127c-1.084,0.761-3.915-0.346-1.604-2.154c1.155-0.904,2.866-0.066,4.038-0.752
			c1.384-0.808,0.822-3.709,0.921-3.771c0.996-0.623,2.646-0.671,2.746,1.067c2.047-4.038,0.102-5.156-2.097-5.46
			C57.396,36.518,58.345,29.815,53.046,28.866z"/>
		<path style="clip-path:url(#SVGID_2_);fill:#FFF9F0;" d="M48.96,40.279c-0.76,0.021-1.367,0.654-1.359,1.415
			c0.007,0.76,0.632,1.358,1.391,1.337c0.76-0.021,1.369-0.654,1.361-1.415C50.343,40.857,49.72,40.258,48.96,40.279z"/>
		<path style="clip-path:url(#SVGID_2_);fill:#FFC38F;" d="M33.438,14.424C25.35,15.164,19.06,22.05,19.557,32.936
			c0.496,10.89,8.396,19.568,16.958,18.618c7.096-0.788,13.14-9.63,11.799-21.554C47.114,19.321,41.526,13.683,33.438,14.424z"/>
		<path style="clip-path:url(#SVGID_2_);fill:#FFC38F;" d="M17.471,31.213c-3.52,1.608-1.883,7.655,1.064,8.549
			c0.945,0.286,1.937,0.221,2.886,0.022c0.019-0.037,0.035-0.073,0.054-0.112c0.399-0.861-0.502-4.91-0.747-5.736
			C20.108,31.851,19.159,30.44,17.471,31.213z"/>
		<path style="opacity:0.3;clip-path:url(#SVGID_2_);fill:#D15426;" d="M19.478,33.325c-0.944-0.506-3.399,0.16-2.366,2.136
			c0.692-1.734,1.699-0.511,1.47,0.735c-0.155,0.837-1.054,0.794-0.219,1.931c0.451,0.613,1.44,0.455,1.95,0.17
			C21.93,37.394,20.627,33.943,19.478,33.325z"/>
		<path style="opacity:0.2;clip-path:url(#SVGID_2_);fill:#BF3C1B;" d="M30.435,18.663c-2.216,0.413-4.335,1.115-6.173,2.046
			c-2.878,1.459-3.063,2.967-4.463,5.714c-0.706,1.388-2.419,2.785-0.777,4.242c-0.495,0.188-0.879,0.586-1.134,1.043
			c-0.474,0.85-0.565,1.957-0.281,2.881c0.328,1.072,1.239,1.546,0.764,2.807c-0.307,0.811-0.435,1.597-0.09,2.428
			c0.997,2.396,6.271,3.074,6.389-0.24c0.01-0.279,0.01-0.874-0.253-1.063c-0.282-0.202-0.796,0.063-1.113,0.063
			c-0.584,0.001-1.189-0.332-1.311-0.945c-0.141-0.719,0.481-1.078,0.958-1.455c0.488-0.387,0.971-0.951,0.957-1.611
			c-0.02-1.013-0.72-1.149-1.332-1.667c-1.022-0.866-0.71-0.712-0.158-1.633c0.682-1.136,1.112-2.623-0.267-3.499
			c0.669-0.065,1.351-0.366,1.458-1.086c1.183,0.629,2.569-0.617,2.949-1.682c-0.117,0.326,1.307-0.292,1.396-0.358
			c0.487-0.36,0.867-1.144,1.07-1.688c0.103,1.487,1.637,2.489,2.835,1.324c0.771,1.841,2.333,1.788,4.046,1.368
			c0.594,2.117-1.204,1.244-1.81,2.301c-1.007,1.758,2.616,2.526,3.591,2.179c1.137-0.404,1.762-1.645,1.702-2.806
			c0.138,1.38,2.113,0.738,2.823,0.222c0.417,1.935,2.211,2.338,3.617,1.025c0.246,3.188,4.412,3.141,3.582-0.578
			C47.492,19.409,38.35,17.189,30.435,18.663z"/>
		<path style="clip-path:url(#SVGID_2_);fill:#C93712;" d="M50.445,15.198c1.776-3.712-5.543-6.55-8.324-4.531
			c-0.434-4.574-6.195-4.844-8.95-1.606c-1.014-1.653-3.304-2.054-3.65-2.113c-1.575-0.266-3.313,0.057-4.346,1.262
			c1.536-0.018,4.133,2.941-0.487,2.511c-1.916-0.178-3.053-0.908-4.967,0.125c-1.552,0.838-2.602,2.309-1.137,3.741
			c-0.017,0.013-3.43-0.198-3.945,2.886c-0.212,1.269,0.308,1.582-0.958,2.532c-0.852,0.64-1.743,1.019-2.851,0.669
			c-0.013,1.246,1.149,2.833,1.743,3.261c1.192,0.858,2.499,0.725,3.774,0.105c-0.128,0.781,2.204,7.418,3.232,6.713
			c-1.692,1.158-2.416,3.496-0.749,4.575c0.264,0.169,0.586,0.308,0.973,0.405c-1.984,1.85-1.327,4.003-0.378,4.656
			c1.065,0.734,2.99,0.951,4.143,0.378c0.653-0.325,1.188-0.944,1.062-1.712c-0.904,0.176-1.785,0.467-2.532-0.283
			c-2.072-2.083,2.211-3.82,0.147-5.469c-0.451-0.36-1.234-0.403-1.275-1.104c-0.038-0.657,0.771-0.951,1.075-1.375
			c1.06-1.49-0.587-3.25-1.938-3.794c0.867-0.049,3.323,0.375,3.042-1.271c1.36,1.186,3.354-0.483,2.809-2.082
			c0.247,0.725,1.552,0.488,1.984,0.192c0.808-0.547,0.733-1.614,1.146-2.413c0.165,0.87,0.35,1.74,1.183,2.185
			c0.835,0.447,1.744,0.298,2.188-0.563c0.512,1.779,2.267,3.224,3.822,1.437c0.349,0.681,0.555,1.651,0.06,2.314
			c-0.746,1.001-1.733-0.046-2.364,0.427c-0.791,0.592,0.65,1.843,1.18,2.012c1.029,0.325,2.503-0.193,3.131-1.066
			c0.513-0.712,0.383-1.531,0.424-2.349c0.864,1.398,2.312,2.335,3.75,0.876c1.041,1.314,2.071,1.941,3.562,0.64
			c0.717,1.189,0.593,2.79,2.313,3.04c1.998,0.289,1.883-2.024,1.525-3.359c-0.451-1.678-1.066-4.951,0.871-6.423
			c1.202-0.913,2.983-0.326,2.426,1.254c1.741-1.122,1.921-2.744,1.162-4.355C53.814,16.454,52.23,15.406,50.445,15.198z"/>
		<path style="clip-path:url(#SVGID_2_);fill:#FFF9F0;" d="M19.808,40.775c-0.7,0.018-1.262,0.603-1.254,1.305
			c0.009,0.701,0.582,1.253,1.282,1.233c0.703-0.02,1.263-0.604,1.256-1.306C21.083,41.307,20.51,40.756,19.808,40.775z"/>
		<path style="clip-path:url(#SVGID_2_);fill:#E85216;" d="M29.24,13.628c0.001,0.01,0.001,0.02,0.002,0.029
			c0.001-0.01,0.001-0.019,0.002-0.028C29.249,13.562,29.24,13.562,29.24,13.628z"/>
		<path style="clip-path:url(#SVGID_2_);fill:#E85216;" d="M49.673,24.173c-0.039-0.932,0.017-1.484-0.204-2.463
			c-0.291-1.288-1.035-1.628-2.234-1.583c1.407-2.088,4.052-2.435,5.742-0.688c0.644-2.306-2.167-4.35-4.438-3.759
			c0.477-1.338,0.871-2.99-0.451-4.03c-1.418-1.113-3.688-1.214-5.192-0.3c-1.248,0.76-2.642,2.265-4.418,1.164
			c1.055,0.653,3.584-2.938,0.589-4.223c-1.865-0.802-3.483,0.247-4.748,1.486c-0.396,0.388-0.798,0.817-1.012,1.323
			c-1.276-2.413-3.222-3.885-6.301-3.151c2.339,0.04,3.313,3.679,1.209,4.702c-1.225,0.594-2.354-0.703-3.342-1.148
			c-0.922-0.417-2.335-0.579-3.332-0.311c-0.938,0.253-2.156,1.147-2.523,2.025C20.69,13,21.646,16.282,25.3,15.249
			c-1.541,1.287-3.213,1.405-4.599,0.761c-0.935-0.437-2.145-0.817-3.212-0.231c-1.553,0.85-1.158,3.021-1.925,4.363
			c-0.691,1.209-1.349,1.354-2.607,1.715c1.337,0.872,2.095,0.958,3.731,0.794c-1.105,0.111-1.753,1.666-1.848,2.516
			c-0.122,1.111,0.838,1.981,0.675,3.009c-0.137,0.869-1.324,1.44-2.136,1.412c0.55,0.609,1.415,0.625,2.168,0.366
			c0.938-0.323,1.143-1.553,1.915-1.722c1.059-0.23,2.159,1.546,2.14,2.36c1.59-0.768-0.291-3.219-1.226-3.932
			c1.045,0.008,3.918-0.119,3.724-1.586c0.118,0.884,2.019,0.002,2.265-0.476c0.341-0.665,0.176-1.694-0.501-2.121
			c0.591,0.079,1.688,0.647,2.149,0.1c0.393-0.465-0.076-1.557-0.332-1.976c4.78,1.844,3.417-3.099,0.486-3.029
			c2.217-0.18,2.809-0.515,3.074-3.914c-0.001-0.01-0.001-0.02-0.002-0.029c0-0.066,0.009-0.066,0.004,0.001
			c-0.001,0.01-0.001,0.019-0.002,0.028c0.16,1.973-0.363,3.956,2.982,3.644c-4.833,1.708-2.917,5.611,1.904,4.482
			c-0.733,0.172-0.786,1.553,0.311,2.342c0.675,0.487,2.125,0.212,2.397-0.14c0.855,1.316,1.122,2.475,0.098,3.639
			c1.16,0.063,1.595-1.662,1.768-2.504c0.875,0.528,1.668,1.337,2.758,0.905c0.824-0.327,1.264-1.22,1.797-1.846
			c0.011,1.451,0.56,2.532,1.44,2.723c1.056,0.229,1.887-0.139,2.655-0.931c-0.08,1.218,0.482,2.299,1.13,2.927
			c0.612,0.595,2.021,1.404,3.261,0.522c-0.534,0-0.965-0.263-1.188-0.715c2.037-0.198,3.627-1.277,3.447-3.368
			C52.608,25.972,49.767,26.302,49.673,24.173z"/>
		<path style="clip-path:url(#SVGID_2_);fill:#C93712;" d="M40.851,21.354c0.916,3.241,3.7,4.112,5.364,1.463
			C44.478,24.37,41.636,23.052,40.851,21.354z"/>
		<path style="clip-path:url(#SVGID_2_);fill:#C93712;" d="M19.315,24.99c1.967,1.656,4.313,0.07,3.327-2.319
			C22.424,24.228,20.523,25.453,19.315,24.99z"/>
		<path style="clip-path:url(#SVGID_2_);fill:#C93712;" d="M46.391,23.987c-1.195,2.222,1.011,3.979,3.2,2.473
			C47.948,26.651,46.221,25.213,46.391,23.987z"/>
		<path style="clip-path:url(#SVGID_2_);fill:#C93712;" d="M43.673,18.833c1.476,1.708,3.36,2.071,5.554,1.217l-0.086-1.487
			C47.788,19.254,45.722,19.603,43.673,18.833z"/>
		<path style="clip-path:url(#SVGID_2_);fill:#C93712;" d="M44.722,14.497c1.476,1.708,2.844,1.588,4.235,1.104l0.247-1.682
			C48.227,14.743,46.188,15.322,44.722,14.497z"/>
		<path style="clip-path:url(#SVGID_2_);fill:#C93712;" d="M14.539,22.722l0.457,1.459c2.37,0.052,3.992-0.928,4.725-3.023
			C18.099,22.571,16.062,22.907,14.539,22.722z"/>
		<path style="clip-path:url(#SVGID_2_);fill:#E85216;" d="M11.428,29.028l-0.057-0.958c-1.007,1.103-1.735,2.347-0.998,3.707
			c0.482,0.891,1.824,1.844,2.906,1.08c0.436-0.309,0.575-1.114,0.671-1.58c-0.02-0.018-0.04-0.036-0.06-0.054
			C12.552,31.369,11.126,30.329,11.428,29.028z"/>
		<path style="clip-path:url(#SVGID_2_);fill:#E85216;" d="M12.866,34.248l-0.805,0.48c-1.935,0.041-2.915,3.24-2.081,4.611
			c0.512,0.84,1.574,1.429,2.578,1.615c-0.697-1.076-1.351-2.361-1.017-3.647C11.826,36.221,12.836,35.42,12.866,34.248z"/>
		<path style="clip-path:url(#SVGID_2_);fill:#E85216;" d="M54.46,30.486c-0.511-0.351-1.1-0.597-1.725-0.712v0.32
			c1.716,2.205,1.395,3.872,0.425,6.126c0.004,0,0.088,0.08,0.09,0.059C55.648,35.301,56.794,32.082,54.46,30.486z"/>
		<path style="clip-path:url(#SVGID_2_);fill:#E85216;" d="M53.253,38.244l-0.807-0.215c-0.353,1.883,2.019,1.443,2.3,2.829
			C55.154,39.703,54.957,38.154,53.253,38.244z"/>
		<path style="clip-path:url(#SVGID_2_);fill:#E85216;" d="M13.212,43.357c-0.984,0.959-0.853,3.041,0.188,3.979
			c0.045-0.605,0.437-1.076,0.437-1.689c-0.001-0.568-0.41-1.014-0.336-1.65L13.212,43.357z"/>
		<path style="clip-path:url(#SVGID_2_);fill:#FF7752;" d="M47.28,37.133c-0.415-0.776-1.461-0.99-2.221-1.045
			c-0.989-0.068-2.349,0.221-1.626,1.75c0.387,0.816,4.272,1.639,4.008-0.201C47.416,37.447,47.358,37.28,47.28,37.133z"/>
		<path style="clip-path:url(#SVGID_2_);fill:#FF7752;" d="M29.041,36.842c-0.589-0.806-1.775-0.811-2.621-0.698
			c-1.1,0.148-2.545,0.8-1.49,2.406c0.562,0.854,4.975,0.911,4.374-1.162C29.241,37.174,29.151,36.994,29.041,36.842z"/>
		<path style="clip-path:url(#SVGID_2_);fill:#C93712;" d="M41.676,29.126c2.162,0.204,3.969-0.436,7.213-0.166
			C47.699,27.469,43.296,27.438,41.676,29.126z"/>
		<path style="opacity:0.3;clip-path:url(#SVGID_2_);fill:#D15426;" d="M36.87,37.83c-0.736,0.01-1.03-0.301-1.545-0.018
			c-0.514,0.283,0.605,1.285,1.516,1.209c1.03-0.084,1.876-0.932,1.604-1.238C38.127,37.426,37.688,37.822,36.87,37.83z"/>
		<path style="clip-path:url(#SVGID_2_);fill:#C93712;" d="M22.391,28.664c4.055,0.095,5.422,0.274,8.237,0.203
			C29.148,26.966,24.181,27.096,22.391,28.664z"/>
		<path style="clip-path:url(#SVGID_2_);fill:#1C5C57;" d="M27.16,30.728c-2.134-0.802-3.226,3.131-1.735,4.297
			c0.651-0.242,1.438-0.219,2.073,0.055C28.851,34.236,28.75,31.326,27.16,30.728z"/>
		<path style="opacity:0.7;clip-path:url(#SVGID_2_);fill:#6CD9D2;" d="M27.494,32.029c-0.885,0.134-0.554,1.944,0.367,1.487
			C28.527,33.186,28.28,31.911,27.494,32.029z"/>
		<path style="clip-path:url(#SVGID_2_);fill:#1C5C57;" d="M45.949,30.77c-2.143-1.368-4.025,3.645-1.642,4.364
			c0.575-0.394,1.266-0.396,1.881-0.302C47.007,33.766,47.099,31.501,45.949,30.77z"/>
		<path style="opacity:0.7;clip-path:url(#SVGID_2_);fill:#6CD9D2;" d="M45.825,31.836c-0.847,0.021-0.725,1.898,0.188,1.555
			C46.674,33.142,46.575,31.819,45.825,31.836z"/>
		<path style="clip-path:url(#SVGID_2_);fill:#121B21;" d="M46.01,30.662c-1.964-0.754-2.608,1.574-2.608,1.574
			s0.951-1.173,2.29-0.428c3.035,1.691,4.99-0.367,4.99-0.367C48.276,32.25,47.063,31.069,46.01,30.662z"/>
		<path style="clip-path:url(#SVGID_2_);fill:#121B21;" d="M25.732,30.836c-0.786,0.398-2.607,1.594-5.027,0.891
			c0,0,2.307,2.002,5.23,0.192c1.281-0.795,2.38,0.181,2.38,0.181S27.781,29.793,25.732,30.836z"/>
		<path style="clip-path:url(#SVGID_2_);fill:#F04D4D;" d="M25.999,40.232c1.085,2.055,3.725,1.06,2.611-1.039
			C28.167,40.243,26.929,40.676,25.999,40.232z"/>
		<path style="clip-path:url(#SVGID_2_);fill:#F04D4D;" d="M43.453,38.84c-0.581,2.173,2.277,2.924,2.84,0.799
			C45.486,40.158,44.151,39.839,43.453,38.84z"/>
		<path style="clip-path:url(#SVGID_2_);fill:#F04D4D;" d="M44.688,39.953c-0.33-0.107-0.682,0.035-0.784,0.322
			c-1.046,2.93-4.188,4.857-7.848,4.832c-3.521-0.021-6.336-1.857-7.487-4.281c-0.138-0.287-0.508-0.437-0.823-0.333
			c-0.32,0.103-0.468,0.419-0.33,0.708c1.319,2.779,4.464,4.88,8.377,5.006c0.11,0.003,0.22,0.006,0.33,0.006
			c4.21,0.028,7.771-2.166,8.98-5.547C45.205,40.379,45.018,40.059,44.688,39.953z"/>
	</g>
</g>
<g id="Layer_1">
</g>
</svg>
