<?xml version="1.0" encoding="iso-8859-1"?>
<!-- Generator: Adobe Illustrator 16.0.0, SVG Export Plug-In . SVG Version: 6.00 Build 0)  -->
<!DOCTYPE svg PUBLIC "-//W3C//DTD SVG 1.1//EN" "http://www.w3.org/Graphics/SVG/1.1/DTD/svg11.dtd">
<svg version="1.1" xmlns="http://www.w3.org/2000/svg" xmlns:xlink="http://www.w3.org/1999/xlink" x="0px" y="0px"
	 width="66.011px" height="66px" viewBox="0 0 66.011 66" style="enable-background:new 0 0 66.011 66;" xml:space="preserve">
<g id="Layer_31">
	<g>
		<defs>
			<circle id="SVGID_1_" cx="33.011" cy="33" r="33"/>
		</defs>
		<clipPath id="SVGID_2_">
			<use xlink:href="#SVGID_1_"  style="overflow:visible;"/>
		</clipPath>
		<rect style="clip-path:url(#SVGID_2_);fill:#88AF91;" width="66" height="66"/>
		<path style="clip-path:url(#SVGID_2_);fill:#108D8E;" d="M16.101,66c0-0.247-0.26-4.372-0.081-6.219
			c0.243-2.502,1.846-5.206,6.25-6.654l1.933,4.307C21.927,58.617,21.617,66,21.617,66H16.101z"/>
		<path style="clip-path:url(#SVGID_2_);fill:#108D8E;" d="M47.098,66c0-0.247,0.26-4.372,0.081-6.219
			c-0.243-2.502-1.845-5.206-6.249-6.654l-1.934,4.307C41.272,58.617,41.581,66,41.581,66H47.098z"/>
		<path style="clip-path:url(#SVGID_2_);fill:#C9BEB7;" d="M23.955,52.797c-4.079,2.654-3.682,6.859-2.68,13.203h20.606
			c1.096-6.234,1.577-11.459-2.414-13.602C34.5,49.73,27.257,50.65,23.955,52.797z"/>
		<path style="clip-path:url(#SVGID_2_);fill:#108D8E;" d="M39.268,51.95c0,0,4.391,1.624,4.808,2.714
			c0.313,0.814-0.764,6.157-1.653,11.336h-6.629C36.886,60.805,38.202,55.412,39.268,51.95z"/>
		<path style="clip-path:url(#SVGID_2_);fill:#27B3B0;" d="M39.149,51.162c4.141,0.287,5.682,2.926,5.626,3.6
			c-0.058,0.674-6.716,2.668-6.549,1.995C38.396,56.084,39.149,51.162,39.149,51.162z"/>
		<path style="clip-path:url(#SVGID_2_);fill:#27B3B0;" d="M38.59,54.86c0.518-0.892,4.98,2.942,4.7,3.728
			c-0.123,0.346-1.806,3.591-3.736,7.412l-4.001-0.001C36.692,60.533,38.018,55.846,38.59,54.86z"/>
		<path style="clip-path:url(#SVGID_2_);fill:#108D8E;" d="M23.84,51.95c0,0-4.391,1.624-4.808,2.714
			c-0.313,0.814,0.764,6.157,1.652,11.336h6.63C26.222,60.805,24.905,55.412,23.84,51.95z"/>
		<path style="clip-path:url(#SVGID_2_);fill:#27B3B0;" d="M23.958,51.162c-4.141,0.287-5.682,2.926-5.626,3.6
			c0.058,0.674,6.716,2.668,6.548,1.995C24.711,56.084,23.958,51.162,23.958,51.162z"/>
		<path style="clip-path:url(#SVGID_2_);fill:#27B3B0;" d="M24.518,54.86c-0.518-0.892-4.98,2.942-4.7,3.728
			c0.123,0.346,1.806,3.591,3.736,7.412l4.001-0.001C26.415,60.533,25.09,55.846,24.518,54.86z"/>
		<path style="opacity:0.5;clip-path:url(#SVGID_2_);fill:#949494;" d="M31.563,59.149c9.331,0,12.029-13.315-0.788-13.315
			C21.56,45.834,21.582,59.149,31.563,59.149z"/>
		<path style="clip-path:url(#SVGID_2_);fill:#C9BEB7;" d="M31.554,57.996c9.955,0,12.834-12.608-0.843-12.608
			C20.877,45.388,20.901,57.996,31.554,57.996z"/>
		<path style="clip-path:url(#SVGID_2_);fill:#2B221C;" d="M48.115,16.608c-0.52-1.931-1.535-3.616-2.647-4.882
			c-5.054-5.758-13.613-6.522-23.38-2.51c0.887,0.077,2.697,0.284,5.034-0.115c-5.13,2.249-11.203,5.223-12.629,11.189
			c-1.626,6.815-0.481,14.857,3.327,15.409c3.264,0.473,7.401-6.676,9.624-5.996c4.685,1.433,16.429,0.129,19.797-4.687
			C48.761,22.847,48.903,19.542,48.115,16.608z"/>
		<path style="clip-path:url(#SVGID_2_);fill:#FFCB9E;" d="M17.485,38.175c0.946,8.058,6.98,16.989,16.332,16.499
			c9.538-0.502,14.499-12.231,13.451-22.137c-1.141-10.771-6.062-19.823-17.243-17.858C22.041,16.083,16.224,27.417,17.485,38.175z"
			/>
		<path style="opacity:0.3;clip-path:url(#SVGID_2_);fill:#BF3C1B;" d="M23.821,23.619c-1.136,0.562-4.132,1.937-5.605-0.48
			C17.519,22,18.08,20.307,18.552,19.03c0.576-1.56,2.385-2.406,3.856-3.021c2.68-1.119,5.773-0.906,8.623-0.805
			c3.214,0.115,6.385,0.67,9.443,1.621c2.021,0.627,5.83,1.224,6.491,3.53c0.838,2.92-2.275,3.237-4.427,3.201
			C37.363,23.469,26.285,22.399,23.821,23.619z"/>
		<path style="clip-path:url(#SVGID_2_);fill:#FFCB9E;" d="M15.498,41.592c1.016,0.387,2.102,0.457,3.15,0.402
			c0.02-0.032,0.042-0.063,0.063-0.097c0.481-0.731-0.097-4.901-0.321-5.688c-0.564-1.983-1.713-3.039-3.598-2.558
			C10.867,34.656,12.328,40.389,15.498,41.592z"/>
		<path style="opacity:0.3;clip-path:url(#SVGID_2_);fill:#C94614;" d="M17.037,40.212c1.438-0.87,0.149-3.921-0.912-4.435
			c-0.871-0.42-3.075,0.268-2.077,2.004c0.572-1.582,1.522-0.521,1.354,0.607c-0.112,0.757-0.928,0.752-0.138,1.74
			C15.693,40.664,16.584,40.485,17.037,40.212z"/>
		<path style="clip-path:url(#SVGID_2_);fill:#2B221C;" d="M42.585,11.842C36.633,8.58,27.381,9.23,22.262,12.886
			c-5.225,3.73-6.665,10.546-6.778,16.661c-0.041,2.104,0.462,3.587,2.046,4.999c1.83,1.631,1.75-3.209,1.955-5.051
			c0.46-4.111,2.212-7.415,6.729-7.496c3.022-0.055,14.851-0.394,17.609,0.608c1.512,0.55,3.519,1.376,3.869-1.039
			c0.381-2.641-0.276-5.406-2.058-7.366C44.78,13.263,43.745,12.478,42.585,11.842z"/>
		<path style="clip-path:url(#SVGID_2_);fill:#45362E;" d="M46.575,20.299c0.11-1.148,0.026-2.646-0.269-3.658
			c-0.438-1.494-1.268-2.677-2.364-3.761c-2.234-2.206-5.383-3.923-8.449-4.266c-1.598-0.179-4.816-0.177-6.358,0.469
			c0.504,0.29,1.822,0.605,2.258,0.97c-2.227,0.476-4.366,1.072-6.476,1.982c-0.645,0.278-5.965,3.749-5.964,3.75
			c1.446,0.821,3.173,0.557,4.756,0.235c2.417-0.491,4.802-0.66,7.214-0.065c2.239,0.554,4.24,1.714,6.461,2.276
			c0.087-1.006-0.86-1.905-1.276-2.596c1.278,0.003,6.112,3.188,7.103,4.023c-0.228-0.864-1.381-2.697-1.493-3.614
			C42.96,16.253,45.744,18.826,46.575,20.299z"/>
		<path style="clip-path:url(#SVGID_2_);fill:#F7A286;" d="M34.77,42.076c-2.246,0.076-5.209,0.393-7.688,0.181
			c-1.153-0.099-1.903,0.841-1.385,1.479c3.36,4.135,5.591,4.52,8.519,4.663c4.229,0.205,5.884-1.712,6.521-3.632
			c0.125-0.371,0.642-1.013,1.244-1.645c0.714-0.748-0.046-1.385-1.14-1.297C39.117,41.966,37.201,41.992,34.77,42.076z"/>
		<path style="clip-path:url(#SVGID_2_);fill:#8F3935;" d="M26.047,42.616c0,0,7.024,1.794,16.203-0.263c0,0-1.438,0.568-2.12,2.125
			c-0.625,1.426-2.843,2.422-6.216,2.379C28.653,46.791,26.047,42.616,26.047,42.616z"/>
		<path style="clip-path:url(#SVGID_2_);fill:#FFF9F0;" d="M28.004,42.979c0,0,0.159,1.268,2.032,1.744
			c2.401,0.617,4.989,0.642,7.659,0.258c1.798-0.258,2.683-2.252,2.683-2.252S35.236,43.852,28.004,42.979z"/>
		<path style="clip-path:url(#SVGID_2_);fill:#FFF9F0;" d="M28.888,44.803c-0.187-0.33-0.107-0.861,0.75-0.373
			c1.207,0.687,3.206,0.82,5.613,0.729c2.232-0.085,3.361-0.678,3.799-0.321c0.439,0.357-1.549,2.441-5.389,2.078
			C29.665,46.535,28.888,44.803,28.888,44.803z"/>
		<path style="clip-path:url(#SVGID_2_);fill:#E8DAC5;" d="M28.481,43.869c0,0,9.004-0.729,11.157-0.029
			c0,0,0.634-0.704,0.739-1.111c0,0-6.293,1.068-12.374,0.25C28.004,42.979,28.138,43.566,28.481,43.869z"/>
		<path style="clip-path:url(#SVGID_2_);fill:#E8DAC5;" d="M30.356,44.683c0,0,3.029,1.084,7.096,0.236
			C37.452,44.919,33.585,46.398,30.356,44.683z"/>
		<path style="clip-path:url(#SVGID_2_);fill:#FFA073;" d="M45.705,37.188c0.114,0.174,0.199,0.372,0.254,0.599
			c0.522,2.201-4.427,1.361-4.994,0.396c-1.065-1.811,0.606-2.213,1.854-2.165C43.772,36.053,45.104,36.271,45.705,37.188z"/>
		<path style="clip-path:url(#SVGID_2_);fill:#FFA073;" d="M27.093,36.6c0.159,0.146,0.3,0.326,0.412,0.543
			c1.104,2.1-4.146,2.531-4.974,1.699c-1.553-1.564,0.042-2.406,1.32-2.683C24.831,35.949,26.244,35.823,27.093,36.6z"/>
		<path style="clip-path:url(#SVGID_2_);fill:#261B18;" d="M25.298,35.418c-0.603-0.307-1.372-0.391-2.027-0.212
			c-1.375-1.214-0.02-4.827,2.015-3.907C26.798,31.987,26.687,34.73,25.298,35.418z"/>
		<path style="opacity:0.3;clip-path:url(#SVGID_2_);fill:#B54D26;" d="M37.469,37.988c-0.499-0.637-1.232,0.045-2.562,0.035
			c-1.199-0.008-1.662-0.563-2.51-0.079c-0.846,0.481,0.321,2.102,2.442,2.063C36.955,39.973,37.898,38.537,37.469,37.988z"/>
		<path style="clip-path:url(#SVGID_2_);fill:#FFDFC2;" d="M34.677,33.516c-2.247-0.237-2.505,4.516-1.998,4.933
			c1.244,1.021,3.894,0.365,4.677-0.423C37.665,37.716,36.822,33.743,34.677,33.516z"/>
		<path style="clip-path:url(#SVGID_2_);fill:#261B18;" d="M45.027,31.527c1.105,0.691,1.052,3,0.199,3.91
			c-0.526-0.256-1.618-0.388-2.17-0.036C41.357,34.232,42.966,30.237,45.027,31.527z"/>
		<path style="opacity:0.7;clip-path:url(#SVGID_2_);fill:#E6D2C3;" d="M24.281,32.172c0.746-0.236,1.183,0.91,0.589,1.325
			C24.049,34.069,23.445,32.44,24.281,32.172z"/>
		<path style="opacity:0.7;clip-path:url(#SVGID_2_);fill:#E6D2C3;" d="M43.942,32.202c0.73-0.13,1.002,1.011,0.389,1.33
			C43.482,33.974,43.119,32.352,43.942,32.202z"/>
		<path style="clip-path:url(#SVGID_2_);fill:#2B221C;" d="M22.599,26.876c1.459-0.25,3.419,0.141,4.856,0.799
			c0.696,0.318,1.49,1.072,1.015,1.99c-0.376,0.726-2.463-0.884-4.716-0.848c-2.449,0.043-2.724,1.177-2.858,0.69
			C20.757,29.017,20.407,27.253,22.599,26.876z"/>
		<path style="clip-path:url(#SVGID_2_);fill:#2B221C;" d="M45.566,27.302c-1.444-0.303-3.42,0.014-4.881,0.619
			c-0.706,0.292-1.53,1.016-1.089,1.951c0.348,0.739,2.496-0.792,4.746-0.673c2.443,0.134,2.676,1.277,2.831,0.795
			C47.328,29.51,47.742,27.759,45.566,27.302z"/>
		<path style="clip-path:url(#SVGID_2_);fill:#2B221C;" d="M40.962,40.062c2.052,1.497,2.938,2.226,5.278,0.808
			c-0.29,2.795-3.162,4.025-5.668,3.204c-0.562-0.185-1.12-0.468-1.527-0.902c-0.91,1.519-3.109-0.094-3.829-0.888
			c-0.472,1.06-2.577,1.522-3.378,0.615c-2.006,2.612-9.861,3.096-10.313-2.045c1.703,2.076,4.851,1.602,6.1,0.279
			c2.661-2.822,3.929-1.725,7.371-1.713C37.586,39.158,38.828,38.505,40.962,40.062z"/>
		<path style="opacity:0.7;clip-path:url(#SVGID_2_);fill:#45362E;" d="M41.586,41.545c-0.179,0.438-1.12,0.625-1.505,0.693
			c-0.844,0.148-1.619-0.016-2.433-0.229c-0.146,0.969-2.424-0.213-2.721-0.623c-0.16,0.536-0.839,0.896-1.357,0.99
			c-0.826,0.149-1.102-0.286-1.549-0.855c-0.603,0.504-1.354,0.924-2.154,0.973c-0.396,0.024-1.376,0.011-1.65-0.35
			c-0.507-0.67,1.501-1.953,2.017-2.286c0.686-0.442,1.537-0.397,2.307-0.272c1.052,0.174,2.117,0.286,3.181,0.155
			c1.246-0.153,2.554-0.402,3.744,0.149c0.516,0.239,1.853,0.744,2.103,1.293C41.629,41.318,41.629,41.439,41.586,41.545z"/>
	</g>
</g>
<g id="Layer_1">
</g>
</svg>
