<?xml version="1.0" encoding="iso-8859-1"?>
<!-- Generator: Adobe Illustrator 16.0.0, SVG Export Plug-In . SVG Version: 6.00 Build 0)  -->
<!DOCTYPE svg PUBLIC "-//W3C//DTD SVG 1.1//EN" "http://www.w3.org/Graphics/SVG/1.1/DTD/svg11.dtd">
<svg version="1.1" xmlns="http://www.w3.org/2000/svg" xmlns:xlink="http://www.w3.org/1999/xlink" x="0px" y="0px"
	 width="66.003px" height="66px" viewBox="0 0 66.003 66" style="enable-background:new 0 0 66.003 66;" xml:space="preserve">
<g id="Layer_69">
	<g>
		<defs>
			<circle id="SVGID_1_" cx="33.003" cy="33" r="33"/>
		</defs>
		<clipPath id="SVGID_2_">
			<use xlink:href="#SVGID_1_"  style="overflow:visible;"/>
		</clipPath>
		<rect style="clip-path:url(#SVGID_2_);fill:#FFFFFF;" width="65.999" height="65.999"/>
		<path style="clip-path:url(#SVGID_2_);fill:#3A3A4A;" d="M26.054,53.12c-3.521,3.245-4.33,6.442-4.389,8.553
			c-0.033,1.195,0.909,2.19,2.104,2.224c0.021,0,0.041,0.001,0.062,0.001c1.168,0,2.13-0.931,2.163-2.105
			c0.051-1.831,1.087-3.729,2.995-5.489c0.879-0.81,0.936-2.18,0.125-3.06C28.303,52.364,26.934,52.31,26.054,53.12z"/>
		<path style="clip-path:url(#SVGID_2_);fill:#3A3A4A;" d="M45.013,53.12c-0.88-0.812-2.248-0.756-3.06,0.123
			c-0.811,0.88-0.755,2.25,0.124,3.06c1.909,1.76,2.945,3.658,2.996,5.489c0.032,1.175,0.995,2.105,2.163,2.105
			c0.021,0,0.041-0.001,0.062-0.001c1.195-0.033,2.138-1.028,2.104-2.224C49.344,59.563,48.534,56.365,45.013,53.12z"/>
		<path style="clip-path:url(#SVGID_2_);fill:#765AA3;" d="M43.503,62.228c0.047-4.515,3.334-8.061,1.211-9.6
			c-5.268-3.819-13.999-2.738-18.393,0c-2.007,1.249,1.022,5.231,1.107,9.6c0.028,1.452,0.104,2.679,0.186,3.771h15.81
			C43.455,64.892,43.488,63.658,43.503,62.228z"/>
		<path style="clip-path:url(#SVGID_2_);fill:#967CBF;" d="M26.132,49.391c-1.787,2.71,2.026,5.482,9.308,5.482
			c7.882,0,11.123-2.605,9.396-5.482C39.206,40.009,31.621,41.062,26.132,49.391z"/>
		<path style="clip-path:url(#SVGID_2_);fill:#5E4684;" d="M29.176,49.736c-2.088,2.693,2.15,4.095,6.252,4.158
			c4.101,0.064,7.373-1.268,6.582-3.704C41.073,47.304,31.053,47.313,29.176,49.736z"/>
		<path style="clip-path:url(#SVGID_2_);fill:#F1AA83;" d="M35.377,46.263c-1.816-0.003-4.376,0.964-4.558,3.504
			c-0.086,1.183,0.107,1.867,0.778,2.522c1.074,1.049,2.403,1.899,3.779,1.924c1.376-0.024,2.705-0.875,3.779-1.924
			c0.671-0.655,0.863-1.34,0.779-2.522C39.753,47.227,37.193,46.26,35.377,46.263z"/>
		<path style="clip-path:url(#SVGID_2_);fill:#765AA3;" d="M30.888,48.969c-1.606,0.673-2.969,5.558,4.819,5.432
			C37.193,54.376,30.896,54.01,30.888,48.969z"/>
		<path style="clip-path:url(#SVGID_2_);fill:#765AA3;" d="M39.846,48.969c0.606,4.769-6.307,5.407-4.82,5.432
			C42.814,54.526,41.452,49.642,39.846,48.969z"/>
		<path style="opacity:0.15;clip-path:url(#SVGID_2_);fill:#FFFFFF;" d="M40.481,55.897c-2.064,2.317-7.53,2.164-9.15,0.351
			c-1.078-1.21-2.041-0.78-2.307,0.036c-0.995,3.052,0.811,5.868,6.432,5.98c2.849,0.057,6.13-0.59,6.807-3.069
			C42.773,57.327,41.644,54.591,40.481,55.897z"/>
		<path style="clip-path:url(#SVGID_2_);" d="M28.824,62.298c0.509,0.709,1.962,1.634,2.952,1.913
			c-0.985,0.106-1.656,0.154-2.721,0.108c2.168,1.207,9.715,1.805,11.778,0.202c-0.345-0.088-2.166-0.06-2.409-0.082
			c1.273-0.476,2.86-1.032,3.904-2.124C38.09,64.101,32.426,63.572,28.824,62.298z"/>
		<path style="clip-path:url(#SVGID_2_);fill:#967CBF;" d="M30.845,54.086c-1.261,1.424-2.207,3.425-2.813,5.949
			c-0.053,0.221,0.083,0.442,0.303,0.495c0.032,0.008,0.065,0.011,0.097,0.011c0.186,0,0.354-0.126,0.398-0.314
			c0.574-2.393,1.459-4.275,2.63-5.596c0.15-0.17,0.135-0.43-0.035-0.58C31.254,53.901,30.996,53.916,30.845,54.086z"/>
		<path style="clip-path:url(#SVGID_2_);fill:#967CBF;" d="M40.052,54.086c-0.15-0.17-0.409-0.185-0.579-0.035
			c-0.17,0.15-0.186,0.41-0.035,0.58c1.171,1.321,2.056,3.204,2.63,5.596c0.045,0.188,0.213,0.314,0.398,0.314
			c0.032,0,0.064-0.003,0.097-0.011c0.22-0.053,0.355-0.274,0.303-0.495C42.26,57.512,41.313,55.511,40.052,54.086z"/>
		<path style="clip-path:url(#SVGID_2_);fill:#C93712;" d="M38.939,8.775c-0.695-1.818-0.808-2.475-0.496-3.669
			c-1.392,0.583-2.716,2.073-2.929,3.218c-1.16-1.824-3.867-3.382-6.121-3.245c1.061,1.012,1.968,2.443,2.282,3.658
			c-1.5,0.214-2.556,0.241-4.063,0.439c-7.768,1.027-12.315,5.717-14.344,12.751c-0.957,3.32-0.527,7.937-0.048,11.329
			c0.244,1.719,1.975,6.093,0.044,7.422c-1.125,0.775-2.721-0.051-2.454-1.422c-1.856,1.099-2.076,3.694-0.523,5.056
			c1.61,1.412,4.521,1.554,6.452,0.871c-0.513,2.387,0.428,5.949,1.985,7.7c0.242-1.029,0.851-2.131,1.671-2.757
			c-0.507,0.387,1.647,1.479,1.871,1.525c0.849,0.175,1.774-0.228,2.562-0.492c2.221-0.747,3.93-2.003,6.31-2.503
			c1.911-0.4,18.789,2.728,18.275-0.611c0.133,0.866,0.213,1.769,0.334,2.647c1.791-1.39,3.338-3.62,3.118-5.977
			c2.646-0.378,4.392-1.159,3.578-4.121c-0.428,1.172-1.864,1.11-2.842,0.659c-3.231-1.486-0.947-7.063,0.468-10.839
			c0.396-1.058,0.725-1.975,0.845-2.62c0.094,0.069,1.854,2.982,1.831,3.103c0.482-2.528,0.792-8.013-1.546-12.893
			C52.955,13.317,48.139,15.077,38.939,8.775z"/>
		<circle style="clip-path:url(#SVGID_2_);fill:#FF9819;" cx="49.436" cy="40.58" r="1.362"/>
		<path style="clip-path:url(#SVGID_2_);fill:#FFC38F;" d="M32.258,13.19C24.579,14.795,19.305,25.937,20.858,36.3
			c1.163,7.763,7.276,16.215,16.303,15.451c9.21-0.78,13.644-12.276,12.323-21.824C48.05,19.546,43.009,10.943,32.258,13.19z"/>
		<path style="opacity:0.3;clip-path:url(#SVGID_2_);fill:#BF3C1B;" d="M49.397,18.403c-0.469-0.752-1.174-1.319-1.928-1.766
			c-1.62-0.959-3.477-1.433-5.272-1.944c-3.044-0.867-6.186-1.327-9.354-1.342c-2.812-0.011-5.867-0.128-8.469,1.094
			c-1.432,0.671-3.188,1.588-3.704,3.188c-0.643,1.991-0.288,4.483,0.065,6.503c0.387,2.213,0.957,4.474,2.162,6.396
			c0.082-1.521,0.754-3.114,1.678-4.295c0.751-0.962,1.829-2.713,3.13-2.941c-0.016,0.003-0.869,2.517-1.008,2.776
			c-0.465,0.873-1.332,1.297-2.158,1.817c0.803,0.682,3.193,0.548,4.16,0.351c0.667-0.137,1.462-0.343,2.001-0.761
			c-0.082,0.23-0.104,0.521-0.104,0.785c1.267-0.175,2.555-0.129,3.853-0.404c0.997-0.212,1.867-0.565,2.779-0.923
			c-0.125,0.188-0.228,0.404-0.272,0.618c0.267-0.039,0.526-0.211,0.768-0.296c-0.112,0.286-0.222,0.609-0.193,0.912
			c2.478-0.065,5.067-0.109,7.532-0.347c1.657-0.159,3.43-1.11,4.18-2.635c0.533-1.081,0.832-2.295,0.733-3.483
			C49.88,20.56,50.041,19.435,49.397,18.403z"/>
		<path style="clip-path:url(#SVGID_2_);fill:#FFC38F;" d="M18.114,32.011c-3.767,1.093-2.175,6.59,0.927,7.655
			c0.995,0.343,2.047,0.376,3.058,0.292c0.019-0.031,0.039-0.062,0.06-0.095c0.442-0.725-0.244-4.737-0.486-5.491
			C21.065,32.472,19.921,31.487,18.114,32.011z"/>
		<path style="opacity:0.4;clip-path:url(#SVGID_2_);fill:#D14F2E;" d="M19.468,34.024c-0.855-0.38-2.966,0.354-1.947,2.002
			c0.506-1.547,1.458-0.551,1.329,0.545c-0.087,0.736-0.875,0.756-0.079,1.688c0.431,0.504,1.286,0.303,1.716,0.024
			C21.851,37.398,20.511,34.487,19.468,34.024z"/>
		<path style="clip-path:url(#SVGID_2_);fill:#C93712;" d="M48.428,15.521c-1.645-1.113-2.582-2.864-4.49-3.777
			c-1.659-0.795-3.631-1.452-5.446-1.777c-2.575-0.462-5.334-0.476-7.92-0.132c-4.352,0.579-9.585,2.718-10.901,7.354
			c-0.809,2.849-0.322,6.132-0.066,9.027c0.296,3.332-0.197,7.306,2.956,9.509c0.198-0.804,0.143-1.683,0.264-2.505
			c0.157-1.083,0.456-2.173,0.387-3.277c-0.068-1.111-0.188-1.979,0.057-3.12c0.396-1.841,1.754-3.403,3.19-4.555
			c1.227-0.982,1.991-0.506,1.604,0.984c-0.333,1.279-1.563,2.499-2.56,3.301c0.116-0.094,3.247,0.21,3.909-0.014
			c1.312-0.443,2.59-1.244,3.293-2.491c-0.626,1.109-0.415,1.813-1.417,2.804c3.009,0.869,4.694-0.12,7.199-1.987
			c-0.191,0.517-0.452,1.095-0.769,1.513c0.387-0.207,1.029-0.586,1.354-0.749c-0.177,0.516-0.391,1.001-0.593,1.489
			c1.987-0.334,4,0.442,5.975-0.054c2.459-0.617,6.332-3.655,6.746-6.286c0.169-1.078-0.108-2.115-0.642-3.024
			C50.035,16.858,49.266,16.089,48.428,15.521z"/>
		<path style="clip-path:url(#SVGID_2_);fill:#E85216;" d="M45.48,12.771c-5.716,0.544-9.752,6.577-15.82,5.28
			c-2.552-0.545-4.905-1.276-7.554-1.22c-2.564,0.055-5.966,1.057-7.114,3.556c-0.244,0.53-1.943,6.665-0.64,6.834
			c1.586,0.207,3.049-0.547,4.424-1.021c1.375-0.474,1.832,0.433,2.84,1.076c-0.763-0.486,2.453-4.258,2.941-4.652
			c0.98-0.792,2.381-1.398,3.548-0.922c0.124,0.051,0.246,0.114,0.364,0.191c1.244,0.807-0.036,2.583-0.253,3.621
			c2.14-0.886,4.127-2.119,5.953-3.551c-0.178,1.282-0.459,2.451-0.753,3.671c1.585-0.093,2.925-1.032,4.036-2.097
			c0.609-0.584,1.1-1.463,1.867-1.86c0.395-0.204,0.637-0.433,0.788,0.095c0.03,0.105-0.563,1.77-0.647,1.826
			c0.571-0.385,1.924-2.31,2.686-2.09c0.825,0.237-1.778,4.451-2.124,4.367c2.232,0.537,4.729-0.16,6.637-1.357
			c0.909-0.569,1.817-1.355,2.477-2.201c0.826-1.06,0.136-1.93,0.467-3.114c0.367,0.607,0.803,0.961,1.053,1.686
			c0.647,1.875,0.169,3.571-0.292,5.474c2.619,1.035,3.152-0.95,3.607-3.229c0.534,0.712,0.852,1.572,1.403,2.277
			C56.458,19.821,51.646,12.187,45.48,12.771z"/>
		<circle style="clip-path:url(#SVGID_2_);fill:#FF9819;" cx="20.214" cy="41.871" r="1.362"/>
		<path style="clip-path:url(#SVGID_2_);fill:#FF7752;" d="M48.688,37.135c-0.433-0.765-1.48-0.954-2.239-0.991
			c-0.989-0.047-2.338,0.274-1.581,1.782c0.403,0.806,4.298,1.536,3.991-0.293C48.829,37.444,48.771,37.279,48.688,37.135z"/>
		<path style="clip-path:url(#SVGID_2_);fill:#FF7752;" d="M29.728,37.44c-0.605-0.789-1.789-0.767-2.63-0.636
			c-1.095,0.172-2.52,0.856-1.431,2.434c0.579,0.839,4.982,0.794,4.335-1.259C29.935,37.768,29.841,37.591,29.728,37.44z"/>
		<path style="clip-path:url(#SVGID_2_);fill:#C93712;" d="M42.859,28.902c2.241,0.19,4.775,0.166,7.551,0.046
			C49.173,27.188,44.465,27.193,42.859,28.902z"/>
		<path style="opacity:0.4;clip-path:url(#SVGID_2_);fill:#D14F2E;" d="M37.921,37.859c-0.733,0.025-1.033-0.276-1.541,0.018
			c-0.505,0.295,0.634,1.268,1.54,1.173c1.025-0.109,1.851-0.974,1.571-1.273C39.167,37.426,38.738,37.831,37.921,37.859z"/>
		<path style="clip-path:url(#SVGID_2_);fill:#C93712;" d="M23.654,28.964c4.047,0.003,5.415,0.15,8.222,0.014
			C30.355,27.116,25.403,27.36,23.654,28.964z"/>
		<path style="clip-path:url(#SVGID_2_);fill:#FF3B3B;" d="M27.706,40.554c4.158,6.213,6.649,7.309,9.768,7.408
			c3.909,0.124,5.172-2.505,5.71-4.465c0.229-0.83,2.146-3.001,2.898-3.502c-2.416,0.631-4.819,0.398-8.485,0.615
			C34.563,40.79,30.135,41.792,27.706,40.554z"/>
		<path style="clip-path:url(#SVGID_2_);fill:#80221D;" d="M29.573,41.604c0,0,2.513,4.187,7.369,4.15
			c3.112-0.024,5.134-1.08,5.673-2.538c0.59-1.595,1.899-2.201,1.899-2.201C36.1,43.286,29.573,41.604,29.573,41.604z"/>
		<path style="clip-path:url(#SVGID_2_);fill:#FFF9F0;" d="M31.387,41.933c0,0,0.18,1.283,1.921,1.731
			c2.231,0.579,4.62,0.552,7.073,0.108c1.652-0.297,2.416-2.34,2.416-2.34S38.083,42.674,31.387,41.933z"/>
		<path style="clip-path:url(#SVGID_2_);fill:#FFF9F0;" d="M38.132,44.003c-2.219,0.142-4.067,0.044-5.197-0.629
			c-0.807-0.479-0.865,0.062-0.686,0.394c0,0,0.765,1.743,4.46,2.05c3.553,0.294,5.332-1.862,4.918-2.216
			C41.213,43.247,40.188,43.873,38.132,44.003z"/>
		<path style="clip-path:url(#SVGID_2_);fill:#E8DAC5;" d="M31.387,41.933c0,0,0.14,0.594,0.464,0.896c0,0,8.289-0.921,10.295-0.254
			c0,0,0.566-0.728,0.651-1.142C42.797,41.433,37.019,42.643,31.387,41.933z"/>
		<path style="clip-path:url(#SVGID_2_);fill:#E8DAC5;" d="M33.603,43.616c3.024,1.679,6.553,0.1,6.553,0.1
			C36.426,44.657,33.603,43.616,33.603,43.616z"/>
		<path style="clip-path:url(#SVGID_2_);fill:#1C5C57;" d="M28.473,31.208c-2.146-0.752-3.146,3.197-1.633,4.326
			c0.644-0.257,1.429-0.252,2.068,0.006C30.239,34.668,30.07,31.767,28.473,31.208z"/>
		<path style="opacity:0.7;clip-path:url(#SVGID_2_);fill:#6CD9D2;" d="M28.65,33.157c-0.879,0.154-0.507,1.951,0.4,1.475
			C29.708,34.287,29.432,33.021,28.65,33.157z"/>
		<path style="clip-path:url(#SVGID_2_);fill:#1C5C57;" d="M47.518,31.029c-2.137-1.366-4.019,3.634-1.642,4.354
			c0.574-0.394,1.264-0.394,1.878-0.299C48.571,34.021,48.663,31.762,47.518,31.029z"/>
		<path style="opacity:0.7;clip-path:url(#SVGID_2_);fill:#6CD9D2;" d="M47.208,32.752c-0.843,0.022-0.724,1.895,0.188,1.553
			C48.056,34.058,47.957,32.735,47.208,32.752z"/>
		<path style="clip-path:url(#SVGID_2_);fill:#121B21;" d="M47.578,30.923c-1.959-0.755-2.604,1.568-2.604,1.568
			s0.95-1.171,2.285-0.427c3.026,1.69,4.979-0.361,4.979-0.361C49.838,32.509,48.628,31.328,47.578,30.923z"/>
		<path style="clip-path:url(#SVGID_2_);fill:#121B21;" d="M27.05,31.347c-0.774,0.416-2.564,1.651-4.994,1.005
			c0,0,2.347,1.943,5.221,0.071c1.26-0.823,2.379,0.127,2.379,0.127S29.068,30.261,27.05,31.347z"/>
		<path style="opacity:0.25;clip-path:url(#SVGID_2_);fill:#6E1000;" d="M38.439,14.95c-3.673-0.339-7.339-1.063-11.043-0.937
			c-2.345,0.078-5.064,0.095-7.203,1.087c-0.983,0.457-2.283,1.429-2.278,2.475c0.001,0.32,0.125,0.647,0.417,0.969
			c0.796,0.871,2.791,1.205,3.902,1.602c2.575,0.925,5.287,1.323,7.909,2.098c4.426,1.306,15.011,2.605,19.206,0.464
			C53.997,20.337,45.487,15.605,38.439,14.95z"/>
		<path style="clip-path:url(#SVGID_2_);fill:#8E9194;" d="M15.778,12.208c-1.033,0.791-1.407,3.95,0.431,5.002
			c6.815,3.896,31.077,6.952,38.882,2.738C63.159,15.593,26.14,4.285,15.778,12.208z"/>
		<path style="clip-path:url(#SVGID_2_);fill:#C1C5C9;" d="M19.983,10.368l-1.595,0.58c-0.922,0.34-2.295,2.212-1.828,3.766
			c0.94,3.135,12.296,7.497,33.46,6.052C29.689,20.377,16.438,16.707,19.983,10.368z"/>
		<path style="clip-path:url(#SVGID_2_);fill:#6E7073;" d="M20.396,10.063l-1.594,0.58c-0.922,0.338-2.646,2.343-1.829,3.764
			c1.097,1.906,10.208,5.79,26.289,6.093C27.535,18.542,16.851,16.401,20.396,10.063z"/>
		<path style="clip-path:url(#SVGID_2_);fill:#6E7073;" d="M46.463,3.893c-3.897-2.599-23.885-2.198-25.699,0.924
			c-0.939,1.616-2.747,8.734-1.429,10.02c2.95,2.878,26.904,5.655,31.163,0.743C49.898,10.387,47.683,4.706,46.463,3.893z"/>
		<path style="clip-path:url(#SVGID_2_);fill:#5D5F61;" d="M51.299,15.809l-1.298-3.846c-0.143,0.042-0.366,0.12-0.669,0.236
			c-1.313,0.496-4.811,1.787-11.219,1.917c-7.978,0.124-15.111-1.941-18.54-2.934l-0.607-0.175l-1.337,3.846l0.596,0.171
			c3.65,1.057,11.247,3.257,19.944,3.119c0.172-0.001,0.341-0.004,0.511-0.008c6.94-0.176,10.836-1.649,12.324-2.214
			c0.136-0.051,0.242-0.093,0.318-0.117l-0.672-1.916L51.299,15.809z"/>
		<path style="clip-path:url(#SVGID_2_);fill:#9FA2A6;" d="M51.298,15.101l-1.297-3.845c-0.144,0.041-0.366,0.12-0.67,0.235
			c-1.313,0.496-4.792,1.773-11.219,1.916c-7.977,0.125-15.111-1.942-18.54-2.934l-0.606-0.176l-1.338,3.846l0.596,0.171
			c3.651,1.057,11.248,3.256,19.944,3.121c0.171-0.002,0.339-0.006,0.506-0.01c6.944-0.176,10.84-1.649,12.329-2.213
			c0.136-0.051,0.241-0.094,0.318-0.117l-0.672-1.917L51.298,15.101z"/>
		<path style="clip-path:url(#SVGID_2_);fill:#9FA2A6;" d="M40.811,3.194c-3.446-0.6-7.208-0.689-10.664-0.146
			c-1.571,0.247-3.157,0.431-4.734,0.658c-1.032,0.15-2.396,0.314-3.259,0.916c0.781,0.166,1.651-0.013,2.44-0.063
			C28.077,4.343,31.587,4,35.08,4.129c2.415,0.088,4.828,0.338,7.238,0.489c0.382,0.024,2.445,0.17,2.544-0.396
			c0.001-0.011,0.003-0.023,0.003-0.035C44.894,3.408,41.254,3.271,40.811,3.194z"/>
		<path style="clip-path:url(#SVGID_2_);fill:#C1C5C9;" d="M22.318,15.68c2.486,0.621,4.832,1.085,7.172,1.418l0.778-4.451
			c-2.155-0.305-4.323-0.734-6.63-1.311L22.318,15.68z"/>
		<path style="opacity:0.5;clip-path:url(#SVGID_2_);fill:#8E9194;" d="M40.635,6.158c-4.368-0.653-9.012-0.979-13.361-0.199
			c-1.428,0.254-2.854,0.555-3.986,1.466c-0.383,0.309-2.422,1.719-1.721,2.02c3.478,1.488,7.553,1.945,11.286,2.541
			c4.077,0.649,8.696,0.361,12.607-0.867c-0.31-1.542-0.531-2.016-1.343-3.419C43.425,6.499,41.976,6.358,40.635,6.158z"/>
		<path style="clip-path:url(#SVGID_2_);fill:#3A3A4A;" d="M25.994,61.793c0.033-1.195-0.909-2.192-2.104-2.226
			c-0.021,0-0.041-0.001-0.062-0.001c-1.167,0-2.13,0.931-2.163,2.105c-0.044,1.581,0.319,3.041,1.021,4.327h6.076
			C27.345,65.275,25.933,64.001,25.994,61.793z"/>
		<path style="clip-path:url(#SVGID_2_);fill:#3A3A4A;" d="M47.239,59.566c-0.021,0-0.042,0.001-0.062,0.001
			c-1.195,0.033-2.138,1.03-2.104,2.226c0.062,2.208-1.351,3.482-2.769,4.206h6.076c0.702-1.286,1.065-2.746,1.021-4.327
			C49.369,60.497,48.406,59.566,47.239,59.566z"/>
	</g>
</g>
<g id="Layer_1">
</g>
</svg>
