<?xml version="1.0" encoding="iso-8859-1"?>
<!-- Generator: Adobe Illustrator 16.0.0, SVG Export Plug-In . SVG Version: 6.00 Build 0)  -->
<!DOCTYPE svg PUBLIC "-//W3C//DTD SVG 1.1//EN" "http://www.w3.org/Graphics/SVG/1.1/DTD/svg11.dtd">
<svg version="1.1" xmlns="http://www.w3.org/2000/svg" xmlns:xlink="http://www.w3.org/1999/xlink" x="0px" y="0px"
	 width="66.008px" height="66px" viewBox="0 0 66.008 66" style="enable-background:new 0 0 66.008 66;" xml:space="preserve">
<g id="Layer_43">
	<g>
		<defs>
			<circle id="SVGID_1_" cx="33.008" cy="33" r="33"/>
		</defs>
		<clipPath id="SVGID_2_">
			<use xlink:href="#SVGID_1_"  style="overflow:visible;"/>
		</clipPath>
		<rect style="clip-path:url(#SVGID_2_);fill:#7997A0;" width="66" height="65.998"/>
		<path style="clip-path:url(#SVGID_2_);fill:#E0E0E0;" d="M29.912,57.74l-1.492-2.839c-2.025,0.994-2.547,3.257-3.099,5.655
			c-0.199,0.869-0.807,3.39-1.383,5.441h3.433c0.482-1.873,1.013-4.083,1.166-4.75C28.898,59.677,29.273,58.054,29.912,57.74z"/>
		<path style="clip-path:url(#SVGID_2_);fill:#FFC38F;" d="M48.165,50.482c-2.389,2.908,0.013,3.738,2.298,5.25
			c1.142,0.754,2.494,2.066,3.417,0.149c0.53-1.101,0.53-1.979,0.942-3.11c0.344-0.95,0.77-2.242,1.383-3.025
			C57.89,47.596,55.561,41.484,48.165,50.482z"/>
		<path style="clip-path:url(#SVGID_2_);fill:#23232D;" d="M47.438,36.904c-0.357-0.355-0.955-0.336-1.331,0.041l-5.46,5.482
			c-0.376,0.378-0.392,0.978-0.036,1.332l9.759,9.717c0.355,0.354,0.955,0.336,1.333-0.042l5.458-5.481
			c0.375-0.378,0.392-0.978,0.036-1.332L47.438,36.904z"/>
		<path style="clip-path:url(#SVGID_2_);fill:#141418;" d="M47.082,36.59c-0.341-0.339-0.919-0.313-1.288,0.058l-5.35,5.372
			c-0.368,0.371-0.394,0.95-0.052,1.289l9.307,9.268c0.34,0.338,0.918,0.312,1.289-0.06l5.348-5.371
			c0.369-0.371,0.394-0.95,0.053-1.289L47.082,36.59z"/>
		<path style="clip-path:url(#SVGID_2_);fill:#3A3A4A;" d="M47.082,36.59c-0.341-0.339-0.919-0.313-1.288,0.058l-5.35,5.372
			c-0.368,0.371-0.394,0.95-0.052,1.289l9.307,9.268c0.34,0.338,0.918,0.312,1.289-0.06l5.348-5.371
			c0.369-0.371,0.394-0.95,0.053-1.289L47.082,36.59z"/>
		<path style="clip-path:url(#SVGID_2_);fill:#FFFFFF;" d="M47.183,38.509c-0.272-0.271-0.714-0.273-0.981-0.005l-3.899,3.916
			c-0.267,0.269-0.263,0.709,0.01,0.981l7.193,7.161c0.272,0.271,0.714,0.273,0.98,0.005l3.899-3.916
			c0.267-0.269,0.263-0.71-0.01-0.98L47.183,38.509z"/>
		<path style="opacity:0.5;clip-path:url(#SVGID_2_);fill:#FFFFFF;" d="M45.794,36.647l-5.35,5.372
			c-0.368,0.371-0.176,1.401,0.166,1.74l5.167,5.026l2.958-10.551l-1.653-1.646C46.741,36.251,46.163,36.277,45.794,36.647z"/>
		<path style="clip-path:url(#SVGID_2_);fill:#FFC38F;" d="M46.203,49.396c-0.165,0.467,0.631,1.325,0.823,1.745
			c0.31,0.672-0.199,1.918,0.61,2.442c0.655,0.426,1.187-0.079,1.444-0.637c0.477-1.021-0.011-2.313-0.932-3.244
			C47.724,49.274,46.467,48.66,46.203,49.396z"/>
		<path style="clip-path:url(#SVGID_2_);fill:#E0E0E0;" d="M39.609,55.164c-0.504-0.342-0.868,2.549-0.515,3.775
			c1.321,4.593,12.814,7.425,14.971-2.416l-4.29-1.053C48.193,64.407,41.035,56.133,39.609,55.164z"/>
		<path style="clip-path:url(#SVGID_2_);fill:#E0E0E0;" d="M39.68,55.164c-2.4-2.433-8.704-2.244-11.341-0.175
			c-2.715,2.131-0.122,7.188,0.458,11.009h10.281C39.319,60.965,42.339,57.856,39.68,55.164z"/>
		<path style="clip-path:url(#SVGID_2_);fill:#3A3A4A;" d="M39.875,61.719c-0.873-1.897-0.681-5.063-0.223-6.581
			c-2.41-2.393-8.995-2.191-11.739,0.054c0.38,1.359,0.637,4.059-0.242,6.15c0.437,1.721,0.878,3.211,1.021,4.656h10.504
			C39.201,64.335,39.481,63.067,39.875,61.719z"/>
		<path style="opacity:0.3;clip-path:url(#SVGID_2_);" d="M29.266,56.718l0.877,3.941c0,0,3.438-1.754,3.861-1.754
			c0.463,0,3.926,1.6,3.926,1.6l0.471-4.06c0,0-3.633,2.249-4.384,2.252C33.459,58.699,29.266,56.718,29.266,56.718z"/>
		<path style="clip-path:url(#SVGID_2_);fill:#F2F2F2;" d="M36.913,53.154c-1.749-0.735-4.85-0.686-6.474,0.083
			c-3.169,1.501,0.198,6.421,0.198,6.421l3.407-0.858l3.399,0.746C37.444,59.546,40.016,54.457,36.913,53.154z"/>
		<linearGradient id="SVGID_3_" gradientUnits="userSpaceOnUse" x1="33.8872" y1="51.2881" x2="33.8872" y2="54.4987">
			<stop  offset="0" style="stop-color:#EE996D"/>
			<stop  offset="0.0163" style="stop-color:#EE9A6E"/>
			<stop  offset="0.3731" style="stop-color:#F8B181"/>
			<stop  offset="0.7088" style="stop-color:#FDBF8D"/>
			<stop  offset="1" style="stop-color:#FFC491"/>
		</linearGradient>
		<path style="clip-path:url(#SVGID_2_);fill:url(#SVGID_3_);" d="M36.952,53.619c-0.554-0.441-0.42-1.801-0.331-3.376
			c0.206-3.57-5.96-3.703-5.953,0.193c0.002,1.728,0.063,2.809-0.4,3.284c-0.896,0.921-0.813,2.538,3.692,4.62
			C36.418,57.123,39.612,55.737,36.952,53.619z"/>
		<circle style="clip-path:url(#SVGID_2_);fill:#FFF9F0;" cx="30.108" cy="54.28" r="0.526"/>
		<circle style="clip-path:url(#SVGID_2_);fill:#FFF9F0;" cx="31.31" cy="55.096" r="0.525"/>
		<circle style="clip-path:url(#SVGID_2_);fill:#FFF9F0;" cx="32.866" cy="55.645" r="0.526"/>
		<circle style="clip-path:url(#SVGID_2_);fill:#FFF9F0;" cx="34.424" cy="55.729" r="0.525"/>
		<circle style="clip-path:url(#SVGID_2_);fill:#FFF9F0;" cx="37.249" cy="54.227" r="0.526"/>
		<circle style="clip-path:url(#SVGID_2_);fill:#FFF9F0;" cx="35.999" cy="55.15" r="0.526"/>
		<path style="opacity:0.07;clip-path:url(#SVGID_2_);fill:#FFFFFF;" d="M36.563,60.201c-1.874,0.701-4.154,0.41-6.077-0.094
			c-1.104-0.291-1.728,1.03-1.389,2.158c0.449,1.497,2.742,1.886,4.741,1.85c3.942-0.07,5.421-1.617,4.755-3.459
			C38.416,60.163,37.572,59.825,36.563,60.201z"/>
		<path style="clip-path:url(#SVGID_2_);fill:#FAD882;" d="M17.863,23.668c-10.011,1.616-10.901,13.913-5.484,19.53
			c4.244,4.399,3.856,7.421,0.544,7.761c1.983,2.05,15.199,6.604,17.397-9.825C32.518,24.707,22.656,22.893,17.863,23.668z"/>
		<path style="clip-path:url(#SVGID_2_);fill:#FFE9B1;" d="M16.272,26.161c-2.584-0.188-6.8,2.938-6.466,9.252
			c0.152,2.941,1.91,6.19,1.91,6.19s-2.439-9.21,6.605-10.37C28.249,29.961,16.272,26.161,16.272,26.161z"/>
		<path style="clip-path:url(#SVGID_2_);fill:#EBC271;" d="M24.304,33.326c-1.947,1.486-7.191-0.036-3.836,9.65
			c2.371,6.85-0.368,9.403-5.748,8.722c0,0,8.323,3.854,14.78-4.54C36.523,38.031,33.07,26.643,24.304,33.326z"/>
		<path style="clip-path:url(#SVGID_2_);fill:#EBC271;" d="M18.67,31.555c-1.925-0.149-3.49,1.328-2.811,5.795
			c0.676,4.465,4.833,3.815,4.833,3.815S20.593,31.704,18.67,31.555z"/>
		<path style="clip-path:url(#SVGID_2_);fill:#FAD882;" d="M31.271,9.402c-22.702,0.903-18.229,31.494-8.414,30.271
			c5.015-0.625,3.682-6.459,8.577-7.694c2.403-0.607,4.907-0.651,7.372-0.531c2.395,0.117,6.733,6.724,7.853,5.203
			C49.33,33.026,51.146,8.611,31.271,9.402z"/>
		<path style="clip-path:url(#SVGID_2_);fill:#FFC59A;" d="M32.415,16.093c-10.494,0.594-13.771,7.852-13.239,18.573
			c0.531,10.725,8.137,17.614,15.905,17.9c5.965,0.22,13.243-9.563,12.37-20.266C46.59,21.743,42.507,15.522,32.415,16.093z"/>
		<path style="opacity:0.3;clip-path:url(#SVGID_2_);fill:#D14F2E;" d="M32.624,20.525c-0.896,0.264,0.283,1.847,0.283,1.847
			c0.169-1.109,0.78-0.96,1.42-0.38C34.327,21.992,33.523,20.26,32.624,20.525z"/>
		<path style="opacity:0.3;clip-path:url(#SVGID_2_);fill:#D14F2E;" d="M35.523,19.737c-1.811-0.009-1.188,2.267-1.188,2.267
			c0.345-1.232,1.839-1.438,3.239-0.369C37.574,21.635,37.336,19.745,35.523,19.737z"/>
		<path style="opacity:0.3;clip-path:url(#SVGID_2_);fill:#D14F2E;" d="M24.005,18.229c-7.913,3.32-3.165,18.72-3.165,18.72
			c-3.197-21.756,10.33-15.379,12.067-14.576C31.376,20.018,29.603,15.88,24.005,18.229z"/>
		<path style="opacity:0.3;clip-path:url(#SVGID_2_);fill:#D14F2E;" d="M40.184,16.023c-2.053,0.198-2.683,4.143-2.609,5.611
			c1.922-2.743,6.403-2.175,8.574,3.45C46.179,22.815,43.031,15.751,40.184,16.023z"/>
		<path style="clip-path:url(#SVGID_2_);fill:#FFC59A;" d="M17.377,31.562c-2.862,1.363-1.548,7.316,0.845,8.348
			c0.769,0.331,1.572,0.322,2.345,0.186c0.015-0.035,0.028-0.07,0.044-0.107c0.327-0.813-0.395-4.785-0.592-5.603
			C19.519,32.329,18.751,30.907,17.377,31.562z"/>
		<path style="opacity:0.3;clip-path:url(#SVGID_2_);fill:#D14F2E;" d="M18.354,33.538c-0.594-0.304-1.815,0.688-0.928,2.295
			c0.088-1.665,0.836-0.729,0.915,0.426c0.058,0.776-0.438,0.882,0.203,1.767c0.345,0.479,0.854,0.179,1.085-0.16
			C20.355,36.797,19.079,33.909,18.354,33.538z"/>
		<path style="clip-path:url(#SVGID_2_);fill:#FAD882;" d="M28.875,10.854c-10.464,2.307-15.333,18.184-6.763,30.632
			c-1.502-4.141-3.132-15.583-0.58-19.217c2.563-3.646,8.323-2.103,11.375,0.103c0.012-0.469,0.078-0.957,0.206-1.388
			c0.114,0.109,1.069,0.779,1.214,1.008c0.318-1.856,2.197-1.521,3.247-0.357c0.959-4.077,6.986-4.547,9.193,5.878
			c0.245,1.162,0.071-4.534-0.162-5.708C45.514,16.352,38.617,8.707,28.875,10.854z"/>
		<path style="clip-path:url(#SVGID_2_);fill:#FFE9B1;" d="M41.838,12.618c-8.998,8.67-20.811,0.979-20.811,0.979
			c-4.362,2.693-5.335,8.993-5.335,8.993s2.283,1.153,4.215-1.586c1.93-2.74,5.137-3.064,8.798-2.44s6.927-0.597,11.125-1.201
			c4.193-0.604,7.054,4.103,7.054,4.103C46.127,16.243,41.838,12.618,41.838,12.618z"/>
		<circle style="clip-path:url(#SVGID_2_);fill:#FFF9F0;" cx="19.165" cy="41.071" r="1.141"/>
		<path style="clip-path:url(#SVGID_2_);fill:#FFB085;" d="M46.4,37.104c-0.437-0.842-1.552-1.019-2.36-1.033
			c-1.058-0.017-2.51,0.39-1.748,2.051c0.405,0.885,4.545,1.568,4.278-0.468C46.543,37.444,46.482,37.262,46.4,37.104z"/>
		<path style="clip-path:url(#SVGID_2_);fill:#FFB085;" d="M27.604,37.33c-0.628-0.862-1.88-0.818-2.768-0.656
			c-1.16,0.208-2.677,0.989-1.55,2.713c0.601,0.92,5.257,0.792,4.603-1.466C27.819,37.688,27.724,37.493,27.604,37.33z"/>
		<path style="opacity:0.3;clip-path:url(#SVGID_2_);fill:#D14F2E;" d="M34.978,37.085c-0.819,0.005-1.15-0.34-1.72-0.029
			c-0.565,0.313,0.69,1.433,1.7,1.354c1.146-0.088,2.075-1.024,1.768-1.365C36.368,36.643,35.886,37.081,34.978,37.085z"/>
		<path style="clip-path:url(#SVGID_2_);fill:#6E4C3C;" d="M38.941,27.311c0,0,1.883-0.229,3.826-0.151
			c1.944,0.076,4.137,0.505,4.137,0.505s-1.942-1.939-4.323-2.022C40.2,25.558,38.941,27.311,38.941,27.311z"/>
		<path style="clip-path:url(#SVGID_2_);fill:#6E4C3C;" d="M25.594,27.414c-2.603,0.22-4.545,2.101-4.545,2.101
			s2.382-0.587,4.508-0.774c2.127-0.189,4.2-0.039,4.2-0.039S28.197,27.194,25.594,27.414z"/>
		<path style="clip-path:url(#SVGID_2_);fill:#1E4C76;" d="M41.697,31.751c-0.106,1.616,0.288,2.88,1.717,2.986
			c2.021,0.15,2.636-1.558,2.742-2.675C45.236,31.668,43.187,31.51,41.697,31.751z"/>
		<path style="clip-path:url(#SVGID_2_);fill:#9CD0FF;" d="M43.118,31.688c-0.806,0.109-0.437,1.554,0.391,1.186
			C44.107,32.609,43.835,31.593,43.118,31.688z"/>
		<path style="clip-path:url(#SVGID_2_);fill:#121B21;" d="M40.646,32.039c0,0,1.81-0.322,3.576-0.089
			c3.581,0.476,4.718,0.047,4.718,0.047c-1.942-0.357-3.813-1.27-4.978-1.405C41.833,30.342,40.646,32.039,40.646,32.039z"/>
		<path style="clip-path:url(#SVGID_2_);fill:#1E4C76;" d="M22.995,32.626c0.162,1.114,0.858,2.789,2.869,2.54
			c1.424-0.176,1.756-1.457,1.57-3.068C25.934,31.93,23.895,32.187,22.995,32.626z"/>
		<path style="clip-path:url(#SVGID_2_);fill:#9CD0FF;" d="M25.03,32.239c-0.722-0.061-0.943,0.968-0.335,1.202
			C25.54,33.769,25.841,32.309,25.03,32.239z"/>
		<path style="clip-path:url(#SVGID_2_);fill:#121B21;" d="M25.115,31.053c-1.157,0.191-2.98,1.194-4.903,1.646
			c0,0,1.154,0.372,4.712-0.277c1.75-0.32,3.573-0.087,3.573-0.087S27.229,30.698,25.115,31.053z"/>
		<path style="opacity:0.8;clip-path:url(#SVGID_2_);fill:#FF3B3B;" d="M31.21,41.357c-2.267,0.59-5.563,2.202-3.337,4.204
			c2.632,2.366,8.354,2.305,10.836,1.16c2.163-0.999,3.815-3.616,1.67-4.818l2.008-0.766C38.668,40.691,34.768,40.43,31.21,41.357z"
			/>
		<path style="clip-path:url(#SVGID_2_);fill:#8F2722;" d="M39.277,41.991c0.3-0.104,0.718-0.313,1.132-0.473
			c-6.718-0.683-13.962,1.257-12.032,3.286c1.505,1.584,6.965,1.796,9.398,1.115C40.093,45.271,41.887,42.997,39.277,41.991z"/>
		<path style="clip-path:url(#SVGID_2_);fill:#FFF9F0;" d="M39.423,41.39c-3.305-0.221-7.568-0.085-9.925,1.1
			c-0.477,0.239-0.373,0.49,0.299,0.696c1.516,0.462,4.007-0.127,5.515-0.205c3.714-0.193,4.077,0.272,4.317-0.104
			C39.878,42.487,40.25,41.443,39.423,41.39z"/>
		<path style="clip-path:url(#SVGID_2_);fill:#E8DAC5;" d="M39.536,41.406c-1.394-0.205-8.083-0.33-10.266,1.241
			c0,0-0.449,0.314,0.526,0.538c0,0,4.494-2.429,10.138-1.013C39.935,42.173,40.138,41.47,39.536,41.406z"/>
		<path style="opacity:0.3;clip-path:url(#SVGID_2_);fill:#B54D26;" d="M45.208,28.801c-1.426,0.084-2.844,0.313-4.225,0.688
			c-1.177,0.318-2.563,0.469-3.646,1.04c-0.998,0.528-1.417,0.87-2.626,0.827c-2.165-0.074-3.997-1.41-6.159-1.62
			c-2.252-0.22-4.556-0.469-6.77,0.157c-0.575,0.164-2.315,0.835-1.133,1.446c1.152,0.598,2.873,0.395,4.132,0.435
			c0.581,0.018,1.166,0.028,1.746,0.079c2.059,0.175,5.221-0.131,5.073,2.438c-0.102,1.765-1.225,3.582-2.654,3.924
			c-1.372,0.327-2.842,0.459-4.232,0.462c-1.066,0.004-2.095-0.196-3.067-0.639c-0.276-0.126-1.104-0.645-1.369-0.271
			c-0.45,0.634,1.23,1.674,1.67,1.868c1.004,0.445,2.069,0.574,3.156,0.682c2.685,0.269,5.445,0.108,6.944-2.367
			c0.868-1.436,1.297-3.12,2.101-4.593c1.316-2.41,1.966,0.845,2.396,2.269c0.242,0.8,0.592,1.574,1.086,2.247
			c0.875,1.188,2.584,1.825,4.009,1.882c0.88,0.035,1.778-0.018,2.601-0.362c0.495-0.21,0.692-0.788,0.095-1.009
			c-0.361-0.134-0.937-0.03-1.314-0.044c-0.551-0.018-1.115-0.021-1.659-0.121c-0.697-0.125-1.4-0.407-1.992-0.836
			c-0.415-0.298-0.773-0.669-1.04-1.106c-0.55-0.911-0.584-2.029-0.233-3.021c0.482-1.365,1.977-1.483,3.215-1.599
			c1.5-0.141,3.02-0.123,4.514-0.271c0.664-0.066,1.328,0.019,1.993,0.036c0.856,0.022,2.701-0.264,1.678-1.497
			C48.507,28.732,46.594,28.719,45.208,28.801z"/>
		<path style="clip-path:url(#SVGID_2_);fill:#3A3A4A;" d="M19.643,28.963c-1.771,0.071-3.284-0.409-3.701-0.05
			c-0.538,0.469,0.424,2.04,0.424,2.04s0.567,0.395,1.396,0.456c0.126,1.229,0.083,4.406,2.356,6.394
			c1.899,1.659,8.058,2.092,9.965,1.112c2.361-1.211,3.354-3.433,3.754-5.618C34.821,27.94,22.14,28.862,19.643,28.963z
			 M30.197,37.473c-2.329,1.53-8.317,0.868-9.889-1.041c-1.212-1.475-1.449-4.573-0.72-5.02c2.231-1.37,10.663-0.921,12.625,0.551
			C33.164,32.676,31.963,36.312,30.197,37.473z"/>
		<path style="clip-path:url(#SVGID_2_);fill:#3A3A4A;" d="M48.672,28.237c-2.257,0.021-13.739-0.293-12.603,5.01
			c0.464,2.165,1.463,4.334,3.65,5.433c1.766,0.885,7.302,0.156,8.935-1.59c1.96-2.095,1.774-5.268,1.829-6.501
			c0.745-0.101,1.238-0.521,1.238-0.521s0.794-1.617,0.287-2.059C51.616,27.67,50.272,28.224,48.672,28.237z M48.42,35.729
			c-1.327,1.982-6.699,2.932-8.871,1.516c-1.646-1.075-2.9-4.649-2.075-5.407c1.698-1.564,9.284-2.418,11.361-1.156
			C49.515,31.092,49.445,34.199,48.42,35.729z"/>
		<path style="opacity:0.3;clip-path:url(#SVGID_2_);fill:#FFFFFF;" d="M38.954,31.343c-1.246,0.552,1.03,1.19,1.519,1.257
			c1.695,0.237,3.611,0.1,5.41-0.253c0.946-0.186,2.973-1.068,2.384-1.585C47.438,30.04,40.328,30.736,38.954,31.343z"/>
		<path style="clip-path:url(#SVGID_2_);fill:#FFFFFF;" d="M44.53,30.976c-0.677,0.115-1.119,0.318-0.93,0.621
			c0.375,0.597,4.353,0.214,4.618-0.248C48.479,30.894,45.972,30.733,44.53,30.976z"/>
		<path style="opacity:0.7;clip-path:url(#SVGID_2_);fill:#FFFFFF;" d="M40.265,35.98c-0.427-0.016-0.723,0.076-0.646,0.344
			c0.149,0.528,2.625,0.843,2.848,0.52C42.684,36.525,41.174,36.011,40.265,35.98z"/>
		<path style="opacity:0.7;clip-path:url(#SVGID_2_);fill:#FFFFFF;" d="M21.682,35.977c-0.446-0.067-0.767-0.013-0.723,0.263
			c0.089,0.542,2.64,1.159,2.913,0.865C24.142,36.815,22.629,36.119,21.682,35.977z"/>
		<path style="opacity:0.3;clip-path:url(#SVGID_2_);fill:#FFFFFF;" d="M31.275,31.658c-1.585-0.55-9.441-1.073-10.244-0.371
			c-0.576,0.504,1.759,1.301,2.817,1.459c2.013,0.297,4.122,0.391,5.941,0.135C30.313,32.809,32.71,32.157,31.275,31.658z"/>
		<path style="clip-path:url(#SVGID_2_);fill:#FFFFFF;" d="M27.859,31.23c-0.723,0.03-1.213,0.177-1.054,0.502
			c0.313,0.639,4.526,0.752,4.865,0.323C32.003,31.639,29.397,31.168,27.859,31.23z"/>
		<path style="clip-path:url(#SVGID_2_);fill:#3A3A4A;" d="M37.529,30.032c-1.635,0.765-3.231,0.896-5.522,0.104
			c-1.73-0.597,0.915,1.115,1.125,2.008c0.208,0.896-0.067,3.635,0.519,1.999c0.586-1.638,1.79-1.752,2.572-0.259
			c0.784,1.493,0.692-2.512,1.001-2.881C37.533,30.637,39.164,29.266,37.529,30.032z"/>
		<path style="clip-path:url(#SVGID_2_);fill:#C1C5C9;" d="M20.477,29.481c4.782,0.201,8.603,0.307,11.499,1.397
			C30.08,29.347,26.836,29.031,20.477,29.481z"/>
		<path style="clip-path:url(#SVGID_2_);fill:#C1C5C9;" d="M48.271,28.657c-5.831,0.26-8.551,0.324-10.109,1.821
			C40.678,29.257,43.943,29.313,48.271,28.657z"/>
	</g>
</g>
<g id="Layer_1">
</g>
</svg>
