<?xml version="1.0" encoding="iso-8859-1"?>
<!-- Generator: Adobe Illustrator 16.0.0, SVG Export Plug-In . SVG Version: 6.00 Build 0)  -->
<!DOCTYPE svg PUBLIC "-//W3C//DTD SVG 1.1//EN" "http://www.w3.org/Graphics/SVG/1.1/DTD/svg11.dtd">
<svg version="1.1" xmlns="http://www.w3.org/2000/svg" xmlns:xlink="http://www.w3.org/1999/xlink" x="0px" y="0px"
	 width="66.006px" height="66px" viewBox="0 0 66.006 66" style="enable-background:new 0 0 66.006 66;" xml:space="preserve">
<g id="Layer_52">
	<g>
		<defs>
			<circle id="SVGID_1_" cx="33.006" cy="33" r="33"/>
		</defs>
		<clipPath id="SVGID_2_">
			<use xlink:href="#SVGID_1_"  style="overflow:visible;"/>
		</clipPath>
		<rect style="clip-path:url(#SVGID_2_);fill:#FFFFFF;" width="66" height="66"/>
		<path style="clip-path:url(#SVGID_2_);fill:#765AA3;" d="M23.424,53.012c-2.982,1.343-4.788,5.994-5.325,12.986L25.071,66
			c0.209-3.616,0.576-7.609,1.445-8.521L23.424,53.012z"/>
		<path style="clip-path:url(#SVGID_2_);fill:#765AA3;" d="M43.182,53.012l-3.093,4.468c0.869,0.911,1.236,4.904,1.445,8.521
			l6.973-0.002C47.97,59.006,46.164,54.354,43.182,53.012z"/>
		<path style="clip-path:url(#SVGID_2_);fill:#FFF7EB;" d="M40.446,51.115c-4.894-2.627-11.31-1.722-14.563,0.393
			c-4.842,3.148-3.281,6.506-1.991,14.492h18.909C44.033,58.849,45.154,53.644,40.446,51.115z"/>
		<path style="clip-path:url(#SVGID_2_);fill:#765AA3;" d="M44.683,54.149c-0.412-1.073-4.497-3.5-4.497-3.5
			C38.573,55.891,38.505,61.735,38.751,66h5.962C44.889,59.266,44.979,54.92,44.683,54.149z"/>
		<path style="clip-path:url(#SVGID_2_);fill:#765AA3;" d="M26.451,50.649c0,0-4.085,2.427-4.497,3.5
			c-0.296,0.771-0.207,5.116-0.03,11.851h6.264C28.29,61.59,28.003,55.693,26.451,50.649z"/>
		<path style="opacity:0.1;clip-path:url(#SVGID_2_);" d="M26.752,53.885c0.947,3.352,4.209,5.248,4.209,5.248l2.32-2.684
			l3.051,2.667c2.081-1.131,4.092-3.833,4.125-6.089C40.48,51.405,25.807,50.532,26.752,53.885z"/>
		<path style="clip-path:url(#SVGID_2_);fill:#FFF7EB;" d="M26.789,49.898c-2.597,3.69,3.963,8.352,3.963,8.352l2.551-2.119
			l2.895,2.216c0,0,5.938-3.45,3.832-8.077C38.137,46.108,29.404,46.183,26.789,49.898z"/>
		<linearGradient id="SVGID_3_" gradientUnits="userSpaceOnUse" x1="33.8008" y1="51.3545" x2="33.8008" y2="55.6546">
			<stop  offset="0" style="stop-color:#EE996D"/>
			<stop  offset="0.0163" style="stop-color:#EE9A6E"/>
			<stop  offset="0.3731" style="stop-color:#F8B181"/>
			<stop  offset="0.7088" style="stop-color:#FDBF8D"/>
			<stop  offset="1" style="stop-color:#FFC491"/>
		</linearGradient>
		<path style="clip-path:url(#SVGID_2_);fill:url(#SVGID_3_);" d="M31.866,45.498c-1.505,0.44-2.505,2.349-2.61,4.313
			c-0.129,2.487,2.563,5.813,4.434,5.88c1.408,0.035,7.391-4.602,3.188-9.111C35.668,45.283,33.311,45.074,31.866,45.498z"/>
		<circle style="clip-path:url(#SVGID_2_);fill:#E6DED4;" cx="33.318" cy="60.082" r="0.648"/>
		<circle style="clip-path:url(#SVGID_2_);fill:#E6DED4;" cx="33.318" cy="63.835" r="0.648"/>
		<path style="clip-path:url(#SVGID_2_);fill:#C9BEB7;" d="M49.313,12.97c-6.535-5.026-15.357-4.437-23.094-3.415
			c-7.768,1.024-12.315,5.716-14.344,12.752c-0.58,2.011-3.808,10.306-0.091,10.661c-1.503,1.621-2.211,6.041,0.911,6.31
			c-0.864,2.184-0.262,5.112,2.568,4.873c0.109,2.421,1.312,4.146,3.901,3.989c-0.042,2.879,2.595,4.441,4.599,2.302
			c1.449,2.112,3.5,0.811,5.227-0.12c1.785-0.961,3.886-1.733,5.824-0.686c0.622,0.335,0.881,0.982,1.602,1.179
			c0.289,0.079,2.563-0.352,2.344-0.657c1.016,1.406,3.951,2.974,4.593,0.17c1.903,1.735,4.345-0.327,4.093-2.495
			c2.863,0.43,3.492-2.128,3.22-4.44c2.898-0.24,2.896-2.947,2.288-5.261c2.819-0.342,1.842-4.356,1.139-6.021
			c2.951-0.05,1.514-6.969,1.281-8.525C54.748,19.411,52.676,15.558,49.313,12.97z"/>
		<circle style="clip-path:url(#SVGID_2_);fill:#E62628;" cx="48.041" cy="40.958" r="1.362"/>
		<path style="clip-path:url(#SVGID_2_);fill:#FFC38F;" d="M30.863,13.569c-7.681,1.604-12.953,12.746-11.4,23.112
			c1.165,7.759,7.278,16.215,16.303,15.451c9.212-0.782,13.645-12.278,12.324-21.826C46.656,19.924,41.615,11.32,30.863,13.569z"/>
		<path style="opacity:0.2;clip-path:url(#SVGID_2_);fill:#BF3C1B;" d="M48.018,18.576c-0.471-0.714-1.178-1.256-1.934-1.684
			c-1.623-0.913-3.481-1.365-5.277-1.859c-3.047-0.833-6.189-1.283-9.357-1.308c-2.811-0.022-5.865-0.143-8.462,1.007
			c-5.174,2.279-4.822,7.351-4.593,12.127c0.076,1.604,0.793,6.258,2.929,6.658c2.145,0.402,1.143-2.373,0.448-3.276
			c1.71-0.155,2.725-1.552,2.974-3.088c1.466,1.236,3.417,1.85,5.382,1.877c1.738,0.024,3.08-0.622,4.643-1.239
			c1.543-0.609,2.029-0.651,3.609-0.233c3.232,0.854,7.627,0.023,9.431-2.601c0.604-0.879,0.919-1.96,0.8-3.246
			C48.508,20.617,48.666,19.556,48.018,18.576z"/>
		<path style="clip-path:url(#SVGID_2_);fill:#FFC38F;" d="M16.719,32.388c-3.766,1.097-2.174,6.588,0.926,7.659
			c0.998,0.341,2.049,0.374,3.06,0.289c0.02-0.03,0.039-0.061,0.06-0.094c0.441-0.724-0.243-4.738-0.486-5.494
			C19.671,32.852,18.527,31.868,16.719,32.388z"/>
		<path style="opacity:0.4;clip-path:url(#SVGID_2_);fill:#D14F2E;" d="M18.072,34.404c-0.855-0.383-2.966,0.352-1.945,1.999
			c0.505-1.548,1.456-0.546,1.327,0.547c-0.086,0.736-0.874,0.757-0.077,1.688c0.431,0.508,1.286,0.302,1.715,0.025
			C20.455,37.777,19.116,34.863,18.072,34.404z"/>
		<path style="clip-path:url(#SVGID_2_);fill:#C9BEB7;" d="M47.993,15.796c-2.787-2.896-6.859-4.779-10.897-5.474
			c-2.574-0.435-5.334-0.446-7.92-0.119c-4.351,0.556-9.587,2.592-10.905,7.011c-0.811,2.716-0.328,5.843-0.072,8.595
			c0.19,2.048-0.004,4.241,0.731,6.206c0.346,0.924,2.954,4.592,3.181,1.586c0.099-1.312-0.896-2.648-1.17-3.907
			c2.175,0.795,3.243-2.44,3.688-3.831c2.873,1.814,6.245,2.083,9.438,0.897c1.168-0.433,2.1-0.92,3.379-0.723
			c1.225,0.191,2.226,0.754,3.518,0.73c4.8-0.088,10.129-4.687,8.307-9.079C49.004,17.049,48.586,16.413,47.993,15.796z"/>
		<path style="opacity:0.7;clip-path:url(#SVGID_2_);fill:#F0EAE6;" d="M51.5,16.497c-1.769-2.166-4.438-3.774-7.416-3.503
			c-5.715,0.517-9.756,6.268-15.823,5.036c-2.553-0.52-4.903-1.21-7.554-1.155c-2.563,0.054-5.967,1.011-7.116,3.389
			c-0.74,1.547-1.319,3.996-1.145,5.684c0.19,1.849,2.156,4.051,3.859,1.998c0.563,1.562,1.671,3.396,3.613,2.064
			c1.324-0.906,2.103-3.668,2.323-5.116c1.871,1.064,3.762,0.271,5.425-0.783c1.058,2.801,6.877,1.224,8.721,0.366
			c1.972-0.918,1.796-0.862,3.851-0.377c1.523,0.359,3.344,0.293,4.689-0.505c1.379-0.817,2.586-2.339,3.404-3.649
			c0.819,1.196,0.547,2.719,1.174,3.893c1.011,1.893,2.752,0.746,3.041-0.93c1.374,2.649,2.406-0.19,1.135-2.81
			C53.076,18.852,52.389,17.586,51.5,16.497z"/>
		<path style="clip-path:url(#SVGID_2_);fill:#E62628;" d="M18.801,40.889c-0.753,0.01-1.354,0.629-1.345,1.376
			c0.011,0.753,0.63,1.355,1.381,1.346c0.752-0.01,1.354-0.629,1.346-1.381C20.172,41.48,19.553,40.878,18.801,40.889z"/>
		<path style="opacity:0.4;clip-path:url(#SVGID_2_);fill:#D14F2E;" d="M23.033,34.339c0.044,0.629,1.477,0.327,1.905,0.428
			c-0.376,0.39-1.493,0.388-1.952,0.654c-0.489,0.281-0.436,0.471,0.145,0.458c0.347-0.01,2.29-0.463,2.54-0.674
			C26.727,34.313,23.523,34.207,23.033,34.339z"/>
		<path style="opacity:0.4;clip-path:url(#SVGID_2_);fill:#D14F2E;" d="M48.063,34.875c-0.459-0.267-1.576-0.265-1.953-0.654
			c0.43-0.101,1.862,0.201,1.906-0.428c-0.49-0.132-3.694-0.026-2.639,0.866c0.25,0.212,2.193,0.664,2.54,0.674
			C48.497,35.346,48.551,35.156,48.063,34.875z"/>
		<path style="clip-path:url(#SVGID_2_);fill:#FF7752;" d="M47.056,37.037c-0.431-0.766-1.481-0.953-2.239-0.99
			c-0.988-0.048-2.336,0.273-1.58,1.782c0.404,0.805,4.296,1.537,3.99-0.292C47.197,37.345,47.139,37.182,47.056,37.037z"/>
		<path style="clip-path:url(#SVGID_2_);fill:#FF7752;" d="M27.976,37.023c-0.605-0.789-1.79-0.768-2.632-0.638
			c-1.093,0.173-2.52,0.858-1.43,2.435c0.578,0.839,4.982,0.794,4.336-1.255C28.182,37.349,28.088,37.173,27.976,37.023z"/>
		<path style="clip-path:url(#SVGID_2_);fill:#614D45;" d="M41.279,29.013c2.224,0.342,4.754,0.484,7.529,0.548
			C47.691,27.724,42.994,27.414,41.279,29.013z"/>
		<path style="opacity:0.4;clip-path:url(#SVGID_2_);fill:#D14F2E;" d="M36.527,37.762c-0.734,0.026-1.033-0.274-1.542,0.018
			c-0.505,0.294,0.634,1.267,1.539,1.17c1.026-0.107,1.853-0.972,1.573-1.27C37.772,37.326,37.344,37.734,36.527,37.762z"/>
		<path style="clip-path:url(#SVGID_2_);fill:#614D45;" d="M22.132,29.668c4.034-0.312,5.411-0.27,8.199-0.625
			C28.673,27.305,23.751,27.934,22.132,29.668z"/>
		<path style="clip-path:url(#SVGID_2_);fill:#425361;" d="M26.84,31.111c-2.146-0.751-3.147,3.198-1.634,4.325
			c0.646-0.255,1.431-0.249,2.069,0.005C28.607,34.571,28.438,31.667,26.84,31.111z"/>
		<path style="clip-path:url(#SVGID_2_);fill:#C3D5E3;" d="M26.475,32.541c-0.88,0.159-0.508,1.954,0.399,1.475
			C27.531,33.674,27.255,32.405,26.475,32.541z"/>
		<path style="clip-path:url(#SVGID_2_);fill:#425361;" d="M45.885,30.929c-2.136-1.361-4.019,3.637-1.643,4.355
			c0.576-0.395,1.266-0.396,1.88-0.297C46.939,33.921,47.031,31.662,45.885,30.929z"/>
		<path style="clip-path:url(#SVGID_2_);fill:#C3D5E3;" d="M45.032,32.139c-0.843,0.021-0.724,1.893,0.188,1.554
			C45.88,33.446,45.783,32.122,45.032,32.139z"/>
		<path style="clip-path:url(#SVGID_2_);fill:#121B21;" d="M45.945,30.823c-1.959-0.754-2.603,1.568-2.603,1.568
			s0.948-1.169,2.284-0.423c3.026,1.689,4.979-0.364,4.979-0.364C48.207,32.409,46.997,31.232,45.945,30.823z"/>
		<path style="clip-path:url(#SVGID_2_);fill:#121B21;" d="M25.418,31.25c-0.774,0.413-2.565,1.652-4.996,1.002
			c0,0,2.348,1.944,5.222,0.071c1.261-0.822,2.379,0.126,2.379,0.126S27.437,30.164,25.418,31.25z"/>
		<path style="clip-path:url(#SVGID_2_);fill:#FF3B3B;" d="M25.608,40.341c1.085,2.058,3.725,1.06,2.61-1.034
			C27.774,40.353,26.536,40.786,25.608,40.341z"/>
		<path style="clip-path:url(#SVGID_2_);fill:#FF3B3B;" d="M43.062,38.948c-0.579,2.174,2.28,2.927,2.841,0.799
			C45.095,40.268,43.762,39.95,43.062,38.948z"/>
		<path style="clip-path:url(#SVGID_2_);fill:#FF3B3B;" d="M44.297,40.064c-0.33-0.107-0.684,0.036-0.783,0.319
			c-1.047,2.933-4.189,4.857-7.848,4.832c-3.522-0.021-6.339-1.854-7.49-4.277c-0.137-0.293-0.506-0.44-0.824-0.337
			c-0.316,0.106-0.466,0.422-0.327,0.708c1.32,2.783,4.464,4.881,8.376,5.009c0.111,0.004,0.221,0.005,0.331,0.005
			c4.208,0.03,7.771-2.165,8.979-5.546C44.813,40.486,44.627,40.171,44.297,40.064z"/>
	</g>
</g>
<g id="Layer_1">
</g>
</svg>
