<?xml version="1.0" encoding="iso-8859-1"?>
<!-- Generator: Adobe Illustrator 16.0.0, SVG Export Plug-In . SVG Version: 6.00 Build 0)  -->
<!DOCTYPE svg PUBLIC "-//W3C//DTD SVG 1.1//EN" "http://www.w3.org/Graphics/SVG/1.1/DTD/svg11.dtd">
<svg version="1.1" xmlns="http://www.w3.org/2000/svg" xmlns:xlink="http://www.w3.org/1999/xlink" x="0px" y="0px"
	 width="66.006px" height="66px" viewBox="0 0 66.006 66" style="enable-background:new 0 0 66.006 66;" xml:space="preserve">
<g id="Layer_53">
	<g>
		<defs>
			<circle id="SVGID_1_" cx="33.006" cy="33" r="33"/>
		</defs>
		<clipPath id="SVGID_2_">
			<use xlink:href="#SVGID_1_"  style="overflow:visible;"/>
		</clipPath>
		<rect style="clip-path:url(#SVGID_2_);fill:#604949;" width="66" height="66"/>
		<path style="clip-path:url(#SVGID_2_);fill:#379BDB;" d="M26.087,57.742l-2.639-4.189c-3.745,2.36-5.918,6.846-5.668,11.709
			c0.013,0.248,0.037,0.493,0.063,0.738h4.998c-0.051-0.326-0.1-0.654-0.117-0.992C22.566,61.932,23.854,59.148,26.087,57.742z"/>
		<path style="clip-path:url(#SVGID_2_);fill:#379BDB;" d="M43.556,57.742l2.639-4.189c3.745,2.36,5.918,6.846,5.668,11.709
			C51.85,65.51,51.825,65.755,51.8,66h-4.998c0.051-0.326,0.1-0.654,0.117-0.992C47.076,61.932,45.788,59.148,43.556,57.742z"/>
		<path style="clip-path:url(#SVGID_2_);fill:#379BDB;" d="M42.482,51.487c-4.893-2.628-12.025-1.722-15.277,0.393
			c-4.252,2.765-3.564,7.247-2.462,14.12h19.916C45.865,59.373,46.648,53.724,42.482,51.487z"/>
		<path style="clip-path:url(#SVGID_2_);fill:#0D73B5;" d="M34.313,46.67c-7.717,0-7.988,11.496,0.372,11.496
			C42.496,58.166,45.047,46.67,34.313,46.67z"/>
		<path style="clip-path:url(#SVGID_2_);fill:#F5AB76;" d="M37.171,45.609c-1.702-0.461-4.481-0.234-5.905,1.175
			c-4.955,4.896-0.132,9.715,3.762,9.715c3.892,0,5.374-3.508,5.221-6.208C40.125,48.159,38.945,46.087,37.171,45.609z"/>
		<path style="clip-path:url(#SVGID_2_);fill:#CA3564;" d="M47.021,53.719c-0.411-1.073-4.735-2.673-4.735-2.673
			c-2.713,4.75-3.788,10.146-4.129,14.954h6.822C45.83,58.659,47.376,54.643,47.021,53.719z"/>
		<path style="clip-path:url(#SVGID_2_);fill:#E34F7E;" d="M42.199,49.212c0,0-3.5,8.403-3.353,11.415
			c3.557-5.2,9.243-8.186,9.299-8.816C48.2,51.181,44.945,49.389,42.199,49.212z"/>
		<path style="clip-path:url(#SVGID_2_);fill:#B51B4C;" d="M42.862,56.42c1.218,1.039,3.313,0.18,3.313,0.029
			C46.175,56.303,42.757,56.328,42.862,56.42z"/>
		<path style="clip-path:url(#SVGID_2_);fill:#B51B4C;" d="M39.991,62.516c1.631,0.992,4.364,0.057,4.359-0.092
			C44.347,62.275,39.849,62.428,39.991,62.516z"/>
		<path style="clip-path:url(#SVGID_2_);fill:#CA3564;" d="M22.454,53.719c-0.356,0.924,1.19,4.94,2.042,12.281h6.822
			c-0.341-4.809-1.416-10.204-4.129-14.954C27.189,51.046,22.865,52.646,22.454,53.719z"/>
		<path style="clip-path:url(#SVGID_2_);fill:#E34F7E;" d="M21.329,51.811c0.056,0.631,5.744,3.616,9.3,8.816
			c0.147-3.012-3.354-11.415-3.354-11.415C24.528,49.389,21.274,51.181,21.329,51.811z"/>
		<path style="clip-path:url(#SVGID_2_);fill:#B51B4C;" d="M23.3,56.449c0,0.15,2.06,1.01,3.257-0.029
			C26.661,56.328,23.3,56.303,23.3,56.449z"/>
		<path style="clip-path:url(#SVGID_2_);fill:#B51B4C;" d="M25.124,62.424c-0.005,0.148,2.729,1.084,4.359,0.092
			C29.626,62.428,25.127,62.275,25.124,62.424z"/>
		<path style="clip-path:url(#SVGID_2_);fill:#C93712;" d="M52.827,14.852c0.563-0.643,1.097-1.165,0.33-2.141
			c-0.667-0.85-2.614-1.568-3.603-0.918c0.395-0.945,0.852-2.451-0.172-3.173c-0.867-0.61-3.006-0.242-3.705,0.449
			c1.359-3.382-4.644-5.414-6.126-2.396c-0.591-1.73-1.648-3.142-3.703-3.031c-1.282,0.069-3.466,1.227-3.673,2.625
			c-0.915-1.077-1.446-2.169-3.111-2.235c-1.848-0.076-3.71,1.321-3.438,3.313c-1.379-0.903-3.106-1.611-4.637-0.698
			c-1.375,0.821-2.068,2.154-1.509,3.697c-1.033-0.428-2.461-1.128-3.473-0.299c-1.046,0.857-0.18,3.037,0.606,3.857
			c-1.25-0.068-2.227,0.453-2.533,1.717c-0.527,2.172,1.083,4.305,1.72,6.253c1.009,3.073,1.37,6.414,1.945,9.577
			c0.632,3.465,1.199,7.377,2.816,10.538c1.172,2.292,2.343,1.327,4.062,0.42c2.226-1.174,5.512-1.372,7.979-1.488
			c2.544-0.121,6.259-0.332,8.62,0.778c1.548,0.728,2.363,1.317,3.945,0.106c1.152-0.884,2.006-2.301,2.601-3.606
			c0.957-2.099,0.989-4.199,1.172-6.458c0.367-4.544,1.079-9.122,4.514-12.393c0.365-0.349,1.049-0.94,1.195-1.433
			c0.369-1.231-1.176-2.665-2.355-2.343C52.442,15.302,52.636,15.07,52.827,14.852z"/>
		<path style="clip-path:url(#SVGID_2_);fill:#FFCB9E;" d="M19.559,38.701c1.075,7.896,7.166,16.561,16.339,15.908
			c9.36-0.668,14.018-12.275,12.808-21.987c-1.313-10.557-6.313-19.358-17.26-17.225C23.631,16.921,18.124,28.159,19.559,38.701z"/>
		<path style="opacity:0.3;clip-path:url(#SVGID_2_);fill:#BF3C1B;" d="M32.688,23.461c-2.333-0.753-6.333,0.184-7.708,0.917
			c-2.224,1.188-2.57,4.165-3.614,6.234c-0.732-0.669-1.421-1.813-1.636-2.76c-0.281-1.239-0.308-2.6-0.367-3.863
			c-0.064-1.375-0.186-2.916,0.262-4.24c0.546-1.618,2.341-2.525,3.803-3.187c2.658-1.204,5.759-1.044,8.612-0.994
			c3.215,0.057,6.398,0.568,9.478,1.489c2.032,0.609,5.854,1.15,6.559,3.515c0.869,2.91-2.153,3.541-4.205,3.868
			c-1.225,0.195-1.905,0.34-2.707,1.297c-0.774,0.924-1.481,1.671-2.428,2.425c-0.15-0.414-0.331-0.922-0.436-1.376
			c-1.08,2.113-4.272,2.055-6.092,0.955c1.114-0.518,2.676-1.571,2.049-3.017C33.985,24.099,33.419,23.697,32.688,23.461z"/>
		<path style="clip-path:url(#SVGID_2_);fill:#FFCB9E;" d="M17.669,42.096c1.005,0.359,2.071,0.409,3.1,0.336
			c0.019-0.031,0.041-0.062,0.061-0.095c0.46-0.729-0.183-4.812-0.418-5.581c-0.589-1.938-1.736-2.952-3.58-2.446
			C12.994,35.367,14.534,40.971,17.669,42.096z"/>
		<path style="opacity:0.3;clip-path:url(#SVGID_2_);fill:#BF3C1B;" d="M19.154,40.711c1.397-0.881,0.076-3.854-0.976-4.338
			c-0.863-0.398-3.015,0.318-2.003,2.004c0.533-1.563,1.486-0.537,1.34,0.572c-0.098,0.746-0.897,0.756-0.104,1.713
			C17.843,41.18,18.715,40.986,19.154,40.711z"/>
		<path style="clip-path:url(#SVGID_2_);fill:#C93712;" d="M47.819,21.325c0.018-0.067,0.036-0.137,0.053-0.209
			c0.733-3.273-2.926-6.066-5.07-7.884c-4.322-3.664-9.951-3.633-15.268-2.715c-2.037,0.351-4.2,0.866-6.021,1.883
			c-1.587,0.887-2.218,2.973-2.95,4.554c-0.861,1.861,0.019,17.204,0.63,17.774c0.814,0.76,0.809,1.611,1.037,2.035
			c0.105,0.215,0.984,0.518,1.739,0.461c-0.384-2.612-0.401-5.299-0.213-7.93c0.297-4.192,0.793-6.452,5.588-6.633
			c2.194-0.083,8.056-0.925,8.601,2.308c0.243,1.451-0.985,2.26-2.159,2.786c1.766,0.555,4,0.456,4.55-1.723
			c0.479,0.475,0.748,1.041,0.775,1.693c2.212-1.481,0.888-3.854,3.829-4.102C44.866,23.461,47.183,23.55,47.819,21.325z"/>
		<path style="clip-path:url(#SVGID_2_);fill:#FFA073;" d="M48.154,37.081c0.114,0.167,0.202,0.359,0.261,0.583
			c0.552,2.152-4.324,1.414-4.899,0.479c-1.077-1.76,0.556-2.186,1.782-2.161C46.237,36,47.547,36.189,48.154,37.081z"/>
		<path style="clip-path:url(#SVGID_2_);fill:#FFA073;" d="M27.954,36.729c0.16,0.14,0.301,0.313,0.416,0.522
			c1.122,2.045-4.026,2.563-4.854,1.76c-1.554-1.506-0.004-2.363,1.248-2.656C25.724,36.13,27.107,35.98,27.954,36.729z"/>
		<path style="clip-path:url(#SVGID_2_);fill:#224245;" d="M27.181,35.851c-0.597-0.288-1.354-0.356-1.995-0.17
			c-1.373-1.167-0.105-4.741,1.908-3.873C28.592,32.455,28.532,35.152,27.181,35.851z"/>
		<path style="opacity:0.3;clip-path:url(#SVGID_2_);fill:#B54D26;" d="M39.433,38.407c-0.501-0.616-1.209,0.067-2.514,0.081
			c-1.178,0.015-1.644-0.522-2.469-0.031c-0.822,0.487,0.355,2.057,2.439,1.981C38.963,40.365,39.864,38.939,39.433,38.407z"/>
		<path style="clip-path:url(#SVGID_2_);fill:#FFDFC2;" d="M36.611,34.065c-2.214-0.191-2.38,4.482-1.874,4.882
			c1.239,0.98,3.83,0.287,4.584-0.5C39.62,38.135,38.721,34.249,36.611,34.065z"/>
		<path style="clip-path:url(#SVGID_2_);fill:#224245;" d="M46.486,31.672c1.099,0.659,1.09,2.927,0.268,3.836
			c-0.521-0.241-1.597-0.351-2.133,0.003C42.933,34.396,44.438,30.443,46.486,31.672z"/>
		<path style="opacity:0.7;clip-path:url(#SVGID_2_);fill:#D4E6DD;" d="M26.376,32.431c0.727-0.244,1.179,0.872,0.603,1.29
			C26.182,34.299,25.56,32.708,26.376,32.431z"/>
		<path style="opacity:0.7;clip-path:url(#SVGID_2_);fill:#D4E6DD;" d="M45.686,32.103c0.717-0.143,1.003,0.975,0.407,1.298
			C45.265,33.85,44.88,32.266,45.686,32.103z"/>
		<path style="clip-path:url(#SVGID_2_);fill:#D94D15;" d="M42.265,28.635c-0.17,0.18-0.329,0.375-0.485,0.58
			c-1.447,1.88,2.663,1.072,3.376,1.057c0.936-0.02,1.684,0.079,2.557,0.257c0.617,0.125,1.336-0.113,1.371-0.828
			c0.032-0.65-0.433-0.785-0.981-0.559c0.867-0.709-0.096-0.934-0.718-0.689c0.722-1.298-1.278-0.591-1.765-0.244
			c0.217-0.469,0.456-0.702-0.138-0.797c-0.514-0.08-1.131,0.378-1.505,0.657C44.243,27.109,42.43,28.456,42.265,28.635z"/>
		<path style="clip-path:url(#SVGID_2_);fill:#D94D15;" d="M29.511,28.635c0.169,0.18,0.327,0.375,0.485,0.58
			c1.447,1.88-2.665,1.072-3.376,1.057c-0.937-0.02-1.685,0.079-2.557,0.257c-0.618,0.125-1.337-0.113-1.373-0.828
			c-0.03-0.65,0.433-0.785,0.981-0.559c-0.865-0.709,0.097-0.934,0.719-0.689c-0.721-1.298,1.278-0.591,1.765-0.244
			c-0.217-0.469-0.455-0.702,0.139-0.797c0.514-0.08,1.129,0.378,1.505,0.657C27.531,27.109,29.345,28.456,29.511,28.635z"/>
		<path style="clip-path:url(#SVGID_2_);fill:#E88564;" d="M28.372,40.849c1.115,2.099-1.524,3.091-2.609,1.037
			C26.69,42.33,27.928,41.896,28.372,40.849z"/>
		<path style="clip-path:url(#SVGID_2_);fill:#E88564;" d="M43.217,40.496c-0.582,2.17,2.278,2.922,2.839,0.797
			C45.25,41.811,43.917,41.492,43.217,40.496z"/>
		<path style="clip-path:url(#SVGID_2_);fill:#E88564;" d="M35.555,47.861c-3.914-0.125-7.056-2.227-8.378-5.006
			c-0.136-0.289,0.011-0.605,0.33-0.709c0.316-0.102,0.687,0.047,0.822,0.335c1.153,2.423,3.97,4.257,7.491,4.278
			c3.659,0.025,6.801-1.898,7.847-4.83c0.1-0.285,0.453-0.432,0.785-0.322c0.329,0.105,0.514,0.426,0.414,0.711
			c-1.208,3.383-4.773,5.576-8.98,5.549C35.776,47.867,35.663,47.864,35.555,47.861z"/>
		<path style="clip-path:url(#SVGID_2_);fill:#E85216;" d="M31,6.997c0.741,0.379,1.419,0.9,1.777,1.303
			c1.332-0.881,3.382-2.855,5.152-2.205c1.265,0.465,1.512,1.838,0.707,2.852c0.899-1.133,4.84-0.312,4.283,1.627
			c1.508-0.729,4.985-0.852,3.784,1.856c1.213-0.156,4.985,0.123,2.67,1.985c0.473-0.379,2.066,1.01,2.106,1.564
			c0.063,0.896-1.403,2.016-1.946,2.596c0.28-2.681-3.468-2.618-3.261-0.481c-0.95-2.302-2.862-2.741-2.993-0.019
			c-0.123,2.543-1.542,4.255-4.349,3.932c2.397-1.619,1.964-2.869,1.149-5.487c-0.675,2.669-2.825,0.305-3.702-0.459
			c-0.255,1.191-1.376,2.004-1.716,3.188c-0.715-1.178-1.36-2.388-2.257-3.416c-0.673,1.599-3.126,2.77-3.678,0.359
			c-0.606,1.037-1.38,2.379-2.831,2.27c-1.212-0.091-2.024-1.304-2.018-2.441c-0.803,0.293-2.411,3.574-1.9,4.342
			c-0.959-1.444-1.611-2.808-2.875-4.065c-0.685-0.681-2.189-2.435-0.198-2.729c-0.809-2.117,2.092-1.095,2.888-0.623
			c-0.532-1.037-0.668-3.112,0.175-4.021c1.333-1.435,3.698-0.214,4.96,0.651c0.49-1.008,0.508-2.595,1.83-3.029
			C29.376,6.348,30.224,6.596,31,6.997z"/>
	</g>
</g>
<g id="Layer_1">
</g>
</svg>
