<?xml version="1.0" encoding="iso-8859-1"?>
<!-- Generator: Adobe Illustrator 16.0.0, SVG Export Plug-In . SVG Version: 6.00 Build 0)  -->
<!DOCTYPE svg PUBLIC "-//W3C//DTD SVG 1.1//EN" "http://www.w3.org/Graphics/SVG/1.1/DTD/svg11.dtd">
<svg version="1.1" xmlns="http://www.w3.org/2000/svg" xmlns:xlink="http://www.w3.org/1999/xlink" x="0px" y="0px"
	 width="66.004px" height="66px" viewBox="0 0 66.004 66" style="enable-background:new 0 0 66.004 66;" xml:space="preserve">
<g id="Layer_64">
	<g>
		<defs>
			<circle id="SVGID_1_" cx="33.004" cy="33" r="33"/>
		</defs>
		<clipPath id="SVGID_2_">
			<use xlink:href="#SVGID_1_"  style="overflow:visible;"/>
		</clipPath>
		<rect style="clip-path:url(#SVGID_2_);fill:#FFFFFF;" width="66" height="66"/>
		<path style="clip-path:url(#SVGID_2_);fill:#62698A;" d="M42.661,52.276c-2.167-1.531-13.047-1.985-15.742,0.131
			c-3.912,3.069,1.8,4.713,1.801,11.385c0,0.375-0.231,1.13-0.563,2.208h13.541c-0.358-1.135-0.603-1.975-0.587-2.412
			C41.35,56.904,46.483,54.976,42.661,52.276z"/>
		<circle style="clip-path:url(#SVGID_2_);fill:#3A3A4A;" cx="32.114" cy="58.453" r="0.862"/>
		<circle style="clip-path:url(#SVGID_2_);fill:#3A3A4A;" cx="32.218" cy="62.559" r="0.862"/>
		<circle style="clip-path:url(#SVGID_2_);fill:#3A3A4A;" cx="37.589" cy="58.453" r="0.862"/>
		<circle style="clip-path:url(#SVGID_2_);fill:#3A3A4A;" cx="37.486" cy="62.559" r="0.862"/>
		<path style="clip-path:url(#SVGID_2_);fill:#F06799;" d="M37.257,49.886c-2.876-0.926-7.666-0.025-6.782,2.71
			c0.47,1.465,0.804,3.038,4.363,2.993c3.559-0.045,3.892-1.528,4.361-2.992C39.633,51.247,38.679,50.343,37.257,49.886z"/>
		<path style="clip-path:url(#SVGID_2_);fill:#DE3E78;" d="M37.998,48.743c-0.862-0.15-2.275,0.826-3.271,0.812
			c-0.907-0.014-2.332-1.046-3.14-0.749c-0.251,0.092-0.485,0.342-0.677,0.664c-0.357,0.604-0.561,1.461-0.425,1.977
			c0.213,0.813,1.487,1.385,2.146,1.549c1.397,0.35,6.26,0.652,6.442-1.504C39.151,50.611,38.952,48.91,37.998,48.743z"/>
		<path style="clip-path:url(#SVGID_2_);fill:#F06799;" d="M38.433,48.361c-2.364,0.693-5.118,0.384-6.979,0.059
			c-0.282-0.049-0.528,0.328-0.737,0.636c-0.39,0.579-0.611,1.398-0.463,1.892c0.233,0.778,1.621,1.324,2.339,1.481
			c1.521,0.335,6.815,0.624,7.015-1.438C39.689,50.148,39.44,48.065,38.433,48.361z"/>
		<path style="clip-path:url(#SVGID_2_);fill:#E10301;" d="M48.624,39.639c-0.588,0.017-1.059,0.507-1.051,1.093
			c0.006,0.588,0.488,1.051,1.075,1.033c0.586-0.017,1.056-0.505,1.051-1.092C49.69,40.085,49.21,39.622,48.624,39.639z"/>
		<path style="clip-path:url(#SVGID_2_);fill:#1A1614;" d="M37.379,5.87c-3.719-0.597-6.021,0.193-7.029,1.275
			c-0.952-0.65-4.227-0.418-5.725,0.301c-7.67,3.686-12.648,13.052-8.153,25.481c-4.532,3.755-3.63,10.451-0.1,13.329
			c3.796,3.097,9.479,2.247,12.041-1.352c2.716-3.812,0.079-9.707,5.547-10.156c3.353-0.274,4.457,0.692,7.002,2.479
			c1.462,1.024,3.744,4.033,5.48,3.181c4.344-2.137,4.878-10.749,5.065-14.586C51.839,19.001,49.085,7.752,37.379,5.87z"/>
		<path style="clip-path:url(#SVGID_2_);fill:#FFCB9E;" d="M34.123,14.211c-8.242,0.774-14.651,7.988-14.145,19.392
			c0.507,11.406,10.529,18.527,17.104,18.014c6.329-0.496,13.561-8.599,12.196-21.09C48.056,19.34,42.363,13.435,34.123,14.211z"/>
		<path style="clip-path:url(#SVGID_2_);fill:#FFCB9E;" d="M17.152,30.612c-3.687,1.685-1.972,8.018,1.116,8.955
			c0.989,0.3,2.027,0.229,3.022,0.023c0.019-0.04,0.037-0.077,0.056-0.119c0.418-0.899-0.524-5.142-0.782-6.008
			C19.916,31.28,18.922,29.803,17.152,30.612z"/>
		<path style="opacity:0.3;clip-path:url(#SVGID_2_);fill:#C94614;" d="M19.255,32.824c-0.989-0.531-3.561,0.168-2.479,2.237
			c0.726-1.815,1.779-0.536,1.54,0.771c-0.162,0.876-1.104,0.832-0.229,2.021c0.473,0.643,1.508,0.476,2.043,0.178
			C21.823,37.087,20.46,33.473,19.255,32.824z"/>
		<path style="opacity:0.3;clip-path:url(#SVGID_2_);fill:#BF3C1B;" d="M44.085,14.888c-4.459-0.325-9.156-0.008-13.513,1.13
			c-6.85,1.787-11.394,8.313-10.859,15.398c0.307,4.082-0.048,11.692,6.559,11.164c-4.423-1.575-5.482-5.745-4.146-15.008
			c1.132,0.048,6.077-2.474,7.063-5.76c1.753,3.813,19.166,6.647,20.435,9.929c0.33,0.854,0.47-0.927,0.559-3.84
			C50.329,23.163,45.591,14.999,44.085,14.888z"/>
		<path style="clip-path:url(#SVGID_2_);fill:#1A1614;" d="M45.548,13.469c-7.914-3.567-16.02-1.326-23.532,2.333
			c-1.634,0.794-3.017,2.066-3.916,3.643c-1.645,2.878-0.042,10.31,1.347,16.255c1.532,6.564,6.823,6.881,6.825,6.881
			c-3.979-2.071-5.778-5.987-5.136-15.628c1.241-0.07,6.342-2.713,8.052-5.14c7.383,4.783,19.204,5.454,20.659,8.96
			c1.089,2.626,0.325-12.802,0.12-13.426C49.381,15.569,47.261,14.24,45.548,13.469z"/>
		<path style="clip-path:url(#SVGID_2_);fill:#E10301;" d="M19.642,40.981c-0.589,0.017-1.059,0.506-1.052,1.094
			c0.007,0.587,0.488,1.05,1.075,1.033c0.587-0.016,1.058-0.507,1.051-1.094C20.71,41.428,20.229,40.966,19.642,40.981z"/>
		<path style="clip-path:url(#SVGID_2_);fill:#423631;" d="M36.464,12.643c-5.366,2.327-10.219,1.368-15.52-0.13
			c-1.992,1.996-4.59,7.104-4.271,11.82c3.97,0.714,10.194-0.918,11.883-4.953c1.219,0.939,11.144,5.591,21.219,7.206
			c-0.049-4.966-0.62-10.251-2.851-13.063C44.244,10.142,39.927,11.144,36.464,12.643z"/>
		<path style="clip-path:url(#SVGID_2_);fill:#1A1614;" d="M42.203,30.43c2.272,0.125,3.985-1.275,7.392-1.125
			C47.19,28.313,43.83,28.596,42.203,30.43z"/>
		<path style="opacity:0.3;clip-path:url(#SVGID_2_);fill:#C94614;" d="M37.918,38.196c-0.771-0.024-1.065-0.361-1.616-0.089
			c-0.55,0.272,0.575,1.371,1.53,1.334c1.082-0.04,2.008-0.889,1.736-1.224C39.253,37.829,38.775,38.224,37.918,38.196z"/>
		<path style="clip-path:url(#SVGID_2_);fill:#FFB187;" d="M45.666,35.561c-1.489,0.14-2.631,1.176-2.55,2.312
			c0.083,1.137,1.358,1.944,2.847,1.806c1.491-0.141,2.632-1.175,2.55-2.313C48.431,36.229,47.156,35.422,45.666,35.561z"/>
		<path style="clip-path:url(#SVGID_2_);fill:#FFB187;" d="M29.003,35.745c-1.74-0.133-3.243,0.711-3.358,1.886
			c-0.113,1.174,1.204,2.233,2.943,2.367c1.74,0.132,3.244-0.712,3.358-1.887C32.061,36.938,30.743,35.879,29.003,35.745z"/>
		<path style="clip-path:url(#SVGID_2_);fill:#1A1614;" d="M29.763,32.051c-1.979-0.532-2.965,1.67-1.846,2.747
			c0.845-0.169,1.85-0.136,2.446,0.086C30.89,34.706,31.536,32.527,29.763,32.051z"/>
		<path style="clip-path:url(#SVGID_2_);fill:#1A1614;" d="M24.571,29.202c4.248,0.1,5.427,1.428,8.376,1.353
			C31.396,28.563,27.792,28.368,24.571,29.202z"/>
		<path style="clip-path:url(#SVGID_2_);fill:#1A1614;" d="M28.535,31.62c-1.581,0.126-2.528,1.471-4.159,0.895
			c0,0,1.026,1.356,4,0.587c2.45-0.632,4.379,0.97,4.379,0.97S31.598,31.376,28.535,31.62z"/>
		<path style="clip-path:url(#SVGID_2_);fill:#B59898;" d="M28.827,32.538c-0.714-0.024-0.617,1.29,0.155,1.092
			C29.54,33.485,29.461,32.56,28.827,32.538z"/>
		<path style="clip-path:url(#SVGID_2_);fill:#1A1614;" d="M45.081,31.983c-1.69,0.548-0.992,2.699-0.479,2.855
			c0.566-0.246,1.532-0.32,2.351-0.185C47.991,33.531,46.966,31.371,45.081,31.983z"/>
		<path style="clip-path:url(#SVGID_2_);fill:#1A1614;" d="M46.246,31.505c-2.953-0.121-3.974,2.618-3.974,2.618
			s1.8-1.678,4.179-1.145c2.887,0.647,3.826-0.749,3.826-0.749C48.729,32.871,47.771,31.566,46.246,31.505z"/>
		<path style="clip-path:url(#SVGID_2_);fill:#B59898;" d="M45.376,32.458c-0.609,0.047-0.652,0.976-0.11,1.099
			C46.017,33.724,46.063,32.405,45.376,32.458z"/>
		<path style="clip-path:url(#SVGID_2_);fill:#E35E59;" d="M37.589,41.08c-2.881,0.093-5.804,0.46-8.163,0.101
			c2.293,4.328,5.044,5.833,8.053,5.647c3.229-0.196,4.711-1.96,5.262-3.6c0.232-0.691,1.115-1.869,1.818-1.959
			C42.667,41.173,41.072,40.97,37.589,41.08z"/>
		<path style="clip-path:url(#SVGID_2_);fill:#5E1B18;" d="M29.98,41.589c0,0,2.306,3.568,6.914,3.633
			c2.953,0.04,4.891-0.811,5.431-2.023c0.59-1.329,1.844-1.813,1.844-1.813C36.142,43.131,29.98,41.589,29.98,41.589z"/>
		<path style="clip-path:url(#SVGID_2_);fill:#FFF7EB;" d="M31.696,41.898c0,0,0.139,0.719,1.779,1.083
			c2.105,0.468,4.37,0.485,6.707,0.192c1.574-0.2,2.347-1.471,2.347-1.471S38.031,42.56,31.696,41.898z"/>
		<path style="clip-path:url(#SVGID_2_);fill:#FFF7EB;" d="M38.268,44.422c-1.802,0.124-3.328-0.027-4.251-0.401
			c-0.66-0.27-0.702,0.052-0.552,0.243c0,0,0.633,1.014,3.641,1.126c2.888,0.105,4.314-1.195,3.975-1.397
			C40.741,43.792,39.936,44.307,38.268,44.422z"/>
		<path style="clip-path:url(#SVGID_2_);fill:#E8DAC5;" d="M31.696,41.898c0,0,0.113,0.461,0.58,0.639c0,0,7.646-0.59,9.535-0.057
			c0,0,0.629-0.47,0.718-0.777C42.529,41.703,37.024,42.52,31.696,41.898z"/>
		<path style="clip-path:url(#SVGID_2_);fill:#E8DAC5;" d="M34.557,44.241c2.011,0.771,4.238,0.61,5.326-0.075
			C37.516,44.664,35.967,44.458,34.557,44.241z"/>
		<path style="clip-path:url(#SVGID_2_);fill:#62698A;" d="M28.436,55.916l-2.099-2.891c-0.75,0.545-2.049,1.496-3.515,12.975h3.603
			c1.129-8.63,2.026-10.05,2.146-10.205C28.569,55.795,28.527,55.85,28.436,55.916z"/>
		<path style="clip-path:url(#SVGID_2_);fill:#62698A;" d="M43.339,53.025l-2.099,2.891c-0.092-0.066-0.135-0.121-0.135-0.121
			C41.225,55.95,42.122,57.37,43.25,66h3.604C45.388,54.521,44.088,53.57,43.339,53.025z"/>
	</g>
</g>
<g id="Layer_1">
</g>
</svg>
