<?xml version="1.0" encoding="iso-8859-1"?>
<!-- Generator: Adobe Illustrator 16.0.0, SVG Export Plug-In . SVG Version: 6.00 Build 0)  -->
<!DOCTYPE svg PUBLIC "-//W3C//DTD SVG 1.1//EN" "http://www.w3.org/Graphics/SVG/1.1/DTD/svg11.dtd">
<svg version="1.1" xmlns="http://www.w3.org/2000/svg" xmlns:xlink="http://www.w3.org/1999/xlink" x="0px" y="0px"
	 width="66.012px" height="66px" viewBox="0 0 66.012 66" style="enable-background:new 0 0 66.012 66;" xml:space="preserve">
<g id="Layer_21">
	<g>
		<defs>
			<circle id="SVGID_1_" cx="33.012" cy="33" r="33"/>
		</defs>
		<clipPath id="SVGID_2_">
			<use xlink:href="#SVGID_1_"  style="overflow:visible;"/>
		</clipPath>
		<rect style="clip-path:url(#SVGID_2_);fill:#5F5D7F;" width="66" height="66"/>
		
			<linearGradient id="SVGID_3_" gradientUnits="userSpaceOnUse" x1="777.0957" y1="51.6445" x2="777.4705" y2="58.0181" gradientTransform="matrix(-1 0 0 1 811.7871 0)">
			<stop  offset="0" style="stop-color:#EEA17A"/>
			<stop  offset="0.0031" style="stop-color:#EEA17A"/>
			<stop  offset="0.3647" style="stop-color:#F7B88E"/>
			<stop  offset="0.705" style="stop-color:#FDC69A"/>
			<stop  offset="1" style="stop-color:#FFCB9E"/>
		</linearGradient>
		<path style="clip-path:url(#SVGID_2_);fill:url(#SVGID_3_);" d="M34.197,50.352c2.769,0,1.346,2.523,3.456,3.446
			c2.109,0.923,6.211,3.63,2.476,7.013c-3.734,3.384-8.525,2.99-11.249,0.264c-2.725-2.723-2.761-5.392,1.843-7.13
			C32.7,53.196,31.472,50.352,34.197,50.352z"/>
		<path style="clip-path:url(#SVGID_2_);fill:#FFCB9E;" d="M26.366,66c0.283-2.386,0.021-6.379,2.528-7.197
			c0.825-0.27,2.127-2.521,1.691-3.273c-0.435-0.75-0.866-1.107-1.68-0.795c-4.498,1.725-5.521,5.221-5.812,11.266H26.366z"/>
		<path style="clip-path:url(#SVGID_2_);fill:#FFCB9E;" d="M42.283,66c-0.283-2.386-0.021-6.379-2.528-7.197
			c-0.825-0.27-2.127-2.521-1.692-3.273c0.436-0.75,0.867-1.107,1.68-0.795c4.499,1.725,5.522,5.221,5.813,11.266H42.283z"/>
		<path style="clip-path:url(#SVGID_2_);fill:#E62628;" d="M29.437,66c-0.204-0.923-0.653-1.854-0.995-2.67
			c-1.848-4.42,0.163-5.45,1.367-9.114c0.255-0.249,0.664-0.438,0.935-0.425c-0.309,2.297-0.728,5.727,3.581,5.727
			c4.267,0,3.685-4.146,3.301-5.85c0.194,0.024,1.063,0.415,1.247,0.568c1.016,2.328,3.054,4.629,1.111,8.972
			c-0.453,1.017-0.929,1.851-1.157,2.791L29.437,66z"/>
		<path style="clip-path:url(#SVGID_2_);fill:#E0E0E0;" d="M34.324,59.982c1.389,0,2.424-0.414,3.076-1.23
			c1.26-1.575,0.668-4.199,0.444-5.188c-0.056-0.248-0.304-0.408-0.554-0.35c-0.251,0.057-0.407,0.305-0.351,0.555
			c0.195,0.869,0.716,3.176-0.265,4.402c-0.467,0.586-1.26,0.883-2.352,0.883c-1.193,0-2.043-0.281-2.526-0.835
			c-0.825-0.946-0.59-2.66-0.401-4.036l0.04-0.296c0.033-0.254-0.145-0.487-0.397-0.521c-0.249-0.031-0.488,0.146-0.522,0.399
			l-0.039,0.291c-0.214,1.563-0.481,3.509,0.62,4.773C31.766,59.595,32.852,59.982,34.324,59.982z"/>
		<path style="clip-path:url(#SVGID_2_);fill:#E0E0E0;" d="M27.699,60.393c0.246,0,0.45-0.192,0.463-0.439
			c0.059-1.146,0.395-1.926,0.859-3.005c0.277-0.644,0.591-1.372,0.899-2.313c0.08-0.243-0.053-0.506-0.296-0.586
			s-0.505,0.053-0.586,0.297c-0.296,0.902-0.602,1.61-0.871,2.235c-0.482,1.124-0.865,2.013-0.932,3.324
			c-0.015,0.256,0.183,0.474,0.439,0.487C27.684,60.393,27.692,60.393,27.699,60.393z"/>
		<path style="clip-path:url(#SVGID_2_);fill:#E0E0E0;" d="M40.794,60.393c0.007,0,0.015,0,0.022,0
			c0.256-0.014,0.453-0.231,0.44-0.487c-0.066-1.312-0.449-2.2-0.933-3.324c-0.271-0.625-0.574-1.333-0.871-2.235
			c-0.08-0.244-0.342-0.377-0.585-0.297c-0.244,0.08-0.377,0.343-0.297,0.586c0.309,0.941,0.623,1.67,0.899,2.313
			c0.465,1.079,0.801,1.858,0.86,3.005C40.343,60.2,40.548,60.393,40.794,60.393z"/>
		<path style="clip-path:url(#SVGID_2_);fill:#DBB05E;" d="M37.369,7.442c-10.013-1.091-18.467,2.769-21.816,10.389
			c-3.064,6.97-1.589,14.514-1.119,21.684c0.328,5.052-0.507,9.445-3.444,13.607c2.934,2.307,7.34,2.922,10.102,0.065
			c-0.072,0.56,0.174,1.317,0.129,1.782c2.49-1.311,8.216-2.311,11.259-3.137c4.368-1.186,8.218-2.689,10.969-6.293
			c3.126-4.1,5.499-7.754,6.299-12.795c0.586-3.694,0.424-8.852,0.07-11.706c1.193-1.27,1.546-2.524,1.535-3.62
			C51.294,11.54,43.683,8.131,37.369,7.442z"/>
		<path style="clip-path:url(#SVGID_2_);fill:#C59248;" d="M16.266,34.162c-1.295,4.164-0.127,5.786,1.321,9.631
			c1.325,3.521,0.24,7.828-0.527,9.826c1.244-0.055,3.866-1.93,4.713-2.808c0.247,0.748,0.369,1.583,0.337,2.407
			c2.087-1.207,9.822-1.012,9.061-4.936c-0.363-1.877-2.307-2.468-3.562-3.731c-1.553-1.567-2.805-3.317-3.923-5.213
			c-1.227-2.076-2.164-4.228-3.17-6.408c-0.766-1.66-1.07-3.403-1.767-5.069C18.749,27.862,17.082,31.539,16.266,34.162z"/>
		<path style="clip-path:url(#SVGID_2_);fill:#FFCB9E;" d="M19.831,37.117c0.702,7.957,9.525,16.926,16.717,16.434
			c5.489-0.377,13.844-9.962,12.761-21.144c-1.027-10.616-5.405-19.685-16.471-18.066C24.94,15.497,18.892,26.49,19.831,37.117z"/>
		<path style="clip-path:url(#SVGID_2_);fill:#FFCB9E;" d="M18.003,40.406c0.929,0.414,1.927,0.519,2.893,0.5
			c0.019-0.029,0.041-0.061,0.062-0.092c0.46-0.705,0.018-4.826-0.172-5.607c-0.478-1.971-1.515-3.047-3.261-2.636
			C13.885,33.428,15.109,39.116,18.003,40.406z"/>
		<path style="opacity:0.3;clip-path:url(#SVGID_2_);fill:#BF3C1B;" d="M19.45,39.098c1.346-0.807,0.223-3.852-0.746-4.392
			c-0.79-0.442-2.837,0.161-1.954,1.901c0.561-1.535,1.414-0.461,1.234,0.644c-0.122,0.741-0.872,0.709-0.166,1.708
			C18.201,39.5,19.027,39.353,19.45,39.098z"/>
		<path style="opacity:0.15;clip-path:url(#SVGID_2_);fill:#BF3C1B;" d="M30.117,22.735c0.204-0.133,0.452-0.355,0.773-0.581
			c-1.234,0.289-3.121,0.63-4.949,0.693c-1.861,0.068-1.871,6.215-1.822,7.559c0.189,5.134-1.665,10.44,0.224,15.425
			c0.346,0.913,0.694,1.826,1.109,2.71c-1.45-0.152-4.03-0.499-5.021-1.683c-1.306-1.557-0.698-4.515-0.99-6.394
			c-0.408-2.624-0.313-7.354-2.675-9.086c0.188-2.42,1.291-4.6,2.296-6.764c0.444-0.955,1.053-1.977,1.266-3.014
			c0.239-1.162,0.017-2.308,0.467-3.462c0.623-1.593,2.465-2.417,3.959-3.01c2.721-1.08,5.818-0.772,8.673-0.587
			c3.216,0.209,6.381,0.871,9.422,1.94c2.006,0.706,5.81,1.43,6.399,3.83c0.754,3.03-3.635,3.881-5.801,4.307
			c-2.963,0.582-8.076,0.672-10.739-0.94c0.269-0.153,1.045-0.422,1.349-0.599C33.049,23.295,30.993,23.09,30.117,22.735z"/>
		<path style="clip-path:url(#SVGID_2_);fill:#DBB05E;" d="M44.314,12.708c-3.172-2.957-7.084-3.591-11.283-2.826
			c-2.562,0.465-5.472,0.676-7.665,2.212c-1.783,1.251-3.693,2.584-4.989,4.366c-2.163,2.978-2.684,9.787-1.497,15.461
			c0.845,4.033-0.249,12.984-1.587,19.884c4.082-4.624,5.261-14.181,5.67-18.847c0.477-5.406,0.457-8.819,2.275-11.396
			c5.629,0.217,7.37-0.277,8.406-0.558c-0.107,0.365-0.81,0.91-1.025,1.202c1.383,0.259,2.646,0.283,4.144-0.042
			c-0.366,0.335-0.919,0.611-1.423,0.751c3.645,2.023,8.658,0.587,12.157-0.679c1.911-0.69,3.063-2.556,2.249-4.067
			C48.743,16.303,45.847,14.137,44.314,12.708z"/>
		<path style="clip-path:url(#SVGID_2_);fill:#FFE1A8;" d="M43.949,10.53c3.8,1.749,7.688,5.432,4.872,8.563
			c-1.114,1.237-7.812,3.23-10.562,3.109c0.715-0.739,1.578-1.444,2.131-2.334c-1.516,0.294-3.061,0.827-4.568,1.187
			c0.313-0.576,0.731-1.242,0.874-1.882c-5.495,2.581-15.165,0.982-19.288-0.561c0.866,1.026,3.205,1.973,5.539,2.86
			c-0.761,7.687-0.432,17.65-4.491,26.209c1.207-4.488,1.777-9.157,1.662-13.805c-0.071-2.848-1.41-5.227,1.622-9.982
			c-2.579,1.616-7.574,7.667-7.033,11.13c-1.041-6.66,0.558-15.093,2.365-17.991c1.507-2.418,4.774-4.73,7.147-5.518
			c-0.755-0.096-1.986-0.156-2.442-0.085C28.119,8.079,37.293,7.464,43.949,10.53z"/>
		<path style="clip-path:url(#SVGID_2_);fill:#FFE1A8;" d="M14.926,40.85c0,0,0.708,9.24-3.134,12.106c0,0,2.411,2.165,5.481,1.419
			c0,0-1.832-0.465-1.297-3.219C16.511,48.402,16.499,44.189,14.926,40.85z"/>
		<path style="clip-path:url(#SVGID_2_);fill:#FFA073;" d="M48.453,37.578c0.042,0.178,0.052,0.381,0.028,0.611
			c-0.237,2.249-4.05,1.332-4.226,0.343c-0.327-1.858,1.167-2.247,2.179-2.183C47.207,36.398,48.238,36.635,48.453,37.578z"/>
		<path style="clip-path:url(#SVGID_2_);fill:#FFA073;" d="M29.084,36.544c0.092,0.151,0.162,0.335,0.206,0.554
			c0.441,2.124-3.392,2.351-3.847,1.492c-0.854-1.606,0.429-2.383,1.392-2.605C27.572,35.813,28.605,35.742,29.084,36.544z"/>
		<path style="clip-path:url(#SVGID_2_);fill:#305D80;" d="M28.605,35.021c-0.567-0.3-1.293-0.386-1.911-0.217
			c-1.298-1.18-0.011-4.66,1.905-3.76C30.026,31.716,29.917,34.367,28.605,35.021z"/>
		<path style="opacity:0.3;clip-path:url(#SVGID_2_);fill:#BF3C1B;" d="M39.855,38.091c-0.327-0.438-0.805,0.021-1.675,0
			c-0.786-0.016-1.092-0.398-1.645-0.077c-0.552,0.32,0.219,1.438,1.608,1.432C39.526,39.441,40.14,38.471,39.855,38.091z"/>
		<path style="clip-path:url(#SVGID_2_);fill:#305D80;" d="M47.224,31.147c1.043,0.675,0.989,2.903,0.184,3.776
			c-0.497-0.25-1.526-0.385-2.048-0.049C43.759,33.737,45.279,29.89,47.224,31.147z"/>
		<path style="clip-path:url(#SVGID_2_);fill:#86BAE3;" d="M28.369,31.997c0.703-0.223,1.116,0.885,0.553,1.283
			C28.146,33.827,27.58,32.25,28.369,31.997z"/>
		<path style="clip-path:url(#SVGID_2_);fill:#86BAE3;" d="M46.917,32.039c0.69-0.124,0.944,0.981,0.364,1.284
			C46.479,33.744,46.141,32.178,46.917,32.039z"/>
		<path style="clip-path:url(#SVGID_2_);fill:#A16B43;" d="M31.4,29.036c-2.563,0.055-3.79-0.133-7.466-0.256
			C25.7,27.223,30.229,27.124,31.4,29.036z"/>
		<path style="clip-path:url(#SVGID_2_);fill:#A16B43;" d="M49.871,29.113c-3.177,0.089-4.255,0.261-6.451,0.188
			C44.679,27.484,48.557,27.612,49.871,29.113z"/>
		<path style="opacity:0.6;clip-path:url(#SVGID_2_);fill:#E64E4E;" d="M37.4,41.693c-1.527,0.004-3.054,0.051-4.583,0.01
			c-1.811-0.046-3.68-0.063-5.463-0.398c1.271,1.728,2.944,3.712,4.605,5.062c2.396,1.946,5.574,2.434,7.974,1.296
			c2.513-1.189,5.826-6.307,5.962-6.3C43.116,41.222,40.206,41.687,37.4,41.693z"/>
		<path style="clip-path:url(#SVGID_2_);fill:#8F3935;" d="M28.882,41.752c0,0,6.965,1.848,16.161,0.226
			c0,0-1.445,0.479-2.159,1.888c-0.652,1.287-2.888,2.139-6.249,2.003C31.39,45.656,28.882,41.752,28.882,41.752z"/>
		<path style="clip-path:url(#SVGID_2_);fill:#FFF9F0;" d="M30.823,42.141c0,0,0.134,1.166,1.991,1.66
			c2.381,0.633,4.96,0.729,7.63,0.454c1.799-0.185,2.724-1.988,2.724-1.988S38.015,43.148,30.823,42.141z"/>
		<path style="clip-path:url(#SVGID_2_);fill:#FFF9F0;" d="M31.664,43.84c-0.176-0.309-0.087-0.794,0.761-0.32
			c1.186,0.662,3.177,0.844,5.58,0.829c2.226-0.015,3.363-0.524,3.792-0.186c0.432,0.34-1.595,2.194-5.416,1.749
			C32.406,45.45,31.664,43.84,31.664,43.84z"/>
		<path style="clip-path:url(#SVGID_2_);fill:#E8DAC5;" d="M31.282,42.971c0,0,8.992-0.41,11.125,0.293c0,0,0.647-0.627,0.761-0.997
			c0,0-6.299,0.8-12.345-0.126C30.823,42.141,30.944,42.683,31.282,42.971z"/>
		<path style="clip-path:url(#SVGID_2_);fill:#E8DAC5;" d="M33.132,43.771c0,0,2.999,1.083,7.071,0.42
			C40.203,44.19,36.316,45.438,33.132,43.771z"/>
		<path style="clip-path:url(#SVGID_2_);fill:#121B21;" d="M22.322,31.726c0,0,1.936,1.976,5.068,0.349
			c1.532-0.795,2.224,0.637,2.224,0.637s-0.13-2.749-2.553-1.893C25.979,31.2,24.768,32.536,22.322,31.726z"/>
		<path style="clip-path:url(#SVGID_2_);fill:#121B21;" d="M52.102,31.696c0,0-1.925,1.985-5.063,0.375
			c-1.538-0.787-2.222,0.65-2.222,0.65s0.115-2.751,2.545-1.907C48.443,31.19,49.662,32.52,52.102,31.696z"/>
	</g>
</g>
<g id="Layer_1">
</g>
</svg>
