<?xml version="1.0" encoding="iso-8859-1"?>
<!-- Generator: Adobe Illustrator 16.0.0, SVG Export Plug-In . SVG Version: 6.00 Build 0)  -->
<!DOCTYPE svg PUBLIC "-//W3C//DTD SVG 1.1//EN" "http://www.w3.org/Graphics/SVG/1.1/DTD/svg11.dtd">
<svg version="1.1" xmlns="http://www.w3.org/2000/svg" xmlns:xlink="http://www.w3.org/1999/xlink" x="0px" y="0px"
	 width="66.002px" height="66px" viewBox="0 0 66.002 66" style="enable-background:new 0 0 66.002 66;" xml:space="preserve">
<g id="Layer_75">
	<g>
		<defs>
			<circle id="SVGID_1_" cx="33.002" cy="33" r="33"/>
		</defs>
		<clipPath id="SVGID_2_">
			<use xlink:href="#SVGID_1_"  style="overflow:visible;"/>
		</clipPath>
		<rect style="clip-path:url(#SVGID_2_);fill:#FFFFFF;" width="66" height="65.999"/>
		<path style="clip-path:url(#SVGID_2_);fill:#5E4684;" d="M42.42,60.623c0.011-1.725,0.426-3.725,0.828-4.893
			c0.107-0.308,0.093-3.044-8.863-3.044c-8.24,0-9.362,2.573-9.21,2.884c0.594,1.205,1.079,2.882,1.081,5.012
			c0.003,2.083,0.133,3.857,0.245,5.417H42.18C42.28,64.45,42.408,62.687,42.42,60.623z"/>
		<path style="clip-path:url(#SVGID_2_);fill:#BBA7DB;" d="M28.61,53.98c-0.69,2.534,5.739,5.463,5.739,5.463
			s7.274-3.133,5.453-5.935C38.166,50.989,29.427,50.979,28.61,53.98z"/>
		<path style="clip-path:url(#SVGID_2_);fill:#BA6C3C;" d="M34.327,47.818c-1.854-0.004-4.467,1.163-4.652,4.229
			c-0.087,1.425,0.11,2.251,0.796,3.042c1.095,1.266,2.452,2.292,3.856,2.322c1.404-0.03,2.761-1.057,3.856-2.322
			c0.686-0.791,0.883-1.617,0.796-3.042C38.793,48.981,36.181,47.814,34.327,47.818z"/>
		<path style="clip-path:url(#SVGID_2_);fill:#261B18;" d="M17.13,14.408c-0.001,0-0.002,0-0.004,0c0.004,0,0.008,0.002,0.012,0.002
			C17.169,14.408,17.167,14.408,17.13,14.408z"/>
		<path style="clip-path:url(#SVGID_2_);fill:#261B18;" d="M51.587,29.414c1.351-0.666,2.774-2.539,2.028-4.062
			c-0.503-1.027-3.173-1.501-1.94-2.987c0.563-0.678,1.515-0.548,1.658-1.5c0.047-0.315-0.535-1.994-1.122-1.701
			c2.218-1.106,1.51-2.873-0.904-2.745c1.121-0.962,1.324-1.615,0.99-2.898c-0.033-0.127-0.07-0.259-0.114-0.397
			c-0.487,0.686-1.738,0.664-2.492,0.427c-1.178-0.373-1.143-0.765-1.018-1.591c0.137-0.895,0.411-1.522-0.477-2.269
			c-0.65-0.546-1.956-0.723-2.65-0.183c0.227-0.836,0.3-2.115-0.765-2.412c-1.044-0.292-1.678,0.91-2.583,1.074
			c-1.891,0.339-1.803-1.256-2.485-2.202c-0.828-1.15-2.802-0.942-3.783-0.135c-0.482,0.396-0.609,0.869-1.168,1.171
			c-0.373,0.202-1.064,0.316-1.495,0.402c-0.135-0.721-0.552-1.783-1.2-2.194c-2.395-1.522-2.804,1.905-4.207,2.604
			c-1.299,0.646-2.954-0.1-2.229-1.599c-0.946-0.094-2.064,0.763-2.083,1.703c-0.992-0.838-3.394-1.417-4.419-0.215
			c1.179,0.41,2.686,0.579,2.74,2.085c0.071,2.006-2.352,1.584-3.718,1.634c-0.686,0.025-1.542-0.003-2.016,0.57
			c-0.573,0.695-0.1,2.444,0.991,2.414c0.002,0,0.003,0,0.004,0c0.037,0,0.039,0,0.008,0.002c-0.004,0-0.008-0.002-0.012-0.002
			c-2.587-0.11-3.864,1.351-3.469,3.75c-0.091-0.553,1.988-1.458,1.715,0.137c-0.136,0.781-1.521,1.311-1.965,1.932
			c-1.077,1.512-1.598,3.646-0.051,4.748c-1.478-0.51-2.456,0.682-1.978,1.926c0.443,1.153,1.904,1.377,2.887,1.878
			c-1.432,0.104-2.589,1.213-3.278,2.352c-0.209,0.342-0.905,3.569-0.441,3.311c1.065-0.6,2.639-1.026,3.092,0.38
			c0.32,0.994-0.464,1.916-1,2.664c-2.352,3.277,2.332,2.131,3.513,3.819c0.964,1.376,0.551,2.698-1.141,3.298
			c1.409,1.142,5.2,0.774,6.67-0.238c0.615-0.427,0.786-1.313,1.283-1.73c0.479-0.4,1.408-0.598,2.017-0.781
			c0.473-0.144,0.953-0.28,1.439-0.407c2.024-0.531,4.146-0.915,6.202-1.051c2.528-0.166,6.215-0.444,8.584,0.616
			c1.261,0.564,2.495,1.446,3.693,2.136c1.646,0.946,3.759,1.899,5.584,0.839c0.831-0.483,1.963-1.532,2.113-2.495
			c-1.398,0.134-2.688-0.626-1.62-2.021c0.357-0.466,0.963-0.478,1.113-1.178c0.137-0.638-0.24-1.061-0.505-1.585
			c-1.051-2.089,0.925-3.467,2.615-1.729c0.282,0.289,0.06-2.684-0.07-2.986C53.656,30.885,52.9,29.673,51.587,29.414z"/>
		<path style="clip-path:url(#SVGID_2_);fill:#FFB06B;" d="M31.003,15.044c-7.741,1.659-13.011,12.931-11.391,23.387
			c1.214,7.831,7.428,16.331,16.536,15.515c9.293-0.836,13.711-12.463,12.331-22.095C46.978,21.38,41.846,12.723,31.003,15.044z"/>
		<path style="opacity:0.3;clip-path:url(#SVGID_2_);fill:#BF3C1B;" d="M42.962,17.114c-3.654-1.26-7.498-1.912-11.365-1.91
			c-2.838,0.003-5.923-0.1-8.544,1.146c-3.924,1.865-5.558,4.599-5.991,8.738c-0.16,1.545-0.022,4.127,2.029,4.234
			c1.928,0.102,2.615-1.597,3.205-3.116c0.26-0.668,0.284-1.578,1.113-1.806c0.817-0.226,1.46,0.427,1.478,1.222
			c1.836-0.215,2.036-0.912,3.321-1.853c0.983-0.718,2.44-0.578,3.64-0.677c0.069-0.007,0.146-0.016,0.23-0.027
			c0.589-0.082,1.487-0.278,1.935-0.135c1.042,0.334,0.372,0.097,0.624,0.946c0.21,0.71-0.306,0.879,0.469,1.478
			c0.561,0.435,1.195,0.151,1.795,0.314c2.398,0.646,0.055,1.435-1.241,1.745c1.075,1.015,3.744,1.253,4.604-0.179
			c0.651-1.084,0.079-2.947,1.988-3.104c0.047,0.431,0.229,0.657-0.029,1.113c0.042,0.088,1.903-0.099,2.048-0.121
			c1.039-0.161,1.724-0.643,2.376-1.482c1.026-1.322,1.01-3.146,0.086-4.543C45.916,17.862,44.285,17.57,42.962,17.114z"/>
		<path style="clip-path:url(#SVGID_2_);fill:#FFB06B;" d="M16.821,34.114c-3.796,1.121-2.163,6.663,0.975,7.724
			c1.006,0.34,2.068,0.369,3.089,0.278c0.018-0.031,0.039-0.063,0.059-0.097c0.444-0.732-0.271-4.78-0.519-5.54
			C19.804,34.564,18.644,33.576,16.821,34.114z"/>
		<path style="opacity:0.5;clip-path:url(#SVGID_2_);fill:#B54319;" d="M18.198,36.14c-0.864-0.379-2.991,0.372-1.955,2.03
			c0.502-1.564,1.468-0.563,1.343,0.544c-0.083,0.743-0.878,0.768-0.07,1.704c0.438,0.507,1.3,0.3,1.731,0.018
			C20.621,39.534,19.253,36.603,18.198,36.14z"/>
		<path style="clip-path:url(#SVGID_2_);fill:#261B18;" d="M46.54,17.985c-0.932-2.106-2.519-3.859-4.287-5.304
			c-4.364-3.563-9.96-3.43-15.228-2.418c-2.019,0.387-4.161,0.938-5.953,1.982c-1.561,0.91-2.148,2.997-2.849,4.582
			c-1.638,3.715-2.795,14.73-0.875,17.17c0.396-0.029,1.209-0.066,1.827,0.488c0.823,0.74,0.832,1.588,1.067,2.005
			c0.11,0.213,0.99,0.496,1.739,0.426c-0.306-1.835-1.594-15.112,2.464-13.896c0.332,0.1,1.806,1.731,1.199,1.884
			c1.139-0.286,2.934-2.453,0.72-3.162c2.152-0.181,4.479,0.014,6.64,0.079c1.066,0.033,4.216-0.943,4.417,0.709
			c0.104,0.85-1.781,1.812-1.23,2.685c0.634,1.007,4.047-0.769,3.047,1.48c-0.286,0.644-1.678,1.1-2.351,1.044
			c0.67,2.831,7.543-1.579,2.947-3.633c1.07,0.479,1.569-1.189,2.435-1.223c0.157-0.006,0.304,0.021,0.434,0.069
			c0.598,0.226,0.866,0.952,0.291,1.498c2.763,1.225,5.136-1.824,4.633-3.782C47.407,19.816,46.901,18.801,46.54,17.985z"/>
		<path style="clip-path:url(#SVGID_2_);fill:#45362E;" d="M44.743,13.885c0.971-0.542,1.068-1.52,0.964-2.533
			c-1.349,0.401-2.713,0.961-4.106,0.188c1.114-0.561,0.717-1.332-0.158-1.773c-0.87-0.438-2.487,0.002-3.383,0.178
			c0.781-1.022,0.511-2.384-0.756-2.822c-1.62-0.562-3.238,1.132-4.171,2.202c-1.898-2.897-4.096-1.427-3.812,1.029
			c-1.384-1.801-3.734-0.73-3.579,0.7c-0.555-1.059-1.415-0.658-1.918,0.071c-0.444,0.645-0.055,1.698-0.791,2.329
			c-0.565,0.484-1.689,0.449-2.37,0.714c-1.714,0.668-3.616,3.666-0.89,4.53c0.227-1.974,1.667-2.723,3.442-2.896
			c-1.278,0.702-1.055,2.423,0.231,2.926c0.962,0.377,2.805-0.174,3.702-0.618c0.064,1.804,2.612,1.619,3.838,1.336
			c-0.727-1.21-0.653-3.042,1.009-3.403c1.739-0.38,2.494,2.134,0.681,2.346c0.89,2.007,3.659,0.317,4.793-0.389
			c0.517,3.611,4.539,2.728,5.58-0.011c0.031,3.057,3.974,1.987,3.397-1.271c1.224,0.205,1.913,0.962,2.545,1.919
			C51.137,15.895,47.034,13.745,44.743,13.885z"/>
		<path style="clip-path:url(#SVGID_2_);fill:#FFC48F;" d="M44.994,35.2c-1.205-0.177-2.869,0.04-2.025,1.91
			c0.451,0.995,5.169,2.329,4.892,0.137c-0.028-0.227-0.092-0.429-0.185-0.608C47.189,35.685,45.92,35.335,44.994,35.2z"/>
		<path style="clip-path:url(#SVGID_2_);fill:#FFC48F;" d="M28.983,36.137c-0.907-0.665-2.263-0.393-3.192-0.084
			c-1.213,0.403-2.67,1.392-0.996,2.743c0.891,0.721,5.942-0.255,4.649-2.178C29.311,36.42,29.155,36.262,28.983,36.137z"/>
		<path style="opacity:0.12;clip-path:url(#SVGID_2_);" d="M47.917,35.842c-1,8.95,0.041,3.229-3.049,2.521
			c-2.432-0.555-4.474,0.522-7.937,0.875c-3.444,0.353-6.948-0.917-9.828-0.305c-2.771,0.588-3.585,7.518-5.118-2.038
			c-0.445-2.781-2.347-3.795-1.655,0.664c0.202,1.307,0.022,2.85,0.258,3.612c2.117,6.875,7.577,13.49,15.561,12.773
			c7.95-0.714,12.2-9.203,12.437-17.707C48.624,34.803,48.122,34.003,47.917,35.842z"/>
		<path style="clip-path:url(#SVGID_2_);fill:#261B18;" d="M28.344,31.413c-2.019-0.825-3.212,2.751-1.825,3.886
			c0.633-0.198,1.388-0.144,1.986,0.133C29.835,34.712,29.846,32.028,28.344,31.413z"/>
		<path style="opacity:0.5;clip-path:url(#SVGID_2_);fill:#B54319;" d="M36.867,37.899c-1.169,0.037-1.642-0.489-2.453,0.014
			c-0.81,0.5,0.391,2.04,2.46,1.925c2.062-0.11,2.932-1.545,2.491-2.064C38.856,37.168,38.164,37.861,36.867,37.899z"/>
		<path style="clip-path:url(#SVGID_2_);fill:#FFC48F;" d="M36.354,34.926c-0.956,0.103-2.156,3.082-1.646,3.471
			c1.251,0.95,3.813,0.213,4.55-0.582C39.546,37.5,37.432,34.809,36.354,34.926z"/>
		<path style="clip-path:url(#SVGID_2_);fill:#261B18;" d="M45.634,30.959c-2.059-1.185-3.482,2.772-1.783,3.852
			c0.526-0.362,1.597-0.273,2.118-0.042C46.77,33.85,46.737,31.594,45.634,30.959z"/>
		<path style="opacity:0.7;clip-path:url(#SVGID_2_);fill:#E6D2C3;" d="M28.05,32.791c-0.807,0.29-0.16,1.86,0.622,1.271
			C29.236,33.635,28.769,32.533,28.05,32.791z"/>
		<path style="opacity:0.7;clip-path:url(#SVGID_2_);fill:#E6D2C3;" d="M45.253,32.146c-0.799,0.177-0.386,1.745,0.427,1.283
			C46.267,33.097,45.963,31.991,45.253,32.146z"/>
		<path style="clip-path:url(#SVGID_2_);fill:#2B221C;" d="M30.629,27.656c-1.642-0.096-3.2-0.124-4.813,0.284
			c-1.002,0.254-2.204,0.787-2.969,1.501c-0.258,0.241-0.571,0.664-0.538,1.042c0.268,0.05,0.462-0.145,0.701-0.221
			c1.216-0.393,2.516-0.425,3.78-0.44c0.985-0.013,1.969,0.076,2.953,0.034c0.66-0.028,1.569,0.136,1.892-0.618
			C32.043,28.288,31.515,27.708,30.629,27.656z"/>
		<path style="clip-path:url(#SVGID_2_);fill:#2B221C;" d="M45.558,27.682c-1.414-0.325-2.794-0.223-4.249-0.05
			c-0.784,0.092-1.271,0.689-0.939,1.608c0.262,0.729,1.071,0.523,1.653,0.52c0.871-0.006,1.744-0.142,2.615-0.175
			c1.119-0.045,2.269-0.075,3.33,0.254c0.209,0.066,0.376,0.246,0.613,0.184c0.042-0.374-0.222-0.776-0.442-1.002
			C47.483,28.354,46.437,27.884,45.558,27.682z"/>
		<path style="opacity:0.5;clip-path:url(#SVGID_2_);fill:#B54319;" d="M43.319,39.037c-0.325,0.088,0.274,0.2,1.062,0.398
			c0.154,0.037,0.247,0.116,0.302,0.219c-3.827,1.278-11.291,2.635-16.969,0.501c0.044-0.044,0.091-0.086,0.144-0.122
			c0.748-0.517,1.816-0.558,1.521-0.729c0,0-1.792-0.056-2.508,0.45c-0.638,0.452-0.637,1.887-0.129,1.949
			c0.404,0.051,0.432-0.726,0.772-1.29c0.358,1.562,2.774,8.749,8.888,8.802c4.605,0.042,5.434-2.749,5.64-5.326
			c0.113-1.437,1.707-3.21,2.697-4.064c0.079,0.437-0.205,1.065,0.152,1.114c0.507,0.069,1.016-0.854,0.681-1.61
			C45.236,38.572,43.319,39.037,43.319,39.037z"/>
		<path style="clip-path:url(#SVGID_2_);fill:#8F2621;" d="M28.665,41.21c0,0,1.931,6.384,7.389,6.133
			c4.914-0.227,5.511-2.414,5.739-3.944c0.305-2.047,1.638-2.861,1.638-2.861C35.541,44.441,28.665,41.21,28.665,41.21z"/>
		<path style="clip-path:url(#SVGID_2_);fill:#FFF7EA;" d="M30.45,41.856c0,0,0.045,2.072,1.722,2.843
			c2.149,0.985,4.563,1.079,7.034,0.284c1.663-0.534,2.644-3.687,2.644-3.687S37.116,43.248,30.45,41.856z"/>
		<path style="clip-path:url(#SVGID_2_);fill:#FFF7EA;" d="M37.277,45.017c-2.333,0.061-4.341-0.281-5.431-0.779
			c-0.905-0.416-0.918,0.176-0.752,0.697c0,0,0.281,2.134,4.533,2.473c3.718,0.296,5.355-2.426,4.943-2.979
			S39.611,44.957,37.277,45.017z"/>
		<path style="clip-path:url(#SVGID_2_);fill:#ECDCC4;" d="M30.441,41.828c0,0,0.065,1.158,0.419,1.631
			c0,0,8.341-1.312,10.297-0.508c0,0,0.593-1.157,0.692-1.654C41.85,41.297,35.925,43.241,30.441,41.828z"/>
		<path style="clip-path:url(#SVGID_2_);fill:#ECDCC4;" d="M32.334,44.247c3.655,2.016,7.727,0.077,7.727,0.077
			C35.512,45.451,32.334,44.247,32.334,44.247z"/>
		<path style="opacity:0.5;clip-path:url(#SVGID_2_);fill:#FFC48F;" d="M33.851,51.667c0.95,1.312,6.721,0.82,5.526-1.039
			C38.337,49.004,32.646,50.006,33.851,51.667z"/>
		<path style="clip-path:url(#SVGID_2_);fill:#C4BAB1;" d="M27.512,60.492c0.8-0.826,0.804-6.582-0.17-6.359
			c-3.328,0.762-7.458,6.738-7.1,11.866h5.155C25.244,64.038,26.176,61.87,27.512,60.492z"/>
		<path style="clip-path:url(#SVGID_2_);fill:#5E4684;" d="M27.389,53.651c-4.039,1.442-7.005,5.422-7.578,10.642
			c1.691,0.762,4.294,0.83,6.076,0.777c0.051-1.876,0.508-3.276,1.767-4.575C28.49,59.633,28.372,53.3,27.389,53.651z"/>
		<path style="clip-path:url(#SVGID_2_);fill:#C4BAB1;" d="M41.357,54.133c-0.973-0.223-0.97,5.533-0.17,6.359
			c1.337,1.378,2.269,3.546,2.115,5.507h5.154C48.816,60.871,44.687,54.895,41.357,54.133z"/>
		<path style="clip-path:url(#SVGID_2_);fill:#5E4684;" d="M41.312,53.651c-0.984-0.352-1.102,5.981-0.266,6.844
			c1.259,1.299,1.717,2.699,1.768,4.575c1.781,0.053,4.384-0.016,6.076-0.777C48.316,59.073,45.351,55.094,41.312,53.651z"/>
	</g>
</g>
<g id="Layer_1">
</g>
</svg>
