<?xml version="1.0" encoding="iso-8859-1"?>
<!-- Generator: Adobe Illustrator 16.0.0, SVG Export Plug-In . SVG Version: 6.00 Build 0)  -->
<!DOCTYPE svg PUBLIC "-//W3C//DTD SVG 1.1//EN" "http://www.w3.org/Graphics/SVG/1.1/DTD/svg11.dtd">
<svg version="1.1" xmlns="http://www.w3.org/2000/svg" xmlns:xlink="http://www.w3.org/1999/xlink" x="0px" y="0px" width="66.01px"
	 height="66px" viewBox="0 0 66.01 66" style="enable-background:new 0 0 66.01 66;" xml:space="preserve">
<g id="Layer_33">
	<g>
		<defs>
			<circle id="SVGID_1_" cx="33.01" cy="33" r="33"/>
		</defs>
		<clipPath id="SVGID_2_">
			<use xlink:href="#SVGID_1_"  style="overflow:visible;"/>
		</clipPath>
		<rect style="clip-path:url(#SVGID_2_);fill:#507D52;" width="66" height="65.998"/>
		<path style="clip-path:url(#SVGID_2_);fill:#D49D6A;" d="M45.653,52.181c-2.089-0.612-3.416,2.194-2.918,4.935
			c0.535,2.941,0.157,6.99-0.073,8.883h7.784C50.81,55.834,48.903,53.134,45.653,52.181z"/>
		<path style="clip-path:url(#SVGID_2_);fill:#C21F23;" d="M45.207,50.825c-1.724-4.043-20.936-4.8-23.866-1.161
			C18.91,52.68,20.406,60.671,22.2,65.998h22.465C45.639,60.353,45.532,51.587,45.207,50.825z"/>
		<path style="opacity:0.5;clip-path:url(#SVGID_2_);fill:#870708;" d="M41.848,65.622c0.699-0.535,0.438-1.761,0.594-2.503
			c0.308-1.461,0.86-3.639,2.078-4.623c0.721-0.582,0.656-1.15,0.8-2.158c0.289-2.026-0.045-2.808-1.623-3.713
			c-8.276-4.75-20.848-2.019-22.771,0.216c-1.189,1.383-1.031,9.281-0.317,8.471c0.683-0.772,1.43-0.915,2.262-1.42
			c0.874-0.531,1.131-1.72,1.41-2.641c0.675,1.143,2.809,2.455,4.077,2.708c1.981,0.396,3.858,1.05,5.52,2.221
			c0.766,0.54,1.191,0.973,1.543,1.847c0.26,0.646,0.423,1.582,1.074,1.972h3.42c0.344-0.063,0.657-0.128,0.9-0.176
			C41.049,65.776,41.678,65.752,41.848,65.622z"/>
		<path style="clip-path:url(#SVGID_2_);fill:#E8DAC5;" d="M39.374,45.797c-5.393-1.936-10.949-2.139-16.336-0.124
			c-4.559,1.705-7.621,5.786-6.764,11.13c0.807,5.021,4.4,8.8,5.131,6.569c-0.284-1.856-0.473-6.561-0.725-7.473
			c-0.301-1.085-1.183-2.707,0.286-3.379c1.925-0.879,3.322,2.595,4.008,3.76c0.791,1.342,2.052,1.929,3.517,2.313
			c1.949,0.513,6.648,1.944,8.56,6.829c1.388,0.325,3.611-0.119,4.29-0.416c0.552-5.82,2.448-6.82,3.979-8.669
			C49.398,51.408,43.58,47.307,39.374,45.797z"/>
		<path style="opacity:0.2;clip-path:url(#SVGID_2_);fill:#330500;" d="M40.002,56.838l-3.708,0.503
			c0.555,1.379,1.389,5.242,1.631,8.657h2.836C40.812,62.666,40.419,58.74,40.002,56.838z"/>
		<path style="clip-path:url(#SVGID_2_);fill:#FFF9F0;" d="M39.239,57.063l-2.005,0.229c0.428,1.399,1.135,5.27,1.304,8.706h1.612
			C40.175,62.719,39.795,58.886,39.239,57.063z"/>
		<path style="clip-path:url(#SVGID_2_);fill:#F29966;" d="M28.892,51.373c0.042,1.89,1.804,5.034,6.313,6.833
			c0,0,6.607-2.454,6.04-7.826C40.679,45.009,28.759,45.51,28.892,51.373z"/>
		<path style="opacity:0.2;clip-path:url(#SVGID_2_);fill:#330500;" d="M39.065,47.239c-1.163-0.282-2.352-0.491-3.545-0.618
			c-1.988-0.214-3.848,0.028-5.814,0.132c-2.022,0.107-4.056-0.236-6.07,0.063c-1.013,0.149-5.727,1.854-5.167,3.409
			c0.15,0.42,1.17,0.307,1.907,0.137c0.305-0.07,0.562-0.151,0.688-0.207c-0.114,0.42-0.114,1.08-0.381,1.424
			c2.743-0.213,2.313,3.25,3.736,4.36c0.408,0.32,1.315,0.456,1.443-0.188c0.203,0.721,1.112,1.459,1.838,1.708
			c0.474,0.163,1.527,0.149,1.889-0.205c0.46,0.569,3.126,3.023,3.555,1.286c0.157,0.606,1.094,1.27,1.765,1.181
			c0.636-0.085,0.737-0.563,0.927-1.11c0.73,1.317,1.92,1.065,2.718,0.06c0.367,0.482,1.466,0.953,2.092,0.686
			c0.749-0.319,0.524-1.183,0.934-1.729c-0.113,0.151,0.628,0.422,0.747,0.414c0.295-0.02,0.483-0.259,0.651-0.452
			c0.441-0.505,0.35-1.229,0.824-1.685c0.881,1.524,1.85-0.439,1.933-1.403c0.703-0.052,0.884-0.693,0.971-1.613
			c0.037-0.395-0.716-2.146-1.277-2.664C43.737,48.662,41.328,47.787,39.065,47.239z"/>
		<path style="clip-path:url(#SVGID_2_);fill:#D45D08;" d="M48.44,20.88c-0.525-0.627-0.078-1.16-0.374-1.961
			c-0.354-0.958-0.878-1.752-1.53-2.533c-1.357-1.628-2.996-2.996-4.859-4.005c-3.729-2.021-8.185-2.608-12.303-1.578
			c-3.584,0.896-7.12,2.612-9.625,5.389c-0.973,1.078-2.026,2.384-2.592,3.733c-0.837,1.994-0.065,1.895-0.384,3.893
			c-0.183,1.136-1.044,2.83-1.096,5.275c-0.05,2.357,1.535,8.268,4.744,7.545c3.444-0.775,6.846-1.746,10.248-2.68
			c3.323-0.911,7.237-1.335,10.593-0.275c1.003,0.316,1.841,0.94,2.878,1.178c3.589,0.818,6.139-1.426,7.1-4.421
			c0.546-1.7,0.341-4.066-0.37-5.778C49.745,21.952,49.373,21.995,48.44,20.88z"/>
		<path style="clip-path:url(#SVGID_2_);fill:#FAB078;" d="M32.496,14.978c-8.417,0.734-16.461,9.996-13.618,19.874
			c1.467,5.099,1.428,6.354,3.581,11.443c2.187,5.167,7.456,8.324,14.646,7.904c6.533-0.379,8.897-3.639,10.571-9.12
			c1.173-3.849,2.102-8.093,1.682-12.893C48.462,21.945,40.913,14.239,32.496,14.978z"/>
		<path style="opacity:0.35;clip-path:url(#SVGID_2_);fill:#B54319;" d="M25.62,34.088c0.054,0.587,1.387,0.278,1.79,0.364
			c-0.344,0.373-1.389,0.392-1.813,0.646c-0.451,0.273-0.399,0.449,0.143,0.427c0.325-0.015,2.135-0.476,2.364-0.678
			C29.074,33.995,26.077,33.955,25.62,34.088z"/>
		<path style="opacity:0.35;clip-path:url(#SVGID_2_);fill:#B54319;" d="M46.902,33.881c0.352-0.058,1.416,0.332,1.558-0.237
			c-0.361-0.162-2.873-0.321-2.203,0.576c0.159,0.213,1.595,0.784,1.865,0.819c0.447,0.059,0.521-0.11,0.189-0.405
			C48,34.355,47.129,34.266,46.902,33.881z"/>
		<path style="clip-path:url(#SVGID_2_);fill:#E3730E;" d="M41.548,28.91c0.517,1.417,2.311,0.734,3.368,0.596
			c0.693-0.092,2.397,0.241,3.164-0.099c0.109-0.047,0.2-0.109,0.266-0.189C50.356,26.788,40.501,26.045,41.548,28.91z"/>
		<path style="clip-path:url(#SVGID_2_);fill:#E3730E;" d="M25.309,30.131c0.085,0.074,0.196,0.129,0.324,0.169
			c0.899,0.273,2.703-0.233,3.476-0.207c1.183,0.042,3.266,0.566,3.579-0.936C33.321,26.116,22.675,27.832,25.309,30.131z"/>
		<path style="clip-path:url(#SVGID_2_);fill:#FC8758;" d="M45.619,35.021c-1.063-0.118-2.539,0.142-1.839,1.826
			c0.372,0.898,4.51,1.949,4.321-0.051c-0.021-0.208-0.071-0.391-0.148-0.553C47.547,35.386,46.433,35.111,45.619,35.021z"/>
		<path style="clip-path:url(#SVGID_2_);fill:#FC8758;" d="M28.968,36.013c-0.806-0.592-1.998-0.324-2.815-0.027
			c-1.064,0.385-2.338,1.306-0.849,2.514c0.794,0.644,5.235-0.32,4.074-2.055C29.259,36.267,29.121,36.124,28.968,36.013z"/>
		<path style="clip-path:url(#SVGID_2_);fill:#402118;" d="M29.594,31.696c-1.806-0.981-3.292,2.246-2.108,3.45
			c0.613-0.119,1.314,0.009,1.848,0.329C30.652,34.938,30.938,32.426,29.594,31.696z"/>
		<path style="opacity:0.5;clip-path:url(#SVGID_2_);fill:#B54319;" d="M43.761,38.54c-0.321,0.091,0.265,0.225,1.028,0.453
			c0.15,0.043,0.239,0.131,0.292,0.242c-4.177,1.143-11.369,2.132-16.61,0.233c0.045-0.047,0.09-0.091,0.143-0.128
			c0.745-0.549,1.79-0.573,1.505-0.764c0,0-1.75-0.094-2.463,0.441c-0.636,0.479-0.669,2.036-0.175,2.113
			c0.395,0.062,0.438-0.78,0.788-1.386c0.312,1.699,1.939,8.878,7.918,9.048c4.503,0.127,5.938-2.22,6.204-5.015
			c0.147-1.554,1.749-3.449,2.74-4.358c0.066,0.475-0.228,1.152,0.12,1.212c0.495,0.084,1.016-0.907,0.707-1.734
			C45.648,38.071,43.761,38.54,43.761,38.54z"/>
		<path style="clip-path:url(#SVGID_2_);fill:#8A2F19;" d="M29.374,40.631c0,0,1.729,6.96,7.072,6.788
			c4.813-0.156,5.452-2.517,5.713-4.172c0.35-2.217,1.676-3.076,1.676-3.076C36.02,44.263,29.374,40.631,29.374,40.631z"/>
		<path style="clip-path:url(#SVGID_2_);fill:#FFF9F0;" d="M31.104,41.366c0,0-0.007,2.248,1.612,3.112
			c2.077,1.11,4.439,1.255,6.873,0.438c1.641-0.551,2.679-3.95,2.679-3.95S37.589,42.997,31.104,41.366z"/>
		<path style="clip-path:url(#SVGID_2_);fill:#FFF9F0;" d="M37.703,44.918c-2.285,0.023-4.238-0.385-5.291-0.944
			c-0.876-0.467-0.903,0.173-0.754,0.74c0,0,0.222,2.322,4.372,2.768c3.628,0.389,5.298-2.533,4.909-3.142
			C40.551,43.732,39.987,44.896,37.703,44.918z"/>
		<path style="clip-path:url(#SVGID_2_);fill:#E8DAC5;" d="M31.097,41.333c0,0,0.035,1.259,0.369,1.778
			c0,0,8.191-1.271,10.083-0.364c0,0,0.609-1.244,0.72-1.78C42.269,40.967,36.425,42.967,31.097,41.333z"/>
		<path style="clip-path:url(#SVGID_2_);fill:#E8DAC5;" d="M32.886,43.993c3.527,2.253,7.558,0.224,7.558,0.224
			C35.966,45.357,32.886,43.993,32.886,43.993z"/>
		<path style="clip-path:url(#SVGID_2_);fill:#402118;" d="M44.719,34.577c0.555-0.282,1.23-0.371,1.789-0.213
			c0.894-0.781,1.184-2.554,0.211-3.313C44.903,29.632,42.6,33.667,44.719,34.577z"/>
		<path style="clip-path:url(#SVGID_2_);fill:#A89792;" d="M28.618,32.65c-0.786,0.19-0.34,1.725,0.452,1.253
			C29.644,33.563,29.317,32.483,28.618,32.65z"/>
		<path style="clip-path:url(#SVGID_2_);fill:#A89792;" d="M45.599,31.963c-0.792,0.064-0.609,1.637,0.233,1.3
			C46.443,33.017,46.303,31.908,45.599,31.963z"/>
		<path style="clip-path:url(#SVGID_2_);fill:#FAB078;" d="M16.406,32.989c-4.158,1.126-2.524,6.337,0.86,7.285
			c1.086,0.306,2.241,0.314,3.353,0.213c0.022-0.031,0.044-0.063,0.066-0.094c0.502-0.697-0.364-4.175-0.613-4.89
			C19.445,33.705,18.402,32.45,16.406,32.989z"/>
		<path style="opacity:0.2;clip-path:url(#SVGID_2_);fill:#BF3C1B;" d="M43.045,19.806c-3.985-0.552-8.21-0.539-12.165,0.228
			c-2.737,0.53-5.639,1.566-7.286,3.953c-1.568,2.271-3.956,4.578-3.523,7.589c0.094,0.648,0.901,3.863,2.145,2.881
			c0.57-0.452,0.018-2.733,0.43-4.975c0.385,1.463,1.229,2.202,1.945,2.684c0.16,0.109,3.735-5.039,4.631-5.5
			c-0.225,2.186,0.942,3.709,1.994,4.326c0.6-1.402,1.344-2.075,2.736-3.258c0.275,0.228,1.717,3.595,1.756,3.551
			c0.616-0.662,0.969-1.557,1.572-2.253c1.615-1.858,3.591-3.333,5.982-3.995c1.392-0.386,3.672-0.788,4.353-2.273
			C48.739,20.302,44.469,20.005,43.045,19.806z"/>
		<path style="opacity:0.35;clip-path:url(#SVGID_2_);fill:#B54319;" d="M18.646,34.905c-1.075-0.49-3.958-0.091-2.845,1.646
			c0.882-1.417,1.996-0.317,1.675,0.719c-0.216,0.696-1.258,0.601-0.338,1.615c0.496,0.548,1.652,0.479,2.258,0.273
			C21.315,38.502,19.955,35.504,18.646,34.905z"/>
		<path style="clip-path:url(#SVGID_2_);fill:#B53F0D;" d="M46.676,37.438c-2.152-1.721-5.499-0.328-7.817,0.068
			c-2.557,0.438-5.188-0.179-7.75-0.321c-2.418-0.136-6.512,0.754-6.741,3.901c-0.301,4.139,3.276,0.452,4.159-0.933
			c-0.016,0.693,1.45,0.477,2.426-0.011c-1.027,1.197,1.733,0.901,2.274,0.344c-0.518,1.024,1.505,0.75,2.485,0.126
			c-0.702,0.819,0.708,1.522,1.193,0.13c-0.329,0.946,1.341,1.079,1.415,0.001c1.322,1.017,2.271,0.351,1.637-0.503
			c1.344,1.121,2.543,0.342,2.199-0.285c0.771,0.398,2.239,0.882,2.302-0.475c0.553,1.146,1.384,2.545,1.949,2.751
			C47.347,42.573,50.117,40.189,46.676,37.438z"/>
		<path style="clip-path:url(#SVGID_2_);fill:#B53F0D;" d="M49.377,32.417c-0.273,1.404-0.229,5.54-1.386,6.541
			c-0.878,0.759-2.293-0.647-3.45-0.115c-0.734,0.339,2.688,11.012-2.393,11.148c-1.844,0.05-1.956-1.863-5.283-1.321
			c-1.705,0.279-3.512,2.884-5.732,1.873c-4.256-1.934-3.969-8.069-2.985-10.26c0.772-1.72-3.349,0.121-4.704-1.619
			c-0.858-1.103-0.612-2.876-1.399-3.952c-0.975-1.334-2.227-0.653-2.295,0.863c-0.064,1.426,0.202,2.793-0.163,4.17
			c-0.981,3.678-0.232,5.124,0.437,3.764c-0.068,0.532-0.432,3.703,0.781,2.382c-0.522,0.873-0.125,4.097,1.152,3.167
			c-0.158,0.85,0.412,3.383,1.313,3.247c0.168,0.824,1.57,3.358,2.389,1.856c-0.127,0.231,1.006,1.668,1.203,1.9
			c0.483,0.57,1.228,1.318,2.041,1.281c0.442-0.021,0.608-0.395,1.051-0.332c0.482,0.07,1.037,0.82,1.495,1.04
			c0.504,0.243,0.985,0.417,1.405-0.072c0.594,1.074,2.213,1.265,2.963,0.292c0.461,1.009,2.351,0.87,2.736-0.143
			c0.896,1.373,2.121-0.367,2.573-1.17c-0.458,0.815,1.83,1.655,2.542-2.284c0.082,0.999,0.939,0.788,1.415,0.215
			c0.413-0.498,0.536-1.366,0.589-1.988c1.381,1.002,1.764-1.793,1.646-2.583c1.369,0.345,1.001-2.621,0.827-3.271
			c1.668,0.788,0.909-2.486,0.68-3.076c0.717,1.851,1.65-0.628,0.521-3.266C51.051,42.044,50.026,33.745,49.377,32.417z"/>
		<path style="clip-path:url(#SVGID_2_);fill:#D1540D;" d="M23.67,40.439c-0.406-0.534-1.645-2.296-1.585-2.96
			c-0.081,0.906-1.242,0.233-1.5-0.191c-0.056,0.465-0.115,1.091,0.011,1.557c0.015,0.057,0.687,1.173,0.723,0.844
			c-0.065,0.595-1.012,4.818,0.621,3.757c-0.234,0.711,0.071,4.53,1.085,2.723c0.017,0.681-0.077,3.506,1.126,3.284
			c1.289-0.239,1.38-6.508,0.964-7.4C24.814,41.408,24.096,41.005,23.67,40.439z"/>
		<path style="clip-path:url(#SVGID_2_);fill:#D45D08;" d="M45.872,17.76c-2.373-1.436-5.186-2.599-7.942-2.928
			c-1.564-0.187-3.026-0.687-4.628-0.7c-2.671-0.021-5.281,0.773-7.675,1.914c-3.561,1.699-5.949,5.738-7.086,9.357
			c-0.661,2.112-1.051,4.5-0.643,6.699c0.266,1.431,1.494,4.487,3.614,4.912c0.473,0.094,1.126-0.179,0.99-1.854
			c-0.2-2.439-1.183-5.815,0.705-8.105c-0.431,1.208,0.231,2.666,1.105,3.543c1.06-2.039,3.13-4.419,5.484-4.908
			c-0.188,1.708,0.964,3.745,1.257,4.107c0.4-1.305,1.308-2.795,2.654-3.271c0.521,1.209,0.943,2.392,1.916,3.376
			c1.549-1.703,2.694-3.867,4.643-5.166c2.042-1.359,4.813-1.032,6.836-2.436C48.971,21.007,47.321,18.638,45.872,17.76z"/>
		<path style="clip-path:url(#SVGID_2_);fill:#FFC494;" d="M37.139,30.877c-2.319,0.153-3.024,5.935-1.752,6.676
			c1.572,0.916,4.234,0.414,5.076-0.314C41.09,36.694,39.9,30.694,37.139,30.877z"/>
		<path style="clip-path:url(#SVGID_2_);fill:#DE6B0D;" d="M35.665,28.989c-0.086-0.377,1.573-2.349,1.824-2.772
			c0.536-0.91,1.037-1.716,1.33-2.746c-1.047,0.646-2.366,1.313-3.168,2.258C34.59,26.979,35.383,27.747,35.665,28.989z"/>
		<path style="clip-path:url(#SVGID_2_);fill:#D1540D;" d="M39.598,49.954c-2.111-1.016-4.205,0.187-5.915,1.768
			c-1.464,1.353-1.925,4.237-0.029,5.628c0.598,0.438,1.344,0.55,1.3-1.09c0.744,1.359,2.633,2.513,2.89,0.655
			c1.204,1.03,2.193,0.338,2.653-1.028c1.247,1.784,2.733-1.046,2.709-2.237C43.161,51.64,41.14,50.697,39.598,49.954z"/>
		<path style="clip-path:url(#SVGID_2_);fill:#D1540D;" d="M43.08,37.126c-1.751,0.152-2.558,1.147-4.015,1.8
			c-1.544,0.691-2.849,0.061-4.086-0.61c-4.393-2.383-12.032,0.415-10.12,6.406c0.249,0.781,0.431,1.688,1.33,1.916
			c1.075-2.526-0.284-6.426,2.792-7.775c-1.292,2.123,2.396,0.097,2.953-0.111c-1.623,2.437,1.274,1.356,2.445,0.562
			c-0.351,0.366-0.455,0.788-0.506,1.259c0.838,0.336,1.543-0.383,2.092-0.956c-0.36,1.16,0.874,1.313,1.5,0.62
			c0.35,0.604,0.685,0.49,0.922-0.154c0.353,0.323,0.633,0.211,1.016,0.367c-0.011-0.229,0.151-0.477,0.073-0.763
			c0.748,0.464,2.486,0.791,1.881-0.709c0.623,1.065,3.045,1.078,2.479-0.534c1.403,0.984,1.751,2.859,1.884,4.454
			c0.086,1.03-0.449,5.79,1.596,4.131c0.877-0.712,0.914-2.584,0.505-3.534c2.006,1.442-0.216-3.24-0.498-3.72
			C46.313,38.055,45.154,36.943,43.08,37.126z"/>
		<path style="clip-path:url(#SVGID_2_);fill:#D1540D;" d="M29.083,50.769c-0.648-0.535-1.469-2.935-2.467-2.685
			c-0.965,0.243-0.583,2.481-0.549,3.19c0.026,0.556,0.866,3.583,1.48,1.781c-0.223,0.813,0.278,2.277,1.02,2.728
			c0.764,0.464,1.74-0.495,1.442-0.675c0.603,0.362,1.104,1.189,1.74,1.428c1.961,0.736,2.121-3.639,2.165-4.933
			c-0.484,0.141-0.996,0.385-1.495,0.453C31.064,52.247,30.08,51.589,29.083,50.769z"/>
		<path style="clip-path:url(#SVGID_2_);fill:#D1540D;" d="M44.85,51.908c0.001,0.001,0.001,0.002,0.002,0.003
			C44.852,51.892,44.851,51.877,44.85,51.908z"/>
		<path style="clip-path:url(#SVGID_2_);fill:#D1540D;" d="M45.506,48.539c-0.561-0.071-0.615,0.863-0.853,1.241
			c-0.433,0.696-1.033,1.199-1.839,1.384c-0.391,0.089-1.361-0.183-1.641-0.009c-0.735,0.459-0.298,1.796,0.217,2.312
			c1.563,1.566,3.396,0.689,3.46-1.519c0.001,0.002,0.001-0.02,0.001-0.037c-0.001-0.001-0.001-0.002-0.002-0.003
			c0.001-0.031,0.002-0.017,0.002,0.003c0.566,1.006,1.216,0.035,1.396-0.657C46.375,50.761,46.268,48.637,45.506,48.539z"/>
		<path style="clip-path:url(#SVGID_2_);fill:#DE6B0D;" d="M30.916,28.726c0.185-0.567,0.545-0.944,0.792-1.344
			c0.838-1.351,2.156-2.07,3.088-3.35C32.332,24.851,29.679,25.637,30.916,28.726z"/>
		<path style="clip-path:url(#SVGID_2_);fill:#DE6B0D;" d="M24.389,29.376c-0.212-0.222,0.946-1.969,2.689-3.129
			c0.98-0.653,2.4-0.995,2.978-2.223c-1.045,0.506-2.415,0.246-3.525,0.625C24.834,25.228,22.738,27.66,24.389,29.376z"/>
		<path style="opacity:0.1;clip-path:url(#SVGID_2_);fill:#330500;" d="M38.369,20.34c-3.724-0.23-7.454-0.84-11.19-0.607
			c-2.852,0.177-6.581,0.482-8.865,2.309c-0.394,0.314-0.854,0.864-1.096,1.444c-0.258,0.62-0.66,1.656-0.064,2.096
			c0.839,0.616,2.913-0.041,3.906,0.102c1.742,0.245,6.379,1.41,9.209,2.14c4.521,1.165,15.263,2.145,19.418-0.104
			C54.288,25.227,45.514,20.781,38.369,20.34z"/>
		<path style="clip-path:url(#SVGID_2_);fill:#AD652B;" d="M16.085,18.255c-0.941,0.83-1.181,4.046,0.583,5.056
			c6.54,3.745,29.436,6.113,36.615,1.608C60.706,20.263,25.534,9.914,16.085,18.255z"/>
		<path style="clip-path:url(#SVGID_2_);fill:#D49D6A;" d="M19.969,16.265l-1.477,0.634c-0.854,0.372-2.076,2.312-1.584,3.871
			c0.996,3.151,11.816,7.229,31.643,5.128C29.442,26.116,16.865,22.794,19.969,16.265z"/>
		<path style="clip-path:url(#SVGID_2_);fill:#8F4E20;" d="M20.346,15.94l-1.477,0.635c-0.854,0.373-2.402,2.456-1.584,3.872
			c1.098,1.897,9.795,5.56,24.907,5.385C27.354,24.32,17.242,22.471,20.346,15.94z"/>
		<path style="clip-path:url(#SVGID_2_);fill:#8F4E20;" d="M44.771,7.883C41.018,5.367,22.26,6.374,20.668,9.592
			c-0.826,1.666-2.433,9.958-1.149,11.221c2.873,2.828,25.472,4.924,29.296-0.184C48.066,15.384,45.945,8.671,44.771,7.883z"/>
		<path style="clip-path:url(#SVGID_2_);fill:#4F3023;" d="M47.58,17.15c-1.213,0.542-4.432,1.982-10.455,2.276
			c-7.482,0.368-14.257-1.514-17.512-2.417l-0.572-0.158l-1.129,4.113l0.562,0.155c3.161,0.877,9.438,2.618,16.713,2.618
			c0.706,0,1.422-0.016,2.146-0.051c6.825-0.333,10.577-2.012,11.989-2.644c0.125-0.056,0.222-0.101,0.292-0.128l-1.411-4.024
			C48.068,16.938,47.861,17.024,47.58,17.15z"/>
		<path style="clip-path:url(#SVGID_2_);fill:#D49D6A;" d="M47.555,16.432c-1.212,0.543-4.432,1.982-10.456,2.276
			c-7.483,0.369-14.253-1.513-17.507-2.416l-0.576-0.159l-1.129,4.113l0.565,0.157c3.161,0.876,9.438,2.616,16.708,2.616
			c0.706,0,1.423-0.016,2.146-0.051c6.827-0.333,10.578-2.011,11.991-2.644c0.125-0.055,0.221-0.1,0.291-0.127l-1.411-4.024
			C48.043,16.22,47.836,16.307,47.555,16.432z"/>
		<path style="clip-path:url(#SVGID_2_);fill:#AD652B;" d="M39.438,7.346c-3.258-0.503-6.794-0.482-10.021,0.172
			c-1.468,0.297-2.951,0.531-4.423,0.81c-0.965,0.182-2.238,0.389-3.027,1.025c0.738,0.145,1.549-0.063,2.289-0.137
			c3.264-0.324,6.547-0.777,9.832-0.751c2.272,0.018,4.547,0.196,6.817,0.277c0.358,0.014,2.302,0.1,2.374-0.476
			c0.002-0.013,0.002-0.025,0.002-0.036C43.28,7.439,39.856,7.411,39.438,7.346z"/>
		<path style="clip-path:url(#SVGID_2_);fill:#E8BF8E;" d="M22.348,21.677c2.366,0.556,4.587,0.955,6.791,1.222l0.571-4.732
			c-2.027-0.245-4.078-0.615-6.271-1.13L22.348,21.677z"/>
		<path style="clip-path:url(#SVGID_2_);fill:#AD652B;" d="M39.379,10.354c-4.127-0.53-8.499-0.723-12.558,0.197
			c-1.331,0.302-2.66,0.65-3.692,1.607c-0.348,0.324-2.374,2.838-1.705,3.121c3.319,1.402,7.162,1.743,10.689,2.235
			c3.853,0.536,8.18,0.104,11.811-1.257c-0.346-1.554-0.409-3.05-1.221-4.448C42.01,10.616,40.645,10.518,39.379,10.354z"/>
		<path style="clip-path:url(#SVGID_2_);fill:#D49D6A;" d="M23.307,57.115c0.498-2.74-0.829-5.547-2.918-4.935
			c-3.25,0.953-5.156,3.653-4.793,13.817h7.784C23.149,64.105,22.771,60.057,23.307,57.115z"/>
	</g>
</g>
<g id="Layer_1">
</g>
</svg>
