<?xml version="1.0" encoding="iso-8859-1"?>
<!-- Generator: Adobe Illustrator 16.0.0, SVG Export Plug-In . SVG Version: 6.00 Build 0)  -->
<!DOCTYPE svg PUBLIC "-//W3C//DTD SVG 1.1//EN" "http://www.w3.org/Graphics/SVG/1.1/DTD/svg11.dtd">
<svg version="1.1" xmlns="http://www.w3.org/2000/svg" xmlns:xlink="http://www.w3.org/1999/xlink" x="0px" y="0px" width="66px"
	 height="66px" viewBox="0 0 66 66" style="enable-background:new 0 0 66 66;" xml:space="preserve">
<g id="Layer_100">
	<g>
		<defs>
			<circle id="SVGID_1_" cx="33" cy="33" r="33"/>
		</defs>
		<clipPath id="SVGID_2_">
			<use xlink:href="#SVGID_1_"  style="overflow:visible;"/>
		</clipPath>
		<rect style="clip-path:url(#SVGID_2_);fill:#FFFFFF;" width="65.999" height="66"/>
		<path style="clip-path:url(#SVGID_2_);fill:#C9BEB7;" d="M17.026,66c0-0.306,0.231-3.852,0.421-6.135
			c0.347-4.162,3.308-8.715,8.489-9.678l1.028,5.228C24.173,56.879,23.794,66,23.794,66H17.026z"/>
		<path style="clip-path:url(#SVGID_2_);fill:#C9BEB7;" d="M48.954,66c0-0.306-0.23-3.852-0.421-6.135
			c-0.346-4.162-3.307-8.715-8.488-9.678l-1.028,5.228C41.809,56.879,42.188,66,42.188,66H48.954z"/>
		<path style="clip-path:url(#SVGID_2_);fill:#C9BEB7;" d="M25.393,50.455C20.83,53.423,21.867,58.331,23.086,66h19.809
			c1.335-7.246,2.492-13.537-1.99-15.943C35.938,47.389,28.694,48.309,25.393,50.455z"/>
		<path style="opacity:0.5;clip-path:url(#SVGID_2_);fill:#949494;" d="M33.002,56.809c9.33,0,12.027-13.316-0.79-13.316
			C22.996,43.492,23.02,56.809,33.002,56.809z"/>
		<path style="clip-path:url(#SVGID_2_);fill:#C9BEB7;" d="M32.99,55.655c9.956,0,12.835-12.61-0.842-12.61
			C22.314,43.045,22.339,55.655,32.99,55.655z"/>
		<path style="clip-path:url(#SVGID_2_);fill:#2B221C;" d="M48.23,16.432c-0.556-1.922-1.602-3.587-2.736-4.833
			c-5.16-5.664-13.732-6.27-23.423-2.077c0.888,0.062,2.702,0.234,5.031-0.208c-5.087,2.343-11.104,5.429-12.418,11.42
			c-3.251,14.826,8.97,7.986,13.122,9.173c4.71,1.346,16.427-0.175,19.706-5.053C48.99,22.658,49.073,19.35,48.23,16.432z"/>
		<path style="clip-path:url(#SVGID_2_);fill:#FFCB9E;" d="M18.006,38.561c1.096,8.04,7.295,16.859,16.635,16.195
			c9.528-0.679,14.27-12.498,13.039-22.384c-1.339-10.747-6.429-19.707-17.571-17.535C22.152,16.389,16.546,27.829,18.006,38.561z"
			/>
		<path style="opacity:0.3;clip-path:url(#SVGID_2_);fill:#BF3C1B;" d="M24.07,23.892c-1.123,0.583-4.093,2.012-5.613-0.377
			c-0.717-1.126-0.187-2.829,0.261-4.114c0.547-1.571,2.341-2.45,3.801-3.092c2.657-1.168,5.754-1.013,8.606-0.964
			c3.214,0.055,6.395,0.551,9.471,1.446c2.031,0.589,5.853,1.115,6.556,3.409c0.893,2.904-2.215,3.279-4.367,3.282
			C37.608,23.49,26.513,22.626,24.07,23.892z"/>
		<path style="clip-path:url(#SVGID_2_);fill:#FFCB9E;" d="M16.082,42.016c1.023,0.367,2.11,0.418,3.157,0.343
			c0.019-0.032,0.041-0.063,0.062-0.097c0.468-0.742-0.186-4.898-0.426-5.682c-0.601-1.973-1.769-3.005-3.645-2.49
			C11.324,35.166,12.892,40.871,16.082,42.016z"/>
		<path style="opacity:0.3;clip-path:url(#SVGID_2_);fill:#C94614;" d="M17.596,40.607c1.423-0.897,0.077-3.924-0.994-4.417
			c-0.878-0.405-3.069,0.323-2.039,2.04c0.543-1.59,1.513-0.547,1.364,0.584c-0.099,0.76-0.914,0.769-0.104,1.742
			C16.261,41.084,17.148,40.889,17.596,40.607z"/>
		<path style="clip-path:url(#SVGID_2_);fill:#2B221C;" d="M42.613,11.769c-6.012-3.151-15.25-2.331-20.301,1.42
			c-3.433,2.548-5.242,5.609-5.038,9.889c0.11,2.349,3.269,2.709,4.599,1.026c1.139-1.438,2.737-1.811,4.56-1.878
			c3.019-0.11,14.842-0.668,17.618,0.282c1.522,0.522,3.545,1.312,3.851-1.11c0.331-2.647-0.377-5.4-2.195-7.327
			C44.835,13.148,43.785,12.383,42.613,11.769z"/>
		<path style="clip-path:url(#SVGID_2_);fill:#45362E;" d="M46.76,20.15c0.089-1.15-0.021-2.646-0.336-3.652
			c-0.465-1.485-1.317-2.653-2.435-3.717c-2.272-2.163-5.454-3.822-8.525-4.107c-1.602-0.149-4.819-0.088-6.349,0.586
			c0.509,0.28,1.833,0.571,2.275,0.928c-2.219,0.517-4.347,1.153-6.438,2.102c-0.641,0.29-5.896,3.859-5.894,3.86
			c1.462,0.794,3.184,0.498,4.76,0.147c2.407-0.536,4.788-0.75,7.211-0.198c2.25,0.512,4.272,1.635,6.503,2.155
			c0.067-1.008-0.896-1.889-1.324-2.572c1.277-0.021,6.17,3.075,7.175,3.891c-0.242-0.859-1.431-2.671-1.56-3.585
			C43.071,16.172,45.901,18.693,46.76,20.15z"/>
		<path style="clip-path:url(#SVGID_2_);fill:#BF795C;" d="M21.173,24.72c-0.897,5.013-1.604,7.445-0.957,11.974
			c0,0-2.299-2.514-4.163-2.733c-0.158-0.424-0.4-3.455-0.284-6.158C15.873,25.373,19.418,24.697,21.173,24.72z"/>
		<path style="clip-path:url(#SVGID_2_);fill:#FFA073;" d="M46.203,37.053c0.118,0.172,0.208,0.368,0.266,0.594
			c0.563,2.191-4.4,1.442-4.987,0.488c-1.097-1.791,0.565-2.225,1.814-2.199C44.251,35.953,45.586,36.146,46.203,37.053z"/>
		<path style="clip-path:url(#SVGID_2_);fill:#FFA073;" d="M27.582,36.81c0.163,0.144,0.306,0.32,0.423,0.534
			c1.143,2.08-4.098,2.607-4.941,1.791c-1.581-1.535-0.004-2.406,1.271-2.707C25.31,36.2,26.72,36.049,27.582,36.81z"/>
		<path style="clip-path:url(#SVGID_2_);fill:#261B18;" d="M25.766,35.66c-0.607-0.295-1.379-0.365-2.03-0.174
			c-1.398-1.188-0.108-4.826,1.942-3.943C27.203,32.202,27.143,34.947,25.766,35.66z"/>
		<path style="opacity:0.3;clip-path:url(#SVGID_2_);fill:#B54D26;" d="M37.982,38.006c-0.511-0.629-1.23,0.067-2.56,0.082
			c-1.199,0.015-1.672-0.532-2.511-0.033c-0.839,0.497,0.36,2.096,2.48,2.019C37.505,39.998,38.424,38.547,37.982,38.006z"/>
		<path style="clip-path:url(#SVGID_2_);fill:#FFDFC2;" d="M35.108,33.585c-2.251-0.196-2.421,4.561-1.905,4.969
			c1.262,0.997,3.899,0.292,4.667-0.51C38.174,37.729,37.258,33.773,35.108,33.585z"/>
		<path style="clip-path:url(#SVGID_2_);fill:#261B18;" d="M45.42,31.405c1.119,0.671,1.108,2.98,0.272,3.906
			c-0.531-0.246-1.625-0.357-2.171,0.004C41.802,34.178,43.335,30.154,45.42,31.405z"/>
		<path style="opacity:0.7;clip-path:url(#SVGID_2_);fill:#E6D2C3;" d="M24.69,32.435c0.741-0.25,1.199,0.888,0.613,1.313
			C24.493,34.336,23.859,32.718,24.69,32.435z"/>
		<path style="opacity:0.7;clip-path:url(#SVGID_2_);fill:#E6D2C3;" d="M44.349,32.1c0.729-0.145,1.02,0.992,0.412,1.322
			C43.921,33.88,43.528,32.265,44.349,32.1z"/>
		<path style="clip-path:url(#SVGID_2_);fill:#2B221C;" d="M27.593,27.047c0.762,0.098,1.745,0.893,1.286,2.226
			c-0.362,1.056-2.019,0.564-4.271,0.676c-2.446,0.127-3.208,0.448-3.354-0.25c-0.146-0.701-0.056-1.799,2.127-2.398
			C24.833,26.901,26.179,26.861,27.593,27.047z"/>
		<path style="clip-path:url(#SVGID_2_);fill:#2B221C;" d="M42.021,27.169c-0.755,0.142-1.69,0.991-1.157,2.296
			c0.423,1.033,2.048,0.448,4.304,0.432c2.448-0.013,3.229,0.265,3.332-0.441c0.107-0.707-0.044-1.798-2.259-2.272
			C44.769,26.867,43.424,26.902,42.021,27.169z"/>
		<path style="clip-path:url(#SVGID_2_);fill:#2B221C;" d="M41.514,40.014c0.805,0.564,2.861,2.758,4.555,1.14
			c0.813-0.777,2.113-3.941,1.685-8.108c2.088,1.425,2.001,5.507,1.553,7.728c-0.183,0.908-0.824,1.93-0.754,2.811
			c0.106,1.381,1.202,2.813,1.428,4.24c0.266,1.686,0.246,4.051-1.759,4.543c0.218,2.133-0.391,3.34-2.752,3.117
			c0.745,2.684-1.955,4.424-4.202,2.678c0.201,2.894-5.968,1.646-7.081,0.303c-0.291,1.361-2.389,1.507-3.495,1.268
			c-1.381-0.297-2.213-1.357-2.841-2.539c-0.802,0.9-2.805,0.898-3.789,0.266c-1.257-0.807-1.177-2.375-1.04-3.729
			c-2.454,0.684-2.705-2.073-2.239-3.762c-1.673-0.365-1.836-3.393-1.834-4.779c0.002-1.702-1.415-10.459,0.334-11.005
			c1.547-0.481,1.331,1.704,1.485,2.685c0.971,6.168,5.467,7.181,7.287,4.789c2.351-3.086,4.039-2.125,7.482-2.176
			C38.12,39.172,39.352,38.496,41.514,40.014z"/>
		<path style="clip-path:url(#SVGID_2_);fill:#F5B37A;" d="M41.667,44.9c-0.192-0.873-2.215-1.247-2.859-1.904
			c-0.449,1.128-2.438,0.416-3.185-0.055c-0.744,0.813-2.845,1.048-3.632,0.257c-0.139,0.628-2.192,1.186-2.288,2.017
			C31.48,48.199,40.683,47.1,41.667,44.9z"/>
		<path style="clip-path:url(#SVGID_2_);fill:#BF795C;" d="M32.18,44.504c0.854-0.428,5.469-0.811,6.536-0.256
			C36.323,45.059,32.18,44.504,32.18,44.504z"/>
		<path style="opacity:0.5;clip-path:url(#SVGID_2_);fill:#45362E;" d="M44.611,50.787c0.206,0.637,0.769,1.882,0.385,2.496
			c-0.749,1.196-3.197,0.4-4.096-0.072c0.331,0.652,1.291,1.811,0.618,2.527c-1.088,1.157-2.667-1.185-3.57-0.793
			c-0.563,0.244-0.062,1.696-0.961,2.092c-1.252,0.551-2.394-1.318-3.366-1.754c-0.617,0.871-1.608,1.352-2.685,1.191
			c-1.57-0.234-1.421-1.15-1.778-2.391c-1.258,1.353-3.38,1.963-3.58-0.49c-1.638,2.123-1.804-2.41-1.055-3.584
			c0.537-0.845,1.285-1.67,2.054-2.314c1.215-1.02,1.829-0.629,3.307-0.271c2.411,0.583,5.518,1.132,7.983,0.714
			c2.922-0.494,5.243-2.63,7.519,0.055c0.394,0.463,1.379,1.508,1.131,2.221C46.349,50.9,44.813,51.41,44.611,50.787z"/>
		<path style="opacity:0.15;clip-path:url(#SVGID_2_);" d="M39.901,38.042c-0.411-0.329-0.765-0.731-1.022-1.202
			c-0.533-0.982-0.536-2.17-0.154-3.214c0.526-1.437,2.046-1.522,3.305-1.612c0.841-0.06,1.687-0.075,2.528-0.088
			c0.665-0.009,1.509,0.089,2.139-0.173c0.884-0.368,0.701-1.594,0.16-2.216c-0.576-0.661-1.397-0.435-2.164-0.356
			c-0.989,0.102-1.972,0.276-2.936,0.522c-1.201,0.307-2.611,0.431-3.724,1.008c-1.027,0.534-1.456,0.867-2.74,0.82
			c-2.3-0.081-4.245-1.501-6.54-1.725c-2.392-0.234-4.839-0.502-7.189,0.161c-0.612,0.173-2.461,0.885-1.205,1.536
			c1.225,0.634,3.05,0.42,4.389,0.463c0.617,0.021,1.238,0.033,1.854,0.085c2.187,0.188,5.545-0.135,5.387,2.595
			c-0.108,1.873-1.304,3.803-2.823,4.164c-1.457,0.346-3.019,0.485-4.495,0.488c-1.131,0.002-2.225-0.211-3.258-0.682
			c-0.294-0.133-1.172-0.686-1.453-0.289c-0.479,0.675,1.305,1.779,1.772,1.986c1.065,0.473,2.196,0.611,3.352,0.728
			c2.851,0.286,5.783,0.118,7.376-2.511c0.924-1.523,1.382-3.313,2.235-4.875c1.4-2.559,1.996,0.924,2.394,2.446
			c0.224,0.856,0.556,1.688,1.039,2.414c0.855,1.285,2.569,2.006,4.014,2.104c0.891,0.061,3.722-0.14,4.564-0.486
			c0.508-0.209,0.775-1.056,0.176-1.307c-0.364-0.15-2.919,0.354-3.302,0.328c-0.559-0.033-1.13-0.053-1.679-0.172
			C41.195,38.831,40.49,38.512,39.901,38.042z"/>
		<path style="clip-path:url(#SVGID_2_);fill:#3A3A4A;" d="M15.738,32.047c0,0,0.625,0.383,1.508,0.399
			c0.207,1.295,0.354,4.667,2.884,6.637c2.114,1.644,8.67,1.731,10.634,0.58c2.432-1.429,3.35-3.843,3.644-6.184
			c0.721-5.74-12.672-3.997-15.313-3.74c-1.874,0.183-3.509-0.236-3.927,0.17C14.624,30.438,15.738,32.047,15.738,32.047z
			 M19.185,32.338c2.284-1.586,11.252-1.618,13.42-0.176c1.051,0.7-0.004,4.626-1.807,5.965c-2.375,1.763-8.767,1.421-10.548-0.51
			C18.877,36.127,18.439,32.856,19.185,32.338z"/>
		<path style="clip-path:url(#SVGID_2_);fill:#3A3A4A;" d="M53.096,29.087c-0.373-0.388-1.771,0.106-3.391,0.013
			c-2.286-0.134-13.886-1.25-13.094,4.45c0.323,2.323,1.188,4.692,3.325,6.005c1.728,1.059,7.38,0.665,9.152-1.075
			c2.124-2.085,2.149-5.459,2.289-6.762c0.762-0.056,1.289-0.468,1.289-0.468S53.58,29.591,53.096,29.087z M48.942,37.021
			c-1.479,2.012-6.979,2.65-9.081,1c-1.594-1.251-2.621-5.125-1.735-5.873c1.826-1.541,9.561-1.926,11.577-0.448
			C50.363,32.182,50.082,35.469,48.942,37.021z"/>
		<path style="opacity:0.3;clip-path:url(#SVGID_2_);fill:#FFFFFF;" d="M39.658,31.729c1.434-0.551,8.677-0.803,9.465,0.018
			c0.562,0.589-1.55,1.388-2.521,1.518c-1.843,0.25-3.792,0.263-5.492-0.101C40.621,33.061,38.362,32.226,39.658,31.729z"/>
		<path style="clip-path:url(#SVGID_2_);fill:#FFFFFF;" d="M45.327,31.72c1.476-0.159,4.002,0.182,3.707,0.645
			c-0.299,0.472-4.352,0.608-4.689-0.052C44.174,31.981,44.634,31.795,45.327,31.72z"/>
		<path style="opacity:0.7;clip-path:url(#SVGID_2_);fill:#FFFFFF;" d="M40.851,36.578c0.92,0.058,2.436,0.643,2.207,0.975
			c-0.234,0.336-2.737-0.063-2.874-0.629C40.113,36.639,40.416,36.549,40.851,36.578z"/>
		<path style="opacity:0.7;clip-path:url(#SVGID_2_);fill:#FFFFFF;" d="M21.678,37.053c1.015,0.095,2.66,0.742,2.394,1.065
			c-0.274,0.327-3.016-0.173-3.142-0.741C20.864,37.086,21.202,37.01,21.678,37.053z"/>
		<path style="opacity:0.3;clip-path:url(#SVGID_2_);fill:#FFFFFF;" d="M20.707,32.12c0.809-0.791,9.171-0.711,10.885-0.225
			c1.551,0.444-0.951,1.279-1.501,1.388c-1.914,0.381-4.157,0.41-6.309,0.214C22.651,33.394,20.126,32.688,20.707,32.12z"/>
		<path style="clip-path:url(#SVGID_2_);fill:#FFFFFF;" d="M27.942,31.649c1.629-0.16,4.42,0.181,4.092,0.646
			c-0.333,0.472-4.807,0.607-5.178-0.052C26.669,31.91,27.179,31.725,27.942,31.649z"/>
		<path style="clip-path:url(#SVGID_2_);fill:#3A3A4A;" d="M32.402,30.296c2.353,0.635,4.154,0.448,5.971-0.097
			c1.763-0.528-0.052,0.922-0.376,1.305c-0.323,0.382-0.478,4.563-1.23,2.957c-0.753-1.605-1.942-1.534-2.565,0.204
			c-0.624,1.736-0.366-1.347-0.587-2.298C33.394,31.418,30.525,29.788,32.402,30.296z"/>
		<path style="clip-path:url(#SVGID_2_);fill:#C1C5C9;" d="M32.287,31.029c-2.103-1.512-5.562-1.65-12.276-0.79
			C25.094,30.166,29.149,30.046,32.287,31.029z"/>
		<path style="clip-path:url(#SVGID_2_);fill:#C1C5C9;" d="M38.915,30.757c1.678-1.479,4.435-1.362,10.354-1.24
			C44.845,29.917,41.545,29.634,38.915,30.757z"/>
	</g>
</g>
<g id="Layer_1">
</g>
</svg>
