<?xml version="1.0" encoding="iso-8859-1"?>
<!-- Generator: Adobe Illustrator 16.0.0, SVG Export Plug-In . SVG Version: 6.00 Build 0)  -->
<!DOCTYPE svg PUBLIC "-//W3C//DTD SVG 1.1//EN" "http://www.w3.org/Graphics/SVG/1.1/DTD/svg11.dtd">
<svg version="1.1" xmlns="http://www.w3.org/2000/svg" xmlns:xlink="http://www.w3.org/1999/xlink" x="0px" y="0px"
	 width="66.011px" height="66px" viewBox="0 0 66.011 66" style="enable-background:new 0 0 66.011 66;" xml:space="preserve">
<g id="Layer_30">
	<g>
		<defs>
			<circle id="SVGID_1_" cx="33.011" cy="33" r="33"/>
		</defs>
		<clipPath id="SVGID_2_">
			<use xlink:href="#SVGID_1_"  style="overflow:visible;"/>
		</clipPath>
		<rect style="clip-path:url(#SVGID_2_);fill:#A6C4DD;" width="66" height="66"/>
		<path style="clip-path:url(#SVGID_2_);fill:#381D18;" d="M13.204,49.301C7.852,59.1,23.093,61.52,30.631,55.027
			c3.229-2.782,5.821,4.557,9.725,4.904c5.274,0.469,8.056-3.316,6.982-6.7c0.899,2.833,4.044,2.999,6.415,1.981
			c1.181-0.507,3.761-2.369,3.539-5.975c-0.972,1.201-2.949,1.488-4.336,0.874c-1.947-0.862-2.569-2.831-1.374-4.538
			c1.46-2.08,5.612-4.727,1.562-6.922c0.869,0.471,1.827,0.46,2.719,0.052c3.325-1.522,1.919-8.626-1.842-6.332
			c2.554-0.096,0.09,3.969-1.34,0.91c-0.901-1.931,1.178-2.867,2.112-4.156c1.176-1.618,1.499-3.277,1.319-5.357
			c-0.452-5.236-5.269-8.537-8.042-12.573C45.047,6.8,40.772,3.989,35.27,5.968c-1.358,0.489-2.481,1.478-3.436,2.534
			c-0.307-0.827-0.891-1.79-1.717-2.402c-0.089,0.784-0.129,1.573-0.151,2.374C26.977,6.641,22.29,7.385,19.69,9.069
			c-3.534,2.289-3.201,5.813-4.627,9.253c-1.304,3.144-5.438,6.806-5.176,10.457c0.165,2.285,1.797,3.466,1.688,5.818
			c-0.091,1.964-2.225,3.023-1.25,4.941c0.929,1.825,4.983,1.272,2.939,4.565c-1.872,3.016-5.536-0.551-3.24-1.037
			c-2.532-1.23-3.589,2.049-3.216,4.009C7.328,49.801,11.15,49.858,13.204,49.301z"/>
		<path style="clip-path:url(#SVGID_2_);fill:#FFC38F;" d="M44.595,65.971c-0.128-0.746-0.622-5.28-0.803-6.121l-3.127,0.674
			c0.172,0.793,0.488,4.596,0.587,5.447H44.595z"/>
		<path style="clip-path:url(#SVGID_2_);fill:#EBEBEB;" d="M39.139,61.699c-0.394-1.82-0.952-2.455-1.102-2.468l0.526-5.79
			c1.807,0.164,5.021,1.295,6.259,7.033L39.139,61.699z"/>
		<path style="clip-path:url(#SVGID_2_);fill:#FFC38F;" d="M24.784,65.971c0.128-0.746,0.623-5.28,0.803-6.121l3.127,0.674
			c-0.172,0.793-0.487,4.596-0.587,5.447H24.784z"/>
		<path style="clip-path:url(#SVGID_2_);fill:#EBEBEB;" d="M30.037,61.699l-5.684-1.225c1.237-5.738,4.452-6.869,6.259-7.033
			l0.525,5.79C30.989,59.244,30.43,59.879,30.037,61.699z"/>
		<path style="clip-path:url(#SVGID_2_);fill:#EBEBEB;" d="M39.846,65.971c0.086-1.307,0.401-2.922,0.982-5.096
			c1.096-4.1,1.22-6.584-1.315-7.416c-2.463-0.811-7.004-1.082-9.704,0.073c-2.153,0.921-2.842,2.413-1.373,6.96
			c0.648,2.006,1.163,3.903,1.259,5.479H39.846z"/>
		
			<linearGradient id="SVGID_3_" gradientUnits="userSpaceOnUse" x1="2801.9824" y1="51.7959" x2="2801.9824" y2="55.335" gradientTransform="matrix(1 0 0 1 -2767.6348 0)">
			<stop  offset="0" style="stop-color:#EEA17A"/>
			<stop  offset="0.0031" style="stop-color:#EEA17A"/>
			<stop  offset="0.3647" style="stop-color:#F7B88E"/>
			<stop  offset="0.705" style="stop-color:#FDC69A"/>
			<stop  offset="1" style="stop-color:#FFCB9E"/>
		</linearGradient>
		<path style="clip-path:url(#SVGID_2_);fill:url(#SVGID_3_);" d="M37.49,53.262c-0.526-0.943-0.058-2.439,0.033-4.039
			c0.21-3.625-6.052-3.76-6.044,0.196c0.002,1.754,0.135,3.089-0.229,3.657C28.743,56.995,39.83,57.464,37.49,53.262z"/>
		<path style="opacity:0.7;clip-path:url(#SVGID_2_);fill:#FBFBFB;" d="M29.298,60.03c0.518,1.346,3.136,1.71,5.412,1.688
			c4.493-0.041,6.169-1.42,5.398-3.078c-0.207-0.443-1.171-0.752-2.316-0.421c-2.131,0.619-4.734,0.345-6.926-0.12
			C29.605,57.832,28.904,59.016,29.298,60.03z"/>
		<path style="clip-path:url(#SVGID_2_);fill:#FFC38F;" d="M50.3,30.259C49.882,18.777,41.361,13.884,33,14.953
			c-8.361,1.069-14.992,7.801-13.896,19.393c1.097,11.592,8.92,18.586,17.35,18.517C42.924,52.811,50.731,42.229,50.3,30.259z"/>
		<path style="clip-path:url(#SVGID_2_);fill:#FFC38F;" d="M16.517,37.717c1.061,0.305,2.183,0.274,3.258,0.117
			c0.021-0.033,0.041-0.068,0.062-0.105c0.464-0.805-0.483-4.676-0.747-5.469c-0.665-1.998-1.715-3.369-3.635-2.692
			C11.456,30.98,13.204,36.773,16.517,37.717z"/>
		<path style="opacity:0.3;clip-path:url(#SVGID_2_);fill:#BC551E;" d="M22.094,28.125c-0.035,0.314-0.055,0.632-0.058,0.951
			c-0.014,1.401,1.234,3.602,1,4.968c-0.437,2.558-2.304,4.286,0.065,6.581c-2.725,0.025-4.834-1.715-4.993-3.266
			c-0.396-3.861,1.674-2.833-0.271-4.654c-3.96-3.713-0.688-4.152-0.418-6.413c0.287-2.416,2.423-4.561,3.683-6.516
			c1.767-2.745,4.993-4.016,8.055-4.71c4.422-1.004,9.176-1.17,13.679-0.693c2.123,0.226,4.406,0.24,5.569,2.356
			c0.947,1.727,2.006,4.919,1.335,6.811c-0.449,1.268-2.097,1.063-3.167,1.196c-1.579,0.197-2.919,1.121-3.907,2.47
			c-1.735,2.369-2.786,4.09-6.935,4.09c-2.554,0-5.622-3.743-3.531-5.899c-0.62-0.129-1.223,0.103-1.8,0.332
			c-1.742,0.689-7.932,3.032-7.447-1.244C22.596,25.675,22.235,26.885,22.094,28.125z"/>
		<path style="opacity:0.4;clip-path:url(#SVGID_2_);fill:#D14F2E;" d="M18.811,36.477c1.844-0.805,0.432-4.122-0.858-4.748
			c-1.057-0.511-3.84,0.041-2.706,1.95c0.811-1.623,1.927-0.43,1.645,0.747c-0.186,0.788-1.201,0.72-0.277,1.826
			C17.113,36.849,18.23,36.729,18.811,36.477z"/>
		<path style="clip-path:url(#SVGID_2_);fill:#381D18;" d="M43.272,24.731c0.891-0.467,1.937-0.569,3.348-0.6
			c2.602-0.053,3.502-1.942,3.383-4.427C49.681,12.96,43.247,9.501,37.282,8.973c-1.716-0.15-3.332-0.658-5.084-0.613
			c-2.922,0.076-5.75,1.066-8.326,2.439c-3.838,2.044-6.313,6.677-7.435,10.792c-0.652,2.401-0.997,5.101-0.475,7.561
			c0.465,2.195,3.312,3.023,3.48,5.29c0.074,1.014-0.82,1.775-0.797,2.747c0.02,0.798,0.394,1.665,0.971,2.183
			c0.51,0.458,1.684,0.621,2.402,0.727c-1.587-1.74-0.054-2.752,0.089-4.453c0.101-1.167-0.156-3.418-0.584-4.531
			c-1.121-2.912-0.444-6.254,2.084-8.156c0.254,3.121,3.443,2.996,5.724,2.545c1.027-0.202,4.013-1.409,4.536,0.143
			c0.325,0.969-1.225,1.81-1.579,0.7c-0.031,1.651,0.055,3.01,2.028,3.431c2.969,0.635,5.383-0.416,6.958-2.988
			C41.913,25.748,42.54,25.115,43.272,24.731z"/>
		<path style="clip-path:url(#SVGID_2_);fill:#593A2F;" d="M46.451,21.134c-1.079,1.434-2.787,2.627-4.936,3.557
			c-0.882,0.381-1.571,0.983-2.377,1.499c-1.089,0.699-3.11,1.495-4.414,0.872c1.507-0.991,0.558-3.107-0.889-3.437
			c-1.821-0.416-3.73,0.778-5.572,0.14c-6.018-2.084,2.675-3.614,4.196-4.636c1.513-1.017,2.063-2.738,1.869-4.504
			c-0.052-0.474-1.438-3.277-2.361-4.195C32.82,9.487,34,8.746,35.229,8.415c3.437-0.925,8.407,0.742,10.489,3.663
			C48.296,15.695,48.246,18.748,46.451,21.134z"/>
		<path style="clip-path:url(#SVGID_2_);fill:#593A2F;" d="M19.619,26.461c-0.336,1.187-0.04,2.904,0.521,4.003
			c-1.707-0.2-4.107-2.416-4.872-3.944c-0.929-1.86,0.127-3.243,1.227-4.838C19.72,17,18.195,10.457,25.786,9.946
			c3.91-0.263,5.371,3.016,3.333,6.254C26.654,20.12,20.995,21.604,19.619,26.461z"/>
		<path style="clip-path:url(#SVGID_2_);fill:#FF7752;" d="M47.769,37.199c0.079,0.148,0.138,0.318,0.162,0.51
			c0.27,1.869-3.677,1.033-4.069,0.205c-0.733-1.553,0.648-1.847,1.65-1.776C46.283,36.193,47.348,36.41,47.769,37.199z"/>
		<path style="clip-path:url(#SVGID_2_);fill:#FF7752;" d="M28.469,37.066c0.113,0.154,0.203,0.338,0.268,0.555
			c0.611,2.104-3.871,2.049-4.44,1.18c-1.07-1.631,0.396-2.293,1.512-2.443C26.666,36.244,27.873,36.248,28.469,37.066z"/>
		<path style="clip-path:url(#SVGID_2_);fill:#261B18;" d="M49.401,28.9c-1.208-1.514-5.679-1.545-7.325,0.169
			C44.271,29.276,46.107,28.626,49.401,28.9z"/>
		<path style="opacity:0.4;clip-path:url(#SVGID_2_);fill:#D14F2E;" d="M38.796,37.859c0.276,0.311-0.582,1.171-1.628,1.256
			c-0.924,0.078-2.062-0.939-1.54-1.227c0.522-0.287,0.821,0.027,1.568,0.018C38.028,37.898,38.473,37.495,38.796,37.859z"/>
		<path style="clip-path:url(#SVGID_2_);fill:#261B18;" d="M22.495,28.599c1.817-1.591,6.862-1.723,8.363,0.207
			C28.001,28.877,26.612,28.695,22.495,28.599z"/>
		<path style="clip-path:url(#SVGID_2_);fill:#F04D4D;" d="M44.857,40.219c-2.364,0.542-4.684,0.206-8.244,0.273
			c-2.944,0.059-7.277,0.893-9.579-0.467c3.778,6.49,6.146,7.707,9.163,7.938c3.782,0.289,5.111-2.333,5.711-4.303
			C42.162,42.825,44.108,40.697,44.857,40.219z"/>
		<path style="clip-path:url(#SVGID_2_);fill:#8F3935;" d="M28.801,41.17c0,0,6.254,1.981,14.498,0.021c0,0-1.294,0.562-1.93,2.157
			c-0.581,1.46-2.582,2.45-5.597,2.347C31.065,45.533,28.801,41.17,28.801,41.17z"/>
		<path style="clip-path:url(#SVGID_2_);fill:#FFF9F0;" d="M30.545,41.58c0,0,0.123,1.313,1.79,1.841
			c2.14,0.681,4.453,0.751,6.847,0.403c1.613-0.234,2.435-2.279,2.435-2.279S37,42.611,30.545,41.58z"/>
		<path style="clip-path:url(#SVGID_2_);fill:#FFF9F0;" d="M31.305,43.481c-0.158-0.345-0.081-0.892,0.681-0.37
			c1.066,0.73,2.854,0.905,5.01,0.854c1.997-0.047,3.015-0.641,3.4-0.264c0.389,0.377-1.423,2.495-4.852,2.049
			C31.976,45.286,31.305,43.481,31.305,43.481z"/>
		<path style="clip-path:url(#SVGID_2_);fill:#E8DAC5;" d="M30.959,42.51c0,0,8.065-0.593,9.98,0.168c0,0,0.578-0.716,0.677-1.133
			c0,0-5.646,0.99-11.071,0.035C30.545,41.58,30.655,42.19,30.959,42.51z"/>
		<path style="clip-path:url(#SVGID_2_);fill:#E8DAC5;" d="M32.622,43.385c0,0,2.693,1.174,6.344,0.371
			C38.966,43.756,35.483,45.216,32.622,43.385z"/>
		<path style="clip-path:url(#SVGID_2_);fill:#261B18;" d="M27.682,35.114c-0.646-0.277-1.444-0.302-2.106-0.056
			c-1.513-1.184-0.402-5.178,1.765-4.364C28.953,31.302,29.054,34.258,27.682,35.114z"/>
		<path style="opacity:0.7;clip-path:url(#SVGID_2_);fill:#F0DED1;" d="M27.677,32.016c0.799-0.12,1.049,1.176,0.373,1.51
			C27.116,33.99,26.779,32.152,27.677,32.016z"/>
		<path style="clip-path:url(#SVGID_2_);fill:#261B18;" d="M46.415,30.738c1.167,0.743,1.075,3.042,0.245,4.125
			c-0.625-0.097-1.326-0.094-1.912,0.305C42.328,34.438,44.24,29.349,46.415,30.738z"/>
		<path style="opacity:0.7;clip-path:url(#SVGID_2_);fill:#F0DED1;" d="M46.29,31.82c0.763-0.017,0.862,1.326,0.191,1.579
			C45.556,33.748,45.431,31.842,46.29,31.82z"/>
		<path style="clip-path:url(#SVGID_2_);fill:#121B21;" d="M51.222,31.42c0,0-1.986,2.088-5.067,0.372
			c-1.359-0.756-2.325,0.435-2.325,0.435s0.655-2.364,2.648-1.599C47.547,31.041,48.778,32.241,51.222,31.42z"/>
		<path style="clip-path:url(#SVGID_2_);fill:#121B21;" d="M20.783,31.709c0,0,2.342,2.033,5.312,0.195
			c1.301-0.808,2.417,0.184,2.417,0.184s-0.543-2.342-2.624-1.283C25.091,31.209,23.241,32.423,20.783,31.709z"/>
	</g>
</g>
<g id="Layer_1">
</g>
</svg>
