<?xml version="1.0" encoding="iso-8859-1"?>
<!-- Generator: Adobe Illustrator 16.0.0, SVG Export Plug-In . SVG Version: 6.00 Build 0)  -->
<!DOCTYPE svg PUBLIC "-//W3C//DTD SVG 1.1//EN" "http://www.w3.org/Graphics/SVG/1.1/DTD/svg11.dtd">
<svg version="1.1" xmlns="http://www.w3.org/2000/svg" xmlns:xlink="http://www.w3.org/1999/xlink" x="0px" y="0px" width="66.01px"
	 height="66px" viewBox="0 0 66.01 66" style="enable-background:new 0 0 66.01 66;" xml:space="preserve">
<g id="Layer_37">
	<g>
		<defs>
			<circle id="SVGID_1_" cx="33.01" cy="33" r="33"/>
		</defs>
		<clipPath id="SVGID_2_">
			<use xlink:href="#SVGID_1_"  style="overflow:visible;"/>
		</clipPath>
		<rect style="clip-path:url(#SVGID_2_);fill:#ED9335;" width="66" height="66"/>
		<path style="clip-path:url(#SVGID_2_);fill:#BCCEEB;" d="M43.845,55.51c-2.21-5.059-15.979-5.59-20.068-0.15
			c-1.688,2.246-1.384,6.609-0.567,10.641h20.68C44.635,62.235,44.991,58.134,43.845,55.51z"/>
		<path style="clip-path:url(#SVGID_2_);fill:#379BDB;" d="M36.192,58.768c0,0-0.738-1.693-2.892-1.287
			c-1.923,0.359-2.203,2.014-2.203,2.014l1.588,1.611L32.067,66h3.589l-1.011-4.859L36.192,58.768z"/>
		<path style="opacity:0.1;clip-path:url(#SVGID_2_);" d="M26.57,55.623c0.911,3.885,4.219,5.754,4.219,5.754l2.993-3.125
			l3.184,2.959c3.046-2.955,3.713-3.55,3.947-6.113C41.147,52.535,25.734,52.059,26.57,55.623z"/>
		<path style="clip-path:url(#SVGID_2_);fill:#CBDAF2;" d="M26.651,52.911c-1.483,4.157,3.915,7.542,3.915,7.542l3.216-2.201
			l3.003,2.068c0,0,5.938-3.379,3.689-8.227C38.453,47.734,28.374,48.086,26.651,52.911z"/>
		<path style="clip-path:url(#SVGID_2_);fill:#F7B07C;" d="M31.383,47.949c-1.976,0.433-3.288,2.309-3.424,4.244
			c-0.106,1.496,0.134,2.365,0.97,3.197c0.604,0.601,1.594,1.193,2.614,1.506c0.729,0.221,2.004,1.078,2.229,1.082
			c0.091,0,0.513-0.367,1.199-0.721c1.005-0.518,2.429-1.203,2.982-2.288c0.811-1.584,1.533-4.726,0.002-5.956
			C36.368,47.736,33.278,47.532,31.383,47.949z"/>
		<path style="clip-path:url(#SVGID_2_);fill:#2B221C;" d="M46.477,11.662C41.244,6.084,32.55,5.487,22.722,9.617
			c0.9,0.061,2.741,0.23,5.104-0.205c-5.161,2.308-11.263,5.347-12.595,11.248c-1.522,6.741-0.211,14.64,3.661,15.112
			c3.317,0.406,7.38-6.708,9.646-6.079c4.777,1.326,16.661-0.172,19.985-4.976c1.499-2.164,1.582-5.421,0.729-8.295
			C48.689,14.529,47.628,12.889,46.477,11.662z"/>
		<path style="clip-path:url(#SVGID_2_);fill:#FFCB9E;" d="M30.874,14.851c-8.07,1.528-13.756,12.795-12.275,23.364
			c1.111,7.918,7.398,16.604,16.871,15.949c9.662-0.668,14.472-12.309,13.223-22.044C47.335,21.535,42.174,12.711,30.874,14.851z"/>
		<path style="opacity:0.3;clip-path:url(#SVGID_2_);fill:#BF3C1B;" d="M41.51,16.773c-3.12-0.881-6.346-1.369-9.606-1.424
			c-2.893-0.047-6.033-0.2-8.729,0.95c-1.48,0.633-3.3,1.499-3.854,3.045c-0.454,1.266-0.992,2.942-0.265,4.052
			c1.54,2.353,4.553,0.945,5.692,0.371c2.478-1.246,13.73-0.396,18.979-0.404c2.182-0.003,5.333-0.373,4.428-3.232
			C47.443,17.872,43.569,17.354,41.51,16.773z"/>
		<path style="clip-path:url(#SVGID_2_);fill:#FFCB9E;" d="M15.784,33.812c-3.963,1.06-2.373,6.678,0.863,7.805
			c1.037,0.361,2.14,0.41,3.202,0.338c0.021-0.031,0.041-0.063,0.062-0.096c0.477-0.73-0.188-4.824-0.431-5.596
			C18.87,34.322,17.687,33.304,15.784,33.812z"/>
		<path style="opacity:0.3;clip-path:url(#SVGID_2_);fill:#C94614;" d="M17.174,35.88c-0.89-0.397-3.113,0.319-2.066,2.011
			c0.55-1.568,1.532-0.54,1.382,0.573c-0.099,0.748-0.926,0.758-0.106,1.717c0.446,0.519,1.345,0.327,1.8,0.049
			C19.625,39.346,18.261,36.366,17.174,35.88z"/>
		<path style="clip-path:url(#SVGID_2_);fill:#2B221C;" d="M43.556,11.829c-6.098-3.104-15.467-2.295-20.59,1.398
			c-5.228,3.768-6.559,10.506-6.559,16.529c-0.002,2.073,0.535,3.523,2.168,4.885c1.886,1.572,1.714-3.192,1.888-5.009
			c0.39-4.057,2.104-7.341,6.684-7.504c3.063-0.109,15.051-0.659,17.866,0.277c1.543,0.514,3.595,1.292,3.904-1.093
			c0.336-2.607-0.383-5.318-2.225-7.216C45.808,13.187,44.743,12.434,43.556,11.829z"/>
		<path style="clip-path:url(#SVGID_2_);fill:#45362E;" d="M44.951,12.825c-2.307-2.13-5.532-3.764-8.647-4.045
			c-1.623-0.147-4.888-0.086-6.439,0.578c0.517,0.276,1.86,0.563,2.309,0.914c-2.25,0.509-4.408,1.135-6.528,2.07
			c-0.65,0.286-5.979,3.8-5.978,3.801c1.482,0.782,3.228,0.49,4.826,0.145c2.441-0.528,4.855-0.738,7.313-0.195
			c2.281,0.504,4.333,1.61,6.595,2.123c0.068-0.992-0.908-1.86-1.343-2.533c1.296-0.021,6.258,3.028,7.276,3.832
			c-0.246-0.846-1.449-2.63-1.582-3.531c1.266,0.183,4.136,2.666,5.007,4.1c0.091-1.132-0.021-2.606-0.34-3.597
			C46.947,15.023,46.084,13.873,44.951,12.825z"/>
		<path style="clip-path:url(#SVGID_2_);fill:#F7A286;" d="M42.35,41.385c-1.745,0.17-3.688,0.23-6.15,0.356
			c-2.277,0.117-5.275,0.481-7.794,0.319c-1.834-0.118-2.586,0.088-1.375,1.48c3.484,4.011,5.754,4.35,8.725,4.438
			c4.292,0.125,5.936-1.793,6.546-3.695c0.119-0.368,0.63-1.009,1.229-1.642C44.794,41.305,44.781,41.15,42.35,41.385z"/>
		<path style="clip-path:url(#SVGID_2_);fill:#8F3935;" d="M27.365,42.432c0,0,2.719,4.064,8.055,4.033
			c3.422-0.019,5.651-1.041,6.26-2.455c0.663-1.545,2.108-2.131,2.108-2.131C34.521,44.071,27.365,42.432,27.365,42.432z"/>
		<path style="clip-path:url(#SVGID_2_);fill:#FFF9F0;" d="M29.354,42.754c0,0,0.187,1.244,2.094,1.681
			c2.446,0.563,5.07,0.54,7.771,0.113c1.817-0.286,2.677-2.267,2.677-2.267S36.705,43.48,29.354,42.754z"/>
		<path style="clip-path:url(#SVGID_2_);fill:#FFF9F0;" d="M36.746,44.769c-2.441,0.134-4.47,0.038-5.706-0.615
			c-0.88-0.466-0.95,0.059-0.755,0.382c0,0,0.821,1.69,4.88,1.992c3.901,0.288,5.878-1.801,5.425-2.145
			C40.139,44.041,39.006,44.645,36.746,44.769z"/>
		<path style="clip-path:url(#SVGID_2_);fill:#E8DAC5;" d="M29.354,42.754c0,0,0.146,0.576,0.501,0.867
			c0,0,9.116-0.881,11.313-0.232c0,0,0.631-0.704,0.728-1.107C41.896,42.281,35.536,43.449,29.354,42.754z"/>
		<path style="clip-path:url(#SVGID_2_);fill:#E8DAC5;" d="M31.772,44.389c3.306,1.631,7.199,0.104,7.199,0.104
			C34.865,45.401,31.772,44.389,31.772,44.389z"/>
		<path style="clip-path:url(#SVGID_2_);fill:#FFA073;" d="M47.195,36.73c-0.626-0.894-1.98-1.084-2.949-1.102
			c-1.265-0.023-2.952,0.402-1.839,2.166c0.594,0.939,5.628,1.678,5.058-0.48C47.405,37.092,47.314,36.898,47.195,36.73z"/>
		<path style="clip-path:url(#SVGID_2_);fill:#FFA073;" d="M28.31,36.49c-0.874-0.75-2.304-0.601-3.294-0.375
			c-1.291,0.295-2.891,1.153-1.287,2.664c0.854,0.805,6.169,0.285,5.011-1.763C28.621,36.806,28.476,36.631,28.31,36.49z"/>
		<path style="clip-path:url(#SVGID_2_);fill:#261B18;" d="M26.379,31.304c-2.08-0.87-3.388,2.713-1.97,3.883
			c0.661-0.188,1.442-0.118,2.061,0.171C27.865,34.656,27.927,31.952,26.379,31.304z"/>
		<path style="opacity:0.3;clip-path:url(#SVGID_2_);fill:#B54D26;" d="M36.263,37.748c-1.217,0.016-1.696-0.523-2.548-0.032
			c-0.849,0.489,0.366,2.063,2.517,1.988c2.143-0.073,3.073-1.504,2.626-2.036C38.34,37.049,37.61,37.734,36.263,37.748z"/>
		<path style="clip-path:url(#SVGID_2_);fill:#FFDFC2;" d="M35.943,33.314c-2.282-0.192-2.454,4.493-1.933,4.895
			c1.279,0.982,3.955,0.287,4.732-0.502C39.052,37.395,38.123,33.499,35.943,33.314z"/>
		<path style="clip-path:url(#SVGID_2_);fill:#261B18;" d="M46.4,31.167c-2.113-1.232-3.669,2.73-1.924,3.85
			c0.552-0.355,1.662-0.246,2.201-0.004C47.524,34.102,47.536,31.828,46.4,31.167z"/>
		<path style="opacity:0.7;clip-path:url(#SVGID_2_);fill:#E6D2C3;" d="M25.378,32.182c-0.844,0.278-0.201,1.872,0.622,1.293
			C26.595,33.055,26.129,31.936,25.378,32.182z"/>
		<path style="opacity:0.7;clip-path:url(#SVGID_2_);fill:#E6D2C3;" d="M45.315,31.852c-0.834,0.163-0.436,1.752,0.417,1.302
			C46.349,32.829,46.054,31.709,45.315,31.852z"/>
		<path style="clip-path:url(#SVGID_2_);fill:#2B221C;" d="M28.255,27.63c-1.537-0.13-3.542,0.048-4.935,0.558
			c-2.092,0.766-1.426,1.921-1.2,2.232c0.221,0.309,0.286-0.547,2.692-1.14c2.215-0.543,4.566,0.103,4.806-0.491
			C29.92,28.038,28.999,27.692,28.255,27.63z"/>
		<path style="clip-path:url(#SVGID_2_);fill:#2B221C;" d="M46.997,27.524c-1.431-0.401-3.448-0.363-4.973-0.04
			c-0.737,0.156-1.63,0.645-1.265,1.44c0.288,0.629,2.584-0.36,4.842-0.019c2.451,0.374,2.587,1.313,2.785,0.944
			C48.582,29.48,49.15,28.126,46.997,27.524z"/>
		<path style="clip-path:url(#SVGID_2_);fill:#BCCEEB;" d="M26.371,57.886l-0.342-4.478c-6.615,1.529-8.658,6.934-8.966,12.592
			h6.614C23.678,66,24,59.008,26.371,57.886z"/>
		<path style="clip-path:url(#SVGID_2_);fill:#BCCEEB;" d="M41.535,53.408l-0.342,4.478C43.564,59.008,43.887,66,43.887,66h6.614
			C50.193,60.342,48.15,54.938,41.535,53.408z"/>
	</g>
</g>
<g id="Layer_1">
</g>
</svg>
