<?xml version="1.0" encoding="iso-8859-1"?>
<!-- Generator: Adobe Illustrator 16.0.0, SVG Export Plug-In . SVG Version: 6.00 Build 0)  -->
<!DOCTYPE svg PUBLIC "-//W3C//DTD SVG 1.1//EN" "http://www.w3.org/Graphics/SVG/1.1/DTD/svg11.dtd">
<svg version="1.1" xmlns="http://www.w3.org/2000/svg" xmlns:xlink="http://www.w3.org/1999/xlink" x="0px" y="0px"
	 width="66.006px" height="66px" viewBox="0 0 66.006 66" style="enable-background:new 0 0 66.006 66;" xml:space="preserve">
<g id="Layer_50">
	<g>
		<defs>
			<circle id="SVGID_1_" cx="33.006" cy="33" r="33"/>
		</defs>
		<clipPath id="SVGID_2_">
			<use xlink:href="#SVGID_1_"  style="overflow:visible;"/>
		</clipPath>
		<rect style="clip-path:url(#SVGID_2_);fill:#D6BB40;" width="66" height="65.998"/>
		<path style="clip-path:url(#SVGID_2_);fill:#FFC38F;" d="M29.438,56.423c1.325-1.113,1.128-4.797-0.793-4.123
			c-4.184,1.468-4.151,5.011-6.15,13.698h3.572C27.002,62.148,27.449,58.095,29.438,56.423z"/>
		<path style="clip-path:url(#SVGID_2_);fill:#FFC38F;" d="M38.135,56.423c-1.325-1.113-1.128-4.797,0.793-4.123
			c4.184,1.468,4.151,5.011,6.15,13.698h-3.572C40.571,62.148,40.124,58.095,38.135,56.423z"/>
		<linearGradient id="SVGID_3_" gradientUnits="userSpaceOnUse" x1="33.8911" y1="49.0283" x2="33.8911" y2="55.563">
			<stop  offset="0" style="stop-color:#EE996D"/>
			<stop  offset="0.0163" style="stop-color:#EE9A6E"/>
			<stop  offset="0.3731" style="stop-color:#F8B181"/>
			<stop  offset="0.7088" style="stop-color:#FDBF8D"/>
			<stop  offset="1" style="stop-color:#FFC491"/>
		</linearGradient>
		<path style="clip-path:url(#SVGID_2_);fill:url(#SVGID_3_);" d="M37.256,51.417c-2.135-0.935-0.695-3.484-3.494-3.484
			c-2.757,0-1.515,2.875-3.516,3.632c-4.656,1.76-4.62,4.461-1.864,7.216c2.755,2.753,7.598,3.156,11.38-0.267
			C43.538,55.091,39.393,52.349,37.256,51.417z"/>
		<path style="clip-path:url(#SVGID_2_);fill:#5E4684;" d="M39.614,60.938c1.963-4.396-0.095-6.722-1.128-9.074
			c-0.185-0.156-1.063-0.554-1.257-0.579c0.384,1.724,0.974,5.918-3.339,5.918c-4.361,0-3.936-3.469-3.624-5.795
			c-0.273-0.012-0.685,0.18-0.944,0.435c-1.219,3.704-3.252,4.744-1.382,9.221c0.502,1.197,1.229,3.475,1.087,4.935h9.287
			C38.282,64.321,38.966,62.39,39.614,60.938z"/>
		<path style="opacity:0.1;clip-path:url(#SVGID_2_);" d="M29.833,61.667c0.438,0.735,1.763,0.726,2.801,0.92
			c-0.179,0.024-0.355,0.094-0.544,0.123c1.248,0.343,2.991,0.08,4.234-0.283c0.392-0.117,1.462-0.78,1.671-0.805
			c-1.469,0.167-2.838,0.291-4.323,0.261C32.364,61.857,31.102,61.688,29.833,61.667z"/>
		<path style="clip-path:url(#SVGID_2_);fill:#BBA7DB;" d="M36.892,50.828c-0.253,0.056-0.411,0.307-0.355,0.561
			c0.198,0.878,0.722,3.217-0.27,4.454c-0.473,0.591-1.272,0.891-2.376,0.891c-1.209,0-2.07-0.285-2.559-0.846
			c-0.834-0.958-0.595-2.691-0.403-4.084l0.041-0.297c0.034-0.256-0.146-0.492-0.403-0.526c-0.258-0.032-0.492,0.146-0.527,0.402
			l-0.04,0.293c-0.218,1.581-0.489,3.55,0.626,4.829c0.674,0.774,1.773,1.167,3.266,1.167c1.402,0,2.448-0.418,3.108-1.242
			c1.272-1.59,0.678-4.247,0.453-5.248C37.395,50.929,37.15,50.766,36.892,50.828z"/>
		<path style="clip-path:url(#SVGID_2_);fill:#BBA7DB;" d="M29.137,51.672c-0.246-0.082-0.512,0.054-0.592,0.3
			c-0.3,0.908-0.608,1.624-0.88,2.255c-0.49,1.141-0.879,2.04-0.945,3.372c-0.015,0.258,0.186,0.479,0.444,0.491
			c0.008,0.002,0.016,0.002,0.023,0.002c0.249,0,0.456-0.195,0.469-0.447c0.06-1.161,0.4-1.951,0.87-3.047
			c0.28-0.648,0.597-1.385,0.91-2.333C29.517,52.02,29.383,51.754,29.137,51.672z"/>
		<path style="clip-path:url(#SVGID_2_);fill:#BBA7DB;" d="M39.08,51.973c-0.081-0.247-0.348-0.383-0.593-0.301
			c-0.246,0.082-0.381,0.347-0.299,0.593c0.312,0.949,0.629,1.686,0.907,2.335c0.472,1.095,0.812,1.884,0.87,3.045
			c0.012,0.252,0.219,0.447,0.468,0.447c0.008,0,0.016,0,0.023-0.002c0.259-0.012,0.458-0.232,0.445-0.491
			c-0.066-1.331-0.453-2.23-0.944-3.37C39.687,53.597,39.379,52.881,39.08,51.973z"/>
		<path style="opacity:0.07;clip-path:url(#SVGID_2_);fill:#FFFFFF;" d="M36.904,57.394c-2.125,0.725-4.7,0.435-6.87-0.083
			c-1.249-0.291-1.958,1.068-1.578,2.225c0.503,1.538,3.095,1.928,5.355,1.887c4.453-0.082,6.129-1.675,5.38-3.563
			C38.994,57.349,38.042,57.007,36.904,57.394z"/>
		<path style="clip-path:url(#SVGID_2_);fill:#231E1A;" d="M47.595,14.58c-1.845-2.321-2.423-4.939,0.636-5.1
			c-1.99-1.411-7.604-2.923-13.808-2.603c0.19-0.518,0.056-0.909,0.578-1.333c-2.658,0.344-5.839,0.396-9.234,2.383
			c-1.56,0.914-2.239,2.299-4.032,2.793c-1.789,0.494-2.738,0.809-4.434,1.737c-3.583,1.964-5.533,6.219-5.942,7.496
			c0.695-0.641,2.309-1.046,2.975-0.814c-1.284,2.109-1.449,3.933-0.648,6.046c0.827,2.183-1.443,5.771-0.396,10.362
			c0.89,3.901,6.254,4.763,6.136,8.873c0.001-0.045,3.714-2.172,4.151-2.765c0.798-1.081,0.971-2.406,1.841-3.469
			c2.159-2.639,6.011-3.805,9.35-3.727c2.439,0.057,3.323,1.074,4.774,2.648c0.96,1.042,4.541,2.365,6.742,6.694
			c1.075-1.227,2.159-3.222,2.159-4.76c0.371,0.641,3.291,0.681,4.758,0.032c-1.725-1.335-3.363-5.234-3.323-7.288
			c0.063-3.262,2.566-4.77-0.19-8.69c1.319-0.188,3.391-0.271,4.75-1.736C50.729,21.185,49.761,17.307,47.595,14.58z"/>
		
			<ellipse transform="matrix(-0.0884 -0.9961 0.9961 -0.0884 12.418 88.0476)" style="clip-path:url(#SVGID_2_);fill:#F06799;" cx="46.5" cy="38.341" rx="1.309" ry="1.098"/>
		<path style="clip-path:url(#SVGID_2_);fill:#FFC088;" d="M32.432,15.004c-7.841,0.694-13.866,7.522-13.264,18.377
			s7.599,17.582,15.465,17.825c6.04,0.186,13.353-9.765,12.403-20.594C46.101,19.925,40.271,14.312,32.432,15.004z"/>
		<path style="clip-path:url(#SVGID_2_);fill:#1A1614;" d="M29.051,31.391c-2.058-0.714-3.054,2.918-1.608,3.975
			c0.62-0.231,1.376-0.219,1.989,0.023C30.717,34.599,30.582,31.922,29.051,31.391z"/>
		<path style="clip-path:url(#SVGID_2_);fill:#1A1614;" d="M43.953,31.265c-2.031-1.124-3.787,3.103-1.532,3.682
			c0.543-0.338,1.196-0.346,1.777-0.272C44.967,33.77,45.042,31.869,43.953,31.265z"/>
		<path style="clip-path:url(#SVGID_2_);fill:#FFC088;" d="M16.445,30.519c-3.494,1.584-1.794,7.62,1.155,8.527
			c0.947,0.291,1.935,0.229,2.88,0.039c0.018-0.037,0.035-0.073,0.053-0.112c0.389-0.855-0.555-4.896-0.81-5.722
			C19.083,31.17,18.121,29.759,16.445,30.519z"/>
		<path style="opacity:0.3;clip-path:url(#SVGID_2_);fill:#D14F2E;" d="M18.47,32.636c-0.946-0.511-3.389,0.141-2.336,2.114
			c0.671-1.722,1.688-0.498,1.474,0.742c-0.145,0.834-1.041,0.786-0.196,1.923c0.457,0.614,1.441,0.462,1.946,0.181
			C20.961,36.704,19.624,33.257,18.47,32.636z"/>
		<path style="clip-path:url(#SVGID_2_);fill:#2B241E;" d="M23.529,30.083c0.741-0.376,2.622-0.846,4.778-0.756
			c1.728,0.073,2.563,0.724,2.897-1.202c-1.364,0.318-2.534,0.237-3.917,0.411C26.112,28.685,24.461,29.051,23.529,30.083z"/>
		<path style="clip-path:url(#SVGID_2_);fill:#2B241E;" d="M40.229,28.01c0.343,1.896,1.034,1.191,2.5,1.004
			c1.833-0.236,3.448,0.106,4.091,0.432c-0.824-0.967-2.24-1.221-3.245-1.289C42.393,28.075,41.398,28.236,40.229,28.01z"/>
		<path style="opacity:0.3;clip-path:url(#SVGID_2_);fill:#D14F2E;" d="M36.356,38.123c-0.73,0.065-1.052-0.22-1.537,0.102
			c-0.484,0.321,0.724,1.228,1.622,1.082c1.016-0.163,1.778-1.069,1.478-1.353C37.57,37.623,37.169,38.049,36.356,38.123z"/>
		<path style="clip-path:url(#SVGID_2_);fill:#1A1614;" d="M23.355,32.334c0,0,2.17,2.068,4.688,0.278l-0.294-1.055
			C27.75,31.558,25.768,33.658,23.355,32.334z"/>
		<path style="clip-path:url(#SVGID_2_);fill:#1A1614;" d="M44.008,31.327l-0.316,0.931c2.533,1.803,4.227,0.102,4.227,0.102
			C45.986,33.183,44.008,31.327,44.008,31.327z"/>
		<path style="clip-path:url(#SVGID_2_);fill:#A88686;" d="M28.121,31.997c-0.788,0.334-0.057,1.862,0.69,1.231
			C29.353,32.774,28.823,31.701,28.121,31.997z"/>
		<path style="clip-path:url(#SVGID_2_);fill:#A88686;" d="M42.946,31.687c-0.778,0.182-0.351,1.703,0.437,1.242
			C43.952,32.596,43.639,31.525,42.946,31.687z"/>
		<path style="clip-path:url(#SVGID_2_);fill:#FFA26F;" d="M43.438,36.489c-1.124,0.094-1.98,0.782-1.914,1.538
			s1.03,1.293,2.153,1.201c1.123-0.095,1.979-0.782,1.913-1.537C45.525,36.934,44.562,36.396,43.438,36.489z"/>
		<path style="clip-path:url(#SVGID_2_);fill:#FFA26F;" d="M27.16,36.896c-1.237-0.103-2.298,0.491-2.37,1.324
			c-0.071,0.832,0.872,1.59,2.109,1.69c1.236,0.103,2.298-0.491,2.369-1.324C29.341,37.754,28.396,36.997,27.16,36.896z"/>
		
			<ellipse transform="matrix(-0.0231 -0.9997 0.9997 -0.0231 -19.9188 59.3941)" style="clip-path:url(#SVGID_2_);fill:#F06799;" cx="19.059" cy="39.429" rx="1.309" ry="1.097"/>
		<path style="opacity:0.3;clip-path:url(#SVGID_2_);fill:#BF3C1B;" d="M41.926,15.705c-4.251-0.335-8.72-0.059-12.855,1.001
			c-6.505,1.664-11.531,8.818-10.947,15.562c0.335,3.885,1.652,9.048,6.411,8.754c-0.379-0.56-0.784-1.065-1.101-1.666
			c-1.8-3.421-2.534-9.034-1.221-12.732c0.244,0.058,1.564,0.473,1.535,0.806c0.259-2.859,1.451-3.979,4.034-4.992
			c1.859-0.727,4.365-1.604,6.369-1.682c1.554-0.061,2.993,1.345,4.365,2.036c1.493,0.751,3.196,1.22,4.88,0.98
			c-0.235-0.516-0.515-1.101-0.459-1.665c0.035-0.357,2.124,1.791,2.22,1.92c0.74,1.002,1.34,2.148,1.476,3.403
			c-0.576-3.908-1.176-5.609-1.533-8.334C44.747,16.405,44.197,15.885,41.926,15.705z"/>
		<path style="clip-path:url(#SVGID_2_);fill:#6E7073;" d="M38.116,30.852c-0.842,0.996-0.367,4.283,0.205,5.352
			c0.572,1.072,7.109,1.106,8.522,0.565c1.413-0.54,1.827-4.223,0.798-5.736C46.611,29.52,39.349,29.387,38.116,30.852z
			 M46.699,36.183c-1.117,0.4-7.334,0.372-7.866-0.362c-0.531-0.733-0.759-3.84-0.131-4.552c0.922-1.044,7.394-0.977,8.343,0.059
			C47.991,32.361,47.815,35.781,46.699,36.183z"/>
		<path style="clip-path:url(#SVGID_2_);fill:#6E7073;" d="M23.343,31.321c-1.055,1.049-0.39,4.3,0.521,5.327
			c0.912,1.026,7.955,0.504,9.302-0.107c1.349-0.611,1.305-4.31,0.135-5.761C32.133,29.328,24.892,29.78,23.343,31.321z
			 M32.81,36.028c-1.063,0.434-7.524,0.84-8.342,0.165c-0.815-0.674-1.375-3.786-0.591-4.508c1.152-1.061,7.854-1.434,8.893-0.479
			C33.808,32.158,33.873,35.59,32.81,36.028z"/>
		<path style="clip-path:url(#SVGID_2_);fill:#6E7073;" d="M34.345,32.842c-0.156,0.079-1.114,0.888-0.644,1.101
			c0.118,0.056,1.767-1.417,3.9-0.579c0.271,0.107,0.779,0.68,0.483-0.081C37.57,31.957,35.307,32.352,34.345,32.842z"/>
		<path style="clip-path:url(#SVGID_2_);fill:#6E7073;" d="M21.84,33.232c-0.506-0.044-2.759-0.363-3.007-0.184
			c-0.261,0.193,0.548,0.444,0.91,0.542c0.735,0.194,1.976,0.386,2.725,0.547c1.082,0.231,1.078,0.093,1.013-0.373
			C23.42,33.327,22.74,33.307,21.84,33.232z"/>
		<path style="opacity:0.3;clip-path:url(#SVGID_2_);fill:#FFFFFF;" d="M42.559,30.79c-0.416,0.114-3.268,0.687-2.716,2.008
			c0.363,0.871,7.009,1.389,7.439-0.071C48.159,29.748,43.377,30.566,42.559,30.79z"/>
		<path style="opacity:0.3;clip-path:url(#SVGID_2_);fill:#FFFFFF;" d="M32.272,30.752c-1.088-0.328-3.38-0.115-4.703,0.126
			c-0.473,0.085-2.656,0.473-1.888,1.888c0.784,1.442,6.276,1.596,7.27,0.374C33.922,31.943,32.905,30.944,32.272,30.752z"/>
		<path style="clip-path:url(#SVGID_2_);fill:#FFFFFF;" d="M43.024,31.007c-0.717,0.036-1.202,0.199-1.045,0.558
			c0.312,0.706,4.496,0.824,4.83,0.353C47.141,31.452,44.557,30.936,43.024,31.007z"/>
		<path style="opacity:0.7;clip-path:url(#SVGID_2_);fill:#FFFFFF;" d="M39.85,34.889c-0.444-0.052-0.761,0.026-0.703,0.328
			c0.117,0.595,2.679,1.139,2.937,0.799C42.335,35.683,40.798,34.993,39.85,34.889z"/>
		<path style="clip-path:url(#SVGID_2_);fill:#FFFFFF;" d="M29.242,30.892c-0.703,0.044-1.176,0.205-1.015,0.534
			c0.318,0.648,4.423,0.686,4.742,0.242C33.286,31.232,30.742,30.8,29.242,30.892z"/>
		<path style="opacity:0.7;clip-path:url(#SVGID_2_);fill:#FFFFFF;" d="M25.11,35.114c-0.436-0.04-0.744,0.037-0.682,0.316
			c0.125,0.55,2.646,1.009,2.893,0.689C27.562,35.808,26.042,35.195,25.11,35.114z"/>
		<path style="clip-path:url(#SVGID_2_);fill:#231E1A;" d="M43.304,14.362c-7.573-3.438-15.269-1.349-22.385,2.092
			c-1.546,0.747-2.85,1.951-3.69,3.445c-1.536,2.729-0.204,9.771,1.172,15.436c1.088,4.477,4.736,4.838,4.739,4.838
			c-3.506-4.599-1.466-15.813,0.018-18.206c-0.587,0.946-0.385,2.814,0.342,3.647c-0.021-2.537,2.207-3.41,4.103-4.381
			c2.165-1.106,5.303-2.078,7.734-2.163c0.931,1.722,4.658,3.811,6.654,3.565c-0.622-0.432-0.979-1.301-0.592-1.981
			c1.063,0.462,1.9,0.448,2.826,1.189c0.237,0.189,3.215,2.932,3.218,3.046c-0.056-1.937,0.713-4.998,0.087-6.838
			C46.953,16.356,44.941,15.105,43.304,14.362z"/>
		<path style="clip-path:url(#SVGID_2_);fill:#423631;" d="M47.088,16.307c-1.112-1.341-2.803-4.04-6.065-4.748
			c0.771-0.887,2.672-1.78,4.006-2.236c-1.916-0.662-5.007-1.257-7.354-1.145c-0.979,0.046-2.013,0.624-2.979,0.263
			c-0.308-0.115-1.628-1.045-0.949-2.191c-1.782,0.419-4.063,1.074-5.708,1.874c-1.587,0.77-2.841,2.029-4.397,2.849
			c-2.043,1.074-4,0.757-6.581,2.456c-1.581,1.045-2.582,3.29-3.185,4.041c1.065-0.502,4.111-1.9,5.249-1.703
			c-1.459,3.354-1.232,5.172-4.438,8.268c6.32,0.898,7.611-3.952,9.857-4.689c-0.127,1.061-0.579,2.046-0.636,3.111
			c2.898-3.764,7.38-4.508,11.763-5.069c0.663,1.166,2.821,2.645,4.144,2.999c-0.061-0.956-0.003-1.913,0.281-2.82
			c1.849,0.219,9.183,5.247,10.751,4.001C48.649,21.468,48.601,18.131,47.088,16.307z"/>
		<path style="clip-path:url(#SVGID_2_);fill:#423631;" d="M21.608,23.513c-2.358,1.699-2.679,3.622-3.012,6.423
			c-0.161,1.352-0.159,2.745,0.212,4.065c0.35,1.239,1.024,2.803,2.306,3.719c-0.636-2.086-1.134-6.514-0.764-8.682
			C20.74,26.762,21.205,25.591,21.608,23.513z"/>
		<path style="clip-path:url(#SVGID_2_);fill:#FF5C5C;" d="M26.529,41.044c0.966,1.824,3.261,0.911,2.267-0.952
			C28.419,41.033,27.343,41.429,26.529,41.044z"/>
		<path style="clip-path:url(#SVGID_2_);fill:#FF5C5C;" d="M41.753,39.628c-0.488,1.949,2.018,2.593,2.485,0.686
			C43.538,40.786,42.375,40.514,41.753,39.628z"/>
		<path style="clip-path:url(#SVGID_2_);fill:#FF5C5C;" d="M42.841,40.611c-0.288-0.095-0.595,0.038-0.682,0.298
			c-0.884,2.626-3.609,4.379-6.802,4.394c-3.073,0.016-5.551-1.598-6.582-3.752c-0.122-0.258-0.446-0.387-0.722-0.292
			c-0.277,0.094-0.402,0.382-0.282,0.636c1.184,2.475,3.945,4.32,7.366,4.393c0.096,0.001,0.192,0.003,0.288,0.002
			c3.674-0.018,6.762-2.012,7.783-5.046C43.297,40.986,43.131,40.708,42.841,40.611z"/>
	</g>
</g>
<g id="Layer_1">
</g>
</svg>
