<?xml version="1.0" encoding="iso-8859-1"?>
<!-- Generator: Adobe Illustrator 16.0.0, SVG Export Plug-In . SVG Version: 6.00 Build 0)  -->
<!DOCTYPE svg PUBLIC "-//W3C//DTD SVG 1.1//EN" "http://www.w3.org/Graphics/SVG/1.1/DTD/svg11.dtd">
<svg version="1.1" xmlns="http://www.w3.org/2000/svg" xmlns:xlink="http://www.w3.org/1999/xlink" x="0px" y="0px"
	 width="66.005px" height="66px" viewBox="0 0 66.005 66" style="enable-background:new 0 0 66.005 66;" xml:space="preserve">
<g id="Layer_57">
	<g>
		<defs>
			<circle id="SVGID_1_" cx="33.005" cy="33" r="33"/>
		</defs>
		<clipPath id="SVGID_2_">
			<use xlink:href="#SVGID_1_"  style="overflow:visible;"/>
		</clipPath>
		<rect style="clip-path:url(#SVGID_2_);fill:#A6C4DD;" width="66" height="65.999"/>
		<path style="clip-path:url(#SVGID_2_);fill:#FFD1E2;" d="M25.113,60.458c0.986-0.577,3.711-6.264,2.716-6.302
			c-3.444-0.134-9.773,6.12-9.327,11.843h3.643C21.684,63.805,23.152,61.606,25.113,60.458z"/>
		<path style="clip-path:url(#SVGID_2_);fill:#F06799;" d="M27.989,53.591c-3.487,0.883-7.798,3.519-9.707,8.322
			c1.433,1.155,2.968,2.145,4.695,2.552c0.538-1.766,1.949-3.287,3.499-4.195C27.506,59.666,28.997,53.335,27.989,53.591z"/>
		<path style="clip-path:url(#SVGID_2_);fill:#FFD1E2;" d="M40.016,54.156c-0.995,0.038,1.729,5.725,2.715,6.302
			c1.961,1.148,3.43,3.347,2.969,5.541h3.643C49.788,60.276,43.459,54.022,40.016,54.156z"/>
		<path style="clip-path:url(#SVGID_2_);fill:#F06799;" d="M39.855,53.591c-1.007-0.256,0.483,6.075,1.513,6.679
			c1.55,0.908,2.961,2.43,3.499,4.195c1.728-0.407,3.262-1.396,4.695-2.552C47.652,57.109,43.343,54.474,39.855,53.591z"/>
		<path style="clip-path:url(#SVGID_2_);fill:#DE3E78;" d="M42.602,64.655c1.702-2.74,2.201-8.704-1.627-10.758
			c-2.918-1.565-10.626-2.517-13.846,0c-3.519,2.75-2.718,7.148-1.754,11.321c0.063,0.273,0.142,0.53,0.226,0.78h16.192
			C42.039,65.556,42.316,65.114,42.602,64.655z"/>
		<path style="clip-path:url(#SVGID_2_);fill:#FFD1E2;" d="M28.506,53.878c-0.142,0.56,0.017,1.126,0.357,1.673
			c2.457,3.933,9.178,3.8,11.045-0.25c0.289-0.627,0.318-1.283-0.078-1.934C38.175,50.642,29.332,50.631,28.506,53.878z"/>
		<path style="clip-path:url(#SVGID_2_);fill:#F06799;" d="M39.688,58.618c-1.902,1.834-8.133,1.799-10.405-0.692
			c-1.281-1.405-2.656,1.409-2.137,3.376c0.688,2.61,4.404,3.402,7.649,3.444c6.403,0.084,8.55-2.788,7.518-6.007
			C42.037,57.876,40.957,57.396,39.688,58.618z"/>
		<path style="clip-path:url(#SVGID_2_);fill:#EB8449;" d="M34.321,48.812c-1.896-0.004-4.567,1.096-4.757,3.984
			c-0.089,1.345,0.112,2.124,0.813,2.87c1.962,2.089,6.054,1.952,7.887,0c0.701-0.746,0.902-1.525,0.814-2.87
			C38.887,49.907,36.216,48.808,34.321,48.812z"/>
		<path style="clip-path:url(#SVGID_2_);fill:#FDD281;" d="M16.714,19.261c-2.796,7.054-3.111,12.533-5.102,23.716
			c-0.504,2.832-2.348,7.176-1.599,8.912c1.049,2.434,3.823,1.08,6.082,1.845c2.438,0.827,5.138,2.006,5.764-1.44
			c0.238,0.663,0.28,1.413,0.234,2.103c1.901,0.069,8.447-1.911,12.844-1.681c3.913,0.205,11.984,3.86,13.69-0.621
			c1.271-3.343,2.667-18.178,2.202-23.04c-0.029-0.301,1.172-0.693,1.211-0.949c0.131-0.862,0.212-1.474,0.229-1.716
			C53.57,7.079,23.682,1.685,16.714,19.261z"/>
		<path style="clip-path:url(#SVGID_2_);fill:#FFA763;" d="M32.196,16.888c-7.625,1.253-13.292,11.993-12.203,22.261
			c0.807,7.618,7.621,15.288,15.005,15.498c7.815,0.221,14.296-11.506,13.441-20.554C47.469,23.815,42.873,15.135,32.196,16.888z"/>
		<path style="opacity:0.2;clip-path:url(#SVGID_2_);fill:#C4170E;" d="M45.43,20.131c-4.079-1.764-8.056-2.826-12.578-3.074
			c-2.765-0.152-6.479-0.438-9.103,0.604c-3.926,1.557-5.671,4.063-6.323,7.966c-0.444,2.654,2.157,5.276,4.16,6.997
			c1.501-1.381,0.868-3.327,0.877-5.008c0.293,1.924,1.876,1.411,3.529,1.537c1.472,0.113,3.98,0.827,5.344,0.139
			c0.614-0.311,0.733-0.743,0.982-1.382c0.225,0.304,0.498,0.521,0.803,0.679c0.977,0.503,2.279,0.384,3.371,0.462
			c1.613,0.114,3.314,0.334,4.89-0.155c0.688-0.214,1.097-0.4,1.319-1.168c0.219,1.635,2.686,1.424,4.027,1.417
			C52.551,29.118,48.609,21.504,45.43,20.131z"/>
		<path style="clip-path:url(#SVGID_2_);fill:#FFA763;" d="M17.475,34.811c-3.753,0.914-2.422,6.392,0.586,7.574
			c0.966,0.378,1.999,0.456,2.998,0.416c0.019-0.03,0.042-0.06,0.063-0.09c0.468-0.693-0.039-4.674-0.246-5.427
			C20.359,35.39,19.275,34.371,17.475,34.811z"/>
		<path style="opacity:0.5;clip-path:url(#SVGID_2_);fill:#B54319;" d="M18.721,36.849c-0.825-0.409-2.933,0.222-2.001,1.887
			c0.564-1.501,1.457-0.479,1.283,0.594c-0.115,0.721-0.892,0.707-0.148,1.658c0.402,0.514,1.253,0.354,1.688,0.099
			C20.923,40.271,19.729,37.35,18.721,36.849z"/>
		<path style="clip-path:url(#SVGID_2_);fill:#FDD281;" d="M32.134,25.585c0.006,0.017,0.013,0.04,0.019,0.059
			c0.003-0.012,0.007-0.022,0.01-0.034C32.152,25.564,32.143,25.556,32.134,25.585z"/>
		<path style="clip-path:url(#SVGID_2_);fill:#FDD281;" d="M43.273,15.115c-4.087-3.679-9.548-3.812-14.73-3.074
			c-1.986,0.281-4.814,0.698-6.609,1.633c-1.564,0.814-2.236,2.82-2.992,4.332c-1.352,2.703-1.849,6.011-2.183,8.98
			c-0.181,1.598,0.402,3.255,0.519,4.863c0.112,1.57,0.77,2.933,1.021,4.479c0.384,2.357,0.161,4.744-0.652,6.99
			c-0.343,0.946-1.123,1.713-0.45,2.586c0.527,0.688,1.853,1.028,2.451,0.436c0.501-0.499,1.565-4.67,1.804-5.738
			c0.585-2.627,0.603-5.701,0.58-8.371c-0.023-2.519,0.134-5.103,1.039-7.473c-0.113,1.018,0.248,2.36,0.283,3.438
			c2.572-0.234,5.302,0.057,7.879,0.03c0.437-0.809,0.729-1.693,0.921-2.584c-0.006-0.019-0.013-0.042-0.019-0.059
			c0.009-0.029,0.019-0.021,0.028,0.024c-0.003,0.012-0.007,0.022-0.01,0.034c0.158,0.471,0.306,1.491,0.632,1.769
			c0.604,0.515,2.408,0.262,3.154,0.332c1.403,0.134,3.775,0.698,5.14,0.154c0.881-0.353,1.036-1.163,1.281-2.058
			c-0.001-0.002-0.001-0.004-0.002-0.005c-0.005-0.051-0.004-0.052,0.004-0.003c-0.001,0.003-0.001,0.005-0.002,0.008
			c0.26,0.47,0.358,1.288,0.79,1.517c0.504,0.268,1.931,0.493,2.538,0.532c0.708,0.044,2.338,0.147,3.053,0.036
			c2.032-0.315,0.685-3.934,0.191-5.237C47.822,19.757,45.432,17.058,43.273,15.115z"/>
		<path style="clip-path:url(#SVGID_2_);fill:#FDD281;" d="M42.357,25.836c0.001,0.001,0.001,0.003,0.002,0.005
			c0.001-0.003,0.001-0.005,0.002-0.008C42.354,25.784,42.353,25.785,42.357,25.836z"/>
		<path style="clip-path:url(#SVGID_2_);fill:#FFEBBD;" d="M31.124,10.224c-3.917,0.299-9.549,3.268-11.386,6.732
			c-4.148,7.826-5.903,16.594-6.481,25.346c-0.147,2.214-1.526,5.562-1.454,7.596c0.067,1.877,0.967,1.94,2.491,0.921
			c1.991-1.329,0.037-8.629,0.529-13.126c0.387-3.536,3.315-3.62,4.421-8.273c0.928,6.317-0.297,14.524-2.886,21.338
			c8.663-13.683,2.374-21.088,6.967-30.287c1.824,2.15,5.121,2.89,7.948,1.802c2.514-0.969,6.004-1.049,8.559,0.005
			c3.354,1.384,6.501,2.117,10.795,0.423C48.848,12.732,38.229,9.682,31.124,10.224z"/>
		<path style="opacity:0.4;clip-path:url(#SVGID_2_);fill:#D14F2E;" d="M35.836,36.687c-0.783,0.001-1.099-0.331-1.645-0.035
			c-0.545,0.296,0.654,1.373,1.624,1.304c1.097-0.08,1.991-0.973,1.699-1.303C37.174,36.269,36.708,36.685,35.836,36.687z"/>
		<path style="clip-path:url(#SVGID_2_);fill:#FF7752;" d="M47.547,35.41c-0.662-0.888-1.977-1.115-2.909-1.164
			c-1.217-0.063-2.808,0.298-1.619,2.047c0.633,0.932,5.52,1.81,4.827-0.306C47.771,35.77,47.672,35.577,47.547,35.41z"/>
		<path style="clip-path:url(#SVGID_2_);fill:#FF7752;" d="M27.978,35.277c-1.006-0.535-2.33-0.08-3.223,0.354
			c-1.164,0.567-2.493,1.745-0.622,2.856c0.996,0.591,5.941-1.07,4.373-2.798C28.345,35.513,28.167,35.377,27.978,35.277z"/>
		<path style="opacity:0.35;clip-path:url(#SVGID_2_);fill:#C4170E;" d="M45.45,38.123c-0.001-0.02-0.001-0.032-0.001-0.033
			c-0.018,0.007-0.035,0.012-0.053,0.02c-1.578-0.409-2.64-1.405-2.64-1.405s0.003,1.183,1.091,1.969
			c-7.503,2.544-14.004,1.795-16.753,1.271c1.095-0.818,1.314-1.935,1.314-1.935s-2.454,2.103-5.238,1.805
			c0,0,1.009,1.025,2.453,0.786c-0.085,2.753,0.199,10.76,9.594,10.635c8.708-0.115,10.128-8.877,10.233-11.994
			c1.344,0.035,2.188-1.047,2.188-1.047C46.848,38.35,46.107,38.285,45.45,38.123z"/>
		<path style="clip-path:url(#SVGID_2_);fill:#8F1C18;" d="M26.511,40.158c0,0-1.092,10.363,8.802,9.902
			c10.202-0.477,9.215-11.157,9.215-11.157C35.372,42.715,26.511,40.158,26.511,40.158z"/>
		<path style="clip-path:url(#SVGID_2_);fill:#FFF9F0;" d="M27.238,40.965c0,0,0.079,2.869,2.102,2.658
			c3.934-0.41,8.378-0.439,12.846-0.394c1.127,0.011,1.651-3.252,1.651-3.252C40.123,40.977,31.869,41.443,27.238,40.965z"/>
		<path style="clip-path:url(#SVGID_2_);fill:#E8DAC5;" d="M27.238,40.965c0,0,0.038,1.365,0.726,2.143
			c4.692-1.953,10.271-2.139,15.235-0.895c0.432-0.954,0.638-2.235,0.638-2.235C40.123,40.977,31.869,41.443,27.238,40.965z"/>
		<path style="clip-path:url(#SVGID_2_);fill:#FFF9F0;" d="M39.764,47.387c-1.208,0.439-3.427,0.782-5.997,0.807
			c-2.572,0.026-3.383-0.627-3.847-0.165c-0.461,0.463,1.523,2.414,5.626,2.055c4.69-0.41,5.434-2.145,5.434-2.145
			C41.171,47.51,40.769,47.02,39.764,47.387z"/>
		<path style="clip-path:url(#SVGID_2_);fill:#E8DAC5;" d="M30.65,48.055c0,0,4.728,2.344,9.121-0.422
			C39.771,47.633,35.534,48.96,30.65,48.055z"/>
		<path style="clip-path:url(#SVGID_2_);fill:#121B21;" d="M23.002,34.203c0.055-0.016,0.923-0.113,0.914-0.086
			c-0.047,0.163-0.137,0.312-0.229,0.464c0.303-0.076,0.586-0.208,0.881-0.296c1.846-0.548,3.835-0.299,5.736-0.341
			c-0.205-0.218-0.512-0.301-0.789-0.379c0.185-0.066,1.168-0.127,1.313,0.003C28.615,31.571,24.95,32.929,23.002,34.203z"/>
		<path style="clip-path:url(#SVGID_2_);fill:#121B21;" d="M45.818,32.391c-0.249-0.116-0.51-0.207-0.778-0.275
			c-0.891-0.227-1.865-0.216-2.722-0.117c-0.393,0.045-0.859,0.134-1.2,0.299c-0.353,0.17-0.944,0.674-0.884,1.071
			c0.1-0.044,0.859-0.217,0.891-0.272c-0.063,0.111-0.091,0.251-0.163,0.37c0.316-0.107,0.615-0.236,0.938-0.323
			c0.742-0.202,1.537-0.195,2.307-0.182c0.761,0.013,1.539,0.486,2.27,0.423c-0.086-0.068-0.543-0.512-0.633-0.512
			c0.253,0.002,0.506,0.033,0.758,0.05C46.451,32.686,46.082,32.515,45.818,32.391z"/>
		<path style="clip-path:url(#SVGID_2_);fill:#121B21;" d="M45.244,31.444c-2.748-1.124-4.599,1.182-4.599,1.182
			s2.938-0.826,4.289-0.07c3.142,1.758,5.472,0.279,5.472,0.279C47.817,33.348,46.098,31.794,45.244,31.444z"/>
		<path style="clip-path:url(#SVGID_2_);fill:#121B21;" d="M25.254,32.307c-0.863,0.326-2.549,1.937-5.144,1.458
			c0,0,2.349,1.447,5.469-0.351c1.34-0.773,5.249,0.154,5.249,0.154S28.422,31.105,25.254,32.307z"/>
		<path style="clip-path:url(#SVGID_2_);fill:#5E3C27;" d="M44.102,28.172c-2.91-0.346-3.072,2.318-3.072,2.318
			s0.693-1.022,3.068-0.732c2.377,0.291,3.555,2.187,3.555,2.187S47.012,28.519,44.102,28.172z"/>
		<path style="clip-path:url(#SVGID_2_);fill:#5E3C27;" d="M26.739,28.299c-2.907,0.369-3.522,3.798-3.522,3.798
			s1.163-1.903,3.536-2.213c2.375-0.308,3.077,0.708,3.077,0.708S29.647,27.93,26.739,28.299z"/>
	</g>
</g>
<g id="Layer_1">
</g>
</svg>
