<?xml version="1.0" encoding="iso-8859-1"?>
<!-- Generator: Adobe Illustrator 16.0.0, SVG Export Plug-In . SVG Version: 6.00 Build 0)  -->
<!DOCTYPE svg PUBLIC "-//W3C//DTD SVG 1.1//EN" "http://www.w3.org/Graphics/SVG/1.1/DTD/svg11.dtd">
<svg version="1.1" xmlns="http://www.w3.org/2000/svg" xmlns:xlink="http://www.w3.org/1999/xlink" x="0px" y="0px"
	 width="66.002px" height="66px" viewBox="0 0 66.002 66" style="enable-background:new 0 0 66.002 66;" xml:space="preserve">
<g id="Layer_83">
	<g>
		<defs>
			<circle id="SVGID_1_" cx="33.002" cy="33" r="33"/>
		</defs>
		<clipPath id="SVGID_2_">
			<use xlink:href="#SVGID_1_"  style="overflow:visible;"/>
		</clipPath>
		<rect style="clip-path:url(#SVGID_2_);fill:#FFFFFF;" width="66" height="65.998"/>
		<path style="clip-path:url(#SVGID_2_);fill:#912907;" d="M52.823,34.154c2.464-0.095,0.087,3.827-1.293,0.878
			c-1.311-2.808,2.22-3.302,1.464-6.383c-0.485-1.978-1.362-2.074-2.018-4.089c-1.604-4.932-3.158-10.835-6.933-14.538
			C38.61,4.694,14.979,3.942,11.772,23.55c-0.263,1.603,1.408,12.039,1.303,14.308c-0.088,1.897-1.238,1.791-0.298,3.64
			c0.896,1.763,2.7,0.798,0.729,3.974c-1.806,2.908-5.341-0.531-3.127-1.001c-2.44-1.188-3.462,1.976-3.101,3.868
			c0.501,2.629,4.187,2.685,6.167,2.146c-5.162,9.453,12.431,6.744,16.467,8.417c3.8,1.577,5.783,3.697,9.729,1.838
			c2.011-0.945,7.772-3.196,6.735-6.463c1.168,3.682,6.157,3.102,5.896-0.476c-1.717,0.581-1.943-1.05-0.664-3.555
			c0.536-1.051,0.615-2.195,0.259-3.335c-0.411-1.313-0.8-1.407,0.387-2.413c1.548-1.313,1.99-3.057-0.277-4.285
			c0.839,0.453,1.764,0.444,2.623,0.05C57.81,38.793,56.451,31.938,52.823,34.154z"/>
		<path style="clip-path:url(#SVGID_2_);fill:#801A00;" d="M49.63,34.241c-0.955-2.773-5.237-2.578-7.562-2.563
			c-3.297,0.025-6.647,0.053-9.883,0.759c-1.496,0.326-2.711,0.735-3.946,1.596c-0.874,0.606-2.138,1.89-3.307,1.767
			c-0.576-0.062-0.318-0.38-0.764-0.57c-0.749-0.321-1.721-1.121-2.537-1.254c-1.883-0.31-4.439,1.279-4.895,3.151
			c-0.46,1.907,0.569,3.724,1.304,5.362c1.57,3.498,0.564,7.116-2.179,9.669c-1.414,1.316-1.843,2.386,0.179,3.697
			c3.274,2.121,9.531,1.471,13.233,1.467c3.824-0.005,10.105,0.506,13.864-0.294c2.416-0.516,3.248-1.24,2.874-4.737
			c0.705,0.878,1.655,2.315,2.951,2.311c-1.223-2.304,0.012-4.937,0.334-7.311c0.351-2.58-0.111-5.178,0.003-7.778
			C49.372,37.879,50.178,35.835,49.63,34.241z"/>
		<path style="clip-path:url(#SVGID_2_);fill:#D4557D;" d="M26.845,57.904l-1.198-3.548c-2.773,1.191-3.986,4.052-4.629,6.938
			c-0.303,1.365-0.639,2.817-1.236,4.703h4.816C25.245,63.159,26.204,58.229,26.845,57.904z"/>
		<path style="clip-path:url(#SVGID_2_);fill:#D4557D;" d="M42.973,54.356l-1.199,3.548c0.642,0.325,1.601,5.255,2.247,8.094h4.816
			c-0.598-1.886-0.933-3.338-1.236-4.703C46.958,58.408,45.746,55.548,42.973,54.356z"/>
		<path style="clip-path:url(#SVGID_2_);fill:#D4557D;" d="M42.973,54.356c-0.856-0.427-2.774-0.986-3.435-1.446
			c-2.04-1.431-6.243-1.45-11.196,0.396c-0.464,0.174-1.938,0.729-2.444,0.931c-2.17,0.861-0.238,3.119-0.723,5.239
			c-0.143,0.62-0.434,1.45-0.526,2.087c-0.267,1.837,0.186,3.321,1.157,4.435h16.887c0.623-0.696,1.024-1.537,1.191-2.534
			C44.095,62.201,43.996,54.867,42.973,54.356z"/>
		<path style="clip-path:url(#SVGID_2_);fill:#53525C;" d="M44.034,63.306c-2.519,0.019-2.064-9.438-2.064-9.438l-2.29-0.941
			c0.731,4.203-0.027,8.094-0.027,8.094c-6.662,0.988-10.849-0.119-10.849-0.119c-0.087-5.653,0.583-8.056,0.583-8.056l-2.366,0.793
			c0.583,10.765-2.507,9.531-2.507,9.531c0.135,0.799,0.401,1.803,0.733,2.828h17.866C43.537,64.869,44.125,63.304,44.034,63.306z"
			/>
		<path style="clip-path:url(#SVGID_2_);fill:#41404A;" d="M29.391,63.531c0,0,4.387,0.869,9.363-0.28
			C38.754,63.251,31.479,63.649,29.391,63.531z"/>
		<path style="clip-path:url(#SVGID_2_);fill:#8A8899;" d="M29.255,63.475c-0.031-0.004-0.164,1.251-0.194,1.331
			c0.593,0.074,1.149,0.213,1.754,0.277c1.725,0.188,3.646,0.257,5.358,0.107c0.79-0.069,1.834-0.183,2.333-0.579
			c0.32-0.255,0.179-1.378,0.424-1.44C38.894,63.182,34.416,64.308,29.255,63.475z"/>
		<ellipse style="clip-path:url(#SVGID_2_);fill:#D7DCDE;" cx="27.277" cy="62.31" rx="0.726" ry="0.847"/>
		<ellipse style="clip-path:url(#SVGID_2_);fill:#D7DCDE;" cx="41.051" cy="62.526" rx="0.725" ry="0.846"/>
		<polygon style="clip-path:url(#SVGID_2_);fill:#41404A;" points="28.577,63.314 26.923,64.527 25.763,62.969 25.726,63.088 
			26.866,65.066 28.852,63.585 28.841,60.938 		"/>
		<polygon style="clip-path:url(#SVGID_2_);fill:#41404A;" points="39.762,63.759 39.669,61.037 39.491,63.966 41.409,65.368 
			42.943,63.005 41.318,64.754 		"/>
		<path style="clip-path:url(#SVGID_2_);fill:#F29661;" d="M34.229,46.963c-1.38-0.3-3.099-0.036-3.89,1.714
			c-0.387,0.853-0.378,2.576-0.409,3.614c-0.141,4.829,6.341,5.824,8.074,1.745C39.546,50.409,36.795,47.52,34.229,46.963z"/>
		<path style="clip-path:url(#SVGID_2_);fill:#F5AEC4;" d="M37.722,53.453c-0.68,2.067-2.777,3.005-5.169,2.265
			c-1.22-0.379-1.904-1.996-1.993-3.151c-0.063-0.796-0.342-2.207-0.853-0.475c-0.453,1.533,0.21,3.333,1.398,4.224
			c2.568,1.928,6.863,0.8,7.431-1.904c0.192-0.91,0.087-2.61-0.124-2.871C37.906,50.909,37.837,53.105,37.722,53.453z"/>
		<path style="clip-path:url(#SVGID_2_);fill:#FAB077;" d="M32.546,17.35c-8.067,1.03-14.466,7.526-13.407,18.707
			c1.059,11.184,8.604,17.931,16.737,17.864c6.244-0.053,13.775-10.258,13.357-21.806C48.831,21.036,40.61,16.317,32.546,17.35z"/>
		<path style="clip-path:url(#SVGID_2_);fill:#591702;" d="M46.075,27.458c-1.245-0.209-3.81,0.305-3.351,2.172
			c0.14,0.576,0.443,0.622,0.855,0.34c0.313-0.213,0.422-0.854,0.722-1.135c1.479-1.393,3.948-0.012,4.686,1.463
			C48.531,28.448,47.256,27.654,46.075,27.458z"/>
		<path style="clip-path:url(#SVGID_2_);fill:#591702;" d="M25.316,28.432c-1.298,0.369-2.579,1.346-2.712,3.246
			c0.53-1.57,3.041-3.308,5.007-2.146c0.398,0.236,0.654,0.853,1.055,1.018c0.524,0.218,0.859,0.128,0.899-0.463
			C29.697,28.169,26.685,28.038,25.316,28.432z"/>
		<path style="clip-path:url(#SVGID_2_);fill:#F59A62;" d="M47.66,37.311c-0.479-0.913-1.7-1.159-2.588-1.222
			c-1.158-0.08-2.747,0.268-1.912,2.065c0.443,0.955,4.981,1.91,4.686-0.253C47.816,37.68,47.752,37.482,47.66,37.311z"/>
		<path style="clip-path:url(#SVGID_2_);fill:#F59A62;" d="M27.613,37.095c-0.902-0.607-2.185-0.264-3.057,0.094
			c-1.139,0.468-2.479,1.524-0.808,2.77c0.891,0.661,5.666-0.585,4.328-2.414C27.939,37.356,27.782,37.207,27.613,37.095z"/>
		<path style="clip-path:url(#SVGID_2_);fill:#283B21;" d="M27.234,31.631c-2.092-0.771-3.296,2.975-1.567,4.32
			c0.596-0.424,1.25-0.477,1.873-0.215C28.875,34.955,28.792,32.209,27.234,31.631z"/>
		<path style="opacity:0.3;clip-path:url(#SVGID_2_);fill:#C90B00;" d="M36.224,41.944c-1.505,0.104-3.018,0.112-4.521-0.025
			c-1.007-0.092-2.996-0.64-4.092-1.412c0.348,1.139,0.801,2.21,1.288,3.078c0.447,0.798,1.021,1.598,1.645,2.265
			c1.567,1.68,3.601,2.786,5.943,2.764c4.246-0.043,4.805-2.69,4.945-4.689c0.087-1.222,1.317-2.053,1.901-3.15
			c0.14-0.26,0.241-0.534,0.283-0.833c-0.929,0.629-2.071,1.259-3.18,1.466C39.044,41.664,37.636,41.848,36.224,41.944z"/>
		<path style="clip-path:url(#SVGID_2_);fill:#8F2F2B;" d="M29.048,42.067c0,0,1.9,4.907,6.928,4.625
			c4.527-0.252,5.036-1.952,5.217-3.142c0.243-1.589,1.457-2.241,1.457-2.241C35.448,44.456,29.048,42.067,29.048,42.067z"/>
		<path style="clip-path:url(#SVGID_2_);fill:#FFF2DE;" d="M30.707,42.538c0,0,0.08,1.604,1.641,2.173
			c2,0.729,4.228,0.76,6.49,0.106c1.524-0.439,2.367-2.894,2.367-2.894S36.879,43.509,30.707,42.538z"/>
		<path style="clip-path:url(#SVGID_2_);fill:#FFF2DE;" d="M37.061,44.875c-2.15,0.083-4.008-0.148-5.021-0.518
			c-0.844-0.305-0.845,0.151-0.681,0.552c0,0,0.299,1.648,4.226,1.841c3.433,0.169,4.892-1.962,4.502-2.384
			C39.696,43.945,39.212,44.791,37.061,44.875z"/>
		<path style="clip-path:url(#SVGID_2_);fill:#E8D3B5;" d="M30.697,42.517c0,0,0.082,0.896,0.417,1.254c0,0,7.667-1.148,9.483-0.557
			c0,0,0.526-0.902,0.607-1.29C41.205,41.924,35.78,43.523,30.697,42.517z"/>
		<path style="clip-path:url(#SVGID_2_);fill:#E8D3B5;" d="M32.487,44.357c3.409,1.501,7.126-0.064,7.126-0.064
			C35.44,45.239,32.487,44.357,32.487,44.357z"/>
		<path style="opacity:0.3;clip-path:url(#SVGID_2_);fill:#BF3C1B;" d="M36.671,38.17c-1.113,0.055-1.616-0.323-2.343,0.071
			c-0.726,0.391,0.47,1.823,2.437,1.69c1.96-0.135,2.754-1.542,2.283-1.918C38.501,37.578,37.908,38.107,36.671,38.17z"/>
		<path style="clip-path:url(#SVGID_2_);fill:#283B21;" d="M46.743,31.063c-2.157-1.316-3.795,2.996-1.672,3.92
			c0.649-0.201,1.435-0.07,1.934,0.285C48.001,34.435,47.9,31.769,46.743,31.063z"/>
		<path style="clip-path:url(#SVGID_2_);fill:#82A375;" d="M26.884,32.543c-0.877,0.021-0.757,1.754,0.191,1.436
			C27.763,33.746,27.664,32.525,26.884,32.543z"/>
		<path style="clip-path:url(#SVGID_2_);fill:#82A375;" d="M45.941,32.03c-0.862-0.023-0.849,1.695,0.102,1.428
			C46.729,33.263,46.707,32.051,45.941,32.03z"/>
		<path style="clip-path:url(#SVGID_2_);fill:#FAB077;" d="M15.619,31.448c-3.857,1.363-2.173,6.95,1.023,7.862
			c1.025,0.292,2.105,0.262,3.143,0.112c0.021-0.034,0.039-0.068,0.061-0.103c0.448-0.775-0.468-4.511-0.723-5.276
			C18.482,32.117,17.471,30.792,15.619,31.448z"/>
		<path style="opacity:0.2;clip-path:url(#SVGID_2_);fill:#A61900;" d="M42.033,16.79c-4.345-0.463-8.931-0.3-13.195,0.667
			c-2.953,0.671-6.066,1.897-7.771,4.544c-1.215,1.887-3.274,3.955-3.552,6.286c-0.261,2.182,1.212,3.844,2.117,5.661
			c1.148,2.299,0.101,4.063,0.174,6.369c0.049,1.505,0.789,1.79,2.203,1.838c-2.285-2.215-0.158-4.861,0.263-7.33
			c0.227-1.318-0.315-2.499-0.304-3.852c0.003-0.307,0.022-0.614,0.057-0.917c0.134-1.196,0.483-2.365,0.827-3.513
			c-0.467,4.124,5.505,1.865,7.185,1.198c0.559-0.221,1.14-0.444,1.737-0.318c-2.018,2.081,0.942,5.69,3.405,5.69
			c4.002,0,5.016-1.659,6.69-3.944c0.954-1.302,2.247-2.193,3.77-2.384c1.033-0.128,3.186,0.583,3.62-0.639
			c0.646-1.825-0.157-5.308-1.071-6.975C47.065,17.132,44.081,17.008,42.033,16.79z"/>
		<path style="opacity:0.3;clip-path:url(#SVGID_2_);fill:#BF3C1B;" d="M18.027,33.533c-1.02-0.494-3.704,0.039-2.61,1.88
			c0.781-1.563,1.857-0.412,1.589,0.721c-0.183,0.762-1.16,0.695-0.269,1.761c0.481,0.577,1.561,0.464,2.12,0.218
			C20.633,37.336,19.271,34.134,18.027,33.533z"/>
		<path style="clip-path:url(#SVGID_2_);fill:#912907;" d="M36.677,11.581c-1.656-0.146-3.215-0.637-4.905-0.592
			c-2.819,0.073-5.546,1.027-8.034,2.352c-3.699,1.973-6.089,6.442-7.17,10.411c-0.63,2.317-0.962,4.921-0.46,7.295
			c0.451,2.117,3.197,2.917,3.358,5.102c0.073,0.979-0.791,1.714-0.769,2.651c0.019,0.771,0.38,1.606,0.938,2.106
			c0.491,0.44,1.624,0.596,2.316,0.698c-1.528-1.677-0.052-2.653,0.087-4.294c0.096-1.125-0.151-3.298-0.564-4.37
			c-1.081-2.81-0.429-6.035,2.011-7.871c0.244,3.013,3.321,2.891,5.523,2.457c0.989-0.197,3.868-1.359,4.375,0.138
			c0.313,0.936-1.181,1.747-1.524,0.676c-0.029,1.593,0.054,2.904,1.957,3.31c2.865,0.612,5.192-0.403,6.711-2.883
			c0.617-1.004,1.222-1.613,1.929-1.984c0.857-0.452,1.868-0.551,3.229-0.578c2.51-0.053,3.378-1.874,3.264-4.271
			C48.638,15.427,42.432,12.089,36.677,11.581z"/>
		<path style="clip-path:url(#SVGID_2_);fill:#FFBE8A;" d="M36.654,38.992c1.622-0.091,3.45-0.527,1.98-2.471
			C36.07,33.128,31.08,39.302,36.654,38.992z"/>
		<path style="clip-path:url(#SVGID_2_);fill:#1F1A17;" d="M25.784,31.682c-0.603,0.442-1.963,1.691-4.084,1.433
			c0,0,2.205,1.36,4.401-0.555c0.964-0.839,2.017-0.175,2.017-0.175S27.355,30.528,25.784,31.682z"/>
		<path style="clip-path:url(#SVGID_2_);fill:#1F1A17;" d="M46.962,31.17c-1.569-1.152-2.509,0.707-2.509,0.707
			s1.053-0.665,2.015,0.176c2.196,1.919,4.402,0.56,4.402,0.56C48.748,32.869,47.563,31.615,46.962,31.17z"/>
		<path style="clip-path:url(#SVGID_2_);fill:#F7985C;" d="M35.83,34.53c-0.459,0.083-0.8,0.403-0.758,0.716
			c0.04,0.313,0.448,0.499,0.908,0.416c0.46-0.082,0.801-0.403,0.758-0.717C36.697,34.633,36.29,34.446,35.83,34.53z"/>
		<path style="clip-path:url(#SVGID_2_);fill:#F7985C;" d="M34.556,35.896c-0.317,0.194-0.484,0.531-0.375,0.747
			c0.111,0.215,0.459,0.233,0.776,0.036c0.317-0.194,0.485-0.528,0.373-0.747C35.221,35.718,34.873,35.702,34.556,35.896z"/>
		<path style="clip-path:url(#SVGID_2_);fill:#F7985C;" d="M40.156,35.325c-0.343-0.132-0.683-0.053-0.76,0.182
			c-0.076,0.233,0.141,0.531,0.483,0.667c0.343,0.135,0.682,0.055,0.758-0.18C40.714,35.761,40.498,35.461,40.156,35.325z"/>
		<path style="clip-path:url(#SVGID_2_);fill:#F7985C;" d="M31.597,34.489c-0.356,0.09-0.586,0.354-0.513,0.587
			c0.074,0.233,0.425,0.353,0.781,0.261c0.357-0.09,0.587-0.351,0.514-0.587C32.304,34.517,31.955,34.399,31.597,34.489z"/>
		<ellipse style="clip-path:url(#SVGID_2_);fill:#E6864A;" cx="27.591" cy="37.109" rx="0.658" ry="0.45"/>
		<ellipse style="clip-path:url(#SVGID_2_);fill:#E6864A;" cx="43.52" cy="37.167" rx="0.659" ry="0.45"/>
		
			<ellipse transform="matrix(-0.3162 -0.9487 0.9487 -0.3162 -2.5347 72.3772)" style="clip-path:url(#SVGID_2_);fill:#E6864A;" cx="24.816" cy="37.102" rx="0.573" ry="0.871"/>
		<path style="clip-path:url(#SVGID_2_);fill:#E6864A;" d="M28.86,35.839c-0.368,0.041-0.625,0.271-0.573,0.509
			c0.05,0.241,0.391,0.403,0.758,0.362c0.368-0.041,0.625-0.268,0.574-0.509C29.567,35.96,29.228,35.798,28.86,35.839z"/>
		<path style="clip-path:url(#SVGID_2_);fill:#E6864A;" d="M47.475,36.565c-0.328-0.172-0.668-0.126-0.761,0.101
			c-0.092,0.227,0.1,0.553,0.427,0.725c0.328,0.172,0.668,0.126,0.76-0.102C47.993,37.061,47.802,36.737,47.475,36.565z"/>
		<path style="clip-path:url(#SVGID_2_);fill:#F7985C;" d="M34.299,34.205c-0.253,0.046-0.437,0.229-0.41,0.405
			c0.028,0.18,0.255,0.286,0.508,0.239c0.252-0.047,0.436-0.228,0.409-0.406C34.778,34.265,34.551,34.159,34.299,34.205z"/>
		<path style="clip-path:url(#SVGID_2_);fill:#E6864A;" d="M26.054,37.649c-0.253,0.046-0.436,0.229-0.408,0.405
			c0.026,0.18,0.255,0.286,0.506,0.239c0.254-0.047,0.436-0.228,0.409-0.406S26.307,37.604,26.054,37.649z"/>
		<path style="clip-path:url(#SVGID_2_);fill:#F7985C;" d="M41.083,34.685c-0.244-0.086-0.483-0.017-0.533,0.155
			c-0.052,0.172,0.105,0.38,0.35,0.468c0.244,0.087,0.482,0.018,0.532-0.154C41.482,34.982,41.326,34.773,41.083,34.685z"/>
		<path style="clip-path:url(#SVGID_2_);fill:#E6864A;" d="M45.879,37.083c-0.245-0.085-0.483-0.016-0.533,0.156
			c-0.051,0.172,0.105,0.381,0.351,0.468c0.243,0.087,0.481,0.016,0.532-0.154C46.279,37.379,46.122,37.171,45.879,37.083z"/>
		<path style="clip-path:url(#SVGID_2_);fill:#F7985C;" d="M39.671,33.866c-0.307-0.049-0.575,0.091-0.599,0.312
			c-0.021,0.217,0.21,0.436,0.519,0.483c0.307,0.05,0.575-0.09,0.598-0.31C40.211,34.131,39.979,33.914,39.671,33.866z"/>
		<path style="clip-path:url(#SVGID_2_);fill:#F7985C;" d="M32.548,36.978c-0.352,0.104-0.589,0.383-0.53,0.624
			c0.059,0.237,0.391,0.349,0.743,0.245c0.352-0.104,0.59-0.383,0.53-0.623C33.232,36.985,32.9,36.874,32.548,36.978z"/>
		<path style="clip-path:url(#SVGID_2_);fill:#F7985C;" d="M37.735,33.941c-0.431-0.071-0.813,0.114-0.855,0.415
			c-0.041,0.3,0.275,0.603,0.706,0.674c0.431,0.073,0.814-0.112,0.855-0.413C38.482,34.315,38.166,34.015,37.735,33.941z"/>
		<path style="clip-path:url(#SVGID_2_);fill:#E6864A;" d="M42.557,35.429c-0.431-0.071-0.813,0.115-0.855,0.415
			c-0.041,0.3,0.275,0.603,0.706,0.674c0.431,0.073,0.813-0.115,0.855-0.413C43.304,35.802,42.988,35.502,42.557,35.429z"/>
		<path style="clip-path:url(#SVGID_2_);fill:#F7985C;" d="M29.563,37.067c-0.437,0.005-0.779,0.252-0.764,0.555
			c0.015,0.303,0.382,0.545,0.82,0.541c0.438-0.003,0.778-0.253,0.764-0.555C30.367,37.306,30,37.063,29.563,37.067z"/>
		<path style="clip-path:url(#SVGID_2_);fill:#E6864A;" d="M44.826,35.521c-0.437,0.005-0.779,0.252-0.763,0.557
			c0.015,0.303,0.383,0.546,0.82,0.541c0.437-0.005,0.779-0.252,0.764-0.555C45.631,35.759,45.264,35.519,44.826,35.521z"/>
		<path style="clip-path:url(#SVGID_2_);fill:#F7985C;" d="M38.566,35.353c-0.416-0.178-0.83-0.109-0.924,0.156
			c-0.095,0.266,0.165,0.625,0.581,0.805c0.416,0.179,0.83,0.107,0.925-0.156C39.242,35.892,38.981,35.531,38.566,35.353z"/>
		<path style="clip-path:url(#SVGID_2_);fill:#F7985C;" d="M31.164,35.805c-0.488,0.075-0.848,0.405-0.807,0.737
			s0.471,0.541,0.958,0.468s0.848-0.402,0.807-0.735C32.08,35.94,31.651,35.73,31.164,35.805z"/>
		<path style="clip-path:url(#SVGID_2_);fill:#F7985C;" d="M33.121,35.172c-0.468,0.17-0.768,0.564-0.674,0.883
			c0.097,0.32,0.553,0.441,1.021,0.272c0.466-0.167,0.768-0.563,0.673-0.882C34.045,35.126,33.589,35.005,33.121,35.172z"/>
		<path style="clip-path:url(#SVGID_2_);fill:#F7985C;" d="M41.277,36.524c-0.487-0.071-0.914,0.145-0.954,0.477
			s0.324,0.657,0.811,0.729c0.488,0.071,0.915-0.145,0.955-0.477S41.766,36.593,41.277,36.524z"/>
		<path style="clip-path:url(#SVGID_2_);fill:#9C340B;" d="M43.852,22.402c-0.015-0.005-0.028-0.009-0.042-0.016
			c-1.114-0.411-1.586,0.341-2.638,0.6c-1.573,0.386-2.772-0.268-4.141-0.827c-2.423-0.99-5.597,1.072-7.918,2.317
			c-0.915,0.49-2.297,1.045-2.731,2.021c2.269,0.824,4.581-1.298,7.021-0.713c1.357,0.322,2.233,2.324,0.806,3.245
			c1.223,0.599,3.133-0.133,4.167-0.781c0.762-0.477,1.416-1.038,2.253-1.389c1.25-0.527,3.703-1.155,4.382-2.478
			C45.379,23.663,44.53,22.68,43.852,22.402z"/>
		<path style="opacity:0.3;clip-path:url(#SVGID_2_);fill:#5E0900;" d="M43.063,13.974c-3.754-1.237-7.514-0.626-11.233-1.829
			c-1.618-0.522-3.275-0.495-4.965-0.534c-1.895-0.046-3.669-0.458-5.587-0.374c0.774,1.536,0.256,2.726,1.705,3.968
			c0.006,0.007,0.013,0.012,0.019,0.016c-4.048,0.524-8.629,2.558-10.344,6.764c-1.168,2.864,0.292,8.025,2.678,9.771
			c2.272,1.664,3.362-0.994,4.933-2.313c2.065-1.732,4.45-3.652,6.863-4.886c2.313-1.183,5.579-2.624,8.079-3.277
			c0.24-0.063,0.521-0.307,0.733-0.438c1.645,1.652,4.231,1.073,6.11,0.415c1.438-0.503,1.191-0.483,2.641,0.421
			c0.903,0.561,2.671,1.984,3.745,1.993c1.82,0.019,1.614-4.987,1.033-6.025C48.393,15.71,45.063,14.634,43.063,13.974z"/>
		<path style="clip-path:url(#SVGID_2_);fill:#C21F22;" d="M27.941,15.688C14.021,16.239,10.3,23.61,10.502,25.494
			c0.182,1.707,0.967,5.385,1.51,11.488c0.108,1.219,0.942,1.394,1.387,0.412c1.746-3.856,5.719-8.822,11.876-12.57
			c6.293-3.833,15.788-5.718,16.078-8.327C41.643,13.884,32.965,15.488,27.941,15.688z"/>
		<path style="clip-path:url(#SVGID_2_);fill:#D62325;" d="M27.856,16.031c-3.094,0.177-5.81,0.749-8.653,2.04
			c-2.988,1.352-4.95,5.426-3.572,8.703c1.824,4.343,7.457-1.806,9.921-3.176c3.043-1.695,6.594-2.12,9.72-3.751l1.198-1.298
			c0.133-0.168,0.264-0.417,0.341-0.614C37.897,15.105,29.214,15.954,27.856,16.031z"/>
		<path style="clip-path:url(#SVGID_2_);fill:#FF4044;" d="M26.196,19.008c0,0,0.631,0.262,0.916,1.082
			c0.286,0.821,1.348,0.032,0.78-0.729C27.324,18.596,26.196,19.008,26.196,19.008z"/>
		<path style="clip-path:url(#SVGID_2_);fill:#FF4044;" d="M29.144,18.642c-4.98-3.137-9.078,0.6-9.078,0.6
			c0.935-0.513,4.682-0.801,5.516,2.014C26.413,24.07,33.014,21.08,29.144,18.642z M29.85,20.081
			c-0.145,0.421-1.243-0.357-1.118,0.394c0.027,0.168,0.661,0.452,0.432,0.718c-0.163,0.192-0.428-0.254-0.57-0.314
			c-0.907-0.387-0.424,0.599-0.502,1.078c-0.728,0.107-0.296-0.728-0.759-0.904c-0.515-0.196-0.482,0.663-0.912,0.597
			c-0.813-0.122,0.375-0.976,0.045-1.196c-0.05-0.034-0.132-0.053-0.261-0.053c-0.188,0-0.897,0.465-0.707-0.197
			c0.059-0.206,0.826-0.376,0.399-0.686c-0.303-0.217-0.672,0.41-1.011,0.104c-0.324-0.293,0.308-0.344,0.088-0.607
			c-0.193-0.233-1.646,0.649-0.894-0.447c-0.519-0.274-0.866,0.636-1.352,0.202c0.055-0.051,0.103-0.167,0.148-0.209
			c-0.139,0.012-0.294-0.089-0.422-0.105c0.067-0.233,0.243-0.348,0.486-0.344c0.192,0,0.359,0.301,0.494,0.269
			c0.271-0.066,0.014-0.252,0.132-0.341c0.593-0.459,0.201,0.016,0.668,0.212c0.019-0.322,0.119-0.657,0.446-0.483
			c0.107,0.058-0.058,0.36,0.127,0.442c0.275,0.124,0.218-0.13,0.315-0.198c0.134-0.097-0.086-0.338,0.236-0.354
			c0.286-0.016,0.137,0.155,0.221,0.248c0.09,0.096-0.173,0.38,0.14,0.396c0.256,0.011,0.129-0.21,0.227-0.287
			c0.245-0.195,0.306-0.548,0.615-0.116c0.192,0.271-0.16,0.748,0.412,0.451c0.193-0.101,0.219-0.764,0.58-0.161
			c0.154,0.257-0.302,0.669,0.338,0.601c0.198-0.021,0.23-0.398,0.47-0.373c0.439,0.044,0.184,0.717,0.17,0.943
			c0.158-0.064,0.463-0.329,0.643-0.254c-0.017,0.114-0.099,0.225-0.107,0.341c-0.025,0.393-0.381,0.292,0.082,0.428
			C29.252,19.901,30.019,19.584,29.85,20.081z"/>
		<path style="clip-path:url(#SVGID_2_);fill:#C21F22;" d="M50.495,16.906c-0.881-1.314-7.391-1.927-11.656-1.585
			s-7.858,3.965-1.56,4.025c6.301,0.063,11.965,3.912,13.467,5.567c0.78,0.859,1.482-0.037,1.242-0.756
			C51.423,22.467,51.376,18.222,50.495,16.906z"/>
		<path style="clip-path:url(#SVGID_2_);fill:#EA3336;" d="M49.931,23.013c0.234-0.271,0.983,0.264,0.975-0.287
			c-0.011-0.582-0.647-0.223-0.912-0.264c-0.361-0.057-0.99-0.479-0.587-0.841c0.247-0.22,0.9,0.291,0.934-0.267
			c0.045-0.749-1.859,0.124-1.412-0.715c0.145-0.272,0.78,0.037,0.794-0.398c0.015-0.526-0.604-0.083-0.797-0.083
			c-0.356-0.004-1.077-0.345-0.715-0.753c0.323-0.369,0.752,0.3,1.077,0.107c0.479-0.287-0.631-0.483-0.729-0.626
			c-0.405-0.585,0.241-0.409,0.523-0.334c0.172,0.043,0.806,0.561,0.625-0.083c-0.084-0.298-0.782-0.279-0.648-0.706
			c0.154-0.485,0.666,0.316,0.942,0.229c0.485-0.153-0.347-0.548-0.383-0.74c-0.087-0.458,0.414-0.365,0.732-0.39
			c-0.911-1.098-2.731,1.753-3.171,2.257c0,0,0.807,1.683,1.397,2.338c0.506,0.562,0.443,1.291,0.846,1.848
			c0.081,0.11,0.173,0.204,0.273,0.286c0.383,0.316,0.892,0.477,1.321,0.712C50.755,24.16,49.662,23.319,49.931,23.013z"/>
		<path style="opacity:0.3;clip-path:url(#SVGID_2_);fill:#5E0900;" d="M43.05,16.196c-1.882,0.17-3.165,1.305-1.681,2.973
			l1.283,0.323c1.444,0.414,3.792,2.436,5.22,2.245c1.291-0.172-0.899-1.134-0.93-1.784c-0.058-1.271,2.904-0.864,3.076-2.29
			C50.265,15.612,44.202,16.091,43.05,16.196z"/>
		<path style="opacity:0.3;clip-path:url(#SVGID_2_);fill:#5E0900;" d="M29.688,16.345c-1.79,0.131-3.574,0.383-5.312,0.823
			c-0.547,0.138-4.129,0.756-2.64,1.676c0.484,0.3,1.8,0.199,2.371,0.192c0.209,0,3.131,0.077,3.001,0.356
			c-0.362,0.787-1.95,1.562-0.722,2.107c0.885,0.392,2.484-0.278,3.317-0.53c1.395-0.421,2.77-0.759,4.209-0.997
			c0.473-0.08,1.139-0.084,1.692-0.247c0.327-0.094,0.615-0.243,0.799-0.492C38.512,16.382,30.872,16.258,29.688,16.345z"/>
		<path style="clip-path:url(#SVGID_2_);fill:#D62325;" d="M31.654,9.335c-3.218-0.658-6.32,1.176-9.52,1.3
			c3.313,6.638,7.717,9.716,14.425,6.719c0.966-0.433,1.893-0.871,2.896-1.206l-1.829-2.087
			C35.269,12.073,35.025,10.024,31.654,9.335z"/>
		<path style="clip-path:url(#SVGID_2_);fill:#B01518;" d="M30.709,11.938c0.756,0.811,2.315,1.707,2.583,2.791
			c-0.701,0.24-2.307-0.619-3.059-0.796c-1.067-0.252-2.115-0.547-3.155-0.888c1.296,3.246,5.305,5.336,8.852,4.493
			c0.565-0.135,1.388-0.359,1.656-0.9l-1.793-1.378C35.248,13.327,32.686,11.893,30.709,11.938z"/>
		<path style="clip-path:url(#SVGID_2_);fill:#D62325;" d="M44.892,9.995c-5.106,2.391-6.238,7.147-6.238,7.147
			c2.79,0.296,5.108,2.888,7.792,1.817c3.174-1.267,5.462-5.19,6.156-8.931C50.813,10.27,46.592,9.202,44.892,9.995z"/>
		<path style="clip-path:url(#SVGID_2_);fill:#B01518;" d="M42.888,15.316l-1.557,0.31c-0.822,3.492,4.594,1.86,5.921,0.438
			c-0.419-0.195-0.924-0.068-1.378-0.19c0.604-1.37,2.068-1.881,2.35-3.598C46.212,12.889,44.858,14.681,42.888,15.316z"/>
		<path style="clip-path:url(#SVGID_2_);fill:#D62325;" d="M41.249,12.594c-1.303-0.202-4.442-0.933-5.309,0.438
			c-0.611,0.967-0.553,4.35-0.354,5.425c0.426,2.287,3.194,2.619,5.206,2.498c2.51-0.151,3.253-3.05,3.386-5.18
			C44.303,13.797,43.108,12.882,41.249,12.594z"/>
		<path style="clip-path:url(#SVGID_2_);fill:#F73E40;" d="M41.835,12.889c-0.004,0-1.197-0.167-1.197-0.167
			c-1.221,0.061-2.529-0.264-3.604,0.482c-1.018,0.705-0.463,1.408-0.808,2.426c0.225-0.385,0.278-0.875,0.508-1.29
			c0.441,1.352,1.042,0.527,0.664-0.513c-0.055,0.007,0.325-0.115,0.289-0.099c0.108,0.351,0.181,0.724,0.311,1.067
			c0.874,2.347,0.6-0.655,1.104-0.996c0.973-0.658,0.188,2.524,0.56,2.777c0.996,0.671,0.872-2.451,0.983-2.849
			c0.984,0.403-0.115,1.962,0.746,2.211c0.929,0.266,0.375-1.641,0.646-2.051c1.024,0.534,0.103,1.35,0.552,2.014
			c0.468,0.693,0.57-1.102,0.658-1.232c0.827,0.403,0.357,1.636,0.402,2.393c-0.007,0.002,0.094,0.027,0.088,0.014
			C44.433,15.667,43.53,13.128,41.835,12.889z"/>
		<path style="clip-path:url(#SVGID_2_);fill:#F73E40;" d="M31.263,9.531c-2.049-0.224-3.933,0.539-5.926,0.947
			c-0.816,0.167-1.756,0.174-2.48,0.603c0.454,0.88,1.004,1.889,1.779,2.517c0.286-0.796-1.091-1.388-1.06-1.533
			c0.161-0.766,0.833-0.197,1.348-0.051c-0.276-0.266-0.257-0.532-0.355-0.859c0.506,0.128,0.834,0.444,1.34,0.392
			c-0.253-0.449-0.23-0.713,0.223-0.8c0.368-0.068,0.626,0.614,1.105,0.546c0.153-0.022-0.225-0.674,0.271-0.779
			c0.444-0.094,0.316,0.779,0.918,0.52c0.104-0.045,0.115-0.863,0.12-1.026c0.729,0.238,0.233,1.029,1.179,1.068
			c0.013-0.009,0.026-0.019,0.04-0.027c-0.153-0.371-0.11-0.692,0.052-1.026c0.521,0.222,0.33,0.865,0.532,1.004
			c1.033,0.701,0.363-0.269,0.635-0.468c0.396-0.287,0.104-0.756,0.823-0.133c0.311,0.266-0.519,0.992,0.429,0.951
			c-0.042-0.298,0.159-0.656,0.164-0.915c0.994,0.126,0.197,0.862,0.646,1.194c0.545,0.4,0.533-0.197,0.394-0.587
			c0.149,0.014,2.021,1.884,2.113,2.058c-0.001,0-0.444-0.836-0.444-0.836C33.978,10.682,33.279,9.752,31.263,9.531z"/>
		<path style="clip-path:url(#SVGID_2_);fill:#F73E40;" d="M49.995,10.533c-1.523,0.012-3.05-0.422-4.57-0.227
			c-1.51,0.192-2.141,1.121-3.214,2.138c0.247-0.234,1.001-0.261,1.353-0.474c0.537-0.321,0.837-0.991,1.526-1.073
			c-0.072,0.342-0.045,0.64-0.339,0.944c0.934,0.229,1.046-1.739,1.831-1.126c0.219,0.176-0.754,0.896,0.081,1.094
			c0.509,0.119,0.798-0.887,1.224-0.933c0.596-0.063,0.75,0.3,0.477,0.846c0.751,0.14,1.337-0.88,2.026-0.543
			c0.351,0.172-0.827,0.745,0.197,0.875c0.03,0.005,0.572-0.62,0.785-0.696c0.202-0.07-0.832,1.176-0.817,1.142
			c-0.202,0.479-0.049,1.106-0.027,1.644c0.583-1.094,1.523-2.318,1.452-3.621C51.295,10.414,50.674,10.529,49.995,10.533z"/>
		<path style="clip-path:url(#SVGID_2_);fill:#B01518;" d="M37.464,18.527c-0.616-0.253-1.183-0.536-1.559-1.094
			c-0.383,3.456,5.551,4.272,7.292,1.715c0.377-0.556,0.564-1.157,0.631-1.82l-0.274,0.498
			C43.088,20.217,39.017,19.164,37.464,18.527z"/>
		<path style="clip-path:url(#SVGID_2_);fill:#FF4044;" d="M15.653,19.647c0.443-0.144,0.117,0.738,0.123,0.768
			c0.319,1.681,1.058-0.861,1.832-0.119c-0.233,0.379-0.382,1.186,0.385,1.004c0.634-0.149,0.287-1.37,1.302-0.671
			c-0.104,0.133-0.292,0.426-0.265,0.603c0.274,1.755,0.747-0.259,1.257-0.349c0.871-0.155-0.247,1.843,0.901,1.371
			c0.366-0.152,0.059-0.796,0.589-0.788c0.612,0.007,0.281,0.561,0.406,0.765c0.685,1.125,0.496-0.023,1.039-0.277
			c0.988-0.463,0.818,0.85,0,1.199c-0.233,0.098-0.813-0.079-0.846,0.322c-0.04,0.47,0.481,0.119,0.653,0.204
			c0.727,0.357,0.671,0.467-0.104,0.729c-0.373,0.125-1.462,0.313-0.684,0.829c0.175,0.117,1.502-0.203,0.516,0.579
			c-0.192,0.154-0.545-0.048-0.766,0.09c-0.238,0.151-0.344,0.722-0.438,0.974c1.439-0.713,1.698-1.216,2.32-2.648
			c0.35-0.805,0.737-1.691,1.07-2.459c-1.262-0.344-2.557-0.699-3.83-1.048C19.803,20.367,16.935,19.229,15.653,19.647z"/>
		<path style="clip-path:url(#SVGID_2_);fill:#FF4044;" d="M17.688,24.719c-1.157,0.438-0.575,2.015,0.32,1.323
			c0.896-0.692,1.766-0.546,1.766-0.546S18.848,24.284,17.688,24.719z"/>
		<path style="clip-path:url(#SVGID_2_);fill:#FF4044;" d="M38.101,17.246c-1.049-0.218-1.415-0.905-1.415-0.905
			s-0.453,1.343,0.539,1.891S39.153,17.464,38.101,17.246z"/>
		<path style="clip-path:url(#SVGID_2_);fill:#FF4044;" d="M42.191,16.888c-0.109,0.835-0.658,1.203-0.658,1.203
			s1.156,0.177,1.546-0.654C43.469,16.604,42.301,16.052,42.191,16.888z"/>
		<path style="clip-path:url(#SVGID_2_);fill:#FF4044;" d="M27.812,11.867c-0.904,0.268-0.552,1.496,0.167,1.021
			c0.72-0.478,1.37-0.319,1.37-0.319S28.714,11.599,27.812,11.867z"/>
		<path style="clip-path:url(#SVGID_2_);fill:#FF4044;" d="M48.308,14.808c-0.003,0.683-0.407,1.031-0.407,1.031
			s0.947,0.029,1.176-0.676C49.303,14.454,48.311,14.126,48.308,14.808z"/>
		<path style="clip-path:url(#SVGID_2_);fill:#F3373B;" d="M12.85,24.691c-0.183,1.22-0.996,1.744-0.996,1.744
			s1.687,0.289,2.278-0.919C14.723,24.307,13.031,23.473,12.85,24.691z"/>
		<path style="clip-path:url(#SVGID_2_);fill:#F3373B;" d="M13.9,29.393c0,0-0.956,1.02-0.356,1.959
			c0.6,0.942,1.949,0.16,1.16-0.507C13.914,30.178,13.9,29.393,13.9,29.393z"/>
		<path style="clip-path:url(#SVGID_2_);fill:#FF4044;" d="M28.896,16.746c0.914,0.396,1.664,0,1.664,0l-1.948-1.452
			C28.611,15.294,27.981,16.351,28.896,16.746z"/>
		<path style="clip-path:url(#SVGID_2_);fill:#FF4044;" d="M45.197,12.736c-0.638,0.676-0.512,1.448-0.512,1.448l1.909-1.259
			C46.595,12.926,45.836,12.062,45.197,12.736z"/>
		<path style="clip-path:url(#SVGID_2_);fill:#F0383A;" d="M11.99,22.881c0,0,0.327,0.993,2.004-0.747
			c1.676-1.739,4.819-3.941,9.081-5.417C23.075,16.717,15.279,17.858,11.99,22.881z"/>
	</g>
</g>
<g id="Layer_1">
</g>
</svg>
