<?xml version="1.0" encoding="iso-8859-1"?>
<!-- Generator: Adobe Illustrator 16.0.0, SVG Export Plug-In . SVG Version: 6.00 Build 0)  -->
<!DOCTYPE svg PUBLIC "-//W3C//DTD SVG 1.1//EN" "http://www.w3.org/Graphics/SVG/1.1/DTD/svg11.dtd">
<svg version="1.1" xmlns="http://www.w3.org/2000/svg" xmlns:xlink="http://www.w3.org/1999/xlink" x="0px" y="0px"
	 width="66.002px" height="66px" viewBox="0 0 66.002 66" style="enable-background:new 0 0 66.002 66;" xml:space="preserve">
<g id="Layer_85">
	<g>
		<defs>
			<circle id="SVGID_1_" cx="33.002" cy="33" r="33"/>
		</defs>
		<clipPath id="SVGID_2_">
			<use xlink:href="#SVGID_1_"  style="overflow:visible;"/>
		</clipPath>
		<rect style="clip-path:url(#SVGID_2_);fill:#FFFFFF;" width="66" height="65.999"/>
		<path style="clip-path:url(#SVGID_2_);fill:#9C552C;" d="M28.984,58.291c1.195-1.004-0.197-4.602-1.812-3.73
			c-2.971,1.603-4.093,6.819-5.136,11.438h3.567C26.398,62.823,27.351,59.665,28.984,58.291z"/>
		<path style="clip-path:url(#SVGID_2_);fill:#9C552C;" d="M42.028,54.561c-1.614-0.871-3.007,2.727-1.812,3.73
			c1.635,1.374,2.587,4.532,3.38,7.708h3.568C46.122,61.38,44.999,56.163,42.028,54.561z"/>
		<linearGradient id="SVGID_3_" gradientUnits="userSpaceOnUse" x1="34.2373" y1="51.3105" x2="34.2373" y2="55.721">
			<stop  offset="0" style="stop-color:#854326"/>
			<stop  offset="1" style="stop-color:#9C552C"/>
		</linearGradient>
		<path style="clip-path:url(#SVGID_2_);fill:url(#SVGID_3_);" d="M40.19,53.541c-0.677-0.505-1.625-0.592-2.206-0.846
			c-1.123-0.492-1.234-1.443-1.524-2.215c-0.579-1.539-3.461-1.833-3.722-0.127c-0.458,2.981-2.976,2.623-4.573,3.551
			c-3.233,1.88-1.298,3.56,1.136,5.993c2.696,2.697,7.438,3.088,11.135-0.261C43.104,57.22,41.944,54.847,40.19,53.541z"/>
		<path style="clip-path:url(#SVGID_2_);fill:#FF392B;" d="M39.409,60.929c2.957,0,6.257-3.819,6.257-3.819s-3.367-3.076-5.6-3.931
			C40.066,53.179,36.454,60.929,39.409,60.929z"/>
		<path style="clip-path:url(#SVGID_2_);fill:#9C552C;" d="M28.14,60.374c0.176,1.551,0.776,3.445,1.317,5.625h10.472
			c0.182-1.563,0.292-3.61,0.581-5.466C40.734,59.085,27.894,58.192,28.14,60.374z"/>
		<path style="clip-path:url(#SVGID_2_);fill:#854326;" d="M28.334,61.521c0.249,3.699,12.451,3.216,12.16-0.832
			C40.336,58.518,28.172,59.089,28.334,61.521z"/>
		<path style="clip-path:url(#SVGID_2_);fill:#FF392B;" d="M26.719,54.854c0,0-1.821,0.671-2.94,2.725c0,0,2.856,5.509,11.001,5.439
			c6.001-0.051,6.652-3.774,6.652-3.774s0.671-4.226-1.365-6.065C40.066,53.179,36.572,57.997,26.719,54.854z"/>
		<path style="clip-path:url(#SVGID_2_);fill:#261B18;" d="M14.962,12.825c-3.7,3.115-3.651,8.427-0.854,11.75
			c2.795,3.323,8.063,3.49,11.762,0.378c3.701-3.114,4.433-8.333,1.638-11.655C24.709,9.976,18.662,9.712,14.962,12.825z"/>
		<path style="clip-path:url(#SVGID_2_);fill:#573D2F;" d="M15.692,13.437c-1.786,1.502-2.909,4.223-1.675,6.207
			c1.03,1.658,1.718-0.21,1.978-1.364c0.904,1.68,1.671-0.464,1.674-1.531c0.765,0.748,1.965-0.753,2.07-1.486
			c1.511-0.342,2.66-1.973,4.021-2.586C22.198,10.438,17.528,11.891,15.692,13.437z"/>
		<path style="clip-path:url(#SVGID_2_);fill:#261B18;" d="M43.834,13.295c-10.842-7.523-25.322-1.111-27.31,8.585
			c-1.378,6.715,0.763,12.494,4.562,16.708c1.905,2.117,3.272,4.647,5.124,6.759c1.788,2.042,3.818-1.481,5.31-2.342
			c1.978-1.141,4.385-1.762,6.661-1.431c2.019,0.292,3.447,2.396,5.497,2.435c2.694,0.05,3.431-4.454,4.046-6.368
			c0.567-1.768,0.997-3.586,1.387-5.4C50.859,24.112,49.478,17.209,43.834,13.295z"/>
		<path style="clip-path:url(#SVGID_2_);fill:#9C552C;" d="M31.951,15.633c-7.377,1.464-12.542,12.092-11.152,22.044
			c1.041,7.453,8.763,14.954,15.481,14.97c7.163,0.013,13.196-11.639,12.023-20.805C47.027,21.879,42.278,13.583,31.951,15.633z"/>
		<path style="opacity:0.3;clip-path:url(#SVGID_2_);fill:#661004;" d="M41.464,17.169c-2.911-0.861-5.917-1.331-8.954-1.375
			c-2.694-0.038-5.621-0.18-8.129,0.966c-1.377,0.629-3.07,1.492-3.58,3.021c-0.636,1.901-0.319,4.292-0.002,6.234
			c0.351,2.126,0.875,4.298,2.013,6.151c0.085-1.32,0.672-2.575,0.957-3.864c0.923-4.137,3.577-5.645,6.774-6.189
			c2.656-0.452,5.687-0.24,8.407-0.323c1.457-0.041,9.909,1.359,8.084-2.021C46.216,18.252,42.958,17.61,41.464,17.169z"/>
		<path style="clip-path:url(#SVGID_2_);fill:#9C552C;" d="M18.21,33.539c-3.621,1.01-1.934,6.688,1.03,7.738
			c0.95,0.336,1.854,0.426,2.714-0.082c0.018-0.03,0.037-0.06,0.057-0.09c0.432-0.689-0.187-4.544-0.412-5.27
			C21.035,34.009,19.948,33.054,18.21,33.539z"/>
		<path style="opacity:0.4;clip-path:url(#SVGID_2_);fill:#661004;" d="M19.488,35.481c-0.816-0.372-2.845,0.31-1.885,1.9
			c0.498-1.478,1.401-0.513,1.269,0.536c-0.091,0.705-0.847,0.716-0.093,1.617c0.409,0.487,1.229,0.304,1.646,0.041
			C21.739,38.738,20.484,35.936,19.488,35.481z"/>
		<path style="clip-path:url(#SVGID_2_);fill:#261B18;" d="M37.957,12.601c-2.464-0.466-5.109-0.505-7.592-0.2
			c-4.177,0.51-9.214,2.51-10.521,6.944c-0.803,2.722-0.367,5.875-0.151,8.652c0.134,1.684-0.534,4.936,0.909,6.203
			c1.68,1.473,2.337-0.756,2.489-2.355c0.172-1.799,0.026-3.764,0.537-5.513c1.25-4.257,3.507-5.082,9.624-5.573
			c3.175-0.254,11.015-0.886,12.532,1.935c0.563,1.05,5.162-2.058,0.99-6.665C44.957,14.021,40.521,13.089,37.957,12.601z"/>
		<path style="clip-path:url(#SVGID_2_);fill:#573D2F;" d="M27.188,12.047c-1.91,0.521-3.764,1.592-5.283,2.977
			c-1.063,0.967-1.963,2.091-2.604,3.29c-0.724,1.353-1.057,2.807-0.909,4.329c0.098,1.013,0.971,3.152,2.516,2.568
			c-0.057-0.982-0.217-2.034-0.371-3.01c0.327,0.22,1.792,1.19,2.231,0.936c0.457-0.267,0.168-1.657,0.235-2.083
			c1.774,1.876,2.655-0.958,2.521-2.438c0.747,0.432,1.272,1.251,2.055,1.62c1.114,0.529,2.296-0.075,3.549-0.307
			c1.61-0.295,3.282-0.551,4.921-0.635c1.701-0.085,2.018,0.12,2.686-1.432c0.039,0.47,0.269,0.918,0.67,1.194
			c0.603-0.359,0.952-0.878,0.938-1.603c0.035,1.748,3.906,2.75,5.226,2.337c2.04-0.64-0.264-3.763-1.525-5
			C39.742,10.572,32.749,10.527,27.188,12.047z"/>
		<path style="clip-path:url(#SVGID_2_);fill:#BF6C3C;" d="M47.219,37.164c-0.633-0.774-1.852-0.813-2.713-0.725
			c-1.128,0.107-2.588,0.688-1.449,2.229c0.608,0.821,5.144,0.987,4.452-0.983C47.438,37.48,47.34,37.31,47.219,37.164z"/>
		<path style="clip-path:url(#SVGID_2_);fill:#BF6C3C;" d="M29.66,37.538c-0.691-0.713-1.916-0.686-2.773-0.558
			c-1.119,0.165-3.054,1.225-1.439,2.361c1.163,0.819,5.379,0.549,4.54-1.314C29.902,37.834,29.79,37.674,29.66,37.538z"/>
		<path style="clip-path:url(#SVGID_2_);fill:#261B18;" d="M28.963,32.273c-2.644-0.706-4.294,2.245-2.491,3.199
			c0.84-0.154,1.832-0.102,2.615,0.133C30.856,35.022,30.928,32.8,28.963,32.273z"/>
		<path style="opacity:0.4;clip-path:url(#SVGID_2_);fill:#661004;" d="M36.749,37.048c-0.658,0.058-1.269-0.262-1.859,0.107
			c-0.592,0.37,0.208,1.37,1.953,1.197c1.74-0.169,2.144-1.157,1.788-1.49C38.219,36.475,37.48,36.986,36.749,37.048z"/>
		<path style="clip-path:url(#SVGID_2_);fill:#BF6C3C;" d="M36.47,33.942c-1.248-0.017-2.024,2.358-1.433,3.077
			c0.416,0.502,3.146,0.29,3.521-0.36C38.694,36.421,37.662,33.955,36.47,33.942z"/>
		<path style="opacity:0.7;clip-path:url(#SVGID_2_);fill:#F0DED1;" d="M28.764,33.826c-0.802,0.23-0.187,1.538,0.595,1.058
			C29.924,34.538,29.478,33.621,28.764,33.826z"/>
		<path style="clip-path:url(#SVGID_2_);fill:#261B18;" d="M45.772,31.578c-2.712-0.351-3.957,2.795-2.041,3.503
			c0.81-0.269,1.8-0.348,2.608-0.218C48.017,34.049,47.79,31.836,45.772,31.578z"/>
		<path style="opacity:0.7;clip-path:url(#SVGID_2_);fill:#F0DED1;" d="M45.698,33.193c-0.748,0.334,0.023,1.55,0.72,0.974
			C46.919,33.75,46.365,32.897,45.698,33.193z"/>
		<path style="clip-path:url(#SVGID_2_);fill:#D47B48;" d="M44.635,41.021c-4.571-0.767-11.726,0.283-15.901,0.402
			c-0.339,0.011-0.609,0.109-0.458,0.472c0.645,1.543,3.09,7.212,8.801,7.165c4.778-0.038,5.228-3.377,5.471-5.135
			c0.12-0.865,1.42-1.912,2.429-2.552C45.305,41.165,45.056,41.091,44.635,41.021z"/>
		<path style="clip-path:url(#SVGID_2_);fill:#78231F;" d="M28.92,41.989c0,0,1.845,4.697,7.438,4.467
			c5.036-0.209,5.689-1.83,5.954-2.962c0.354-1.514,1.736-2.129,1.736-2.129C35.406,43.436,28.92,41.989,28.92,41.989z"/>
		<path style="clip-path:url(#SVGID_2_);fill:#FFF7EA;" d="M30.733,42.451c0,0,0.005,1.53,1.704,2.085
			c2.182,0.709,4.649,0.758,7.195,0.15c1.714-0.409,2.778-2.744,2.778-2.744S37.641,42.772,30.733,42.451z"/>
		<path style="clip-path:url(#SVGID_2_);fill:#FFF7EA;" d="M37.656,44.728c-2.391,0.063-4.437-0.171-5.539-0.53
			c-0.921-0.297-0.947,0.139-0.785,0.521c0,0,0.243,1.573,4.588,1.788c3.801,0.187,5.532-1.837,5.122-2.241
			C40.633,43.861,40.048,44.663,37.656,44.728z"/>
		<path style="clip-path:url(#SVGID_2_);fill:#ECDCC4;" d="M30.726,42.431c0,0,0.035,0.463,0.16,0.668c0,0,9.064-0.873,11.05-0.296
			c0,0,0.366-0.492,0.476-0.86C42.411,41.942,35.995,42.798,30.726,42.431z"/>
		<path style="clip-path:url(#SVGID_2_);fill:#ECDCC4;" d="M32.613,44.2c3.701,1.458,7.907-0.009,7.907-0.009
			C35.842,45.063,32.613,44.2,32.613,44.2z"/>
		<path style="clip-path:url(#SVGID_2_);fill:#161110;" d="M27.619,31.465c-1.42,0.329-3.22,1.83-5.547,0.182
			c0,0,0.802,2.735,5.414,1.048c1.876-0.685,2.926,1.302,2.926,1.302S30.398,30.829,27.619,31.465z"/>
		<path style="clip-path:url(#SVGID_2_);fill:#161110;" d="M45.628,31.082c-2.604-0.654-2.754,2.413-2.754,2.413
			s1.005-1.84,2.916-1.134c4.173,1.542,5.085-1.031,5.085-1.031C48.599,32.896,46.961,31.419,45.628,31.082z"/>
		<path style="clip-path:url(#SVGID_2_);fill:#261B18;" d="M44.889,27.799c-1.821,0.146-3.597,1.242-3.384,2.139
			c0.235,1.006,1.567-0.601,3.347-1.03c2.229-0.537,3.617,0.421,3.553,0.189C48.213,28.414,46.552,27.661,44.889,27.799z"/>
		<path style="clip-path:url(#SVGID_2_);fill:#261B18;" d="M28.159,28.226c-2.044-0.188-4.244,0.447-4.326,1.12
			c-0.051,0.438,1.729-0.58,4.462,0.014c2.181,0.476,3.71,1.993,4.006,1.035C32.564,29.546,30.394,28.432,28.159,28.226z"/>
		<path style="opacity:0.3;clip-path:url(#SVGID_2_);fill:#B54D26;" d="M47.139,29.091c-1.472,0.071-2.938,0.295-4.364,0.666
			c-1.217,0.316-2.646,0.458-3.768,1.035c-1.035,0.532-1.47,0.881-2.718,0.824c-2.23-0.099-4.106-1.494-6.333-1.733
			c-2.319-0.248-4.692-0.53-6.98,0.094c-0.596,0.161-2.396,0.837-1.184,1.479c1.184,0.626,2.957,0.435,4.256,0.489
			c0.6,0.025,1.201,0.042,1.799,0.1c2.12,0.201,5.384-0.08,5.206,2.566c-0.123,1.818-1.3,3.68-2.777,4.017
			c-1.418,0.324-2.936,0.445-4.37,0.435c-1.097-0.008-2.156-0.224-3.155-0.69c-0.282-0.132-1.131-0.677-1.407-0.294
			c-0.471,0.65,1.251,1.738,1.701,1.944c1.032,0.469,2.129,0.612,3.248,0.735c2.765,0.304,5.613,0.166,7.183-2.37
			c0.911-1.472,1.371-3.203,2.214-4.713c1.382-2.472,2.018,0.892,2.447,2.363c0.241,0.827,0.593,1.629,1.096,2.327
			c0.892,1.235,2.646,1.908,4.115,1.982c0.906,0.045,1.833,0.001,2.683-0.349c0.515-0.21,0.724-0.804,0.109-1.037
			c-0.371-0.142-0.966-0.042-1.355-0.06c-0.568-0.023-1.148-0.033-1.709-0.141c-0.717-0.137-1.439-0.436-2.045-0.884
			c-0.425-0.313-0.79-0.698-1.06-1.151c-0.559-0.944-0.583-2.098-0.211-3.116c0.512-1.402,2.054-1.509,3.331-1.616
			c1.549-0.128,3.115-0.095,4.655-0.231c0.687-0.062,1.371,0.033,2.057,0.058c0.882,0.031,2.786-0.243,1.743-1.527
			C50.54,29.056,48.565,29.021,47.139,29.091z"/>
		<path style="clip-path:url(#SVGID_2_);fill:#F06799;" d="M20.777,28.995c-1.825,0.056-3.383-0.455-3.813-0.089
			c-0.561,0.476,0.415,2.108,0.415,2.108s0.58,0.411,1.434,0.484c0.116,1.267,0.041,4.544,2.364,6.615
			c1.941,1.729,8.285,2.238,10.263,1.249c2.446-1.226,3.492-3.504,3.929-5.754C36.437,28.097,23.352,28.917,20.777,28.995z
			 M31.571,37.878c-2.415,1.554-8.584,0.81-10.184-1.176c-1.233-1.533-1.446-4.729-0.69-5.184c2.315-1.388,11.004-0.839,13.01,0.699
			C34.681,32.963,33.403,36.699,31.571,37.878z"/>
		<path style="clip-path:url(#SVGID_2_);fill:#F06799;" d="M50.716,28.546c-2.328-0.004-14.164-0.443-13.047,5.036
			c0.457,2.235,1.464,4.483,3.707,5.637c1.813,0.931,7.527,0.237,9.23-1.547c2.041-2.139,1.882-5.411,1.951-6.682
			c0.77-0.097,1.281-0.525,1.281-0.525s0.837-1.659,0.316-2.12C53.757,27.992,52.365,28.548,50.716,28.546z M50.378,36.266
			c-1.39,2.032-6.938,2.955-9.162,1.472c-1.688-1.125-2.944-4.822-2.084-5.596c1.768-1.596,9.598-2.397,11.726-1.076
			C51.552,31.497,51.449,34.699,50.378,36.266z"/>
		<path style="opacity:0.3;clip-path:url(#SVGID_2_);fill:#FFFFFF;" d="M40.663,31.648c-1.289,0.555,1.051,1.237,1.553,1.312
			c1.746,0.26,3.724,0.139,5.582-0.206c0.976-0.182,3.076-1.07,2.471-1.61C49.425,30.391,42.086,31.036,40.663,31.648z"/>
		<path style="clip-path:url(#SVGID_2_);fill:#FFFFFF;" d="M46.416,31.327c-0.7,0.111-1.157,0.315-0.964,0.63
			c0.378,0.62,4.484,0.266,4.763-0.209C50.488,31.282,47.904,31.091,46.416,31.327z"/>
		<path style="opacity:0.7;clip-path:url(#SVGID_2_);fill:#FFFFFF;" d="M41.967,36.441c-0.44-0.02-0.747,0.072-0.67,0.349
			c0.148,0.546,2.698,0.896,2.931,0.565C44.454,37.029,42.905,36.483,41.967,36.441z"/>
		<path style="opacity:0.7;clip-path:url(#SVGID_2_);fill:#FFFFFF;" d="M22.807,36.246c-0.459-0.073-0.79-0.02-0.745,0.266
			c0.085,0.56,2.709,1.22,2.993,0.921C25.335,37.138,23.783,36.404,22.807,36.246z"/>
		<path style="opacity:0.3;clip-path:url(#SVGID_2_);fill:#FFFFFF;" d="M32.743,31.894c-1.627-0.583-9.722-1.203-10.557-0.487
			c-0.6,0.513,1.8,1.359,2.89,1.532c2.07,0.328,4.245,0.446,6.124,0.201C31.74,33.07,34.217,32.423,32.743,31.894z"/>
		<path style="clip-path:url(#SVGID_2_);fill:#FFFFFF;" d="M29.225,31.419c-0.745,0.023-1.25,0.169-1.09,0.505
			c0.316,0.662,4.658,0.822,5.012,0.385C33.494,31.88,30.813,31.369,29.225,31.419z"/>
		<path style="clip-path:url(#SVGID_2_);fill:#F06799;" d="M39.209,30.28c-1.693,0.772-3.342,0.892-5.695,0.052
			c-1.777-0.634,0.934,1.158,1.139,2.082c0.206,0.923-0.105,3.746,0.516,2.065c0.62-1.681,1.861-1.786,2.654-0.24
			c0.791,1.547,0.738-2.582,1.062-2.959C39.207,30.905,40.901,29.507,39.209,30.28z"/>
		<path style="clip-path:url(#SVGID_2_);fill:#FFD1E2;" d="M21.633,29.539c4.929,0.256,8.866,0.404,11.84,1.559
			C31.534,29.498,28.192,29.14,21.633,29.539z"/>
		<path style="clip-path:url(#SVGID_2_);fill:#FFD1E2;" d="M50.297,28.975c-6.015,0.207-8.819,0.246-10.441,1.773
			C42.463,29.514,45.829,29.606,50.297,28.975z"/>
	</g>
</g>
<g id="Layer_1">
</g>
</svg>
