<?xml version="1.0" encoding="iso-8859-1"?>
<!-- Generator: Adobe Illustrator 16.0.0, SVG Export Plug-In . SVG Version: 6.00 Build 0)  -->
<!DOCTYPE svg PUBLIC "-//W3C//DTD SVG 1.1//EN" "http://www.w3.org/Graphics/SVG/1.1/DTD/svg11.dtd">
<svg version="1.1" xmlns="http://www.w3.org/2000/svg" xmlns:xlink="http://www.w3.org/1999/xlink" x="0px" y="0px"
	 width="66.008px" height="66px" viewBox="0 0 66.008 66" style="enable-background:new 0 0 66.008 66;" xml:space="preserve">
<g id="Layer_44">
	<g>
		<defs>
			<circle id="SVGID_1_" cx="33.008" cy="33" r="33"/>
		</defs>
		<clipPath id="SVGID_2_">
			<use xlink:href="#SVGID_1_"  style="overflow:visible;"/>
		</clipPath>
		<rect style="clip-path:url(#SVGID_2_);fill:#5F5D7F;" width="66" height="65.998"/>
		<path style="clip-path:url(#SVGID_2_);fill:#FF9819;" d="M27.175,54.909c-4.117,1.621-6.799,5.03-9.016,9.518
			c0.512,0.513,1.658,1.089,2.947,1.571h5.377C28.181,60.966,28.51,54.383,27.175,54.909z"/>
		<path style="clip-path:url(#SVGID_2_);fill:#FF9819;" d="M41.511,54.909c-1.335-0.526-1.006,6.057,0.689,11.089h5.378
			c1.289-0.482,2.437-1.059,2.948-1.571C48.31,59.939,45.628,56.53,41.511,54.909z"/>
		<path style="clip-path:url(#SVGID_2_);fill:#FF9819;" d="M34.073,53.837c-8.096,0.041-9.08,2.648-8.971,2.946
			c0.288,0.8-0.222,4.941,0.125,9.215h17.688c0.426-4.385,0.047-8.533,0.478-9.369C43.548,56.327,42.413,53.796,34.073,53.837z"/>
		<path style="clip-path:url(#SVGID_2_);fill:#FFC566;" d="M28.589,54.633c-1.842,2.711,5.518,5.74,5.518,5.74
			s6.51-2.832,5.811-5.283C39.091,52.188,30.245,52.196,28.589,54.633z"/>
		<path style="clip-path:url(#SVGID_2_);fill:#F7AC77;" d="M34.132,49.13c-1.877-0.005-4.521,1.125-4.709,4.089
			c-0.088,1.379,0.111,2.179,0.805,2.943c1.109,1.224,2.482,2.216,3.904,2.246c1.422-0.03,2.793-1.022,3.902-2.246
			c0.693-0.765,0.893-1.564,0.805-2.943C38.653,50.255,36.007,49.125,34.132,49.13z"/>
		<path style="clip-path:url(#SVGID_2_);fill:#E8DAC5;" d="M40.815,61.73c0.164-3.183,0.295-5.696,0.09-7.104
			c-0.059-0.395-0.434-0.668-0.82-0.61c-0.395,0.058-0.668,0.424-0.611,0.819c0.186,1.266,0.053,3.84-0.102,6.82
			c-0.072,1.379-0.145,2.846-0.199,4.342h1.447C40.674,64.53,40.745,63.088,40.815,61.73z"/>
		
			<rect x="39.755" y="59.809" transform="matrix(-0.0247 -0.9997 0.9997 -0.0247 -19.5546 102.3107)" style="clip-path:url(#SVGID_2_);fill:#F2F2F2;" width="0.752" height="1.77"/>
		<path style="clip-path:url(#SVGID_2_);fill:#E8DAC5;" d="M28.624,54.836c0.057-0.396-0.217-0.762-0.611-0.819
			c-0.396-0.061-0.762,0.216-0.82,0.61c-0.205,1.407-0.074,3.921,0.09,7.104c0.07,1.357,0.142,2.8,0.195,4.268h1.447
			c-0.055-1.496-0.127-2.963-0.199-4.342C28.573,58.676,28.438,56.102,28.624,54.836z"/>
		
			<rect x="27.083" y="60.318" transform="matrix(-0.9997 -0.0243 0.0243 -0.9997 54.4513 122.0504)" style="clip-path:url(#SVGID_2_);fill:#F2F2F2;" width="1.768" height="0.752"/>
		<path style="clip-path:url(#SVGID_2_);fill:#1F1A17;" d="M51.655,18.871c-0.639,0.427-1.529,0.753-2.074,0.587
			c1.238-0.782,1.785-1.763,1.748-3.547c-3.303-2.638-11.152-7.956-19.947-8.398c-5.408-0.272-11.043,1.12-14.023,5.997
			c-0.711,1.158-1.129,2.066-1.449,3.393c-0.492-0.991-0.926-1.563-0.877-2.689c-1.141,1.258-0.936,3.348-0.041,4.412
			c-0.996-0.053-2.098,0.513-2.789,1.186c0.648,0.01,1.717,0.018,2.25,0.334c-0.752,1.002-0.881,2.514-0.881,3.708
			c0.002,1.99,0.195,4.898,0.775,7.139c0.588,2.251,1.406,7.767,4.82,7.068c4.688-0.957,9.801-3.526,14.629-1.708
			c3.365,1.268,6.416,3.358,9.832,4.615c3.041,1.12,6.004,4.056,6.855-0.106c0.658-3.23,0.799-6.578,0.273-9.838
			c-0.428-2.642-0.889-5.887-2.299-8.194C49.337,22.547,51.456,21.37,51.655,18.871z"/>
		<path style="clip-path:url(#SVGID_2_);fill:#FFC490;" d="M32.349,15.486c-8.887,0.597-16.529,10.362-15.801,21.174
			s8.088,18.078,18.439,17.98c11.457-0.107,15.861-9.537,15.131-20.351C49.392,23.479,41.237,14.887,32.349,15.486z"/>
		<path style="opacity:0.3;clip-path:url(#SVGID_2_);fill:#D14F2E;" d="M48.396,33.233c-0.381-0.198-3.096-0.531-2.426,0.484
			c0.158,0.242,1.68,0.952,1.969,1.007c0.484,0.092,0.574-0.086,0.232-0.428c-0.32-0.321-1.26-0.473-1.479-0.906
			C47.077,33.35,48.204,33.841,48.396,33.233z"/>
		<path style="opacity:0.3;clip-path:url(#SVGID_2_);fill:#D14F2E;" d="M25.026,35.161c0.236,0.593,1.322,0.016,1.709,0.028
			c-0.188,0.446-1.109,0.67-1.406,1.016c-0.313,0.367-0.209,0.538,0.264,0.408c0.285-0.076,1.748-0.9,1.889-1.153
			C28.069,34.396,25.39,34.937,25.026,35.161z"/>
		<path style="clip-path:url(#SVGID_2_);fill:#1F1A17;" d="M29.022,31.973c-1.984-0.868-3.258,2.654-1.908,3.813
			c0.635-0.181,1.383-0.108,1.971,0.182C30.423,35.284,30.499,32.62,29.022,31.973z"/>
		<path style="opacity:0.3;clip-path:url(#SVGID_2_);fill:#D14F2E;" d="M37.472,36.878c-1.109,0.053-1.574-0.395-2.33,0.056
			c-0.756,0.449,0.305,2.138,2.268,2.002c1.955-0.133,2.865-1.769,2.432-2.213C39.339,36.207,38.704,36.819,37.472,36.878z"/>
		<path style="clip-path:url(#SVGID_2_);fill:#FFD1A7;" d="M36.479,30.924c-1.01,0.078-1.676,1.508-1.807,3.345
			c-0.137,1.909-0.068,2.702,0.418,3.061c1.252,0.924,3.564,0.722,4.646-0.383C41.118,35.537,38.886,30.74,36.479,30.924z"/>
		<path style="clip-path:url(#SVGID_2_);fill:#1F1A17;" d="M45.677,30.779c-2.117-0.928-3.365,3.503-1.078,3.868
			c0.471-0.405,1.105-0.651,1.688-0.634C46.962,33.048,46.812,31.276,45.677,30.779z"/>
		<path style="clip-path:url(#SVGID_2_);fill:#A88888;" d="M27.999,32.697c-0.807,0.269-0.203,1.843,0.588,1.276
			C29.159,33.565,28.72,32.459,27.999,32.697z"/>
		<path style="clip-path:url(#SVGID_2_);fill:#A88888;" d="M44.712,31.592c-0.758,0.252-0.191,1.719,0.545,1.19
			C45.79,32.401,45.38,31.369,44.712,31.592z"/>
		<path style="clip-path:url(#SVGID_2_);fill:#FFC490;" d="M15.013,34.132c-4.408,1.099-2.797,6.624,0.752,7.696
			c1.137,0.343,2.355,0.379,3.531,0.293c0.023-0.032,0.045-0.063,0.072-0.097c0.541-0.726-0.297-4.407-0.547-5.165
			C18.198,34.949,17.128,33.604,15.013,34.132z"/>
		<path style="opacity:0.3;clip-path:url(#SVGID_2_);fill:#BF3C1B;" d="M28.558,20.641c-3.428,0.342-7.809,1.823-8.613,5.659
			c-0.287,1.378-0.666,3.017-0.748,4.546c-0.027,0.494-0.023,0.976,0.025,1.435c0.061,0.565,1.287,6.129,1.32,5.55
			c0.504-8.647,2.578-11.514,3.018-12.77c10.355,1.518,15.697,1.063,19.475,0.63c1.461-0.169,5.004-0.523,3.238-2.771
			C45.104,21.434,33.427,20.154,28.558,20.641z"/>
		<path style="opacity:0.3;clip-path:url(#SVGID_2_);fill:#D14F2E;" d="M17.333,36.199c-1.123-0.54-4.17-0.18-3.031,1.673
			c0.957-1.476,2.109-0.293,1.748,0.792c-0.242,0.729-1.338,0.607-0.391,1.695c0.512,0.587,1.73,0.538,2.373,0.334
			C20.067,40.045,18.698,36.854,17.333,36.199z"/>
		<path style="clip-path:url(#SVGID_2_);fill:#1F1A17;" d="M41.966,14.865c-4.92-2.282-12.512-2.948-17.814-0.271
			c-1.648,0.832-3.074,1.987-4.135,3.517c-2.303,3.332-5.217,8.813-4.027,12.854c0.268,0.905,0.119,2.19,0.445,3.105
			c0.795,2.238,2.012,10.969,3.934,11.01c0.719,0.015,2.775,0.489,2.426-0.164c-3.084-5.755-2.303-15.886,0.262-20.661
			c15.9,1.936,24.957-0.262,24.357-3.833C46.997,17.963,44.081,15.848,41.966,14.865z"/>
		<path style="clip-path:url(#SVGID_2_);fill:#FAB27B;" d="M29.925,37.458c-1.078-0.841-2.719-0.524-3.846-0.15
			c-1.471,0.485-3.248,1.692-1.258,3.402c1.057,0.911,7.164-0.23,5.646-2.645C30.31,37.816,30.128,37.616,29.925,37.458z"/>
		<path style="clip-path:url(#SVGID_2_);fill:#FAB27B;" d="M45.573,35.581c-0.686,0.167-1.285,0.547-1.656,1.009
			c-0.621,0.775-0.604,1.786,0.73,2.427c1.285,0.621,4.057,0.746,4.725-0.938C50.288,35.776,47.05,35.219,45.573,35.581z"/>
		<path style="clip-path:url(#SVGID_2_);fill:#F5AE79;" d="M36.433,49.465c-1.299,0.418-1.754,1.369-1.824,2.483
			c0.014-0.189,0.693-1.278,2.652-1.577c1.16-0.178,2.914,0.282,3.504,1.012C40.905,49.567,38.019,48.952,36.433,49.465z"/>
		<path style="clip-path:url(#SVGID_2_);fill:#1F1A17;" d="M43.979,26.213c-1.234,0.142-2.648,1.125-3.885,0.814
			c0.184,1.328,1.016,2,2.164,2.17c1.012,0.153,1.705-0.195,2.496-0.543c0.307-0.136,0.631-0.271,0.992-0.374
			c0.604-0.177,1.113-0.026,1.721-0.015c-0.035-0.206-0.105-0.425-0.209-0.605C46.53,26.372,45.259,26.065,43.979,26.213z"/>
		<path style="clip-path:url(#SVGID_2_);fill:#1F1A17;" d="M30.372,27.65c-0.77-0.141-1.57-0.542-2.322-0.616
			c-1.904-0.193-3.842,2.345-2.623,3.996c0.244-0.215,0.457-0.495,0.686-0.737c1.189-1.262,2.91-0.303,4.338-0.052
			c1.912,0.333,2.822-0.867,2.742-2.687C32.267,27.874,31.317,27.823,30.372,27.65z"/>
		<path style="opacity:0.3;clip-path:url(#SVGID_2_);fill:#BC551E;" d="M44.229,39.388c0.197-0.081,0.781,0.532,0.799,0.729
			c0.029,0.393-0.43,0.641-0.717,0.799c-0.973,0.54-2.219,0.612-3.293,0.798c-2.719,0.47-5.436,0.641-8.189,0.38
			c-1.529-0.145-3.104-0.504-4.543-1.043c0.043-0.039,0.09-0.077,0.143-0.11c0.76-0.472,1.887-0.534,1.563-0.677
			c-1.713-0.747-3.639,0.136-5.004,1.115c1.568-0.339,3.213-0.211,4.096,1.304c2.23,3.834,4.529,6.395,8.264,6.333
			c4.883-0.08,5.906-3.319,6.506-5.48c0.25-0.891,0.576-1.35,1.168-1.998c0.662-0.723,1.299-1.295,2.068-1.639
			c0.504-0.225,1.064-0.351,1.729-0.359C47.749,38.521,45.442,38.896,44.229,39.388z"/>
		<path style="clip-path:url(#SVGID_2_);fill:#8F322D;" d="M29.364,41.951c0,0,2.477,5.634,8.238,5.182
			c3.908-0.307,5.469-2.233,5.906-3.893c0.465-1.749,1.459-2.251,1.459-2.251C36.866,44.606,29.364,41.951,29.364,41.951z"/>
		<path style="clip-path:url(#SVGID_2_);fill:#FFF3E2;" d="M31.3,42.473c0,0,0.186,1.813,2.014,2.443
			c2.342,0.81,4.908,0.83,7.473,0.072c1.729-0.51,2.557-3.293,2.557-3.293S38.458,43.522,31.3,42.473z"/>
		<path style="clip-path:url(#SVGID_2_);fill:#FFF3E2;" d="M38.745,45.066c-2.469,0.111-4.619-0.137-5.805-0.546
			c-0.99-0.34-0.965,0.178-0.754,0.63c0,0,0.441,1.86,4.969,2.049c3.961,0.166,5.514-2.258,5.041-2.73
			C41.724,43.994,41.214,44.953,38.745,45.066z"/>
		<path style="clip-path:url(#SVGID_2_);fill:#E8DAC5;" d="M31.29,42.445c0,0,0.061,1.076,0.75,1.627c0,0,8.281-1.138,10.406-0.484
			c0,0,0.816-1.171,0.896-1.893C43.343,41.695,37.194,43.545,31.29,42.445z"/>
		<path style="clip-path:url(#SVGID_2_);fill:#E8DAC5;" d="M33.454,44.518c4.01,1.671,8.195-0.127,8.195-0.127
			C36.901,45.491,33.454,44.518,33.454,44.518z"/>
		<path style="opacity:0.3;clip-path:url(#SVGID_2_);fill:#BC551E;" d="M46.005,36.932c-0.291,0.007-0.809,0.157-1.041,0.341
			c-0.549,0.43,0.193,0.285,0.514,0.471c0.721,0.418,0.117,1.349-0.512,1.384c-1.098,0.06-2.186,0.142-3.289,0.238
			c-3.328,0.29-6.67,0.756-10.016,0.716c-0.748-0.009-2.17,0.242-2.799-0.236c-0.943-0.722,1.293-1.392,0.119-1.585
			c-0.787-0.13-1.832,0.876-2.119,1.525c-0.049,0.11-0.086,0.223-0.105,0.334c-0.264,1.406,0.928,2.202,2.006,2.797
			c0.953,0.526,2.008,0.512,3.061,0.425c1.08-0.089,2.096-0.021,3.178,0.034c1.055,0.054,2.104,0.137,3.16,0.056
			c1.047-0.081,2.061-0.297,3.094-0.44c1.852-0.256,3.443-0.15,4.932-1.486c0.912-0.817,1.359-1.446,1.277-2.706
			C47.403,37.9,47.065,36.91,46.005,36.932z"/>
		<path style="clip-path:url(#SVGID_2_);fill:#1F1A17;" d="M44.669,37.436c0.707-0.431,1.375,0.008,1.344,0.502
			c-0.049,0.762-1.004,0.69-1.535,0.639c-1.693-0.166-3.48-0.776-5.211-0.23c-2.248,0.709-3.785-0.098-6.119,0.26
			c-1.174,0.18-2.338,0.579-3.439,0.879c-0.57,0.155-1.314,0.26-1.457-0.37c-0.109-0.481,0.566-0.982,1.094-0.589
			c-0.262-0.533-1.299-0.666-1.793-0.486c-0.809,0.294-1.023,0.954-0.875,1.697c0.221,1.129,1.844,1.879,2.82,2.258
			c1.422,0.554,3.164,0.833,4.678,1.02c1.1,0.138,2.209,0.18,3.318,0.143c1.178-0.037,2.346-0.168,3.494-0.43
			c1.443-0.328,2.871-0.848,4.113-1.666c0.971-0.639,2.447-1.491,2.311-2.979C47.286,36.728,45.511,36.178,44.669,37.436z"/>
		<path style="clip-path:url(#SVGID_2_);fill:#332823;" d="M15.208,23.428c-0.063,1.322,2.697,2.474,3.689,2.65
			c-0.668,0.142-1.295,0.204-1.984,0.118c-0.721-0.091-1.488-0.599-2.201-0.544c0.197,1.587,2.648,1.925,3.834,2.441
			c-0.49,0.104-0.859,0.161-1.352,0.136c-0.338-0.018-0.955-0.226-1.281-0.097c-0.973,0.386-0.627,2.639-0.527,3.424
			c0.172,1.329,1.029,2.826,2.053,0.573c-0.336,3.282,3.037,8.428,2.764,6.267c-0.307-2.442-0.135-4.695,0.164-7.11
			c0.143-1.165,0.244-2.267,0.533-3.418c0.066-0.265,0.738-3.251,0.715-3.251c-0.652-0.002-1.305-0.073-1.953-0.13
			C18.108,24.354,16.755,23.531,15.208,23.428z"/>
		<path style="clip-path:url(#SVGID_2_);fill:#332823;" d="M37.737,22.597c-9.914,1.416-17.436,0.052-17.436,0.052
			s10.07,2.703,19.344,1.431c9.275-1.272,7.949-4.134,7.949-4.134S47.651,21.177,37.737,22.597z"/>
		<path style="clip-path:url(#SVGID_2_);fill:#332823;" d="M42.612,39.024c-1.377-0.265-2.436-0.318-3.656,0.158
			c-1.219,0.477-2.184,0.656-3.59,0.071c-1.719-0.712-5.578,0.565-5.049,1.202c0.531,0.635,2.332,0.317,2.332,0.317
			s0.053,0.848,0.795,1.06s2.121-0.795,2.121-0.795s-0.055,1.007,0.953,1.061c1.008,0.053,1.857-1.113,1.857-1.113
			s0.639,1.072,1.641,0.9s0.9-1.06,0.9-1.06s1.211,0.6,1.961,0.37s0.318-1.271,0.318-1.271s0.848,0.424,1.961-0.106
			C46.271,39.288,43.991,39.288,42.612,39.024z"/>
		<path style="clip-path:url(#SVGID_2_);fill:#332823;" d="M19.64,17.406c2.842,2.539,6.865,2.107,10.295,1.601
			c-2.238,1.579-9.525,1.313-12.777,0.383c2.516,1.345,5.729,2.505,13.197,2.817c5.084,0.212,10.131-0.594,14.805-2.698
			c1.844-0.831,3.811-2.139,5.09-3.772c-1.877-0.686-10.029-5.752-15.951-6.795C23.382,7.021,15.743,13.922,19.64,17.406z"/>
	</g>
</g>
<g id="Layer_1">
</g>
</svg>
