<?xml version="1.0" encoding="iso-8859-1"?>
<!-- Generator: Adobe Illustrator 16.0.0, SVG Export Plug-In . SVG Version: 6.00 Build 0)  -->
<!DOCTYPE svg PUBLIC "-//W3C//DTD SVG 1.1//EN" "http://www.w3.org/Graphics/SVG/1.1/DTD/svg11.dtd">
<svg version="1.1" xmlns="http://www.w3.org/2000/svg" xmlns:xlink="http://www.w3.org/1999/xlink" x="0px" y="0px"
	 width="66.002px" height="66px" viewBox="0 0 66.002 66" style="enable-background:new 0 0 66.002 66;" xml:space="preserve">
<g id="Layer_78">
	<g>
		<defs>
			<circle id="SVGID_1_" cx="33.002" cy="33" r="33"/>
		</defs>
		<clipPath id="SVGID_2_">
			<use xlink:href="#SVGID_1_"  style="overflow:visible;"/>
		</clipPath>
		<rect style="clip-path:url(#SVGID_2_);fill:#FFFFFF;" width="66" height="66"/>
		<path style="clip-path:url(#SVGID_2_);fill:#A9ACB0;" d="M45.914,54.635c0,0-3.341,3.551-3.342,3.549
			c0.462,0.897,0.858,4.239,1.173,7.816h4.966C48.019,57.906,47.371,55.694,45.914,54.635z"/>
		<path style="clip-path:url(#SVGID_2_);fill:#A9ACB0;" d="M21.691,54.635c-1.458,1.06-2.104,3.271-2.798,11.365h4.966
			c0.315-3.577,0.712-6.919,1.174-7.816C25.032,58.186,21.691,54.635,21.691,54.635z"/>
		<path style="clip-path:url(#SVGID_2_);fill:#3A3A4A;" d="M41.545,52.547c-4.893-2.627-12.025-1.721-15.277,0.395
			C22.24,55.561,22.646,59.727,23.637,66h20.275C44.998,59.836,45.486,54.664,41.545,52.547z"/>
		<path style="clip-path:url(#SVGID_2_);fill:#6E7073;" d="M33.352,47.73c-8.662,0-8.966,11.496,0.417,11.496
			C42.538,59.227,45.399,47.73,33.352,47.73z"/>
		<path style="clip-path:url(#SVGID_2_);fill:#EBEBEB;" d="M33.352,47.107c-8.662,0-8.966,10.953,0.417,10.953
			C42.538,58.061,45.399,47.107,33.352,47.107z"/>
		<path style="clip-path:url(#SVGID_2_);fill:#ED9D6C;" d="M36.278,46.641c-1.966-0.398-5.176-0.201-6.821,1.021
			c-5.724,4.252,2.003,8.059,4.346,8.994c2.882-1.189,6.206-3.602,6.029-5.947C39.689,48.855,38.328,47.057,36.278,46.641z"/>
		<polygon style="clip-path:url(#SVGID_2_);fill:#B8BBBF;" points="32.66,57.908 34.879,57.865 33.8,56.854 		"/>
		<path style="clip-path:url(#SVGID_2_);fill:#A9ACB0;" d="M46.083,54.779c-0.411-1.072-4.735-2.672-4.735-2.672
			C38.832,56.51,37.726,61.469,37.306,66h6.864C45.038,59.33,46.421,55.658,46.083,54.779z"/>
		<path style="clip-path:url(#SVGID_2_);fill:#8E9194;" d="M41.262,48.764c0,0-3.168,8.402-3.021,11.414
			c3.556-5.199,8.911-8.184,8.967-8.816C47.263,50.732,44.008,48.939,41.262,48.764z"/>
		<path style="clip-path:url(#SVGID_2_);fill:#8E9194;" d="M38.827,61.557c-0.129,0.118-0.549,2.461-0.8,4.443h5.42
			c0.263-1.971,0.505-4.287,0.5-4.426C43.937,61.246,39.046,61.354,38.827,61.557z"/>
		<path style="clip-path:url(#SVGID_2_);fill:#B8BBBF;" d="M39.037,61.295c-0.124,0.125-0.542,2.674-0.769,4.705h5.002
			c0.254-2.021,0.499-4.543,0.494-4.688C43.754,60.984,39.239,61.094,39.037,61.295z"/>
		<path style="clip-path:url(#SVGID_2_);fill:#8E9194;" d="M38.979,60.93c-0.153,0.037-0.571,1.906-0.495,2.096
			c0.076,0.191,2.521,1.359,2.675,1.359c0.152,0,2.63-1.221,2.744-1.297s0.214-1.908-0.038-2.021
			C43.521,60.914,39.132,60.893,38.979,60.93z"/>
		<circle style="clip-path:url(#SVGID_2_);fill:#3A3A4A;" cx="41.196" cy="63.355" r="0.457"/>
		<path style="clip-path:url(#SVGID_2_);fill:#8E9194;" d="M40.877,57.48c1.602,1.039,4.36,0.18,4.36,0.031
			S40.736,57.391,40.877,57.48z"/>
		<path style="clip-path:url(#SVGID_2_);fill:#8E9194;" d="M45.862,57.684c-0.124-0.024-1.256,4.523-1.755,8.316h0.211
			C44.921,63.046,45.967,57.703,45.862,57.684z"/>
		<path style="clip-path:url(#SVGID_2_);fill:#A9ACB0;" d="M21.607,54.779C21.269,55.658,22.651,59.33,23.521,66h6.864
			c-0.42-4.531-1.526-9.49-4.042-13.893C26.343,52.107,22.019,53.707,21.607,54.779z"/>
		<path style="clip-path:url(#SVGID_2_);fill:#8E9194;" d="M20.482,51.361c0.057,0.633,5.411,3.617,8.968,8.816
			c0.146-3.012-3.021-11.414-3.021-11.414C23.683,48.939,20.428,50.732,20.482,51.361z"/>
		<path style="clip-path:url(#SVGID_2_);fill:#8E9194;" d="M23.743,61.574c-0.005,0.139,0.237,2.455,0.499,4.426h5.421
			c-0.251-1.982-0.671-4.325-0.8-4.443C28.645,61.354,23.755,61.246,23.743,61.574z"/>
		<path style="clip-path:url(#SVGID_2_);fill:#B8BBBF;" d="M23.926,61.313c-0.005,0.145,0.239,2.667,0.494,4.688h5.002
			c-0.228-2.031-0.645-4.58-0.769-4.705C28.451,61.094,23.937,60.984,23.926,61.313z"/>
		<path style="clip-path:url(#SVGID_2_);fill:#8E9194;" d="M23.826,61.066c-0.253,0.113-0.153,1.945-0.039,2.021
			s2.592,1.297,2.745,1.297c0.152,0,2.598-1.168,2.674-1.359c0.077-0.189-0.342-2.059-0.494-2.096
			C28.559,60.893,24.17,60.914,23.826,61.066z"/>
		<circle style="clip-path:url(#SVGID_2_);fill:#3A3A4A;" cx="26.494" cy="63.355" r="0.457"/>
		<path style="clip-path:url(#SVGID_2_);fill:#8E9194;" d="M22.454,57.512c0,0.148,2.758,1.008,4.36-0.031
			C26.955,57.391,22.454,57.363,22.454,57.512z"/>
		<path style="clip-path:url(#SVGID_2_);fill:#8E9194;" d="M23.372,66h0.212c-0.501-3.793-1.632-8.341-1.756-8.316
			C21.725,57.703,22.77,63.046,23.372,66z"/>
		<path style="clip-path:url(#SVGID_2_);fill:#2B241F;" d="M29.637,10.236c-19.401,4.493-15.226,27.293-9.554,26.124
			c3.445-0.713,6.859-1.623,10.27-2.498c3.333-0.854,7.24-1.195,10.555-0.037c0.99,0.345,1.808,0.998,2.836,1.263
			c3.368,0.869,6.168-0.408,6.499-3.997c0.018-0.189,0.031-0.377,0.04-0.572c0.151-2.885-0.473-6.38-1.209-9.077
			C46.775,13.013,37.854,8.333,29.637,10.236z"/>
		<path style="clip-path:url(#SVGID_2_);fill:#857265;" d="M48.735,29.26c0.037,0.542-0.191,2.332,0.738,2.206
			c0.877-0.119,0.844-1.854,0.863-2.446c0.042-1.142-0.492-4.134-0.492-4.134C47.744,25.105,48.64,27.902,48.735,29.26z"/>
		<path style="clip-path:url(#SVGID_2_);fill:#FFB67D;" d="M32.642,14.562c-8.397,0.558-16.64,9.811-14.053,19.942
			c1.333,5.229,1.263,6.508,3.282,11.744c2.05,5.314,7.216,8.65,14.386,8.389c6.513-0.238,8.947-3.504,10.752-9.055
			c1.265-3.896,2.293-8.197,1.994-13.1C48.366,22.027,41.041,14.001,32.642,14.562z"/>
		<path style="clip-path:url(#SVGID_2_);fill:#FFB67D;" d="M16.176,32.551c-4.171,1.052-2.674,6.4,0.675,7.443
			c1.072,0.336,2.224,0.373,3.332,0.293c0.023-0.031,0.047-0.063,0.067-0.096c0.519-0.699-0.258-4.262-0.487-4.996
			C19.181,33.347,18.176,32.045,16.176,32.551z"/>
		<path style="opacity:0.4;clip-path:url(#SVGID_2_);fill:#BC551E;" d="M43.515,18.61c-3.952-0.652-8.65,0.376-12.607,1.066
			c-2.738,0.478-5.653,1.469-7.353,3.863c-1.618,2.28-4.053,4.573-3.698,7.654c0.077,0.661,1.76,4.548,2.065,2.984
			c0.457-2.349,0.819-5.725,1.232-5.633c1.773,0.396,6.72,1.1,8.592,0.965c4.943-0.357,8.858-1.533,13.01-4.321
			C48.34,22.782,45.152,18.881,43.515,18.61z"/>
		<path style="clip-path:url(#SVGID_2_);fill:#2B241F;" d="M46.704,13.272c-3.102-2.747-7.517-3.938-11.557-4.279
			c-9.728-0.821-17.641,4.298-19.513,14.652c-0.697,3.86,0.71,7.665,2.354,9.012c1.229,1.009,1.891,4.203,3.955,3.207
			c0.697-0.338,0.569-0.998,0.372-1.623c-0.703-2.247-0.949-4.776,0.352-6.858c6.396,1.582,15.374-0.31,21.259-3.081
			c2.7-1.273,4.668-3.802,4.83-6.396C48.856,16.29,48.259,14.648,46.704,13.272z"/>
		<path style="clip-path:url(#SVGID_2_);fill:#857265;" d="M20.245,27.523c-1.068-0.462-1.695,0.575-2.679,0.438
			c-1.034-0.146-1.483-1.159-2.178-1.765c-0.186,1.321-0.176,3.07,0.282,4.008c0.804,1.645,1.463,1.059,3.101,1.98
			c2.043,1.153,2.262,3.241,3.238,2.319c-0.237-1.073-0.495-2.016-0.582-2.95C21.313,30.301,21.658,28.13,20.245,27.523z"/>
		<path style="opacity:0.5;clip-path:url(#SVGID_2_);fill:#B54319;" d="M18.355,34.555c-1.057-0.525-3.938-0.184-2.87,1.611
			c0.912-1.422,1.994-0.279,1.647,0.77c-0.232,0.705-1.267,0.586-0.377,1.641c0.481,0.566,1.633,0.523,2.241,0.328
			C20.926,38.279,19.646,35.193,18.355,34.555z"/>
		<path style="clip-path:url(#SVGID_2_);fill:#45362C;" d="M32.782,9.972c-4.715,0.221-10.168,2.33-12.771,6.804
			c-0.607,1.045-1.254,2.254-1.511,3.455c-0.102,0.485-0.298,3.463,6.514,4.728c-1.381,0.375-7.184-0.398-7.819-0.387
			c0.745,0.263,1.545,0.589,2.314,0.871c3.78,1.387,8.733,1.463,12.68,0.755c-1.314,0.812-3.195,1.113-4.711,1.11
			c1.64,0.081,3.315,0.011,4.948-0.194c4.366-0.556,8.992-2.064,12.31-5.272c2.437-2.351,2.689-4.931,1.564-6.931
			C44.085,10.977,36.773,9.784,32.782,9.972z"/>
		<path style="clip-path:url(#SVGID_2_);fill:#2B241F;" d="M33.861,28.878c12.602-2.84,13.951-8.282,13.951-8.282l-2.514,1.155
			C41.545,26.439,33.861,28.878,33.861,28.878z"/>
		<path style="opacity:0.3;clip-path:url(#SVGID_2_);fill:#B54319;" d="M25.321,33.878c0.038,0.6,1.373,0.317,1.774,0.413
			c-0.352,0.371-1.395,0.369-1.821,0.617c-0.456,0.27-0.41,0.451,0.131,0.438c0.324-0.008,2.137-0.434,2.371-0.635
			C28.764,33.862,25.779,33.755,25.321,33.878z"/>
		<path style="opacity:0.3;clip-path:url(#SVGID_2_);fill:#B54319;" d="M46.518,34.152c0.354-0.051,1.4,0.371,1.556-0.204
			c-0.354-0.173-2.852-0.394-2.208,0.536c0.153,0.221,1.568,0.836,1.838,0.877c0.445,0.07,0.522-0.098,0.197-0.408
			C47.597,34.662,46.733,34.553,46.518,34.152z"/>
		<path style="clip-path:url(#SVGID_2_);fill:#2B241F;" d="M42.411,29.173c0.358,1.463,1.903,0.85,2.802,0.752
			c0.587-0.063,2.001,0.35,2.665,0.037c0.095-0.044,0.174-0.104,0.233-0.18C49.933,27.394,41.686,26.211,42.411,29.173z"/>
		<path style="clip-path:url(#SVGID_2_);fill:#2B241F;" d="M25.646,29.835c0.063,0.08,0.149,0.14,0.253,0.185
			c0.724,0.317,2.271-0.118,2.912-0.059c0.979,0.094,2.663,0.714,3.064-0.794C32.682,26.114,23.665,27.392,25.646,29.835z"/>
		<path style="clip-path:url(#SVGID_2_);fill:#F59D66;" d="M45.597,35.541c-1.055-0.143-2.531,0.084-1.877,1.818
			c0.348,0.924,4.443,2.092,4.305,0.047c-0.015-0.211-0.063-0.4-0.134-0.564C47.506,35.957,46.405,35.652,45.597,35.541z"/>
		<path style="clip-path:url(#SVGID_2_);fill:#F59D66;" d="M28.607,35.918c-0.79-0.621-1.983-0.377-2.803-0.094
			c-1.07,0.367-2.362,1.277-0.906,2.545c0.773,0.672,5.22-0.209,4.105-2.002C28.892,36.182,28.757,36.033,28.607,35.918z"/>
		<path style="clip-path:url(#SVGID_2_);fill:#1F1A17;" d="M29.337,31.533c-1.772-1.039-3.333,2.214-2.186,3.469
			c0.615-0.107,1.31,0.039,1.834,0.379C30.311,34.859,30.656,32.306,29.337,31.533z"/>
		<path style="opacity:0.5;clip-path:url(#SVGID_2_);fill:#B54319;" d="M43.274,38.83c-0.322,0.086,0.257,0.234,1.014,0.484
			c0.146,0.047,0.232,0.139,0.281,0.254c-3.18,1.84-11.217,3.18-16.544-0.141c0.046-0.047,0.093-0.09,0.146-0.127
			c0.755-0.543,1.797-0.543,1.518-0.744c0,0-1.74-0.137-2.463,0.395c-0.647,0.475-0.718,2.057-0.227,2.15
			c0.389,0.07,0.457-0.785,0.819-1.395c0.267,1.738,1.71,9.09,7.66,9.398c4.479,0.234,5.967-2.125,6.3-4.965
			c0.186-1.584,1.826-3.477,2.838-4.381c0.052,0.484-0.256,1.168,0.089,1.236c0.492,0.098,1.033-0.9,0.747-1.75
			S43.274,38.83,43.274,38.83z"/>
		<path style="clip-path:url(#SVGID_2_);fill:#8F322D;" d="M28.897,40.635c0,0,1.547,7.131,6.874,7.076
			c4.794-0.047,5.49-2.441,5.791-4.123c0.402-2.248,1.742-3.096,1.742-3.096C35.424,44.484,28.897,40.635,28.897,40.635z"/>
		<path style="clip-path:url(#SVGID_2_);fill:#FFF3E2;" d="M30.601,41.422c0,0-0.062,2.291,1.529,3.211
			c2.041,1.178,4.388,1.379,6.832,0.602c1.646-0.523,2.764-3.965,2.764-3.965S37.019,43.23,30.601,41.422z"/>
		<path style="clip-path:url(#SVGID_2_);fill:#FFF3E2;" d="M37.083,45.191c-2.274-0.029-4.212-0.486-5.245-1.084
			c-0.859-0.494-0.903,0.156-0.77,0.74c0,0,0.161,2.371,4.285,2.916c3.604,0.482,5.339-2.461,4.968-3.086
			C39.948,44.049,39.358,45.221,37.083,45.191z"/>
		<path style="clip-path:url(#SVGID_2_);fill:#E8D5B8;" d="M30.594,41.387c0,0,0.002,1.283,0.323,1.818
			c0,0,8.189-1.105,10.051-0.139c0,0,0.638-1.254,0.758-1.797C41.726,41.27,35.859,43.174,30.594,41.387z"/>
		<path style="clip-path:url(#SVGID_2_);fill:#E8D5B8;" d="M32.308,44.139c3.457,2.379,7.521,0.402,7.521,0.402
			C35.341,45.602,32.308,44.139,32.308,44.139z"/>
		<path style="opacity:0.5;clip-path:url(#SVGID_2_);fill:#B54319;" d="M37.31,36.852c-1.132-0.035-1.604-0.475-2.371-0.121
			c-0.768,0.35,0.313,1.965,2.31,1.988c1.986,0.021,2.913-1.395,2.47-1.83C39.205,36.383,38.561,36.891,37.31,36.852z"/>
		<path style="clip-path:url(#SVGID_2_);fill:#FFCB96;" d="M37.226,31.302c-1.981-0.047-3.083,5.122-2.069,5.895
			c1.256,0.957,3.618,0.449,4.396-0.141C40.133,36.615,39.586,31.362,37.226,31.302z"/>
		<path style="clip-path:url(#SVGID_2_);fill:#1F1A17;" d="M44.325,34.813c0.56-0.273,1.236-0.348,1.785-0.176
			c0.91-0.774,1.244-2.576,0.295-3.371C44.633,29.778,42.239,33.837,44.325,34.813z"/>
		<path style="clip-path:url(#SVGID_2_);fill:#A88888;" d="M28.395,32.142c-0.788,0.174-0.384,1.751,0.418,1.289
			C29.391,33.094,29.095,31.988,28.395,32.142z"/>
		<path style="clip-path:url(#SVGID_2_);fill:#A88888;" d="M45.062,31.834c-0.789,0.047-0.648,1.653,0.202,1.327
			C45.877,32.927,45.764,31.792,45.062,31.834z"/>
		<path style="opacity:0.3;clip-path:url(#SVGID_2_);fill:#B54319;" d="M36.799,50.303c0.517-0.066,1.103,0.908,1.082,1.455
			c-0.021,0.588-1.684,1.432-0.092,1.314c0.954-0.07,1.305-0.93,0.993-1.77C38.355,50.156,37.687,50.189,36.799,50.303z"/>
	</g>
</g>
<g id="Layer_1">
</g>
</svg>
