<?xml version="1.0" encoding="iso-8859-1"?>
<!-- Generator: Adobe Illustrator 16.0.0, SVG Export Plug-In . SVG Version: 6.00 Build 0)  -->
<!DOCTYPE svg PUBLIC "-//W3C//DTD SVG 1.1//EN" "http://www.w3.org/Graphics/SVG/1.1/DTD/svg11.dtd">
<svg version="1.1" xmlns="http://www.w3.org/2000/svg" xmlns:xlink="http://www.w3.org/1999/xlink" x="0px" y="0px"
	 width="66.006px" height="66.001px" viewBox="0 0 66.006 66.001" style="enable-background:new 0 0 66.006 66.001;"
	 xml:space="preserve">
<g id="Layer_48">
	<g>
		<defs>
			<circle id="SVGID_1_" cx="33.006" cy="33.001" r="33"/>
		</defs>
		<clipPath id="SVGID_2_">
			<use xlink:href="#SVGID_1_"  style="overflow:visible;"/>
		</clipPath>
		<rect style="clip-path:url(#SVGID_2_);fill:#2B6877;" width="66" height="65.998"/>
		<path style="clip-path:url(#SVGID_2_);fill:#25252E;" d="M28.475,53.595c-3.908,0.615-7.902,5.164-8.533,12.402h6.531
			c0.201-3.756,0.541-7.762,1.153-8.844L28.475,53.595z"/>
		<path style="clip-path:url(#SVGID_2_);fill:#25252E;" d="M39.107,53.595l0.85,3.559c0.611,1.082,0.953,5.088,1.152,8.844h6.533
			C47.01,58.759,43.018,54.21,39.107,53.595z"/>
		<path style="clip-path:url(#SVGID_2_);fill:#25252E;" d="M40.217,53.878c-3.764-1.518-9.781-1.025-12.92,0.063
			c-1.914,0.664-1.672,6.715-1.412,12.057h15.818C41.978,60.687,42.176,54.669,40.217,53.878z"/>
		<path style="clip-path:url(#SVGID_2_);fill:#918FA0;" d="M28.067,52.925c-1.911,3.078,5.724,6.242,5.724,6.242
			s6.752-2.941,6.027-5.725C38.961,50.147,29.785,50.157,28.067,52.925z"/>
		<path style="clip-path:url(#SVGID_2_);fill:#F29F63;" d="M33.713,48.956c-1.982-0.002-4.775,1.004-4.975,3.645
			c-0.093,1.23,0.117,1.941,0.851,2.625c1.172,1.09,2.622,1.973,4.124,1.998c1.502-0.025,2.953-0.908,4.126-1.998
			c0.733-0.684,0.942-1.395,0.851-2.625C38.49,49.96,35.696,48.954,33.713,48.956z"/>
		<path style="clip-path:url(#SVGID_2_);fill:#EBA971;" d="M48.826,34.204c-1.544-0.592-2.514,0.377-3.02,2.293
			c-0.201,0.76-0.764,4.824-0.383,5.574c0.019,0.033,0.035,0.064,0.051,0.098c0.863,0.119,1.76,0.115,2.605-0.201
			C50.717,40.979,52.041,35.433,48.826,34.204z"/>
		<path style="clip-path:url(#SVGID_2_);fill:#D99A64;" d="M17.162,21.108c-1.029,4.857-1.26,11.303,1.078,15.945
			c1.221,2.426,4.135,0.807,6.193,0.299c2.529-0.627,5.073-1.199,7.619-1.758c4.182-0.924,8.77-0.006,13.014,0.396
			c3.323,0.316,3.568,1.871,3.57-0.834c0.004-3.352,0.859-8.877,0.008-12.557C44.498,4.71,19.639,9.421,17.162,21.108z"/>
		<path style="clip-path:url(#SVGID_2_);fill:#FFBC82;" d="M31.654,15.151C19.8,16.765,17.926,27.608,19.08,38.237
			c0.865,7.961,6.748,16.828,15.98,16.422c9.419-0.414,14.414-11.949,13.463-21.736C47.49,22.282,45.201,13.308,31.654,15.151z"/>
		<path style="clip-path:url(#SVGID_2_);fill:#FFBC82;" d="M16.461,33.751c-3.885,0.957-2.012,8.244,0.908,9.879
			c1.16,0.65,2.471,0.332,3.017-1.113c0.655-1.008,0.272-3.793-0.396-6.213C19.45,34.343,18.325,33.292,16.461,33.751z"/>
		<path style="opacity:0.4;clip-path:url(#SVGID_2_);fill:#B54D26;" d="M17.757,35.858c-0.855-0.422-3.036,0.238-2.066,1.959
			c0.579-1.555,1.508-0.5,1.331,0.613c-0.119,0.744-0.923,0.734-0.15,1.717c0.418,0.531,1.299,0.361,1.749,0.096
			C20.047,39.396,18.801,36.374,17.757,35.858z"/>
		<path style="clip-path:url(#SVGID_2_);fill:#261B18;" d="M27.039,31.206c-2.281-0.791-3.387,3.232-1.785,4.402
			c0.688-0.256,1.524-0.242,2.203,0.029C28.885,34.761,28.735,31.794,27.039,31.206z"/>
		<path style="opacity:0.4;clip-path:url(#SVGID_2_);fill:#B54D26;" d="M36.656,38.833c-1.232,0.045-1.732-0.508-2.584,0.027
			c-0.852,0.529,0.419,2.145,2.6,2.016c2.171-0.125,3.082-1.641,2.616-2.186C38.748,38.056,38.023,38.788,36.656,38.833z"/>
		<path style="clip-path:url(#SVGID_2_);fill:#FFD4AD;" d="M36.09,33.278c-0.999,0.158-2.217,5.523-1.661,5.906
			c1.364,0.938,4.125,0.381,4.859-0.494C39.576,38.345,37.219,33.103,36.09,33.278z"/>
		<path style="clip-path:url(#SVGID_2_);fill:#261B18;" d="M46.564,31.542c-2.217-1.412-3.991,2.893-2.166,4.17
			c0.6-0.373,1.779-0.221,2.346,0.061C47.676,34.796,47.753,32.3,46.564,31.542z"/>
		<path style="opacity:0.7;clip-path:url(#SVGID_2_);fill:#E6D2C3;" d="M26.302,31.946c-0.875,0.371-0.065,2.066,0.763,1.367
			C27.664,32.81,27.08,31.618,26.302,31.946z"/>
		<path style="opacity:0.7;clip-path:url(#SVGID_2_);fill:#E6D2C3;" d="M45.67,31.993c-0.892,0.154-0.515,1.91,0.408,1.439
			C46.744,33.095,46.464,31.858,45.67,31.993z"/>
		<path style="clip-path:url(#SVGID_2_);fill:#80523A;" d="M26.588,28.075c-1.351-0.006-3.391,1.342-4.372,2.242
			c0.231,0.449,1.046,0.209,1.429,0.107c0.652-0.168,1.328-0.439,1.59-0.506c1.144-0.293,2.445-0.236,3.49,0.256
			c0.557,0.264,1.869,0.879,2.257,0.066C31.757,28.61,27.42,28.081,26.588,28.075z"/>
		<path style="clip-path:url(#SVGID_2_);fill:#80523A;" d="M41.479,30.251c0.326,0.809,1.483,0.178,1.973-0.09
			c0.921-0.508,2.06-0.578,3.052-0.301c0.229,0.064,0.816,0.328,1.382,0.488c0.333,0.096,1.041,0.324,1.251-0.125
			c-0.844-0.887-2.605-2.211-3.785-2.186C44.625,28.054,40.828,28.636,41.479,30.251z"/>
		<path style="clip-path:url(#SVGID_2_);fill:#FFD4AD;" d="M47.676,37.88c-0.619-0.887-1.939-1.061-2.883-1.068
			c-1.232-0.01-2.869,0.438-1.764,2.193c0.59,0.934,5.496,1.613,4.916-0.543C47.885,38.239,47.793,38.048,47.676,37.88z"/>
		<path style="clip-path:url(#SVGID_2_);fill:#FFD4AD;" d="M28.676,37.106c-0.835-0.77-2.228-0.65-3.197-0.447
			c-1.264,0.266-2.84,1.092-1.313,2.643c0.813,0.824,5.995,0.42,4.916-1.658C28.971,37.431,28.834,37.253,28.676,37.106z"/>
		<path style="opacity:0.5;clip-path:url(#SVGID_2_);fill:#94110C;" d="M46.135,41.325c-0.844,0.525-2.221,0.176-2.932-0.867
			c-0.21,0.747-0.02,1.33,0.347,1.702c-1.197,2.897-4.394,4.765-8.093,4.692c-3.603-0.069-6.463-1.964-7.651-4.445
			c0.323-0.389,0.413-1.007,0.017-1.777c-0.475,1.078-1.763,1.512-2.719,1.039c0.388,0.758,0.981,1.117,1.538,1.176
			c1.375,2.819,4.548,4.964,8.527,5.145c0.114,0.004,0.228,0.008,0.343,0.01c4.261,0.082,7.903-2.046,9.276-5.396
			C45.357,42.537,45.907,42.14,46.135,41.325z"/>
		<path style="clip-path:url(#SVGID_2_);fill:#D99A64;" d="M32.814,13.071c-9.616-0.078-16.453,6.824-15.816,20.588
			c0.4-0.012,1.224-0.012,1.822,0.576c0.797,0.783,0.768,1.641,0.986,2.072c0.102,0.221,0.217,0.584,0.977,0.547
			c-1.43-4.625-0.605-11.115,0.967-13.223c3.898-5.229,12.654,1.84,15.557,1.732c2.19-0.08,7.463-6.668,9.552-1.721
			C48.281,27.017,48.243,13.2,32.814,13.071z"/>
		<circle style="clip-path:url(#SVGID_2_);fill:#FFFFFF;" cx="18.205" cy="42.19" r="1.021"/>
	</g>
</g>
<g id="Layer_1">
</g>
</svg>
