<?xml version="1.0" encoding="iso-8859-1"?>
<!-- Generator: Adobe Illustrator 16.0.0, SVG Export Plug-In . SVG Version: 6.00 Build 0)  -->
<!DOCTYPE svg PUBLIC "-//W3C//DTD SVG 1.1//EN" "http://www.w3.org/Graphics/SVG/1.1/DTD/svg11.dtd">
<svg version="1.1" xmlns="http://www.w3.org/2000/svg" xmlns:xlink="http://www.w3.org/1999/xlink" x="0px" y="0px"
	 width="66.012px" height="66px" viewBox="0 0 66.012 66" style="enable-background:new 0 0 66.012 66;" xml:space="preserve">
<g id="Layer_18">
	<g>
		<defs>
			<circle id="SVGID_1_" cx="33.012" cy="33" r="33"/>
		</defs>
		<clipPath id="SVGID_2_">
			<use xlink:href="#SVGID_1_"  style="overflow:visible;"/>
		</clipPath>
		<rect style="clip-path:url(#SVGID_2_);fill:#983C48;" width="66" height="66"/>
		<path style="clip-path:url(#SVGID_2_);fill:#FFC38F;" d="M29.342,57.563c1.229-1.033,1.046-4.449-0.736-3.824
			C25.02,54.996,24.77,59.206,23.289,66h3.319C27.253,63.011,27.796,58.861,29.342,57.563z"/>
		<path style="clip-path:url(#SVGID_2_);fill:#FFC38F;" d="M38.789,53.738c-1.782-0.625-1.965,2.791-0.736,3.824
			c1.546,1.299,2.089,5.448,2.733,8.438h3.319C42.625,59.206,42.375,54.996,38.789,53.738z"/>
		<linearGradient id="SVGID_3_" gradientUnits="userSpaceOnUse" x1="33.6978" y1="50.5957" x2="33.6978" y2="55.741">
			<stop  offset="0" style="stop-color:#EE996D"/>
			<stop  offset="0.0163" style="stop-color:#EE9A6E"/>
			<stop  offset="0.3731" style="stop-color:#F8B181"/>
			<stop  offset="0.7088" style="stop-color:#FDBF8D"/>
			<stop  offset="1" style="stop-color:#FFC491"/>
		</linearGradient>
		<path style="clip-path:url(#SVGID_2_);fill:url(#SVGID_3_);" d="M36.976,52.92c-2.079-0.908-0.678-3.391-3.405-3.391
			c-2.683,0-1.473,2.8-3.42,3.533c-4.534,1.714-4.499,4.344-1.814,7.028c2.681,2.681,7.399,3.071,11.075-0.261
			C43.092,56.497,39.051,53.828,36.976,52.92z"/>
		<path style="clip-path:url(#SVGID_2_);fill:#AD9162;" d="M39.27,62.19c1.915-4.281-0.096-6.544-1.094-8.837
			c-0.182-0.15-1.037-0.534-1.229-0.561c0.379,1.68,0.951,5.763-3.25,5.763c-4.245,0-3.83-3.378-3.527-5.642
			c-0.268-0.013-0.671,0.175-0.921,0.421c-1.188,3.608-3.168,4.623-1.348,8.978c0.468,1.115,1.144,2.452,1.085,3.688H38
			C38.018,64.582,38.661,63.553,39.27,62.19z"/>
		<path style="opacity:0.1;clip-path:url(#SVGID_2_);" d="M29.747,62.9c0.426,0.716,1.719,0.705,2.729,0.894
			c-0.176,0.024-0.35,0.096-0.535,0.122c1.22,0.337,2.917,0.079,4.124-0.275c0.386-0.113,1.421-0.76,1.627-0.782
			c-1.429,0.162-2.757,0.281-4.21,0.251C32.213,63.085,30.981,62.92,29.747,62.9z"/>
		<path style="clip-path:url(#SVGID_2_);fill:#D4C1A1;" d="M36.616,52.348c-0.246,0.056-0.4,0.301-0.345,0.547
			c0.193,0.854,0.706,3.127-0.259,4.335c-0.461,0.577-1.24,0.869-2.315,0.869c-1.177,0-2.014-0.277-2.489-0.822
			c-0.813-0.932-0.581-2.619-0.396-3.976l0.039-0.291c0.034-0.251-0.142-0.48-0.392-0.514c-0.258-0.03-0.48,0.143-0.514,0.392
			l-0.039,0.29c-0.211,1.538-0.474,3.454,0.611,4.699c0.657,0.753,1.727,1.136,3.179,1.136c1.367,0,2.387-0.408,3.029-1.212
			c1.24-1.552,0.655-4.136,0.436-5.108C37.107,52.446,36.867,52.288,36.616,52.348z"/>
		<path style="clip-path:url(#SVGID_2_);fill:#D4C1A1;" d="M29.066,53.169c-0.237-0.079-0.497,0.052-0.576,0.292
			c-0.291,0.889-0.592,1.587-0.856,2.203c-0.477,1.107-0.854,1.981-0.918,3.274c-0.014,0.252,0.181,0.467,0.434,0.479
			c0.008,0,0.016,0,0.022,0c0.242,0,0.444-0.189,0.456-0.434c0.058-1.129,0.388-1.896,0.845-2.959
			c0.272-0.634,0.582-1.353,0.886-2.279C29.438,53.506,29.307,53.248,29.066,53.169z"/>
		<path style="clip-path:url(#SVGID_2_);fill:#D4C1A1;" d="M38.746,53.461c-0.079-0.24-0.34-0.371-0.576-0.292
			c-0.24,0.079-0.371,0.338-0.292,0.578c0.305,0.925,0.613,1.642,0.886,2.274c0.459,1.064,0.789,1.832,0.848,2.963
			c0.012,0.244,0.214,0.434,0.456,0.434c0.007,0,0.015,0,0.022,0c0.253-0.013,0.446-0.229,0.434-0.479
			c-0.066-1.295-0.443-2.17-0.92-3.278C39.339,55.045,39.038,54.347,38.746,53.461z"/>
		<path style="opacity:0.07;clip-path:url(#SVGID_2_);fill:#FFFFFF;" d="M36.627,58.741c-2.062,0.706-4.575,0.423-6.684-0.079
			c-1.22-0.287-1.908,1.036-1.536,2.165c0.489,1.494,3.014,1.877,5.211,1.835c4.341-0.08,5.97-1.63,5.245-3.469
			C38.666,58.697,37.736,58.364,36.627,58.741z"/>
		<path style="clip-path:url(#SVGID_2_);fill:#1C9E8F;" d="M33.681,54.229c-0.48,0-0.876,0.391-0.876,0.878
			c0,0.481,0.396,0.876,0.876,0.876c0.487,0,0.879-0.395,0.879-0.876C34.56,54.619,34.168,54.229,33.681,54.229z"/>
		<path style="clip-path:url(#SVGID_2_);fill:#1C9E8F;" d="M35.675,53.776c-0.43,0-0.773,0.348-0.773,0.772
			c0,0.428,0.344,0.773,0.773,0.773c0.423,0,0.771-0.346,0.771-0.773C36.445,54.124,36.098,53.776,35.675,53.776z"/>
		<path style="clip-path:url(#SVGID_2_);fill:#1C9E8F;" d="M36.722,52.655c-0.347,0-0.629,0.281-0.629,0.63
			c0,0.35,0.282,0.63,0.629,0.63c0.351,0,0.633-0.28,0.633-0.63C37.354,52.937,37.072,52.655,36.722,52.655z"/>
		<path style="clip-path:url(#SVGID_2_);fill:#1C9E8F;" d="M36.817,51.807c-0.247,0-0.446,0.199-0.446,0.447
			c0,0.249,0.199,0.45,0.446,0.45c0.249,0,0.451-0.201,0.451-0.45C37.269,52.006,37.066,51.807,36.817,51.807z"/>
		<circle style="clip-path:url(#SVGID_2_);fill:#1C9E8F;" cx="31.694" cy="54.549" r="0.773"/>
		<circle style="clip-path:url(#SVGID_2_);fill:#1C9E8F;" cx="30.644" cy="53.285" r="0.63"/>
		<circle style="clip-path:url(#SVGID_2_);fill:#1C9E8F;" cx="30.549" cy="52.255" r="0.449"/>
		<path style="clip-path:url(#SVGID_2_);fill:#261B18;" d="M37.081,9.309c-0.695-1.819-0.809-2.476-0.498-3.669
			c-1.392,0.584-2.716,2.072-2.929,3.221c-1.159-1.825-3.865-3.383-6.118-3.247c1.059,1.009,1.965,2.444,2.282,3.656
			c-1.499,0.218-2.557,0.244-4.065,0.443c-7.766,1.024-12.313,5.715-14.341,12.749c-0.958,3.32-0.53,7.935-0.049,11.329
			c0.242,1.72,1.971,6.094,0.044,7.423c-1.126,0.774-2.721-0.052-2.455-1.423c-1.855,1.099-2.076,3.694-0.525,5.056
			c1.611,1.413,4.523,1.553,6.452,0.87c-0.511,2.387,0.431,5.949,1.987,7.702c0.242-1.032,0.853-2.133,1.672-2.758
			c-0.508,0.389,1.649,1.478,1.87,1.523c0.848,0.176,1.774-0.227,2.561-0.488c2.223-0.748,3.931-2.006,6.311-2.503
			c1.91-0.402,18.788,2.727,18.276-0.61c0.135,0.866,0.213,1.765,0.334,2.644c1.79-1.39,3.339-3.619,3.119-5.977
			c2.645-0.377,4.391-1.16,3.574-4.12c-0.424,1.173-1.86,1.111-2.841,0.659c-3.229-1.485-0.947-7.061,0.468-10.84
			c0.398-1.055,0.726-1.973,0.846-2.618c0.093,0.068,1.854,2.979,1.832,3.104C55.834,26.477,56.116,10.15,37.081,9.309z"/>
		<circle style="clip-path:url(#SVGID_2_);fill:#1C9E8F;" cx="47.577" cy="41.114" r="1.361"/>
		<path style="clip-path:url(#SVGID_2_);fill:#FFC38F;" d="M30.397,13.726C22.721,15.332,17.444,26.47,19,36.833
			c1.163,7.767,7.273,16.214,16.302,15.452c9.212-0.78,13.642-12.277,12.324-21.823C46.191,20.081,41.151,11.478,30.397,13.726z"/>
		<path style="opacity:0.4;clip-path:url(#SVGID_2_);fill:#BC551E;" d="M45.61,17.17c-1.621-0.955-3.476-1.433-5.272-1.942
			c-3.043-0.867-6.184-1.328-9.354-1.34c-2.809-0.013-5.864-0.128-8.47,1.092c-1.429,0.671-3.186,1.588-3.703,3.188
			c-0.643,1.992-0.286,4.484,0.065,6.502c0.388,2.214,0.956,4.476,2.166,6.396c0.08-1.522,0.754-3.114,1.675-4.292
			c0.752-0.962,1.829-2.715,3.132-2.945c-0.017,0.002-0.869,2.518-1.01,2.778c-0.464,0.873-1.331,1.296-2.156,1.818
			c0.802,0.683,3.192,0.546,4.159,0.351c0.669-0.138,1.463-0.343,2-0.762c-0.084,0.231-0.104,0.521-0.105,0.786
			c1.267-0.175,2.556-0.131,3.853-0.404c0.997-0.212,1.871-0.566,2.781-0.923c-0.126,0.187-0.229,0.403-0.274,0.617
			c0.268-0.039,0.527-0.212,0.769-0.296c-0.111,0.285-0.221,0.61-0.192,0.912c2.478-0.065,5.066-0.108,7.531-0.347
			c4.015-0.388,5.233-7.983,4.336-9.426C47.07,18.184,46.365,17.619,45.61,17.17z"/>
		<path style="clip-path:url(#SVGID_2_);fill:#FFC38F;" d="M16.256,32.546c-3.767,1.091-2.177,6.59,0.927,7.654
			c0.993,0.345,2.048,0.379,3.059,0.294c0.019-0.032,0.037-0.063,0.058-0.097c0.441-0.722-0.243-4.735-0.487-5.49
			C19.205,33.006,18.062,32.02,16.256,32.546z"/>
		<path style="opacity:0.4;clip-path:url(#SVGID_2_);fill:#D14F2E;" d="M17.607,34.558c-0.854-0.38-2.964,0.356-1.947,2.003
			c0.507-1.547,1.459-0.552,1.329,0.546c-0.088,0.734-0.874,0.756-0.077,1.688c0.429,0.503,1.284,0.305,1.715,0.026
			C19.991,37.934,18.652,35.022,17.607,34.558z"/>
		<path style="clip-path:url(#SVGID_2_);fill:#261B18;" d="M46.569,16.055c-1.646-1.115-2.582-2.865-4.489-3.777
			c-1.661-0.795-3.634-1.454-5.448-1.778c-2.573-0.463-5.334-0.476-7.922-0.132c-4.349,0.578-9.584,2.718-10.898,7.355
			c-0.809,2.846-0.325,6.131-0.066,9.026c0.294,3.333-0.197,7.306,2.954,9.509c0.197-0.802,0.145-1.685,0.268-2.505
			c0.155-1.082,0.452-2.171,0.382-3.278c-0.067-1.109-0.187-1.979,0.058-3.119c0.398-1.842,1.753-3.404,3.19-4.554
			c1.229-0.982,1.992-0.507,1.604,0.981c-0.331,1.281-1.563,2.5-2.557,3.3c0.113-0.092,3.245,0.213,3.909-0.012
			c1.311-0.442,2.587-1.241,3.292-2.49c-0.626,1.11-0.417,1.813-1.419,2.805c3.011,0.869,4.696-0.123,7.2-1.991
			c-0.191,0.521-0.453,1.097-0.769,1.517c0.389-0.206,1.03-0.589,1.356-0.751c-0.179,0.518-0.392,1.001-0.596,1.493
			c1.987-0.338,4.001,0.439,5.977-0.055c2.459-0.62,6.33-3.658,6.746-6.29c0.169-1.074-0.108-2.112-0.641-3.023
			C48.176,17.393,47.407,16.621,46.569,16.055z"/>
		<path style="clip-path:url(#SVGID_2_);fill:#45362E;" d="M43.621,13.304c-5.714,0.545-9.754,6.578-15.82,5.284
			c-2.552-0.547-4.905-1.279-7.553-1.225c-2.564,0.058-5.966,1.062-7.115,3.559c-0.245,0.527-1.943,6.666-0.641,6.834
			c1.586,0.205,3.05-0.55,4.426-1.02c1.373-0.478,1.831,0.43,2.838,1.073c-0.763-0.485,2.452-4.256,2.943-4.653
			c0.979-0.789,2.382-1.398,3.546-0.921c0.125,0.053,0.246,0.114,0.367,0.191c1.24,0.807-0.035,2.585-0.254,3.623
			c2.14-0.887,4.127-2.122,5.951-3.553c-0.177,1.282-0.46,2.453-0.751,3.671c1.587-0.092,2.924-1.03,4.037-2.096
			c0.607-0.583,1.098-1.463,1.866-1.861c0.394-0.202,0.638-0.432,0.788,0.095c0.03,0.107-0.563,1.771-0.648,1.826
			c0.571-0.386,1.924-2.307,2.688-2.087c0.824,0.234-1.781,4.448-2.125,4.365c2.231,0.537,4.729-0.162,6.635-1.356
			c0.909-0.571,1.818-1.356,2.478-2.201c0.825-1.062,0.136-1.931,0.467-3.117c0.367,0.611,0.804,0.962,1.053,1.687
			c0.649,1.877,0.167,3.572-0.291,5.477c2.62,1.032,3.151-0.949,3.605-3.23c0.537,0.712,0.854,1.571,1.406,2.277
			C54.599,20.355,49.786,12.722,43.621,13.304z"/>
		<circle style="clip-path:url(#SVGID_2_);fill:#1C9E8F;" cx="18.355" cy="42.405" r="1.363"/>
		<path style="clip-path:url(#SVGID_2_);fill:#FF7752;" d="M46.591,37.196c-0.432-0.768-1.48-0.958-2.239-0.993
			c-0.988-0.05-2.337,0.274-1.581,1.783c0.402,0.804,4.299,1.535,3.992-0.296C46.732,37.502,46.673,37.339,46.591,37.196z"/>
		<path style="clip-path:url(#SVGID_2_);fill:#FF7752;" d="M27.512,37.181c-0.608-0.789-1.79-0.766-2.63-0.637
			c-1.097,0.171-2.521,0.856-1.432,2.435c0.579,0.84,4.982,0.793,4.333-1.262C27.716,37.506,27.624,37.331,27.512,37.181z"/>
		<path style="clip-path:url(#SVGID_2_);fill:#261B18;" d="M40.813,29.172c2.226,0.336,4.755,0.479,7.533,0.541
			C47.227,27.876,42.528,27.572,40.813,29.172z"/>
		<path style="opacity:0.4;clip-path:url(#SVGID_2_);fill:#D14F2E;" d="M36.062,37.918c-0.733,0.026-1.033-0.279-1.54,0.018
			c-0.505,0.295,0.631,1.267,1.539,1.172c1.025-0.107,1.853-0.972,1.568-1.275C37.308,37.483,36.879,37.889,36.062,37.918z"/>
		<path style="clip-path:url(#SVGID_2_);fill:#261B18;" d="M21.668,29.823c4.036-0.313,5.408-0.271,8.198-0.622
			C28.208,27.461,23.287,28.088,21.668,29.823z"/>
		<path style="clip-path:url(#SVGID_2_);fill:#1C5C57;" d="M26.376,31.266c-2.146-0.751-3.146,3.195-1.634,4.329
			c0.643-0.259,1.428-0.255,2.07,0.004C28.143,34.728,27.974,31.824,26.376,31.266z"/>
		<path style="opacity:0.7;clip-path:url(#SVGID_2_);fill:#6CD9D2;" d="M26.011,32.698c-0.88,0.156-0.509,1.952,0.4,1.477
			C27.064,33.83,26.791,32.563,26.011,32.698z"/>
		<path style="clip-path:url(#SVGID_2_);fill:#1C5C57;" d="M45.423,31.086c-2.142-1.364-4.021,3.636-1.644,4.354
			c0.573-0.394,1.265-0.396,1.875-0.3C46.474,34.078,46.565,31.818,45.423,31.086z"/>
		<path style="opacity:0.7;clip-path:url(#SVGID_2_);fill:#6CD9D2;" d="M44.569,32.295c-0.844,0.023-0.725,1.896,0.187,1.553
			C45.417,33.598,45.319,32.279,44.569,32.295z"/>
		<path style="clip-path:url(#SVGID_2_);fill:#121B21;" d="M45.48,30.981c-1.957-0.757-2.602,1.568-2.602,1.568
			s0.95-1.172,2.284-0.429c3.025,1.691,4.979-0.36,4.979-0.36C47.741,32.567,46.531,31.387,45.48,30.981z"/>
		<path style="clip-path:url(#SVGID_2_);fill:#121B21;" d="M24.952,31.406c-0.772,0.414-2.565,1.651-4.992,1.004
			c0,0,2.343,1.942,5.221,0.07c1.259-0.82,2.379,0.127,2.379,0.127S26.972,30.316,24.952,31.406z"/>
		<path style="clip-path:url(#SVGID_2_);fill:#FF3B3B;" d="M25.145,40.5c1.083,2.049,3.724,1.059,2.608-1.04
			C27.309,40.51,26.073,40.94,25.145,40.5z"/>
		<path style="clip-path:url(#SVGID_2_);fill:#FF3B3B;" d="M42.599,39.105c-0.582,2.173,2.275,2.927,2.84,0.799
			C44.632,40.424,43.294,40.104,42.599,39.105z"/>
		<path style="clip-path:url(#SVGID_2_);fill:#FF3B3B;" d="M43.833,40.218c-0.331-0.109-0.685,0.035-0.785,0.323
			c-1.045,2.931-4.187,4.857-7.848,4.832c-3.519-0.021-6.337-1.857-7.488-4.281c-0.138-0.289-0.509-0.437-0.825-0.334
			c-0.315,0.104-0.466,0.422-0.325,0.71c1.316,2.779,4.459,4.88,8.375,5.003c0.109,0.004,0.219,0.006,0.328,0.006
			c4.21,0.029,7.774-2.165,8.98-5.547C44.348,40.645,44.16,40.325,43.833,40.218z"/>
	</g>
</g>
<g id="Layer_1">
</g>
</svg>
