<?xml version="1.0" encoding="iso-8859-1"?>
<!-- Generator: Adobe Illustrator 16.0.0, SVG Export Plug-In . SVG Version: 6.00 Build 0)  -->
<!DOCTYPE svg PUBLIC "-//W3C//DTD SVG 1.1//EN" "http://www.w3.org/Graphics/SVG/1.1/DTD/svg11.dtd">
<svg version="1.1" xmlns="http://www.w3.org/2000/svg" xmlns:xlink="http://www.w3.org/1999/xlink" x="0px" y="0px"
	 width="66.013px" height="66px" viewBox="0 0 66.013 66" style="enable-background:new 0 0 66.013 66;" xml:space="preserve">
<g id="Layer_9">
	<g>
		<defs>
			<circle id="SVGID_1_" cx="33.013" cy="33" r="33"/>
		</defs>
		<clipPath id="SVGID_2_">
			<use xlink:href="#SVGID_1_"  style="overflow:visible;"/>
		</clipPath>
		<rect style="clip-path:url(#SVGID_2_);fill:#ED9335;" width="66" height="66"/>
		<path style="clip-path:url(#SVGID_2_);fill:#FFCB9E;" d="M25.012,56.723c0.865-0.584,1.093-1.758,0.51-2.622
			c-0.585-0.864-1.76-1.092-2.622-0.508c-6.229,4.206-7.473,8.218-7.419,10.843c0.011,0.534,0.096,1.054,0.215,1.564h3.982
			c-0.244-0.492-0.409-1.035-0.422-1.643C19.208,61.975,21.251,59.262,25.012,56.723z"/>
		<path style="clip-path:url(#SVGID_2_);fill:#6C98CC;" d="M25.063,52.021c-3.645,1.039-8.481,3.944-10.382,9.204
			c1.529,1.22,4.042,2.442,5.867,2.846c0.526-1.931,1.462-3.744,3.072-4.766C24.687,58.625,26.116,51.721,25.063,52.021z"/>
		<path style="clip-path:url(#SVGID_2_);fill:#FFCB9E;" d="M42.522,53.593c-0.862-0.584-2.037-0.356-2.622,0.508
			c-0.583,0.864-0.355,2.038,0.51,2.622c3.761,2.539,5.804,5.252,5.756,7.635c-0.013,0.607-0.178,1.15-0.422,1.643h3.982
			c0.119-0.511,0.204-1.03,0.215-1.564C49.995,61.811,48.752,57.799,42.522,53.593z"/>
		<path style="clip-path:url(#SVGID_2_);fill:#6C98CC;" d="M40.359,52.021c-1.054-0.3,0.376,6.604,1.442,7.284
			c1.61,1.021,2.546,2.835,3.072,4.766c1.825-0.403,4.338-1.626,5.867-2.846C48.841,55.965,44.004,53.06,40.359,52.021z"/>
		<path style="clip-path:url(#SVGID_2_);fill:#D9D9D9;" d="M40.63,51.602c-4.893-2.627-12.025-1.723-15.277,0.393
			c-4.228,2.75-3.571,7.198-2.479,14.006h20.006C44.042,59.444,44.711,53.792,40.63,51.602z"/>
		<path style="clip-path:url(#SVGID_2_);fill:#FBFBFB;" d="M37.437,48.271c-1.792-1.379-5.286-1.6-7.428-1.15
			c-2.233,0.468-3.714,2.494-3.869,4.58c-0.193,2.642,5.302,7.523,6.571,7.594C33.666,59.334,43.669,53.061,37.437,48.271z"/>
		<path style="clip-path:url(#SVGID_2_);fill:#F5B28C;" d="M36.726,46.881c-1.517-1.297-4.476-1.506-6.289-1.082
			c-1.89,0.44-3.144,2.348-3.275,4.313c-0.163,2.487,4.489,7.084,5.563,7.15C33.533,57.298,42.003,51.391,36.726,46.881z"/>
		<path style="clip-path:url(#SVGID_2_);fill:#255794;" d="M25.876,51.079c0,0-4.832,1.681-5.245,2.753
			c-0.267,0.697,0.551,5.313,1.062,12.168h5.851C27.599,61.387,27.279,55.639,25.876,51.079z"/>
		<path style="clip-path:url(#SVGID_2_);fill:#255794;" d="M44.919,53.832c-0.411-1.072-5.265-2.697-5.265-2.697
			C38.312,55.5,38.041,61.247,38.13,66h5.854C44.388,59.481,45.181,54.514,44.919,53.832z"/>
		<path style="clip-path:url(#SVGID_2_);fill:#BA9552;" d="M47.114,15.139c1.503-0.383,1.157-4.145,1.039-5.142
			c-0.112-0.938-0.309-1.932-0.646-2.866c-0.387-1.074-0.959-2.07-1.803-2.819c-1.438,2.916-5.413,4.499-8.492,3.964
			c0.432-0.378,0.755-0.898,0.742-1.482c-1.225,0.26-2.356,0.837-3.594,1.068c-4.907,0.916-9.804,1.05-13.919,4.363
			c-5.801,4.67-4.938,12.258-3.773,18.65c0.63,3.46,1.196,7.364,2.811,10.519c1.169,2.288,2.339,1.324,4.054,0.42
			c2.221-1.171,5.5-1.369,7.963-1.486c2.54-0.119,6.245-0.33,8.604,0.777c1.544,0.727,2.359,1.314,3.938,0.105
			c1.149-0.881,2.002-2.297,2.596-3.598c0.955-2.094,0.986-4.193,1.168-6.446c0.235-2.907,0.989-5.31,0.756-8.228
			c-0.082-1.022-1.325-4.931,0.942-8.236C48.706,14.784,47.897,14.94,47.114,15.139z"/>
		<path style="clip-path:url(#SVGID_2_);fill:#FFCB9E;" d="M30.341,14.857c-7.799,1.522-13.296,12.737-11.864,23.26
			c1.073,7.881,7.152,16.527,16.309,15.876c9.342-0.665,13.99-12.252,12.782-21.944C46.257,21.511,41.266,12.728,30.341,14.857z"/>
		<path style="opacity:0.15;clip-path:url(#SVGID_2_);fill:#BF3C1B;" d="M40.393,16.516c-3.073-0.92-6.249-1.43-9.459-1.485
			c-2.848-0.05-5.941-0.21-8.596,0.992c-1.459,0.66-3.25,1.565-3.795,3.18c-0.446,1.323-0.326,2.86-0.262,4.232
			c0.061,1.259,0.087,2.62,0.367,3.856c0.214,0.945,0.901,2.085,1.633,2.752c1.178-2.335,1.629-6.091,4.393-7.101
			c1.949-0.713,4.761-0.217,6.796,0.361c0.141,0.041,0.276,0.08,0.409,0.121c3.52,1.071,5.693,2.09,9.493,1.154
			c2.132-0.525,6.457-1.577,5.568-4.556C46.236,17.664,42.421,17.123,40.393,16.516z"/>
		<path style="clip-path:url(#SVGID_2_);fill:#FFCB9E;" d="M15.756,33.734c-3.83,1.054-2.293,6.646,0.836,7.768
			c1.002,0.36,2.067,0.41,3.094,0.338c0.02-0.031,0.04-0.063,0.062-0.096c0.458-0.727-0.183-4.804-0.419-5.57
			C18.74,34.24,17.595,33.227,15.756,33.734z"/>
		<path style="opacity:0.3;clip-path:url(#SVGID_2_);fill:#BF3C1B;" d="M17.1,35.793c-0.86-0.397-3.01,0.316-1.999,2
			c0.533-1.561,1.484-0.537,1.338,0.571c-0.098,0.743-0.896,0.755-0.103,1.709c0.43,0.517,1.3,0.324,1.738,0.048
			C19.469,39.243,18.15,36.276,17.1,35.793z"/>
		<path style="clip-path:url(#SVGID_2_);fill:#BA9552;" d="M41.676,12.696c-3.293-2.791-7.214-3.239-11.353-2.281
			c-2.527,0.585-5.411,0.932-7.518,2.563c-1.715,1.327-3.551,2.742-4.756,4.575c-2.014,3.062-1.002,15.176,0.328,16.962
			c0.144,0.191,1.752,2.186,2.505,2.128c-0.384-2.606-0.399-5.288-0.213-7.914c0.25-3.524,1.063-7.329,5.085-7.964
			c2.287-0.362,9.554,2.767,11.212,3.117c2.222,0.469,7.434-2.017,8.191-2.331c1.868-0.777,1.758-2.914,0.88-4.378
			C44.952,15.363,43.266,14.043,41.676,12.696z"/>
		<path style="clip-path:url(#SVGID_2_);fill:#FFA073;" d="M44.4,35.568c-1.321-0.033-3.253,0.537-2.749,2.887
			c0.27,1.252,5.28,2.234,5.494-0.641c0.023-0.297,0-0.556-0.063-0.779C46.763,35.844,45.412,35.592,44.4,35.568z"/>
		<path style="clip-path:url(#SVGID_2_);fill:#FFA073;" d="M27.106,36.643c-0.697-1.063-2.127-0.914-3.144-0.642
			c-1.326,0.353-3.07,1.47-1.815,3.604c0.669,1.139,5.977,0.634,5.271-2.225C27.346,37.088,27.239,36.844,27.106,36.643z"/>
		<path style="clip-path:url(#SVGID_2_);fill:#305D80;" d="M25.998,31.235c-2.011-0.863-3.275,2.702-1.904,3.867
			c0.639-0.188,1.395-0.118,1.99,0.171C27.434,34.574,27.493,31.881,25.998,31.235z"/>
		<path style="opacity:0.3;clip-path:url(#SVGID_2_);fill:#B54D26;" d="M35.805,37.902c-1.176,0.016-1.641-0.521-2.463-0.031
			c-0.822,0.487,0.354,2.053,2.433,1.979c2.07-0.074,2.971-1.496,2.538-2.026C37.813,37.207,37.107,37.89,35.805,37.902z"/>
		<path style="clip-path:url(#SVGID_2_);fill:#FFDFC2;" d="M35.425,32.069c-1.229,0.175-2.303,5.894-1.798,6.294
			c1.237,0.977,3.823,0.284,4.575-0.5C38.5,37.553,37.518,31.77,35.425,32.069z"/>
		<path style="clip-path:url(#SVGID_2_);fill:#305D80;" d="M45.353,31.1c-2.043-1.227-3.547,2.719-1.86,3.832
			c0.534-0.352,1.607-0.242,2.128-0.002C46.441,34.021,46.45,31.759,45.353,31.1z"/>
		<path style="clip-path:url(#SVGID_2_);fill:#86BAE3;" d="M25.282,31.859c-0.815,0.278-0.195,1.863,0.601,1.287
			C26.458,32.728,26.008,31.614,25.282,31.859z"/>
		<path style="clip-path:url(#SVGID_2_);fill:#86BAE3;" d="M44.554,31.531c-0.804,0.162-0.419,1.745,0.405,1.295
			C45.555,32.502,45.27,31.388,44.554,31.531z"/>
		<path style="clip-path:url(#SVGID_2_);fill:#F7A286;" d="M44.302,40.977c-0.564-0.387-1.237-0.699-1.793-1.039
			c0.051,0.255,0.021,0.418,0.285,0.674c-2.388,0.143-4.786,0.332-7.185,0.438c-1.586,0.072-3.169,0.186-4.759,0.213
			c-1.162,0.02-3.366,0.246-4.277-0.397c0.296-0.112,0.63-0.275,0.839-0.485c-0.835-0.059-3.105,0.738-4.222,1.695
			c0.886-0.367,2.065-0.893,2.861-0.133c1.257,1.196,2.643,2.517,4.323,3.63c3.352,2.22,9.895,1.95,11.644-2.296
			c0.152-0.372,0.93-1.615,1.479-1.748c0.255-0.064,1.724,0.337,1.798,0.487C45.089,41.599,44.727,41.267,44.302,40.977z"/>
		<path style="clip-path:url(#SVGID_2_);fill:#8F3935;" d="M26.766,41.484c0,0,2.753,3.851,8.207,3.836
			c3.495-0.009,5.782-0.97,6.411-2.306c0.689-1.46,2.169-2.01,2.169-2.01C34.067,43.053,26.766,41.484,26.766,41.484z"/>
		<path style="clip-path:url(#SVGID_2_);fill:#FFF9F0;" d="M28.797,41.793c0,0,0.182,1.177,2.129,1.598
			c2.497,0.538,5.179,0.523,7.94,0.126c1.862-0.267,2.751-2.138,2.751-2.138S36.304,42.5,28.797,41.793z"/>
		<path style="clip-path:url(#SVGID_2_);fill:#FFF9F0;" d="M36.337,43.719c-2.493,0.121-4.568,0.023-5.825-0.599
			c-0.897-0.442-0.972,0.055-0.776,0.358c0,0,0.83,1.604,4.976,1.899c3.983,0.283,6.018-1.688,5.557-2.015
			C39.81,43.039,38.647,43.607,36.337,43.719z"/>
		<path style="clip-path:url(#SVGID_2_);fill:#E8DAC5;" d="M28.797,41.793c0,0,0.146,0.545,0.507,0.822
			c0,0,9.322-0.811,11.564-0.189c0,0,0.647-0.665,0.749-1.047C41.617,41.379,35.11,42.467,28.797,41.793z"/>
		<path style="clip-path:url(#SVGID_2_);fill:#E8DAC5;" d="M31.258,43.346c3.368,1.553,7.355,0.117,7.355,0.117
			C34.41,44.313,31.258,43.346,31.258,43.346z"/>
		<path style="clip-path:url(#SVGID_2_);fill:#A16B43;" d="M21.554,29.74c3.837,0.068,5.13,0.28,7.794,0.147
			C27.976,27.434,23.269,27.672,21.554,29.74z"/>
		<path style="clip-path:url(#SVGID_2_);fill:#A16B43;" d="M41.122,30.024c2.296,0.12,3.41-0.101,6.718-0.19
			C46.374,27.777,42.319,27.563,41.122,30.024z"/>
		<path style="clip-path:url(#SVGID_2_);fill:#F0D197;" d="M45.16,16.763c0.007-0.007,0.014-0.016,0.021-0.023
			c0,0-0.003,0.001-0.005,0.001C45.151,16.77,45.146,16.776,45.16,16.763z"/>
		<path style="clip-path:url(#SVGID_2_);fill:#F0D197;" d="M45.181,16.74c-0.007,0.007-0.014,0.016-0.021,0.023
			c-0.014,0.013-0.009,0.006,0.016-0.021c0.002,0,0.003-0.001,0.003-0.001c2.484-2.523,2.688-7.528,0.412-10.149
			c-2.312,3.01-6.877,2.725-10.25,2.676c-1.822-0.026-3.538,0.172-5.216,0.546c-2.21,0.494-4.354,1.295-6.592,2.299
			c-1.622,0.728-3.107,1.5-4.027,3.054c-0.479,0.809-0.872,1.761-1.107,2.67c-0.143,0.546,0.065,2.555-0.151,2.832
			c2.208-2.827,5.313-4.415,8.969-4.56c-0.174,0.623-0.237,1.309-0.114,1.968c-0.065-0.352,6.113-2.917,6.304-2.931
			c-0.487,0.738-3.259,3.003-2.999,3.871c-0.016-0.054,7.729-4.828,8.097-4.93c-0.323,1.08-4.565,6.203-3.839,7.083
			c0.396-0.459,8.073-7.612,8.473-7.812c-0.085,0.681-6.495,8.231-6.091,8.672c0.325-0.568,5.331-4.214,5.827-4.567
			c-0.331,1.368-1.472,3.034-1.902,4.131c2.641-1.645,7.206-3.286,6.759-5.384C46.881,16.218,45.94,16.445,45.181,16.74z"/>
	</g>
</g>
<g id="Layer_1">
</g>
</svg>
