<?xml version="1.0" encoding="iso-8859-1"?>
<!-- Generator: Adobe Illustrator 16.0.0, SVG Export Plug-In . SVG Version: 6.00 Build 0)  -->
<!DOCTYPE svg PUBLIC "-//W3C//DTD SVG 1.1//EN" "http://www.w3.org/Graphics/SVG/1.1/DTD/svg11.dtd">
<svg version="1.1" xmlns="http://www.w3.org/2000/svg" xmlns:xlink="http://www.w3.org/1999/xlink" x="0px" y="0px"
	 width="66.011px" height="66.001px" viewBox="0 0 66.011 66.001" style="enable-background:new 0 0 66.011 66.001;"
	 xml:space="preserve">
<g id="Layer_22">
	<g>
		<defs>
			<circle id="SVGID_1_" cx="33.011" cy="33.001" r="33"/>
		</defs>
		<clipPath id="SVGID_2_">
			<use xlink:href="#SVGID_1_"  style="overflow:visible;"/>
		</clipPath>
		<rect style="clip-path:url(#SVGID_2_);fill:#B6A8A9;" width="66" height="65.998"/>
		<path style="clip-path:url(#SVGID_2_);fill:#FFAE6D;" d="M40.036,54.566l0.905,4.302c0.329,1.096,0.352,4.346,1.299,7.13h3.447
			C44.039,63.124,44.75,56.35,40.036,54.566z"/>
		<path style="clip-path:url(#SVGID_2_);fill:#FFAE6D;" d="M30.191,54.566c-4.714,1.783-4.003,8.558-5.651,11.432h3.447
			c0.947-2.784,0.97-6.034,1.299-7.13L30.191,54.566z"/>
		<path style="clip-path:url(#SVGID_2_);fill:#FFAE6D;" d="M41.387,64.332c0.358-1.262-2.933-2.029-6.209-2.133
			c-3.276,0.104-6.566,0.871-6.208,2.133c0.186,0.65,0.391,1.186,0.576,1.666h11.262C40.995,65.518,41.201,64.982,41.387,64.332z"/>
		<path style="clip-path:url(#SVGID_2_);fill:#FFAE6D;" d="M39.061,54.105c-2.395-0.834-0.899-4.309-4.168-4.309
			c-3.32,0-1.505,3.275-4.035,4.382c-2.531,1.107-3.296,5.847-2.313,7.956c1.75,3.759,10.015,4.299,12.933,0.714
			C43.179,60.762,43.035,55.484,39.061,54.105z"/>
		<path style="clip-path:url(#SVGID_2_);fill:#FF392B;" d="M40.009,54.371c0,0-0.225-0.215-0.531-0.199
			c0.729,4.382,0.391,6.308-4.49,6.308c-4.833,0-5.059-1.88-3.946-6.467c-0.22,0.029-0.638,0.318-0.638,0.318
			c-1.044,4.122-2.166,3.83-2.455,6.057c-0.167,1.297,0.041,2.566,0.976,3.671c1.257,1.479,11.477,1.325,12.469,0
			c0.926-1.236,1.167-2.312,1.035-3.395C42.209,58.86,40.637,59.056,40.009,54.371z"/>
		<path style="clip-path:url(#SVGID_2_);fill:#FF6C52;" d="M39.407,60.284c-1.098-0.147-2.063,0.508-3.787,0.586
			c-2.808,0.127-3.821-0.716-4.831-0.698c-1.335,0.024-2.62,1.42-1.244,2.386c2.271,1.593,9.813,1.192,11.153,0.012
			C41.566,61.803,41.058,60.502,39.407,60.284z"/>
		<path style="clip-path:url(#SVGID_2_);fill:#F58C5B;" d="M32.315,52.502c-0.427,2.246,6.074,2.353,5.763,0.356
			C37.754,50.789,32.74,50.254,32.315,52.502z"/>
		<path style="clip-path:url(#SVGID_2_);fill:#301E18;" d="M53.036,29.006c0.103-0.084,0.195-0.169,0.278-0.251
			c1.425-1.412,0.105-2.694-0.555-4.118c-0.78-1.679-0.703-4.166-1.181-6.017c-0.371-1.432-1.64-3.148-1.311-4.644
			c0.313-1.417,1.577-2.327,1.507-3.896c-0.104-2.256-3.613-3.537-5.689-2.066c2.129-3.515-2.854-5.358-4.945-2.59
			c0.458-4.94-6.321-4.83-6.947-0.989c-0.727-4.196-7.366-3.739-7.477,0.475c-3.196-3.587-9.328,0.313-7.721,3.901
			c-3.644-1.414-7.042,2.73-3.312,5.898c-5.424-0.707-4.266,6.17-0.537,5.357c-0.517,0.989-0.502,0.597-0.454,1.678
			c0.051,1.158,0.797,4.379,0.504,5.53c-0.245,0.96-1.248,2.679-0.19,3.626c-1.933-0.931-5.809,2.097-2.946,5.246
			c-2.712-0.286-4.174,4.331-0.976,5.467c-3.26,1.547-0.715,6.49,2.411,5.352c-0.191,1.493-0.637,3.001,0.69,4.188
			c1.113,0.993,3.017,1.101,4.161,0.178c0.072,2.07,4.517,2.546,5.194,0.808c0.639,1.872,4.463,2.567,5.535,0.775
			c0.521-0.012,0.87,0.333,1.381,0.342c1.088,0.021,2.392-0.867,2.872-1.789c0.436-0.841,0.337-1.882,0.965-2.539
			c1.144-1.197,2.753-0.657,4.132-1.132c1.434-0.491,2.005-1.575,2.298-2.987c0.443-2.116,1.33-5.62,4.089-5.895
			c1.79-0.18,2.519,1.813,4.161,2.054c1.644,0.237,3.547-0.992,3.354-2.504c1.822-0.546,1.761-3.071,1.095-4.459
			C55.304,32.956,54.763,30.306,53.036,29.006z"/>
		<circle style="clip-path:url(#SVGID_2_);fill:#FFF9F0;" cx="50.503" cy="38.033" r="1.274"/>
		<path style="clip-path:url(#SVGID_2_);fill:#FFAE6D;" d="M35.795,16.521c-7.979,0.406-15.584,6.305-15.38,17.337
			c0.201,11.038,8.277,18.937,16.249,19.477c6.12,0.417,14.596-9.985,14.043-21.009C50.157,21.448,43.775,16.113,35.795,16.521z"/>
		<path style="clip-path:url(#SVGID_2_);fill:#FFAE6D;" d="M17.817,29.347c-3.448,1.005-2.376,6.28,0.336,7.33
			c0.868,0.338,1.81,0.382,2.721,0.313c0.019-0.031,0.04-0.059,0.059-0.09c0.443-0.688-0.088-4.195-0.254-4.922
			C20.258,30.155,19.471,28.865,17.817,29.347z"/>
		<path style="opacity:0.3;clip-path:url(#SVGID_2_);fill:#BF3C1B;" d="M50.009,18.273c-1.194-1.156-3.325-1.308-4.876-1.593
			c-4.224-0.777-8.727-0.962-12.979-0.328c-2.944,0.435-6.084,1.403-7.953,3.871c-1.78,2.349-4.432,4.694-4.113,7.923
			c0.083,0.833,0.345,2.462,1.044,3.006c1.738,1.354,1.825-1.527,2.032-1.533c1.062-0.032,1.839-0.712,2.417-1.563
			c1.473,1.416,4.671,0.408,5.835-0.993c0.568,0.979,1.721,1.377,2.775,1.528c1.582,0.228,0.722-0.164,1.759,0.891
			c1.317,1.344,3.773,1.995,5.057,0.169c0.563-0.805-0.372-2.141,0.498-2.557c0.786-0.373,1.48,0.703,1.991,1.065
			c0.931,0.659,2.149,0.742,3.089,0.031c1.157,0.564,4.823,0.498,2.673-3.803C48.557,22.987,51.291,19.516,50.009,18.273z"/>
		<path style="opacity:0.4;clip-path:url(#SVGID_2_);fill:#B54319;" d="M19.548,31.334c-0.854-0.521-3.223-0.207-2.402,1.567
			c0.79-1.396,1.642-0.261,1.329,0.769c-0.212,0.692-1.056,0.564-0.356,1.608c0.378,0.565,1.322,0.531,1.824,0.341
			C21.541,35.021,20.584,31.974,19.548,31.334z"/>
		<path style="clip-path:url(#SVGID_2_);fill:#301E18;" d="M39.914,11.136c-1.657-0.271-3.192-0.874-4.902-0.963
			c-2.847-0.147-5.665,0.575-8.271,1.681c-3.876,1.645-6.609,5.838-7.993,9.645c-0.806,2.222-1.333,4.747-1,7.11
			c0.309,2.207,2.934,2.811,3.138,4.605c0.117,1.029-0.842,1.994-1.787,1.277c-1.199,2.802,5.865,3.262,4.666-0.938
			c-0.086-0.304-1.472-4.274-1.734-4.234c1.631-0.242,2.235-1.285,2.642-2.739c2.665,2.454,4.841,0.618,6.412-1.914
			c0.434,1.594,3.009,3.194,4.513,1.976c0.33,2.021,1.543,3.301,3.611,3.263c0.718-0.013,1.576-0.175,2.134-0.661
			c0.319-0.282,0.67-1.778,0.7-1.801c-0.616,0.469-2.128-0.015-1.559-0.926c0.395-0.634,2.455-0.533,3.203-0.909
			c0.964,1.661,1.904,2.563,3.61,1.165c0.392,0.926,1.215,1.02,1.995,0.545c2.441-1.483,1.604-6.367,0.973-8.586
			C48.914,13.988,44.635,11.911,39.914,11.136z"/>
		<path style="clip-path:url(#SVGID_2_);fill:#472C23;" d="M46.051,20.269c-0.924-0.383-1.399,0.16-2.36,0.35
			c-0.833,0.165-1.838,0.105-2.672-0.041c-0.731-0.128-1.346-0.46-2.012-0.704c-0.905-0.331-1.322-0.222-2.312,0.041
			c-1.753,0.464-3.469,0.889-5.156,1.564c-1.49,0.6-4.022,1.728-4.586,3.384c-0.401,1.183,0.577,1.411,1.471,0.852
			c0.864-0.544,1.192-1.644,1.988-2.273c2.009,1.673,3.778,2.131,5.934,0.354c0.129,1.162,0.811,3.127,2.339,2.879
			c-0.508-1.654,2.477-2.852,3.712-3.02c1.362-0.185,1.153,0.987,2.321,1.533c0.981,0.46,1.922,0.132,2.568-0.624
			c0.826-0.963,0.965-1.95,0.562-2.774C47.538,21.164,46.919,20.631,46.051,20.269z"/>
		<path style="clip-path:url(#SVGID_2_);fill:#301E18;" d="M28.612,28.948c-1.936,0.271-3.828,1.279-3.744,1.874
			c0.055,0.387,1.445-0.851,4.116-0.921c2.131-0.054,3.923,0.912,3.974,0.028C33.005,29.146,30.73,28.65,28.612,28.948z"/>
		<path style="clip-path:url(#SVGID_2_);fill:#301E18;" d="M47.123,28.693c-1.76-0.111-3.604,0.575-3.524,1.353
			c0.091,0.874,1.513-0.242,3.273-0.369c2.201-0.159,3.413,0.952,3.437,0.565C50.345,29.644,48.732,28.801,47.123,28.693z"/>
		<path style="clip-path:url(#SVGID_2_);fill:#FF8F57;" d="M46.938,36.014c-1.343-0.197-3.229,0.067-2.414,2.236
			c0.434,1.157,5.641,2.675,5.489,0.125c-0.016-0.264-0.075-0.497-0.165-0.706C49.37,36.56,47.97,36.162,46.938,36.014z"/>
		<path style="clip-path:url(#SVGID_2_);fill:#FF8F57;" d="M29.894,36.329c-1.051-0.826-2.653-0.522-3.759-0.167
			c-1.438,0.468-3.181,1.636-1.248,3.319c1.029,0.896,7.003-0.187,5.534-2.556C30.271,36.684,30.092,36.485,29.894,36.329z"/>
		<path style="clip-path:url(#SVGID_2_);fill:#1F1A17;" d="M29.996,31.675c-1.887-1.112-3.59,2.275-2.374,3.604
			c0.658-0.105,1.402,0.056,1.959,0.419C31.007,35.172,31.404,32.503,29.996,31.675z"/>
		<path style="opacity:0.4;clip-path:url(#SVGID_2_);fill:#B54319;" d="M38.646,38.153c-0.832,0.004-1.193-0.292-1.75-0.023
			c-0.553,0.269,0.294,1.377,1.765,1.339c1.462-0.038,2.1-1.062,1.76-1.356C40.026,37.77,39.568,38.146,38.646,38.153z"/>
		<path style="clip-path:url(#SVGID_2_);fill:#1F1A17;" d="M48.021,31.461c-2.094-1.293-4.063,3.258-1.711,3.975
			c0.558-0.365,1.265-0.537,1.875-0.434C49.039,34.065,49.142,32.151,48.021,31.461z"/>
		<path style="clip-path:url(#SVGID_2_);fill:#A89191;" d="M29.896,32.95c-0.847,0.174-0.429,1.827,0.438,1.355
			C30.955,33.963,30.648,32.797,29.896,32.95z"/>
		<path style="clip-path:url(#SVGID_2_);fill:#A89191;" d="M47.735,32.513c-0.847,0.039-0.711,1.722,0.201,1.393
			C48.597,33.666,48.487,32.479,47.735,32.513z"/>
		<path style="clip-path:url(#SVGID_2_);fill:#1F1A17;" d="M23.857,32.139c0,0,2.007,2.288,4.716,0.707l-0.201-1.095
			C28.372,31.751,26.177,33.694,23.857,32.139z"/>
		<path style="clip-path:url(#SVGID_2_);fill:#1F1A17;" d="M48.22,31.609l-0.347,1.056c2.477,1.927,4.768-0.07,4.768-0.07
			C50.137,33.827,48.22,31.609,48.22,31.609z"/>
		<path style="clip-path:url(#SVGID_2_);fill:#FF8F57;" d="M38.685,38.736c1.337-0.018,2.856-0.311,1.716-1.963
			C38.412,33.891,34.086,38.792,38.685,38.736z"/>
		<path style="clip-path:url(#SVGID_2_);fill:#DE6049;" d="M29.018,41.196c0.9,1.946,3.188,1.059,2.263-0.931
			C30.882,41.243,29.809,41.629,29.018,41.196z"/>
		<path style="clip-path:url(#SVGID_2_);fill:#DE6049;" d="M44.058,40.176c-0.535,2.032,1.913,2.783,2.432,0.797
			C45.785,41.447,44.643,41.124,44.058,40.176z"/>
		<path style="clip-path:url(#SVGID_2_);fill:#DE6049;" d="M45.102,41.241c-0.282-0.108-0.586,0.023-0.68,0.29
			c-0.947,2.734-3.681,4.491-6.827,4.408c-3.031-0.077-5.424-1.847-6.378-4.142c-0.111-0.274-0.429-0.419-0.704-0.329
			c-0.275,0.094-0.408,0.389-0.294,0.662c1.094,2.631,3.764,4.656,7.131,4.84c0.096,0.003,0.188,0.008,0.284,0.01
			c3.62,0.094,6.721-1.908,7.814-5.063C45.54,41.648,45.387,41.348,45.102,41.241z"/>
		<path style="clip-path:url(#SVGID_2_);fill:#472C23;" d="M15.316,34.854c-0.497-1.163-0.196-4.437-2.427-3.184
			c-1.911,1.072-0.885,3.844,0.12,4.828c-3.341,0.697-3.693,3.291-0.551,4.86c-2.312,0.721-3.239,3.967,0.105,4.009
			c-0.488-2.252,3.199-4.853,5.372-3.554c0.023-1.33,0.395-3.367,1.432-4.258C17.634,38.213,15.896,36.209,15.316,34.854z"/>
		<path style="clip-path:url(#SVGID_2_);fill:#588A17;" d="M31.233,13.011c-13.229-0.483-17.289,6.232-17.234,8.031
			c0.049,1.632,0.529,5.174,0.604,10.995c0.016,1.162,0.792,1.386,1.285,0.489c1.933-3.529,6.054-7.946,12.157-11.053
			c6.241-3.176,15.37-4.278,15.836-6.731C44.343,12.289,36.007,13.184,31.233,13.011z"/>
		<path style="clip-path:url(#SVGID_2_);fill:#85B428;" d="M31.127,13.328c-2.943-0.055-5.56,0.294-8.347,1.309
			c-2.928,1.066-5.081,4.783-4.013,7.988c1.417,4.245,7.197-1.173,9.631-2.293c3.004-1.387,6.398-1.532,9.479-2.853l1.229-1.144
			c0.137-0.148,0.281-0.375,0.367-0.557C40.706,13.177,32.418,13.352,31.127,13.328z"/>
		<path style="clip-path:url(#SVGID_2_);fill:#DAEF3F;" d="M29.34,16.03c0,0,0.579,0.291,0.788,1.091
			c0.211,0.799,1.274,0.128,0.793-0.636C30.437,15.722,29.34,16.03,29.34,16.03z"/>
		<path style="clip-path:url(#SVGID_2_);fill:#DAEF3F;" d="M32.158,15.896c-4.493-3.332-8.644-0.089-8.644-0.089
			c0.92-0.415,4.493-0.422,5.078,2.309C29.18,20.843,35.649,18.485,32.158,15.896z M32.723,17.31
			c-0.167,0.39-1.151-0.429-1.087,0.291c0.015,0.163,0.593,0.479,0.356,0.713c-0.168,0.171-0.388-0.272-0.518-0.34
			c-0.833-0.433-0.445,0.535-0.553,0.984c-0.698,0.052-0.231-0.708-0.656-0.909c-0.472-0.226-0.502,0.593-0.905,0.5
			c-0.762-0.173,0.425-0.899,0.129-1.134c-0.045-0.034-0.121-0.058-0.242-0.066c-0.179-0.016-0.886,0.374-0.656-0.237
			c0.071-0.191,0.811-0.296,0.426-0.62c-0.267-0.229-0.664,0.337-0.963,0.024c-0.286-0.302,0.315-0.306,0.127-0.571
			c-0.168-0.236-1.607,0.498-0.814-0.485c-0.473-0.298-0.868,0.537-1.295,0.092c0.056-0.042,0.109-0.151,0.153-0.187
			c-0.131,0.002-0.27-0.105-0.391-0.132c0.081-0.216,0.258-0.311,0.485-0.289c0.184,0.014,0.32,0.312,0.449,0.291
			c0.262-0.045,0.032-0.239,0.149-0.315c0.595-0.392,0.19,0.03,0.617,0.25c0.042-0.303,0.16-0.614,0.457-0.425
			c0.1,0.062-0.079,0.336,0.089,0.429c0.253,0.134,0.218-0.108,0.313-0.168c0.136-0.079-0.055-0.327,0.251-0.317
			c0.271,0.007,0.117,0.157,0.189,0.251c0.078,0.096-0.19,0.349,0.104,0.386c0.243,0.029,0.139-0.189,0.236-0.255
			c0.244-0.167,0.329-0.495,0.592-0.065c0.162,0.27-0.206,0.696,0.357,0.456c0.189-0.082,0.261-0.707,0.561-0.109
			c0.129,0.253-0.333,0.612,0.277,0.592c0.189-0.004,0.246-0.359,0.473-0.319c0.413,0.075,0.122,0.693,0.093,0.906
			c0.153-0.047,0.462-0.276,0.625-0.192c-0.022,0.105-0.108,0.204-0.124,0.314c-0.054,0.37-0.385,0.248,0.047,0.41
			C32.167,17.099,32.919,16.85,32.723,17.31z"/>
		<path style="clip-path:url(#SVGID_2_);fill:#588A17;" d="M52.513,15.791c-0.739-1.309-6.861-2.359-10.929-2.344
			c-4.066,0.018-7.732,3.189-1.769,3.704c5.963,0.514,11.055,4.569,12.356,6.245c0.677,0.87,1.407,0.072,1.231-0.626
			C52.991,21.126,53.253,17.102,52.513,15.791z"/>
		<path style="clip-path:url(#SVGID_2_);fill:#82C126;" d="M52.481,21.336c0.032-0.552-0.597-0.258-0.845-0.316
			c-0.34-0.08-0.904-0.526-0.494-0.838c0.248-0.192,0.832,0.339,0.901-0.186c0.1-0.708-1.769-0.018-1.287-0.78
			c0.159-0.248,0.739,0.093,0.781-0.323c0.054-0.497-0.564-0.118-0.747-0.133c-0.34-0.03-0.995-0.404-0.624-0.767
			c0.334-0.324,0.691,0.341,1.015,0.181c0.471-0.238-0.564-0.503-0.648-0.646c-0.338-0.582,0.259-0.371,0.521-0.28
			c0.161,0.057,0.724,0.591,0.599-0.031c-0.059-0.291-0.722-0.321-0.563-0.716c0.181-0.449,0.607,0.348,0.876,0.286
			c0.47-0.11-0.289-0.545-0.31-0.729c-0.049-0.44,0.418-0.316,0.722-0.317c-0.782-1.104-2.716,1.465-3.167,1.911
			c0,0,0.644,1.652,1.154,2.314c0.439,0.567,0.325,1.256,0.67,1.812c0.067,0.11,0.147,0.206,0.238,0.291
			c0.34,0.328,0.81,0.514,1.198,0.771c-0.236-0.156-1.211-1.031-0.933-1.304C51.779,21.299,52.45,21.855,52.481,21.336z"/>
		<path style="opacity:0.3;clip-path:url(#SVGID_2_);fill:#004022;" d="M45.51,14.582c-1.795,0.026-3.094,1.008-1.807,2.694
			l1.192,0.397c1.337,0.498,3.417,2.584,4.784,2.506c1.235-0.068-0.771-1.139-0.751-1.758c0.033-1.207,2.813-0.609,3.079-1.948
			C52.387,14.548,46.607,14.565,45.51,14.582z"/>
		<path style="opacity:0.3;clip-path:url(#SVGID_2_);fill:#004022;" d="M32.841,13.759c-1.706-0.004-3.416,0.104-5.094,0.396
			c-0.526,0.09-3.964,0.418-2.621,1.396c0.438,0.319,1.689,0.316,2.233,0.354c0.197,0.013,2.959,0.3,2.816,0.556
			c-0.4,0.718-1.962,1.337-0.835,1.944c0.811,0.434,2.371-0.085,3.182-0.264c1.351-0.298,2.68-0.52,4.059-0.643
			c0.455-0.041,1.087,0.003,1.623-0.109c0.315-0.066,0.599-0.187,0.791-0.41C41.197,14.43,33.969,13.761,32.841,13.759z"/>
		<path style="clip-path:url(#SVGID_2_);fill:#85B428;" d="M35.209,7.259c-3.001-0.855-6.073,0.657-9.115,0.545
			c2.661,6.528,6.61,9.762,13.183,7.404c0.945-0.339,1.857-0.687,2.831-0.933l-1.583-2.108C38.436,10.113,38.351,8.154,35.209,7.259
			z"/>
		<path style="clip-path:url(#SVGID_2_);fill:#579418;" d="M34.125,9.656c0.657,0.823,2.07,1.786,2.247,2.833
			c-0.684,0.178-2.143-0.754-2.843-0.976c-0.993-0.315-1.964-0.673-2.925-1.069c0.993,3.169,4.641,5.44,8.063,4.896
			c0.542-0.086,1.339-0.243,1.631-0.733l-1.597-1.435C38.324,11.3,36,9.755,34.125,9.656z"/>
		<path style="clip-path:url(#SVGID_2_);fill:#85B428;" d="M47.701,8.839c-5.011,1.896-6.425,6.322-6.425,6.322
			c2.623,0.482,4.632,3.104,7.251,2.284c3.1-0.973,5.55-4.523,6.476-8.019C53.293,9.524,49.369,8.209,47.701,8.839z"/>
		<path style="clip-path:url(#SVGID_2_);fill:#579418;" d="M43.922,13.918c-1.03,3.249,4.221,2.093,5.579,0.841
			c-0.384-0.213-0.871-0.13-1.291-0.279c0.669-1.255,2.093-1.634,2.485-3.241c-1.952,0.438-3.361,2.039-5.276,2.498L43.922,13.918z"
			/>
		<path style="clip-path:url(#SVGID_2_);fill:#85B428;" d="M44.063,11.039c-1.219-0.287-4.143-1.204-5.062,0.031
			c-0.649,0.872-0.835,4.08-0.726,5.115c0.238,2.195,2.836,2.709,4.752,2.739c2.388,0.038,3.301-2.653,3.582-4.661
			C46.868,12.397,45.806,11.445,44.063,11.039z"/>
		<path style="clip-path:url(#SVGID_2_);fill:#BBE351;" d="M44.597,11.359c-0.003-0.001-1.12-0.243-1.12-0.243
			c-1.163-0.033-2.382-0.434-3.452,0.193c-1.014,0.596-0.539,1.304-0.938,2.243c0.238-0.347,0.326-0.811,0.571-1.186
			c0.323,1.313,0.952,0.573,0.667-0.438c-0.053,0.003,0.315-0.087,0.279-0.073c0.08,0.341,0.121,0.698,0.219,1.033
			c0.66,2.288,0.615-0.578,1.118-0.865c0.97-0.552-0.003,2.407,0.332,2.674c0.894,0.707,1.001-2.259,1.137-2.629
			c0.902,0.453-0.253,1.851,0.548,2.149c0.858,0.319,0.471-1.527,0.759-1.895c0.932,0.579,0,1.285,0.377,1.946
			c0.394,0.689,0.622-1.004,0.714-1.12c0.757,0.439,0.22,1.575,0.208,2.294c-0.007,0.003,0.087,0.033,0.082,0.018
			C46.859,14.18,46.187,11.709,44.597,11.359z"/>
		<path style="clip-path:url(#SVGID_2_);fill:#BBE351;" d="M34.822,7.416c-1.925-0.36-3.766,0.228-5.681,0.469
			c-0.787,0.101-1.678,0.039-2.396,0.394c0.366,0.866,0.813,1.861,1.504,2.514c0.329-0.735-0.932-1.393-0.892-1.529
			c0.209-0.716,0.802-0.127,1.279,0.048c-0.241-0.273-0.205-0.52-0.272-0.839c0.468,0.156,0.757,0.482,1.239,0.467
			c-0.207-0.443-0.167-0.691,0.271-0.741c0.353-0.041,0.546,0.627,1.005,0.596c0.146-0.009-0.164-0.654,0.313-0.719
			c0.429-0.057,0.245,0.762,0.835,0.56c0.101-0.034,0.171-0.811,0.187-0.965c0.675,0.277,0.146,0.994,1.04,1.098
			c0.013-0.008,0.024-0.016,0.04-0.023c-0.119-0.364-0.054-0.662,0.123-0.969c0.478,0.247,0.251,0.846,0.431,0.988
			c0.932,0.739,0.364-0.226,0.636-0.394c0.396-0.245,0.154-0.711,0.791-0.069c0.273,0.274-0.563,0.902,0.338,0.933
			c-0.02-0.285,0.197-0.609,0.219-0.854c0.935,0.188,0.126,0.831,0.528,1.176c0.488,0.42,0.521-0.146,0.417-0.526
			c0.14,0.023,1.774,1.929,1.851,2.104l-0.36-0.826C37.313,8.703,36.718,7.769,34.822,7.416z"/>
		<path style="clip-path:url(#SVGID_2_);fill:#BBE351;" d="M48.186,9.172c-1.444,0.074-2.109,0.905-3.2,1.794
			c0.251-0.204,0.967-0.177,1.315-0.351c0.532-0.267,0.863-0.877,1.525-0.908c-0.093,0.32-0.088,0.604-0.391,0.873
			c0.869,0.28,1.115-1.573,1.815-0.936c0.196,0.182-0.777,0.795-0.003,1.043c0.476,0.149,0.821-0.783,1.229-0.797
			c0.568-0.019,0.688,0.338,0.391,0.835c0.701,0.187,1.328-0.735,1.961-0.366c0.316,0.187-0.84,0.644,0.121,0.841
			c0.028,0.007,0.587-0.547,0.794-0.603c0.198-0.053-0.872,1.056-0.857,1.022c-0.226,0.439-0.125,1.046-0.144,1.556
			c0.631-0.994,1.61-2.086,1.639-3.325c-0.643-0.153-1.239-0.09-1.884-0.134C51.056,9.618,49.64,9.099,48.186,9.172z"/>
		<path style="clip-path:url(#SVGID_2_);fill:#579418;" d="M40.048,16.387c-0.564-0.286-1.079-0.591-1.396-1.148
			c-0.611,3.246,4.951,4.449,6.785,2.149c0.396-0.498,0.618-1.056,0.728-1.679L45.87,16.16
			C45.255,18.395,41.475,17.101,40.048,16.387z"/>
		<path style="clip-path:url(#SVGID_2_);fill:#DAEF3F;" d="M19.303,15.874c0.433-0.105,0.062,0.708,0.063,0.737
			c0.181,1.614,1.063-0.739,1.746,0.02c-0.251,0.342-0.447,1.095,0.291,0.979c0.611-0.096,0.368-1.279,1.28-0.543
			c-0.107,0.118-0.307,0.381-0.292,0.554c0.13,1.682,0.726-0.193,1.217-0.243c0.833-0.081-0.368,1.73,0.753,1.364
			c0.358-0.116,0.113-0.747,0.612-0.704c0.582,0.051,0.229,0.555,0.331,0.755c0.568,1.115,0.473,0.015,1.006-0.188
			c0.97-0.366,0.714,0.866-0.088,1.137c-0.229,0.078-0.764-0.133-0.824,0.243c-0.07,0.445,0.448,0.151,0.604,0.242
			c0.664,0.392,0.604,0.492-0.152,0.685c-0.361,0.093-1.405,0.191-0.705,0.735c0.154,0.12,1.436-0.086,0.444,0.586
			c-0.193,0.132-0.513-0.085-0.73,0.029c-0.237,0.124-0.378,0.658-0.485,0.893c1.414-0.573,1.699-1.032,2.39-2.343
			c0.39-0.738,0.82-1.55,1.193-2.252c-1.172-0.417-2.375-0.848-3.555-1.269C23.183,16.856,20.55,15.57,19.303,15.874z"/>
		<path style="clip-path:url(#SVGID_2_);fill:#DAEF3F;" d="M20.865,20.829c-1.126,0.329-0.688,1.864,0.208,1.272
			c0.9-0.592,1.714-0.388,1.714-0.388S21.995,20.498,20.865,20.829z"/>
		<path style="clip-path:url(#SVGID_2_);fill:#DAEF3F;" d="M40.746,15.219c-0.98-0.283-1.276-0.958-1.276-0.958
			s-0.525,1.237,0.373,1.828C40.745,16.681,41.726,15.5,40.746,15.219z"/>
		<path style="clip-path:url(#SVGID_2_);fill:#DAEF3F;" d="M44.646,15.176c-0.161,0.781-0.711,1.091-0.711,1.091
			s1.084,0.253,1.514-0.51C45.877,14.997,44.811,14.393,44.646,15.176z"/>
		<path style="clip-path:url(#SVGID_2_);fill:#DAEF3F;" d="M31.384,9.379c-0.875,0.19-0.629,1.379,0.087,0.979
			c0.715-0.4,1.319-0.201,1.319-0.201S32.258,9.192,31.384,9.379z"/>
		<path style="clip-path:url(#SVGID_2_);fill:#DAEF3F;" d="M50.592,13.645c-0.051,0.647-0.46,0.95-0.46,0.95
			s0.896,0.096,1.161-0.558C51.563,13.384,50.643,13,50.592,13.645z"/>
		<path style="clip-path:url(#SVGID_2_);fill:#8CCE29;" d="M16.283,20.452c-0.261,1.142-1.068,1.58-1.068,1.58
			s1.577,0.397,2.225-0.707C18.087,20.223,16.543,19.311,16.283,20.452z"/>
		<path style="clip-path:url(#SVGID_2_);fill:#8CCE29;" d="M16.94,24.981c0,0-0.979,0.895-0.48,1.83
			c0.5,0.936,1.837,0.292,1.137-0.396C16.897,25.727,16.94,24.981,16.94,24.981z"/>
		<path style="clip-path:url(#SVGID_2_);fill:#DAEF3F;" d="M32.06,14.082c0.838,0.442,1.577,0.12,1.577,0.12l-1.741-1.517
			C31.896,12.686,31.224,13.641,32.06,14.082z"/>
		<path style="clip-path:url(#SVGID_2_);fill:#DAEF3F;" d="M47.796,11.458c-0.653,0.594-0.592,1.335-0.592,1.335l1.898-1.054
			C49.103,11.739,48.447,10.863,47.796,11.458z"/>
		<path style="clip-path:url(#SVGID_2_);fill:#BBE351;" d="M15.601,18.674c0,0,0.237,0.965,1.952-0.564
			c1.714-1.524,4.851-3.386,8.995-4.477C26.548,13.633,19.081,14.153,15.601,18.674z"/>
		<path style="clip-path:url(#SVGID_2_);fill:#472C23;" d="M40.908,6.507c-0.268-4.641-5.176-5.931-6.666-0.988
			c-0.506-4.35-7.413-4.716-7.104,0.364c-3.68-3.912-9.696,0.556-6.922,3.787c-2.751-1.33-8.23,1.44-3.363,5.42
			c-3.994-0.916-6.031,3.79-2.744,4.351c0,0,2.265-6.087,9.477-6.794c1.711-0.169,2.407-1.218,2.11-2.083
			c-0.297-0.869-0.427-2.984-0.427-2.984s3.437-1.493,8.018-1.584c4.579-0.091,6.744,3.866,6.744,3.866
			c4.173-0.527,3.379,2.208,5.473-1.227C47.595,5.201,43.837,2.586,40.908,6.507z"/>
		<circle style="clip-path:url(#SVGID_2_);fill:#FFF9F0;" cx="19.171" cy="38.902" r="1.275"/>
	</g>
</g>
<g id="Layer_1">
</g>
</svg>
