<?xml version="1.0" encoding="iso-8859-1"?>
<!-- Generator: Adobe Illustrator 16.0.0, SVG Export Plug-In . SVG Version: 6.00 Build 0)  -->
<!DOCTYPE svg PUBLIC "-//W3C//DTD SVG 1.1//EN" "http://www.w3.org/Graphics/SVG/1.1/DTD/svg11.dtd">
<svg version="1.1" xmlns="http://www.w3.org/2000/svg" xmlns:xlink="http://www.w3.org/1999/xlink" x="0px" y="0px"
	 width="66.002px" height="66.001px" viewBox="0 0 66.002 66.001" style="enable-background:new 0 0 66.002 66.001;"
	 xml:space="preserve">
<g id="Layer_72">
	<g>
		<defs>
			<circle id="SVGID_1_" cx="33.002" cy="33.001" r="33"/>
		</defs>
		<clipPath id="SVGID_2_">
			<use xlink:href="#SVGID_1_"  style="overflow:visible;"/>
		</clipPath>
		<rect style="clip-path:url(#SVGID_2_);fill:#B6A8A9;" width="66" height="65.998"/>
		<path style="clip-path:url(#SVGID_2_);fill:#1E1E29;" d="M30.174,58.649l-2.257-2.824c-2.111,1.688-3.498,5.04-4.206,10.173h3.653
			C28.104,61.087,29.368,59.293,30.174,58.649z"/>
		<path style="clip-path:url(#SVGID_2_);fill:#FFC596;" d="M48.538,47.079c-2.417,2.943,0.012,3.784,2.324,5.313
			c1.155,0.762,2.523,2.09,3.457,0.15c0.536-1.115,0.537-2.003,0.954-3.146c0.349-0.962,0.778-2.27,1.398-3.062
			C58.377,44.159,56.021,37.976,48.538,47.079z"/>
		<path style="clip-path:url(#SVGID_2_);fill:#8E9194;" d="M47.801,33.342c-0.36-0.359-0.966-0.34-1.348,0.041l-5.522,5.547
			c-0.38,0.384-0.396,0.99-0.037,1.348l9.875,9.832c0.359,0.358,0.966,0.341,1.347-0.043l5.523-5.547
			c0.379-0.383,0.396-0.988,0.035-1.347L47.801,33.342z"/>
		<path style="clip-path:url(#SVGID_2_);fill:#141418;" d="M47.44,33.023c-0.344-0.343-0.928-0.316-1.303,0.059l-5.413,5.436
			c-0.372,0.374-0.396,0.962-0.052,1.303l9.417,9.377c0.343,0.343,0.93,0.316,1.304-0.058l5.411-5.436
			c0.373-0.376,0.396-0.962,0.053-1.304L47.44,33.023z"/>
		<path style="clip-path:url(#SVGID_2_);fill:#D9D9D9;" d="M47.44,33.023c-0.344-0.343-0.928-0.316-1.303,0.059l-5.413,5.436
			c-0.372,0.374-0.396,0.962-0.052,1.303l9.417,9.377c0.343,0.343,0.93,0.316,1.304-0.058l5.411-5.436
			c0.373-0.376,0.396-0.962,0.053-1.304L47.44,33.023z"/>
		<path style="clip-path:url(#SVGID_2_);fill:#FFFFFF;" d="M47.544,34.966c-0.276-0.275-0.724-0.276-0.993-0.005l-3.946,3.961
			c-0.27,0.271-0.264,0.718,0.011,0.992l7.276,7.248c0.277,0.271,0.723,0.275,0.992,0.004l3.946-3.963
			c0.271-0.271,0.267-0.717-0.01-0.992L47.544,34.966z"/>
		<path style="clip-path:url(#SVGID_2_);fill:#FFC596;" d="M46.553,45.982c-0.167,0.472,0.638,1.339,0.833,1.764
			c0.313,0.682-0.2,1.941,0.617,2.472c0.663,0.432,1.2-0.079,1.461-0.644c0.482-1.033-0.011-2.341-0.944-3.282
			C48.091,45.857,46.818,45.236,46.553,45.982z"/>
		<path style="clip-path:url(#SVGID_2_);fill:#1E1E29;" d="M51.01,52.982c0.265,2.894-0.537,4.99-2.2,5.754
			c-2.127,0.977-5.318-0.263-8.125-3.159l-2.597,2.516c2.89,2.981,6.174,4.588,9.137,4.588c1.086,0,2.13-0.216,3.094-0.659
			c3.094-1.42,4.698-4.922,4.292-9.367L51.01,52.982z"/>
		<path style="clip-path:url(#SVGID_2_);fill:#1E1E29;" d="M41.068,62.47c0.806-2.959,0.555-6.026-1.768-7.833
			c-3.15-2.454-7.592-1.946-10.806,0.465c-1.712,1.283-2.535,3.213-0.968,6.994c0.645,1.553,1.043,2.802,1.242,3.902h11.49
			C40.429,65.026,40.688,63.871,41.068,62.47z"/>
		<path style="clip-path:url(#SVGID_2_);fill:#43ACF0;" d="M37.921,54.182c-1.26-0.598-6.919-0.666-7.688,0.117
			c-2.055,2.095-1.8,8.76,4.454,10.301C39.831,63.356,40.273,55.297,37.921,54.182z"/>
		<ellipse style="clip-path:url(#SVGID_2_);fill:#D9D9D9;" cx="34.796" cy="59.657" rx="0.625" ry="0.59"/>
		<ellipse style="clip-path:url(#SVGID_2_);fill:#D9D9D9;" cx="34.796" cy="62.037" rx="0.625" ry="0.59"/>
		<linearGradient id="SVGID_3_" gradientUnits="userSpaceOnUse" x1="34.3096" y1="53.249" x2="34.3096" y2="56.4178">
			<stop  offset="0" style="stop-color:#EE996D"/>
			<stop  offset="0.0163" style="stop-color:#EE9A6E"/>
			<stop  offset="0.3731" style="stop-color:#F8B181"/>
			<stop  offset="0.7088" style="stop-color:#FDBF8D"/>
			<stop  offset="1" style="stop-color:#FFC491"/>
		</linearGradient>
		<path style="clip-path:url(#SVGID_2_);fill:url(#SVGID_3_);" d="M37.829,54.074c-0.59-0.375-0.938-2.365-0.85-3.92
			c0.203-3.523-5.885-3.654-5.879,0.191c0.003,1.705,0.027,3.153-0.431,3.623c-0.885,0.909-0.356,2.383,4.015,4.178
			C37.108,56.945,39.312,55.016,37.829,54.074z"/>
		<path style="clip-path:url(#SVGID_2_);fill:#313142;" d="M37.557,53.621c1.432,3.407,1.468,8.396-2.731,10.975
			c5.265-0.62,8.006-3.874,8.006-3.874s-1.028-1.19-1.722-1.814c0.567-0.378,1.646-0.72,2.505-0.796
			C42.918,56.467,39.538,54.238,37.557,53.621z"/>
		<path style="clip-path:url(#SVGID_2_);fill:#313142;" d="M30.809,53.773c-1.845,0.598-4.687,2.371-5.269,4.15
			c0.857,0.057,1.949,0.389,2.537,0.777c-0.645,0.689-1.584,1.996-1.584,1.996s2.935,3.399,8.194,3.902
			C30.353,61.969,29.934,57.072,30.809,53.773z"/>
		<path style="clip-path:url(#SVGID_2_);fill:#231E1A;" d="M47.959,15.811c-1.864-2.416-2.448-5.138,0.644-5.306
			c-2.012-1.468-7.687-3.038-13.958-2.702c0.194-0.539,0.057-0.945,0.585-1.387c-2.686,0.358-5.903,0.411-9.336,2.481
			c-1.576,0.95-2.266,2.392-4.077,2.907c-1.809,0.514-2.769,0.842-4.484,1.809c-3.622,2.043-5.596,6.471-6.008,7.799
			c0.701-0.666,2.334-1.088,3.007-0.847c-1.299,2.192-1.467,4.091-0.657,6.289c0.834,2.27-1.475,6.603-0.268,8.383
			c2.327,3.431,4.455,8.678,4.889,12.692c0.001-0.048,4.932-3.33,5.372-3.946c0.807-1.124,0.984-2.503,1.861-3.608
			c2.186-2.744,6.079-3.959,9.455-3.88c2.467,0.058,3.358,1.116,4.824,2.753c0.971,1.084,4.591,2.461,6.815,6.963
			c1.086-1.277,2.184-3.354,2.183-4.953c0.375,0.666,1.881,0.674,3.364,0c-1.742-1.387-3.135-5.912-2.942-8.039
			c0.14-1.527,2.822-2.734,1.494-6.631c-0.352-1.037-0.604-0.818-0.652-1.918c1.336-0.197,2.186-1.052,3.303-1.76
			C49.625,22.728,50.147,18.646,47.959,15.811z"/>
		
			<ellipse transform="matrix(-0.0886 -0.9961 0.9961 -0.0886 11.0854 91.2027)" style="clip-path:url(#SVGID_2_);fill:#FFFFFF;" cx="47.268" cy="40.53" rx="1.361" ry="1.14"/>
		<path style="clip-path:url(#SVGID_2_);fill:#FFC596;" d="M32.636,16.254c-8.156,0.721-14.426,7.824-13.799,19.115
			c0.628,11.292,7.9,18.539,16.089,18.543c7.236,0.002,13.889-10.158,12.901-21.422C46.854,21.373,40.788,15.533,32.636,16.254z"/>
		<path style="clip-path:url(#SVGID_2_);fill:#FFC596;" d="M16.005,32.393c-3.633,1.648-1.864,7.926,1.203,8.869
			c0.984,0.303,2.012,0.24,2.996,0.041c0.017-0.039,0.033-0.075,0.053-0.117c0.406-0.889-0.577-5.091-0.841-5.951
			C18.749,33.07,17.749,31.601,16.005,32.393z"/>
		<path style="opacity:0.3;clip-path:url(#SVGID_2_);fill:#D14F2E;" d="M18.111,34.594c-0.985-0.531-3.525,0.146-2.431,2.199
			c0.699-1.791,1.757-0.518,1.533,0.771c-0.151,0.867-1.082,0.818-0.203,2.001c0.474,0.639,1.498,0.479,2.023,0.188
			C20.703,38.826,19.313,35.241,18.111,34.594z"/>
		
			<ellipse transform="matrix(-0.0219 -0.9998 0.9998 -0.0219 -22.5165 61.2911)" style="clip-path:url(#SVGID_2_);fill:#FFFFFF;" cx="18.724" cy="41.66" rx="1.362" ry="1.142"/>
		<path style="opacity:0.2;clip-path:url(#SVGID_2_);fill:#BF3C1B;" d="M42.511,16.982c-4.421-0.35-9.07-0.061-13.372,1.041
			c-6.767,1.73-11.996,9.173-11.39,16.188c0.351,4.043,1.72,9.413,6.671,9.105c-0.395-0.58-0.815-1.107-1.145-1.731
			c-1.874-3.56-2.637-9.397-1.27-13.245c0.254,0.06,1.626,0.492,1.596,0.838c0.269-2.975,1.509-4.141,4.197-5.193
			c1.936-0.756,4.541-1.668,6.625-1.75c1.617-0.062,3.113,1.4,4.541,2.119c1.554,0.781,3.324,1.268,5.078,1.021
			c-0.247-0.536-0.536-1.146-0.478-1.731c0.035-0.373,2.208,1.861,2.307,1.996c0.77,1.043,1.395,2.235,1.535,3.541
			c0.65-2.762-1.247-5.037-1.619-7.873C45.421,18.508,44.874,17.167,42.511,16.982z"/>
		<path style="clip-path:url(#SVGID_2_);fill:#231E1A;" d="M47.401,19.453c-0.929-1.613-1.751-3.094-3.457-3.867
			c-7.878-3.578-15.884-1.402-23.285,2.175c-1.608,0.778-2.965,2.03-3.84,3.585c-1.598,2.84-0.211,10.164,1.221,16.057
			c1.131,4.655,4.926,5.033,4.928,5.033c-3.646-4.785-1.523-16.451,0.02-18.94c-0.61,0.985-0.401,2.931,0.355,3.796
			c-0.021-2.641,2.296-3.548,4.268-4.557c2.251-1.152,5.517-2.162,8.045-2.252c0.97,1.791,4.846,3.965,6.924,3.709
			c-0.647-0.448-1.021-1.353-0.617-2.061c1.107,0.48,1.979,0.467,2.941,1.237c0.246,0.196,3.604,2.512,3.606,2.631
			C48.452,23.987,48.888,22.033,47.401,19.453z"/>
		<path style="clip-path:url(#SVGID_2_);fill:#423833;" d="M47.88,17.609c-1.155-1.396-2.914-4.203-6.307-4.94
			c0.803-0.921,2.778-1.851,4.166-2.326c-1.994-0.688-5.208-1.308-7.65-1.19c-1.02,0.047-2.094,0.648-3.1,0.273
			c-0.32-0.119-1.694-1.088-0.987-2.279c-1.853,0.436-4.228,1.117-5.938,1.949c-1.649,0.801-2.955,2.111-4.575,2.963
			c-2.125,1.118-4.161,0.787-6.844,2.556c-1.646,1.086-2.688,3.421-3.312,4.203c1.107-0.522,4.273-1.978,5.459-1.772
			c-1.521,3.489-1.283,5.381-4.617,8.602c6.573,0.933,7.918-4.111,10.254-4.879c-0.135,1.104-0.603,2.128-0.661,3.236
			c3.015-3.914,7.676-4.689,12.235-5.271c0.689,1.211,2.935,2.75,4.309,3.119c-0.062-0.996-0.003-1.991,0.295-2.936
			c1.923,0.229,9.552,5.46,11.185,4.162C49.506,22.977,49.453,19.506,47.88,17.609z"/>
		<path style="clip-path:url(#SVGID_2_);fill:#1A1614;" d="M28.854,31.67c-2.242-0.777-3.328,3.182-1.752,4.332
			c0.676-0.252,1.499-0.237,2.168,0.027C30.673,35.167,30.524,32.25,28.854,31.67z"/>
		<path style="clip-path:url(#SVGID_2_);fill:#1A1614;" d="M45.105,31.533c-2.217-1.227-4.13,3.383-1.672,4.014
			c0.592-0.367,1.304-0.377,1.937-0.297C46.21,34.264,46.29,32.191,45.105,31.533z"/>
		<path style="clip-path:url(#SVGID_2_);fill:#2B241E;" d="M23.366,30.502c0.818-0.412,2.86-0.872,5.156-0.645
			c1.838,0.185,2.684,1.014,3.178-1.287c-1.479,0.31-2.721,0.145-4.209,0.279C26.224,28.962,24.437,29.31,23.366,30.502z"/>
		<path style="clip-path:url(#SVGID_2_);fill:#2B241E;" d="M40.037,28.087c0.515,2.104,1.262,1.255,2.933,0.921
			c2.087-0.418,3.962-0.17,4.718,0.142c-1.007-1.018-2.647-1.183-3.804-1.177C42.523,27.981,41.393,28.244,40.037,28.087z"/>
		<path style="opacity:0.3;clip-path:url(#SVGID_2_);fill:#D14F2E;" d="M36.822,39.011c-0.798,0.071-1.147-0.239-1.678,0.11
			c-0.528,0.352,0.788,1.338,1.769,1.18c1.109-0.178,1.939-1.166,1.611-1.475C38.144,38.465,37.707,38.932,36.822,39.011z"/>
		<path style="clip-path:url(#SVGID_2_);fill:#1A1614;" d="M22.646,32.699c0,0,2.365,2.254,5.112,0.303l-0.32-1.15
			C27.438,31.852,25.274,34.143,22.646,32.699z"/>
		<path style="clip-path:url(#SVGID_2_);fill:#1A1614;" d="M45.163,31.601l-0.344,1.015c2.761,1.965,4.607,0.112,4.607,0.112
			C47.321,33.625,45.163,31.601,45.163,31.601z"/>
		<path style="clip-path:url(#SVGID_2_);fill:#A88686;" d="M27.841,32.33c-0.858,0.365-0.062,2.031,0.753,1.344
			C29.183,33.179,28.608,32.008,27.841,32.33z"/>
		<path style="clip-path:url(#SVGID_2_);fill:#A88686;" d="M44.006,31.992c-0.848,0.198-0.382,1.856,0.478,1.355
			C45.104,32.985,44.761,31.818,44.006,31.992z"/>
		<path style="clip-path:url(#SVGID_2_);fill:#FFA26F;" d="M44.543,37.23c-1.225,0.101-2.161,0.852-2.088,1.676
			c0.072,0.824,1.123,1.41,2.347,1.311c1.227-0.104,2.16-0.853,2.088-1.678C46.817,37.715,45.767,37.128,44.543,37.23z"/>
		<path style="clip-path:url(#SVGID_2_);fill:#FFA26F;" d="M27.389,37.672c-1.348-0.111-2.505,0.535-2.583,1.443
			c-0.079,0.908,0.95,1.734,2.3,1.845c1.349,0.11,2.505-0.536,2.583-1.444S28.738,37.783,27.389,37.672z"/>
		<path style="opacity:0.5;clip-path:url(#SVGID_2_);fill:#FF3B3B;" d="M29.709,42.76c-2.174,0.455-1.839,0.961-1.027,2.395
			c1.351,2.387,5.144,4.57,9.726,3.2c2.263-0.676,3.335-2.417,2.752-4.647l2.501-1.752C40.329,41.437,33.822,41.9,29.709,42.76z"/>
		<path style="clip-path:url(#SVGID_2_);fill:#8F2722;" d="M30.386,43.514c-1.273,0.053-1.748,0.328-0.747,1.634
			c1.313,1.714,4.565,2.583,7.461,2.104c2.602-0.43,3.845-2.093,3.487-3.861c0.265-0.156,0.631-0.455,0.995-0.686
			C38.59,42.296,33.485,43.383,30.386,43.514z"/>
		<path style="clip-path:url(#SVGID_2_);fill:#FFF9F0;" d="M40.537,42.689c-2.86-0.061-6.836,0.507-9.056,1.053
			c-0.459,0.113-1.406,0.576-0.852,0.936c1.003,0.653,8.914,0.123,9.272-0.07C40.478,44.299,41.253,42.706,40.537,42.689z"/>
		<path style="clip-path:url(#SVGID_2_);fill:#E8DAC5;" d="M40.683,42.612c-2.601-0.13-6.489,0.391-10.671,0.927
			c0,0,0.007,0.733,0.618,1.139c0,0,5.073-2.099,10.048-1.079C40.678,43.599,41.295,42.643,40.683,42.612z"/>
		<path style="opacity:0.3;clip-path:url(#SVGID_2_);fill:#B54D26;" d="M46.327,29.014c-1.398,0.116-2.786,0.374-4.134,0.773
			c-1.146,0.34-2.503,0.521-3.552,1.105c-0.969,0.541-1.371,0.887-2.562,0.873c-2.126-0.023-3.955-1.291-6.083-1.447
			c-2.216-0.162-4.484-0.354-6.643,0.313c-0.562,0.174-2.253,0.874-1.078,1.447c1.146,0.558,2.829,0.318,4.066,0.33
			c0.571,0.004,1.146,0,1.715,0.035c2.025,0.125,5.123-0.249,5.038,2.277c-0.058,1.733-1.118,3.543-2.515,3.911
			c-1.339,0.353-2.778,0.518-4.146,0.554c-1.044,0.028-2.06-0.143-3.025-0.557c-0.274-0.115-1.099-0.605-1.349-0.232
			c-0.428,0.633,1.246,1.613,1.682,1.795c0.997,0.413,2.044,0.516,3.114,0.598c2.642,0.199,5.349-0.023,6.763-2.487
			c0.819-1.431,1.201-3.095,1.955-4.56c1.236-2.395,1.949,0.785,2.405,2.172c0.257,0.779,0.616,1.533,1.118,2.182
			c0.887,1.146,2.58,1.731,3.98,1.755c0.863,0.013,1.745-0.059,2.542-0.417c0.483-0.217,0.663-0.79,0.07-0.992
			c-0.356-0.123-0.919-0.01-1.292-0.014c-0.541-0.004-1.094,0.006-1.631-0.078c-0.687-0.107-1.385-0.369-1.976-0.775
			c-0.413-0.283-0.774-0.639-1.045-1.063c-0.563-0.881-0.622-1.978-0.3-2.96c0.44-1.351,1.905-1.503,3.118-1.644
			c1.47-0.172,2.961-0.191,4.425-0.372c0.65-0.079,1.304-0.012,1.958-0.011c0.841,0.003,2.646-0.32,1.612-1.509
			C49.563,28.87,47.684,28.901,46.327,29.014z"/>
		<path style="clip-path:url(#SVGID_2_);fill:#F06799;" d="M21.231,29.769c-1.736,0.11-3.234-0.325-3.634,0.037
			c-0.517,0.472,0.463,1.993,0.463,1.993s0.566,0.373,1.381,0.415c0.152,1.202,0.184,4.323,2.463,6.221
			c1.902,1.584,7.957,1.866,9.808,0.86c2.291-1.244,3.214-3.447,3.556-5.603C36.109,28.41,23.681,29.611,21.231,29.769z
			 M31.792,37.877c-2.251,1.557-8.146,1.045-9.732-0.793c-1.224-1.42-1.528-4.455-0.822-4.911
			c2.157-1.396,10.445-1.151,12.405,0.247C34.593,33.099,33.497,36.695,31.792,37.877z"/>
		<path style="clip-path:url(#SVGID_2_);fill:#F06799;" d="M49.714,28.38c-2.216,0.071-13.494,0.032-12.255,5.212
			c0.505,2.115,1.535,4.221,3.708,5.248c1.757,0.828,7.173-0.017,8.736-1.769c1.875-2.102,1.617-5.212,1.643-6.424
			c0.729-0.118,1.204-0.542,1.204-0.542s0.742-1.604,0.232-2.025C52.591,27.754,51.284,28.33,49.714,28.38z M49.641,35.739
			c-1.257,1.978-6.509,3.035-8.675,1.694c-1.641-1.016-2.955-4.496-2.162-5.26c1.631-1.574,9.059-2.588,11.126-1.4
			C50.606,31.162,50.61,34.214,49.641,35.739z"/>
		<path style="opacity:0.3;clip-path:url(#SVGID_2_);fill:#FFFFFF;" d="M40.245,31.656c-1.209,0.569,1.04,1.143,1.52,1.199
			c1.671,0.19,3.549,0.012,5.307-0.376c0.924-0.204,2.895-1.118,2.303-1.612C48.545,30.178,41.58,31.026,40.245,31.656z"/>
		<path style="clip-path:url(#SVGID_2_);fill:#FFFFFF;" d="M45.711,31.166c-0.661,0.127-1.091,0.338-0.896,0.63
			c0.38,0.578,4.275,0.109,4.527-0.351C49.587,30.992,47.121,30.893,45.711,31.166z"/>
		<path style="opacity:0.7;clip-path:url(#SVGID_2_);fill:#FFFFFF;" d="M41.64,36.178c-0.42-0.006-0.707,0.092-0.625,0.352
			c0.156,0.516,2.595,0.768,2.806,0.445C44.026,36.656,42.535,36.188,41.64,36.178z"/>
		<path style="opacity:0.7;clip-path:url(#SVGID_2_);fill:#FFFFFF;" d="M23.396,36.606c-0.439-0.056-0.753,0.005-0.702,0.274
			c0.1,0.53,2.618,1.075,2.881,0.781C25.831,37.373,24.33,36.725,23.396,36.606z"/>
		<path style="opacity:0.3;clip-path:url(#SVGID_2_);fill:#FFFFFF;" d="M32.714,32.143c-1.567-0.502-9.293-0.832-10.065-0.125
			c-0.553,0.508,1.758,1.236,2.801,1.365c1.982,0.247,4.056,0.289,5.836-0.004C31.796,33.295,34.135,32.6,32.714,32.143z"/>
		<path style="clip-path:url(#SVGID_2_);fill:#FFFFFF;" d="M29.351,31.804c-0.709,0.046-1.186,0.201-1.022,0.516
			c0.322,0.62,4.461,0.634,4.782,0.206C33.429,32.107,30.861,31.707,29.351,31.804z"/>
		<path style="clip-path:url(#SVGID_2_);fill:#F06799;" d="M38.817,30.4c-1.587,0.79-3.153,0.957-5.42,0.231
			c-1.712-0.546,0.925,1.073,1.15,1.946c0.227,0.873,0.021,3.568,0.557,1.948s1.716-1.76,2.52-0.313
			c0.803,1.447,0.62-2.482,0.916-2.85S40.403,29.609,38.817,30.4z"/>
		<path style="clip-path:url(#SVGID_2_);fill:#FFD1E2;" d="M22.063,30.259c4.699,0.085,8.452,0.1,11.32,1.104
			C31.487,29.901,28.295,29.666,22.063,30.259z"/>
		<path style="clip-path:url(#SVGID_2_);fill:#FFD1E2;" d="M49.33,28.801c-5.721,0.393-8.389,0.519-9.882,2.025
			C41.89,29.567,45.097,29.547,49.33,28.801z"/>
	</g>
</g>
<g id="Layer_1">
</g>
</svg>
