<?xml version="1.0" encoding="iso-8859-1"?>
<!-- Generator: Adobe Illustrator 16.0.0, SVG Export Plug-In . SVG Version: 6.00 Build 0)  -->
<!DOCTYPE svg PUBLIC "-//W3C//DTD SVG 1.1//EN" "http://www.w3.org/Graphics/SVG/1.1/DTD/svg11.dtd">
<svg version="1.1" xmlns="http://www.w3.org/2000/svg" xmlns:xlink="http://www.w3.org/1999/xlink" x="0px" y="0px"
	 width="66.013px" height="66px" viewBox="0 0 66.013 66" style="enable-background:new 0 0 66.013 66;" xml:space="preserve">
<g id="Layer_10">
	<g>
		<defs>
			<circle id="SVGID_1_" cx="33.013" cy="33" r="33"/>
		</defs>
		<clipPath id="SVGID_2_">
			<use xlink:href="#SVGID_1_"  style="overflow:visible;"/>
		</clipPath>
		<rect style="clip-path:url(#SVGID_2_);fill:#A55A86;" width="66" height="66"/>
		<path style="clip-path:url(#SVGID_2_);fill:#94ABD4;" d="M41.742,64.838c0-6.661,4.525-8.576,0.402-11.264
			c-2.34-1.524-14.08-1.977-16.988,0.131c-4.222,3.057,0.813,4.694,0.668,11.336c-0.007,0.331-0.021,0.648-0.038,0.959h15.98
			C41.751,65.617,41.742,65.23,41.742,64.838z"/>
		<path style="clip-path:url(#SVGID_2_);fill:#7E92A8;" d="M46.682,13.462c-8.242-1.417-18.591-0.263-25.901,2.548
			c-3.813,1.466-9.67,5.501-14.441,10.269c-1.063,0.918-0.177,1.812,1.776,2.792c5.76,2.884,18.824,2.072,24.229,1.518
			c7.056-0.724,19.229-3.873,23.797-6.631c2.157-1.302,3.314-2.545,2.663-3.548C55.183,18.759,48.073,13.703,46.682,13.462z"/>
		<circle style="clip-path:url(#SVGID_2_);fill:#FFFFFF;" cx="33.711" cy="57.337" r="0.907"/>
		<circle style="clip-path:url(#SVGID_2_);fill:#FFFFFF;" cx="33.817" cy="62.654" r="0.906"/>
		<path style="clip-path:url(#SVGID_2_);fill:#BACBE3;" d="M29.789,50.885c0.19-0.346,0.424-0.615,0.674-0.715
			c0.804-0.317,2.223,0.791,3.126,0.806c0.991,0.016,2.397-1.034,3.257-0.87c0.949,0.178,1.148,2.005,1.072,2.949
			c-0.182,2.315-5.023,1.991-6.414,1.615c-0.656-0.176-1.926-0.789-2.138-1.663C29.231,52.452,29.434,51.533,29.789,50.885z"/>
		<path style="clip-path:url(#SVGID_2_);fill:#C9BEB7;" d="M53.402,32.335c2.938-0.049,1.508-6.938,1.274-8.489
			c-0.62-4.155-2.684-7.993-6.034-10.569c-6.507-5.005-13.301-1.499-21.004-0.481c-7.733,1.02-14.186,4.977-16.271,9.777
			c-0.832,1.911-3.792,10.262-0.092,10.616c-1.496,1.614-2.201,6.015,0.906,6.284c-0.859,2.174-0.259,5.09,2.56,4.852
			c0.108,2.41,1.306,4.127,3.884,3.972c-0.041,2.867,2.584,4.423,4.579,2.292c1.444,2.104,3.484,0.807,5.204-0.119
			c1.776-0.957,3.869-1.727,5.8-0.684c0.618,0.334,0.876,0.979,1.593,1.175c0.288,0.079,2.554-0.351,2.336-0.654
			c1.01,1.399,3.933,2.96,4.572,0.169c1.895,1.729,4.326-0.326,4.074-2.484c2.853,0.428,3.478-2.119,3.207-4.422
			c2.886-0.239,2.883-2.934,2.278-5.238C55.074,37.99,54.102,33.993,53.402,32.335z"/>
		<circle style="clip-path:url(#SVGID_2_);fill:#FFFFFF;" cx="47.378" cy="41.146" r="1.356"/>
		<path style="clip-path:url(#SVGID_2_);fill:#FFC38F;" d="M18.921,36.887c1.161,7.726,7.248,16.146,16.233,15.385
			c9.172-0.777,13.586-12.225,12.272-21.732c-1.429-10.337-6.447-18.905-17.153-16.665C22.626,15.471,17.376,26.565,18.921,36.887z"
			/>
		<path style="opacity:0.2;clip-path:url(#SVGID_2_);fill:#BF3C1B;" d="M47.146,25.213c-1.796,2.612-6.172,3.44-9.391,2.589
			c-1.574-0.416-2.057-0.374-3.593,0.233c-1.557,0.614-2.893,1.259-4.623,1.233c-1.957-0.026-3.9-0.638-5.359-1.869
			c-0.248,1.529-1.257,2.92-2.961,3.075c0.692,0.899,1.689,3.663-0.446,3.263c-2.125-0.4-2.84-5.034-2.916-6.63
			c-0.228-4.756-0.578-9.805,4.572-12.076c2.588-1.144,5.628-1.025,8.427-1.002c3.154,0.024,6.282,0.473,9.317,1.302
			c1.787,0.493,3.639,0.942,5.255,1.852c0.751,0.426,1.456,0.965,1.925,1.677c0.646,0.975,0.488,2.032,0.591,3.121
			C48.062,23.261,47.748,24.337,47.146,25.213z"/>
		<path style="clip-path:url(#SVGID_2_);fill:#FFC38F;" d="M17.111,40.238c0.993,0.339,2.04,0.372,3.048,0.287
			c0.018-0.029,0.038-0.061,0.057-0.093c0.441-0.721-0.241-4.719-0.483-5.47c-0.604-1.889-1.742-2.868-3.544-2.352
			C12.439,33.704,14.026,39.172,17.111,40.238z"/>
		<path style="opacity:0.4;clip-path:url(#SVGID_2_);fill:#D14F2E;" d="M18.552,38.859c1.357-0.881,0.024-3.783-1.015-4.24
			c-0.852-0.381-2.953,0.35-1.938,1.991c0.503-1.542,1.45-0.544,1.322,0.544c-0.086,0.733-0.872,0.754-0.076,1.681
			C17.273,39.34,18.124,39.135,18.552,38.859z"/>
		<path style="clip-path:url(#SVGID_2_);fill:#C9BEB7;" d="M48.601,17.975c-0.265-0.636-0.681-1.27-1.271-1.885
			c-2.775-2.883-6.831-4.759-10.851-5.45c-2.563-0.433-5.311-0.444-7.885-0.118c-4.332,0.553-9.546,2.581-10.859,6.981
			c-0.807,2.703-0.328,5.817-0.072,8.558c0.188,2.039-0.004,4.223,0.729,6.18c0.345,0.92,2.942,4.572,3.168,1.579
			c0.098-1.305-0.893-2.637-1.165-3.891c2.165,0.792,3.229-2.429,3.671-3.814c2.861,1.806,6.219,2.073,9.398,0.894
			c1.161-0.432,2.09-0.917,3.363-0.72c1.22,0.19,2.216,0.75,3.503,0.727C45.109,26.928,50.415,22.349,48.601,17.975z"/>
		<path style="opacity:0.7;clip-path:url(#SVGID_2_);fill:#F0EAE6;" d="M27.082,25.003c-1.653,0.945-3.535,1.654-5.399,0.696
			c-0.218,1.3-0.99,3.778-2.308,4.592c-1.932,1.191-3.036-0.457-3.6-1.859c-1.694,1.84-3.654-0.139-3.848-1.799
			c-0.396-3.429,3.964-4.478,6.921-5.058c5.383-1.058,10.764-1.584,16.259-1.912c2.858-0.171,5.683-0.234,8.552-0.164
			c2.509,0.061,6.688-0.535,8.734,1.183c0.727,0.612,1.617,2.534,1.11,3.442c-0.373,0.668-1.89,1.087-1.65-0.167
			c-0.285,1.504-2.018,2.532-3.025,0.831c-0.627-1.054-0.357-2.421-1.176-3.497c-0.813,1.176-2.013,2.541-3.385,3.273
			c-1.339,0.713-3.15,0.771-4.67,0.447c-2.046-0.438-1.87-0.488-3.832,0.333C33.932,26.112,28.14,27.52,27.082,25.003z"/>
		<path style="clip-path:url(#SVGID_2_);fill:#FFFFFF;" d="M19.639,42.412c0.009,0.748-0.591,1.365-1.34,1.375
			c-0.748,0.009-1.364-0.592-1.375-1.34c-0.009-0.744,0.589-1.361,1.338-1.371C19.011,41.065,19.628,41.666,19.639,42.412z"/>
		<path style="opacity:0.4;clip-path:url(#SVGID_2_);fill:#D14F2E;" d="M25.104,35.416c1.052-0.889-2.14-0.993-2.628-0.861
			c0.045,0.626,1.471,0.325,1.897,0.426c-0.375,0.388-1.486,0.387-1.943,0.65c-0.485,0.281-0.434,0.47,0.144,0.457
			C22.919,36.078,24.854,35.627,25.104,35.416z"/>
		<path style="opacity:0.4;clip-path:url(#SVGID_2_);fill:#D14F2E;" d="M44.725,34.873c-1.051-0.888,2.139-0.993,2.628-0.861
			c-0.045,0.626-1.471,0.324-1.898,0.426c0.375,0.387,1.486,0.385,1.943,0.65c0.487,0.28,0.434,0.469-0.144,0.457
			C46.909,35.534,44.974,35.084,44.725,34.873z"/>
		<path style="clip-path:url(#SVGID_2_);fill:#FF7752;" d="M46.396,37.24c0.081,0.145,0.141,0.307,0.17,0.499
			c0.305,1.821-3.571,1.093-3.974,0.29c-0.752-1.502,0.591-1.822,1.573-1.774C44.92,36.291,45.967,36.479,46.396,37.24z"/>
		<path style="clip-path:url(#SVGID_2_);fill:#FF7752;" d="M27.397,37.228c0.112,0.149,0.205,0.323,0.273,0.54
			c0.644,2.039-3.741,2.084-4.317,1.249c-1.084-1.569,0.335-2.251,1.425-2.424C25.616,36.463,26.794,36.442,27.397,37.228z"/>
		<path style="clip-path:url(#SVGID_2_);fill:#614D45;" d="M48.142,29.796c-1.112-1.829-5.789-2.137-7.496-0.545
			C42.858,29.592,45.377,29.733,48.142,29.796z"/>
		<path style="opacity:0.4;clip-path:url(#SVGID_2_);fill:#D14F2E;" d="M37.477,37.881c0.277,0.297-0.545,1.156-1.566,1.264
			c-0.901,0.097-2.035-0.871-1.533-1.164c0.506-0.291,0.804,0.008,1.536-0.018C36.727,37.936,37.152,37.529,37.477,37.881z"/>
		<path style="clip-path:url(#SVGID_2_);fill:#614D45;" d="M21.579,29.903c1.612-1.727,6.514-2.352,8.165-0.622
			C26.967,29.635,25.596,29.593,21.579,29.903z"/>
		<path style="clip-path:url(#SVGID_2_);fill:#425361;" d="M26.7,35.652c-0.634-0.254-1.418-0.258-2.061-0.005
			c-1.507-1.122-0.511-5.055,1.628-4.307C27.857,31.894,28.027,34.785,26.7,35.652z"/>
		<path style="clip-path:url(#SVGID_2_);fill:#C3D5E3;" d="M25.902,32.764c0.778-0.135,1.052,1.128,0.397,1.469
			C25.396,34.711,25.027,32.923,25.902,32.764z"/>
		<path style="clip-path:url(#SVGID_2_);fill:#425361;" d="M45.231,31.159c1.142,0.73,1.05,2.98,0.234,4.042
			c-0.61-0.099-1.299-0.097-1.871,0.296C41.229,34.78,43.104,29.803,45.231,31.159z"/>
		<path style="clip-path:url(#SVGID_2_);fill:#C3D5E3;" d="M44.382,32.364c0.746-0.017,0.843,1.301,0.187,1.547
			C43.661,34.248,43.543,32.385,44.382,32.364z"/>
		<path style="clip-path:url(#SVGID_2_);fill:#121B21;" d="M49.933,31.832c0,0-1.946,2.045-4.959,0.363
			c-1.33-0.743-2.274,0.421-2.274,0.421s0.641-2.313,2.591-1.562C46.337,31.46,47.543,32.633,49.933,31.832z"/>
		<path style="clip-path:url(#SVGID_2_);fill:#121B21;" d="M19.877,32.477c0,0,2.337,1.937,5.199,0.071
			c1.256-0.819,2.368,0.125,2.368,0.125s-0.583-2.275-2.593-1.194C24.08,31.89,22.296,33.124,19.877,32.477z"/>
		<path style="clip-path:url(#SVGID_2_);fill:#FF3B3B;" d="M27.641,39.5c1.107,2.086-1.52,3.079-2.599,1.031
			C25.964,40.975,27.197,40.542,27.641,39.5z"/>
		<path style="clip-path:url(#SVGID_2_);fill:#FF3B3B;" d="M42.418,39.144c-0.576,2.165,2.271,2.915,2.829,0.796
			C44.444,40.458,43.116,40.141,42.418,39.144z"/>
		<path style="clip-path:url(#SVGID_2_);fill:#FF3B3B;" d="M34.791,46.482c-3.896-0.127-7.025-2.216-8.34-4.987
			c-0.139-0.286,0.011-0.599,0.326-0.704c0.314-0.104,0.683,0.043,0.819,0.335c1.147,2.413,3.951,4.237,7.459,4.259
			c3.642,0.025,6.771-1.891,7.813-4.811c0.101-0.283,0.451-0.426,0.781-0.318c0.328,0.105,0.514,0.42,0.413,0.709
			c-1.204,3.367-4.753,5.553-8.942,5.523C35.012,46.488,34.901,46.486,34.791,46.482z"/>
		<path style="clip-path:url(#SVGID_2_);fill:#94ABD4;" d="M39.37,2.748c8.548,0.073,8.249,8.187,10.766,13.128
			c-10.975-3.379-25.985-2.659-36.851,4.67c0.312-4.193,0.243-10.098,2.384-12.389C18.779,4.83,28.941,2.658,39.37,2.748z"/>
		<path style="clip-path:url(#SVGID_2_);fill:#BACBE3;" d="M14.317,10.874c0,0-0.594-4.945,10.346-6.82
			c9.549-1.636,16.197-1.697,18.454-0.835c2.813,1.075,3.961,4.499,3.961,4.499s-6.171-4.203-21.525-1.544
			C17.188,7.623,14.317,10.874,14.317,10.874z"/>
		<path style="clip-path:url(#SVGID_2_);fill:#BACBE3;" d="M57.985,19.229c-3.392-1.477-6.603-3.529-8.958-5.601
			c-11.129-3.124-25.806-0.462-35.443,4.915c-2.452,2.739-4.177,4.354-6.879,6.688c-1.783,1.543-1.66,2.76,1.41,3.839
			c-4.035-1.729-0.669-3.945,1.446-5.094c9.566-5.201,34.07-7.286,46.6-4.42c1.812,0.414,3.391,1.017,2.405,2.464
			C59.846,20.616,59.097,19.713,57.985,19.229z"/>
		<path style="opacity:0.5;clip-path:url(#SVGID_2_);fill:#7884AB;" d="M37.323,7.69c-1.503,0.627-2.13,2.46-1.764,4.07
			c0.324,1.428,1.508,2.747,2.91,3.13c0.594,1.345,1.102,2.472,2.559,2.957c1.114,0.372,2.29,0.489,3.456,0.358
			c1.614-0.182,2.917-0.994,4.562-0.7c0.718,0.128,2.322,0.667,2.896-0.042c0.834-1.031-1.487-2.983-2.082-3.556
			c-1.643-1.58-3.419-3.195-5.333-4.444c-1.869-1.221-4.306-2.354-6.602-1.948C37.711,7.552,37.511,7.612,37.323,7.69z"/>
		<path style="clip-path:url(#SVGID_2_);fill:#F06799;" d="M44.917,3.555c0.828,0.059,1.622,0.484,1.945,1.278
			c1.974-2.263,6.512-1.202,4.752,2.124c5.522-1.219,7.065,6.747,2.171,6.67c0.92,3.337-3.43,4.238-4.992,2.634
			c-2.306,2.09-9.082,2.474-8.936-1.806c-5.396-1.059-5.064-9.03,0.172-9.772c0.785-0.112,1.77-0.067,2.53,0.15
			C42.936,3.914,43.95,3.486,44.917,3.555z"/>
		<path style="clip-path:url(#SVGID_2_);fill:#DE3E78;" d="M42.354,7.018c-4.66,0.748-2.877,7.399,1.223,6.396
			c-0.197,2.441,3.705,2.196,4.879,1.044c-2.006,0.011-2.906-0.653-3.27-2.607c-2.854,1.081-4.559-1.844-2.681-3.989
			c0.35-0.399,0.752-0.69,1.221-0.939L42.354,7.018z"/>
		<path style="clip-path:url(#SVGID_2_);fill:#FF87B3;" d="M49.828,11.349c1.497,0.93,2.989,0.482,3.375-0.837
			c0.452-1.534-2.238-2.888-3.415-2.73c0.835-1.873-4.27-2.838-2.365,0.408c-1.011-0.25-3.537-0.546-3.995,0.793
			c-0.319,0.934,1.185,1.864,1.952,1.952c-0.432-1.224,1.215-1.888,2.144-1.392c1.07,0.572,0.931,2.109-0.038,2.676
			c-0.329,0.192-0.914,0.318-1.375,0.24C49.056,14.694,50.544,12.382,49.828,11.349z"/>
		<path style="clip-path:url(#SVGID_2_);fill:#94ABD4;" d="M27.33,57.813c0,0.001-2.843-3.432-2.843-3.432
			c-1.736,1.261-2.591,6.519-3.114,11.619h4.867C26.854,62.301,27.33,59.164,27.33,57.813z"/>
		<path style="clip-path:url(#SVGID_2_);fill:#94ABD4;" d="M42.933,54.381c0,0-2.843,3.433-2.843,3.432
			c0,1.352,0.477,4.488,1.09,8.188h4.867C45.523,60.899,44.669,55.642,42.933,54.381z"/>
	</g>
</g>
<g id="Layer_1">
</g>
</svg>
