<?xml version="1.0" encoding="iso-8859-1"?>
<!-- Generator: Adobe Illustrator 16.0.0, SVG Export Plug-In . SVG Version: 6.00 Build 0)  -->
<!DOCTYPE svg PUBLIC "-//W3C//DTD SVG 1.1//EN" "http://www.w3.org/Graphics/SVG/1.1/DTD/svg11.dtd">
<svg version="1.1" xmlns="http://www.w3.org/2000/svg" xmlns:xlink="http://www.w3.org/1999/xlink" x="0px" y="0px" width="66px"
	 height="66px" viewBox="0 0 66 66" style="enable-background:new 0 0 66 66;" xml:space="preserve">
<g id="Layer_96">
	<g>
		<defs>
			<circle id="SVGID_1_" cx="33" cy="33" r="33"/>
		</defs>
		<clipPath id="SVGID_2_">
			<use xlink:href="#SVGID_1_"  style="overflow:visible;"/>
		</clipPath>
		<rect style="clip-path:url(#SVGID_2_);fill:#FFFFFF;" width="65.999" height="66"/>
		<path style="clip-path:url(#SVGID_2_);fill:#E0E0E0;" d="M31.517,48.053c-3.379,0.311-10.15,2.308-12.336,6.567
			c-1.542,3.006-2.639,7.255-2.543,11.38h35.6c-0.078-4.759-1.655-9.666-3.754-12.192C44.356,48.84,38.432,47.42,31.517,48.053z"/>
		<path style="opacity:0.1;clip-path:url(#SVGID_2_);" d="M45.917,66h0.667c-0.546-5.832-2.729-9.889-2.729-9.889
			C45.047,59.377,45.638,62.909,45.917,66z"/>
		<path style="clip-path:url(#SVGID_2_);fill:#1F1A17;" d="M44.811,14.422c-4.299-3.047-9.984-3.933-15.116-2.76
			c-21.522,4.926-17.26,27.999-10.968,26.715c4.918-1.007,10.284-3.703,15.349-1.793c3.532,1.329,6.735,3.525,10.318,4.844
			c3.19,1.176,6.301,4.254,7.192-0.114c1.98-9.691-1.243-16.44-2.811-18.809C52.461,19.257,47.521,16.341,44.811,14.422z"/>
		<path style="clip-path:url(#SVGID_2_);fill:#FFB06B;" d="M32.559,14.688c-9.325,0.627-17.346,10.872-16.581,22.218
			c0.763,11.346,8.486,18.971,19.349,18.867c12.021-0.11,16.644-10.006,15.879-21.354C50.44,23.075,41.884,14.06,32.559,14.688z"/>
		<path style="opacity:0.4;clip-path:url(#SVGID_2_);fill:#B54319;" d="M48.965,22.517c-1.351-1.844-2.68-1.909-4.848-2.253
			c-5.068-0.807-10.428-0.677-15.537-0.167c-3.103,0.309-6.321,1.342-8.196,3.964c-1.329,1.856-2.198,4.323-2.245,6.735
			c-0.024,1.315,0.195,2.617,0.719,3.794c0.688,1.549,1.954,2.096,2.625,0.336c0.578-1.514,0.901-3.139,1.543-4.633
			c0.886-2.058,2.539-3.619,4.692-4.271c2.545-0.771,5.175-0.227,7.796-0.192c2.54,0.033,6.384-0.943,8.837-0.257
			c2.216,0.619,3.132,1.695,4.64,3.336c0.419,0.456,1.16,2.683,1.896,2.623c1.478-0.12,0.249-3.244,0.045-3.933
			C50.414,25.848,50.065,24.017,48.965,22.517z"/>
		<path style="clip-path:url(#SVGID_2_);fill:#1F1A17;" d="M46.981,17.196c-1.172-1.349-2.718-2.409-4.332-3.159
			c-5.162-2.393-13.128-3.094-18.692-0.283c-1.731,0.873-3.229,2.083-4.34,3.69c-2.415,3.495-5.474,9.246-4.227,13.487
			c0.282,0.951-0.569,4.061-0.228,5.023c0.836,2.349,2.04,10.144,4.057,10.188c0.753,0.015,3.679,0.114,3.312-0.571
			c-1.158-2.162-1.71-4.635-1.955-7.061c-0.132-1.307-0.153-2.625-0.134-3.937c0.037-2.379,2.813-6.511,4.299-7.659
			c1.53-1.188,2.709-2.483,4.617-2.415c1.526,0.054,3.048,0.143,4.577,0.146c2.798,0.008,5.576-0.481,8.351-0.482
			c2.039-0.001,4.037,0.909,5.511,2.222c1.411,1.258,2.54,3.187,3.09,5.146c0.232,0.833,0.479-0.781,0.524-2.691
			c0.059-2.474-0.9-5.27-1.652-7.598C49.205,19.526,48.119,18.507,46.981,17.196z"/>
		<path style="clip-path:url(#SVGID_2_);fill:#332823;" d="M20.451,28.347c-2.06,2.61-6.344-1.891-5.693,3.204
			c0.18,1.396,1.08,2.967,2.152,0.601c-0.352,3.446,3.189,8.845,2.903,6.577c-0.412-3.268-0.395-6.765,0.992-10.267
			C20.822,28.431,20.467,28.314,20.451,28.347z"/>
		<path style="clip-path:url(#SVGID_2_);fill:#332823;" d="M38.97,21.893c-1-0.124-8.72,0.71-9.714,0.726
			c-0.347,0.005-1.155,0.128-1.196,0.493c-0.007,0.061,0.007,0.128,0.048,0.203c0.329,0.599,9.355,0.579,12.208,0.188
			C42.368,23.22,39.745,21.989,38.97,21.893z"/>
		<path style="clip-path:url(#SVGID_2_);fill:#E0E0E0;" d="M30.612,5.903C15.138,7.379,9.615,20.833,10.014,28.4
			c0.605,11.452,5.411,13.042,6.598,12.695c-0.114-3.522,1.485-11.188,11.01-17.556c10.448-6.985,14.74-14.606,12.448-16.303
			C38.176,5.834,33.385,5.637,30.612,5.903z"/>
		<path style="opacity:0.1;clip-path:url(#SVGID_2_);" d="M23.344,13.37c-4.211,2.832-8.7,8.558-9.383,12.813
			c3.246-7.602,9.706-11.375,10.701-11.87c0.619,0.408,2.475,1.708,3.129,2.186c-2.282,0.79-10.288,9.76-10.626,14.696
			c3.466-8.479,10.124-12.941,11.981-13.642c7.454,4.645,13.03,3.69,13.081,3.674C39.577,18.706,21.61,8.769,21.61,8.769
			C21.404,9.789,22.716,12.582,23.344,13.37z"/>
		<path style="clip-path:url(#SVGID_2_);fill:#E0E0E0;" d="M30.731,4.194c-2.77,0.308-7.418,1.479-8.987,3.239
			c-1.896,2.128,4.24,8.74,16.547,12.989c15.363,5.302,13.312,11.501,13.919,14.973c1.231,0.096,5.024-2.053,3.279-13.383
			C54.334,14.521,46.178,2.48,30.731,4.194z"/>
		<path style="clip-path:url(#SVGID_2_);fill:#F2F2F2;" d="M37.143,6.286c-1.215-0.271-5.008-0.829-8.073-0.564
			c-2.813,0.243-5.014,1.178-4.043,3.666c0.676,1.733,1.848,3.037,3.415,3.993c4.656,2.844,9.881,5.474,15.444,4.742
			c2.192-0.29,7.788,0.044,5.931-3.406C47.317,10.077,42.114,7.387,37.143,6.286z"/>
		<path style="clip-path:url(#SVGID_2_);fill:#F2F2F2;" d="M19.012,11.422c-2.555,0.826-4.489,4.927-3.895,7.401
			c1.512-0.749,3.116-2.328,4.201-3.65C20.358,13.903,22.159,10.405,19.012,11.422z"/>
		<path style="clip-path:url(#SVGID_2_);fill:#F2F2F2;" d="M23.471,16.315c-3.084,0.828-4.777,4.069-5.104,7.441
			c1.29-0.987,2.445-2.192,3.605-3.371c1.152-1.17,3.536-2.387,3.327-4.268C24.642,16.093,24.032,16.164,23.471,16.315z"/>
		<path style="opacity:0.4;clip-path:url(#SVGID_2_);fill:#B54319;" d="M49.552,33.468c-0.399-0.208-3.247-0.56-2.545,0.509
			c0.165,0.252,1.763,0.998,2.064,1.056c0.508,0.097,0.604-0.091,0.244-0.449c-0.337-0.337-1.32-0.497-1.551-0.95
			C48.168,33.59,49.352,34.105,49.552,33.468z"/>
		<path style="opacity:0.4;clip-path:url(#SVGID_2_);fill:#B54319;" d="M23.36,35.178c0.248,0.621,1.39,0.018,1.796,0.029
			c-0.196,0.471-1.165,0.702-1.477,1.064c-0.328,0.387-0.22,0.566,0.278,0.43c0.299-0.08,1.833-0.943,1.979-1.211
			C26.556,34.375,23.743,34.939,23.36,35.178z"/>
		<path style="clip-path:url(#SVGID_2_);fill:#1F1A17;" d="M27.555,31.832c-2.082-0.912-3.419,2.783-2.002,4
			c0.665-0.187,1.45-0.113,2.067,0.192C29.024,35.307,29.104,32.51,27.555,31.832z"/>
		<path style="opacity:0.4;clip-path:url(#SVGID_2_);fill:#B54319;" d="M37.011,37.424c-1.164,0.02-1.64-0.465-2.445-0.016
			c-0.807,0.445,0.249,2.253,2.313,2.174c2.056-0.078,3.064-1.765,2.622-2.244C38.988,36.781,38.302,37.403,37.011,37.424z"/>
		<path style="clip-path:url(#SVGID_2_);fill:#FFC896;" d="M36.162,31.147c-1.063,0.05-1.806,1.528-2.003,3.45
			c-0.205,1.996-0.159,2.831,0.34,3.225c1.281,1.008,3.712,0.871,4.884-0.254C40.878,36.137,38.691,31.033,36.162,31.147z"/>
		<path style="clip-path:url(#SVGID_2_);fill:#1F1A17;" d="M46.698,30.891c-2.221-0.971-3.53,3.676-1.132,4.06
			c0.495-0.423,1.16-0.683,1.771-0.663C48.049,33.271,47.889,31.413,46.698,30.891z"/>
		<path style="clip-path:url(#SVGID_2_);fill:#A88888;" d="M26.481,32.592c-0.848,0.283-0.212,1.933,0.616,1.338
			C27.698,33.502,27.237,32.342,26.481,32.592z"/>
		<path style="clip-path:url(#SVGID_2_);fill:#A88888;" d="M45.685,31.744c-0.792,0.264-0.2,1.803,0.573,1.25
			C46.818,32.593,46.389,31.512,45.685,31.744z"/>
		<path style="opacity:0.7;clip-path:url(#SVGID_2_);fill:#FF7752;" d="M29.552,37.544c-1.104-0.919-2.834-0.638-4.028-0.284
			c-1.559,0.462-3.462,1.672-1.429,3.529c1.08,0.988,7.52-0.011,6.008-2.592C29.945,37.932,29.76,37.717,29.552,37.544z"/>
		<path style="opacity:0.7;clip-path:url(#SVGID_2_);fill:#FF7752;" d="M46.027,36.08c-0.726,0.152-1.366,0.531-1.772,1.007
			c-0.677,0.793-0.688,1.853,0.687,2.571c1.33,0.688,4.232,0.909,4.988-0.834C50.963,36.438,47.587,35.75,46.027,36.08z"/>
		<path style="clip-path:url(#SVGID_2_);fill:#1F1A17;" d="M29.214,27.491c-0.808-0.149-1.646-0.568-2.436-0.647
			c-1.998-0.204-4.032,2.46-2.754,4.19c0.26-0.222,0.48-0.517,0.721-0.771c1.249-1.324,3.055-0.318,4.552-0.057
			c2.007,0.352,2.961-0.909,2.878-2.818C31.204,27.724,30.208,27.671,29.214,27.491z"/>
		<path style="clip-path:url(#SVGID_2_);fill:#1F1A17;" d="M45.714,26.566c-0.782,0.143-1.584,0.626-2.377,0.837
			c-0.977,0.26-1.966,0.392-2.96,0.137c0.068,1.908,1.12,3.089,3.092,2.579c1.473-0.379,3.192-1.525,4.544-0.306
			c0.259,0.235,0.502,0.51,0.777,0.711C49.928,28.699,47.689,26.205,45.714,26.566z"/>
		<path style="opacity:0.7;clip-path:url(#SVGID_2_);fill:#C76835;" d="M44.494,40.029c0.21-0.077,0.803,0.584,0.813,0.791
			c0.02,0.414-0.472,0.66-0.777,0.816c-1.038,0.533-2.348,0.57-3.482,0.729c-2.865,0.406-5.719,0.496-8.6,0.135
			c-1.598-0.201-3.238-0.629-4.732-1.242c0.048-0.038,0.099-0.076,0.154-0.111c0.813-0.469,2-0.498,1.661-0.658
			c-1.772-0.838-3.819,0.025-5.283,1.006c1.654-0.302,3.375-0.116,4.253,1.504c2.216,4.091,4.541,6.852,8.462,6.906
			c5.123,0.074,6.302-3.289,7-5.533c0.29-0.93,0.649-1.4,1.291-2.061c0.719-0.734,1.401-1.316,2.223-1.65
			c0.532-0.221,1.125-0.336,1.822-0.324C48.212,39.234,45.781,39.553,44.494,40.029z"/>
		<path style="clip-path:url(#SVGID_2_);fill:#8F322D;" d="M28.819,42.237c0,0,2.415,5.987,8.473,5.7
			c4.108-0.195,5.81-2.165,6.322-3.889c0.542-1.819,1.604-2.316,1.604-2.316C36.602,45.266,28.819,42.237,28.819,42.237z"/>
		<path style="clip-path:url(#SVGID_2_);fill:#FFF3E2;" d="M30.833,42.848c0,0,0.136,1.906,2.032,2.629
			c2.432,0.922,5.121,1.027,7.834,0.316c1.83-0.478,2.789-3.371,2.789-3.371S38.305,44.182,30.833,42.848z"/>
		<path style="clip-path:url(#SVGID_2_);fill:#FFF3E2;" d="M38.557,45.809c-2.592,0.039-4.84-0.293-6.072-0.76
			c-1.023-0.389-1.018,0.154-0.809,0.635c0,0,0.401,1.965,5.146,2.313c4.146,0.301,5.854-2.189,5.375-2.703
			C41.716,44.779,41.15,45.772,38.557,45.809z"/>
		<path style="clip-path:url(#SVGID_2_);fill:#E8DAC5;" d="M30.821,42.82c0,0,0.033,1.129,0.733,1.729c0,0,8.726-0.927,10.933-0.171
			c0,0,0.894-1.201,1.001-1.957C43.488,42.422,36.979,44.163,30.821,42.82z"/>
		<path style="clip-path:url(#SVGID_2_);fill:#E8DAC5;" d="M33.025,45.061c4.151,1.887,8.6,0.135,8.6,0.135
			C36.611,46.193,33.025,45.061,33.025,45.061z"/>
		<path style="clip-path:url(#SVGID_2_);fill:#1F1A17;" d="M45.018,37.996c0.753-0.428,1.441,0.055,1.393,0.572
			c-0.075,0.797-1.075,0.691-1.629,0.62c-1.773-0.231-3.629-0.931-5.461-0.414c-2.38,0.671-3.966-0.222-6.424,0.077
			c-1.237,0.151-2.475,0.53-3.64,0.81c-0.601,0.146-1.383,0.231-1.513-0.435c-0.101-0.508,0.626-1.014,1.164-0.585
			c-0.259-0.565-1.338-0.738-1.862-0.565c-0.858,0.281-1.104,0.967-0.976,1.752c0.196,1.189,1.874,2.029,2.885,2.457
			c1.475,0.627,3.292,0.979,4.875,1.223c1.15,0.18,2.311,0.261,3.476,0.258c1.236-0.002,2.466-0.102,3.68-0.34
			c1.523-0.295,3.036-0.795,4.366-1.611c1.039-0.641,2.615-1.486,2.52-3.051C47.785,37.34,45.94,36.705,45.018,37.996z"/>
		<path style="clip-path:url(#SVGID_2_);fill:#332823;" d="M42.809,39.596c-1.438-0.322-2.546-0.412-3.841,0.05
			c-1.292,0.462-2.31,0.616-3.769-0.042c-1.775-0.803-5.867,0.412-5.331,1.095c0.533,0.685,2.436,0.411,2.436,0.411
			s0.027,0.89,0.798,1.136c0.771,0.247,2.252-0.764,2.252-0.764s-0.089,1.054,0.964,1.142c1.054,0.089,1.983-1.107,1.983-1.107
			s0.635,1.146,1.692,0.998c1.055-0.148,0.98-1.082,0.98-1.082s1.25,0.668,2.044,0.453c0.795-0.217,0.374-1.324,0.374-1.324
			s0.876,0.474,2.061-0.047C46.635,39.994,44.247,39.92,42.809,39.596z"/>
		<path style="clip-path:url(#SVGID_2_);fill:#1F1A17;" d="M51.6,46.877c-0.166-2.25,0.492-4.539,0.266-6.764
			c-0.15-1.492-0.773-0.949-1.73-0.316c-1.051,0.697-1.788,0.916-3.03,0.811c-2.938-0.251-2.833,3.049-3.195,5.311
			c-0.196,1.214-0.393,3.068-1.572,3.779c-0.997,0.6-2.126,0-3.173-0.082c-1.208-0.094-2.16,0.515-3.322,0.656
			c-1.563,0.194-2.83-0.752-3.867-1.821c-1.103-1.138-2.01-2.489-2.554-3.98c-0.244-0.671-0.41-2.741-1.138-3.086
			c-0.808-0.38-2.001,1.157-2.716,1.441c-1.26,0.501-2.485-0.038-3.533-0.753c-0.506-0.348-0.99-0.915-1.512-1.438
			c-0.65-0.654-1.36-1.238-2.237-1.225c-2.82,0.047-0.26,8.184,0.119,9.361c1.141,3.546,2.748,7.173,5.282,9.951
			c2.813,3.08,6.329,4.283,10.421,4.533c4.848,0.297,10.517-0.361,14.492-2.523c2.391-1.299,4.995-3.016,4.353-6.28
			C52.561,52.458,51.749,48.912,51.6,46.877z"/>
		<path style="clip-path:url(#SVGID_2_);fill:#332823;" d="M47.682,45.595c-0.287,0.165-0.547,0.366-0.783,0.595
			c-0.78,0.761-1.293,1.821-1.702,2.799c-0.723,1.723-0.854,3.183-3.097,2.521c-1.826-0.54-3.657-1.55-5.551-0.428
			c-1.411,0.839-2.201,2.461-4.067,2.034c-1.815-0.414-3.253-1.66-4.634-2.835c-1.423-1.212-6.517-3.499-6.481,0.08
			c0.002,0.147,0.011,0.29,0.026,0.433c0.364,3.326,4.479,5.255,6.794,7.051c3.27,2.533,6.918,2.494,10.893,2.074
			c2.369-0.25,4.631-0.594,6.67-1.91c2.601-1.679,4.103-4.313,4.491-7.354C50.45,49.018,50.611,43.925,47.682,45.595z"/>
		<path style="clip-path:url(#SVGID_2_);fill:#1F1A17;" d="M32.748,17.018c0.323-1.406,2.18-0.741,2.577,0.286
			c0.61-0.483,0.614-1.116,0.287-1.766c-1.511-2.984-7.086-1.482-7.622,1.825c-0.41,2.531,1.469,4.153,2.704,4.519
			c2.43,0.717,5.877-2.011,5.313-2.185C35.088,19.415,32.449,18.316,32.748,17.018z"/>
		<path style="clip-path:url(#SVGID_2_);fill:#332823;" d="M31.957,16.499c0.375-0.559,0.934-0.954,1.61-1.026
			c0.276-0.03,1.759,0.248,1.674,0.717c0.35-1.911-2.726-1.617-3.812-1.367c-0.938,0.212-1.898,0.817-2.48,1.589
			c-0.519,0.685-0.479,2.025-0.054,2.811c0.329,0.609,1.047,1.347,1.383,1.584c3.3,2.313,6.521,2.232,8.691,1.087
			c-1.881-0.428-3.191-0.947-4.765-1.652C32.831,19.627,30.79,18.243,31.957,16.499z"/>
	</g>
</g>
<g id="Layer_1">
</g>
</svg>
