<?xml version="1.0" encoding="iso-8859-1"?>
<!-- Generator: Adobe Illustrator 16.0.0, SVG Export Plug-In . SVG Version: 6.00 Build 0)  -->
<!DOCTYPE svg PUBLIC "-//W3C//DTD SVG 1.1//EN" "http://www.w3.org/Graphics/SVG/1.1/DTD/svg11.dtd">
<svg version="1.1" xmlns="http://www.w3.org/2000/svg" xmlns:xlink="http://www.w3.org/1999/xlink" x="0px" y="0px"
	 width="66.013px" height="66px" viewBox="0 0 66.013 66" style="enable-background:new 0 0 66.013 66;" xml:space="preserve">
<g id="Layer_8">
	<g>
		<defs>
			<circle id="SVGID_1_" cx="33.013" cy="33" r="33"/>
		</defs>
		<clipPath id="SVGID_2_">
			<use xlink:href="#SVGID_1_"  style="overflow:visible;"/>
		</clipPath>
		<rect style="clip-path:url(#SVGID_2_);fill:#F1C4B5;" width="66" height="66"/>
		<path style="clip-path:url(#SVGID_2_);fill:#8F4E20;" d="M17.126,66h7.74l-3.223-10.947C19.662,56.215,17.936,57.785,17.126,66z"
			/>
		<path style="clip-path:url(#SVGID_2_);fill:#FFB685;" d="M45.558,41.711c-1.833,3.396,0.746,3.762,3.345,4.835
			c1.295,0.534,2.914,1.59,3.467-0.521c0.319-1.213,0.147-2.098,0.34-3.317c0.16-1.023,0.334-2.408,0.798-3.317
			C54.781,36.896,51.236,31.201,45.558,41.711z"/>
		<path style="clip-path:url(#SVGID_2_);fill:#404048;" d="M42.29,27.682c-0.428-0.288-1.026-0.151-1.332,0.303l-4.419,6.59
			c-0.305,0.455-0.203,1.062,0.224,1.348l11.731,7.866c0.427,0.287,1.027,0.15,1.334-0.304l4.418-6.59
			c0.303-0.454,0.202-1.061-0.226-1.347L42.29,27.682z"/>
		<path style="clip-path:url(#SVGID_2_);fill:#141418;" d="M41.871,27.435c-0.409-0.274-0.987-0.135-1.286,0.312l-4.332,6.457
			c-0.297,0.444-0.206,1.033,0.201,1.307l11.189,7.503c0.408,0.273,0.985,0.134,1.284-0.313l4.331-6.456
			c0.298-0.446,0.208-1.033-0.201-1.308L41.871,27.435z"/>
		<path style="clip-path:url(#SVGID_2_);fill:#141418;" d="M41.871,27.435c-0.409-0.274-0.987-0.135-1.286,0.312l-4.332,6.457
			c-0.297,0.444-0.206,1.033,0.201,1.307l11.189,7.503c0.408,0.273,0.985,0.134,1.284-0.313l4.331-6.456
			c0.298-0.446,0.208-1.033-0.201-1.308L41.871,27.435z"/>
		<path style="clip-path:url(#SVGID_2_);fill:#FFFFFF;" d="M42.349,29.347c-0.327-0.219-0.772-0.135-0.987,0.187l-3.158,4.709
			c-0.216,0.322-0.126,0.765,0.201,0.985l8.646,5.798c0.327,0.218,0.772,0.134,0.988-0.188l3.157-4.707
			c0.216-0.323,0.125-0.766-0.202-0.985L42.349,29.347z"/>
		<path style="clip-path:url(#SVGID_2_);fill:#FFB685;" d="M45.378,40.643c-0.518-0.371-1.925-0.766-2.046,0.084
			c-0.079,0.538,0.902,1.294,1.181,1.705c0.449,0.659,0.174,2.107,1.104,2.5c0.752,0.319,1.196-0.339,1.349-0.993
			C47.253,42.736,46.503,41.449,45.378,40.643z"/>
		<path style="clip-path:url(#SVGID_2_);fill:#8F4E20;" d="M52.926,42.759l-5.288,4.368c0,0,4.857,3.217,4.144,6.189
			c-0.382,1.592-3.21,3.569-6.675,1.774c-0.911-0.473-0.637,6.733-0.426,6.824c3.107,1.351,9.401,0.983,12.126-4.749
			C60.419,49.563,52.926,42.759,52.926,42.759z"/>
		<path style="clip-path:url(#SVGID_2_);fill:#7D421D;" d="M52.846,56.057c-0.772,1.88-1.142,3.863-1.148,5.877
			c1.994-0.741,3.887-2.194,5.109-4.768c0.621-1.308,0.913-2.592,0.973-3.824C55.71,53.155,53.643,54.189,52.846,56.057z"/>
		<path style="clip-path:url(#SVGID_2_);fill:#E0E0E0;" d="M41.291,53.517c-4.294-4.952-12.171-3.374-15.098-0.916
			c-2.928,2.459-3.186,4.469,0.438,9.444c1.094,1.504,2.176,2.834,3.149,3.955h6.78C39.469,61.875,43.196,55.713,41.291,53.517z"/>
		<path style="opacity:0.1;clip-path:url(#SVGID_2_);" d="M37.026,54.117c0.17,0.768,0.17,1.688,0.02,2.472
			c-0.249,1.294-2.143,4.745-2.143,4.745c0.297-0.296,1.966-3.205,2.688-4.005c0.734-0.813,1.389-0.023,2.276,0.136
			C39.771,57.107,37.375,54.391,37.026,54.117z"/>
		<path style="opacity:0.1;clip-path:url(#SVGID_2_);" d="M29.879,54.218c-0.349,0.273-2.743,2.991-2.84,3.347
			c0.887-0.158,1.541-0.945,2.274-0.135c0.724,0.8,2.599,3.866,2.894,4.163c0,0-2.097-3.61-2.348-4.902
			C29.709,55.906,29.709,54.986,29.879,54.218z"/>
		<path style="clip-path:url(#SVGID_2_);fill:#8F4E20;" d="M25.189,54.16c0.146-0.36,0.316-1.186,0.533-1.49
			c-2.326,0.994-5.018,2.765-5.464,3.945c-0.167,0.439,2.001,4.123,3.138,9.385h7.445C27.954,63.004,23.729,57.788,25.189,54.16z"/>
		<path style="clip-path:url(#SVGID_2_);fill:#8F4E20;" d="M46.636,56.122c-0.729-0.79-4.592-2.684-5.887-3.305
			c0.139,0.318,0.402,1.049,0.38,1.381C40.79,59.036,37.731,63.43,35.539,66h8.137C44.836,60.082,46.957,56.471,46.636,56.122z"/>
		<path style="clip-path:url(#SVGID_2_);fill:#E88E61;" d="M31.361,46.404c-1.979,0.435-3.292,2.315-3.43,4.251
			c-0.143,2.035,0.959,2.676,2.03,3.212c0.659,0.329,0.088,1.654,0.208,2.447c0.665,0.119,0.719,0.097,1.108,0.582
			c0.389,0.482,1.365,3.617,2.076,4.783c0.202-0.603,2.386-5.425,2.513-5.832c0.244,0.04,0.526-0.049,0.773-0.014
			c0.148-0.669,0.162-1.392,0.101-2.09c1.336-0.536,1.728-1.257,1.975-2.663c0.211-1.192,0.277-2.766-0.773-3.609
			C36.354,46.192,33.258,45.986,31.361,46.404z"/>
		<path style="clip-path:url(#SVGID_2_);fill:#AD652B;" d="M42.493,60.597c-0.109-0.171-1.491-1.499-1.491-1.499
			s2.195-0.902,2.303-1.094c0.108-0.193-0.054-3.686-0.021-4.064c0.032-0.379-0.901-0.693-1.822-1.249
			c-0.92-0.558-1.309-0.585-1.354,0.106c-0.334,5.021-3.564,10.52-5.37,13.203h2.114C39.426,63.639,42.559,60.701,42.493,60.597z"/>
		<path style="clip-path:url(#SVGID_2_);fill:#AD652B;" d="M25.135,52.69c-0.921,0.556-1.854,0.87-1.822,1.249
			c0.033,0.379-0.13,3.871-0.021,4.064c0.108,0.191,2.304,1.094,2.304,1.094s-1.382,1.328-1.491,1.499
			c-0.066,0.104,3.067,3.042,5.641,5.403h2.115c-1.806-2.684-5.036-8.182-5.37-13.203C26.443,52.105,26.056,52.133,25.135,52.69z"/>
		<circle style="clip-path:url(#SVGID_2_);fill:#FFFFFF;" cx="33.847" cy="64.091" r="0.659"/>
		<path style="clip-path:url(#SVGID_2_);fill:#4F3023;" d="M44.726,20.893c0.129-8.523-7.281-13.946-19.09-11.753
			C5.005,12.975,11.526,41.48,17.324,39.606c4.287-1.386,8.464-3.083,12.695-4.623c3.94-1.433,8.506-1.133,12.677-1.288
			c3.265-0.124,3.067-1.49,2.951-4.135C45.429,24.635,44.696,22.896,44.726,20.893z"/>
		<path style="clip-path:url(#SVGID_2_);fill:#FFB97F;" d="M27,15.205c-7.488,2.296-11.714,13.853-9.224,24.014
			c1.865,7.612,8.714,15.457,17.618,13.873c9.083-1.616,12.442-13.45,10.259-22.821C43.279,20.081,37.483,11.989,27,15.205z"/>
		<path style="clip-path:url(#SVGID_2_);fill:#FFB97F;" d="M14.655,35.206c-3.644,1.429-1.56,6.748,1.621,7.525
			c1.021,0.25,2.07,0.188,3.067,0.012c0.018-0.034,0.032-0.066,0.05-0.099c0.375-0.762-0.813-4.323-1.122-5.051
			C17.494,35.76,16.405,34.52,14.655,35.206z"/>
		<path style="opacity:0.3;clip-path:url(#SVGID_2_);fill:#BF3C1B;" d="M40.671,16.652c-4.385-1.107-8.5-1.741-13.073-1.34
			c-3.059,0.267-7.635,0.567-9.84,3.063c-1.769,2.001-1.56,5.365-1.414,7.844c0.055,0.942,0.826,8.123,1.207,6.513
			c0.693-2.925,2.872-4.235,2.483-7.184c4.62,1.498,11.229,0.618,16.931-0.575c3.579-0.749,6.39-1.957,7.435,0.978
			C43.891,23.665,42.111,17.016,40.671,16.652z"/>
		<path style="opacity:0.4;clip-path:url(#SVGID_2_);fill:#A82807;" d="M16.188,37.083c-0.886-0.299-2.916,0.623-1.755,2.168
			c0.362-1.584,1.398-0.679,1.371,0.421c-0.019,0.739-0.801,0.831,0.076,1.686c0.475,0.462,1.306,0.185,1.707-0.134
			C18.862,40.221,17.265,37.449,16.188,37.083z"/>
		<path style="clip-path:url(#SVGID_2_);fill:#4F3023;" d="M47.186,8.843C42.728,13.3,33.844,5.53,23.085,10.086
			c-14.71,6.229-7.266,21.688-6.98,23.622c0.243,1.662,1.433,3.609,2.04,4.25c0.434,0.159,1.344,0.064,2.053-0.204
			c-1.506-1.126-2.428-4.528-1.675-7.89c0.421-1.874,1.183-3.241,0.711-5.658c1.463,1.067,11.221,1.83,22.891-1.981
			c3.805-1.243,5.825-3.83,6.828-5.821c-0.992,0.145-1.7,0.37-2.883,0.658C47.612,15.05,47.442,11.462,47.186,8.843z"/>
		<path style="clip-path:url(#SVGID_2_);fill:#693A27;" d="M34.571,9.829c-5.618-0.933-13.963-0.167-17.745,4.762
			c-3.783,4.929,0.323,8.386,14.854,6.602C44.943,19.563,46.667,9.886,46.667,9.886C42.906,12.2,40.19,10.762,34.571,9.829z"/>
		<path style="opacity:0.4;clip-path:url(#SVGID_2_);fill:#A82807;" d="M22.823,34.701c0.112,0.612,1.486,0.158,1.919,0.211
			c-0.326,0.422-1.425,0.545-1.846,0.854c-0.449,0.33-0.377,0.51,0.191,0.434c0.34-0.046,2.199-0.703,2.422-0.938
			C26.45,34.271,23.291,34.516,22.823,34.701z"/>
		<path style="opacity:0.4;clip-path:url(#SVGID_2_);fill:#A82807;" d="M44.525,32.821c-0.378-0.226-1.3-0.144-1.611-0.499
			c0.354-0.131,1.536,0.063,1.569-0.557c-0.407-0.095-3.046,0.241-2.171,1.039c0.208,0.189,1.811,0.494,2.099,0.476
			C44.889,33.252,44.931,33.062,44.525,32.821z"/>
		<path style="clip-path:url(#SVGID_2_);fill:#121B21;" d="M26.306,31.63c-2.058-0.642-2.931,2.984-1.467,3.984
			c0.608-0.25,1.355-0.26,1.97-0.038C28.059,34.752,27.838,32.107,26.306,31.63z"/>
		<path style="opacity:0.4;clip-path:url(#SVGID_2_);fill:#A82807;" d="M34.94,36.515c-0.982,0.141-1.445-0.196-2.071,0.248
			c-0.626,0.443,0.499,1.777,2.235,1.494c1.729-0.283,2.368-1.741,1.935-2.078C36.536,35.788,36.035,36.359,34.94,36.515z"/>
		<path style="clip-path:url(#SVGID_2_);fill:#FFCB9E;" d="M33.707,31.003c-0.854,0.146-0.758,2.486-0.931,3.613
			c-0.176,1.146-0.261,2.194,0.232,2.468c1.213,0.671,3.465-0.086,4.06-0.768c0.234-0.271-0.521-1.329-1.146-2.404
			C35.368,32.961,34.672,30.839,33.707,31.003z"/>
		<path style="clip-path:url(#SVGID_2_);fill:#121B21;" d="M42.134,29.803c-2.135-0.857-3.243,3.589-0.956,3.882
			c0.456-0.416,1.08-0.682,1.66-0.681C43.482,32.021,43.277,30.263,42.134,29.803z"/>
		<path style="clip-path:url(#SVGID_2_);fill:#7D8BA8;" d="M25.791,32.188c-0.771,0.355,0.003,1.846,0.722,1.198
			C27.032,32.918,26.476,31.872,25.791,32.188z"/>
		<path style="clip-path:url(#SVGID_2_);fill:#7D8BA8;" d="M41.686,30.407c-0.744,0.272-0.138,1.716,0.58,1.168
			C42.784,31.18,42.346,30.164,41.686,30.407z"/>
		<path style="clip-path:url(#SVGID_2_);fill:#4F3023;" d="M40.486,26.41c-1.475-0.009-2.579-0.144-2.584-0.089
			c0.005,0.835,0.361,2.552,1.475,2.432c0.666-0.07,1.351-0.259,2.013-0.271c1.181-0.023,2.066,0.251,2.477,0.385
			c0.51,0.167,0.623-0.574,0.426-0.778C43.543,27.318,42.609,26.425,40.486,26.41z"/>
		<path style="clip-path:url(#SVGID_2_);fill:#4F3023;" d="M25.572,28.083c-2.19,0.718-2.826,1.871-3.313,2.846
			c-0.129,0.257,0.262,0.919,0.726,0.594c0.377-0.265,1.19-0.817,2.419-1.188c0.691-0.208,1.468-0.257,2.185-0.411
			c1.196-0.259,0.925-1.994,0.622-2.785C28.186,27.09,27.095,27.582,25.572,28.083z"/>
		<path style="clip-path:url(#SVGID_2_);fill:#FFCB9E;" d="M44.915,34.896c-0.793-0.703-2.087-0.567-2.989-0.357
			c-1.173,0.273-2.628,1.073-1.175,2.489c0.773,0.755,5.599,0.28,4.555-1.639C45.196,35.193,45.064,35.028,44.915,34.896z"/>
		<path style="clip-path:url(#SVGID_2_);fill:#FFCB9E;" d="M27.231,36.891c-0.855-0.709-2.21-0.521-3.148-0.271
			c-1.221,0.328-2.718,1.215-1.146,2.649c0.838,0.765,5.882,0.1,4.721-1.875C27.536,37.189,27.392,37.024,27.231,36.891z"/>
		<path style="opacity:0.4;clip-path:url(#SVGID_2_);fill:#A82807;" d="M30.473,40.929c-2.28,0.842-5.532,2.887-3.064,4.886
			c3.106,2.517,10.597,1.419,13.257-0.983c1.725-1.559,1.757-3.209-0.558-4.338l1.844-0.765
			C38.086,39.56,34.053,39.607,30.473,40.929z"/>
		<path style="clip-path:url(#SVGID_2_);fill:#8F2724;" d="M38.826,40.929c0.301-0.142,0.712-0.405,1.123-0.615
			c-6.969-0.167-13.478,1.928-12.09,4.628c1.224,2.384,9.527,1.388,11.656-0.204C41.322,43.386,41.6,41.803,38.826,40.929z"/>
		<path style="clip-path:url(#SVGID_2_);fill:#FFF9F0;" d="M38.926,40.265c-3.421-0.009-7.799,0.509-10.123,2.187
			c-0.472,0.338-0.345,0.647,0.363,0.848c1.601,0.455,4.114-0.483,5.659-0.705c3.807-0.543,4.219,0.014,4.437-0.481
			C39.483,41.605,39.779,40.267,38.926,40.265z"/>
		<path style="clip-path:url(#SVGID_2_);fill:#E8DAC5;" d="M39.042,40.275c-1.451-0.144-8.347,0.244-10.461,2.393
			c0,0-0.438,0.431,0.585,0.631c0,0,4.424-3.409,10.35-2.094C39.516,41.205,39.668,40.308,39.042,40.275z"/>
		<path style="opacity:0.1;clip-path:url(#SVGID_2_);" d="M44.288,34.371c-1.608,0.155-3.146,0.484-4.775,0.38
			c-2.112-0.137-2.884-3.556-0.92-4.429c1.942-0.863,4.234,0.248,6.165-0.751c0.68-0.352,0.773-0.673,0.562-0.949
			c-0.464-0.603-2.394-0.987-2.882-0.987c-1.876,0-3.692,0.501-5.543,0.729c-5.812,0.721-11.784,0.798-17.589,2.687
			c-2.199,0.716,0.063,2.424,1.354,2.407c1.432-0.02,2.765-0.705,4.169-0.902c1.558-0.22,5.345-1.324,5.459,1.157
			c0.072,1.587-0.759,2.484-2.175,2.903c-1.358,0.399-2.834,0.634-4.243,0.747c-0.584,0.046-4.777-0.263-4.104,1.143
			c0.348,0.728,2.428,0.628,3.104,0.657c1.418,0.062,2.818-0.419,4.205-0.663c1.815-0.318,3.235-0.677,4.154-2.363
			c0.739-1.354,1.007-2.895,1.675-4.274c1.094-2.261,2.676,0.535,3.274,1.772c0.506,1.043,1.272,2,2.272,2.605
			c0.969,0.588,1.895,0.417,2.981,0.418c1.327,0,3.335,0.196,4.263-0.948C46.924,34.193,45.578,34.245,44.288,34.371z"/>
		<path style="clip-path:url(#SVGID_2_);fill:#3A3A4A;" d="M49.526,27.168c-0.936-0.924-32.336,2.778-33.17,4
			c-0.025,0.037-0.05,0.073-0.076,0.109c-0.003,0.195,0.305,1.47,0.305,1.47s0.273,0.276,1.044,0.18
			c0.354,1.142,1.212,3.696,2.723,4.711c1.986,1.336,8.108,0.081,9.846-0.935c2.095-1.226,1.142-5.779,3.644-6.104
			c1.812-0.235,2.273,3.819,4.129,4.628c1.897,0.827,8.738,0.438,10.003-1.194c0.908-1.17,0.543-3.44,0.574-5.005
			c0.31-0.041,0.942-0.277,1.149-0.592c0.025-0.215-0.036-1.013-0.083-1.188C49.584,27.222,49.557,27.195,49.526,27.168z
			 M29.992,35.633c-1.485,1.292-7.905,2.028-9.188,1.347c-1.284-0.683-2.241-3.872-1.578-4.329
			c0.664-0.458,10.293-2.291,11.439-1.869C31.72,31.172,30.949,34.801,29.992,35.633z M46.907,33.729
			c-1.054,0.882-7.19,1.527-8.841,0.66c-1.064-0.561-2.534-3.698-1.63-4.268c0.979-0.618,10.332-0.925,11.046-0.646
			S47.963,32.847,46.907,33.729z"/>
		<path style="opacity:0.3;clip-path:url(#SVGID_2_);fill:#FFFFFF;" d="M37.385,30.014c-1.349,0.556,1.081,1.279,1.602,1.361
			c1.814,0.283,3.876,0.179,5.813-0.155c1.019-0.176,3.214-1.066,2.591-1.625C46.519,28.813,38.873,29.401,37.385,30.014z"/>
		<path style="clip-path:url(#SVGID_2_);fill:#C1C5C9;" d="M46.502,27.729c-12.167,0.158-26.321,3.05-26.321,3.05L46.502,27.729z"/>
		<path style="clip-path:url(#SVGID_2_);fill:#FFFFFF;" d="M43.377,29.743c-0.729,0.106-1.207,0.313-1.01,0.635
			c0.388,0.641,4.666,0.318,4.961-0.165C47.617,29.738,44.93,29.516,43.377,29.743z"/>
		<path style="opacity:0.7;clip-path:url(#SVGID_2_);fill:#FFFFFF;" d="M38.677,33.54c-0.459,0.025-0.766,0.151-0.657,0.425
			c0.212,0.541,2.888,0.626,3.095,0.263C41.314,33.873,39.652,33.48,38.677,33.54z"/>
		<path style="opacity:0.7;clip-path:url(#SVGID_2_);fill:#FFFFFF;" d="M21.519,36.05c-0.459,0.027-0.767,0.153-0.658,0.427
			c0.212,0.542,2.888,0.625,3.095,0.264C24.156,36.385,22.494,35.993,21.519,36.05z"/>
		<path style="opacity:0.3;clip-path:url(#SVGID_2_);fill:#FFFFFF;" d="M30,31.089c-1.699-0.251-9.648,0.784-10.301,1.67
			c-0.468,0.638,2.031,0.995,3.119,0.945c2.072-0.095,4.196-0.422,5.959-1.052C29.283,32.473,31.535,31.317,30,31.089z"/>
		<path style="clip-path:url(#SVGID_2_);fill:#FFFFFF;" d="M26.5,31.333c-0.715,0.175-1.171,0.426-0.943,0.729
			c0.447,0.599,4.675-0.13,4.922-0.64C30.72,30.922,28.023,30.958,26.5,31.333z"/>
	</g>
</g>
<g id="Layer_1">
</g>
</svg>
