<?xml version="1.0" encoding="iso-8859-1"?>
<!-- Generator: Adobe Illustrator 16.0.0, SVG Export Plug-In . SVG Version: 6.00 Build 0)  -->
<!DOCTYPE svg PUBLIC "-//W3C//DTD SVG 1.1//EN" "http://www.w3.org/Graphics/SVG/1.1/DTD/svg11.dtd">
<svg version="1.1" xmlns="http://www.w3.org/2000/svg" xmlns:xlink="http://www.w3.org/1999/xlink" x="0px" y="0px"
	 width="66.002px" height="66px" viewBox="0 0 66.002 66" style="enable-background:new 0 0 66.002 66;" xml:space="preserve">
<g id="Layer_89">
	<g>
		<defs>
			<circle id="SVGID_1_" cx="33.002" cy="33" r="33"/>
		</defs>
		<clipPath id="SVGID_2_">
			<use xlink:href="#SVGID_1_"  style="overflow:visible;"/>
		</clipPath>
		<rect style="clip-path:url(#SVGID_2_);fill:#EF5649;" width="66" height="66"/>
		<path style="clip-path:url(#SVGID_2_);fill:#9AB5DE;" d="M26.636,56.777l-0.873-4.556c-4.401,0.839-6.916,4.807-7.21,8.433
			c-0.161,1.99-0.357,5.08-0.357,5.346h5.747C23.942,66,24.265,58.053,26.636,56.777z"/>
		<path style="clip-path:url(#SVGID_2_);fill:#9AB5DE;" d="M40.361,52.222l-0.873,4.556C41.859,58.053,42.182,66,42.182,66h5.746
			c0-0.266-0.196-3.355-0.357-5.346C47.276,57.028,44.762,53.061,40.361,52.222z"/>
		<path style="clip-path:url(#SVGID_2_);fill:#9AB5DE;" d="M40.488,51.925c-3.67-1.278-10.671-1.769-15.012,0.175
			c-2.397,1.072-2.092,7.764-1.897,13.9h18.917C42.639,59.836,42.806,52.732,40.488,51.925z"/>
		<path style="clip-path:url(#SVGID_2_);fill:#3A3A4A;" d="M41.022,52.061c-0.127-0.441-0.589-0.695-1.027-0.568
			c-0.441,0.127-0.695,0.587-0.568,1.027c0.715,2.479,0.274,7.043-0.193,11.874c-0.052,0.532-0.101,1.07-0.151,1.606h1.667
			c0.046-0.482,0.091-0.967,0.137-1.446C41.368,59.56,41.824,54.842,41.022,52.061z"/>
		
			<rect x="39.194" y="62.724" transform="matrix(-0.9998 -0.021 0.021 -0.9998 79.0047 127.1072)" style="clip-path:url(#SVGID_2_);fill:#F2F2F2;" width="1.953" height="0.83"/>
		<path style="clip-path:url(#SVGID_2_);fill:#3A3A4A;" d="M26.697,52.52c0.127-0.44-0.127-0.9-0.567-1.027
			c-0.439-0.127-0.9,0.127-1.027,0.567c-0.804,2.783-0.347,7.501,0.136,12.495c0.047,0.479,0.091,0.963,0.137,1.445h1.667
			c-0.051-0.535-0.1-1.072-0.151-1.604C26.424,59.563,25.982,54.998,26.697,52.52z"/>
		
			<rect x="25.539" y="62.162" transform="matrix(-0.02 -0.9998 0.9998 -0.02 -36.653 90.3501)" style="clip-path:url(#SVGID_2_);fill:#F2F2F2;" width="0.83" height="1.953"/>
		<path style="opacity:0.1;clip-path:url(#SVGID_2_);" d="M36.679,54.328c-2.262-1.419-11.439-1.773-10.404,2.156
			c1.035,3.928,3.725,5.886,3.725,5.886l3.063-3.498l3.262,3.311c3.119-3.306,3.988-6.564,3.988-6.564S38.938,55.748,36.679,54.328z
			"/>
		<path style="clip-path:url(#SVGID_2_);fill:#B0C6E8;" d="M26.064,52.896c-1.455,4.653,3.84,8.438,3.84,8.438l3.154-2.462
			l2.945,2.315c0,0,5.823-3.783,3.618-9.207C37.64,47.104,27.755,47.496,26.064,52.896z"/>
		<path style="clip-path:url(#SVGID_2_);fill:#F1AA83;" d="M32.929,45.555c-2.57,0.041-6.171,1.634-6.367,5.644
			c-0.092,1.866,0.196,2.941,1.162,3.958c1.544,1.625,4.985,3.119,5.397,3.123c0.412-0.074,3.804-1.639,5.298-3.319
			c0.935-1.052,1.191-2.138,1.043-4C39.145,46.959,35.498,45.5,32.929,45.555z"/>
		<circle style="clip-path:url(#SVGID_2_);fill:#F2F2F2;" cx="33.075" cy="63.865" r="0.627"/>
		<path style="clip-path:url(#SVGID_2_);fill:#C9BEB7;" d="M29.147,8.473C7.97,10.028,11.349,39.428,17.391,38.189
			c4.465-0.914,8.857-2.156,13.282-3.234c4.123-1,8.683-0.188,12.895,0.118c3.297,0.243,3.252-1.154,3.429-3.828
			c0.332-4.981-0.212-6.812,0.041-8.822C48.118,13.866,41.271,7.585,29.147,8.473z"/>
		<path style="clip-path:url(#SVGID_2_);fill:#FFB97F;" d="M29.845,14.726c-7.788,1.475-13.328,12.626-11.958,23.124
			c1.026,7.865,7.04,16.518,16.174,15.919c9.315-0.612,14.014-12.14,12.863-21.809C45.674,21.448,40.748,12.66,29.845,14.726z"/>
		<path style="clip-path:url(#SVGID_2_);fill:#FFB97F;" d="M15.197,33.465c-3.825,1.031-2.323,6.615,0.79,7.752
			c0.999,0.361,2.061,0.418,3.082,0.352c0.022-0.031,0.042-0.062,0.062-0.095c0.464-0.722-0.334-4.437-0.563-5.203
			C17.989,34.34,17.032,32.971,15.197,33.465z"/>
		<path style="opacity:0.2;clip-path:url(#SVGID_2_);fill:#BF3C1B;" d="M43.432,17.708c-4.243-1.717-8.354-2.702-12.999-2.808
			c-3.105-0.073-7.743-0.279-10.238,1.984c-2.002,1.815-2.169,5.221-2.299,7.732c-0.049,0.954-0.074,8.262,0.488,6.685
			c1.023-2.864,3.36-3.94,3.3-6.948c4.479,2.021,11.225,1.875,17.092,1.311c3.682-0.355,6.645-1.258,7.369,1.812
			C46.636,24.799,46.363,18.893,43.432,17.708z"/>
		<path style="opacity:0.35;clip-path:url(#SVGID_2_);fill:#B54319;" d="M16.528,35.523c-0.858-0.398-3.005,0.301-2.006,1.986
			c0.539-1.555,1.48-0.527,1.331,0.576c-0.102,0.742-0.898,0.746-0.111,1.703c0.425,0.518,1.293,0.332,1.732,0.058
			C18.868,38.979,17.571,36.013,16.528,35.523z"/>
		<path style="clip-path:url(#SVGID_2_);fill:#C9BEB7;" d="M50.854,10.58c-4.982,3.984-13.049-4.823-24.377-1.441
			c-15.49,4.624-9.729,21.004-9.657,22.981c0.061,1.7,1.039,3.792,1.578,4.501c0.419,0.211,1.344,0.215,2.086,0.025
			c-1.388-1.301-1.936-4.825-0.802-8.122c0.631-1.837,1.549-3.129,1.347-5.611c1.353,1.236,11.08,3.093,23.242,0.559
			c3.966-0.825,6.287-3.201,7.518-5.092c-1.015,0.034-1.753,0.182-2.973,0.34C50.593,16.87,50.82,13.242,50.854,10.58z"/>
		<path style="opacity:0.7;clip-path:url(#SVGID_2_);fill:#F0EAE6;" d="M38.059,10.164c-5.546-1.564-14.025-1.726-18.38,2.808
			c-4.354,4.536-0.609,8.471,14.204,8.298c13.521-0.159,16.335-9.7,16.335-9.7C46.176,13.479,43.604,11.729,38.059,10.164z"/>
		<path style="clip-path:url(#SVGID_2_);fill:#9E8F88;" d="M16.05,33.373c1.34,0.09,1.517,2.698,2.48,3.364
			c0.404,0.174,1.271,0.129,1.954-0.09c-1.014-1.475-1.249-5.25-1.26-6.301C18.493,31.912,14.818,33.289,16.05,33.373z"/>
		<path style="opacity:0.7;clip-path:url(#SVGID_2_);fill:#F0EAE6;" d="M15.287,18.771c-0.524,1.242-0.902,2.505-1.075,3.845
			c-0.206,1.592-0.351,3.838,0.833,5.119c1.396,1.513,3.569,0.625,4.132-1.06C20.823,21.741,15.287,18.771,15.287,18.771z"/>
		<path style="opacity:0.1;clip-path:url(#SVGID_2_);" d="M25.172,52.674c1.566,5.889,14.408,7.455,17.165,0.877
			C44.386,48.663,23.97,48.154,25.172,52.674z"/>
		<path style="clip-path:url(#SVGID_2_);fill:#C9BEB7;" d="M46.77,30.798c0.751,15.961-4.233,9.955-4.233,9.955l-1.537,0.614
			c0.562,3.896-3.482,5.531-4.148,2.92l-3.79,0.205c-1.024,3.842-5.07-0.41-4.969-2.715c0.103-2.307-1.844-0.564-1.844-0.564
			c-2.512,2.456-5.948-3.664-6.261-4.979l-1.925-0.144c0,0,0.079,21.569,18.636,19.841c15.875-1.479,10.364-25.896,10.364-25.896
			L46.77,30.798z"/>
		<path style="opacity:0.3;clip-path:url(#SVGID_2_);fill:#BF3C1B;" d="M30.347,43.451c1.207,2.975,7.519,2.819,8.441,0.391
			C36.654,44.601,31.998,44.949,30.347,43.451z"/>
		<path style="clip-path:url(#SVGID_2_);fill:#FFCB9E;" d="M36.076,41.9c-1.507,0.132-3.427,0.009-4.755-0.251
			c-1.237-0.241-2.117,0.954-1.187,2.015c1.28,1.459,3.742,1.4,5.356,1.311c1.276-0.07,3.954-0.344,4.162-2.415
			C39.833,40.769,36.819,41.836,36.076,41.9z"/>
		<path style="opacity:0.3;clip-path:url(#SVGID_2_);fill:#6E2210;" d="M25.848,41.455c5.184,2.538,14.413,2.305,17.688-0.545
			C39.43,41.713,29.871,42.273,25.848,41.455z"/>
		<path style="opacity:0.5;clip-path:url(#SVGID_2_);fill:#B54319;" d="M23.469,33.867c0.044,0.629,1.477,0.327,1.905,0.428
			c-0.376,0.39-1.493,0.389-1.952,0.654c-0.488,0.281-0.435,0.471,0.146,0.458c0.346-0.01,2.289-0.462,2.54-0.675
			C27.163,33.841,23.959,33.735,23.469,33.867z"/>
		<path style="opacity:0.5;clip-path:url(#SVGID_2_);fill:#B54319;" d="M45.506,34.4c-0.357-0.27-1.293-0.291-1.566-0.683
			c0.37-0.092,1.537,0.233,1.641-0.387c-0.399-0.139-3.091-0.096-2.3,0.804c0.188,0.215,1.768,0.699,2.058,0.713
			C45.821,34.873,45.886,34.688,45.506,34.4z"/>
		<path style="clip-path:url(#SVGID_2_);fill:#121B21;" d="M27.313,31.167c-1.999-0.873-3.278,2.677-1.919,3.844
			c0.638-0.182,1.393-0.107,1.984,0.182C28.727,34.504,28.801,31.82,27.313,31.167z"/>
		<path style="clip-path:url(#SVGID_2_);fill:#C9BEB7;" d="M35.489,37.694l-1.515-0.048c-1.764-0.174-3.63,0.334-5.215,1.111
			c-0.781,0.383-2.925,1.77-3.309,2.582c4.87,1.466,10.783,1.546,15.854,0.443c0.973-0.211,1.854-0.461,2.666-1.059
			c-1.845-1.48-4.489-3.146-6.951-3.217C36.507,37.492,35.989,37.576,35.489,37.694z"/>
		<path style="opacity:0.3;clip-path:url(#SVGID_2_);fill:#A67663;" d="M35.455,37.004c-1.007,0.023-1.436-0.318-2.113,0.008
			c-0.676,0.326,0.312,1.607,2.089,1.534c1.771-0.073,2.57-1.286,2.17-1.626C37.136,36.525,36.57,36.977,35.455,37.004z"/>
		<path style="clip-path:url(#SVGID_2_);fill:#FFD2AB;" d="M34.826,31.364c-0.874,0.051-1.039,2.417-1.34,3.53
			c-0.304,1.133-0.507,2.178-0.04,2.507c1.146,0.811,3.493,0.301,4.168-0.319c0.267-0.243-0.377-1.395-0.886-2.544
			C36.278,33.519,35.814,31.306,34.826,31.364z"/>
		<path style="clip-path:url(#SVGID_2_);fill:#121B21;" d="M43.436,31.096c-2.051-1.101-3.662,3.249-1.394,3.798
			c0.503-0.367,1.162-0.564,1.743-0.499C44.546,33.479,44.533,31.688,43.436,31.096z"/>
		<path style="clip-path:url(#SVGID_2_);fill:#7D8BA8;" d="M26.732,31.671c-0.813,0.273-0.204,1.857,0.592,1.287
			C27.899,32.544,27.458,31.432,26.732,31.671z"/>
		<path style="clip-path:url(#SVGID_2_);fill:#7D8BA8;" d="M42.918,31.654c-0.778,0.191-0.329,1.71,0.453,1.239
			C43.938,32.555,43.61,31.485,42.918,31.654z"/>
		<path style="clip-path:url(#SVGID_2_);fill:#4F2C1E;" d="M41.665,26.832c-1.805,0.061-3.148-0.025-3.156,0.031
			c-0.01,0.851,0.393,2.577,1.754,2.404c0.815-0.102,1.653-0.327,2.464-0.371c1.443-0.078,2.519,0.158,3.018,0.276
			c0.619,0.147,0.771-0.613,0.536-0.811C45.38,27.612,44.258,26.747,41.665,26.832z"/>
		<path style="clip-path:url(#SVGID_2_);fill:#4F2C1E;" d="M27.278,27.06c-2.908,0.016-4.066,0.934-4.983,1.726
			c-0.241,0.209,0.013,0.969,0.688,0.799c0.545-0.139,1.722-0.423,3.341-0.401c0.911,0.012,1.873,0.207,2.795,0.279
			c1.542,0.12,1.793-1.641,1.687-2.499C30.789,26.909,29.298,27.047,27.278,27.06z"/>
		<path style="clip-path:url(#SVGID_2_);fill:#FFD2AB;" d="M45.67,36.43c-0.714-0.882-2.032-0.883-2.961-0.756
			c-1.213,0.168-2.77,0.896-1.477,2.658c0.688,0.94,5.597,0.977,4.771-1.303C45.919,36.795,45.807,36.596,45.67,36.43z"/>
		<path style="clip-path:url(#SVGID_2_);fill:#FFD2AB;" d="M27.772,36.564c-0.778-0.939-2.16-0.891-3.134-0.715
			c-1.266,0.229-2.872,1.08-1.457,2.957c0.754,1,5.903,0.859,4.962-1.6C28.046,36.953,27.92,36.741,27.772,36.564z"/>
		<path style="opacity:0.7;clip-path:url(#SVGID_2_);fill:#F0EAE6;" d="M37.271,38.646c-0.847,0.389-1.534,0.709-2.485,0.674
			c-0.595-0.021-2.17-0.795-3.089-0.693c-0.96,0.107-2.846,1.287-3.606,1.871c4.504,0.983,10.306,1.313,13.559-0.385
			C40.573,39.211,38.447,38.107,37.271,38.646z"/>
		<path style="opacity:0.7;clip-path:url(#SVGID_2_);fill:#F0EAE6;" d="M42.533,46.383c-1.353-1.633-2.788-0.226-2.729,1.498
			c-2.006-2.797-5.638-0.904-5.793,0.937c-1.137-3.106-4.277-2.896-4.063-0.747c-0.492-1.86-3.119-4.275-5.119-3.926
			c-3.479,0.609-0.513,5.16,0.663,6.725c4.22,5.629,21.376,5.072,20.168-5.85C45.352,42.218,42.132,42.902,42.533,46.383z"/>
		<path style="opacity:0.3;clip-path:url(#SVGID_2_);fill:#A67663;" d="M41.729,31.081c0.827-0.059,1.66-0.074,2.489-0.086
			c0.655-0.01,1.486,0.088,2.106-0.17c0.87-0.363,0.69-1.571,0.158-2.183c-0.567-0.651-1.377-0.428-2.132-0.351
			c-0.975,0.1-1.941,0.271-2.891,0.514c-1.184,0.302-2.572,0.425-3.668,0.992c-1.011,0.527-1.434,0.854-2.698,0.808
			c-2.265-0.08-4.181-1.479-6.441-1.699c-2.354-0.23-4.765-0.494-7.08,0.159c-0.603,0.17-2.423,0.872-1.187,1.513
			c1.205,0.624,3.004,0.414,4.321,0.456c0.608,0.02,1.22,0.033,1.826,0.084c2.153,0.185,5.461-0.133,5.305,2.555
			c-0.106,1.846-1.283,3.745-2.78,4.102c-1.435,0.341-2.973,0.478-4.427,0.48c-1.114,0.002-2.19-0.207-3.208-0.671
			c-0.29-0.132-1.154-0.675-1.432-0.284c-0.471,0.664,1.285,1.752,1.745,1.955c1.05,0.466,2.164,0.604,3.301,0.717
			c2.808,0.281,5.696,0.117,7.265-2.472c0.91-1.501,1.36-3.263,2.201-4.803c1.379-2.52,1.967,0.91,2.357,2.409
			c0.221,0.843,0.548,1.661,1.023,2.377c0.843,1.266,2.531,1.976,3.953,2.072c0.877,0.059,3.665-0.139,4.495-0.479
			c0.501-0.206,0.764-1.041,0.173-1.287c-0.358-0.148-2.875,0.348-3.251,0.322c-0.551-0.032-1.113-0.051-1.653-0.168
			c-0.693-0.15-1.388-0.465-1.969-0.928c-0.404-0.324-0.753-0.719-1.006-1.184c-0.525-0.967-0.529-2.137-0.152-3.166
			C38.993,31.253,40.489,31.169,41.729,31.081z"/>
		<path style="clip-path:url(#SVGID_2_);fill:#3A3A4A;" d="M19.142,28.842c-1.845,0.18-3.455-0.232-3.867,0.168
			c-0.536,0.52,0.562,2.105,0.562,2.105s0.616,0.377,1.485,0.393c0.204,1.276,0.35,4.596,2.841,6.538
			c2.081,1.618,8.538,1.705,10.472,0.57c2.395-1.406,3.3-3.783,3.589-6.09C34.932,26.872,21.742,28.589,19.142,28.842z
			 M30.668,37.103c-2.34,1.737-8.634,1.4-10.389-0.502c-1.352-1.468-1.783-4.689-1.049-5.199c2.249-1.562,11.081-1.594,13.217-0.173
			C33.482,31.917,32.443,35.785,30.668,37.103z"/>
		<path style="clip-path:url(#SVGID_2_);fill:#3A3A4A;" d="M49.288,28.211c-2.251-0.132-13.675-1.23-12.896,4.382
			c0.319,2.289,1.17,4.621,3.275,5.914c1.702,1.043,7.269,0.654,9.014-1.059c2.093-2.053,2.117-5.376,2.255-6.66
			c0.75-0.056,1.27-0.46,1.27-0.46s0.898-1.634,0.422-2.13C52.261,27.818,50.884,28.304,49.288,28.211z M48.538,36.013
			c-1.456,1.981-6.874,2.61-8.943,0.985c-1.57-1.232-2.582-5.047-1.71-5.784c1.799-1.517,9.416-1.896,11.401-0.441
			C49.937,31.248,49.66,34.484,48.538,36.013z"/>
		<path style="opacity:0.3;clip-path:url(#SVGID_2_);fill:#FFFFFF;" d="M39.395,30.801c-1.277,0.49,0.947,1.312,1.43,1.414
			c1.674,0.358,3.594,0.345,5.409,0.099c0.956-0.128,3.035-0.914,2.481-1.495C47.939,30.01,40.805,30.259,39.395,30.801z"/>
		<path style="clip-path:url(#SVGID_2_);fill:#FFFFFF;" d="M44.978,30.792c-0.684,0.074-1.136,0.258-0.968,0.584
			c0.332,0.649,4.323,0.516,4.618,0.051C48.918,30.971,46.43,30.636,44.978,30.792z"/>
		<path style="opacity:0.7;clip-path:url(#SVGID_2_);fill:#FFFFFF;" d="M40.567,35.576c-0.427-0.028-0.725,0.06-0.655,0.342
			c0.134,0.557,2.599,0.949,2.83,0.619C42.967,36.209,41.475,35.633,40.567,35.576z"/>
		<path style="opacity:0.7;clip-path:url(#SVGID_2_);fill:#FFFFFF;" d="M21.687,36.043c-0.47-0.041-0.802,0.033-0.737,0.32
			c0.124,0.559,2.824,1.051,3.094,0.729C24.306,36.775,22.686,36.138,21.687,36.043z"/>
		<path style="opacity:0.3;clip-path:url(#SVGID_2_);fill:#FFFFFF;" d="M31.45,30.964c-1.688-0.479-9.924-0.557-10.72,0.222
			c-0.572,0.559,1.914,1.254,3.027,1.356c2.12,0.192,4.329,0.165,6.214-0.211C30.513,32.224,32.977,31.401,31.45,30.964z"/>
		<path style="clip-path:url(#SVGID_2_);fill:#FFFFFF;" d="M27.855,30.723c-0.753,0.075-1.254,0.257-1.069,0.585
			c0.365,0.648,4.771,0.516,5.099,0.051C32.208,30.901,29.46,30.565,27.855,30.723z"/>
		<path style="clip-path:url(#SVGID_2_);fill:#3A3A4A;" d="M38.129,29.294c-1.79,0.536-3.564,0.721-5.881,0.095
			c-1.85-0.5,0.976,1.106,1.193,2.04c0.218,0.936-0.036,3.973,0.578,2.263c0.613-1.711,1.785-1.781,2.527-0.2
			c0.741,1.58,0.893-2.537,1.211-2.913C38.077,30.202,39.864,28.774,38.129,29.294z"/>
		<path style="clip-path:url(#SVGID_2_);fill:#C1C5C9;" d="M20.044,29.333c5.006-0.072,9.001-0.19,12.091,0.778
			C30.064,28.622,26.657,28.487,20.044,29.333z"/>
		<path style="clip-path:url(#SVGID_2_);fill:#C1C5C9;" d="M38.662,29.844c2.59-1.105,5.84-0.828,10.198-1.222
			C43.029,28.501,40.314,28.387,38.662,29.844z"/>
	</g>
</g>
<g id="Layer_1">
</g>
</svg>
