<?xml version="1.0" encoding="iso-8859-1"?>
<!-- Generator: Adobe Illustrator 16.0.0, SVG Export Plug-In . SVG Version: 6.00 Build 0)  -->
<!DOCTYPE svg PUBLIC "-//W3C//DTD SVG 1.1//EN" "http://www.w3.org/Graphics/SVG/1.1/DTD/svg11.dtd">
<svg version="1.1" xmlns="http://www.w3.org/2000/svg" xmlns:xlink="http://www.w3.org/1999/xlink" x="0px" y="0px" width="66px"
	 height="66px" viewBox="0 0 66 66" style="enable-background:new 0 0 66 66;" xml:space="preserve">
<g id="Layer_97">
	<g>
		<defs>
			<circle id="SVGID_1_" cx="33" cy="33" r="33"/>
		</defs>
		<clipPath id="SVGID_2_">
			<use xlink:href="#SVGID_1_"  style="overflow:visible;"/>
		</clipPath>
		<rect style="clip-path:url(#SVGID_2_);fill:#F1C4B5;" width="65.999" height="66"/>
		<path style="clip-path:url(#SVGID_2_);fill:#8D573E;" d="M24.441,57.742l-2.639-4.189c-3.745,2.36-5.918,6.846-5.668,11.709
			c0.013,0.248,0.037,0.493,0.063,0.738h4.997c-0.05-0.326-0.1-0.654-0.116-0.992C20.921,61.932,22.209,59.148,24.441,57.742z"/>
		<path style="clip-path:url(#SVGID_2_);fill:#8D573E;" d="M44.72,53.553l-2.638,4.189c2.231,1.406,3.521,4.189,3.363,7.266
			c-0.018,0.338-0.066,0.666-0.117,0.992h4.998c0.024-0.245,0.05-0.49,0.063-0.738C50.638,60.398,48.466,55.913,44.72,53.553z"/>
		<path style="clip-path:url(#SVGID_2_);fill:#3A3A4A;" d="M40.775,52.154c-4.893-2.627-12.026-1.722-15.278,0.393
			c-4.11,2.674-3.603,6.961-2.567,13.453h20.142C44.204,59.664,44.8,54.316,40.775,52.154z"/>
		<path style="clip-path:url(#SVGID_2_);fill:#E0E0E0;" d="M33.017,59.492c-2.592-0.076-7.242-6.098-7.242-6.098l-2.058,0.381
			l0.306,8.018l16.541,0.248l0.075-8.037C40.639,54.004,35.608,59.57,33.017,59.492z"/>
		<path style="clip-path:url(#SVGID_2_);fill:#8D573E;" d="M26.022,51.633c0,0-4.834,1.68-5.246,2.753
			c-0.317,0.827,0.815,6.378,1.705,11.614h5.212C27.717,61.485,27.369,56.011,26.022,51.633z"/>
		<path style="clip-path:url(#SVGID_2_);fill:#8D573E;" d="M45.746,54.386c-0.412-1.073-5.245-2.753-5.245-2.753
			c-1.348,4.378-1.695,9.853-1.672,14.367h5.213C44.932,60.764,46.063,55.213,45.746,54.386z"/>
		<path style="clip-path:url(#SVGID_2_);fill:#F29058;" d="M37.602,47.619c-1.646-1.297-4.855-1.506-6.821-1.082
			c-2.05,0.441-3.411,2.349-3.554,4.313c-0.177,2.488,4.87,7.084,6.035,7.15C34.139,58.037,43.325,52.129,37.602,47.619z"/>
		<path style="clip-path:url(#SVGID_2_);fill:#2B221C;" d="M48.78,17.815c-5.092-4.707-9.351-8.416-18.485-7.465
			c0.184-0.667,0.338-1.317,0.545-1.995c-1.639,0.165-4.133,2.23-4.133,2.23s-3.507-0.505-4.704,0.626
			c0.83,0.302,1.76,0.472,2.624,0.924c-2.058,0.235-11.04,5.053-12.139,15.769c0.194-0.292,1.674-1.972,1.915-2.209
			c-0.052,2.222-0.095,4.378,0.493,6.482c0.461,1.654,1.368,3.694,3.502,3.387c3.528-0.508,7.047-1.206,10.564-1.871
			c3.431-0.648,7.365-0.772,10.504,0.52c2.423,0.995,4.484,2.66,7.195,0.405c2.089-1.739,1.984-3.986,2.664-6.417
			c0.371,0.174,1.988,1.294,2.341,1.54c0.074-2.046-1.16-5.973-1.856-7.784c0.89-0.25,2.012-0.025,2.856-0.539
			C51.442,20.172,50.066,19.005,48.78,17.815z"/>
		<path style="clip-path:url(#SVGID_2_);fill:#FAAB6E;" d="M32.524,15.201c-8.402,0.1-17.064,8.628-14.979,18.581
			c1.075,5.136,0.944,6.37,2.704,11.55c1.782,5.258,6.775,8.762,13.935,8.887c12.145,0.213,13.909-10.641,13.786-20.793
			C47.841,23.261,40.924,15.104,32.524,15.201z"/>
		<path style="clip-path:url(#SVGID_2_);fill:#FAAB6E;" d="M15.233,31.761c-4.209,0.8-2.975,6.06,0.313,7.248
			c1.054,0.38,2.197,0.478,3.309,0.459c0.022-0.028,0.047-0.058,0.071-0.087c0.55-0.651-0.051-4.144-0.247-4.865
			C18.192,32.695,17.255,31.379,15.233,31.761z"/>
		<path style="opacity:0.3;clip-path:url(#SVGID_2_);fill:#A63F24;" d="M43.508,20.704c-3.844-0.841-8.02-1.144-12.052-0.686
			c-2.807,0.318-6.989-0.883-9.567,0.174c-1.692,0.694-2.398,3.183-3.278,5.111c-0.526,1.148-1.425,9.268,0.473,8.07
			c0.66-0.419,2.76-8.137,3.238-9.788c9.129,3.254,19.316,2.256,19.316,2.256s-0.494-0.972-0.8-1.554
			c0.463,0.881,5.325,0.535,6.043-0.143C49.451,21.717,44.976,21.024,43.508,20.704z"/>
		<path style="clip-path:url(#SVGID_2_);fill:#2B221C;" d="M46.637,18.899c-2.106-1.59-4.696-2.94-7.361-3.469
			c-4.474-0.886-7.892-1.934-12.522,0.302c-3.714,1.794-6.578,5.03-8.367,8.647c-1,2.028-1.776,4.346-1.734,6.538
			c0.028,1.426,2.352,4.655,2.701,2.53c0.504-3.051,0.088-6.135,2.898-11.598c5.147,2.295,14.464,2.69,17.688,2.953
			c-0.439-0.531-1.001-0.994-1.306-1.601c0.138,0.278,3.355,0.524,3.856,0.603c1.214,0.191,2.952,0.541,4.187-0.043
			C49.03,22.645,48.195,20.074,46.637,18.899z"/>
		<path style="opacity:0.5;clip-path:url(#SVGID_2_);fill:#B54319;" d="M17.311,33.819c-1.027-0.563-3.916-0.385-2.941,1.408
			c0.979-1.33,2.002-0.163,1.606,0.832c-0.264,0.672-1.29,0.5-0.455,1.569c0.452,0.575,1.604,0.595,2.22,0.437
			C19.691,37.563,18.565,34.504,17.311,33.819z"/>
		<path style="clip-path:url(#SVGID_2_);fill:#634F40;" d="M36.773,11.424c-2.592-0.767-5.271-0.446-7.97-0.037
			c0.038-0.42,0.098-0.849,0.13-1.267c-0.548,0.297-1.143,0.661-1.508,1.142c0,0-2.541-0.078-3.187-0.095
			c0.703,0.139,1.502,0.564,2.034,1.263c-3.17,1.157-6.175,3.079-8.237,5.274c0.508-0.009,1.556-0.178,2.066-0.302
			c-1.495,1.254-2.538,2.688-3.646,4.239c2.331-0.849,3.611-1.44,6.815-3.538c3.901,1.874,9.605,3.312,12.77,3.844
			c-0.271-0.734-3.564-2.641-4.942-4.332c4.399,1.295,14.646,3.715,14.646,3.715s-8.002-5.968-7.962-5.947
			c1.411,0.428,8.732,3.552,10.299,3.207C46.11,16.239,39.071,12.106,36.773,11.424z"/>
		<path style="opacity:0.5;clip-path:url(#SVGID_2_);fill:#B54319;" d="M23.786,34.111c0.042,0.642,1.505,0.34,1.941,0.445
			c-0.384,0.396-1.524,0.39-1.993,0.657c-0.5,0.284-0.446,0.48,0.146,0.47c0.354-0.008,2.338-0.463,2.596-0.675
			C27.557,34.102,24.287,33.977,23.786,34.111z"/>
		<path style="opacity:0.5;clip-path:url(#SVGID_2_);fill:#B54319;" d="M46.269,34.763c-0.361-0.278-1.315-0.304-1.594-0.704
			c0.379-0.092,1.568,0.247,1.676-0.385c-0.406-0.147-3.152-0.114-2.349,0.808c0.189,0.219,1.799,0.721,2.096,0.737
			C46.59,35.247,46.657,35.057,46.269,34.763z"/>
		<path style="clip-path:url(#SVGID_2_);fill:#1F1A17;" d="M27.724,31.376c-2.037-0.902-3.361,2.713-1.978,3.913
			c0.65-0.183,1.42-0.105,2.024,0.194C29.148,34.787,29.237,32.047,27.724,31.376z"/>
		<path style="opacity:0.5;clip-path:url(#SVGID_2_);fill:#B54319;" d="M35.998,37.412c-1.024,0.027-1.458-0.372-2.153,0.01
			c-0.691,0.381,0.302,1.881,2.115,1.798c1.809-0.085,2.637-1.507,2.231-1.903C37.721,36.857,37.14,37.384,35.998,37.412z"/>
		<path style="clip-path:url(#SVGID_2_);fill:#FFCB9E;" d="M35.389,31.615c-0.892,0.046-1.073,2.458-1.383,3.594
			c-0.317,1.154-0.529,2.22-0.056,2.559c1.166,0.832,3.563,0.322,4.256-0.306c0.271-0.249-0.378-1.426-0.892-2.604
			C36.859,33.818,36.396,31.558,35.389,31.615z"/>
		<path style="clip-path:url(#SVGID_2_);fill:#1F1A17;" d="M44.173,31.382c-2.085-1.134-3.751,3.295-1.44,3.868
			c0.519-0.372,1.188-0.57,1.786-0.502C45.294,33.818,45.291,31.989,44.173,31.382z"/>
		<path style="clip-path:url(#SVGID_2_);fill:#A87F7F;" d="M27.127,31.887c-0.832,0.275-0.216,1.892,0.6,1.314
			C28.314,32.784,27.87,31.646,27.127,31.887z"/>
		<path style="clip-path:url(#SVGID_2_);fill:#A87F7F;" d="M43.642,31.948c-0.793,0.194-0.344,1.746,0.458,1.268
			C44.68,32.873,44.349,31.779,43.642,31.948z"/>
		<path style="opacity:0.5;clip-path:url(#SVGID_2_);fill:#B54319;" d="M45.138,41.012c-0.355-0.74-2.478-0.378-2.478-0.378
			c-0.361,0.07,0.3,0.206,1.163,0.43c0.167,0.044,0.27,0.122,0.326,0.223c-4.152,1.224-13.213,1.683-18.705-0.247
			c0.052-0.039,0.102-0.078,0.161-0.111c0.835-0.463,2.012-0.457,1.69-0.635c0,0-1.972-0.132-2.771,0.324
			c-0.714,0.406-0.742,1.787-0.181,1.869c0.443,0.066,0.488-0.68,0.876-1.207c0.363,1.516,2.218,7.477,8.952,7.791
			c5.073,0.237,6.706-1.36,6.982-3.83c0.156-1.373,1.946-3.008,3.057-3.787c0.077,0.421-0.248,1.014,0.145,1.076
			C44.914,42.617,45.489,41.754,45.138,41.012z"/>
		<path style="clip-path:url(#SVGID_2_);fill:#8F2724;" d="M26.471,42.096c0,0,1.999,6.215,8.019,6.207
			c5.421-0.004,6.119-2.082,6.402-3.541c0.377-1.954,1.861-2.68,1.861-2.68C33.458,44.322,26.471,42.096,26.471,42.096z"/>
		<path style="clip-path:url(#SVGID_2_);fill:#FFF9F0;" d="M28.427,42.793c0,0,0.009,1.992,1.84,2.805
			c2.348,1.039,5.007,1.231,7.741,0.573c1.845-0.442,2.99-3.425,2.99-3.425S35.86,43.574,28.427,42.793z"/>
		<path style="clip-path:url(#SVGID_2_);fill:#FFF9F0;" d="M35.885,46.121c-2.571-0.041-4.777-0.457-5.966-0.98
			c-0.988-0.439-1.018,0.129-0.845,0.637c0,0,0.268,2.063,4.945,2.572c4.09,0.442,5.95-2.104,5.507-2.651
			C39.083,45.148,38.457,46.164,35.885,46.121z"/>
		<path style="clip-path:url(#SVGID_2_);fill:#F58C53;" d="M46.424,36.939c-0.729-0.816-2.075-0.832-3.022-0.725
			c-1.239,0.141-2.824,0.789-1.503,2.414c0.703,0.867,5.708,0.952,4.865-1.14C46.676,37.273,46.562,37.093,46.424,36.939z"/>
		<path style="clip-path:url(#SVGID_2_);fill:#F58C53;" d="M28.047,36.884c-0.793-0.831-2.204-0.798-3.197-0.653
			c-1.291,0.191-2.931,0.923-1.487,2.582c0.767,0.883,6.021,0.801,5.063-1.363C28.326,37.227,28.196,37.04,28.047,36.884z"/>
		<path style="clip-path:url(#SVGID_2_);fill:#E8DAC5;" d="M28.417,42.764c0,0,0.04,0.606,0.176,0.879c0,0,9.757-0.656,11.892,0.197
			c0,0,0.395-0.623,0.514-1.094C40.998,42.746,34.09,43.521,28.417,42.764z"/>
		<path style="clip-path:url(#SVGID_2_);fill:#E8DAC5;" d="M30.45,45.171c3.991,2.093,8.516,0.404,8.516,0.404
			C33.93,46.465,30.45,45.171,30.45,45.171z"/>
		<path style="clip-path:url(#SVGID_2_);fill:#2B221C;" d="M27.233,26.535c-0.802,0.243-3.776,2.209-4.546,2.692
			c0.251,0.692,0.813,0.697,1.409,0.509c0.425-0.131,3.631-1.058,3.993-0.947c0.714,0.214,2.758,0.395,3.222-0.474
			C31.818,27.372,27.71,26.39,27.233,26.535z"/>
		<path style="clip-path:url(#SVGID_2_);fill:#2B221C;" d="M39.564,28.797c0.392,0.853,2.224,0.639,2.868,0.411
			c0.326-0.115,3.168,0.75,3.547,0.875c0.525,0.173,1.028,0.161,1.271-0.534c-0.673-0.467-3.281-2.371-3.994-2.596
			C42.836,26.816,39.137,27.869,39.564,28.797z"/>
	</g>
</g>
<g id="Layer_1">
</g>
</svg>
