<?xml version="1.0" encoding="iso-8859-1"?>
<!-- Generator: Adobe Illustrator 16.0.0, SVG Export Plug-In . SVG Version: 6.00 Build 0)  -->
<!DOCTYPE svg PUBLIC "-//W3C//DTD SVG 1.1//EN" "http://www.w3.org/Graphics/SVG/1.1/DTD/svg11.dtd">
<svg version="1.1" xmlns="http://www.w3.org/2000/svg" xmlns:xlink="http://www.w3.org/1999/xlink" x="0px" y="0px" width="66px"
	 height="66px" viewBox="0 0 66 66" style="enable-background:new 0 0 66 66;" xml:space="preserve">
<g id="Layer_106">
	<g>
		<defs>
			<circle id="SVGID_1_" cx="33" cy="33" r="33"/>
		</defs>
		<clipPath id="SVGID_2_">
			<use xlink:href="#SVGID_1_"  style="overflow:visible;"/>
		</clipPath>
		<rect style="clip-path:url(#SVGID_2_);fill:#FFFFFF;" width="66" height="66"/>
		<path style="clip-path:url(#SVGID_2_);fill:#CA3564;" d="M39.933,55.833l-1.968,3.014c0.394,0.346,0.696,2.287,0.877,3.448
			c0.176,1.126,0.381,2.434,0.756,3.705h3.813c-0.43-0.99-0.72-2.389-1.012-4.26C42.015,59.273,41.651,56.945,39.933,55.833z"/>
		<path style="clip-path:url(#SVGID_2_);fill:#CA3564;" d="M27.322,58.847l-1.968-3.014c-1.72,1.112-2.083,3.44-2.467,5.907
			c-0.292,1.871-0.582,3.27-1.012,4.26h3.813c0.374-1.271,0.579-2.579,0.755-3.705C26.625,61.134,26.928,59.192,27.322,58.847z"/>
		<path style="clip-path:url(#SVGID_2_);fill:#CA3564;" d="M39.676,62.278c1.502-4.539,1.695-6.4-1.508-7.304
			c-2.826-0.799-8.036-1.065-11.134,0.072c-2.987,1.096-2.463,4.253-1.575,6.854c0.464,1.358,0.883,2.769,1.104,4.1h12.229
			C38.931,64.887,39.217,63.664,39.676,62.278z"/>
		<path style="opacity:0.2;clip-path:url(#SVGID_2_);fill:#FFFFFF;" d="M36.222,61.107c-2.317,0.634-5.107,0.263-7.454-0.311
			c-1.348-0.329-2.146,0.968-1.76,2.106c0.51,1.509,3.315,1.981,5.769,2.015c4.839,0.068,6.694-1.424,5.925-3.284
			C38.497,61.134,37.47,60.767,36.222,61.107z"/>
		<path style="clip-path:url(#SVGID_2_);fill:#E0E0E0;" d="M16.127,19.692c-1.831,4.905-3.021,9.934-3.882,15.084
			c-0.895,5.358-1.052,15.38,3.226,18.068c1.988,1.251,5.801,1.647,8.117,1.917c5.844,0.678,12.607-0.359,18.462-0.819
			c2.11-0.166,6.521,0.081,7.887-1.634c3.963-4.977,3.22-17.678,1.597-25.206C46.379,3.184,22.896,1.563,16.127,19.692z"/>
		<path style="clip-path:url(#SVGID_2_);fill:#E0E0E0;" d="M20.363,45.678c-3.604,8.987,7.129,14.765,13.369,14.765
			c7.776,0,13.98-8.303,12.872-12.509C44.139,38.579,23.966,36.689,20.363,45.678z"/>
		<path style="opacity:0.1;clip-path:url(#SVGID_2_);" d="M30.741,17.466c-7.858,1.463-13.404,12.355-11.967,22.589
			c1.065,7.594,8.356,15.074,16.01,15.08c8.103,0.006,14.46-11.895,13.302-20.916C46.77,23.972,41.748,15.42,30.741,17.466z"/>
		<path style="clip-path:url(#SVGID_2_);fill:#FFB06B;" d="M30.849,16.001c-7.585,1.468-12.945,12.365-11.566,22.597
			c1.021,7.593,8.052,15.067,15.438,15.067c7.819,0,13.965-11.906,12.854-20.927C46.313,22.494,41.474,13.946,30.849,16.001z"/>
		<path style="clip-path:url(#SVGID_2_);fill:#E0E0E0;" d="M32.21,11.022c-9.093-0.126-16.083,10.33-13.989,21.916
			c4.971-13.091,24.151-14.427,30.081-1.45C48.104,19.038,43.854,11.185,32.21,11.022z"/>
		<path style="clip-path:url(#SVGID_2_);fill:#F2F2F2;" d="M31.429,9.563c-9.838,0.362-14.808,9.559-15.191,21.916
			C21.636,18.388,43.37,17.474,49.81,30.45C48.921,18.608,42.455,9.157,31.429,9.563z"/>
		<path style="opacity:0.1;clip-path:url(#SVGID_2_);" d="M50.528,42.677c-1.702,5.759-5.176,10.089-5.176,10.089
			C48.767,51.961,49.647,48.64,50.528,42.677z"/>
		<path style="opacity:0.1;clip-path:url(#SVGID_2_);" d="M20.998,53.141c0,0-3.474-4.33-5.176-10.09
			C16.703,49.015,17.585,52.336,20.998,53.141z"/>
		<path style="clip-path:url(#SVGID_2_);fill:#FFC48F;" d="M44.11,35.939c-1.174-0.195-2.802-0.018-2.015,1.824
			c0.421,0.98,4.998,2.373,4.771,0.229c-0.023-0.221-0.082-0.419-0.169-0.597C46.241,36.454,45.009,36.089,44.11,35.939z"/>
		<path style="clip-path:url(#SVGID_2_);fill:#FFC48F;" d="M28.469,36.542c-0.871-0.666-2.199-0.427-3.112-0.144
			c-1.191,0.371-2.632,1.307-1.025,2.657c0.856,0.722,5.804-0.134,4.579-2.034C28.783,36.826,28.635,36.668,28.469,36.542z"/>
		<path style="opacity:0.5;clip-path:url(#SVGID_2_);fill:#B54319;" d="M36.231,37.674c-0.978-0.066-0.956-0.593-1.663-0.19
			c-0.706,0.399-0.185,1.944,1.549,2.017c1.727,0.072,2.541-1.201,2.206-1.729C37.937,37.158,37.316,37.75,36.231,37.674z"/>
		<path style="clip-path:url(#SVGID_2_);fill:#FFC48F;" d="M35.987,34.831c-0.802,0.015-1.988,2.714-1.588,3.124
			c0.984,1.004,3.167,0.531,3.831-0.154C38.491,37.529,36.896,34.814,35.987,34.831z"/>
		<path style="clip-path:url(#SVGID_2_);fill:#261B18;" d="M45.138,31.777c-2.699-1.152-5.164,2.179-3.222,3.913
			c0.392-0.426,2.506-1.107,3.813-0.122C46.836,34.773,46.583,32.396,45.138,31.777z"/>
		<path style="clip-path:url(#SVGID_2_);fill:#CFC4C4;" d="M45.438,33.65c-0.739,0.232-0.389,1.651,0.366,1.152
			C46.352,34.443,46.095,33.445,45.438,33.65z"/>
		<path style="clip-path:url(#SVGID_2_);fill:#CFC4C4;" d="M42.907,32.174c-1.257,0.394-0.663,2.807,0.623,1.959
			C44.46,33.524,44.023,31.827,42.907,32.174z"/>
		<path style="clip-path:url(#SVGID_2_);fill:#261B18;" d="M25.029,31.996c-1.428,0.661-1.612,3.044-0.479,3.805
			c1.275-1.022,3.409-0.401,3.812,0.012C30.253,34.023,27.693,30.765,25.029,31.996z"/>
		<path style="clip-path:url(#SVGID_2_);fill:#CFC4C4;" d="M24.784,33.876c-0.664-0.187-0.892,0.82-0.334,1.163
			C25.221,35.515,25.529,34.086,24.784,33.876z"/>
		<path style="clip-path:url(#SVGID_2_);fill:#CFC4C4;" d="M27.271,32.327c-1.127-0.314-1.514,1.395-0.566,1.977
			C28.014,35.113,28.537,32.685,27.271,32.327z"/>
		<path style="clip-path:url(#SVGID_2_);fill:#261B18;" d="M28.686,28.134c-1.343,0.069-2.615,0.179-3.92,0.599
			c-0.811,0.261-1.776,0.734-2.381,1.297c-0.204,0.191-0.447,0.513-0.411,0.774c0.22,0.013,0.373-0.139,0.566-0.212
			c0.981-0.375,2.041-0.505,3.071-0.623c0.805-0.091,1.609-0.11,2.411-0.221c0.538-0.074,1.283-0.035,1.525-0.589
			C29.855,28.458,29.407,28.096,28.686,28.134z"/>
		<path style="clip-path:url(#SVGID_2_);fill:#2B221C;" d="M44.946,28.513c-1.272-0.385-2.514-0.473-3.824-0.521
			c-0.707-0.027-1.146,0.328-0.853,0.994c0.23,0.529,0.961,0.481,1.485,0.546c0.783,0.096,1.569,0.104,2.354,0.18
			c1.007,0.097,2.041,0.208,2.995,0.555c0.189,0.069,0.338,0.212,0.552,0.197c0.039-0.252-0.196-0.557-0.394-0.737
			C46.675,29.195,45.735,28.753,44.946,28.513z"/>
		<path style="clip-path:url(#SVGID_2_);fill:#121B21;" d="M44.6,31.315c-2.489-0.452-3.193,1.998-3.193,1.998
			s1.206-1.551,2.822-0.862c3.668,1.565,5.607-1.036,5.607-1.036C47.218,32.639,45.873,31.546,44.6,31.315z"/>
		<path style="clip-path:url(#SVGID_2_);fill:#121B21;" d="M25.656,31.587c-1.271,0.245-2.604,1.352-5.235,0.156
			c0,0,1.968,2.58,5.618,0.976c1.609-0.708,2.831,0.833,2.831,0.833S28.141,31.109,25.656,31.587z"/>
		<path style="opacity:0.5;clip-path:url(#SVGID_2_);fill:#C4170E;" d="M45.411,40.533c-0.807,0.518-2.141,0.199-2.84-0.797
			c-0.193,0.723-0.001,1.283,0.356,1.637c-1.12,2.813-4.183,4.652-7.754,4.627c-3.478-0.021-6.263-1.814-7.439-4.195
			c0.307-0.38,0.386-0.977-0.006-1.717c-0.444,1.049-1.682,1.482-2.61,1.037c0.383,0.727,0.96,1.066,1.498,1.116
			c1.362,2.705,4.451,4.737,8.294,4.86c0.11,0.003,0.22,0.005,0.331,0.006c4.108,0.026,7.587-2.072,8.874-5.32
			C44.668,41.721,45.201,41.329,45.411,40.533z"/>
	</g>
</g>
<g id="Layer_1">
</g>
</svg>
