<?xml version="1.0" encoding="iso-8859-1"?>
<!-- Generator: Adobe Illustrator 16.0.0, SVG Export Plug-In . SVG Version: 6.00 Build 0)  -->
<!DOCTYPE svg PUBLIC "-//W3C//DTD SVG 1.1//EN" "http://www.w3.org/Graphics/SVG/1.1/DTD/svg11.dtd">
<svg version="1.1" xmlns="http://www.w3.org/2000/svg" xmlns:xlink="http://www.w3.org/1999/xlink" x="0px" y="0px"
	 width="66.003px" height="66.001px" viewBox="0 0 66.003 66.001" style="enable-background:new 0 0 66.003 66.001;"
	 xml:space="preserve">
<g id="Layer_66">
	<g>
		<defs>
			<circle id="SVGID_1_" cx="33.003" cy="33.001" r="33"/>
		</defs>
		<clipPath id="SVGID_2_">
			<use xlink:href="#SVGID_1_"  style="overflow:visible;"/>
		</clipPath>
		<rect style="clip-path:url(#SVGID_2_);fill:#FFFFFF;" width="65.999" height="65.998"/>
		<path style="clip-path:url(#SVGID_2_);fill:#FFCB9E;" d="M29.558,57.505c1.089-0.914-0.18-4.191-1.65-3.398
			c-3.028,1.633-3.949,7.389-5.02,11.893h3.231C26.923,62.661,27.815,58.97,29.558,57.505z"/>
		<path style="clip-path:url(#SVGID_2_);fill:#FFCB9E;" d="M38.079,54.106c-1.471-0.793-2.739,2.484-1.65,3.398
			c1.742,1.465,2.635,5.156,3.438,8.494h3.231C42.028,61.495,41.107,55.739,38.079,54.106z"/>
		<linearGradient id="SVGID_3_" gradientUnits="userSpaceOnUse" x1="33.1733" y1="50.5791" x2="33.1733" y2="55.7021">
			<stop  offset="0" style="stop-color:#EEA17A"/>
			<stop  offset="0.0031" style="stop-color:#EEA17A"/>
			<stop  offset="0.3647" style="stop-color:#F7B88E"/>
			<stop  offset="0.705" style="stop-color:#FDC69A"/>
			<stop  offset="1" style="stop-color:#FFCB9E"/>
		</linearGradient>
		<path style="clip-path:url(#SVGID_2_);fill:url(#SVGID_3_);" d="M36.557,53.2c-2.148-0.939-0.702-3.508-3.52-3.508
			c-2.774,0-1.524,2.895-3.538,3.656c-4.55,1.719-4.469,4.666-1.875,7.262c2.772,2.771,7.694,3.223,11.452-0.27
			C42.631,57.038,38.702,54.14,36.557,53.2z"/>
		<path style="clip-path:url(#SVGID_2_);fill:#FF87B3;" d="M38.929,62.78c1.977-4.422-0.571-7-1.605-9.367
			c-0.187-0.158-0.6-0.318-0.798-0.346c0.392,1.736,0.983,5.955-3.359,5.955c-4.387,0-3.959-3.492-3.646-5.83
			c-0.276-0.012-0.691,0.182-0.952,0.434c-1.227,3.73-3.272,4.779-1.391,9.279c0.394,0.941,0.922,2.031,1.074,3.094h9.424
			C37.859,64.88,38.407,63.948,38.929,62.78z"/>
		<path style="opacity:0.7;clip-path:url(#SVGID_2_);fill:#F06799;" d="M29.084,63.515c0.441,0.742,1.774,0.732,2.821,0.924
			c-0.182,0.025-0.36,0.096-0.551,0.125c1.259,0.35,3.013,0.082,4.261-0.283c0.397-0.115,1.47-0.785,1.682-0.809
			c-1.477,0.166-2.852,0.289-4.352,0.26C31.632,63.706,30.362,63.536,29.084,63.515z"/>
		<path style="clip-path:url(#SVGID_2_);fill:#FDD281;" d="M52.158,28.938c2.48-0.662,5.289-6.068,1.071-5.77
			c1.139,1.707-1.56,2.494-2.443,1.205c-0.079-0.115-0.135-0.221-0.143-0.322c-0.146-2.127-2.336-3.594-4.003-4.906
			c-2.438-1.92-5.627-3.49-8.738-4.205c-5.482-1.258-12.035-0.949-16.393,2.674c-1.753,1.457-3.291,4.514-5.722,5.09
			c-2.985,0.707-4.642,3.744-2.277,5.652c-1.229,0.729-2.407-0.143-2.617-1.287c-2.575,1.785-3.538,5.248,0.021,6.818
			c-4.167,2.148-3.132,6.525,1.321,8.428c-2.09,1.936-1.021,5.227,1.077,6.527c-0.162-1.369,1.117-4.424,3.487-2.863
			c1.455,0.959,0.685,3.525-1.295,2.236c-0.525,2.326,3.401,3.77,4.553,1.836c-0.132,1.742,1.063,2.418,2.676,2.314
			c2.401-0.156,3.242-1.766,4.855-2.256c2.009-0.613,4.475-0.676,6.567-0.711c3.98-0.064,7.41,3.865,11.375,2.158
			c1.529-0.656,2.271-1.637,2.107-3.127c-1.084,0.762-3.915-0.344-1.604-2.152c1.156-0.904,2.866-0.066,4.039-0.752
			c1.383-0.809,0.821-3.709,0.92-3.771c0.996-0.623,2.646-0.672,2.746,1.066c2.047-4.037,0.102-5.156-2.097-5.459
			C56.509,36.591,57.457,29.888,52.158,28.938z"/>
		<path style="clip-path:url(#SVGID_2_);fill:#F4BB6E;" d="M49.016,30.892c0.012-3.691-4.672-2.547-6.342-2.805
			c-5.625-0.875-13.282,0.297-18.921,0.727c-3.433,0.262-9.486,0.607-10.217,5.311c-0.29,1.871,0.303,3.258,0.922,4.861
			c-1.647,1.059-1.056,3.9,1.15,3.146c-0.454,0.49-0.837,1.352-0.451,1.971c0.566,0.912,2.388,0.584,3.328,1.146
			c1.262,0.756,1.873,2.059,1.29,3.432c0.452-0.166,0.935-0.289,1.389-0.418c0.339,1.16,0.412,2.957,2.01,2.932
			c0.738-0.014,1.465-0.4,2.185-0.828c0.695-0.412,1.387-0.863,2.076-1.045c1.608-0.418,2.443,0.689,3.884,1.084
			c1.073,0.293,2.338-0.152,3.355-0.492c2.177-0.727,3.173-0.963,5.482,0.033c1.129,0.486,3.176,0.873,4.535,0.057
			c-0.945-1.465-0.544-2.678,0.391-3.846c0.276-0.346,2.445-2.141,1.8-2.639c0.348,0.264,0.935,0.51,1.381,0.326
			c1.984-0.813,0.147-4.242,1.95-4.383c-3.662-2.223,0.88-1.977,0.761-4.324C49.144,34.866,49.012,32.347,49.016,30.892z"/>
		<path style="clip-path:url(#SVGID_2_);fill:#FFF9F0;" d="M47.133,39.862c-0.76,0.021-1.367,0.654-1.359,1.414
			c0.007,0.76,0.632,1.359,1.391,1.338c0.76-0.021,1.369-0.654,1.361-1.416C48.516,40.44,47.893,39.841,47.133,39.862z"/>
		<path style="clip-path:url(#SVGID_2_);fill:#FFCB9E;" d="M32.551,14.497c-8.089,0.738-14.379,7.625-13.882,18.512
			c0.496,10.889,8.396,19.568,16.958,18.617c7.096-0.789,13.14-9.629,11.799-21.553C46.227,19.394,40.639,13.755,32.551,14.497z"/>
		<path style="clip-path:url(#SVGID_2_);fill:#FFB387;" d="M46.393,37.206c-0.414-0.777-1.461-0.99-2.221-1.045
			c-0.988-0.07-2.349,0.221-1.626,1.75c0.387,0.814,4.272,1.639,4.008-0.203C46.528,37.521,46.471,37.353,46.393,37.206z"/>
		<path style="clip-path:url(#SVGID_2_);fill:#FFB387;" d="M27.387,37.075c-0.588-0.805-1.775-0.811-2.621-0.697
			c-1.1,0.148-2.545,0.801-1.49,2.406c0.563,0.855,4.975,0.91,4.374-1.162C27.587,37.407,27.497,37.228,27.387,37.075z"/>
		<path style="clip-path:url(#SVGID_2_);fill:#FFCB9E;" d="M16.583,31.286c-3.52,1.607-1.883,7.654,1.064,8.547
			c0.945,0.287,1.937,0.221,2.886,0.023c0.019-0.037,0.035-0.074,0.054-0.111c0.399-0.861-0.501-4.91-0.747-5.736
			C19.221,31.923,18.271,30.513,16.583,31.286z"/>
		<path style="opacity:0.2;clip-path:url(#SVGID_2_);fill:#BF3C1B;" d="M18.59,33.397c-0.944-0.506-3.399,0.16-2.366,2.137
			c0.692-1.734,1.699-0.512,1.47,0.734c-0.155,0.838-1.053,0.795-0.219,1.93c0.451,0.615,1.44,0.457,1.95,0.172
			C21.042,37.466,19.739,34.015,18.59,33.397z"/>
		<path style="clip-path:url(#SVGID_2_);fill:#A16B43;" d="M40.788,29.198c2.162,0.205,3.969-0.436,7.213-0.166
			C46.812,27.542,42.408,27.511,40.788,29.198z"/>
		<path style="opacity:0.2;clip-path:url(#SVGID_2_);fill:#BF3C1B;" d="M35.982,37.903c-0.736,0.008-1.03-0.301-1.545-0.018
			c-0.514,0.283,0.605,1.285,1.516,1.209c1.03-0.086,1.876-0.932,1.604-1.238C37.239,37.497,36.801,37.894,35.982,37.903z"/>
		<path style="opacity:0.15;clip-path:url(#SVGID_2_);fill:#BF3C1B;" d="M29.547,18.735c-2.216,0.414-4.335,1.115-6.173,2.047
			c-2.878,1.459-3.063,2.967-4.463,5.715c-0.706,1.387-2.419,2.785-0.776,4.24c-1.653,0.631-2.033,3.473-0.994,4.76
			c0.289,0.357,0.625,0.611,1.083,0.686c-0.376,0.709-0.585,1.645-0.224,2.438c0.41,0.9,1.13,1.701,2.038,1.533
			c0.027,0.721,0.352,1.998,0.815,2.594c1.148,1.471,3.205,2.018,4.501,0.896c1.248-1.074,1.088-2.598-0.5-3.256
			c-0.146,0.457-0.689,0.951-1.175,0.584c-0.611-0.463,0.199-2,0.185-2.621c-0.036-1.66-1.062-1.018-2.003-1.887
			c0.486-0.461,1.175-1.006,1.158-1.818c-0.02-1.014-0.72-1.148-1.332-1.668c-1.021-0.867-0.71-0.713-0.158-1.633
			c0.682-1.135,1.112-2.623-0.266-3.5c0.668-0.064,1.35-0.365,1.457-1.086c1.183,0.629,2.569-0.617,2.949-1.682
			c-0.117,0.326,1.307-0.293,1.396-0.359c0.487-0.359,0.867-1.143,1.07-1.688c0.103,1.488,1.637,2.49,2.835,1.324
			c0.771,1.842,2.333,1.787,4.046,1.369c0.594,2.117-1.204,1.242-1.81,2.301c-1.007,1.758,2.616,2.525,3.591,2.178
			c1.137-0.404,1.762-1.645,1.702-2.805c0.138,1.379,2.113,0.738,2.823,0.221c0.417,1.936,2.211,2.338,3.617,1.025
			c0.246,3.189,4.413,3.141,3.582-0.578C46.604,19.481,37.462,17.263,29.547,18.735z"/>
		<path style="clip-path:url(#SVGID_2_);fill:#FDD281;" d="M49.558,15.271c1.776-3.711-5.543-6.551-8.324-4.531
			c-0.434-4.574-6.195-4.844-8.95-1.605c-1.014-1.652-3.304-2.055-3.65-2.113c-1.575-0.266-3.313,0.057-4.346,1.262
			c1.536-0.018,4.133,2.941-0.487,2.512c-1.916-0.178-3.053-0.908-4.967,0.125c-1.552,0.838-2.602,2.309-1.137,3.74
			c-0.017,0.014-3.429-0.197-3.945,2.887c-0.212,1.27,0.308,1.582-0.958,2.531c-0.852,0.641-1.742,1.02-2.851,0.67
			c-0.013,1.246,1.149,2.834,1.743,3.262c1.192,0.857,2.499,0.725,3.774,0.105c-0.128,0.779,2.204,7.418,3.232,6.713
			c-1.692,1.158-2.416,3.496-0.749,4.574c0.264,0.17,0.586,0.309,0.973,0.406c-2.562,0.945-0.529,4.762,2.002,3.512
			c-2.195,2.609,4.335,5.664,4.474,2.523c0.036-0.84-0.544-1.768-1.386-1.943c0.43,0.09,0.596,2.01-0.549,1.525
			c-1.691-0.709,1.258-3.02-0.285-3.969c-0.757-0.463-2.979,0.047-2.153-1.354c0.586-0.996,1.854-1.514,0.339-2.727
			c-0.451-0.359-1.234-0.402-1.275-1.104c-0.038-0.656,0.771-0.951,1.075-1.375c1.06-1.488-0.587-3.25-1.938-3.793
			c0.867-0.051,3.323,0.373,3.042-1.271c1.36,1.186,3.354-0.484,2.809-2.082c0.247,0.725,1.552,0.488,1.984,0.191
			c0.808-0.547,0.733-1.613,1.146-2.412c0.165,0.871,0.35,1.74,1.184,2.186c0.834,0.447,1.743,0.297,2.188-0.563
			c0.512,1.779,2.267,3.225,3.822,1.438c0.349,0.68,0.555,1.65,0.06,2.314c-0.746,1-1.733-0.047-2.364,0.426
			c-0.791,0.592,0.65,1.844,1.18,2.012c1.029,0.326,2.503-0.193,3.131-1.066c0.513-0.711,0.383-1.529,0.424-2.348
			c0.864,1.398,2.312,2.336,3.75,0.877c1.041,1.313,2.071,1.941,3.562,0.639c0.717,1.189,0.593,2.791,2.313,3.039
			c1.998,0.289,1.883-2.023,1.525-3.359c-0.451-1.678-1.066-4.949,0.871-6.422c1.202-0.912,2.983-0.326,2.427,1.254
			c1.74-1.123,1.92-2.744,1.161-4.355C52.927,16.526,51.343,15.479,49.558,15.271z"/>
		<path style="clip-path:url(#SVGID_2_);fill:#FFF9F0;" d="M19.002,40.44c-0.701,0.018-1.263,0.602-1.254,1.303
			c0.008,0.703,0.582,1.254,1.282,1.234c0.703-0.02,1.263-0.604,1.256-1.305C20.277,40.972,19.704,40.421,19.002,40.44z"/>
		<path style="clip-path:url(#SVGID_2_);fill:#A16B43;" d="M21.503,28.735c4.055,0.096,5.422,0.275,8.237,0.203
			C28.261,27.038,23.293,27.169,21.503,28.735z"/>
		<path style="clip-path:url(#SVGID_2_);fill:#F04D4D;" d="M35.406,40.45c-2.9,0.057-7.165,0.879-9.433-0.461
			c3.72,6.393,6.053,7.59,9.024,7.818c3.724,0.283,5.033-2.299,5.624-4.238c0.25-0.822,2.166-2.918,2.903-3.391
			C41.197,40.714,38.913,40.384,35.406,40.45z"/>
		<path style="clip-path:url(#SVGID_2_);fill:#8F3935;" d="M27.713,41.116c0,0,2.23,4.297,6.865,4.457
			c2.971,0.104,4.939-0.873,5.513-2.311c0.626-1.572,1.9-2.125,1.9-2.125C33.873,43.067,27.713,41.116,27.713,41.116z"/>
		<path style="clip-path:url(#SVGID_2_);fill:#FFF9F0;" d="M29.43,41.521c0,0,0.121,1.293,1.764,1.813
			c2.107,0.67,4.386,0.74,6.743,0.396c1.59-0.23,2.398-2.244,2.398-2.244S35.788,42.536,29.43,41.521z"/>
		<path style="clip-path:url(#SVGID_2_);fill:#FFF9F0;" d="M35.783,43.868c-2.123,0.053-3.884-0.121-4.935-0.84
			c-0.75-0.514-0.826,0.025-0.669,0.365c0,0,0.66,1.777,4.174,2.234c3.378,0.439,5.161-1.646,4.778-2.018
			C38.753,43.237,37.75,43.823,35.783,43.868z"/>
		<path style="clip-path:url(#SVGID_2_);fill:#E8DAC5;" d="M29.43,41.521c0,0,0.11,0.602,0.408,0.916c0,0,7.943-0.584,9.83,0.166
			c0,0,0.569-0.705,0.667-1.117C40.335,41.485,34.774,42.462,29.43,41.521z"/>
		<path style="clip-path:url(#SVGID_2_);fill:#E8DAC5;" d="M31.477,43.298c2.818,1.803,6.248,0.365,6.248,0.365
			C34.13,44.454,31.477,43.298,31.477,43.298z"/>
		<path style="clip-path:url(#SVGID_2_);fill:#305D80;" d="M26.273,30.8c-2.135-0.801-3.227,3.133-1.736,4.297
			c0.651-0.24,1.438-0.217,2.073,0.057C27.963,34.31,27.862,31.397,26.273,30.8z"/>
		<path style="clip-path:url(#SVGID_2_);fill:#86BAE3;" d="M26.606,32.101c-0.885,0.135-0.554,1.945,0.367,1.488
			C27.64,33.259,27.393,31.983,26.606,32.101z"/>
		<path style="clip-path:url(#SVGID_2_);fill:#305D80;" d="M45.062,30.843c-2.143-1.367-4.025,3.645-1.642,4.363
			c0.575-0.393,1.266-0.396,1.881-0.301C46.119,33.839,46.211,31.573,45.062,30.843z"/>
		<path style="clip-path:url(#SVGID_2_);fill:#86BAE3;" d="M44.938,31.909c-0.847,0.021-0.725,1.898,0.188,1.555
			C45.786,33.216,45.688,31.892,44.938,31.909z"/>
		<path style="clip-path:url(#SVGID_2_);fill:#121B21;" d="M45.122,30.735c-1.964-0.754-2.608,1.574-2.608,1.574
			s0.951-1.174,2.29-0.43c3.035,1.691,4.99-0.365,4.99-0.365C47.389,32.323,46.175,31.142,45.122,30.735z"/>
		<path style="clip-path:url(#SVGID_2_);fill:#121B21;" d="M24.845,30.909c-0.786,0.398-2.607,1.594-5.027,0.891
			c0,0,2.307,2.002,5.23,0.191c1.281-0.795,2.38,0.182,2.38,0.182S26.894,29.866,24.845,30.909z"/>
		<path style="clip-path:url(#SVGID_2_);fill:#FFE8BD;" d="M28.353,13.7c0.001,0.01,0.001,0.018,0.002,0.027
			c0-0.01,0.001-0.018,0.002-0.025C28.361,13.634,28.353,13.634,28.353,13.7z"/>
		<path style="clip-path:url(#SVGID_2_);fill:#FFE8BD;" d="M48.785,24.245c-0.039-0.932,0.017-1.484-0.204-2.463
			c-0.291-1.287-1.035-1.629-2.233-1.584c1.406-2.088,4.051-2.434,5.741-0.688c0.644-2.307-2.167-4.35-4.438-3.76
			c0.477-1.338,0.871-2.988-0.451-4.029c-1.418-1.113-3.688-1.213-5.192-0.299c-1.248,0.76-2.642,2.264-4.418,1.164
			c1.055,0.652,3.584-2.939,0.589-4.225c-1.865-0.801-3.483,0.248-4.748,1.486c-0.396,0.389-0.798,0.816-1.012,1.324
			c-1.276-2.414-3.222-3.887-6.301-3.152c2.339,0.039,3.313,3.68,1.209,4.701c-1.225,0.596-2.354-0.701-3.342-1.146
			c-0.922-0.418-2.335-0.58-3.332-0.311c-0.937,0.252-2.156,1.146-2.523,2.025c1.673-0.217,2.628,3.064,6.282,2.031
			c-1.541,1.287-3.213,1.406-4.599,0.762c-0.935-0.438-2.145-0.818-3.212-0.232c-1.553,0.85-1.158,3.021-1.925,4.363
			c-0.691,1.209-1.349,1.355-2.607,1.717c1.337,0.871,2.095,0.957,3.731,0.793c-1.105,0.111-1.753,1.666-1.848,2.516
			c-0.122,1.111,0.838,1.982,0.675,3.01c-0.137,0.869-1.324,1.439-2.136,1.412c0.55,0.609,1.415,0.625,2.168,0.365
			c0.938-0.322,1.143-1.553,1.915-1.723c1.059-0.23,2.159,1.547,2.14,2.361c1.59-0.768-0.291-3.219-1.226-3.934
			c1.045,0.008,3.918-0.117,3.724-1.586c0.118,0.885,2.02,0.002,2.265-0.475c0.341-0.666,0.176-1.695-0.501-2.121
			c0.591,0.078,1.688,0.646,2.149,0.1c0.393-0.465-0.076-1.557-0.332-1.977c4.78,1.844,3.417-3.1,0.486-3.029
			c2.218-0.18,2.809-0.516,3.074-3.916c-0.001-0.01-0.001-0.018-0.002-0.027c0-0.066,0.009-0.066,0.004,0.002
			c-0.001,0.008-0.002,0.016-0.002,0.025c0.161,1.973-0.365,3.959,2.982,3.646c-4.833,1.707-2.917,5.611,1.904,4.482
			c-0.733,0.172-0.786,1.553,0.311,2.342c0.675,0.486,2.126,0.211,2.397-0.141c0.855,1.318,1.122,2.477,0.098,3.639
			c1.16,0.064,1.595-1.662,1.768-2.504c0.875,0.529,1.668,1.338,2.758,0.906c0.824-0.328,1.264-1.221,1.797-1.846
			c0.011,1.451,0.56,2.531,1.44,2.723c1.056,0.229,1.887-0.139,2.655-0.932c-0.08,1.219,0.482,2.301,1.131,2.928
			c0.611,0.596,2.021,1.404,3.26,0.521c-0.534,0-0.965-0.262-1.188-0.715c2.037-0.197,3.627-1.277,3.447-3.367
			C51.721,26.044,48.879,26.374,48.785,24.245z"/>
		<path style="clip-path:url(#SVGID_2_);fill:#FDD281;" d="M39.963,21.427c0.916,3.24,3.7,4.111,5.364,1.463
			C43.59,24.442,40.748,23.126,39.963,21.427z"/>
		<path style="clip-path:url(#SVGID_2_);fill:#FDD281;" d="M18.428,25.062c1.967,1.656,4.313,0.07,3.328-2.318
			C21.536,24.3,19.636,25.524,18.428,25.062z"/>
		<path style="clip-path:url(#SVGID_2_);fill:#FDD281;" d="M45.504,24.06c-1.196,2.221,1.01,3.979,3.199,2.473
			C47.061,26.724,45.333,25.286,45.504,24.06z"/>
		<path style="clip-path:url(#SVGID_2_);fill:#FDD281;" d="M42.785,18.905c1.476,1.709,3.36,2.072,5.554,1.217l-0.086-1.486
			C46.9,19.327,44.834,19.675,42.785,18.905z"/>
		<path style="clip-path:url(#SVGID_2_);fill:#FDD281;" d="M43.834,14.569c1.476,1.709,2.844,1.588,4.235,1.104l0.247-1.682
			C47.339,14.815,45.3,15.394,43.834,14.569z"/>
		<path style="clip-path:url(#SVGID_2_);fill:#FDD281;" d="M13.652,22.794l0.457,1.459c2.369,0.053,3.991-0.928,4.724-3.023
			C17.211,22.644,15.174,22.979,13.652,22.794z"/>
		<path style="clip-path:url(#SVGID_2_);fill:#FFE8BD;" d="M10.541,29.101l-0.058-0.957c-1.007,1.102-1.735,2.346-0.997,3.707
			c0.481,0.891,1.823,1.844,2.905,1.08c0.436-0.309,0.575-1.115,0.671-1.58c-0.02-0.018-0.04-0.037-0.06-0.055
			C11.664,31.44,10.238,30.401,10.541,29.101z"/>
		<path style="clip-path:url(#SVGID_2_);fill:#FFE8BD;" d="M11.979,34.321L11.174,34.8c-1.935,0.043-2.915,3.24-2.081,4.613
			c0.512,0.84,1.574,1.428,2.578,1.615c-0.697-1.076-1.351-2.361-1.017-3.648C10.938,36.292,11.948,35.491,11.979,34.321z"/>
		<path style="clip-path:url(#SVGID_2_);fill:#FFE8BD;" d="M53.572,30.56c-0.511-0.352-1.1-0.598-1.725-0.713v0.32
			c1.716,2.205,1.395,3.871,0.425,6.125c0.004,0,0.088,0.082,0.09,0.061C54.761,35.374,55.906,32.153,53.572,30.56z"/>
		<path style="clip-path:url(#SVGID_2_);fill:#FFE8BD;" d="M52.365,38.315l-0.807-0.213c-0.353,1.881,2.019,1.441,2.3,2.828
			C54.267,39.774,54.069,38.226,52.365,38.315z"/>
		<path style="clip-path:url(#SVGID_2_);fill:#FFE8BD;" d="M12.324,43.429c-0.984,0.961-0.853,3.041,0.188,3.98
			c0.045-0.605,0.438-1.076,0.438-1.689c-0.002-0.568-0.411-1.014-0.337-1.65L12.324,43.429z"/>
	</g>
</g>
<g id="Layer_1">
</g>
</svg>
