<?xml version="1.0" encoding="iso-8859-1"?>
<!-- Generator: Adobe Illustrator 16.0.0, SVG Export Plug-In . SVG Version: 6.00 Build 0)  -->
<!DOCTYPE svg PUBLIC "-//W3C//DTD SVG 1.1//EN" "http://www.w3.org/Graphics/SVG/1.1/DTD/svg11.dtd">
<svg version="1.1" xmlns="http://www.w3.org/2000/svg" xmlns:xlink="http://www.w3.org/1999/xlink" x="0px" y="0px"
	 width="66.002px" height="66.001px" viewBox="0 0 66.002 66.001" style="enable-background:new 0 0 66.002 66.001;"
	 xml:space="preserve">
<g id="Layer_82">
	<g>
		<defs>
			<circle id="SVGID_1_" cx="33.002" cy="33.001" r="33"/>
		</defs>
		<clipPath id="SVGID_2_">
			<use xlink:href="#SVGID_1_"  style="overflow:visible;"/>
		</clipPath>
		<rect style="clip-path:url(#SVGID_2_);fill:#FFFFFF;" width="66" height="65.998"/>
		<path style="clip-path:url(#SVGID_2_);fill:#FAA665;" d="M44.107,56.302c-3.34-2.968-15.647-2.901-19.913,0
			c-3.382,2.301-1.532,5.6,0.075,9.696h20.133C46.032,62.958,47.214,59.063,44.107,56.302z"/>
		<path style="clip-path:url(#SVGID_2_);fill:#DC5B00;" d="M27.13,10.832C8.05,16.259,13.476,38.228,19.062,36.78
			c3.395-0.881,6.744-1.952,10.094-2.987c3.271-1.011,7.146-1.557,10.514-0.611c1.006,0.283,1.857,0.876,2.895,1.077
			c3.406,0.664,6.125-0.731,6.256-4.244c0.006-0.183,0.01-0.369,0.008-0.557c-0.01-2.818-0.826-6.187-1.709-8.771
			C44.36,12.606,35.212,8.534,27.13,10.832z"/>
		<path style="clip-path:url(#SVGID_2_);fill:#FAA665;" d="M30.364,14.88c-8.338,0.998-16.033,10.454-12.895,20.176
			c1.619,5.018,1.621,6.266,3.922,11.253c2.336,5.063,7.67,8.03,14.799,7.388c6.477-0.586,8.723-3.898,10.211-9.398
			c1.043-3.861,1.83-8.105,1.26-12.86C46.446,21.294,38.702,13.88,30.364,14.88z"/>
		<path style="clip-path:url(#SVGID_2_);fill:#F28B50;" d="M24.142,34.083c0.072,0.58,1.387,0.23,1.793,0.305
			c-0.332,0.38-1.369,0.432-1.783,0.699c-0.439,0.285-0.379,0.46,0.156,0.419c0.324-0.025,2.105-0.539,2.326-0.747
			C27.571,33.879,24.593,33.935,24.142,34.083z"/>
		<path style="clip-path:url(#SVGID_2_);fill:#F28B50;" d="M45.276,33.198c0.35-0.068,1.418,0.285,1.541-0.285
			c-0.365-0.148-2.865-0.228-2.17,0.644c0.162,0.207,1.607,0.728,1.877,0.755c0.449,0.043,0.516-0.126,0.176-0.409
			C46.382,33.635,45.515,33.575,45.276,33.198z"/>
		<path style="clip-path:url(#SVGID_2_);fill:#EB7205;" d="M39.8,28.432c0.559,1.391,2.318,0.657,3.365,0.483
			c0.684-0.11,2.387,0.166,3.139-0.196c0.107-0.052,0.195-0.117,0.26-0.198C48.483,26.043,38.669,25.618,39.8,28.432z"/>
		<path style="clip-path:url(#SVGID_2_);fill:#EB7205;" d="M23.706,30.162c0.088,0.071,0.199,0.122,0.328,0.157
			c0.902,0.243,2.678-0.316,3.447-0.315c1.176,0.003,3.262,0.457,3.525-1.045C31.538,25.917,21.019,27.962,23.706,30.162z"/>
		<path style="clip-path:url(#SVGID_2_);fill:#F58245;" d="M44.038,34.372c-1.059-0.083-2.518,0.221-1.768,1.872
			c0.396,0.88,4.541,1.794,4.289-0.188c-0.025-0.205-0.082-0.384-0.164-0.542C45.966,34.673,44.849,34.437,44.038,34.372z"/>
		<path style="clip-path:url(#SVGID_2_);fill:#F58245;" d="M27.528,35.888c-0.818-0.563-1.994-0.259-2.797,0.061
			c-1.045,0.418-2.281,1.374-0.764,2.526c0.811,0.613,5.191-0.485,3.984-2.169C27.825,36.131,27.685,35.993,27.528,35.888z"/>
		<path style="clip-path:url(#SVGID_2_);fill:#401E15;" d="M28.015,31.578c-1.824-0.915-3.197,2.337-1.986,3.497
			c0.605-0.139,1.307-0.033,1.848,0.268C29.169,34.767,29.372,32.262,28.015,31.578z"/>
		<path style="clip-path:url(#SVGID_2_);fill:#F58245;" d="M42.306,37.927c-0.316,0.102,0.268,0.214,1.037,0.417
			c0.148,0.04,0.24,0.123,0.293,0.23c-4.109,1.269-11.223,2.481-16.49,0.763c0.043-0.048,0.086-0.094,0.137-0.133
			c0.723-0.568,1.762-0.625,1.473-0.807c0,0-1.742-0.038-2.434,0.518c-0.617,0.496-0.6,2.043-0.105,2.104
			c0.393,0.05,0.41-0.789,0.738-1.4c0.363,1.678,2.209,8.757,8.154,8.735c4.477-0.016,5.828-2.395,6.002-5.178
			c0.096-1.55,1.629-3.483,2.584-4.418c0.08,0.469-0.189,1.15,0.158,1.2c0.494,0.067,0.979-0.934,0.645-1.745
			C44.165,37.401,42.306,37.927,42.306,37.927z"/>
		<path style="clip-path:url(#SVGID_2_);fill:#8F322E;" d="M28.081,40.462c0,0,1.938,6.858,7.24,6.518
			c4.777-0.307,5.336-2.674,5.543-4.325c0.275-2.213,1.564-3.109,1.564-3.109C34.796,43.857,28.081,40.462,28.081,40.462z"/>
		<path style="clip-path:url(#SVGID_2_);fill:#FFF4E3;" d="M29.821,41.137c0,0,0.064,2.235,1.703,3.043
			c2.098,1.035,4.447,1.104,6.84,0.216c1.611-0.6,2.535-4.01,2.535-4.01S36.315,42.552,29.821,41.137z"/>
		<path style="clip-path:url(#SVGID_2_);fill:#FFF4E3;" d="M36.491,44.456c-2.27,0.096-4.225-0.248-5.287-0.771
			c-0.885-0.437-0.893,0.2-0.725,0.761c0,0,0.293,2.3,4.43,2.608c3.617,0.271,5.184-2.685,4.777-3.276
			C39.282,43.188,38.759,44.36,36.491,44.456z"/>
		<path style="clip-path:url(#SVGID_2_);fill:#E8D5B9;" d="M29.813,41.104c0,0,0.074,1.249,0.424,1.755
			c0,0,8.096-1.524,10.004-0.683c0,0,0.566-1.255,0.658-1.791C40.899,40.386,35.157,42.56,29.813,41.104z"/>
		<path style="clip-path:url(#SVGID_2_);fill:#E8D5B9;" d="M31.675,43.689c3.576,2.126,7.514-0.017,7.514-0.017
			C34.776,44.948,31.675,43.689,31.675,43.689z"/>
		<path style="clip-path:url(#SVGID_2_);fill:#401E15;" d="M43.13,33.96c0.543-0.297,1.211-0.406,1.77-0.267
			c0.863-0.806,1.096-2.575,0.105-3.3C43.157,29.042,40.995,33.122,43.13,33.96z"/>
		<path style="clip-path:url(#SVGID_2_);fill:#A89089;" d="M27.063,32.063c-0.775,0.214-0.285,1.725,0.488,1.231
			C28.11,32.937,27.751,31.876,27.063,32.063z"/>
		<path style="clip-path:url(#SVGID_2_);fill:#A89089;" d="M43.923,30.725c-0.783,0.089-0.553,1.644,0.275,1.282
			C44.796,31.744,44.62,30.646,43.923,30.725z"/>
		<path style="clip-path:url(#SVGID_2_);fill:#FAA665;" d="M14.956,33.285c-4.096,1.25-2.309,6.374,1.086,7.208
			c1.088,0.27,2.236,0.241,3.338,0.103c0.02-0.029,0.041-0.061,0.063-0.092c0.477-0.711-0.496-4.136-0.766-4.839
			C17.997,33.897,16.923,32.685,14.956,33.285z"/>
		<path style="opacity:0.2;clip-path:url(#SVGID_2_);fill:#BF3C1B;" d="M40.997,19.343c-3.977-0.423-8.172-0.276-12.078,0.61
			c-2.701,0.614-5.551,1.736-7.111,4.16c-1.484,2.306-3.783,4.672-3.258,7.648c0.113,0.642,1.018,3.812,2.223,2.794
			c0.551-0.466-0.07-2.716,0.268-4.955c0.43,1.441,1.291,2.147,2.018,2.604c0.164,0.103,3.551-5.124,4.426-5.611
			c-0.154,2.179,1.053,3.655,2.117,4.233c0.553-1.411,1.27-2.104,2.615-3.322c0.281,0.215,1.82,3.517,1.857,3.472
			c0.592-0.679,0.912-1.578,1.49-2.288c1.545-1.897,3.461-3.426,5.814-4.159c1.371-0.427,3.623-0.898,4.252-2.397
			C46.669,19.651,42.419,19.493,40.997,19.343z"/>
		<path style="clip-path:url(#SVGID_2_);fill:#F28B50;" d="M17.241,35.118c-1.082-0.454-3.934,0.035-2.773,1.724
			c0.832-1.436,1.973-0.379,1.686,0.659c-0.193,0.699-1.23,0.638-0.283,1.616c0.512,0.527,1.656,0.423,2.252,0.197
			C20.009,38.604,18.56,35.668,17.241,35.118z"/>
		<path style="clip-path:url(#SVGID_2_);fill:#B53F0D;" d="M45.165,36.74c-2.193-1.64-5.475-0.151-7.762,0.317
			c-2.527,0.516-5.162-0.014-7.711-0.073c-2.404-0.057-6.443,0.957-6.57,4.091c-0.168,4.122,3.268,0.345,4.102-1.059
			c0.004,0.688,1.455,0.427,2.408-0.088c-0.98,1.222,1.75,0.84,2.271,0.269c-0.484,1.033,1.518,0.696,2.471,0.046
			c-0.67,0.837,0.752,1.489,1.189,0.092c-0.295,0.948,1.367,1.028,1.406-0.045c1.346,0.969,2.27,0.275,1.611-0.552
			c1.369,1.07,2.535,0.258,2.176-0.353c0.777,0.37,2.25,0.805,2.27-0.546c0.586,1.122,1.457,2.484,2.025,2.671
			C45.995,41.82,48.671,39.364,45.165,36.74z"/>
		<path style="clip-path:url(#SVGID_2_);fill:#BD420E;" d="M47.688,31.666c-0.227,1.403-0.051,5.511-1.17,6.544
			c-0.846,0.78-2.297-0.571-3.43-0.006c-0.719,0.359,3.021,10.852-2.021,11.15c-1.83,0.108-2.002-1.789-5.291-1.145
			c-1.686,0.33-3.395,2.977-5.635,2.043c-4.287-1.786-4.197-7.89-3.291-10.099c0.711-1.731-3.322,0.229-4.725-1.457
			c-0.889-1.066-0.699-2.838-1.516-3.882c-1.012-1.293-2.234-0.577-2.252,0.931c-0.02,1.42,0.291,2.769-0.031,4.147
			c-0.855,3.685-0.066,5.098,0.555,3.725c-0.051,0.53-0.311,3.692,0.854,2.341c-0.494,0.885,0.004,4.075,1.242,3.11
			c-0.129,0.849,0.52,3.348,1.41,3.183c0.191,0.814,1.666,3.286,2.432,1.77c-0.119,0.233,1.053,1.624,1.256,1.849
			c0.498,0.553,1.262,1.271,2.068,1.206c0.438-0.033,0.592-0.411,1.033-0.361c0.48,0.055,1.057,0.782,1.518,0.986
			c0.508,0.225,0.992,0.382,1.393-0.116c0.625,1.048,2.24,1.185,2.953,0.195c0.49,0.987,2.363,0.789,2.713-0.229
			c0.936,1.335,2.096-0.432,2.521-1.244c-0.432,0.823,1.867,1.586,2.451-2.35c0.113,0.989,0.959,0.753,1.412,0.168
			c0.395-0.508,0.49-1.374,0.523-1.993c1.4,0.951,1.695-1.837,1.551-2.618c1.371,0.299,0.91-2.637,0.719-3.276
			c1.68,0.73,0.824-2.499,0.576-3.076c0.771,1.815,1.619-0.676,0.414-3.261C49.659,41.176,48.374,32.965,47.688,31.666z"/>
		<path style="clip-path:url(#SVGID_2_);fill:#D75810;" d="M22.407,40.454c-0.418-0.519-1.707-2.229-1.668-2.891
			c-0.051,0.904-1.227,0.271-1.496-0.143c-0.041,0.465-0.08,1.087,0.061,1.547c0.016,0.056,0.719,1.145,0.744,0.814
			c-0.047,0.594-0.852,4.82,0.736,3.712c-0.211,0.714,0.215,4.499,1.164,2.67c0.039,0.675,0.035,3.485,1.225,3.226
			c1.271-0.277,1.162-6.507,0.721-7.381C23.575,41.379,22.849,41.001,22.407,40.454z"/>
		<path style="clip-path:url(#SVGID_2_);fill:#DC5B00;" d="M43.741,17.218c-2.404-1.352-5.236-2.416-7.982-2.655
			c-1.561-0.135-3.029-0.587-4.621-0.547c-2.654,0.063-5.221,0.935-7.561,2.146c-3.484,1.801-5.729,5.888-6.742,9.521
			c-0.59,2.118-0.902,4.503-0.428,6.675c0.311,1.412,1.629,4.409,3.748,4.764c0.471,0.078,1.113-0.213,0.926-1.873
			c-0.277-2.416-1.359-5.738,0.441-8.073c-0.391,1.214,0.314,2.642,1.211,3.484c0.988-2.06,2.969-4.489,5.293-5.05
			c-0.133,1.701,1.076,3.689,1.379,4.038c0.355-1.309,1.211-2.817,2.531-3.332c0.557,1.185,1.014,2.345,2.012,3.291
			c1.484-1.738,2.553-3.927,4.449-5.277c1.984-1.415,4.746-1.179,6.711-2.637C46.921,20.345,45.208,18.044,43.741,17.218z"/>
		<path style="clip-path:url(#SVGID_2_);fill:#F58245;" d="M35.481,30.526c-2.297,0.226-2.814,5.99-1.527,6.687
			c1.592,0.86,4.244,0.287,5.057-0.464C39.614,36.188,38.22,30.256,35.481,30.526z"/>
		<path style="clip-path:url(#SVGID_2_);fill:#E66A04;" d="M33.841,25.46c-1.014,1.274-0.201,2.014,0.117,3.238
			c-0.096-0.372,1.488-2.383,1.725-2.813c0.504-0.92,0.975-1.735,1.232-2.771C35.897,23.79,34.606,24.496,33.841,25.46z"/>
		<path style="clip-path:url(#SVGID_2_);fill:#D75810;" d="M38.532,49.398c-2.129-0.941-4.172,0.319-5.82,1.944
			c-1.41,1.391-1.777,4.271,0.15,5.591c0.605,0.415,1.354,0.504,1.256-1.123c0.785,1.325,2.697,2.411,2.893,0.56
			c1.229,0.983,2.188,0.266,2.602-1.107c1.297,1.734,2.684-1.126,2.619-2.311C42.126,50.96,40.087,50.087,38.532,49.398z"/>
		<path style="clip-path:url(#SVGID_2_);fill:#D75810;" d="M41.583,36.544c-1.734,0.209-2.502,1.223-3.93,1.917
			c-1.514,0.735-2.828,0.148-4.08-0.478c-4.439-2.227-11.938,0.795-9.848,6.686c0.273,0.77,0.48,1.663,1.381,1.86
			c0.988-2.542-0.486-6.374,2.525-7.812c-1.215,2.15,2.385,0.021,2.932-0.204c-1.535,2.47,1.309,1.307,2.447,0.479
			c-0.336,0.374-0.428,0.797-0.463,1.267c0.842,0.307,1.52-0.43,2.047-1.018c-0.318,1.166,0.91,1.279,1.51,0.57
			c0.369,0.587,0.695,0.465,0.912-0.184c0.361,0.311,0.635,0.188,1.02,0.333c-0.018-0.229,0.135-0.479,0.049-0.76
			c0.76,0.436,2.494,0.705,1.846-0.765c0.654,1.039,3.059,0.974,2.445-0.609c1.426,0.933,1.83,2.784,2.014,4.365
			c0.117,1.02-0.264,5.767,1.717,4.053c0.848-0.736,0.824-2.598,0.389-3.527c2.039,1.369-0.318-3.212-0.613-3.68
			C44.823,37.364,43.638,36.297,41.583,36.544z"/>
		<path style="clip-path:url(#SVGID_2_);fill:#D75810;" d="M28.112,50.542c-0.66-0.512-1.551-2.87-2.535-2.588
			c-0.949,0.271-0.5,2.484-0.443,3.188c0.045,0.55,0.975,3.531,1.527,1.722c-0.197,0.815,0.35,2.253,1.1,2.677
			c0.773,0.436,1.713-0.549,1.412-0.716c0.609,0.341,1.133,1.146,1.773,1.362c1.971,0.668,1.992-3.682,1.994-4.969
			c-0.477,0.153-0.979,0.413-1.471,0.497C30.128,51.945,29.13,51.326,28.112,50.542z"/>
		<path style="clip-path:url(#SVGID_2_);fill:#D75810;" d="M43.812,51.172c0.001,0.001,0.001,0.001,0.002,0.002
			C43.813,51.155,43.812,51.142,43.812,51.172z"/>
		<path style="clip-path:url(#SVGID_2_);fill:#D75810;" d="M44.356,47.803c-0.561-0.054-0.584,0.879-0.807,1.262
			c-0.408,0.706-0.99,1.224-1.783,1.433c-0.385,0.1-1.359-0.138-1.631,0.044c-0.715,0.478-0.238,1.794,0.289,2.289
			c1.604,1.507,3.396,0.577,3.389-1.618c0.001,0.002,0.001-0.021,0-0.038c-0.001-0.001-0.001-0.001-0.002-0.002
			c0-0.03,0.001-0.017,0.002,0.002c0.593,0.982,1.209-0.003,1.365-0.696C45.29,49.984,45.116,47.878,44.356,47.803z"/>
		<path style="clip-path:url(#SVGID_2_);fill:#E66A04;" d="M29.231,28.586c0.166-0.568,0.512-0.953,0.746-1.358
			c0.789-1.369,2.076-2.126,2.961-3.428C30.515,24.693,27.905,25.558,29.231,28.586z"/>
		<path style="clip-path:url(#SVGID_2_);fill:#E66A04;" d="M22.771,29.438c-0.219-0.211,0.875-1.984,2.57-3.192
			c0.953-0.679,2.352-1.064,2.889-2.301c-1.023,0.535-2.393,0.321-3.482,0.733C23.079,25.306,21.075,27.79,22.771,29.438z"/>
		<path style="opacity:0.6;clip-path:url(#SVGID_2_);fill:#B53F0D;" d="M42.624,15.915c-3.455-0.961-7.281-0.703-10.809-0.435
			c-5.27,0.4-10.395,1.96-14.934,4.679c-4.018,2.406-3.076,5.508,1.115,5.135c4.307-0.384,8.672-1.863,12.346-2.443
			c4.193-0.662,8.197-0.91,12.373-1.656C47.235,20.389,46.745,17.063,42.624,15.915z"/>
		<path style="clip-path:url(#SVGID_2_);fill:#F7EFDC;" d="M43.165,12.409c-7.525-1.396-15.943-1.2-22.971,2.264
			c-1.254,0.618-13.205,7.083-8.531,9.057c3.314,1.396,13.385-2.31,16.98-2.922c6.309-1.074,13.182-1.107,19.289-2.825
			C56.106,15.686,46.892,13.101,43.165,12.409z"/>
		<path style="clip-path:url(#SVGID_2_);fill:#EDDBC0;" d="M27.589,7.757c-0.787,0.091-1.6-0.064-2.408-0.236
			c-1.074-0.228-2.143-0.487-3.154-0.248c-2.035,0.482-2.338,2.523-2.77,4.265c-0.568,2.297-1.33,4.607-2.32,6.772
			c3.607,0.925,11.863,0.46,14.354-0.065c3.432-0.726,8.91-1.619,11.094-4.743c-1.785-1.729-3.203-4.756-4.918-6.544
			C33.665,2.989,31.774,7.276,27.589,7.757z"/>
		<path style="clip-path:url(#SVGID_2_);fill:#FF392B;" d="M37.843,12.458c-2.855,1.732-5.928,2.158-9.156,2.484
			c-2.766,0.28-6.414,0.7-10.336-0.657c-0.088,0.964-0.672,2.391-1.121,3.233c1.154,0.145,2.313,0.621,3.498,0.776
			c4.355,0.569,8.67-0.124,13.006-0.864c3.064-0.522,5.723-2.301,8.297-4.167c-0.693-0.646-1.467-1.545-1.768-2.607
			C39.558,11.331,38.663,11.96,37.843,12.458z"/>
		<path style="clip-path:url(#SVGID_2_);fill:#F7EFDC;" d="M33.983,5.834C33.646,5.9,31.56,7.22,31.72,7.26
			c0.635,0.166,1.354,0.489,2.033,0.457c-2.744,0.34-5.967,0.477-8.713,0.153c-1.941-0.228-3.652-0.436-4.307,1.854
			c-0.439,1.543,0.508,1.412,1.527,1.024c0.623-0.235,1.271-0.566,1.65-0.674c3.598-1.015,7.088-1.494,10.795-1.358
			c1.295,0.047,2.633-0.307,1.727-1.819C35.849,5.923,35.065,5.615,33.983,5.834z"/>
		<path style="clip-path:url(#SVGID_2_);fill:#E6D0AE;" d="M46.097,17.909c-3.221,0.468-10.512,0.702-17.041,1.962
			c-5.389,1.039-8.756,2.606-12.943,3.278c-3.992,0.643-4.979-0.322-4.979-0.322s0.082,1.613,4.197,1.106
			c6.178-0.761,10.84-2.979,16.316-3.563c7.217-0.773,13.668-1.608,16.285-2.388c2.617-0.777,2.674-2.094,2.674-2.094
			S49.319,17.44,46.097,17.909z"/>
		<path style="clip-path:url(#SVGID_2_);fill:#FAA665;" d="M24.747,61.549c-0.045-1.675-0.057-5.562-0.553-5.247
			c-4.282,2.715-6.186,6.43-5.85,9.696h5.065C22.909,64.475,23.483,62.704,24.747,61.549z"/>
		<path style="clip-path:url(#SVGID_2_);fill:#FAA665;" d="M44.107,56.302c-0.496-0.314-0.508,3.572-0.553,5.247
			c1.264,1.155,1.838,2.926,1.337,4.449h5.065C50.293,62.731,48.39,59.017,44.107,56.302z"/>
		<path style="opacity:0.6;clip-path:url(#SVGID_2_);fill:#F28B50;" d="M25.515,64.458c0.523,0.949,3.25,0.938,2.34-0.586
			C27.39,63.092,24.585,62.774,25.515,64.458z"/>
		<path style="opacity:0.6;clip-path:url(#SVGID_2_);fill:#F28B50;" d="M40.188,63.872c-0.91,1.523,1.816,1.535,2.34,0.586
			C43.458,62.774,40.653,63.092,40.188,63.872z"/>
	</g>
</g>
<g id="Layer_1">
</g>
</svg>
