<?xml version="1.0" encoding="iso-8859-1"?>
<!-- Generator: Adobe Illustrator 16.0.0, SVG Export Plug-In . SVG Version: 6.00 Build 0)  -->
<!DOCTYPE svg PUBLIC "-//W3C//DTD SVG 1.1//EN" "http://www.w3.org/Graphics/SVG/1.1/DTD/svg11.dtd">
<svg version="1.1" xmlns="http://www.w3.org/2000/svg" xmlns:xlink="http://www.w3.org/1999/xlink" x="0px" y="0px"
	 width="66.013px" height="66px" viewBox="0 0 66.013 66" style="enable-background:new 0 0 66.013 66;" xml:space="preserve">
<g id="Layer_5">
	<g>
		<defs>
			<circle id="SVGID_1_" cx="33.013" cy="33" r="33"/>
		</defs>
		<clipPath id="SVGID_2_">
			<use xlink:href="#SVGID_1_"  style="overflow:visible;"/>
		</clipPath>
		<rect style="clip-path:url(#SVGID_2_);fill:#A44F49;" width="66" height="65.999"/>
		<path style="clip-path:url(#SVGID_2_);fill:#FFAE6D;" d="M39.337,53.572l0.935,4.441c0.383,1.275-0.404,4.88,0.388,7.985h3.942
			C42.843,62.668,45.177,55.703,39.337,53.572z"/>
		<path style="clip-path:url(#SVGID_2_);fill:#FFAE6D;" d="M28.297,58.014l0.935-4.441c-5.84,2.131-3.506,9.096-5.265,12.427h3.942
			C28.701,62.894,27.914,59.289,28.297,58.014z"/>
		<path style="clip-path:url(#SVGID_2_);fill:#FFAE6D;" d="M40.73,63.657c0.37-1.303-3.027-2.096-6.411-2.202
			c-3.384,0.106-6.781,0.899-6.411,2.202c0.274,0.964,0.593,1.685,0.83,2.342h11.158C40.136,65.342,40.456,64.621,40.73,63.657z"/>
		<path style="clip-path:url(#SVGID_2_);fill:#F58C5B;" d="M28.134,64.318c0.49,1.61,11.769,1.587,12.411-0.131
			C41.659,61.208,27.314,61.634,28.134,64.318z"/>
		<path style="clip-path:url(#SVGID_2_);fill:#FFAE6D;" d="M38.329,53.095c-2.474-0.86-0.929-4.448-4.305-4.448
			c-3.429,0-1.556,3.382-4.168,4.524c-2.613,1.144-3.402,6.039-2.389,8.218c1.809,3.88,10.345,4.439,13.358,0.737
			C42.582,59.969,42.435,54.52,38.329,53.095z"/>
		<path style="clip-path:url(#SVGID_2_);fill:#F2EBE6;" d="M39.308,53.388c0,0-0.231-0.231-0.549-0.216
			c0.753,4.743,0.404,6.829-4.637,6.829c-4.991,0-5.224-2.037-4.075-7.002c-0.228,0.032-0.658,0.345-0.658,0.345
			c-1.079,4.463-2.237,4.146-2.536,6.558c-0.173,1.403,0.042,2.778,1.009,3.973c1.297,1.603,11.851,1.436,12.876,0
			c0.955-1.338,1.205-2.501,1.069-3.674C41.581,58.246,39.957,58.459,39.308,53.388z"/>
		<path style="clip-path:url(#SVGID_2_);fill:#FFFCFC;" d="M38.688,59.644c-1.134-0.151-2.131,0.526-3.912,0.606
			c-2.899,0.131-3.946-0.739-4.988-0.721c-1.379,0.025-2.706,1.467-1.285,2.463c2.347,1.646,10.135,1.232,11.518,0.013
			C40.917,61.214,40.391,59.87,38.688,59.644z"/>
		<path style="clip-path:url(#SVGID_2_);fill:#F58C5B;" d="M31.245,51.673c-0.44,2.32,6.273,2.43,5.951,0.368
			C36.861,49.904,31.685,49.352,31.245,51.673z"/>
		<path style="clip-path:url(#SVGID_2_);fill:#FCCB68;" d="M53.517,28.911c2.54-0.66,5.446-6.17,1.131-5.89
			c1.155,1.753-1.61,2.539-2.505,1.216c-0.082-0.12-0.138-0.228-0.145-0.331c-0.135-2.173-2.364-3.687-4.061-5.04
			c-2.481-1.979-5.732-3.604-8.907-4.353c-5.599-1.321-12.301-1.048-16.776,2.631c-1.802,1.479-3.394,4.594-5.882,5.167
			c-3.058,0.707-4.77,3.8-2.365,5.767c-1.261,0.735-2.46-0.163-2.666-1.333c-2.645,1.808-3.651,5.343-0.022,6.97
			c-4.273,2.171-3.242,6.653,1.299,8.627c-2.147,1.965-1.076,5.334,1.061,6.678c-0.158-1.4,1.168-4.517,3.583-2.904
			c1.482,0.986,0.68,3.606-1.339,2.277c-0.551,2.373,3.456,3.873,4.644,1.907c-0.146,1.778,1.073,2.478,2.722,2.382
			c2.457-0.146,3.325-1.785,4.98-2.276c2.055-0.615,4.578-0.663,6.717-0.687c4.069-0.042,7.553,3.997,11.617,2.277
			c1.566-0.66,2.332-1.658,2.172-3.184c-1.111,0.773-4-0.377-1.627-2.21c1.188-0.918,2.932-0.052,4.137-0.745
			c1.418-0.815,0.862-3.785,0.963-3.849c1.023-0.63,2.71-0.669,2.802,1.109c2.117-4.118,0.135-5.272-2.11-5.597
			C57.917,36.764,58.929,29.918,53.517,28.911z"/>
		<path style="clip-path:url(#SVGID_2_);fill:#EEA54C;" d="M50.292,30.893c0.034-3.778-4.763-2.635-6.467-2.911
			c-5.744-0.929-13.581,0.222-19.347,0.627c-3.515,0.246-9.703,0.563-10.479,5.364c-0.31,1.912,0.288,3.332,0.91,4.976
			c-1.69,1.073-1.104,3.982,1.158,3.224c-0.469,0.5-0.863,1.377-0.474,2.015c0.571,0.937,2.437,0.61,3.395,1.19
			c1.288,0.781,1.904,2.119,1.299,3.518c0.461-0.168,0.956-0.29,1.421-0.42c0.341,1.19,0.405,3.028,2.037,3.012
			c0.755-0.009,1.5-0.401,2.237-0.834c0.714-0.418,1.424-0.874,2.132-1.055c1.646-0.417,2.491,0.72,3.962,1.132
			c1.095,0.308,2.394-0.14,3.434-0.481c2.23-0.729,3.251-0.965,5.606,0.066c1.15,0.506,3.24,0.912,4.635,0.086
			c-0.957-1.503-0.539-2.739,0.422-3.928c0.285-0.352,2.517-2.173,1.857-2.686c0.354,0.271,0.953,0.524,1.41,0.342
			c2.034-0.818,0.178-4.336,2.021-4.469c-3.73-2.296,0.912-2.018,0.805-4.418C50.397,34.953,50.277,32.379,50.292,30.893z"/>
		<path style="clip-path:url(#SVGID_2_);fill:#FFF9F0;" d="M48.311,40.05c-0.777,0.016-1.403,0.66-1.399,1.437
			c0.004,0.778,0.639,1.395,1.414,1.379c0.778-0.02,1.404-0.663,1.399-1.439C49.72,40.647,49.088,40.032,48.311,40.05z"/>
		<path style="clip-path:url(#SVGID_2_);fill:#FFAE6D;" d="M33.561,14.027c-8.273,0.704-14.748,7.704-14.308,18.838
			C19.694,44,27.716,52.923,36.476,52.004c7.259-0.761,13.491-9.762,12.195-21.963C47.511,19.118,41.835,13.317,33.561,14.027z"/>
		<path style="clip-path:url(#SVGID_2_);fill:#FFAA7D;" d="M47.571,37.33c-0.421-0.797-1.488-1.023-2.266-1.082
			c-1.01-0.079-2.402,0.211-1.671,1.777c0.389,0.837,4.355,1.701,4.098-0.18C47.706,37.651,47.649,37.479,47.571,37.33z"/>
		<path style="clip-path:url(#SVGID_2_);fill:#FFAA7D;" d="M28.142,37.077c-0.599-0.825-1.811-0.839-2.675-0.729
			c-1.128,0.144-2.606,0.801-1.539,2.45c0.569,0.876,5.079,0.961,4.479-1.161C28.343,37.418,28.252,37.234,28.142,37.077z"/>
		<path style="clip-path:url(#SVGID_2_);fill:#FFAE6D;" d="M17.131,31.09c-3.608,1.624-1.973,7.816,1.035,8.746
			c0.965,0.301,1.979,0.238,2.951,0.042c0.019-0.038,0.036-0.075,0.056-0.114c0.413-0.877-0.481-5.022-0.729-5.871
			C19.824,31.76,18.863,30.31,17.131,31.09z"/>
		<path style="opacity:0.4;clip-path:url(#SVGID_2_);fill:#D14F2E;" d="M19.17,33.262c-0.963-0.523-3.477,0.143-2.433,2.169
			c0.72-1.768,1.741-0.51,1.497,0.762c-0.162,0.854-1.08,0.806-0.233,1.973c0.456,0.63,1.469,0.473,1.991,0.186
			C21.651,37.438,20.342,33.901,19.17,33.262z"/>
		<path style="clip-path:url(#SVGID_2_);fill:#91613C;" d="M41.891,29.108c2.209,0.221,4.061-0.42,7.375-0.125
			C48.06,27.452,43.557,27.393,41.891,29.108z"/>
		<path style="opacity:0.4;clip-path:url(#SVGID_2_);fill:#D14F2E;" d="M36.923,37.976c-0.753,0.006-1.052-0.312-1.578-0.026
			c-0.528,0.285,0.609,1.315,1.541,1.245c1.055-0.08,1.924-0.939,1.647-1.256C38.211,37.57,37.76,37.973,36.923,37.976z"/>
		<path style="opacity:0.2;clip-path:url(#SVGID_2_);fill:#C4170E;" d="M30.465,18.341c-2.27,0.408-4.441,1.112-6.326,2.054
			c-2.95,1.475-3.149,3.015-4.598,5.813c-0.731,1.415-2.489,2.833-0.819,4.333c-1.695,0.632-2.102,3.536-1.047,4.858
			c0.294,0.366,0.635,0.628,1.104,0.707c-0.389,0.723-0.609,1.677-0.245,2.489c0.414,0.924,1.146,1.751,2.074,1.584
			c0.022,0.736,0.348,2.043,0.818,2.656c1.164,1.509,3.264,2.082,4.599,0.946c1.28-1.094,1.126-2.651-0.493-3.335
			c-0.152,0.468-0.711,0.967-1.205,0.591c-0.621-0.477,0.216-2.043,0.206-2.68c-0.028-1.697-1.08-1.046-2.038-1.941
			c0.501-0.469,1.209-1.019,1.196-1.851c-0.014-1.036-0.729-1.181-1.352-1.714c-1.039-0.894-0.722-0.733-0.152-1.67
			c0.704-1.159,1.156-2.675-0.248-3.579c0.681-0.063,1.381-0.367,1.496-1.103c1.204,0.65,2.631-0.614,3.024-1.701
			c-0.119,0.332,1.339-0.29,1.431-0.357c0.5-0.367,0.893-1.165,1.104-1.719c0.095,1.521,1.657,2.555,2.892,1.37
			c0.776,1.887,2.373,1.842,4.127,1.425c0.594,2.167-1.239,1.264-1.864,2.342c-1.042,1.791,2.659,2.599,3.658,2.251
			c1.162-0.407,1.81-1.672,1.759-2.858c0.129,1.409,2.153,0.767,2.885,0.244c0.414,1.98,2.243,2.403,3.691,1.069
			c0.229,3.262,4.489,3.238,3.664-0.568C47.896,19.209,38.565,16.883,30.465,18.341z"/>
		<path style="clip-path:url(#SVGID_2_);fill:#FCCB68;" d="M50.943,14.922c1.839-3.783-5.625-6.729-8.483-4.685
			c-0.414-4.678-6.304-4.99-9.14-1.695c-1.026-1.696-3.365-2.122-3.719-2.185c-1.609-0.28-3.387,0.037-4.45,1.263
			c1.569-0.007,4.206,3.033-0.514,2.565c-1.959-0.195-3.114-0.948-5.079,0.098c-1.592,0.848-2.674,2.343-1.188,3.815
			c-0.017,0.016-3.503-0.223-4.05,2.929c-0.224,1.294,0.304,1.618-0.994,2.581c-0.876,0.648-1.79,1.032-2.921,0.667
			c-0.019,1.275,1.16,2.903,1.764,3.346c1.213,0.883,2.55,0.757,3.857,0.128c-0.136,0.799,2.207,7.599,3.261,6.887
			c-1.735,1.174-2.489,3.557-0.791,4.671c0.268,0.176,0.596,0.32,0.99,0.42c-2.625,0.952-0.57,4.865,2.025,3.603
			c-2.26,2.655,4.397,5.819,4.558,2.611c0.044-0.859-0.545-1.811-1.404-1.997c0.439,0.094,0.596,2.059-0.57,1.559
			c-1.725-0.738,1.305-3.083-0.267-4.062c-0.771-0.479-3.047,0.028-2.194-1.397c0.606-1.015,1.909-1.536,0.364-2.785
			c-0.458-0.371-1.26-0.421-1.297-1.135c-0.037-0.674,0.794-0.969,1.106-1.4c1.094-1.518-0.578-3.328-1.956-3.891
			c0.887-0.045,3.396,0.404,3.117-1.28c1.385,1.221,3.433-0.475,2.887-2.112c0.248,0.744,1.583,0.51,2.025,0.211
			c0.83-0.557,0.76-1.646,1.188-2.46c0.165,0.891,0.347,1.78,1.195,2.241c0.851,0.463,1.781,0.315,2.242-0.562
			c0.513,1.822,2.297,3.311,3.898,1.492c0.353,0.698,0.556,1.691,0.047,2.365c-0.769,1.019-1.771-0.057-2.421,0.423
			c-0.812,0.601,0.654,1.889,1.192,2.064c1.051,0.34,2.563-0.183,3.21-1.071c0.528-0.722,0.399-1.562,0.446-2.397
			c0.875,1.437,2.352,2.401,3.827,0.92c1.058,1.35,2.108,1.997,3.64,0.676c0.726,1.22,0.588,2.856,2.346,3.121
			c2.042,0.308,1.938-2.057,1.58-3.424c-0.451-1.719-1.061-5.067,0.93-6.562c1.236-0.924,3.054-0.315,2.475,1.298
			c1.784-1.137,1.978-2.794,1.214-4.444C54.38,16.228,52.768,15.147,50.943,14.922z"/>
		<path style="clip-path:url(#SVGID_2_);fill:#FFF9F0;" d="M19.548,40.463c-0.716,0.015-1.295,0.612-1.291,1.326
			c0.004,0.717,0.588,1.287,1.305,1.271c0.717-0.016,1.293-0.61,1.291-1.326C20.849,41.017,20.265,40.447,19.548,40.463z"/>
		<path style="clip-path:url(#SVGID_2_);fill:#91613C;" d="M22.177,28.514c4.145,0.124,5.542,0.314,8.421,0.26
			C29.097,26.82,24.016,26.924,22.177,28.514z"/>
		<path style="clip-path:url(#SVGID_2_);fill:#305D80;" d="M27.042,30.654c-2.179-0.834-3.318,3.183-1.801,4.384
			c0.665-0.243,1.47-0.215,2.118,0.068C28.748,34.253,28.662,31.276,27.042,30.654z"/>
		<path style="clip-path:url(#SVGID_2_);fill:#86BAE3;" d="M26.478,32.446c-0.905,0.131-0.578,1.98,0.366,1.52
			C27.527,33.633,27.283,32.328,26.478,32.446z"/>
		<path style="clip-path:url(#SVGID_2_);fill:#305D80;" d="M46.25,30.814c-2.183-1.409-4.14,3.701-1.705,4.452
			c0.589-0.401,1.297-0.398,1.924-0.296C47.313,33.885,47.419,31.57,46.25,30.814z"/>
		<path style="clip-path:url(#SVGID_2_);fill:#86BAE3;" d="M45.22,32.361c-0.864,0.018-0.752,1.937,0.185,1.59
			C46.081,33.702,45.987,32.349,45.22,32.361z"/>
		<path style="clip-path:url(#SVGID_2_);fill:#121B21;" d="M46.312,30.705c-2.002-0.785-2.677,1.594-2.677,1.594
			s0.981-1.195,2.345-0.426c3.092,1.748,5.104-0.342,5.104-0.342C48.618,32.344,47.386,31.129,46.312,30.705z"/>
		<path style="clip-path:url(#SVGID_2_);fill:#121B21;" d="M25.579,30.754c-0.805,0.404-2.675,1.617-5.143,0.881
			c0,0,2.345,2.061,5.344,0.23c1.315-0.807,2.432,0.199,2.432,0.199S27.681,29.703,25.579,30.754z"/>
		<path style="clip-path:url(#SVGID_2_);fill:#FFE496;" d="M29.274,13.186c0.001,0.009,0.001,0.018,0.002,0.026
			c0-0.009,0.001-0.017,0.002-0.025C29.284,13.118,29.275,13.119,29.274,13.186z"/>
		<path style="clip-path:url(#SVGID_2_);fill:#FFE496;" d="M50.1,24.095c-0.038-0.954,0.024-1.517-0.195-2.52
			c-0.289-1.319-1.049-1.672-2.274-1.634c1.451-2.126,4.157-2.463,5.875-0.667c0.672-2.354-2.189-4.462-4.513-3.87
			c0.494-1.366,0.909-3.053-0.438-4.125c-1.441-1.146-3.763-1.264-5.307-0.338c-1.279,0.77-2.715,2.301-4.522,1.162
			c1.072,0.676,3.682-2.979,0.628-4.314c-1.903-0.829-3.563,0.231-4.864,1.492c-0.406,0.393-0.822,0.828-1.044,1.344
			c-1.288-2.475-3.267-3.991-6.421-3.261c2.39,0.055,3.364,3.782,1.206,4.814c-1.256,0.601-2.401-0.732-3.408-1.194
			c-0.941-0.432-2.382-0.605-3.405-0.338c-0.96,0.252-2.209,1.159-2.593,2.054c1.711-0.209,2.668,3.151,6.41,2.118
			c-1.582,1.306-3.294,1.418-4.707,0.748c-0.952-0.452-2.186-0.847-3.281-0.255c-1.592,0.859-1.204,3.081-1.995,4.447
			c-0.714,1.233-1.388,1.378-2.677,1.739c1.362,0.899,2.137,0.992,3.811,0.835c-1.132,0.105-1.802,1.689-1.904,2.56
			c-0.134,1.136,0.845,2.032,0.669,3.082c-0.144,0.888-1.36,1.464-2.189,1.429c0.558,0.626,1.442,0.648,2.212,0.388
			c0.962-0.325,1.178-1.581,1.97-1.749c1.084-0.229,2.197,1.595,2.172,2.427c1.632-0.773-0.277-3.293-1.228-4.029
			c1.068,0.016,4.007-0.097,3.816-1.598c0.116,0.906,2.065,0.017,2.319-0.471c0.353-0.678,0.189-1.731-0.499-2.173
			c0.603,0.087,1.721,0.673,2.197,0.116c0.404-0.474-0.069-1.592-0.329-2.022c4.875,1.916,3.512-3.146,0.517-3.093
			c2.269-0.172,2.876-0.51,3.169-3.987c-0.001-0.009-0.001-0.018-0.002-0.026c0.001-0.066,0.01-0.067,0.004,0.001
			c-0.001,0.009-0.002,0.017-0.002,0.025c0.152,2.021-0.399,4.047,3.026,3.748c-4.952,1.716-3.019,5.718,1.916,4.594
			c-0.749,0.173-0.812,1.583,0.306,2.396c0.688,0.502,2.171,0.23,2.45-0.129c0.867,1.354,1.132,2.537,0.078,3.72
			c1.187,0.074,1.64-1.688,1.822-2.546c0.892,0.545,1.697,1.375,2.813,0.942c0.844-0.327,1.301-1.239,1.85-1.878
			c0.001,1.484,0.557,2.595,1.455,2.793c1.08,0.242,1.929-0.127,2.72-0.934c-0.089,1.244,0.479,2.354,1.138,2.999
			c0.622,0.613,2.059,1.448,3.331,0.554c-0.547-0.003-0.984-0.273-1.21-0.739c2.081-0.189,3.716-1.283,3.547-3.422
			C53.089,25.951,50.181,26.27,50.1,24.095z"/>
		<path style="clip-path:url(#SVGID_2_);fill:#FCCB68;" d="M41.097,21.156c0.915,3.319,3.756,4.228,5.472,1.53
			C44.783,24.263,41.886,22.898,41.097,21.156z"/>
		<path style="clip-path:url(#SVGID_2_);fill:#FCCB68;" d="M19.057,24.74c2.002,1.705,4.408,0.099,3.415-2.35
			C22.239,23.979,20.287,25.221,19.057,24.74z"/>
		<path style="clip-path:url(#SVGID_2_);fill:#FCCB68;" d="M46.743,23.885c-1.238,2.262,1.009,4.072,3.256,2.546
			C48.318,26.616,46.562,25.134,46.743,23.885z"/>
		<path style="clip-path:url(#SVGID_2_);fill:#FCCB68;" d="M43.996,18.598c1.497,1.755,3.423,2.138,5.671,1.277l-0.078-1.521
			C48.201,19.054,46.087,19.396,43.996,18.598z"/>
		<path style="clip-path:url(#SVGID_2_);fill:#FCCB68;" d="M45.096,14.169c1.498,1.757,2.896,1.644,4.323,1.157l0.264-1.72
			C48.676,14.445,46.588,15.023,45.096,14.169z"/>
		<path style="clip-path:url(#SVGID_2_);fill:#FCCB68;" d="M14.188,22.391l0.457,1.494c2.422,0.069,4.088-0.923,4.851-3.061
			C17.827,22.26,15.742,22.591,14.188,22.391z"/>
		<path style="clip-path:url(#SVGID_2_);fill:#FFE085;" d="M10.968,28.82l-0.052-0.98c-1.037,1.12-1.79,2.39-1.045,3.783
			c0.488,0.914,1.854,1.897,2.965,1.123c0.447-0.313,0.595-1.137,0.696-1.612c-0.021-0.018-0.042-0.037-0.063-0.055
			C12.102,31.22,10.648,30.147,10.968,28.82z"/>
		<path style="clip-path:url(#SVGID_2_);fill:#FFE085;" d="M12.406,34.166l-0.828,0.484c-1.978,0.031-3,3.295-2.154,4.703
			c0.515,0.862,1.6,1.47,2.625,1.665c-0.707-1.104-1.368-2.421-1.017-3.734C11.33,36.173,12.366,35.361,12.406,34.166z"/>
		<path style="clip-path:url(#SVGID_2_);fill:#FFE085;" d="M54.951,30.578c-0.519-0.361-1.119-0.617-1.758-0.738l-0.003,0.327
			c1.743,2.265,1.402,3.967,0.396,6.266c0.003-0.002,0.09,0.083,0.092,0.06C56.137,35.508,57.328,32.223,54.951,30.578z"/>
		<path style="clip-path:url(#SVGID_2_);fill:#FFE085;" d="M53.668,38.503l-0.821-0.225c-0.37,1.923,2.056,1.487,2.333,2.905
			C55.605,40.006,55.413,38.422,53.668,38.503z"/>
		<path style="clip-path:url(#SVGID_2_);fill:#FFE085;" d="M12.702,43.479c-1.014,0.977-0.891,3.104,0.167,4.069
			c0.049-0.617,0.452-1.097,0.456-1.724c0.001-0.579-0.413-1.038-0.335-1.689L12.702,43.479z"/>
		<path style="opacity:0.8;clip-path:url(#SVGID_2_);fill:#F03F2B;" d="M36.953,41.221c-2.967-0.053-7.354,0.544-9.617-0.75
			c3.553,5.927,5.888,7.095,8.913,7.406c3.793,0.389,5.229-1.906,5.909-3.646c0.286-0.737,2.326-2.571,3.099-2.972
			C42.855,41.662,40.537,41.282,36.953,41.221z"/>
		<path style="clip-path:url(#SVGID_2_);fill:#8F1C18;" d="M29.067,41.555c0,0,2.112,3.974,6.84,4.281
			c3.03,0.199,5.08-0.617,5.72-1.9c0.701-1.404,2.022-1.86,2.022-1.86C35.284,43.541,29.067,41.555,29.067,41.555z"/>
		<path style="clip-path:url(#SVGID_2_);fill:#FFF9F0;" d="M30.806,41.979c0,0,0.072,1.177,1.733,1.707
			c2.125,0.682,4.451,0.824,6.87,0.596c1.632-0.153,2.537-1.951,2.537-1.951S37.261,43.127,30.806,41.979z"/>
		<path style="clip-path:url(#SVGID_2_);fill:#FFF9F0;" d="M37.204,44.332c-2.171-0.027-3.961-0.246-5.007-0.936
			c-0.746-0.491-0.846-0.005-0.696,0.307c0,0,0.604,1.638,4.176,2.175c3.432,0.515,5.334-1.313,4.959-1.663
			C40.264,43.865,39.214,44.359,37.204,44.332z"/>
		<path style="clip-path:url(#SVGID_2_);fill:#E8DAC5;" d="M30.806,41.979c0,0,0.09,0.55,0.381,0.844c0,0,8.138-0.248,10.036,0.497
			c0,0,0.607-0.618,0.724-0.989C41.946,42.331,36.229,43.021,30.806,41.979z"/>
		<path style="clip-path:url(#SVGID_2_);fill:#E8DAC5;" d="M32.827,43.662c2.81,1.735,6.368,0.555,6.368,0.555
			C35.492,44.806,32.827,43.662,32.827,43.662z"/>
		<path style="opacity:0.2;clip-path:url(#SVGID_2_);fill:#D14F2E;" d="M46.673,39.012c-1.933-0.111-5.015-0.381-6.561-1.751
			c-0.69-0.609-0.899-1.717-1.111-2.566c-0.267-1.09-0.151-2.288-1.654-2.167c-1.247,0.102-2.199,1.025-2.547,2.195
			c-0.55,1.86-1.254,2.608-2.925,3.502c-1.533,0.82-3.145,1.158-4.874,1.221c-2.404,0.083-4.37-0.655-6.041-2.488
			c-1.039-1.14-1.198-2.83-1.531-4.271c-0.214-0.925-0.24-2.081-0.852-2.858c-0.748-0.946-1.569-0.082-1.858,0.78
			c-0.652,1.938,0.509,4.434,1.218,6.188c0.678,1.674,1.229,2.954,2.962,3.814c1.596,0.795,3.622,1.166,5.311,0.454
			c0.999-0.42,1.725-0.604,2.81-0.719c3.195-0.338,5.309-1.533,6.319-3.781c0.618-1.372,0.491-2.818,1.525-2.843
			c0.704-0.019,0.608,0.765,0.85,1.568c0.854,2.856,2.717,4.1,7.117,5.399c0.897,0.267,2.167,0.552,2.553,1.531
			c0.304-0.413,0.568-0.875,0.757-1.333c0.186-0.449,0.626-1.069,0.737-1.504c0.071-0.282,0.257-0.55,0.28-0.843
			C48.425,38.975,47.508,39.06,46.673,39.012z"/>
		<linearGradient id="SVGID_3_" gradientUnits="userSpaceOnUse" x1="35.3984" y1="33.1143" x2="38.5352" y2="33.1143">
			<stop  offset="0" style="stop-color:#B89377"/>
			<stop  offset="0.139" style="stop-color:#C59E83"/>
			<stop  offset="0.4374" style="stop-color:#DAB297"/>
			<stop  offset="0.728" style="stop-color:#E7BDA3"/>
			<stop  offset="1" style="stop-color:#EBC1A7"/>
		</linearGradient>
		<path style="clip-path:url(#SVGID_2_);fill:url(#SVGID_3_);" d="M37.005,31.934c0,0-0.819-0.049-1.198,0.195
			c-0.229,0.147-0.807,1.568,0.03,2.121c0.263-0.736,0.745-0.807,1.126-0.799c0.378,0.011,0.858,0.104,1.078,0.848
			c0.87-0.513,0.371-1.948,0.152-2.106C37.825,31.928,37.005,31.934,37.005,31.934z"/>
		<linearGradient id="SVGID_4_" gradientUnits="userSpaceOnUse" x1="16.6958" y1="34.4951" x2="16.6958" y2="29.8156">
			<stop  offset="0" style="stop-color:#B89377"/>
			<stop  offset="0.139" style="stop-color:#C59E83"/>
			<stop  offset="0.4374" style="stop-color:#DAB297"/>
			<stop  offset="0.728" style="stop-color:#E7BDA3"/>
			<stop  offset="1" style="stop-color:#EBC1A7"/>
		</linearGradient>
		<path style="clip-path:url(#SVGID_2_);fill:url(#SVGID_4_);" d="M16.104,30.936C15.73,31,15.491,31.356,15.61,31.664
			c0.155,0.409,0.711,1.854,0.84,2.192c0.13,0.339,0.84,0.338,1.362,0.295l-0.786-3.304C16.93,30.855,16.23,30.913,16.104,30.936z"
			/>
		<linearGradient id="SVGID_5_" gradientUnits="userSpaceOnUse" x1="16.5972" y1="34.2334" x2="16.5972" y2="30.0291">
			<stop  offset="0" style="stop-color:#F2EBE6"/>
			<stop  offset="0.2029" style="stop-color:#F9F5F3"/>
			<stop  offset="0.4777" style="stop-color:#FDFDFC"/>
			<stop  offset="0.8548" style="stop-color:#FFFFFF"/>
		</linearGradient>
		<path style="opacity:0.6;clip-path:url(#SVGID_2_);fill:url(#SVGID_5_);" d="M15.988,31.02c-0.347,0.052-0.556,0.364-0.438,0.644
			c0.161,0.371,0.721,1.677,0.853,1.981c0.132,0.306,0.791,0.316,1.273,0.287l-0.835-2.975
			C16.753,30.963,16.104,31.003,15.988,31.02z"/>
		<linearGradient id="SVGID_6_" gradientUnits="userSpaceOnUse" x1="26.2212" y1="40.1875" x2="26.2212" y2="24.377">
			<stop  offset="0" style="stop-color:#B89377"/>
			<stop  offset="0.139" style="stop-color:#C59E83"/>
			<stop  offset="0.4374" style="stop-color:#DAB297"/>
			<stop  offset="0.728" style="stop-color:#E7BDA3"/>
			<stop  offset="1" style="stop-color:#EBC1A7"/>
		</linearGradient>
		<path style="clip-path:url(#SVGID_2_);fill:url(#SVGID_6_);" d="M18.599,25.301c-4.644,2.56-0.682,12.615,3.294,14.286
			c3.905,1.62,10.901-0.281,12.974-2.813c1.821-2.19,1.322-6.628-1.478-9.089C30.493,25.127,23.266,22.785,18.599,25.301z
			 M33.209,36.387c-1.673,1.773-6.979,2.732-9.802,1.251c-2.869-1.522-5.27-9.286-1.676-10.91c3.603-1.602,9.572,1.114,11.104,2.711
			C34.315,30.985,34.675,34.846,33.209,36.387z"/>
		<linearGradient id="SVGID_7_" gradientUnits="userSpaceOnUse" x1="26.0425" y1="39.9443" x2="26.0425" y2="24.0268">
			<stop  offset="0" style="stop-color:#F2EBE6"/>
			<stop  offset="0.3776" style="stop-color:#F9F5F3"/>
			<stop  offset="0.7957" style="stop-color:#FFFDFD"/>
		</linearGradient>
		<path style="clip-path:url(#SVGID_2_);fill:url(#SVGID_7_);" d="M33.249,27.487c-2.327-2.075-6.889-3.74-11.416-3.451
			c-1.381,0.089-2.575,0.399-3.545,0.933c-2.137,1.178-2.118,3.933-1.919,5.471c0.495,3.802,2.981,8.014,5.315,9.004
			c1.274,0.537,2.964,0.721,4.892,0.532c0,0,0,0,0.002-0.002c3.428-0.335,6.868-1.754,8.185-3.368
			C36.6,34.374,35.94,29.876,33.249,27.487z M33.443,36.522c-0.959,1.011-3.058,1.809-5.349,2.028
			c-1.928,0.184-3.666-0.068-4.905-0.719c-1.824-0.962-3.508-4.25-3.668-7.176c-0.117-2.104,0.587-3.607,1.979-4.23
			c0.622-0.278,1.339-0.444,2.133-0.499c3.54-0.24,8.021,1.826,9.429,3.291C34.597,30.813,35.047,34.848,33.443,36.522z"/>
		<linearGradient id="SVGID_8_" gradientUnits="userSpaceOnUse" x1="27.0308" y1="38.5908" x2="27.0308" y2="26.1427">
			<stop  offset="0" style="stop-color:#D63600"/>
			<stop  offset="0.1431" style="stop-color:#D53000"/>
			<stop  offset="0.6128" style="stop-color:#D22100"/>
			<stop  offset="1" style="stop-color:#D11C00"/>
		</linearGradient>
		<path style="opacity:0.45;clip-path:url(#SVGID_2_);fill:url(#SVGID_8_);" d="M21.535,26.526
			c-3.725,1.681-1.235,9.735,1.74,11.311c2.924,1.535,8.42,0.538,10.153-1.302c1.52-1.595,1.151-5.593-0.386-7.195
			C31.458,27.685,25.271,24.868,21.535,26.526z"/>
		<path style="opacity:0.5;clip-path:url(#SVGID_2_);fill:#FFFFFF;" d="M32.679,29.445c-1.481-1.518-7.271-4.089-10.775-2.551
			c-1.651,0.729-2.01,2.765-1.632,4.865c0.421,2.347,13.894,1.054,13.346-0.639C33.402,30.453,33.085,29.862,32.679,29.445z"/>
		<path style="clip-path:url(#SVGID_2_);fill:#FFFFFF;" d="M21.913,26.825c-2.279,1.044-2.074,4.675-0.881,7.496
			c-1.138-2.798-0.524-5.31,1.714-6.335c3.509-1.584,8.546,0.093,10.038,1.675c0.295,0.311,0.543,0.721,0.74,1.185
			c-0.206-0.523-0.475-0.986-0.801-1.332C31.231,27.932,25.42,25.242,21.913,26.825z"/>
		<linearGradient id="SVGID_9_" gradientUnits="userSpaceOnUse" x1="46.8027" y1="39.9639" x2="46.8027" y2="25.0596">
			<stop  offset="0" style="stop-color:#B89377"/>
			<stop  offset="0.139" style="stop-color:#C59E83"/>
			<stop  offset="0.4374" style="stop-color:#DAB297"/>
			<stop  offset="0.728" style="stop-color:#E7BDA3"/>
			<stop  offset="1" style="stop-color:#EBC1A7"/>
		</linearGradient>
		<path style="clip-path:url(#SVGID_2_);fill:url(#SVGID_9_);" d="M53.982,26.227c-4.171-2.659-10.843-0.831-13.583,1.548
			c-2.661,2.349-3.294,6.752-1.706,8.924c1.813,2.466,8.194,4.223,11.842,2.694C54.237,37.877,58.144,28.842,53.982,26.227z
			 M49.384,37.602c-2.644,1.381-7.494,0.472-8.968-1.255c-1.29-1.521-0.811-5.319,0.605-6.796c1.459-1.509,7.006-3.844,10.241-2.128
			C54.492,29.115,52.063,36.219,49.384,37.602z"/>
		<linearGradient id="SVGID_10_" gradientUnits="userSpaceOnUse" x1="46.9199" y1="39.7158" x2="46.9199" y2="24.7105">
			<stop  offset="0" style="stop-color:#F2EBE6"/>
			<stop  offset="0.3776" style="stop-color:#F9F5F3"/>
			<stop  offset="0.7957" style="stop-color:#FFFDFD"/>
		</linearGradient>
		<path style="clip-path:url(#SVGID_2_);fill:url(#SVGID_10_);" d="M54.186,25.9c-0.864-0.554-1.937-0.922-3.188-1.09
			c-4.098-0.548-8.298,0.818-10.489,2.753c-2.547,2.277-3.325,6.739-1.727,8.954c1.145,1.578,4.248,2.935,7.381,3.234
			c1.763,0.168,3.318-0.008,4.499-0.507c2.166-0.904,4.555-4.729,5.111-8.193C55.997,29.648,56.091,27.115,54.186,25.9z
			 M53.158,31.17c-0.232,2.689-1.863,5.692-3.558,6.567c-1.147,0.6-2.744,0.835-4.496,0.661c-2.085-0.205-3.972-0.971-4.81-1.955
			c-1.396-1.646-0.832-5.604,0.626-7.123c1.332-1.379,5.468-3.173,8.663-2.757c0.715,0.094,1.359,0.29,1.914,0.584
			C52.737,27.8,53.329,29.229,53.158,31.17z"/>
		<linearGradient id="SVGID_11_" gradientUnits="userSpaceOnUse" x1="46.2383" y1="38.4873" x2="46.2383" y2="26.7312">
			<stop  offset="0" style="stop-color:#D63600"/>
			<stop  offset="0.1431" style="stop-color:#D53000"/>
			<stop  offset="0.6128" style="stop-color:#D22100"/>
			<stop  offset="1" style="stop-color:#D11C00"/>
		</linearGradient>
		<path style="opacity:0.45;clip-path:url(#SVGID_2_);fill:url(#SVGID_11_);" d="M51.447,27.243
			c-3.352-1.779-9.101,0.639-10.613,2.203c-1.47,1.531-1.962,5.472-0.625,7.046c1.525,1.79,6.552,2.729,9.292,1.298
			C52.279,36.358,54.795,29,51.447,27.243z"/>
		<path style="opacity:0.5;clip-path:url(#SVGID_2_);fill:#FFFFFF;" d="M51.385,27.583c-3.101-1.613-8.4,0.552-9.791,1.96
			c-0.383,0.387-0.693,0.948-0.912,1.588c-0.558,1.624,11.569,3.108,12.021,0.98C53.105,30.212,52.847,28.337,51.385,27.583z"/>
		<path style="clip-path:url(#SVGID_2_);fill:#FFFFFF;" d="M51.378,27.521c-3.099-1.66-8.424,0.618-9.827,2.084
			c-0.308,0.324-0.568,0.763-0.776,1.264c0.197-0.443,0.438-0.831,0.716-1.125c1.404-1.468,6.021-3.069,9.121-1.41
			c1.981,1.051,2.44,3.575,1.328,6.095C53.102,31.89,53.395,28.589,51.378,27.521z"/>
		<linearGradient id="SVGID_12_" gradientUnits="userSpaceOnUse" x1="36.9131" y1="38.832" x2="36.9131" y2="23.4961">
			<stop  offset="0" style="stop-color:#F2EBE6"/>
			<stop  offset="0.3776" style="stop-color:#F9F5F3"/>
			<stop  offset="0.7957" style="stop-color:#FFFDFD"/>
		</linearGradient>
		<path style="clip-path:url(#SVGID_2_);fill:url(#SVGID_12_);" d="M38.093,32.175c-0.354-0.199-1.142-0.194-1.142-0.194
			s-0.789-0.036-1.155,0.151c-0.219,0.112-0.775,1.192,0.033,1.613c0.252-0.56,0.715-0.615,1.081-0.608
			c0.364,0.006,0.824,0.075,1.038,0.643C38.782,33.388,38.302,32.295,38.093,32.175z"/>
	</g>
</g>
<g id="Layer_1">
</g>
</svg>
