<?xml version="1.0" encoding="iso-8859-1"?>
<!-- Generator: Adobe Illustrator 16.0.0, SVG Export Plug-In . SVG Version: 6.00 Build 0)  -->
<!DOCTYPE svg PUBLIC "-//W3C//DTD SVG 1.1//EN" "http://www.w3.org/Graphics/SVG/1.1/DTD/svg11.dtd">
<svg version="1.1" xmlns="http://www.w3.org/2000/svg" xmlns:xlink="http://www.w3.org/1999/xlink" x="0px" y="0px"
	 width="66.005px" height="66px" viewBox="0 0 66.005 66" style="enable-background:new 0 0 66.005 66;" xml:space="preserve">
<g id="Layer_58">
	<g>
		<defs>
			<circle id="SVGID_1_" cx="33.005" cy="33" r="33"/>
		</defs>
		<clipPath id="SVGID_2_">
			<use xlink:href="#SVGID_1_"  style="overflow:visible;"/>
		</clipPath>
		<rect style="clip-path:url(#SVGID_2_);fill:#DDD3C7;" width="66" height="66"/>
		<path style="clip-path:url(#SVGID_2_);fill:#3A3A4A;" d="M26.32,55.08c-2.507,1.129-4.025,5.039-4.478,10.918L27.705,66
			c0.177-3.041,0.484-6.398,1.216-7.164L26.32,55.08z"/>
		<path style="clip-path:url(#SVGID_2_);fill:#3A3A4A;" d="M41.551,55.08l-2.602,3.756c0.732,0.766,1.04,4.123,1.217,7.164
			l5.861-0.002C45.576,60.119,44.058,56.209,41.551,55.08z"/>
		<path style="clip-path:url(#SVGID_2_);fill:#3A3A4A;" d="M41.881,61.574c0.004-2.129,0.488-3.807,1.082-5.01
			c0.152-0.313-0.971-2.93-9.212-2.885c-7.998,0.041-8.97,2.736-8.863,3.043c0.403,1.168,0.818,3.168,0.828,4.895
			c0.01,1.632,0.093,3.08,0.177,4.383h15.814C41.797,64.688,41.879,63.226,41.881,61.574z"/>
		<path style="clip-path:url(#SVGID_2_);fill:#F5B28C;" d="M29.049,54.502c-1.583,2.801,4.741,5.934,4.741,5.934
			s5.589-2.928,4.991-5.463C38.07,51.973,30.472,51.982,29.049,54.502z"/>
		<path style="clip-path:url(#SVGID_2_);fill:#F5B28C;" d="M33.811,48.813c-1.854-0.006-4.468,1.162-4.652,4.227
			c-0.088,1.426,0.109,2.252,0.794,3.043c1.096,1.266,2.452,2.293,3.858,2.322c1.403-0.029,2.76-1.057,3.855-2.322
			c0.686-0.791,0.883-1.617,0.797-3.043C38.275,49.975,35.664,48.807,33.811,48.813z"/>
		<path style="clip-path:url(#SVGID_2_);fill:#E0E0E0;" d="M33.765,62.02c-0.441,0-0.797,0.355-0.797,0.795
			c0,0.438,0.355,0.795,0.797,0.795c0.437,0,0.794-0.357,0.794-0.795C34.559,62.375,34.201,62.02,33.765,62.02z"/>
		<path style="clip-path:url(#SVGID_2_);fill:#2B221C;" d="M45.438,11.897c-5.082-5.578-13.525-6.175-23.069-2.046
			c0.875,0.061,2.661,0.23,4.955-0.204c-5.011,2.308-10.936,5.347-12.229,11.247c-1.479,6.741-0.204,14.639,3.555,15.112
			c3.224,0.406,7.167-6.708,9.368-6.079c4.639,1.325,16.179-0.172,19.409-4.977c1.455-2.163,1.537-5.421,0.705-8.295
			C47.586,14.763,46.555,13.124,45.438,11.897z"/>
		<path style="clip-path:url(#SVGID_2_);fill:#FFCB9E;" d="M30.283,15.085c-7.835,1.528-13.356,12.795-11.918,23.364
			c1.078,7.918,7.184,16.604,16.383,15.949C44.131,53.73,48.801,42.09,47.59,32.355C46.271,21.77,41.258,12.946,30.283,15.085z"/>
		<path style="opacity:0.3;clip-path:url(#SVGID_2_);fill:#BF3C1B;" d="M40.613,17.008c-3.031-0.881-6.164-1.369-9.328-1.424
			c-2.81-0.048-5.859-0.2-8.477,0.95c-1.438,0.633-3.204,1.498-3.743,3.045c-0.44,1.266-0.963,2.943-0.257,4.052
			c1.497,2.354,4.422,0.945,5.528,0.371c2.405-1.246,13.333-0.396,18.433-0.404c2.117-0.003,5.178-0.372,4.299-3.232
			C46.377,18.107,42.613,17.589,40.613,17.008z"/>
		<path style="clip-path:url(#SVGID_2_);fill:#FFCB9E;" d="M15.632,34.047c-3.849,1.061-2.305,6.678,0.838,7.805
			c1.008,0.361,2.078,0.412,3.108,0.338c0.02-0.031,0.041-0.063,0.062-0.096c0.461-0.73-0.184-4.824-0.419-5.596
			C18.629,34.557,17.478,33.539,15.632,34.047z"/>
		<path style="opacity:0.3;clip-path:url(#SVGID_2_);fill:#C94614;" d="M16.981,36.115c-0.865-0.398-3.023,0.318-2.009,2.01
			c0.536-1.566,1.49-0.539,1.345,0.574c-0.098,0.748-0.901,0.758-0.104,1.717c0.433,0.52,1.307,0.326,1.748,0.049
			C19.361,39.582,18.036,36.602,16.981,36.115z"/>
		<path style="clip-path:url(#SVGID_2_);fill:#2B221C;" d="M42.6,12.064c-5.921-3.104-15.02-2.295-19.994,1.398
			c-5.075,3.768-6.369,10.506-6.37,16.528c-0.001,2.073,0.521,3.523,2.106,4.884c1.831,1.572,1.665-3.192,1.834-5.008
			c0.378-4.057,2.041-7.342,6.488-7.504c2.975-0.109,14.617-0.658,17.352,0.277c1.5,0.515,3.49,1.292,3.791-1.093
			c0.328-2.607-0.371-5.318-2.16-7.216C44.787,13.421,43.754,12.668,42.6,12.064z"/>
		<path style="clip-path:url(#SVGID_2_);fill:#45362E;" d="M43.955,13.06c-2.238-2.13-5.371-3.764-8.396-4.045
			c-1.578-0.147-4.747-0.087-6.253,0.577c0.501,0.275,1.805,0.563,2.24,0.914c-2.186,0.509-4.28,1.136-6.341,2.069
			c-0.631,0.286-5.806,3.801-5.804,3.802c1.439,0.782,3.135,0.49,4.687,0.145c2.372-0.528,4.717-0.738,7.103-0.194
			c2.216,0.504,4.208,1.609,6.405,2.122c0.066-0.992-0.883-1.859-1.305-2.533c1.258-0.021,6.078,3.028,7.066,3.832
			c-0.238-0.846-1.408-2.63-1.535-3.531c1.229,0.183,4.016,2.666,4.861,4.101c0.088-1.133-0.021-2.606-0.33-3.597
			C45.895,15.258,45.055,14.108,43.955,13.06z"/>
		<path style="clip-path:url(#SVGID_2_);fill:#F7A286;" d="M41.43,41.621c-1.695,0.168-3.58,0.23-5.975,0.355
			c-2.21,0.117-5.121,0.48-7.566,0.318c-1.138-0.074-1.859,0.863-1.337,1.48c3.385,4.012,5.589,4.35,8.474,4.438
			c4.168,0.125,5.764-1.793,6.357-3.695c0.115-0.367,0.611-1.008,1.193-1.641C43.264,42.127,42.506,41.514,41.43,41.621z"/>
		<path style="clip-path:url(#SVGID_2_);fill:#8F3935;" d="M26.877,42.668c0,0,2.642,4.063,7.823,4.033
			c3.321-0.02,5.489-1.043,6.079-2.457c0.645-1.545,2.047-2.131,2.047-2.131C33.826,44.307,26.877,42.668,26.877,42.668z"/>
		<path style="clip-path:url(#SVGID_2_);fill:#FFF9F0;" d="M28.809,42.988c0,0,0.182,1.244,2.034,1.682
			c2.375,0.564,4.925,0.539,7.546,0.113c1.766-0.287,2.602-2.266,2.602-2.266S35.947,43.715,28.809,42.988z"/>
		<path style="clip-path:url(#SVGID_2_);fill:#FFF9F0;" d="M35.986,45.004c-2.369,0.135-4.341,0.037-5.54-0.615
			c-0.855-0.465-0.923,0.059-0.734,0.381c0,0,0.799,1.691,4.739,1.992c3.789,0.289,5.709-1.799,5.27-2.143
			C39.283,44.275,38.182,44.879,35.986,45.004z"/>
		<path style="clip-path:url(#SVGID_2_);fill:#E8DAC5;" d="M28.809,42.988c0,0,0.144,0.576,0.487,0.867
			c0,0,8.854-0.881,10.987-0.232c0,0,0.611-0.703,0.707-1.105C40.99,42.518,34.813,43.684,28.809,42.988z"/>
		<path style="clip-path:url(#SVGID_2_);fill:#E8DAC5;" d="M31.157,44.623c3.211,1.631,6.991,0.104,6.991,0.104
			C34.16,45.637,31.157,44.623,31.157,44.623z"/>
		<path style="clip-path:url(#SVGID_2_);fill:#FFA073;" d="M46.135,36.965c-0.607-0.893-1.922-1.082-2.863-1.1
			c-1.229-0.025-2.867,0.4-1.785,2.164c0.576,0.939,5.465,1.678,4.912-0.48C46.34,37.326,46.252,37.133,46.135,36.965z"/>
		<path style="clip-path:url(#SVGID_2_);fill:#FFA073;" d="M27.796,36.725c-0.85-0.75-2.238-0.6-3.199-0.375
			c-1.255,0.295-2.809,1.154-1.251,2.664c0.83,0.807,5.991,0.285,4.866-1.762C28.097,37.041,27.955,36.867,27.796,36.725z"/>
		<path style="clip-path:url(#SVGID_2_);fill:#261B18;" d="M25.92,31.539c-2.02-0.869-3.29,2.713-1.912,3.883
			c0.642-0.189,1.4-0.119,1.999,0.172C27.362,34.891,27.422,32.187,25.92,31.539z"/>
		<path style="opacity:0.3;clip-path:url(#SVGID_2_);fill:#B54D26;" d="M35.518,37.984c-1.182,0.014-1.646-0.525-2.473-0.033
			c-0.826,0.49,0.354,2.063,2.443,1.988c2.08-0.074,2.984-1.504,2.551-2.037C37.535,37.283,36.826,37.969,35.518,37.984z"/>
		<path style="clip-path:url(#SVGID_2_);fill:#FFDFC2;" d="M35.209,33.549c-2.219-0.192-2.386,4.494-1.878,4.894
			c1.243,0.982,3.841,0.287,4.597-0.502C38.227,37.631,37.324,33.734,35.209,33.549z"/>
		<path style="clip-path:url(#SVGID_2_);fill:#261B18;" d="M45.363,31.402c-2.053-1.231-3.563,2.731-1.869,3.85
			c0.537-0.355,1.615-0.246,2.139-0.002C46.455,34.336,46.467,32.063,45.363,31.402z"/>
		<path style="opacity:0.7;clip-path:url(#SVGID_2_);fill:#E6D2C3;" d="M24.948,32.417c-0.819,0.278-0.195,1.873,0.604,1.293
			C26.129,33.291,25.678,32.17,24.948,32.417z"/>
		<path style="opacity:0.7;clip-path:url(#SVGID_2_);fill:#E6D2C3;" d="M44.309,32.086c-0.809,0.163-0.422,1.753,0.406,1.302
			C45.313,33.063,45.027,31.945,44.309,32.086z"/>
		<path style="clip-path:url(#SVGID_2_);fill:#2B221C;" d="M27.989,27.929c-1.427-0.621-3.366-0.97-4.796-0.697
			c-2.149,0.41-1.773,2.142-1.63,2.622c0.143,0.477,0.393-0.645,2.802-0.731c2.218-0.077,4.304,1.47,4.661,0.749
			C29.478,28.958,28.681,28.23,27.989,27.929z"/>
		<path style="clip-path:url(#SVGID_2_);fill:#2B221C;" d="M45.818,27.232c-1.43-0.272-3.367,0.076-4.795,0.697
			c-0.691,0.301-1.488,1.029-1.037,1.942c0.357,0.721,2.443-0.826,4.662-0.749c2.408,0.087,2.658,1.208,2.801,0.731
			C47.594,29.374,47.969,27.642,45.818,27.232z"/>
		<path style="clip-path:url(#SVGID_2_);fill:#2B221C;" d="M41.518,39.881c-2.131-1.494-3.342-0.828-5.889-0.523
			c-3.391,0.051-4.658-1.006-7.228,1.82c-1.205,1.324-4.297,1.85-6.011-0.162c0.538,5.053,8.266,4.434,10.193,1.824
			c0.805,0.879,2.871,0.385,3.315-0.666c0.722,0.768,2.917,2.314,3.786,0.803c0.41,0.42,0.965,0.689,1.521,0.861
			c2.48,0.764,5.289-0.502,5.521-3.26C44.451,42.018,43.564,41.316,41.518,39.881z"/>
		<path style="opacity:0.7;clip-path:url(#SVGID_2_);fill:#45362E;" d="M40.039,39.738c-1.182-0.521-2.465-0.252-3.689-0.078
			c-1.045,0.148-2.097,0.057-3.135-0.094c-0.761-0.111-1.6-0.139-2.266,0.309c-0.501,0.338-2.457,1.639-1.944,2.289
			c0.276,0.35,1.241,0.346,1.631,0.314c0.788-0.064,1.519-0.49,2.104-0.998c0.449,0.553,0.729,0.977,1.54,0.814
			c0.509-0.102,1.171-0.469,1.32-1c0.298,0.398,2.563,1.52,2.69,0.564c0.805,0.193,1.57,0.342,2.398,0.18
			c0.377-0.074,1.301-0.275,1.471-0.711c0.039-0.104,0.037-0.223-0.025-0.355C41.877,40.438,40.553,39.965,40.039,39.738z"/>
	</g>
</g>
<g id="Layer_1">
</g>
</svg>
