<?xml version="1.0" encoding="iso-8859-1"?>
<!-- Generator: Adobe Illustrator 16.0.0, SVG Export Plug-In . SVG Version: 6.00 Build 0)  -->
<!DOCTYPE svg PUBLIC "-//W3C//DTD SVG 1.1//EN" "http://www.w3.org/Graphics/SVG/1.1/DTD/svg11.dtd">
<svg version="1.1" xmlns="http://www.w3.org/2000/svg" xmlns:xlink="http://www.w3.org/1999/xlink" x="0px" y="0px"
	 width="66.013px" height="66.006px" viewBox="0 0 66.013 66.006" style="enable-background:new 0 0 66.013 66.006;"
	 xml:space="preserve">
<g id="Layer_7">
	<g>
		<defs>
			<circle id="SVGID_1_" cx="33.013" cy="33" r="33"/>
		</defs>
		<clipPath id="SVGID_2_">
			<use xlink:href="#SVGID_1_"  style="overflow:visible;"/>
		</clipPath>
		<rect style="clip-path:url(#SVGID_2_);fill:#2B6877;" width="66" height="66"/>
		<path id="XMLID_49_" style="clip-path:url(#SVGID_2_);fill:#FF9819;" d="M28.271,53.947c-4.118,1.598-7.894,5.721-8.028,12.053
			h5.466C25.306,62.267,29.696,53.393,28.271,53.947z"/>
		<path id="XMLID_45_" style="clip-path:url(#SVGID_2_);fill:#FF9819;" d="M40.084,53.947c4.118,1.598,7.894,5.721,8.028,12.053
			h-5.466C43.05,62.267,38.659,53.393,40.084,53.947z"/>
		<path style="clip-path:url(#SVGID_2_);fill:#FF9819;" d="M39.927,53.619c-2.599-2.516-8.819-1.564-11.175,0
			c-3.09,2.055-2.687,8.018-1.313,10.758c0.279,0.559,0.551,1.088,0.775,1.629L40.736,66c0.118-0.336,0.243-0.686,0.368-1.059
			C42.493,60.777,42.768,56.371,39.927,53.619z"/>
		<path style="clip-path:url(#SVGID_2_);fill:#FFC566;" d="M29.276,55.023C29.025,54.396,29,53.74,29.343,53.09
			c1.435-2.725,9.095-2.736,9.811,0.51c0.123,0.561-0.015,1.127-0.31,1.674C36.715,59.205,30.894,59.072,29.276,55.023z"/>
		<path style="opacity:0.3;clip-path:url(#SVGID_2_);fill:#FFFFFF;" d="M40.907,61.232c-0.594,2.611-3.794,3.402-6.59,3.443
			c-5.516,0.084-7.367-2.787-6.478-6.006c0.237-0.863,1.17-1.344,2.263-0.121c1.64,1.834,7.005,1.799,8.965-0.693
			C40.169,56.451,41.354,59.266,40.907,61.232z"/>
		
			<linearGradient id="SVGID_3_" gradientUnits="userSpaceOnUse" x1="900.6963" y1="52.7363" x2="900.8721" y2="55.647" gradientTransform="matrix(-1 0 0 1 934.832 0)">
			<stop  offset="0" style="stop-color:#854326"/>
			<stop  offset="1" style="stop-color:#9C552C"/>
		</linearGradient>
		<path style="clip-path:url(#SVGID_2_);fill:url(#SVGID_3_);" d="M38.237,52.519c-0.165-2.889-2.479-3.989-4.12-3.985
			c-1.642-0.004-3.957,1.097-4.12,3.985c-0.078,1.345,0.097,2.124,0.703,2.87c1.589,1.953,5.133,2.088,6.832,0
			C38.139,54.643,38.313,53.863,38.237,52.519z"/>
		<path style="clip-path:url(#SVGID_2_);fill:#D4A070;" d="M30.684,41.645c-0.142-2.847-1.174-5.391-3.058-7.513
			c-0.731-0.826-1.76-1.363-2.879-1.622c-1.579-0.361-3.341-0.165-4.716,0.573c-1.613,0.869-3.016,2.015-4.137,3.464
			c-0.912,1.18-2.417,2.309-2.788,3.799c-0.267,1.072,0.105,2.268,1.254,1.234c-0.364,1.099-0.44,2.34-0.456,3.491
			c-0.019,1.331,0.664,2.38,1.822,0.97c-0.104,1.102-0.43,5.853,1.51,3.379c0.217,0.885,0.041,2.309,0.662,3.057
			c0.766,0.921,1.611-0.267,1.933-0.938c0.087,0.77,0.182,1.967,1.187,2.131c0.894,0.146,1.746-1.072,2.04-1.797
			c0.278,1.936,1.496,0.59,2.212-0.146c0.555,1.465,2.223,1.068,3.237,0.17C31.254,49.455,30.843,44.92,30.684,41.645z"/>
		<path style="clip-path:url(#SVGID_2_);fill:#F2D89B;" d="M10.701,44.698c0.485,0,0.936-0.309,1.094-0.794l0.07-0.216
			c1.072-3.296,3.074-9.425,16.107-8.903c0.634,0.021,1.172-0.469,1.197-1.104c0.025-0.635-0.469-1.171-1.104-1.197
			c-14.792-0.593-17.311,7.174-18.39,10.492l-0.068,0.212c-0.198,0.604,0.131,1.255,0.736,1.452
			C10.462,44.68,10.582,44.698,10.701,44.698z"/>
		<path style="clip-path:url(#SVGID_2_);fill:#F2D89B;" d="M11.338,49.914c0.547,0,1.033-0.393,1.132-0.951
			c0.097-0.549,2.539-13.426,15.122-12.482c0.66,0.052,1.188-0.428,1.234-1.063c0.047-0.634-0.428-1.186-1.062-1.234
			c-11.762-0.886-16.619,9.022-17.563,14.379c-0.111,0.627,0.308,1.224,0.935,1.334C11.204,49.908,11.271,49.914,11.338,49.914z"/>
		<path style="clip-path:url(#SVGID_2_);fill:#F2D89B;" d="M13.242,51.96c0.495,0,0.953-0.322,1.102-0.821
			c1.401-4.67,4.395-11.408,14.175-15.993c0.575-0.271,0.823-0.956,0.554-1.531c-0.27-0.576-0.954-0.824-1.531-0.554
			c-8.08,3.788-12.974,9.322-15.402,17.416c-0.184,0.609,0.162,1.252,0.771,1.435C13.021,51.943,13.132,51.96,13.242,51.96z"/>
		<path style="clip-path:url(#SVGID_2_);fill:#F2D89B;" d="M15.889,54.822c0.55,0,1.037-0.396,1.133-0.957
			c1.058-6.176,4.125-14.074,12.734-16.631c0.61-0.181,0.957-0.822,0.776-1.432c-0.182-0.609-0.828-0.955-1.432-0.775
			c-10.258,3.047-13.394,12.866-14.349,18.449c-0.107,0.627,0.313,1.221,0.94,1.33C15.759,54.816,15.823,54.822,15.889,54.822z"/>
		<path style="clip-path:url(#SVGID_2_);fill:#F2D89B;" d="M18.727,56.766c0.572,0,1.068-0.426,1.141-1.008
			c0.805-6.479,2.879-14.27,11.867-17.045c0.607-0.188,0.947-0.833,0.76-1.44c-0.187-0.608-0.83-0.949-1.44-0.761
			C20.69,39.713,18.402,48.867,17.582,55.473c-0.078,0.631,0.37,1.207,1.001,1.285C18.631,56.764,18.679,56.766,18.727,56.766z"/>
		<path style="clip-path:url(#SVGID_2_);fill:#F2D89B;" d="M22.105,55.889c0.595,0,1.098-0.455,1.147-1.057
			c0.346-4.216,1.91-11.652,8.509-14.089c0.597-0.22,0.901-0.882,0.681-1.479c-0.22-0.597-0.881-0.9-1.479-0.681
			c-7.797,2.879-9.616,11.298-10.007,16.062c-0.052,0.633,0.42,1.189,1.054,1.24C22.043,55.889,22.075,55.889,22.105,55.889z"/>
		<path style="clip-path:url(#SVGID_2_);fill:#F2D89B;" d="M25.326,54.031c0.612,0,1.122-0.482,1.149-1.101
			c0.158-3.659,1.377-8.541,6.277-11.026c0.567-0.288,0.794-0.98,0.505-1.548c-0.287-0.567-0.979-0.793-1.547-0.507
			c-5.893,2.99-7.351,8.709-7.536,12.98c-0.027,0.636,0.465,1.174,1.101,1.201C25.293,54.031,25.31,54.031,25.326,54.031z"/>
		<path style="clip-path:url(#SVGID_2_);fill:#F2D89B;" d="M28.472,52.877c0.611,0,1.12-0.48,1.149-1.097
			c0.086-1.79,0.62-6.175,3.699-8.21c0.531-0.35,0.677-1.064,0.326-1.595c-0.352-0.531-1.066-0.677-1.595-0.326
			c-3.817,2.521-4.603,7.36-4.731,10.021c-0.029,0.635,0.46,1.174,1.096,1.205C28.434,52.876,28.453,52.877,28.472,52.877z"/>
		<path style="opacity:0.5;clip-path:url(#SVGID_2_);fill:#CF854D;" d="M17.975,34.357c-2.618,0.771-3.042,4.584-2.071,7.475
			c1.323,3.944,4.107,4.844,5.478,3.385c0.488,2.348,4.236,7.059,7.126,6.68c2.246-0.297,2.083-2.723,2.626-4.428
			c1.28-4.029-1.411-8.01-4.281-10.621c-1.93-1.758-5.762-3.123-8.417-2.602C18.279,34.275,18.126,34.313,17.975,34.357z"/>
		<path style="clip-path:url(#SVGID_2_);fill:#AB6A3F;" d="M13.471,40.454c0.136,0,0.268-0.073,0.338-0.201
			c1.051-1.943,3.282-4.149,5.511-4.608c0.208-0.043,0.342-0.246,0.299-0.453s-0.241-0.343-0.453-0.299
			c-2.459,0.506-4.896,2.895-6.032,4.994c-0.101,0.187-0.031,0.42,0.155,0.521C13.346,40.439,13.408,40.454,13.471,40.454z"/>
		<path style="clip-path:url(#SVGID_2_);fill:#AB6A3F;" d="M15.154,43.846c0.148,0,0.289-0.086,0.352-0.229
			c0.661-1.505,2.097-3.552,3.685-4.489c0.183-0.108,0.243-0.344,0.136-0.525c-0.108-0.184-0.344-0.242-0.525-0.137
			c-1.745,1.031-3.265,3.175-3.998,4.843c-0.085,0.194,0.004,0.421,0.197,0.506C15.05,43.836,15.103,43.846,15.154,43.846z"/>
		<path style="clip-path:url(#SVGID_2_);fill:#AB6A3F;" d="M16.133,47.511c0.164,0,0.315-0.106,0.366-0.271
			c0.43-1.39,1.146-2.746,2.319-4.396c0.123-0.173,0.083-0.412-0.09-0.535c-0.174-0.122-0.412-0.083-0.535,0.091
			c-1.224,1.719-1.972,3.142-2.427,4.613c-0.063,0.202,0.051,0.417,0.253,0.479C16.058,47.505,16.095,47.511,16.133,47.511z"/>
		<path style="clip-path:url(#SVGID_2_);fill:#AB6A3F;" d="M18.61,48.785c0.149,0,0.291-0.088,0.354-0.234l0.235-0.558
			c0.649-1.547,1.263-3.007,2.266-4.317c0.129-0.168,0.097-0.408-0.071-0.537c-0.169-0.129-0.409-0.098-0.538,0.071
			c-1.063,1.388-1.725,2.962-2.364,4.486l-0.234,0.556c-0.082,0.195,0.008,0.42,0.203,0.503
			C18.51,48.775,18.561,48.785,18.61,48.785z"/>
		<path style="clip-path:url(#SVGID_2_);fill:#AB6A3F;" d="M21.123,50.984c0.179,0,0.338-0.124,0.375-0.305
			c0.285-1.354,0.862-3.246,1.992-4.582c0.137-0.161,0.117-0.403-0.045-0.541c-0.162-0.135-0.405-0.115-0.541,0.046
			c-1.233,1.457-1.854,3.479-2.156,4.919c-0.044,0.207,0.089,0.41,0.296,0.455C21.07,50.981,21.098,50.984,21.123,50.984z"/>
		<path style="clip-path:url(#SVGID_2_);fill:#AB6A3F;" d="M24.261,51.366c0.207,0,0.376-0.163,0.384-0.37
			c0.022-0.66,0.171-1.303,0.329-1.982c0.066-0.286,0.132-0.571,0.188-0.857c0.041-0.209-0.095-0.41-0.303-0.451
			c-0.213-0.042-0.41,0.096-0.45,0.303c-0.055,0.277-0.119,0.555-0.184,0.832c-0.159,0.686-0.323,1.395-0.348,2.129
			c-0.008,0.213,0.158,0.391,0.37,0.397C24.252,51.366,24.257,51.366,24.261,51.366z"/>
		<path style="clip-path:url(#SVGID_2_);fill:#AB6A3F;" d="M26.826,52.412c0.208,0,0.378-0.164,0.385-0.373
			c0.021-0.736,0.123-1.375,0.313-1.953c0.066-0.201-0.044-0.418-0.245-0.484c-0.203-0.066-0.419,0.045-0.484,0.245
			c-0.213,0.649-0.328,1.36-0.352,2.171c-0.005,0.212,0.161,0.389,0.373,0.395C26.819,52.412,26.823,52.412,26.826,52.412z"/>
		<path style="clip-path:url(#SVGID_2_);fill:#9C552C;" d="M25.38,36.873c2.551-0.508,5.111-0.959,7.675-1.4
			c4.211-0.726,8.684,5.713,11.25,9.163c2.475,3.332,5.164-6.04,5.293-8.778c0.16-3.393,1.273-8.943,0.598-12.711
			C46.904,4.829,22.162,7.275,18.898,20.068c-1.241,4.87-1.785,11.38,0.326,16.198C20.33,38.781,23.307,37.287,25.38,36.873z"/>
		<path style="clip-path:url(#SVGID_2_);fill:#9C552C;" d="M20.549,37.585c0.468,7.769,6.979,16.729,14.746,16.688
			c7.784-0.04,14.552-10.928,14.086-20.473c-0.505-10.378-2.309-19.196-15.546-18.04C22.253,16.773,19.926,27.213,20.549,37.585z"/>
		<path style="clip-path:url(#SVGID_2_);fill:#9C552C;" d="M18.949,44.441c1.098,0.686,2.387,0.326,3.035-1.57
			c0.684-0.947,0.073-4.74-0.461-7.119c-0.432-1.93-1.477-3.004-3.308-2.644C14.401,33.856,16.191,42.719,18.949,44.441z"/>
		<path style="opacity:0.4;clip-path:url(#SVGID_2_);fill:#661004;" d="M20.01,39.512c1.425-0.756,0.356-3.749-0.632-4.297
			c-0.813-0.45-2.961,0.089-2.099,1.806c0.634-1.483,1.487-0.415,1.264,0.655c-0.151,0.719-0.932,0.67-0.227,1.662
			C18.697,39.871,19.561,39.749,20.01,39.512z"/>
		<path style="opacity:0.2;clip-path:url(#SVGID_2_);fill:#661004;" d="M35.058,13.796c-9.33-0.526-16.29,5.856-16.314,19.245
			c0.389,0.009,1.188,0.047,1.741,0.647c0.737,0.799,0.67,1.629,0.86,2.059c0.087,0.218,0.185,0.575,0.922,0.575
			c-0.47-1.832-0.582-3.754-0.47-5.638c0.052-0.887,0.158-1.771,0.317-2.646c0.117-0.628,0.664-1.76,0.188-2.319
			c0.917-0.428,0.532-1.7,0.409-2.429c1.389-0.154,1.826-0.64,2.128-1.869c0.74,0.234,1.299,0.033,1.885-0.45
			c0.672,2.329,3.898,2.448,4.659,0.179c0.292,0.302,0.641,0.542,1.073,0.382c-0.109,2.104,4.61,2.347,4.447,0.324
			c0.817,0.189,0.787,1.402,1.755,1.707c0.94,0.299,2.246-0.071,2.554-1.109c0-0.026,0-0.026-0.004,0
			c0.242,0.901,1.723,0.926,2.423,0.779c0.849-0.179,1.297-0.686,1.91-1.248c0.118,0.869,1.119,1.366,1.814,0.772
			c-0.803,0.685,0.849,2.21,1.037,2.724C49.616,28.823,50.03,14.642,35.058,13.796z"/>
		
			<ellipse transform="matrix(0.9896 -0.1442 0.1442 0.9896 -5.8822 3.2903)" style="clip-path:url(#SVGID_2_);fill:#261B18;" cx="19.762" cy="42.232" rx="1.541" ry="1.828"/>
		<path style="clip-path:url(#SVGID_2_);fill:#F2D89B;" d="M50.446,34.859c0.562,0,1.053-0.412,1.138-0.984
			c0.193-1.317,1.711-13.072-4.647-20.189c-3.073-3.441-7.39-5.099-12.881-4.909c-5.045,0.17-9.08,1.886-11.994,5.101
			c-5.371,5.927-5.227,15.089-5.054,17.755c0.04,0.626,0.59,1.153,1.205,1.124c0.628-0.029,1.118-0.508,1.101-1.136l-0.008-0.137
			c-0.157-2.438-0.302-10.804,4.463-16.061c2.479-2.735,5.966-4.197,10.364-4.345c4.766-0.157,8.488,1.233,11.087,4.141
			c4.597,5.146,4.73,13.936,4.086,18.319c-0.094,0.629,0.342,1.214,0.971,1.307C50.334,34.855,50.39,34.859,50.446,34.859z"/>
		<path style="clip-path:url(#SVGID_2_);fill:#F2D89B;" d="M39.49,22.798c0.433,0,0.848-0.245,1.044-0.663
			c1.419-3.021,1.277-8.228-0.338-12.378c-0.231-0.592-0.899-0.886-1.49-0.656C38.113,9.332,37.82,10,38.05,10.592
			c1.578,4.055,1.384,8.47,0.399,10.564c-0.27,0.576-0.023,1.261,0.553,1.532C39.16,22.763,39.327,22.798,39.49,22.798z"/>
		<path style="clip-path:url(#SVGID_2_);fill:#F2D89B;" d="M43.554,22.62c0.293,0,0.585-0.111,0.81-0.332
			c1.343-1.327,3.56-4.188,3.318-8.449c-0.035-0.634-0.578-1.125-1.214-1.084c-0.635,0.036-1.121,0.58-1.085,1.215
			c0.189,3.358-1.571,5.626-2.639,6.68c-0.451,0.447-0.457,1.176-0.01,1.628C42.96,22.505,43.257,22.62,43.554,22.62z"/>
		<path style="clip-path:url(#SVGID_2_);fill:#F2D89B;" d="M23.15,22.345c0.356,0,0.707-0.165,0.933-0.475
			c0.374-0.514,0.26-1.234-0.255-1.608c-1.312-0.954-2.426-2.623-2.649-3.969c-0.104-0.628-0.708-1.051-1.323-0.948
			c-0.628,0.104-1.053,0.697-0.948,1.324c0.322,1.947,1.757,4.139,3.567,5.456C22.679,22.274,22.916,22.345,23.15,22.345z"/>
		<path style="clip-path:url(#SVGID_2_);fill:#F2D89B;" d="M37.37,20.704c0.594,0,1.098-0.456,1.146-1.058
			c0.02-0.237,0.443-5.863-2.067-10.609c-0.297-0.563-0.994-0.778-1.556-0.479c-0.563,0.297-0.776,0.994-0.479,1.556
			c2.199,4.159,1.812,9.294,1.807,9.346c-0.051,0.634,0.422,1.189,1.055,1.241C37.308,20.702,37.339,20.704,37.37,20.704z"/>
		<path style="clip-path:url(#SVGID_2_);fill:#F2D89B;" d="M31.527,20.179c0.094,0,0.188-0.011,0.281-0.035
			c0.617-0.155,0.992-0.78,0.837-1.397c-0.046-0.185-1.153-4.568-2.679-8.692c-0.222-0.596-0.884-0.901-1.48-0.68
			c-0.596,0.221-0.9,0.883-0.68,1.479c1.48,4.004,2.595,8.41,2.604,8.455C30.543,19.831,31.013,20.179,31.527,20.179z"/>
		<path style="clip-path:url(#SVGID_2_);fill:#F2D89B;" d="M43.036,18.824c0.495,0,0.951-0.32,1.101-0.818
			c0.04-0.133,0.963-3.286-0.247-6.932c-0.2-0.604-0.854-0.931-1.456-0.73c-0.603,0.2-0.93,0.852-0.729,1.455
			c0.972,2.93,0.233,5.521,0.226,5.547c-0.179,0.609,0.169,1.249,0.776,1.43C42.816,18.808,42.928,18.824,43.036,18.824z"/>
		<path style="clip-path:url(#SVGID_2_);fill:#F2D89B;" d="M25.242,20.337c0.313,0,0.625-0.127,0.852-0.377
			c0.427-0.469,0.394-1.195-0.073-1.623c-0.048-0.045-1.894-1.811-2.21-4.776c-0.068-0.633-0.632-1.091-1.269-1.022
			c-0.632,0.068-1.09,0.635-1.022,1.268c0.418,3.89,2.844,6.138,2.948,6.232C24.688,20.238,24.965,20.337,25.242,20.337z"/>
		<path style="clip-path:url(#SVGID_2_);fill:#F2D89B;" d="M34.6,22.462c0.06,0,0.12-0.005,0.181-0.015
			c0.629-0.099,1.058-0.688,0.958-1.316c-0.065-0.417-0.094-0.967-0.127-1.604c-0.121-2.346-0.306-5.892-2.639-10.192
			c-0.304-0.559-1.001-0.766-1.562-0.463c-0.56,0.303-0.767,1.002-0.464,1.562c2.085,3.842,2.247,6.946,2.364,9.213
			c0.036,0.701,0.068,1.306,0.152,1.842C33.554,22.057,34.043,22.462,34.6,22.462z"/>
		<path style="clip-path:url(#SVGID_2_);fill:#F2D89B;" d="M29.481,21.891c0.24,0,0.481-0.075,0.689-0.229
			c0.509-0.38,0.612-1.102,0.231-1.611c-1.127-1.509-2.576-3.851-3.777-8.617c-0.154-0.617-0.782-0.992-1.397-0.835
			c-0.617,0.155-0.99,0.781-0.835,1.398c1.015,4.028,2.3,6.938,4.166,9.434C28.785,21.731,29.131,21.891,29.481,21.891z"/>
		<path style="clip-path:url(#SVGID_2_);fill:#F2D89B;" d="M47.501,21.922c0.299,0,0.598-0.116,0.823-0.347
			c0.18-0.184,1.766-1.849,2.146-3.607c0.136-0.622-0.26-1.234-0.882-1.369c-0.617-0.134-1.234,0.26-1.368,0.882
			c-0.204,0.944-1.185,2.116-1.545,2.487c-0.442,0.457-0.433,1.185,0.022,1.628C46.922,21.814,47.212,21.922,47.501,21.922z"/>
		<path style="clip-path:url(#SVGID_2_);fill:#F2D89B;" d="M49.156,23.963c0.217,0,0.436-0.061,0.631-0.188l1.902-1.248
			c0.531-0.349,0.679-1.063,0.33-1.594c-0.349-0.532-1.063-0.679-1.595-0.332l-1.901,1.248c-0.532,0.349-0.68,1.063-0.331,1.595
			C48.413,23.781,48.781,23.963,49.156,23.963z"/>
		<path style="clip-path:url(#SVGID_2_);fill:#F2D89B;" d="M21.26,25.019c0.361,0,0.716-0.169,0.94-0.486
			c0.367-0.519,0.244-1.237-0.273-1.604c-0.55-0.39-2.071-1.662-2.506-2.842c-0.221-0.597-0.885-0.904-1.479-0.682
			c-0.597,0.22-0.901,0.881-0.682,1.479c0.76,2.062,3.075,3.741,3.336,3.925C20.799,24.95,21.03,25.019,21.26,25.019z"/>
		<path style="clip-path:url(#SVGID_2_);fill:#F2D89B;" d="M50.186,26.421c0.084,0,0.168-0.009,0.253-0.028l1.119-0.25
			c0.621-0.139,1.011-0.754,0.873-1.375c-0.14-0.621-0.759-1.008-1.375-0.872l-1.12,0.25c-0.62,0.139-1.011,0.754-0.873,1.375
			C49.184,26.057,49.658,26.421,50.186,26.421z"/>
		<path style="clip-path:url(#SVGID_2_);fill:#F2D89B;" d="M50.525,29.261c0.069,0,0.14-0.007,0.21-0.02l0.796-0.147
			c0.625-0.116,1.038-0.716,0.922-1.342c-0.115-0.626-0.717-1.041-1.341-0.922l-0.795,0.147c-0.626,0.116-1.039,0.717-0.923,1.342
			C49.497,28.874,49.98,29.261,50.525,29.261z"/>
		<path style="clip-path:url(#SVGID_2_);fill:#F2D89B;" d="M50.649,32.239c0.056,0,0.112-0.004,0.169-0.013l0.338-0.05
			c0.629-0.092,1.063-0.677,0.972-1.306c-0.094-0.63-0.68-1.065-1.308-0.972l-0.337,0.049c-0.63,0.093-1.063,0.678-0.972,1.307
			C49.597,31.827,50.088,32.239,50.649,32.239z"/>
		<path style="clip-path:url(#SVGID_2_);fill:#F2D89B;" d="M50.812,34.9c0.578,0,1.075-0.434,1.143-1.021
			c0.072-0.632-0.381-1.203-1.013-1.274l-0.366-0.042c-0.64-0.074-1.203,0.381-1.275,1.014c-0.071,0.632,0.382,1.202,1.014,1.274
			l0.365,0.041C50.724,34.898,50.768,34.9,50.812,34.9z"/>
		<path style="clip-path:url(#SVGID_2_);fill:#F2D89B;" d="M20.734,27.868c0.396,0,0.783-0.206,0.997-0.574
			c0.319-0.55,0.133-1.254-0.417-1.574l-3.544-2.058c-0.549-0.318-1.255-0.134-1.574,0.417c-0.319,0.55-0.133,1.254,0.417,1.574
			l3.544,2.058C20.339,27.817,20.538,27.868,20.734,27.868z"/>
		<path style="clip-path:url(#SVGID_2_);fill:#F2D89B;" d="M20.194,30.681c0.422,0,0.829-0.233,1.03-0.636
			c0.284-0.568,0.055-1.261-0.514-1.545l-3.082-1.543c-0.57-0.285-1.262-0.055-1.545,0.514c-0.285,0.568-0.056,1.261,0.513,1.545
			l3.083,1.544C19.846,30.641,20.021,30.681,20.194,30.681z"/>
		<path style="clip-path:url(#SVGID_2_);fill:#F2D89B;" d="M20.348,33.672c0.458,0,0.893-0.276,1.071-0.728
			c0.233-0.592-0.056-1.26-0.647-1.495l-2.882-1.14c-0.589-0.232-1.261,0.056-1.494,0.647s0.056,1.26,0.647,1.495l2.882,1.14
			C20.063,33.646,20.207,33.672,20.348,33.672z"/>
		<path style="clip-path:url(#SVGID_2_);fill:#AB6A3F;" d="M41.69,18.818c0.174,0,0.331-0.119,0.374-0.295
			c0.4-1.679,0.337-4.623-0.395-6.33c-0.084-0.195-0.311-0.284-0.504-0.202c-0.195,0.083-0.285,0.309-0.201,0.504
			c0.661,1.544,0.717,4.321,0.353,5.849c-0.05,0.206,0.078,0.414,0.284,0.463C41.632,18.814,41.661,18.818,41.69,18.818z"/>
		<path style="clip-path:url(#SVGID_2_);fill:#AB6A3F;" d="M43.844,18.698c0.155,0,0.302-0.095,0.359-0.25
			c0.247-0.66,0.602-1.509,0.876-2.167l0.212-0.508c0.08-0.196-0.013-0.42-0.209-0.501c-0.195-0.08-0.42,0.012-0.502,0.208
			l-0.21,0.506c-0.276,0.665-0.636,1.525-0.886,2.193c-0.074,0.198,0.026,0.42,0.225,0.494
			C43.753,18.69,43.799,18.698,43.844,18.698z"/>
		<path style="clip-path:url(#SVGID_2_);fill:#AB6A3F;" d="M46.598,19.942c0.146,0,0.284-0.083,0.349-0.225
			c0.109-0.237,0.24-0.475,0.371-0.713c0.16-0.291,0.32-0.584,0.45-0.883c0.084-0.195-0.006-0.42-0.2-0.504
			c-0.196-0.084-0.42,0.005-0.505,0.199c-0.119,0.277-0.27,0.548-0.418,0.818c-0.141,0.256-0.28,0.51-0.396,0.766
			c-0.088,0.192-0.003,0.42,0.19,0.508C46.49,19.931,46.544,19.942,46.598,19.942z"/>
		<path style="clip-path:url(#SVGID_2_);fill:#AB6A3F;" d="M48.491,22.106c0.094,0,0.187-0.034,0.261-0.101
			c0.224-0.207,0.494-0.369,0.781-0.47c0.2-0.07,0.306-0.289,0.235-0.489c-0.069-0.2-0.287-0.307-0.488-0.235
			c-0.386,0.134-0.747,0.352-1.049,0.628c-0.155,0.144-0.166,0.387-0.022,0.543C48.285,22.065,48.388,22.106,48.491,22.106z"/>
		<path style="clip-path:url(#SVGID_2_);fill:#AB6A3F;" d="M38.569,17.483c0.183,0,0.343-0.129,0.377-0.314
			c0.354-1.894,0.047-3.826-0.938-5.906c-0.092-0.192-0.323-0.271-0.512-0.182c-0.191,0.09-0.273,0.319-0.183,0.511
			c0.915,1.929,1.201,3.707,0.879,5.437c-0.039,0.208,0.099,0.409,0.307,0.448C38.523,17.481,38.547,17.483,38.569,17.483z"/>
		<path style="clip-path:url(#SVGID_2_);fill:#AB6A3F;" d="M36.062,18.842c0.04,0,0.08-0.007,0.121-0.021
			c0.201-0.066,0.31-0.284,0.242-0.485c-0.291-0.873-0.359-1.821-0.433-2.824c-0.107-1.497-0.221-3.044-1.119-4.376
			c-0.121-0.176-0.361-0.221-0.533-0.103c-0.176,0.119-0.222,0.357-0.104,0.533c0.785,1.162,0.885,2.541,0.99,4.001
			c0.073,1.007,0.149,2.048,0.471,3.012C35.751,18.74,35.9,18.842,36.062,18.842z"/>
		<path style="clip-path:url(#SVGID_2_);fill:#AB6A3F;" d="M32.493,17.634c0.007,0,0.014,0,0.021,0
			c0.211-0.012,0.374-0.193,0.361-0.405c-0.068-1.216-0.502-2.429-0.92-3.602c-0.175-0.489-0.347-0.971-0.486-1.441
			c-0.061-0.203-0.272-0.32-0.479-0.258c-0.202,0.061-0.317,0.274-0.258,0.477c0.144,0.483,0.32,0.978,0.5,1.48
			c0.399,1.121,0.813,2.281,0.876,3.386C32.121,17.476,32.291,17.634,32.493,17.634z"/>
		<path style="clip-path:url(#SVGID_2_);fill:#AB6A3F;" d="M29.199,18.364c0.086,0,0.171-0.028,0.242-0.086
			c0.164-0.133,0.189-0.375,0.056-0.54c-0.892-1.101-1.433-2.894-1.448-4.795c-0.002-0.211-0.173-0.38-0.384-0.38h-0.003
			c-0.213,0.001-0.383,0.175-0.381,0.387c0.017,2.07,0.622,4.041,1.62,5.272C28.978,18.315,29.088,18.364,29.199,18.364z"/>
		<path style="clip-path:url(#SVGID_2_);fill:#AB6A3F;" d="M25.85,18.721c0.103,0,0.204-0.041,0.28-0.12
			c0.145-0.154,0.138-0.397-0.017-0.543c-0.832-0.784-1.382-2.318-1.723-3.404c-0.064-0.202-0.275-0.317-0.482-0.251
			c-0.202,0.063-0.314,0.279-0.251,0.481c0.399,1.267,0.979,2.836,1.929,3.733C25.661,18.687,25.755,18.721,25.85,18.721z"/>
		<path style="clip-path:url(#SVGID_2_);fill:#AB6A3F;" d="M23.362,19.638c0.128,0,0.253-0.064,0.325-0.18
			c0.113-0.18,0.06-0.417-0.121-0.53c-0.468-0.293-0.784-0.789-1.119-1.312c-0.148-0.232-0.296-0.462-0.455-0.675
			c-0.128-0.17-0.37-0.203-0.537-0.076c-0.169,0.127-0.203,0.368-0.076,0.538c0.147,0.197,0.285,0.411,0.422,0.626
			c0.365,0.572,0.744,1.164,1.358,1.549C23.222,19.619,23.292,19.638,23.362,19.638z"/>
		<path style="clip-path:url(#SVGID_2_);fill:#AB6A3F;" d="M21.657,22.74c0.11,0,0.22-0.047,0.297-0.14
			c0.134-0.163,0.111-0.405-0.052-0.54c-0.643-0.531-1.037-1.029-1.206-1.522c-0.068-0.201-0.288-0.308-0.488-0.239
			c-0.2,0.068-0.307,0.287-0.238,0.487c0.217,0.631,0.688,1.242,1.443,1.865C21.484,22.711,21.571,22.74,21.657,22.74z"/>
		<path style="clip-path:url(#SVGID_2_);fill:#AB6A3F;" d="M20.736,24.991c0.159,0,0.308-0.1,0.363-0.258
			c0.069-0.2-0.037-0.418-0.237-0.488c-0.494-0.171-0.977-0.551-1.391-0.894c-0.164-0.136-0.406-0.113-0.54,0.05
			c-0.136,0.163-0.113,0.405,0.05,0.541c0.466,0.386,1.015,0.815,1.63,1.028C20.652,24.984,20.695,24.991,20.736,24.991z"/>
		<path style="clip-path:url(#SVGID_2_);fill:#AB6A3F;" d="M19.251,28.176c0.096,0,0.192-0.036,0.268-0.108
			c0.151-0.147,0.156-0.39,0.009-0.542c-0.278-0.288-0.598-0.551-0.924-0.764c-0.179-0.115-0.416-0.065-0.531,0.114
			c-0.115,0.177-0.064,0.415,0.113,0.531c0.278,0.181,0.552,0.406,0.79,0.652C19.051,28.137,19.151,28.176,19.251,28.176z"/>
		<path style="clip-path:url(#SVGID_2_);fill:#AB6A3F;" d="M19.779,31.016c0.12,0,0.24-0.057,0.314-0.164
			c0.121-0.174,0.079-0.413-0.094-0.535c-0.426-0.298-0.908-0.495-1.396-0.569c-0.207-0.033-0.406,0.111-0.438,0.321
			c-0.032,0.209,0.112,0.405,0.321,0.437c0.367,0.056,0.748,0.212,1.071,0.439C19.627,30.994,19.703,31.016,19.779,31.016z"/>
		<path style="clip-path:url(#SVGID_2_);fill:#FAE7BB;" d="M37.48,18.311c0.01,0,0.021,0,0.03,0c0.635-0.016,1.138-0.544,1.122-1.18
			c-0.045-1.778-0.699-3.67-1.333-5.5c-0.291-0.841-0.565-1.635-0.755-2.351c-0.163-0.615-0.791-0.983-1.407-0.819
			c-0.614,0.162-0.981,0.792-0.819,1.407c0.211,0.799,0.5,1.632,0.805,2.515c0.576,1.664,1.172,3.384,1.207,4.805
			C36.346,17.815,36.858,18.311,37.48,18.311z"/>
		<path style="clip-path:url(#SVGID_2_);fill:#FAE7BB;" d="M40.214,20.047c0.48,0,0.901-0.352,0.974-0.842
			c0.554-3.76-0.485-8.183-1.197-9.5c-0.26-0.478-0.858-0.655-1.336-0.398c-0.479,0.259-0.656,0.857-0.397,1.335
			c0.502,0.927,1.468,4.976,0.981,8.275c-0.079,0.538,0.293,1.039,0.832,1.118C40.118,20.043,40.166,20.047,40.214,20.047z"/>
		<path style="clip-path:url(#SVGID_2_);fill:#FAE7BB;" d="M43.228,17.738c0.481,0,0.903-0.353,0.974-0.843
			c0.123-0.834,0.683-5.049-0.246-6.167c-0.348-0.418-0.968-0.478-1.387-0.128c-0.398,0.331-0.47,0.91-0.176,1.326
			c0.179,0.483,0.157,2.641-0.141,4.685c-0.079,0.538,0.295,1.038,0.832,1.117C43.133,17.735,43.182,17.738,43.228,17.738z"/>
		<path style="clip-path:url(#SVGID_2_);fill:#FAE7BB;" d="M44.658,21.169c0.305,0,0.605-0.141,0.799-0.407
			c1.969-2.718,2.07-6.372,2.074-6.526c0.011-0.543-0.421-0.994-0.965-1.006c-0.56-0.035-0.993,0.419-1.006,0.964
			c0,0.031-0.087,3.187-1.7,5.412c-0.319,0.441-0.221,1.057,0.22,1.376C44.255,21.108,44.457,21.169,44.658,21.169z"/>
		<path style="clip-path:url(#SVGID_2_);fill:#FAE7BB;" d="M48.305,20.785c0.229,0,0.459-0.08,0.646-0.241
			c0.585-0.506,0.901-1.192,1.132-1.693c0.065-0.14,0.116-0.264,0.171-0.346c0.359-0.409,0.306-1.015-0.103-1.375
			c-0.409-0.36-1.044-0.304-1.403,0.105c-0.188,0.214-0.311,0.48-0.453,0.789c-0.165,0.357-0.37,0.802-0.634,1.03
			c-0.411,0.356-0.455,0.979-0.1,1.39C47.756,20.669,48.03,20.785,48.305,20.785z"/>
		<path style="clip-path:url(#SVGID_2_);fill:#FAE7BB;" d="M49.796,23.329c0.188,0,0.381-0.055,0.549-0.168
			c0.044-0.028,0.163-0.098,0.301-0.178c0.525-0.309,0.684-0.406,0.797-0.5c0.416-0.35,0.47-0.972,0.12-1.388
			c-0.342-0.405-0.94-0.467-1.356-0.146c-0.101,0.069-0.351,0.213-0.559,0.336c-0.189,0.111-0.352,0.208-0.402,0.242
			c-0.451,0.304-0.571,0.916-0.268,1.368C49.168,23.176,49.479,23.329,49.796,23.329z"/>
		<path style="clip-path:url(#SVGID_2_);fill:#FAE7BB;" d="M34.381,19.265c0.03,0,0.062-0.001,0.093-0.005
			c0.542-0.051,0.939-0.531,0.889-1.073c-0.206-2.178-1.658-6.778-2.499-8.698c-0.22-0.498-0.801-0.723-1.299-0.507
			c-0.498,0.219-0.725,0.799-0.507,1.298c0.776,1.771,2.164,6.193,2.343,8.092C33.449,18.882,33.878,19.265,34.381,19.265z"/>
		<path style="clip-path:url(#SVGID_2_);fill:#FAE7BB;" d="M30.867,17.586c0.122,0,0.244-0.022,0.363-0.069
			c0.506-0.2,0.754-0.772,0.553-1.278c-0.15-0.379-0.391-1.234-0.646-2.14c-0.564-1.996-0.994-3.461-1.403-4.148
			c-0.28-0.467-0.883-0.62-1.352-0.342c-0.468,0.279-0.62,0.883-0.342,1.351c0.309,0.517,0.845,2.417,1.2,3.674
			c0.282,0.997,0.524,1.858,0.712,2.33C30.104,17.351,30.476,17.586,30.867,17.586z"/>
		<path style="clip-path:url(#SVGID_2_);fill:#FAE7BB;" d="M28.388,20.094c0.223,0,0.448-0.076,0.633-0.231
			c0.416-0.35,0.47-0.972,0.12-1.388c-0.634-0.754-1.306-2.938-1.797-4.533c-0.422-1.368-0.694-2.231-0.985-2.728
			c-0.277-0.468-0.882-0.624-1.349-0.349c-0.47,0.276-0.626,0.88-0.35,1.349c0.188,0.322,0.514,1.377,0.801,2.308
			c0.6,1.95,1.28,4.16,2.172,5.221C27.826,19.974,28.106,20.094,28.388,20.094z"/>
		<path style="clip-path:url(#SVGID_2_);fill:#FAE7BB;" d="M24.225,19.304c0.231,0,0.464-0.081,0.65-0.246
			c0.409-0.359,0.449-0.981,0.09-1.39c-0.336-0.409-1.306-2.974-1.314-3.994c-0.005-0.542-0.445-0.977-0.985-0.977
			c-0.003,0-0.006,0-0.009,0c-0.544,0.005-0.981,0.45-0.977,0.994c0.012,1.437,1.13,4.509,1.805,5.278
			C23.68,19.19,23.951,19.304,24.225,19.304z"/>
		<path style="clip-path:url(#SVGID_2_);fill:#FAE7BB;" d="M22.316,21.471c0.236,0,0.475-0.085,0.664-0.258
			c0.401-0.367,0.43-0.99,0.063-1.392c-0.346-0.393-1.845-2.833-2.007-3.375c-0.155-0.521-0.697-0.821-1.227-0.661
			c-0.521,0.156-0.816,0.706-0.661,1.227c0.283,0.944,2.038,3.698,2.438,4.138C21.783,21.363,22.049,21.471,22.316,21.471z"/>
		<path style="clip-path:url(#SVGID_2_);fill:#FAE7BB;" d="M19.66,23.208c0.256,0,0.513-0.1,0.705-0.298
			c0.38-0.39,0.371-1.013-0.018-1.393c-0.227-0.219-0.925-1.06-1.054-1.279c-0.273-0.47-0.877-0.629-1.347-0.355
			s-0.629,0.877-0.354,1.347c0.252,0.433,1.091,1.418,1.38,1.7C19.164,23.115,19.412,23.208,19.66,23.208z"/>
		<path style="clip-path:url(#SVGID_2_);fill:#FAE7BB;" d="M18.601,26.357c0.297,0,0.592-0.134,0.785-0.389
			c0.329-0.433,0.245-1.051-0.188-1.38c-0.271-0.207-0.564-0.407-0.845-0.577c-0.465-0.285-1.07-0.135-1.354,0.33
			c-0.282,0.465-0.134,1.071,0.331,1.354c0.224,0.137,0.457,0.296,0.674,0.462C18.184,26.292,18.394,26.357,18.601,26.357z"/>
		<path style="clip-path:url(#SVGID_2_);fill:#FAE7BB;" d="M50.554,26.333c0.218,0,0.432-0.037,0.639-0.112
			c0.513-0.184,0.778-0.748,0.595-1.26c-0.184-0.512-0.748-0.779-1.259-0.595c-0.549-0.1-1.036,0.253-1.135,0.787
			c-0.1,0.536,0.268,1.047,0.803,1.146C50.316,26.323,50.436,26.333,50.554,26.333z"/>
		<path style="clip-path:url(#SVGID_2_);fill:#FAE7BB;" d="M50.705,29.473c0.15,0,0.299-0.034,0.436-0.101
			c0.421-0.003,0.809-0.277,0.936-0.702c0.158-0.521-0.138-1.07-0.659-1.228c-0.559-0.167-1.127-0.007-1.478,0.426
			c-0.342,0.423-0.275,1.043,0.148,1.385C50.27,29.401,50.488,29.473,50.705,29.473z"/>
		<path style="clip-path:url(#SVGID_2_);fill:#BF6C3C;" d="M46.645,36.693c0.12,0.146,0.219,0.316,0.29,0.521
			c0.691,1.971-3.844,1.804-4.452,0.983c-1.139-1.541,0.321-2.121,1.448-2.229C44.792,35.881,46.012,35.92,46.645,36.693z"/>
		<path style="clip-path:url(#SVGID_2_);fill:#BF6C3C;" d="M29.086,37.068c0.13,0.135,0.241,0.295,0.327,0.488
			c0.839,1.863-3.377,2.135-4.54,1.314c-1.614-1.137,0.319-2.195,1.439-2.361C27.17,36.383,28.394,36.354,29.086,37.068z"/>
		<path style="clip-path:url(#SVGID_2_);fill:#261B18;" d="M28.389,31.802c-2.645-0.706-4.295,2.247-2.491,3.2
			c0.84-0.154,1.832-0.102,2.615,0.133C30.281,34.552,30.354,32.329,28.389,31.802z"/>
		<path style="opacity:0.4;clip-path:url(#SVGID_2_);fill:#661004;" d="M38.057,36.393c-0.412-0.389-1.15,0.123-1.883,0.186
			c-0.657,0.057-1.268-0.262-1.858,0.107c-0.592,0.369,0.208,1.369,1.953,1.196C38.009,37.713,38.411,36.725,38.057,36.393z"/>
		<path style="clip-path:url(#SVGID_2_);fill:#BF6C3C;" d="M35.896,33.472c-1.248-0.016-2.024,2.358-1.433,3.077
			c0.415,0.502,3.146,0.289,3.521-0.359C38.119,35.95,37.088,33.485,35.896,33.472z"/>
		<path style="opacity:0.7;clip-path:url(#SVGID_2_);fill:#F0DED1;" d="M28.189,33.355c-0.802,0.23-0.187,1.538,0.595,1.059
			C29.35,34.067,28.903,33.151,28.189,33.355z"/>
		<path style="clip-path:url(#SVGID_2_);fill:#261B18;" d="M45.198,31.107c-2.712-0.35-3.957,2.795-2.041,3.504
			c0.809-0.27,1.8-0.349,2.608-0.219C47.441,33.579,47.216,31.366,45.198,31.107z"/>
		<path style="opacity:0.7;clip-path:url(#SVGID_2_);fill:#F0DED1;" d="M45.124,32.723c-0.748,0.334,0.023,1.551,0.72,0.974
			C46.345,33.279,45.791,32.427,45.124,32.723z"/>
		<path style="clip-path:url(#SVGID_2_);fill:#D47B48;" d="M28.158,40.953c4.177-0.119,11.331-1.17,15.902-0.402
			c0.421,0.07,0.67,0.144,0.34,0.352c-1.008,0.641-2.309,1.688-2.428,2.552c-0.244,1.758-0.692,5.097-5.471,5.135
			c-5.711,0.048-8.156-5.622-8.801-7.165C27.55,41.063,27.82,40.963,28.158,40.953z"/>
		<path style="clip-path:url(#SVGID_2_);fill:#78231F;" d="M28.346,41.52c0,0,6.486,1.445,15.128-0.625c0,0-1.383,0.615-1.736,2.129
			c-0.266,1.133-0.918,2.753-5.954,2.962C30.19,46.216,28.346,41.52,28.346,41.52z"/>
		<path style="clip-path:url(#SVGID_2_);fill:#FFF7EA;" d="M30.158,41.98c0,0,0.006,1.531,1.705,2.086
			c2.182,0.708,4.649,0.758,7.195,0.15c1.714-0.41,2.778-2.744,2.778-2.744S37.066,42.302,30.158,41.98z"/>
		<path style="clip-path:url(#SVGID_2_);fill:#FFF7EA;" d="M30.758,44.248c-0.162-0.383-0.136-0.818,0.784-0.521
			c1.104,0.359,3.149,0.594,5.54,0.531c2.391-0.065,2.977-0.867,3.386-0.463c0.41,0.404-1.321,2.428-5.122,2.242
			C31,45.822,30.758,44.248,30.758,44.248z"/>
		<path style="clip-path:url(#SVGID_2_);fill:#ECDCC4;" d="M30.312,42.628c0,0,9.064-0.872,11.05-0.296c0,0,0.365-0.492,0.476-0.859
			c0,0-6.416,0.855-11.686,0.487C30.151,41.96,30.187,42.424,30.312,42.628z"/>
		<path style="clip-path:url(#SVGID_2_);fill:#ECDCC4;" d="M32.039,43.73c0,0,3.228,0.863,7.907-0.01
			C39.946,43.721,35.739,45.188,32.039,43.73z"/>
		<path style="clip-path:url(#SVGID_2_);fill:#161110;" d="M21.498,31.176c0,0,0.801,2.735,5.414,1.048
			c1.875-0.685,2.925,1.302,2.925,1.302s-0.013-3.167-2.792-2.531C25.625,31.324,23.825,32.825,21.498,31.176z"/>
		<path style="clip-path:url(#SVGID_2_);fill:#161110;" d="M50.301,30.859c0,0-0.912,2.574-5.085,1.031
			c-1.911-0.706-2.916,1.135-2.916,1.135s0.149-3.068,2.754-2.413C46.387,30.948,48.024,32.426,50.301,30.859z"/>
		<path style="clip-path:url(#SVGID_2_);fill:#261B18;" d="M47.83,28.626c-0.192-0.683-1.854-1.435-3.516-1.298
			c-1.821,0.146-3.597,1.243-3.384,2.139c0.235,1.005,1.567-0.601,3.347-1.031C46.506,27.899,47.895,28.857,47.83,28.626z"/>
		<path style="clip-path:url(#SVGID_2_);fill:#261B18;" d="M23.259,28.875c0.081-0.672,2.282-1.308,4.326-1.12
			c2.234,0.206,4.405,1.32,4.142,2.169c-0.296,0.958-1.825-0.56-4.006-1.035C24.987,28.295,23.208,29.313,23.259,28.875z"/>
	</g>
</g>
<g id="Layer_1">
</g>
</svg>
