<?xml version="1.0" encoding="iso-8859-1"?>
<!-- Generator: Adobe Illustrator 16.0.0, SVG Export Plug-In . SVG Version: 6.00 Build 0)  -->
<!DOCTYPE svg PUBLIC "-//W3C//DTD SVG 1.1//EN" "http://www.w3.org/Graphics/SVG/1.1/DTD/svg11.dtd">
<svg version="1.1" xmlns="http://www.w3.org/2000/svg" xmlns:xlink="http://www.w3.org/1999/xlink" x="0px" y="0px"
	 width="66.004px" height="66px" viewBox="0 0 66.004 66" style="enable-background:new 0 0 66.004 66;" xml:space="preserve">
<g id="Layer_63">
	<g>
		<defs>
			<circle id="SVGID_1_" cx="33.004" cy="33" r="33"/>
		</defs>
		<clipPath id="SVGID_2_">
			<use xlink:href="#SVGID_1_"  style="overflow:visible;"/>
		</clipPath>
		<rect style="clip-path:url(#SVGID_2_);fill:#FFFFFF;" width="66" height="65.999"/>
		<path style="clip-path:url(#SVGID_2_);fill:#313142;" d="M25.076,58.83l-2.622-4.164c-3.646,2.297-5.771,6.627-5.593,11.333h4.918
			c-0.001-0.02-0.006-0.039-0.007-0.059C21.619,62.935,22.885,60.21,25.076,58.83z"/>
		<path style="clip-path:url(#SVGID_2_);fill:#313142;" d="M44.679,54.666l-2.622,4.164c2.191,1.38,3.457,4.104,3.304,7.11
			c-0.001,0.02-0.006,0.039-0.007,0.059h4.918C50.449,61.293,48.325,56.963,44.679,54.666z"/>
		<path style="clip-path:url(#SVGID_2_);fill:#6E7073;" d="M41.4,53.193c-4.864-2.611-11.955-1.711-15.187,0.392
			c-3.882,2.525-3.621,6.488-2.703,12.414h20.338C44.854,60.124,45.196,55.231,41.4,53.193z"/>
		<path style="clip-path:url(#SVGID_2_);fill:#313142;" d="M21.521,55.412c-0.297,0.771,0.678,5.682,1.53,10.587h5.344
			c-0.029-4.288-0.414-9.277-1.659-13.325C26.736,52.674,21.932,54.346,21.521,55.412z"/>
		<path style="clip-path:url(#SVGID_2_);fill:#313142;" d="M45.611,55.412c-0.41-1.066-5.215-2.738-5.215-2.738
			c-1.245,4.048-1.63,9.037-1.659,13.325h5.344C44.934,61.094,45.908,56.184,45.611,55.412z"/>
		<path style="opacity:0.2;clip-path:url(#SVGID_2_);" d="M27.077,55.947c0.94,3.33,4.183,5.215,4.183,5.215l2.307-2.668
			l3.033,2.651c2.066-1.124,4.066-3.809,4.1-6.052C40.721,53.482,26.137,52.613,27.077,55.947z"/>
		<path style="clip-path:url(#SVGID_2_);fill:#9FA2A6;" d="M27.113,51.984c-2.582,3.668,3.939,8.301,3.939,8.301l2.533-2.106
			l2.879,2.202c0,0,5.9-3.429,3.809-8.027C38.391,48.217,29.713,48.291,27.113,51.984z"/>
		<path style="clip-path:url(#SVGID_2_);fill:#854422;" d="M38.244,48.686c-1.635-1.289-4.825-1.495-6.779-1.075
			c-2.037,0.438-3.391,2.335-3.531,4.287c-0.177,2.473,3.467,5.778,5.998,5.844C35.838,57.777,43.934,53.168,38.244,48.686z"/>
		<circle style="clip-path:url(#SVGID_2_);fill:#9FA2A6;" cx="33.706" cy="61.26" r="0.645"/>
		<circle style="clip-path:url(#SVGID_2_);fill:#9FA2A6;" cx="33.718" cy="64.172" r="0.645"/>
		<path style="clip-path:url(#SVGID_2_);fill:#854422;" d="M48.811,34.424c-1.542-0.652-2.498,0.384-2.984,2.448
			c-0.193,0.817-0.718,5.199-0.332,6.014c0.019,0.036,0.037,0.07,0.051,0.106c0.861,0.135,1.753,0.14,2.591-0.194
			C50.75,41.754,52.02,35.777,48.811,34.424z"/>
		<path style="clip-path:url(#SVGID_2_);fill:#70442D;" d="M17.498,21.221c-1.023,4.828-1.253,11.234,1.072,15.852
			c1.213,2.408,4.109,0.801,6.155,0.295c2.514-0.623,5.043-1.191,7.572-1.748c4.157-0.918,8.718-0.004,12.936,0.396
			c3.303,0.314,3.546,1.858,3.549-0.829c0.003-3.332,0.854-8.824,0.007-12.481C44.668,4.922,19.961,9.605,17.498,21.221z"/>
		<path style="clip-path:url(#SVGID_2_);fill:#9C552C;" d="M31.902,15.301c-11.783,1.604-13.646,12.382-12.498,22.945
			c0.86,7.913,6.707,16.727,15.884,16.323c9.362-0.413,14.327-11.878,13.381-21.605C47.642,22.388,45.366,13.468,31.902,15.301z"/>
		<path style="clip-path:url(#SVGID_2_);fill:#9C552C;" d="M16.804,33.758c-3.84,0.762-1.876,7.008,1.045,8.443
			c1.162,0.572,2.457,0.32,2.979-0.906c0.635-0.85,0.215-3.232-0.482-5.307C19.779,34.307,18.648,33.393,16.804,33.758z"/>
		<path style="opacity:0.7;clip-path:url(#SVGID_2_);fill:#66241B;" d="M18.09,35.883c-0.852-0.42-3.019,0.238-2.055,1.947
			c0.576-1.545,1.498-0.496,1.323,0.607c-0.117,0.742-0.917,0.731-0.149,1.709c0.416,0.527,1.291,0.358,1.738,0.095
			C20.366,39.398,19.128,36.395,18.09,35.883z"/>
		<path style="clip-path:url(#SVGID_2_);fill:#70442D;" d="M33.055,13.234c-9.557-0.079-16.353,6.782-15.719,20.461
			c0.398-0.011,1.216-0.011,1.811,0.574c0.791,0.778,0.764,1.629,0.98,2.061c0.1,0.219,0.215,0.58,0.971,0.543
			c-1.422-4.597-0.602-11.049,0.96-13.145c3.874-5.193,12.579,1.83,15.464,1.723c2.176-0.08,7.417-6.627,9.493-1.709
			C48.43,27.095,48.391,13.361,33.055,13.234z"/>
		<path style="clip-path:url(#SVGID_2_);fill:#261B18;" d="M27.183,30.805c-2.28-0.748-3.312,3.271-1.7,4.406
			c0.68-0.268,1.512-0.266,2.191-0.008C29.076,34.308,28.878,31.361,27.183,30.805z"/>
		<path style="opacity:0.7;clip-path:url(#SVGID_2_);fill:#66241B;" d="M36.669,38.236c-1.462-0.031-2.016-0.611-3.063-0.133
			c-1.045,0.472,0.339,2.152,2.932,2.16c2.581,0.008,3.771-1.438,3.261-2.008C39.205,37.593,38.292,38.275,36.669,38.236z"/>
		<path style="clip-path:url(#SVGID_2_);fill:#BF6C3C;" d="M36.139,32.764c-1.36,0.098-3.456,5.346-2.736,5.76
			c1.76,1.014,5.523,0.629,6.586-0.193C40.406,38.004,37.676,32.66,36.139,32.764z"/>
		<path style="clip-path:url(#SVGID_2_);fill:#261B18;" d="M46.593,30.81c-2.228-1.367-3.918,2.94-2.083,4.181
			c0.591-0.382,1.766-0.25,2.334,0.02C47.751,34.024,47.787,31.543,46.593,30.81z"/>
		<path style="opacity:0.7;clip-path:url(#SVGID_2_);fill:#E6D2C3;" d="M26.462,31.554c-0.863,0.384-0.029,2.054,0.782,1.345
			C27.829,32.389,27.229,31.214,26.462,31.554z"/>
		<path style="opacity:0.7;clip-path:url(#SVGID_2_);fill:#E6D2C3;" d="M45.711,31.273c-0.883,0.168-0.479,1.906,0.43,1.422
			C46.797,32.349,46.498,31.125,45.711,31.273z"/>
		<path style="clip-path:url(#SVGID_2_);fill:#261B18;" d="M40.489,29.043c0.38,0.897,2.132,0.346,2.675,0.035
			c1.017-0.582,1.806-0.594,2.922-0.302c0.256,0.068,2.725,0.597,2.949,0.089c-0.956-0.973-2.948-2.416-4.264-2.364
			C43.959,26.531,39.733,27.253,40.489,29.043z"/>
		<path style="clip-path:url(#SVGID_2_);fill:#261B18;" d="M25.857,26.938c-1.406-0.039-3.543,1.414-4.573,2.391
			c0.235,0.502,2.834,0.08,3.108,0.011c1.193-0.302,2.58-0.602,3.659-0.032c0.574,0.303,1.933,1.014,2.347,0.119
			C31.222,27.637,26.721,26.959,25.857,26.938z"/>
		<path style="clip-path:url(#SVGID_2_);fill:#BF6C3C;" d="M47.803,37.088c-0.63-0.87-1.945-1.021-2.883-1.012
			c-1.223,0.012-2.843,0.482-1.715,2.209c0.602,0.918,5.49,1.512,4.877-0.621C48.018,37.443,47.924,37.254,47.803,37.088z"/>
		<path style="clip-path:url(#SVGID_2_);fill:#BF6C3C;" d="M28.908,36.642c-0.842-0.751-2.224-0.61-3.184-0.39
			c-1.252,0.285-2.805,1.132-1.26,2.646c0.82,0.807,5.965,0.316,4.857-1.73C29.207,36.959,29.067,36.783,28.908,36.642z"/>
		<path style="clip-path:url(#SVGID_2_);fill:#D47B48;" d="M26.466,40.479c0,0,1.831,10.434,9.272,10.324
			c4.131-0.06,5.533-2.4,6.982-5.916c0.686-1.659,0.89-3.457,1.935-4.721C42.498,41.999,32.779,43.91,26.466,40.479z"/>
		<path style="opacity:0.7;clip-path:url(#SVGID_2_);fill:#66241B;" d="M43.17,40.377c-0.225,0.168,0.275,0.053,0.955-0.062
			c0.674-0.116,0.445,1.011,0.865,0.894c0.417-0.115,0.527-0.93,0.029-1.356C44.523,39.426,43.17,40.377,43.17,40.377z"/>
		<path style="opacity:0.7;clip-path:url(#SVGID_2_);fill:#66241B;" d="M26.299,40.132c-0.6,0.165-0.909,1.2-0.522,1.376
			c0.386,0.173,0.585-0.752,1.239-0.924c0.7-0.184,1.55,0.057,1.353-0.142C28.368,40.442,26.972,39.947,26.299,40.132z"/>
		<path style="clip-path:url(#SVGID_2_);fill:#78231F;" d="M27.841,41.665c0,0,2.282,6.067,8.062,6.274
			c2.869,0.104,4.696-2.03,5.49-3.619c0.887-1.77,2.057-2.937,2.057-2.937C35.188,46.795,27.841,41.665,27.841,41.665z"/>
		<path style="clip-path:url(#SVGID_2_);fill:#FFF7EA;" d="M27.841,41.665c0,0,1.692,2.522,3.677,3.351
			c2.549,1.061,4.844,1.156,7.678,0.461c1.909-0.468,4.254-4.093,4.254-4.093S36.922,45.916,27.841,41.665z"/>
		<path style="clip-path:url(#SVGID_2_);fill:#FFF7EA;" d="M36.515,45.561c-2.646-0.018-4.07-0.583-5.326-1.115
			c-1.049-0.441-0.884,0.627-0.671,1.148c0,0,1.079,1.893,4.906,2.313c3.604,0.395,5.208-2.398,4.718-2.961
			C39.648,44.382,39.166,45.58,36.515,45.561z"/>
		<path style="clip-path:url(#SVGID_2_);fill:#ECDCC4;" d="M27.841,41.665c0,0,0.843,1.36,1.608,1.896c0,0,6.615,1.457,12.708-0.445
			c0,0,1.208-1.242,1.292-1.731C43.449,41.384,36.695,45.841,27.841,41.665z"/>
		<path style="clip-path:url(#SVGID_2_);fill:#ECDCC4;" d="M30.455,44.441c5.766,3.406,9.26,0.73,9.26,0.73
			C34.673,46.365,30.455,44.441,30.455,44.441z"/>
		<path style="opacity:0.2;clip-path:url(#SVGID_2_);" d="M45.484,38.418c-0.35-0.139-0.91-0.033-1.277-0.047
			c-0.537-0.021-1.084-0.025-1.613-0.127c-0.679-0.131-1.361-0.424-1.936-0.865c-0.403-0.31-0.754-0.693-1.011-1.143
			c-0.534-0.941-0.566-2.095-0.224-3.115c0.471-1.409,1.925-1.529,3.129-1.646c1.521-0.146,3.065-0.076,4.558-0.381
			c0.184-0.037-0.065-1.305-0.122-1.441c-0.18-0.433-0.464-0.732-0.89-0.875c-1.185-0.393-2.716,0.135-3.861,0.461
			c-1.145,0.326-2.493,0.48-3.546,1.068c-0.971,0.541-1.379,0.895-2.557,0.849c-2.105-0.081-4.145-1.46-6.373-1.681
			c-2.322-0.23-4.699-0.489-6.982,0.154c-0.594,0.167-2.389,0.856-1.17,1.489c1.188,0.616,2.961,0.409,4.26,0.452
			c0.6,0.021,1.203,0.033,1.801,0.084c2.122,0.184,5.384-0.127,5.229,2.523c-0.106,1.819-1.269,3.691-2.744,4.041
			c-1.415,0.336-2.932,0.471-4.365,0.473c-1.098,0-2.158-0.206-3.164-0.664c-0.284-0.129-1.137-0.667-1.41-0.281
			c-0.464,0.653,1.268,1.728,1.721,1.93c1.033,0.459,2.133,0.594,3.255,0.707c2.767,0.283,5.614,0.12,7.164-2.432
			c0.897-1.479,1.343-3.215,2.173-4.732c1.36-2.485,1.968,0.873,2.387,2.342c0.232,0.826,0.571,1.625,1.051,2.32
			c0.85,1.227,2.512,1.885,3.897,1.946c0.856,0.038,3.704,0.634,4.563-1.103C47.668,38.234,46.067,38.646,45.484,38.418z"/>
		<path style="clip-path:url(#SVGID_2_);fill:#D9C9B2;" d="M20.382,29.404c-1.819,0.177-3.407-0.232-3.813,0.162
			c-0.528,0.516,0.554,2.078,0.554,2.078s0.605,0.371,1.463,0.387c0.201,1.26,0.342,4.534,2.797,6.447
			c2.051,1.6,8.417,1.688,10.324,0.57c2.361-1.385,3.256-3.729,3.543-6.002C35.952,27.473,22.947,29.156,20.382,29.404z
			 M31.504,37.131c-2.174,1.611-8.02,1.295-9.646-0.473c-1.254-1.363-1.654-4.355-0.971-4.829c2.089-1.448,10.29-1.474,12.273-0.151
			C34.119,32.316,33.152,35.909,31.504,37.131z"/>
		<path style="clip-path:url(#SVGID_2_);fill:#D9C9B2;" d="M49.843,28.463c-2.194-0.074-13.343-0.881-12.448,4.631
			c0.365,2.252,1.25,4.528,3.33,5.752c1.684,0.988,7.092,0.471,8.75-1.262c1.987-2.074,1.932-5.352,2.035-6.619
			c0.729-0.074,1.225-0.486,1.225-0.486s0.836-1.633,0.359-2.109C52.727,28.004,51.398,28.516,49.843,28.463z M49.074,35.766
			c-1.287,1.867-6.227,2.574-8.156,1.115c-1.464-1.105-2.477-4.614-1.695-5.316c1.61-1.447,8.569-1.973,10.419-0.67
			C50.246,31.32,50.066,34.325,49.074,35.766z"/>
		<path style="opacity:0.3;clip-path:url(#SVGID_2_);fill:#FFFFFF;" d="M40.274,31.254c-1.231,0.516,0.954,1.271,1.426,1.359
			c1.639,0.314,3.507,0.254,5.269-0.033c0.928-0.15,2.931-0.975,2.377-1.532C48.573,30.27,41.635,30.687,40.274,31.254z"/>
		<path style="clip-path:url(#SVGID_2_);fill:#FFFFFF;" d="M45.709,31.112c-0.664,0.09-1.1,0.28-0.928,0.6
			c0.339,0.631,4.22,0.403,4.496-0.063C49.549,31.193,47.12,30.922,45.709,31.112z"/>
		<path style="opacity:0.7;clip-path:url(#SVGID_2_);fill:#FFFFFF;" d="M41.53,35.933c-0.417-0.016-0.705,0.079-0.63,0.354
			c0.145,0.545,2.553,0.873,2.77,0.541C43.881,36.5,42.416,35.967,41.53,35.933z"/>
		<path style="opacity:0.7;clip-path:url(#SVGID_2_);fill:#FFFFFF;" d="M23.292,36.351c-0.464-0.044-0.79,0.03-0.728,0.313
			c0.121,0.553,2.785,1.039,3.051,0.721C25.874,37.072,24.276,36.441,23.292,36.351z"/>
		<path style="opacity:0.3;clip-path:url(#SVGID_2_);fill:#FFFFFF;" d="M32.517,31.508c-1.664-0.475-9.784-0.56-10.569,0.21
			c-0.565,0.551,1.887,1.237,2.984,1.338c2.09,0.192,4.268,0.165,6.127-0.202C31.593,32.748,34.022,31.938,32.517,31.508z"/>
		<path style="clip-path:url(#SVGID_2_);fill:#FFFFFF;" d="M28.975,31.266c-0.744,0.072-1.239,0.25-1.057,0.576
			c0.359,0.641,4.704,0.512,5.027,0.053C33.265,31.444,30.557,31.111,28.975,31.266z"/>
		<path style="clip-path:url(#SVGID_2_);fill:#D9C9B2;" d="M39.006,29.802c-1.729,0.571-3.417,0.769-5.701,0.15
			c-1.824-0.493,0.963,1.093,1.176,2.015c0.214,0.921-0.038,3.917,0.568,2.23c0.605-1.688,1.758-1.76,2.519-0.221
			c0.758,1.541,0.806-2.521,1.106-2.9C38.977,30.697,40.684,29.247,39.006,29.802z"/>
		<path style="clip-path:url(#SVGID_2_);fill:#FFFFFF;" d="M21.271,29.891c4.936-0.068,8.875-0.182,11.921,0.773
			C31.151,29.195,27.792,29.06,21.271,29.891z"/>
		<path style="clip-path:url(#SVGID_2_);fill:#FFFFFF;" d="M49.436,28.879c-5.678,0.021-8.323-0.025-9.896,1.451
			C42.033,29.178,45.204,29.373,49.436,28.879z"/>
	</g>
</g>
<g id="Layer_1">
</g>
</svg>
