<?xml version="1.0" encoding="iso-8859-1"?>
<!-- Generator: Adobe Illustrator 16.0.0, SVG Export Plug-In . SVG Version: 6.00 Build 0)  -->
<!DOCTYPE svg PUBLIC "-//W3C//DTD SVG 1.1//EN" "http://www.w3.org/Graphics/SVG/1.1/DTD/svg11.dtd">
<svg version="1.1" xmlns="http://www.w3.org/2000/svg" xmlns:xlink="http://www.w3.org/1999/xlink" x="0px" y="0px"
	 width="66.011px" height="66px" viewBox="0 0 66.011 66" style="enable-background:new 0 0 66.011 66;" xml:space="preserve">
<g id="Layer_25">
	<g>
		<defs>
			<circle id="SVGID_1_" cx="33.011" cy="33" r="33"/>
		</defs>
		<clipPath id="SVGID_2_">
			<use xlink:href="#SVGID_1_"  style="overflow:visible;"/>
		</clipPath>
		<rect style="clip-path:url(#SVGID_2_);fill:#A55A86;" width="66" height="65.999"/>
		<path style="clip-path:url(#SVGID_2_);fill:#D47844;" d="M29.1,55.891c0.85-0.103,1.455-0.887,1.355-1.751
			c-0.101-0.866-0.875-1.482-1.719-1.381c-3.538,0.427-4.191,3.647-4.717,6.235c-0.313,1.539-1.296,5.185-1.908,7.005h3.326
			c0.6-1.769,1.385-5.237,1.613-6.366C27.614,56.856,27.951,56.03,29.1,55.891z"/>
		<path style="clip-path:url(#SVGID_2_);fill:#D47844;" d="M38.883,52.759c-0.844-0.102-1.618,0.515-1.719,1.381
			c-0.1,0.864,0.506,1.648,1.355,1.751c1.148,0.14,1.485,0.966,2.049,3.742c0.229,1.129,1.014,4.598,1.613,6.366h3.326
			c-0.612-1.82-1.596-5.466-1.908-7.005C43.074,56.406,42.421,53.186,38.883,52.759z"/>
		<linearGradient id="SVGID_3_" gradientUnits="userSpaceOnUse" x1="33.8096" y1="49.3672" x2="33.8096" y2="54.5645">
			<stop  offset="0" style="stop-color:#C25421"/>
			<stop  offset="1" style="stop-color:#D47844"/>
		</linearGradient>
		<path style="clip-path:url(#SVGID_2_);fill:url(#SVGID_3_);" d="M37.22,51.788c-2.163-0.945-0.705-3.531-3.541-3.531
			c-2.793,0-1.535,2.914-3.563,3.68c-4.717,1.784-4.682,4.521-1.889,7.313c2.791,2.789,7.699,3.199,11.531-0.271
			C43.585,55.51,39.386,52.731,37.22,51.788z"/>
		<path style="clip-path:url(#SVGID_2_);fill:#765AA3;" d="M39.61,61.436c1.988-4.456-0.098-6.81-1.144-9.194
			c-0.188-0.158-1.077-0.561-1.274-0.587c0.39,1.747,0.987,5.996-3.383,5.996c-4.419,0-3.988-3.515-3.673-5.87
			c-0.276-0.013-0.692,0.18-0.956,0.439c-1.234,3.754-3.295,4.807-1.4,9.343c0.477,1.138,1.158,3.021,1.124,4.437h9.379
			C38.326,64.426,38.988,62.826,39.61,61.436z"/>
		<path style="opacity:0.1;clip-path:url(#SVGID_2_);" d="M29.698,62.175c0.443,0.743,1.785,0.735,2.838,0.932
			c-0.181,0.025-0.361,0.094-0.551,0.125c1.265,0.348,3.029,0.08,4.289-0.287c0.398-0.119,1.482-0.791,1.693-0.816
			c-1.487,0.171-2.875,0.295-4.38,0.265C32.263,62.366,30.983,62.196,29.698,62.175z"/>
		<path style="clip-path:url(#SVGID_2_);fill:#BBA7DB;" d="M36.851,51.19c-0.256,0.058-0.417,0.313-0.359,0.568
			c0.199,0.892,0.729,3.26-0.274,4.514c-0.479,0.599-1.29,0.902-2.407,0.902c-1.225,0-2.098-0.287-2.592-0.855
			c-0.846-0.971-0.604-2.727-0.409-4.139l0.041-0.301c0.035-0.26-0.147-0.499-0.408-0.535c-0.257-0.03-0.499,0.148-0.534,0.409
			l-0.04,0.296c-0.222,1.604-0.497,3.598,0.633,4.895c0.684,0.783,1.798,1.182,3.31,1.182c1.421,0,2.48-0.424,3.15-1.259
			c1.289-1.61,0.686-4.304,0.459-5.317C37.361,51.294,37.107,51.132,36.851,51.19z"/>
		<path style="clip-path:url(#SVGID_2_);fill:#BBA7DB;" d="M28.992,52.047c-0.249-0.079-0.518,0.054-0.6,0.304
			c-0.304,0.921-0.616,1.646-0.892,2.285c-0.497,1.155-0.89,2.067-0.959,3.415c-0.014,0.263,0.189,0.486,0.451,0.499
			c0.008,0.001,0.017,0.001,0.024,0.001c0.251,0,0.462-0.197,0.475-0.451c0.06-1.177,0.405-1.979,0.882-3.087
			c0.284-0.658,0.605-1.404,0.921-2.365C29.378,52.397,29.242,52.13,28.992,52.047z"/>
		<path style="clip-path:url(#SVGID_2_);fill:#BBA7DB;" d="M39.067,52.351c-0.082-0.249-0.349-0.383-0.601-0.304
			c-0.249,0.083-0.385,0.351-0.303,0.601c0.315,0.961,0.638,1.707,0.921,2.365c0.477,1.109,0.82,1.91,0.88,3.086
			c0.012,0.255,0.223,0.452,0.474,0.452c0.008,0,0.017,0,0.024-0.001c0.263-0.013,0.465-0.236,0.452-0.498
			c-0.067-1.348-0.46-2.26-0.957-3.414C39.683,53.997,39.37,53.272,39.067,52.351z"/>
		<path style="opacity:0.07;clip-path:url(#SVGID_2_);fill:#FFFFFF;" d="M36.864,57.843c-2.154,0.736-4.765,0.441-6.963-0.082
			c-1.265-0.297-1.982,1.082-1.598,2.254c0.51,1.557,3.135,1.953,5.426,1.912c4.512-0.083,6.211-1.698,5.451-3.61
			C38.98,57.8,38.016,57.453,36.864,57.843z"/>
		<path style="clip-path:url(#SVGID_2_);fill:#231E1A;" d="M33.524,10.243c-5.471-6.433-17.322,1.068-21.869,4.832
			C5.836,19.894-1.835,30.233,6.16,29.964c-1.749,2.07-2.501,6.272,0.731,6.98c-1.303,2.2-0.502,4.844,2.315,4.96
			c-0.369,2.624,1.699,4.268,4.261,3.426c0.824,2.54,3.422,2.961,5.252,1.392c1.685,6.494,10.354-3.664,16.23-3.777
			c5.303-0.103,14.434,9.586,14.467,2.105c1.782,1.354,4.47,0.985,4.223-2.219c2.441,1.805,5.48-0.535,4.138-2.979
			c2.901,0.819,3.128-2.438,1.971-4.624c3.059,0.772,3.11-3.186,0.826-4.473c4.845,0.009,2.035-4.915,0.739-7.597
			C57.866,16.036,41.853,0.695,33.524,10.243z"/>
		
			<ellipse transform="matrix(-0.1075 -0.9942 0.9942 -0.1075 13.8669 88.9969)" style="clip-path:url(#SVGID_2_);fill:#F06799;" cx="46.879" cy="38.274" rx="1.326" ry="1.111"/>
		<path style="clip-path:url(#SVGID_2_);fill:#D47844;" d="M32.174,14.906c-7.931,0.854-13.901,7.89-13.081,18.875
			c0.822,10.985,8.041,17.663,16.015,17.758c6.122,0.069,13.337-10.153,12.166-21.104C46.117,19.626,40.102,14.052,32.174,14.906z"
			/>
		<path style="clip-path:url(#SVGID_2_);fill:#D47844;" d="M16.279,30.935c-3.509,1.674-1.669,7.754,1.337,8.617
			c0.965,0.276,1.965,0.193,2.918-0.018c0.018-0.037,0.033-0.075,0.051-0.115c0.378-0.874-0.656-4.949-0.931-5.781
			C18.964,31.544,17.962,30.131,16.279,30.935z"/>
		<path style="opacity:0.3;clip-path:url(#SVGID_2_);fill:#661004;" d="M18.372,33.04c-0.969-0.5-3.432,0.207-2.326,2.187
			c0.646-1.758,1.701-0.538,1.508,0.726c-0.131,0.846-1.04,0.814-0.161,1.951c0.474,0.611,1.468,0.438,1.975,0.145
			C20.976,37.112,19.554,33.647,18.372,33.04z"/>
		
			<ellipse transform="matrix(-0.0424 -0.9991 0.9991 -0.0424 -19.9649 60.6828)" style="clip-path:url(#SVGID_2_);fill:#F06799;" cx="19.1" cy="39.91" rx="1.326" ry="1.113"/>
		<path style="opacity:0.2;clip-path:url(#SVGID_2_);fill:#661004;" d="M41.804,15.432c-4.311-0.257-8.833,0.109-13.002,1.264
			c-6.559,1.812-11.511,9.157-10.789,15.978c0.237,2.239,1.144,8.562,3.697,5.418c1.516-1.865,0.62-6.189-0.085-8.234
			c1.657,0.795,2.501-2.482,2.4-4.055c3.819,3.428,7.261-9.381,13.327-4.338c1.453,1.209,3.193,4.232,4.798,3.832
			c1.604-0.402,1.124-1.559,1.186-2.479c0.517,1.316,2.118,2.576,3.074,2.109c1.682-0.822,0.868-4.949,0.665-6.295
			C46.665,15.913,44.109,15.569,41.804,15.432z"/>
		<path style="clip-path:url(#SVGID_2_);fill:#231E1A;" d="M43.175,14.044c-7.739-3.333-15.494-1.069-22.637,2.555
			c-1.552,0.787-2.85,2.032-3.672,3.563c-1.502,2.794-0.016,9.901,1.489,15.616c0.755,2.863,1.902,3.514,2.8,0.882
			c0.613-1.801-0.245-5.855-0.022-9.124c0.169,0.938,0.501,2.115,1.499,1.801s0.896-3.59,1.063-5.598
			c1.075,4.268,6.598-2.674,7.824-3.653c3.423-2.729,4.717-1.188,7.195,1.241c1.137,1.113,2.4,3.314,3.672,2.746
			c0.996-0.445,0.686-2.211,0.728-3.178c0.495,1.341,1.548,2.564,2.838,3.315c1.183,0.689,2.318-1.976,0.989-5.628
			C46.235,16.648,45.093,14.87,43.175,14.044z"/>
		<path style="clip-path:url(#SVGID_2_);fill:#423631;" d="M35.858,14.241c-0.015-0.023-0.029-0.042-0.044-0.065
			c0.007,0.012,0.006,0.028,0.013,0.04C35.847,14.251,35.864,14.263,35.858,14.241z"/>
		<path style="clip-path:url(#SVGID_2_);fill:#423631;" d="M49.853,12.804c-2.361-1.621-5.309-3.198-8.2-3.556
			c-1.45-0.181-2.97-0.021-4.152,0.928c-0.777,0.625-2.266,2.885-1.686,4c0.015,0.023,0.029,0.042,0.044,0.065
			c0.006,0.021-0.012,0.01-0.031-0.025c-0.007-0.012-0.006-0.028-0.013-0.04c-7.03-11.466-20.842,0.006-26.821,6.415
			c-1.378,1.477-5.012,4.667-3.117,6.035c1.895,1.369,8.963-6.55,11.965-8.656c-1.449,1.23-7.037,6.799-5.823,8.939
			c1.349,2.384,5.329-2.829,6.653-4.227c-0.886,1.451-1.742,4.881-0.467,5.195c1.275,0.313,2.611-3.171,3.354-4.969
			c-0.221,0.929-0.779,3.55,0.322,3.551c1.103,0.001,1.377-4.742,2.187-6.789c0.212,5.282,5.039-1.11,6.328-2.098
			c2.749-2.108,3.817-2.256,6.7-0.316c1.506,1.014,2.653,3.752,4.084,3.704c1.428-0.049,1.322-2.514,0.953-3.991
			c0.836,1.864,3.819,7.241,4.58,2.459c0.78,3.131,6.863,11.892,5.26,4.02c0.579,1.443,3.275,5.596,5.137,4.162
			c1.736-1.338-3.313-6.68-2.48-7.304c0.722,1.017,2.344,2.854,3.633,1.476C59.755,20.182,50.747,13.421,49.853,12.804z"/>
		<path style="clip-path:url(#SVGID_2_);fill:#1A1614;" d="M29.066,31.571c-2.098-0.682-3.036,3.016-1.551,4.059
			c0.623-0.246,1.389-0.246,2.015-0.014C30.818,34.79,30.628,32.081,29.066,31.571z"/>
		<path style="clip-path:url(#SVGID_2_);fill:#1A1614;" d="M44.162,31.155c-2.08-1.1-3.776,3.217-1.48,3.758
			c0.543-0.352,1.205-0.371,1.794-0.309C45.238,33.673,45.276,31.747,44.162,31.155z"/>
		<path style="clip-path:url(#SVGID_2_);fill:#2B241E;" d="M44.026,28.168c-1.198-0.063-3.652,0.276-4.843,0.083
			c0.403,1.682,1.354,1.781,2.833,1.604c1.849-0.221,4.732-0.113,5.392,0.17C46.842,28.655,45.045,28.222,44.026,28.168z"/>
		<path style="clip-path:url(#SVGID_2_);fill:#2B241E;" d="M27.162,28.665c-1.118,0.084-3.071,0.572-3.625,1.957
			c0.71-0.303,3.876-0.496,5.919-0.332c1.634,0.133,2.676,0.006,3.033-1.689C31.189,28.831,28.476,28.563,27.162,28.665z"/>
		<path style="opacity:0.3;clip-path:url(#SVGID_2_);fill:#661004;" d="M36.601,38.251c-0.74,0.079-1.071-0.202-1.557,0.133
			c-0.484,0.335,0.756,1.23,1.664,1.065c1.026-0.185,1.781-1.118,1.471-1.4C37.82,37.72,37.421,38.16,36.601,38.251z"/>
		<path style="clip-path:url(#SVGID_2_);fill:#1A1614;" d="M23.315,32.64c0,0,2.238,2.053,4.756,0.189l-0.318-1.063
			C27.753,31.767,25.784,33.933,23.315,32.64z"/>
		<path style="clip-path:url(#SVGID_2_);fill:#1A1614;" d="M44.218,31.217l-0.303,0.95c2.602,1.776,4.285,0.02,4.285,0.02
			C46.259,33.059,44.218,31.217,44.218,31.217z"/>
		<path style="clip-path:url(#SVGID_2_);fill:#A88686;" d="M28.138,32.206c-0.792,0.353-0.021,1.889,0.723,1.233
			C29.398,32.968,28.843,31.89,28.138,32.206z"/>
		<path style="clip-path:url(#SVGID_2_);fill:#A88686;" d="M43.151,31.603c-0.786,0.197-0.323,1.731,0.465,1.248
			C44.187,32.503,43.848,31.427,43.151,31.603z"/>
		<path style="clip-path:url(#SVGID_2_);fill:#D4502C;" d="M43.741,36.458c-1.137,0.117-1.991,0.832-1.91,1.596
			c0.082,0.764,1.068,1.291,2.206,1.175c1.136-0.117,1.99-0.831,1.909-1.595C45.864,36.868,44.878,36.343,43.741,36.458z"/>
		<path style="clip-path:url(#SVGID_2_);fill:#D4502C;" d="M27.259,37.187c-1.255-0.079-2.318,0.543-2.375,1.387
			c-0.057,0.846,0.914,1.594,2.169,1.672c1.255,0.08,2.319-0.542,2.375-1.389C29.485,38.013,28.513,37.265,27.259,37.187z"/>
		<path style="opacity:0.7;clip-path:url(#SVGID_2_);fill:#66241B;" d="M26.7,41.401c1.014,1.831,3.322,0.858,2.277-1.008
			C28.615,41.354,27.532,41.776,26.7,41.401z"/>
		<path style="opacity:0.7;clip-path:url(#SVGID_2_);fill:#66241B;" d="M42.097,39.67c-0.459,1.985,2.093,2.587,2.53,0.647
			C43.927,40.81,42.741,40.556,42.097,39.67z"/>
		<path style="clip-path:url(#SVGID_2_);fill:#611F16;" d="M43.218,40.646c-0.295-0.091-0.603,0.051-0.686,0.314
			c-0.844,2.679-3.571,4.508-6.806,4.584c-3.113,0.076-5.655-1.512-6.741-3.674c-0.128-0.257-0.459-0.383-0.736-0.282
			c-0.279,0.103-0.4,0.397-0.273,0.651c1.247,2.484,4.081,4.301,7.547,4.309c0.098-0.002,0.195-0.002,0.293-0.003
			c3.723-0.091,6.811-2.171,7.787-5.267C43.685,41.018,43.513,40.738,43.218,40.646z"/>
		<path style="clip-path:url(#SVGID_2_);fill:#3A3A4A;" d="M38.208,30.401c-1.045,1.128-0.432,4.816,0.288,6.013
			c0.726,1.199,8.076,1.189,9.842,0.566c1.762-0.62,3.124-4.937,1.827-6.627C48.869,28.665,39.741,28.743,38.208,30.401z
			 M47.914,36.176c-1.327,0.437-7.893,0.451-8.528-0.327c-0.635-0.78-0.926-4.096-0.184-4.861c1.092-1.123,8.785-1.113,9.92-0.017
			C50.253,32.065,49.237,35.737,47.914,36.176z"/>
		<path style="clip-path:url(#SVGID_2_);fill:#3A3A4A;" d="M20.387,31.095c-1.326,1.185,0.137,4.953,1.291,6.092
			c1.161,1.139,9.665,0.492,11.362-0.206c1.703-0.696,1.625-4.832,0.141-6.444C31.694,28.923,22.334,29.356,20.387,31.095z
			 M32.314,36.278c-1.271,0.471-8.637,0.957-9.622,0.246c-0.984-0.709-2.152-4.036-1.215-4.812c1.377-1.138,9.51-1.563,10.763-0.562
			C33.491,32.155,33.588,35.802,32.314,36.278z"/>
		<path style="clip-path:url(#SVGID_2_);fill:#3A3A4A;" d="M34.175,32.708c-0.185,0.082-0.933,1.06-0.385,1.275
			c0.135,0.055,1.705-1.224,4.182-0.383c0.315,0.109,0.612,0.073,0.499-0.305C38.053,31.882,35.286,32.194,34.175,32.708z"/>
		<path style="opacity:0.3;clip-path:url(#SVGID_2_);fill:#FFFFFF;" d="M43.786,30.44c-0.496,0.125-3.881,0.763-3.217,2.168
			c0.436,0.928,8.34,1.418,8.843-0.146C50.438,29.274,44.757,30.194,43.786,30.44z"/>
		<path style="opacity:0.3;clip-path:url(#SVGID_2_);fill:#FFFFFF;" d="M31.662,30.669c-1.296-0.337-4.022-0.089-5.596,0.178
			c-0.563,0.094-3.16,0.525-2.238,2.014c0.941,1.518,7.479,1.627,8.655,0.327C33.635,31.911,32.42,30.866,31.662,30.669z"/>
		<path style="clip-path:url(#SVGID_2_);fill:#FFFFFF;" d="M44.339,30.668c-0.85,0.044-1.426,0.222-1.237,0.603
			c0.375,0.754,5.351,0.84,5.745,0.331C49.237,31.104,46.162,30.577,44.339,30.668z"/>
		<path style="opacity:0.7;clip-path:url(#SVGID_2_);fill:#FFFFFF;" d="M40.585,34.843c-0.525-0.051-0.902,0.035-0.83,0.357
			c0.142,0.633,3.189,1.189,3.493,0.825C43.546,35.667,41.716,34.945,40.585,34.843z"/>
		<path style="clip-path:url(#SVGID_2_);fill:#FFFFFF;" d="M28.057,30.847c-0.837,0.053-1.399,0.227-1.204,0.572
			c0.384,0.685,5.267,0.684,5.646,0.211C32.872,31.167,29.842,30.733,28.057,30.847z"/>
		<path style="opacity:0.7;clip-path:url(#SVGID_2_);fill:#FFFFFF;" d="M23.161,35.351c-0.521-0.037-0.885,0.047-0.813,0.341
			c0.156,0.583,3.158,1.042,3.447,0.702C26.084,36.06,24.271,35.428,23.161,35.351z"/>
	</g>
</g>
<g id="Layer_1">
</g>
</svg>
