<?xml version="1.0" encoding="iso-8859-1"?>
<!-- Generator: Adobe Illustrator 16.0.0, SVG Export Plug-In . SVG Version: 6.00 Build 0)  -->
<!DOCTYPE svg PUBLIC "-//W3C//DTD SVG 1.1//EN" "http://www.w3.org/Graphics/SVG/1.1/DTD/svg11.dtd">
<svg version="1.1" xmlns="http://www.w3.org/2000/svg" xmlns:xlink="http://www.w3.org/1999/xlink" x="0px" y="0px"
	 width="66.012px" height="66px" viewBox="0 0 66.012 66" style="enable-background:new 0 0 66.012 66;" xml:space="preserve">
<g id="Layer_13">
	<g>
		<defs>
			<circle id="SVGID_1_" cx="33.012" cy="33" r="33"/>
		</defs>
		<clipPath id="SVGID_2_">
			<use xlink:href="#SVGID_1_"  style="overflow:visible;"/>
		</clipPath>
		<rect style="clip-path:url(#SVGID_2_);fill:#D6BB40;" width="66" height="65.998"/>
		<path style="clip-path:url(#SVGID_2_);fill:#8E9194;" d="M39.336,53.385c-3.763-1.519-9.78-1.026-12.92,0.063
			c-1.974,0.685-1.654,7.096-1.387,12.551h15.768C41.083,60.574,41.356,54.2,39.336,53.385z"/>
		<path style="clip-path:url(#SVGID_2_);fill:#9FA2A6;" d="M27.188,52.431c-1.912,3.078,5.724,6.243,5.724,6.243
			s6.751-2.941,6.027-5.725C38.081,49.653,28.905,49.664,27.188,52.431z"/>
		<path style="clip-path:url(#SVGID_2_);fill:#F5B28C;" d="M32.833,48.463c-1.981-0.003-4.776,1.003-4.976,3.645
			c-0.092,1.229,0.118,1.941,0.852,2.624c1.172,1.09,2.622,1.974,4.124,2c1.502-0.026,2.953-0.91,4.126-2
			c0.732-0.683,0.943-1.395,0.85-2.624C37.61,49.466,34.816,48.46,32.833,48.463z"/>
		<path style="clip-path:url(#SVGID_2_);fill:#4F3023;" d="M43.821,9.073c-8.129-2.089-21.965-1.11-26.891,5.584
			c-1.391,1.89-2.156,4.213-1.684,6.524c0.505,2.464,2.204,4.15,4.931,3.465c1.419-0.356,2.322-0.186,3.706,0.339
			c1.457,0.552,2.798,1.393,4.299,1.821c2.568,0.734,5.326,0.421,7.855,1.283c2.428,0.828,4.563,1.098,7.149,0.326
			c2.268-0.677,4.799-1.043,5.173-3.75c0.55,0.701,0.52,1.742,0.364,2.575c1.521-0.911,2.774-2.76,3.091-3.612
			c1.1-2.971,0.896-5.937-0.296-8.435C50.129,12.275,47.394,9.991,43.821,9.073z"/>
		<path style="clip-path:url(#SVGID_2_);fill:#FFCB9E;" d="M29.774,14.763c-7.835,1.528-13.356,12.795-11.919,23.364
			c1.079,7.917,7.185,16.603,16.383,15.949c9.384-0.668,14.054-12.309,12.841-22.044C45.761,21.447,40.749,12.623,29.774,14.763z"/>
		<path style="opacity:0.3;clip-path:url(#SVGID_2_);fill:#BF3C1B;" d="M40.104,16.686c-3.03-0.881-6.163-1.369-9.328-1.424
			c-2.809-0.048-5.858-0.2-8.476,0.95c-1.438,0.633-3.205,1.498-3.743,3.045c-0.44,1.266-0.963,2.942-0.257,4.052
			c1.497,2.353,4.422,0.945,5.528,0.371c2.405-1.246,13.333-0.396,18.431-0.404c2.119-0.004,5.18-0.373,4.301-3.232
			C45.866,17.784,42.104,17.267,40.104,16.686z"/>
		<path style="clip-path:url(#SVGID_2_);fill:#FFCB9E;" d="M15.122,33.724c-3.848,1.061-2.304,6.678,0.839,7.805
			c1.007,0.362,2.078,0.411,3.108,0.339c0.02-0.032,0.041-0.063,0.061-0.096c0.462-0.73-0.183-4.825-0.418-5.596
			C18.119,34.233,16.969,33.216,15.122,33.724z"/>
		<path style="opacity:0.3;clip-path:url(#SVGID_2_);fill:#C94614;" d="M16.473,35.792c-0.865-0.398-3.023,0.319-2.009,2.01
			c0.535-1.566,1.49-0.539,1.344,0.574c-0.098,0.748-0.9,0.758-0.104,1.717c0.433,0.52,1.307,0.326,1.747,0.049
			C18.853,39.259,17.527,36.278,16.473,35.792z"/>
		<path style="clip-path:url(#SVGID_2_);fill:#4F3023;" d="M44.101,12.76c-0.545-0.527-1.197-0.958-1.912-1.304
			c-1.815-0.877-4.033-1.209-5.92-1.199c-1.579,0.009-3.137-0.331-4.729-0.32c-1.742,0.011-3.481,0.208-5.197,0.496
			c-2.004,0.336-4.134,0.828-5.927,1.8c-1.561,0.848-2.182,2.841-2.902,4.353c-0.325,0.684-0.282,1.615-0.326,2.349
			c-0.076,1.287-0.113,2.658-0.052,3.944c0.109,2.313,3.22,2.669,4.529,1.011c1.122-1.417,2.695-1.783,4.49-1.849
			c2.974-0.109,14.617-0.658,17.352,0.277c1.499,0.514,3.491,1.292,3.792-1.094c0.163-1.302-0.359-2.996-0.791-4.234
			C45.978,15.474,45.285,13.908,44.101,12.76z"/>
		<path style="clip-path:url(#SVGID_2_);fill:#693A27;" d="M46.143,11.661c-3.908-2.218-9.138-2.347-13.477-2.135
			c-3.707,0.181-7.061,1.168-10.435,2.788c-3.484,1.675-4.541,5.405-4.029,7.257c1.351-1.984,5.15-3.918,6.893-4.101
			c-0.181,0.901-1.839,2.685-2.178,3.531c1.402-0.804,8.235-3.853,10.018-3.832c-0.597,0.674-1.941,1.541-1.849,2.533
			c2.954-0.486,6.139-2.172,9.186-1.956c-0.937,0.897-2.428,1.101-3.21,2.224c2.941,0.027,6.191-0.393,9.237-0.421
			c-1.006,0.554-1.938,0.809-2.798,1.604c2.418,0.076,5.364-0.181,7.677,0.522C50.899,16.333,49.151,13.369,46.143,11.661z"/>
		<path style="clip-path:url(#SVGID_2_);fill:#BF795C;" d="M16.325,23.559c-1.075,1.719-0.649,9.353-0.394,10.037
			c1.836,0.216,4.101,2.692,4.101,2.692c-0.638-4.461,0.058-6.855,0.942-11.793C19.246,24.474,18.037,23.948,16.325,23.559z"/>
		<path style="clip-path:url(#SVGID_2_);fill:#FFA073;" d="M46.525,36.754c-0.607-0.893-1.923-1.082-2.863-1.1
			c-1.229-0.025-2.867,0.401-1.786,2.165c0.577,0.939,5.466,1.678,4.912-0.48C46.729,37.116,46.642,36.923,46.525,36.754z"/>
		<path style="clip-path:url(#SVGID_2_);fill:#FFA073;" d="M26.274,36.401c-0.85-0.749-2.238-0.6-3.199-0.375
			c-1.255,0.296-2.809,1.154-1.251,2.665c0.83,0.805,5.991,0.285,4.866-1.763C26.575,36.718,26.434,36.543,26.274,36.401z"/>
		<path style="clip-path:url(#SVGID_2_);fill:#224245;" d="M25.411,31.216c-2.02-0.869-3.29,2.713-1.913,3.883
			c0.642-0.188,1.401-0.119,2,0.171C26.854,34.568,26.913,31.864,25.411,31.216z"/>
		<path style="opacity:0.3;clip-path:url(#SVGID_2_);fill:#B54D26;" d="M35.009,37.66c-1.182,0.016-1.647-0.523-2.474-0.032
			c-0.825,0.489,0.355,2.063,2.443,1.988c2.081-0.074,2.985-1.504,2.551-2.037C37.026,36.961,36.317,37.646,35.009,37.66z"/>
		<path style="clip-path:url(#SVGID_2_);fill:#FFDFC2;" d="M34.699,33.227c-2.218-0.192-2.385,4.493-1.877,4.895
			c1.242,0.981,3.841,0.287,4.597-0.502C37.718,37.308,36.815,33.411,34.699,33.227z"/>
		<path style="clip-path:url(#SVGID_2_);fill:#224245;" d="M44.854,31.079c-2.054-1.232-3.563,2.73-1.87,3.851
			c0.537-0.356,1.615-0.246,2.139-0.004C45.945,34.014,45.956,31.74,44.854,31.079z"/>
		<path style="opacity:0.7;clip-path:url(#SVGID_2_);fill:#D4E6DD;" d="M24.438,32.094c-0.818,0.278-0.194,1.872,0.604,1.293
			C25.62,32.967,25.168,31.848,24.438,32.094z"/>
		<path style="opacity:0.7;clip-path:url(#SVGID_2_);fill:#D4E6DD;" d="M43.799,31.764c-0.808,0.163-0.421,1.753,0.406,1.302
			C44.803,32.74,44.517,31.621,43.799,31.764z"/>
		<path style="clip-path:url(#SVGID_2_);fill:#2B221C;" d="M44.728,27.445c-1.201-0.368-2.355-0.483-3.598-0.448
			c-0.669,0.018-1.109,0.563-0.876,1.501c0.186,0.743,1.672,0.515,3.599,0.74c2.092,0.244,3.159,0.669,3.368,0.202
			C47.431,28.975,46.536,27.996,44.728,27.445z"/>
		<path style="clip-path:url(#SVGID_2_);fill:#2B221C;" d="M27.642,27.072c-1.403-0.057-2.711,0.04-4.075,0.385
			c-2.055,0.521-2.569,1.333-2.339,1.805c0.229,0.47,0.934,0.212,3.302,0.003c2.184-0.19,3.861,0.063,4.081-0.677
			C28.889,27.653,28.397,27.102,27.642,27.072z"/>
		<path style="clip-path:url(#SVGID_2_);fill:#F7A286;" d="M33.983,41.106c-5.695,0.325-7.833-0.618-9.258-0.641
			c0.813,5.543,4.51,9.487,8.646,9.496c2.173,0.004,5.183-0.198,6.783-2.684c0.623-0.969,0.748-1.993,1.041-3.102
			c0.481-1.829,1.034-2.777,2.334-3.861c-0.114-0.157-0.242-0.282-0.38-0.377C41.985,39.129,40.58,40.729,33.983,41.106z"/>
		<path style="clip-path:url(#SVGID_2_);fill:#8F2722;" d="M25.599,41.121c0,0,1.713,8.168,8.166,7.798
			c5.813-0.334,6.707-3.146,7.111-5.109c0.54-2.629,2.183-3.686,2.183-3.686C32.936,43.67,25.599,41.121,25.599,41.121z"/>
		<path style="clip-path:url(#SVGID_2_);fill:#FFF7EB;" d="M27.308,41.638c0,0-0.014,1.815,1.947,2.358
			c2.516,0.696,5.359,0.735,8.283,0.12c1.971-0.415,3.034-3.025,3.034-3.025S34.743,42.425,27.308,41.638z"/>
		<path style="clip-path:url(#SVGID_2_);fill:#FFF7EB;" d="M34.825,47.256c-2.236-0.024-4.141-0.35-5.155-0.763
			c-0.847-0.346-0.89,0.104-0.757,0.511c0,0,0.159,1.642,4.212,2.03c3.543,0.34,5.25-1.69,4.884-2.127
			C37.643,46.472,37.062,47.281,34.825,47.256z"/>
		<path style="clip-path:url(#SVGID_2_);fill:#E8DAC5;" d="M27.308,41.638c0,0-0.024,0.567,0.279,1.06
			c0,0,10.017-0.954,12.305-0.389c0,0,0.555-0.853,0.681-1.218C40.572,41.091,35.271,42.373,27.308,41.638z"/>
		<path style="clip-path:url(#SVGID_2_);fill:#E8DAC5;" d="M30.004,46.857c3.396,1.654,7.39,0.296,7.39,0.296
			C32.983,47.878,30.004,46.857,30.004,46.857z"/>
		<path style="clip-path:url(#SVGID_2_);fill:#FFCB9E;" d="M25.061,61.332c0.514-0.843,0.248-1.941-0.595-2.456
			c-0.843-0.514-1.941-0.247-2.455,0.595c-1.571,2.576-1.952,4.779-1.822,6.527h3.598C23.608,64.603,24.033,63.015,25.061,61.332z"
			/>
		<path style="clip-path:url(#SVGID_2_);fill:#8E9194;" d="M26.042,53.604c-5.235,2.355-6.61,4.963-8.597,8.971
			c1.283,0.841,5.896,1.706,7.686,1.199C25.073,59.743,27.307,53.035,26.042,53.604z"/>
		<path style="opacity:0.1;clip-path:url(#SVGID_2_);" d="M24.504,58.271c-1.226,0.202-0.11,2.95,0.005,3.516
			c-0.053-0.24-1.523-1.436-1.738-1.126c-0.314,0.451,1.745,2.022,2.379,2.524C25.149,63.186,24.883,58.21,24.504,58.271z"/>
		<path style="clip-path:url(#SVGID_2_);fill:#FFCB9E;" d="M43.812,59.471c-0.514-0.842-1.612-1.108-2.455-0.595
			c-0.843,0.515-1.108,1.613-0.595,2.456c1.027,1.683,1.452,3.271,1.274,4.666h3.598C45.764,64.25,45.383,62.047,43.812,59.471z"/>
		<path style="clip-path:url(#SVGID_2_);fill:#8E9194;" d="M39.78,53.604c-1.265-0.569,0.969,6.139,0.911,10.17
			c1.789,0.507,6.402-0.358,7.686-1.199C46.391,58.567,45.016,55.96,39.78,53.604z"/>
		<path style="opacity:0.1;clip-path:url(#SVGID_2_);" d="M41.313,61.787c0.115-0.565,1.23-3.313,0.005-3.516
			c-0.379-0.062-0.646,4.914-0.646,4.914c0.634-0.502,2.693-2.073,2.379-2.524C42.837,60.352,41.366,61.547,41.313,61.787z"/>
	</g>
</g>
<g id="Layer_1">
</g>
</svg>
