<?xml version="1.0" encoding="iso-8859-1"?>
<!-- Generator: Adobe Illustrator 16.0.0, SVG Export Plug-In . SVG Version: 6.00 Build 0)  -->
<!DOCTYPE svg PUBLIC "-//W3C//DTD SVG 1.1//EN" "http://www.w3.org/Graphics/SVG/1.1/DTD/svg11.dtd">
<svg version="1.1" xmlns="http://www.w3.org/2000/svg" xmlns:xlink="http://www.w3.org/1999/xlink" x="0px" y="0px"
	 width="66.002px" height="66px" viewBox="0 0 66.002 66" style="enable-background:new 0 0 66.002 66;" xml:space="preserve">
<g id="Layer_76">
	<g>
		<defs>
			<circle id="SVGID_1_" cx="33.002" cy="33" r="33"/>
		</defs>
		<clipPath id="SVGID_2_">
			<use xlink:href="#SVGID_1_"  style="overflow:visible;"/>
		</clipPath>
		<rect style="clip-path:url(#SVGID_2_);fill:#ED9335;" width="66" height="66"/>
		<path style="clip-path:url(#SVGID_2_);fill:#9C552C;" d="M40.327,55.072c-0.702-0.488-1.666-0.314-2.154,0.388
			c-0.44,0.634-0.342,1.479,0.197,1.998c0.135,0.399,0.202,1.52,0.253,2.352c0.105,1.751,0.254,4.06,1.021,6.19h3.386
			c-0.922-1.65-1.166-3.9-1.316-6.377C41.581,57.447,41.485,55.875,40.327,55.072z"/>
		<path style="clip-path:url(#SVGID_2_);fill:#9C552C;" d="M29.728,57.577c0.539-0.519,0.638-1.364,0.198-1.998
			c-0.488-0.702-1.453-0.876-2.154-0.388c-1.159,0.803-1.254,2.375-1.386,4.551c-0.147,2.416-0.382,4.619-1.249,6.258h3.36
			c0.729-2.098,0.874-4.352,0.979-6.071C29.526,59.097,29.594,57.977,29.728,57.577z"/>
		<path style="clip-path:url(#SVGID_2_);fill:#9C552C;" d="M39.714,54.775c-2.047-1.483-8.908-1.822-11.584,0.195
			c-2.768,2.086,0.502,6.097,1.116,11.029h9.77C39.528,61.104,42.525,56.813,39.714,54.775z"/>
		<path style="clip-path:url(#SVGID_2_);fill:#E8DBDB;" d="M40.092,61.498c-0.874-1.897-0.835-5.205-0.378-6.723
			c-0.254-0.262-0.476-0.436-0.917-0.581c-2.426-0.798-6.898-1.065-9.558,0.072c-0.47,0.201-0.753,0.412-1.109,0.704
			c0.379,1.359,0.636,4.059-0.243,6.15c0.552,1.621,1.019,3.357,1.179,4.879h10.164C39.369,64.52,39.689,62.876,40.092,61.498z"/>
		<linearGradient id="SVGID_3_" gradientUnits="userSpaceOnUse" x1="34.0186" y1="51.4873" x2="34.0186" y2="55.059">
			<stop  offset="0" style="stop-color:#854326"/>
			<stop  offset="1" style="stop-color:#9C552C"/>
		</linearGradient>
		<path style="clip-path:url(#SVGID_2_);fill:url(#SVGID_3_);" d="M36.838,50.022c0.205-3.57-5.961-3.703-5.954,0.193
			c0.002,1.727,0.074,2.819-0.4,3.284c-0.279,0.274-1.244,0.767-1.244,0.767c0.56,3.617,0.947,5.067,4.81,5.067
			c3.497,0,4.425-1.12,4.748-5.14c0,0-1.2-0.455-1.629-0.796C36.614,52.957,36.748,51.598,36.838,50.022z"/>
		<circle style="clip-path:url(#SVGID_2_);fill:#FFF9F0;" cx="30.324" cy="54.059" r="0.526"/>
		<circle style="clip-path:url(#SVGID_2_);fill:#FFF9F0;" cx="31.525" cy="54.875" r="0.526"/>
		<circle style="clip-path:url(#SVGID_2_);fill:#FFF9F0;" cx="33.082" cy="55.424" r="0.526"/>
		<circle style="clip-path:url(#SVGID_2_);fill:#FFF9F0;" cx="34.641" cy="55.508" r="0.526"/>
		<circle style="clip-path:url(#SVGID_2_);fill:#FFF9F0;" cx="37.465" cy="54.006" r="0.526"/>
		<circle style="clip-path:url(#SVGID_2_);fill:#FFF9F0;" cx="36.215" cy="54.93" r="0.526"/>
		<path style="opacity:0.4;clip-path:url(#SVGID_2_);fill:#FFFFFF;" d="M36.599,59.719c-1.747,0.617-3.875,0.358-5.669-0.091
			c-1.031-0.259-1.61,0.909-1.292,1.907c0.419,1.323,2.56,1.671,4.425,1.641c3.677-0.058,5.055-1.424,4.431-3.052
			C38.327,59.687,37.54,59.387,36.599,59.719z"/>
		<path style="clip-path:url(#SVGID_2_);fill:#261B18;" d="M16.84,18.033c-2.597,7.131-2.755,12.615-4.428,23.852
			c-0.423,2.844-2.143,7.239-1.346,8.954c1.117,2.402,3.854,0.97,6.131,1.671c2.462,0.757,5.193,1.859,5.722-1.603
			c0.257,0.654,0.32,1.403,0.295,2.094c1.901,0.016,8.388-2.149,12.789-2.044c3.918,0.095,12.089,3.521,13.668-1.009
			c1.176-3.376,2.15-18.245,1.548-23.093c-0.036-0.299,1.151-0.726,1.185-0.982c0.106-0.867,0.169-1.479,0.179-1.723
			C53.337,4.813,23.306,0.266,16.84,18.033z"/>
		<path style="clip-path:url(#SVGID_2_);fill:#9C552C;" d="M32.247,15.222c-7.585,1.469-12.945,12.366-11.566,22.598
			c1.021,7.593,8.052,15.067,15.438,15.067c7.819,0,13.965-11.905,12.854-20.927C47.711,21.715,42.871,13.167,32.247,15.222z"/>
		<path style="opacity:0.3;clip-path:url(#SVGID_2_);fill:#661004;" d="M45.567,18.089c-4.127-1.646-8.132-2.596-12.659-2.717
			c-2.769-0.073-6.488-0.253-9.081,0.861c-3.881,1.668-5.555,4.222-6.096,8.143c-0.369,2.665,2.306,5.213,4.357,6.876
			c1.461-1.424,0.772-3.35,0.732-5.03c0.351,1.915,1.916,1.356,3.573,1.437c1.474,0.07,4.002,0.713,5.347-0.014
			c0.604-0.328,0.711-0.763,0.941-1.408c0.233,0.297,0.512,0.507,0.822,0.656c0.989,0.475,2.288,0.317,3.382,0.364
			c1.616,0.069,3.323,0.24,4.884-0.293c0.681-0.233,1.085-0.431,1.285-1.204c0.266,1.627,2.726,1.346,4.066,1.302
			C52.94,26.871,48.785,19.37,45.567,18.089z"/>
		<path style="clip-path:url(#SVGID_2_);fill:#9C552C;" d="M18.04,33.555c-3.725,1.02-2.24,6.459,0.802,7.555
			c0.974,0.351,2.01,0.4,3.008,0.331c0.019-0.03,0.04-0.061,0.06-0.092c0.447-0.707-0.172-4.671-0.398-5.417
			C20.94,34.052,19.828,33.064,18.04,33.555z"/>
		<path style="opacity:0.4;clip-path:url(#SVGID_2_);fill:#661004;" d="M19.345,35.557c-0.838-0.385-2.926,0.306-1.947,1.943
			c0.521-1.517,1.442-0.52,1.3,0.558c-0.095,0.723-0.872,0.731-0.103,1.661c0.418,0.503,1.264,0.317,1.69,0.05
			C21.643,38.916,20.364,36.029,19.345,35.557z"/>
		<path style="clip-path:url(#SVGID_2_);fill:#261B18;" d="M32.432,23.919c0.007,0.017,0.014,0.041,0.021,0.059
			c0.002-0.012,0.006-0.024,0.009-0.037C32.449,23.896,32.439,23.888,32.432,23.919z"/>
		<path style="clip-path:url(#SVGID_2_);fill:#261B18;" d="M42.659,23.879c0.001,0.001,0.002,0.003,0.002,0.004
			c0.001-0.002,0.002-0.005,0.002-0.007C42.653,23.827,42.652,23.828,42.659,23.879z"/>
		<path style="clip-path:url(#SVGID_2_);fill:#261B18;" d="M43.271,13.138c-4.189-3.562-9.651-3.541-14.812-2.656
			c-1.978,0.337-4.792,0.835-6.561,1.819c-1.541,0.857-2.155,2.881-2.868,4.414c-1.274,2.742-1.676,6.062-1.927,9.039
			c-0.136,1.603,0.494,3.242,0.655,4.847c0.157,1.566,0.853,2.91,1.148,4.449c0.449,2.346,0.295,4.737-0.455,7.006
			c-0.315,0.956-1.073,1.744-0.377,2.599c0.547,0.671,1.881,0.975,2.463,0.364c0.487-0.512,1.433-4.712,1.641-5.786
			c0.511-2.643,0.44-5.717,0.343-8.385c-0.095-2.517-0.012-5.105,0.827-7.498c-0.085,1.021,0.315,2.351,0.38,3.429
			c2.564-0.308,5.302-0.094,7.877-0.193c0.412-0.82,0.681-1.712,0.848-2.607c-0.008-0.019-0.015-0.042-0.021-0.059
			c0.008-0.031,0.018-0.022,0.03,0.022c-0.003,0.012-0.007,0.024-0.009,0.037c0.171,0.465,0.347,1.48,0.68,1.748
			c0.619,0.498,2.415,0.192,3.163,0.244c1.407,0.093,3.795,0.59,5.142,0.007c0.872-0.377,1.005-1.191,1.224-2.093
			c0-0.001-0.001-0.003-0.002-0.004c-0.007-0.051-0.006-0.052,0.004-0.003c0,0.002-0.001,0.005-0.002,0.007
			c0.273,0.464,0.395,1.277,0.832,1.495c0.512,0.252,1.944,0.438,2.553,0.46c0.708,0.023,2.341,0.08,3.053-0.052
			c2.022-0.372,0.572-3.949,0.043-5.239C47.95,17.647,45.482,15.018,43.271,13.138z"/>
		<path style="clip-path:url(#SVGID_2_);fill:#573D2F;" d="M30.988,8.592c-3.907,0.409-9.453,3.536-11.191,7.052
			c-3.924,7.94-5.43,16.755-5.761,25.52c-0.084,2.218-1.367,5.603-1.237,7.633c0.119,1.875,1.021,1.913,2.517,0.852
			c1.951-1.386-0.209-8.628,0.156-13.137c0.286-3.545,3.211-3.712,4.186-8.396c1.106,6.289,0.113,14.527-2.281,21.411
			c8.272-13.923,1.775-21.147,6.106-30.473c1.885,2.099,5.201,2.744,7.995,1.576c2.485-1.039,5.973-1.219,8.556-0.238
			c3.392,1.29,6.559,1.933,10.803,0.118C48.775,10.598,38.073,7.848,30.988,8.592z"/>
		<path style="clip-path:url(#SVGID_2_);fill:#BF6C3C;" d="M47.24,36.412c-0.633-0.774-1.852-0.813-2.713-0.725
			c-1.128,0.107-2.589,0.688-1.449,2.228c0.608,0.821,5.144,0.987,4.452-0.983C47.458,36.729,47.36,36.558,47.24,36.412z"/>
		<path style="clip-path:url(#SVGID_2_);fill:#BF6C3C;" d="M29.682,36.786c-0.691-0.714-1.916-0.686-2.773-0.559
			c-1.119,0.166-3.054,1.225-1.439,2.362c1.163,0.818,5.379,0.548,4.54-1.315C29.923,37.081,29.812,36.922,29.682,36.786z"/>
		<path style="clip-path:url(#SVGID_2_);fill:#261B18;" d="M28.983,31.521c-2.643-0.706-4.293,2.245-2.49,3.2
			c0.84-0.154,1.832-0.102,2.615,0.133C30.878,34.27,30.949,32.047,28.983,31.521z"/>
		<path style="opacity:0.4;clip-path:url(#SVGID_2_);fill:#661004;" d="M36.77,36.296c-0.658,0.057-1.268-0.263-1.858,0.106
			c-0.593,0.37,0.207,1.371,1.953,1.197c1.74-0.168,2.144-1.156,1.787-1.489C38.24,35.722,37.502,36.234,36.77,36.296z"/>
		<path style="clip-path:url(#SVGID_2_);fill:#BF6C3C;" d="M36.491,33.189c-1.248-0.016-2.024,2.359-1.433,3.078
			c0.416,0.502,3.145,0.289,3.521-0.36C38.716,35.668,37.684,33.203,36.491,33.189z"/>
		<path style="opacity:0.7;clip-path:url(#SVGID_2_);fill:#F0DED1;" d="M28.785,33.073c-0.802,0.23-0.187,1.538,0.594,1.059
			C29.945,33.785,29.499,32.869,28.785,33.073z"/>
		<path style="clip-path:url(#SVGID_2_);fill:#261B18;" d="M45.794,30.825c-2.713-0.35-3.957,2.795-2.041,3.503
			c0.81-0.269,1.8-0.348,2.608-0.218C48.037,33.297,47.812,31.084,45.794,30.825z"/>
		<path style="opacity:0.7;clip-path:url(#SVGID_2_);fill:#F0DED1;" d="M45.72,32.44c-0.748,0.334,0.023,1.551,0.719,0.974
			C46.94,32.997,46.386,32.146,45.72,32.44z"/>
		<path style="clip-path:url(#SVGID_2_);fill:#D47B48;" d="M44.656,40.269c-4.572-0.768-11.727,0.282-15.902,0.402
			c-0.338,0.011-0.608,0.108-0.457,0.471c0.645,1.544,3.09,7.213,8.801,7.165c4.778-0.038,5.227-3.377,5.471-5.135
			c0.12-0.864,1.42-1.911,2.428-2.551C45.326,40.412,45.076,40.339,44.656,40.269z"/>
		<path style="clip-path:url(#SVGID_2_);fill:#78231F;" d="M28.941,41.236c0,0,1.845,4.697,7.438,4.467
			c5.036-0.209,5.689-1.83,5.954-2.962c0.354-1.513,1.736-2.128,1.736-2.128C35.428,42.684,28.941,41.236,28.941,41.236z"/>
		<path style="clip-path:url(#SVGID_2_);fill:#FFF7EA;" d="M30.755,41.699c0,0,0.004,1.53,1.704,2.085
			c2.182,0.708,4.649,0.757,7.194,0.15c1.714-0.41,2.779-2.744,2.779-2.744S37.662,42.02,30.755,41.699z"/>
		<path style="clip-path:url(#SVGID_2_);fill:#FFF7EA;" d="M37.678,43.976c-2.391,0.063-4.437-0.172-5.54-0.531
			c-0.92-0.297-0.946,0.14-0.784,0.522c0,0,0.243,1.573,4.588,1.787c3.8,0.187,5.531-1.836,5.122-2.24S40.069,43.91,37.678,43.976z"
			/>
		<path style="clip-path:url(#SVGID_2_);fill:#ECDCC4;" d="M30.747,41.678c0,0,0.035,0.464,0.16,0.668c0,0,9.064-0.872,11.049-0.295
			c0,0,0.367-0.492,0.477-0.86C42.433,41.19,36.017,42.045,30.747,41.678z"/>
		<path style="clip-path:url(#SVGID_2_);fill:#ECDCC4;" d="M32.635,43.448c3.701,1.457,7.907-0.009,7.907-0.009
			C35.863,44.312,32.635,43.448,32.635,43.448z"/>
		<path style="clip-path:url(#SVGID_2_);fill:#161110;" d="M27.641,30.713c-1.42,0.328-3.22,1.83-5.548,0.181
			c0,0,0.803,2.735,5.414,1.048c1.877-0.685,2.926,1.303,2.926,1.303S30.42,30.076,27.641,30.713z"/>
		<path style="clip-path:url(#SVGID_2_);fill:#161110;" d="M45.649,30.33c-2.604-0.655-2.754,2.413-2.754,2.413
			s1.005-1.841,2.916-1.135c4.173,1.542,5.085-1.031,5.085-1.031C48.62,32.144,46.982,30.666,45.649,30.33z"/>
		<path style="clip-path:url(#SVGID_2_);fill:#261B18;" d="M44.909,27.046c-1.82,0.146-3.596,1.243-3.384,2.14
			c0.236,1.005,1.568-0.602,3.348-1.031c2.229-0.537,3.617,0.421,3.552,0.189C48.234,27.661,46.573,26.909,44.909,27.046z"/>
		<path style="clip-path:url(#SVGID_2_);fill:#261B18;" d="M28.181,27.473c-2.044-0.188-4.244,0.448-4.326,1.12
			c-0.051,0.438,1.728-0.58,4.461,0.015c2.182,0.475,3.711,1.993,4.007,1.035C32.586,28.793,30.415,27.679,28.181,27.473z"/>
	</g>
</g>
<g id="Layer_1">
</g>
</svg>
