<?xml version="1.0" encoding="iso-8859-1"?>
<!-- Generator: Adobe Illustrator 16.0.0, SVG Export Plug-In . SVG Version: 6.00 Build 0)  -->
<!DOCTYPE svg PUBLIC "-//W3C//DTD SVG 1.1//EN" "http://www.w3.org/Graphics/SVG/1.1/DTD/svg11.dtd">
<svg version="1.1" xmlns="http://www.w3.org/2000/svg" xmlns:xlink="http://www.w3.org/1999/xlink" x="0px" y="0px" width="66px"
	 height="66.001px" viewBox="0 0 66 66.001" style="enable-background:new 0 0 66 66.001;" xml:space="preserve">
<g id="Layer_92">
	<g>
		<defs>
			<circle id="SVGID_1_" cx="33" cy="33.001" r="33"/>
		</defs>
		<clipPath id="SVGID_2_">
			<use xlink:href="#SVGID_1_"  style="overflow:visible;"/>
		</clipPath>
		<rect style="clip-path:url(#SVGID_2_);fill:#FFFFFF;" width="65.999" height="65.998"/>
		<path style="clip-path:url(#SVGID_2_);fill:#E8E8E8;" d="M28.022,53.732c-2.025,0.994-2.546,3.257-3.098,5.655
			c-0.241,1.046-1.069,4.477-1.725,6.61h3.458c0.755-2.854,2.313-9.159,2.856-9.427L28.022,53.732z"/>
		<path style="clip-path:url(#SVGID_2_);fill:#E8E8E8;" d="M37.427,53.732l-1.492,2.839c0.545,0.268,2.102,6.572,2.856,9.427h3.458
			c-0.655-2.134-1.483-5.564-1.725-6.61C39.973,56.989,39.452,54.727,37.427,53.732z"/>
		<path style="clip-path:url(#SVGID_2_);fill:#1E1E29;" d="M38.699,62.224c0.753-2.308,0.237-6.813-0.99-8.271
			c-2.817-3.35-7.669-2.249-9.574-0.483c-0.758,0.703-1.999,3.911-0.938,8.927c0.233,1.103,0.341,2.278,0.293,3.603h10.75
			C38.132,64.87,38.23,63.654,38.699,62.224z"/>
		<ellipse style="clip-path:url(#SVGID_2_);fill:#313142;" cx="33.105" cy="61.277" rx="0.494" ry="0.515"/>
		<ellipse style="clip-path:url(#SVGID_2_);fill:#313142;" cx="33.162" cy="64.064" rx="0.493" ry="0.516"/>
		<linearGradient id="SVGID_3_" gradientUnits="userSpaceOnUse" x1="32.8369" y1="49.8584" x2="32.8369" y2="54.1951">
			<stop  offset="0" style="stop-color:#EEA17A"/>
			<stop  offset="1" style="stop-color:#FFCCA6"/>
		</linearGradient>
		<path style="clip-path:url(#SVGID_2_);fill:url(#SVGID_3_);" d="M36.514,52.699c-1.792-1.061,0.146-5.9-1.289-7.111
			c-1.081-0.913-2.87-0.996-4.113-0.458c-2.46,1.065-0.033,6.945-2.392,8.005c-0.469,0.213-0.573,0.803,0.338,2.35
			c1.136,1.924,1.903,2.857,4.063,3.9c1.741-0.822,3.532-2.6,4.042-4.254C37.589,53.754,36.979,52.975,36.514,52.699z"/>
		<path style="opacity:0.5;clip-path:url(#SVGID_2_);fill:#121219;" d="M27.955,58.09l0.397,3.541c0,0,4.335-2,4.756-2
			c0.463,0,4.875,2.158,4.875,2.158v-3.67c0,0-4.112,1.262-4.862,1.266C32.567,59.387,27.955,58.09,27.955,58.09z"/>
		<path style="clip-path:url(#SVGID_2_);fill:#313142;" d="M36.563,52.73c0,0,0.983,1.836-0.103,3.615
			c-0.866,1.425-3.34,3.039-3.34,3.039l4.578,1.416C37.699,60.801,38.768,54.154,36.563,52.73z"/>
		<path style="clip-path:url(#SVGID_2_);fill:#313142;" d="M29.88,56.707c-1.506-2.255-1.05-3.76-1.05-3.76
			c-2.233,1.59-0.256,7.824-0.256,7.824l4.547-1.387C33.121,59.385,30.991,58.375,29.88,56.707z"/>
		<path style="opacity:0.5;clip-path:url(#SVGID_2_);fill:#D9AF96;" d="M18.037,31.188c-1.854-0.19-3.401,1.197-2.852,5.525
			c0.549,4.326,4.577,3.797,4.577,3.797S19.89,31.377,18.037,31.188z"/>
		<path style="clip-path:url(#SVGID_2_);fill:#261B18;" d="M34.762,8.578C3.73,11.039,1.054,52.165,25.039,46.248
			c4.398-1.085,1.816-5.463,8.738-5.969c4.361-0.318,5.875,5.118,7.632,5.61C61.151,51.412,58.689,13.912,34.762,8.578z"/>
		<path style="clip-path:url(#SVGID_2_);fill:#FFF9F0;" d="M43.938,39.078c-1.533,0.127-2.64,1.654-2.474,3.412
			c0.167,1.76,1.545,3.082,3.076,2.955c1.532-0.127,2.64-1.654,2.473-3.413C46.848,40.274,45.471,38.952,43.938,39.078z
			 M44.448,44.334c-1.113,0.092-2.112-0.867-2.234-2.144c-0.12-1.276,0.684-2.386,1.796-2.476c1.112-0.094,2.11,0.867,2.232,2.143
			C46.362,43.135,45.56,44.241,44.448,44.334z"/>
		<path style="clip-path:url(#SVGID_2_);fill:#FFCB9E;" d="M32.146,16.586c-10.511,0.324-13.965,7.252-13.695,17.615
			s7.708,17.193,15.469,17.652c5.959,0.352,13.478-8.921,12.866-19.27C46.182,22.371,42.25,16.271,32.146,16.586z"/>
		<path style="opacity:0.7;clip-path:url(#SVGID_2_);fill:#E89361;" d="M41.936,16.639c-2.151-1.345-4.845-1.242-7.231-0.762
			c-1.529,0.309-3.048,0.799-4.479,1.42c-4.313,1.869-8.582,4.916-10.961,9.06c-0.516,0.897-2.141,3.747-1.176,4.743
			c0.629,0.646,0.325,2.01,0.938,1.418c3.933-3.795,10.859-2.652,15.69-7.153c1.538-1.434,3.199-4,4.112-5.493
			c-0.378,1.861,6.508,6.465,7.54,9.423c0.837,2.407,0.757-2.104,0.837-3.343C47.46,22.006,45.148,18.646,41.936,16.639z"/>
		<path style="clip-path:url(#SVGID_2_);fill:#2F2120;" d="M24.925,31.019c-2.162-0.813-3.27,3.175-1.76,4.356
			c0.66-0.247,1.458-0.223,2.102,0.053C26.64,34.574,26.536,31.625,24.925,31.019z"/>
		<path style="clip-path:url(#SVGID_2_);fill:#7D4732;" d="M24.632,26.188c-0.916,0.156-1.931,0.766-2.43,2.154
			c2.653-2.213,4.395-0.915,5.36-0.529C27.018,26.805,25.925,25.967,24.632,26.188z"/>
		<path style="clip-path:url(#SVGID_2_);fill:#B08A72;" d="M24.407,32.06c-0.896,0.136-0.563,1.969,0.373,1.505
			C25.455,33.231,25.205,31.939,24.407,32.06z"/>
		<path style="clip-path:url(#SVGID_2_);fill:#261B18;" d="M44.054,17.101c-2.201-2.572-5.403-3.904-8.523-5.021
			c-2.312-0.828-4.727-1.109-7.154-0.637c-6.12,1.195-9.908,7.074-10.889,12.877c-0.311,1.828-2.002,8.221,0.402,11.258
			c0.555-3.275,1.45-5.1,8.797-7.232c7.813-2.27,11.415-7.908,12.447-9.605c0.212,4.52,7.526,6.269,7.583,12.868
			c0.039-1.646,1.164-4.498,0.887-6.16C47.105,22.457,46.05,19.432,44.054,17.101z"/>
		<path style="clip-path:url(#SVGID_2_);fill:#FF9D73;" d="M45.179,37.426c-0.42-0.787-1.48-1.003-2.251-1.059
			c-1.004-0.072-2.38,0.223-1.646,1.773c0.39,0.827,4.329,1.66,4.062-0.205C45.314,37.744,45.259,37.576,45.179,37.426z"/>
		<path style="clip-path:url(#SVGID_2_);fill:#FF9D73;" d="M25.913,37.294c-0.596-0.815-1.799-0.821-2.656-0.708
			c-1.115,0.15-2.58,0.813-1.511,2.438c0.569,0.869,5.042,0.926,4.434-1.178C26.116,37.631,26.026,37.449,25.913,37.294z"/>
		<path style="opacity:0.5;clip-path:url(#SVGID_2_);fill:#E89361;" d="M34.592,36.817c-0.675-0.013-0.941-0.305-1.416-0.06
			c-0.476,0.246,0.54,1.195,1.377,1.152c0.944-0.051,1.731-0.803,1.485-1.093C35.75,36.48,35.342,36.831,34.592,36.817z"/>
		<path style="clip-path:url(#SVGID_2_);fill:#2F2120;" d="M43.97,31.061c-2.173-1.385-4.08,3.695-1.664,4.424
			c0.585-0.4,1.285-0.4,1.908-0.305C45.044,34.098,45.135,31.803,43.97,31.061z"/>
		<path style="clip-path:url(#SVGID_2_);fill:#B08A72;" d="M42.919,31.817c-0.856,0.022-0.732,1.925,0.193,1.577
			C43.78,33.143,43.682,31.801,42.919,31.817z"/>
		<path style="clip-path:url(#SVGID_2_);fill:#121B21;" d="M44.032,30.952c-1.991-0.767-2.644,1.596-2.644,1.596
			s0.965-1.19,2.321-0.436c3.076,1.715,5.059-0.37,5.059-0.37C46.33,32.562,45.1,31.363,44.032,30.952z"/>
		<path style="clip-path:url(#SVGID_2_);fill:#121B21;" d="M23.477,31.127c-0.795,0.404-2.642,1.617-5.095,0.903
			c0,0,2.338,2.03,5.301,0.193c1.298-0.806,2.412,0.186,2.412,0.186S25.554,30.07,23.477,31.127z"/>
		<path style="clip-path:url(#SVGID_2_);fill:#57443A;" d="M43.226,12.742c-8.892,8.156-22.491,1.162-22.491,1.162
			c-4.27,2.496-7.991,8.145-8.003,8.16c0.176-0.268,3.27,0.838,3.568,0.958c1.573,0.64,3.055,1.493,4.662,2.054
			c1.742,0.61,3.945,1.164,5.833,1.215c3.827,0.103,9.208-3.504,12.709-8.577c0.118,1.776,0.68,2.937,1.537,3.904
			c4.209,4.747,9.86-0.052,9.86-0.052S49.018,16.59,43.226,12.742z"/>
		<path style="clip-path:url(#SVGID_2_);fill:#784430;" d="M43.695,26.133c-1.286-0.257-2.401,0.553-2.973,1.543
			c0.976-0.357,2.749-1.608,5.345,0.672C45.604,26.947,44.606,26.313,43.695,26.133z"/>
		<path style="clip-path:url(#SVGID_2_);fill:#FFCB9E;" d="M16.788,31.161c-2.796,1.248-1.667,7.025,0.618,8.077
			c0.735,0.338,1.511,0.351,2.26,0.234c0.016-0.033,0.028-0.066,0.044-0.102c0.335-0.775-0.267-4.629-0.439-5.422
			C18.839,31.954,18.13,30.563,16.788,31.161z"/>
		<path style="opacity:0.3;clip-path:url(#SVGID_2_);fill:#B54D26;" d="M17.686,33.093c-0.569-0.307-1.77,0.619-0.952,2.191
			c0.125-1.604,0.825-0.684,0.877,0.435c0.034,0.748-0.444,0.84,0.152,1.709c0.322,0.472,0.82,0.193,1.049-0.127
			C19.538,36.285,18.376,33.468,17.686,33.093z"/>
		<path style="clip-path:url(#SVGID_2_);fill:#FFF9F0;" d="M18.732,39.644c-1.537,0.014-2.753,1.456-2.718,3.222
			c0.036,1.767,1.312,3.188,2.851,3.174c1.538-0.014,2.754-1.455,2.717-3.221C21.546,41.052,20.271,39.631,18.732,39.644z
			 M18.854,44.925c-1.115,0.009-2.042-1.022-2.067-2.304c-0.026-1.281,0.856-2.327,1.971-2.336c1.115-0.011,2.042,1.021,2.068,2.301
			C20.852,43.867,19.97,44.913,18.854,44.925z"/>
		<path style="opacity:0.5;clip-path:url(#SVGID_2_);fill:#C20902;" d="M40.164,41.296c-0.201,0.206-4.975,4.983-11.932,0.286
			c-0.273-0.186-0.653-0.143-0.849,0.092c-0.193,0.236-0.129,0.578,0.146,0.764c1.724,1.165,3.34,1.799,4.794,2.086
			c2.009,0.396,3.714,0.139,4.984-0.271c2.361-0.759,3.736-2.166,3.793-2.226c0.215-0.223,0.177-0.566-0.08-0.77
			C40.761,41.059,40.378,41.074,40.164,41.296z"/>
	</g>
</g>
<g id="Layer_1">
</g>
</svg>
