<?xml version="1.0" encoding="iso-8859-1"?>
<!-- Generator: Adobe Illustrator 16.0.0, SVG Export Plug-In . SVG Version: 6.00 Build 0)  -->
<!DOCTYPE svg PUBLIC "-//W3C//DTD SVG 1.1//EN" "http://www.w3.org/Graphics/SVG/1.1/DTD/svg11.dtd">
<svg version="1.1" xmlns="http://www.w3.org/2000/svg" xmlns:xlink="http://www.w3.org/1999/xlink" x="0px" y="0px"
	 width="66.012px" height="66px" viewBox="0 0 66.012 66" style="enable-background:new 0 0 66.012 66;" xml:space="preserve">
<g id="Layer_14">
	<g>
		<defs>
			<circle id="SVGID_1_" cx="33.012" cy="33" r="33"/>
		</defs>
		<clipPath id="SVGID_2_">
			<use xlink:href="#SVGID_1_"  style="overflow:visible;"/>
		</clipPath>
		<rect style="clip-path:url(#SVGID_2_);fill:#FFFFFF;" width="66" height="65.998"/>
		<path style="clip-path:url(#SVGID_2_);fill:#62698A;" d="M26.122,58.465c0.311-1.188,0.94-5.814-0.103-5.605
			c-4.709,0.945-6.096,7.964-5.209,13.139h5.665C26.694,62.895,25.821,59.615,26.122,58.465z"/>
		<path style="clip-path:url(#SVGID_2_);fill:#62698A;" d="M45.124,52.859c-1.043-0.209-0.413,4.418-0.103,5.605
			c0.301,1.15-0.572,4.43-0.354,7.533h5.665C51.221,60.823,49.833,53.805,45.124,52.859z"/>
		<path style="clip-path:url(#SVGID_2_);fill:#323240;" d="M27.601,51.748c-4.058-0.13-5.308,8.971-2.348,11.192
			c0.697,0.523,1.756,0.62,2.551,0.244c-0.007-2.295,0.578-4.61,0.806-6.913c0.089-0.912,0.626-3.349-0.073-4.096
			C28.264,51.882,27.939,51.759,27.601,51.748z"/>
		<path style="clip-path:url(#SVGID_2_);fill:#323240;" d="M42.844,53.607c1.571,2.69,0.959,6.213,0.95,9.229
			c0.689,0.363,1.604,0.271,2.207-0.237c2.172-1.827,1.902-7.375-0.312-10.034C44.546,51.191,41.565,51.42,42.844,53.607z"/>
		<path style="clip-path:url(#SVGID_2_);fill:#E62628;" d="M43.041,51.286c-3.019-1.839-13.151-1.305-15.739,0.894
			c-1.594,1.354-1.686,5.91-1.597,10.173c0.026,1.271,0.063,2.5,0.127,3.646h19.465c0.021-1.314,0.034-2.72,0.104-4.083
			C45.624,57.61,45.771,52.95,43.041,51.286z"/>
		<path style="opacity:0.3;clip-path:url(#SVGID_2_);fill:#870708;" d="M37.17,54.892l-2.525-0.243
			c0.055,1.521,0.638,6.137,0.612,11.35h2.307C37.644,62.551,37.598,58.457,37.17,54.892z"/>
		<path style="clip-path:url(#SVGID_2_);fill:#FFF9F0;" d="M36.83,54.892l-1.518-0.243c0.032,1.521,0.383,6.137,0.367,11.35h1.388
			C37.115,62.551,37.088,58.457,36.83,54.892z"/>
		<path style="opacity:0.3;clip-path:url(#SVGID_2_);fill:#870708;" d="M43.824,52.432c-1.438-0.904-5.249,0.113-6.741,0.646
			c-1.502,0.537-6.583,3.531-2.854,4.614c1.174,0.341,2.541,0.061,3.701-0.195c0.306-0.066,2.992-0.604,3.018-0.989
			c-0.338,4.994-6.366,3.737-8.962,1.259c-1.193-1.139-1.66-5.026-4.191-3.859c-0.016,0.006-0.03,0.014-0.046,0.021
			c-0.644,0.323-0.973,1.04-1.075,1.695c-0.289,1.816,0.274,4.004,0.781,5.738c0.383,1.308,1.872,5.21,2.999,2.179
			c0.154-0.416,0.354-1.326,0.414-1.758c1.354,2.26,4.103,2.699,6.567,2.52c4.335-0.315,8.239-2.924,8.131-7.241
			C45.531,55.7,45.134,53.256,43.824,52.432z"/>
		<path style="clip-path:url(#SVGID_2_);fill:#FF9819;" d="M30.898,51.903l-2.622-2.768c-1.548,0.335-2.235,9.376-3.313,16.862
			h5.612C31.275,61.335,31.252,56.554,30.898,51.903z"/>
		<path style="clip-path:url(#SVGID_2_);fill:#FF9819;" d="M38.218,46.653c-4.009-0.518-11.225-0.509-10.317,5.737
			c0.649,4.47,6.436,4.984,10.197,4.348C44.616,55.632,45.365,47.575,38.218,46.653z"/>
		<path style="clip-path:url(#SVGID_2_);fill:#FF9819;" d="M42.638,51.088c-1.522-0.027-0.856,3.293-0.842,4.128
			c0.035,1.928-0.604,3.306-2.743,3.69c-1.694,0.305-3.338-0.059-4.433-1.343c-1.726-2.022-2.049-5.502-4.339-7.011
			c-0.871-0.574-1.495-0.63-1.934-0.366c-1.25,0.751-0.989,4.104-0.678,5.435c0.542,2.309,1.971,4.36,3.737,5.975
			c3.103,2.832,8.14,2.665,11.416,0.133c1.664-1.286,2.305-3.052,2.223-5.074C45.003,55.571,44.387,51.12,42.638,51.088z"/>
		<path style="clip-path:url(#SVGID_2_);fill:#FFB224;" d="M43.769,54.745c-0.124-0.976-0.706-1.647-1.113-0.418
			c-0.553,1.669-0.199,2.911-1.705,4.147c-1.515,1.244-3.551,2.186-5.442,1.081c-1.931-1.13-2.802-2.918-3.978-4.62
			c-0.363-0.526-1.092-0.808-1.013,0.238c0,0-0.174,0.005-0.169,0c-0.164,0.135-2.405-4.996-1.828-0.323
			c0.029,0.226,0.063,0.448,0.106,0.666c0.441,2.272,1.678,4.169,3.705,5.518c2.696,1.793,6.254,2.312,9.123,0.512
			c1.59-0.996,2.281-2.519,2.759-4.218c-0.323,0.056-0.615,0.226-0.867,0.433C43.622,56.875,43.886,55.681,43.769,54.745z"/>
		<path style="clip-path:url(#SVGID_2_);fill:#FFB224;" d="M34.528,54.566c-0.054-0.012-0.086-0.01-0.13-0.015
			c-0.038-0.005-0.076-0.001-0.114-0.006L34.528,54.566z"/>
		<path style="clip-path:url(#SVGID_2_);fill:#FFB224;" d="M40.645,54.479c0.192-0.243,1.167-1.193,0.864-1.548
			c-0.216-0.251-1.149,0.269-1.399,0.364c-1.277,0.489-2.56,1.099-3.941,1.233c-0.594,0.057-1.178,0.087-1.77,0.022
			c0.044,0.005,0.076,0.003,0.13,0.015l-0.244-0.021c0.038,0.005,0.076,0.001,0.114,0.006c-0.748-0.094-0.255,0.59,0.223,0.782
			c-0.912,0.479,0.866,0.962,1.134,0.978c1.346,0.084,2.895-0.158,4.149-0.612c0.762-0.276,1.579-0.72,1.996-1.419
			C41.669,53.986,40.965,54.418,40.645,54.479z"/>
		<path style="clip-path:url(#SVGID_2_);fill:#ED671A;" d="M28.874,50.771c1.675,3.802,11.501,3.009,13.599,0.314
			C46.718,45.633,26.7,45.835,28.874,50.771z"/>
		<path style="clip-path:url(#SVGID_2_);fill:#FFB224;" d="M29.814,59.41c-0.641,1.129-0.773,2.393-1.301,3.545
			c-0.087-1.717,0.094-3.63-0.336-5.28c-0.579,0.994-0.713,2.632-0.806,3.59l-0.271-2.171c-0.236,2.22-0.33,4.584-0.614,6.904h3.102
			C30.018,63.8,30.25,61.574,29.814,59.41z"/>
		<path style="clip-path:url(#SVGID_2_);fill:#3D2518;" d="M51.163,17.677c0.655,0.281,1.363,0.423,2.068,0.469
			c-0.263-0.653-3.018-7.384-8.785-8.402c0.846-0.629,2.333-0.763,3.365-0.888c-1.799-1.038-6.106-2.938-10.29-1.28
			c-0.245-0.039-2.639-1.841-4.729-1.892c0.267,0.419,1.553,1.356,1.593,1.855c-2.838-1.033-5.354-0.489-8.277,0.297
			c-1.344,0.362-3.591,1.484-4.331,2.688c0.597-0.218,1.24-0.033,1.723,0.354c-2.694,0.918-5.854,3.33-6.788,6.16
			c0.699-0.097,1.393-0.451,2.115-0.518c-0.618,0.057-1.505,1.766-1.756,2.254c-0.455,0.886-0.737,1.837-0.929,2.813
			c-0.354,1.796-0.765,3.977-0.392,5.797c0.384-0.557,0.949-0.987,1.406-1.479c-1.252,2.842-0.241,5.514,0.869,8.135
			c0.536,1.267,1.265,2.382,1.931,3.555c0.505,0.888,0.771,1.919,1.339,2.775c1.77,2.66,3.618,1.564,6.137,0.954
			c1.932-0.469,3.952-0.798,5.907-0.889c2.232-0.105,4.529-0.246,6.727,0.258c2.097,0.481,4.403,1.424,6.526,0.529
			c3.998-1.684,3.92-7.003,4.053-10.542c0.353,0.267,0.713,0.591,1.031,0.826c0.079-2.485,0.348-4.918,0.418-7.432
			c0.504,0.374,1.08,0.833,1.626,1.105C53.614,23.929,52.514,18.258,51.163,17.677z"/>
		<path style="clip-path:url(#SVGID_2_);fill:#FFB06B;" d="M32.248,16.334c-7.38,1.44-12.792,12.083-11.225,22.006
			c1.062,6.727,8.997,15.021,15.428,15.021c7.499,0,13.237-11.591,12.095-20.761C47.306,22.63,42.584,14.319,32.248,16.334z"/>
		<path style="opacity:0.3;clip-path:url(#SVGID_2_);fill:#BF3C1B;" d="M44.419,18.825c-3.357-1.741-7.888-2.262-11.61-2.328
			c-2.694-0.048-5.622-0.198-8.133,0.938c-3.757,1.702-5.356,4.269-5.841,8.191c-0.181,1.465-0.094,3.919,1.853,4.058
			c2.703,0.191,2.836-3.188,3.708-4.919c1.378,0.799,3.111,1.33,4.653,1.688c-0.504-0.921-0.54-2.253-0.411-3.28
			c1.424,0.568,11.439,2.368,11.439,2.368s-0.413-1.274-0.4-1.856c1.678,1.808,3.548,3.17,6.119,3.096
			C45.721,24,47.618,20.483,44.419,18.825z"/>
		<path style="clip-path:url(#SVGID_2_);fill:#FFB06B;" d="M18.448,34.193c-3.624,0.998-2.17,6.289,0.79,7.351
			c0.949,0.341,1.956,0.387,2.928,0.318c0.019-0.03,0.038-0.058,0.057-0.09c0.436-0.688-0.172-4.544-0.395-5.27
			C21.272,34.673,20.188,33.715,18.448,34.193z"/>
		<path style="opacity:0.3;clip-path:url(#SVGID_2_);fill:#BF3C1B;" d="M19.72,36.141c-0.814-0.374-2.847,0.301-1.892,1.894
			c0.505-1.476,1.403-0.509,1.266,0.54c-0.091,0.704-0.848,0.714-0.098,1.617c0.407,0.488,1.229,0.307,1.645,0.047
			C21.961,39.405,20.714,36.598,19.72,36.141z"/>
		<path style="clip-path:url(#SVGID_2_);fill:#3D2518;" d="M46.856,18.77c-1.298-1.539-2.321-3.155-3.885-4.48
			c-4.081-3.459-9.396-3.43-14.417-2.563c-1.923,0.331-3.967,0.818-5.687,1.778c-1.499,0.838-2.094,2.808-2.784,4.301
			c-1.621,3.498-2.913,13.938-1.133,16.288c0.376-0.021,1.15-0.042,1.727,0.496c0.769,0.717,0.763,1.521,0.979,1.921
			c0.101,0.204,0.931,0.488,1.643,0.436c-0.53-3.608-1.388-11.18,1.585-13.867c0.09,1.135,2.293,2.617,3.366,2.799
			c-0.479-1.201-0.229-2.545-0.461-3.785c3.141,0.474,8.132,1.577,11.217,2.302c-0.214-0.508-0.413-1.795-0.634-2.465
			c2.257,1.556,3.695,3.059,6.482,3.823c0.197-0.94,0.344-1.947,0.322-2.914c0.009,0.398,4.322,0.945,4.748,1.02
			c-0.09-0.93-0.479-1.764-0.991-2.535C48.321,20.401,47.532,19.568,46.856,18.77z"/>
		<path style="clip-path:url(#SVGID_2_);fill:#82572E;" d="M30.455,16.972c0.004,0,0.007,0,0.011,0
			c-0.004-0.001-0.009-0.003-0.013-0.004C30.409,16.969,30.409,16.97,30.455,16.972z"/>
		<path style="clip-path:url(#SVGID_2_);fill:#82572E;" d="M44.106,13.17c0.949-0.357,2.139-0.542,3.16-0.443
			c-1.307-1.76-4.399-2.776-6.416-2.916c0.207-0.652,0.32-1.361,0.832-1.811c-0.723,0.633-2.546,0.547-3.439,1.16
			c-0.432-0.535-1.233-0.867-1.926-0.944c0.168,0.445,0.42,0.938,0.512,1.433c-1.902-0.68-3.92-0.765-5.912-0.857
			c-0.499-0.023-3.348,0.239-3.632-0.202c0.451,0.833,1.454,1.132,2.259,1.471c-1.835-0.088-3.431,0.877-5.186,1.196
			c0.579,0.482,1.387,0.365,2.089,0.394c-2.827,1.167-5.748,2.684-7.244,5.637c1.233-0.227,2.489-0.581,3.732-0.813
			c-0.399,1.312-1.417,2.657-1.444,4.195c4.142-3.61,10.376-1.434,14.807,0.359c-1.534-1.507-3.592-3.455-5.832-4.056
			c-0.004,0-0.007,0-0.011,0c-0.046-0.002-0.046-0.003-0.002-0.004c0.004,0.001,0.009,0.003,0.013,0.004
			c2.208-0.006,4.703,0.741,6.741,1.605c2.396,1.018,4.893,3.521,7.531,3.689c-0.286-1.577-1.521-3.208-2.39-4.409
			c2.445,0.879,4.519,2.386,7.057,2.965c-0.362-0.084-1.26-2.168-1.319-2.597c0.92,0.274,1.833,0.701,2.806,0.726
			C49.49,16.22,46.398,14.882,44.106,13.17z"/>
		<path style="clip-path:url(#SVGID_2_);fill:#F58A53;" d="M45.164,36.112c-1.143-0.143-2.726,0.023-1.938,1.498
			c0.42,0.785,4.889,1.851,4.644,0.124c-0.025-0.179-0.084-0.338-0.17-0.479C47.244,36.501,46.041,36.222,45.164,36.112z"/>
		<path style="clip-path:url(#SVGID_2_);fill:#F58A53;" d="M29.996,36.673c-0.836-0.565-2.118-0.431-2.999-0.242
			c-1.149,0.246-2.542,0.931-1,2.073c0.82,0.609,5.591,0.133,4.421-1.432C30.296,36.91,30.154,36.78,29.996,36.673z"/>
		<path style="clip-path:url(#SVGID_2_);fill:#202930;" d="M29.437,31.83c-1.901-0.818-3.099,2.557-1.801,3.658
			c0.604-0.178,1.318-0.112,1.883,0.16C30.794,34.988,30.852,32.44,29.437,31.83z"/>
		<path style="clip-path:url(#SVGID_2_);fill:#202930;" d="M45.86,31.702c-1.934-1.16-3.355,2.81-1.76,3.864
			c0.505-0.335,1.521-0.23,2.013-0.004C46.889,34.704,46.897,32.324,45.86,31.702z"/>
		<path style="opacity:0.7;clip-path:url(#SVGID_2_);fill:#C3CEE6;" d="M28.76,32.497c-0.771,0.262-0.185,1.763,0.568,1.216
			C29.871,33.318,29.446,32.265,28.76,32.497z"/>
		<path style="opacity:0.7;clip-path:url(#SVGID_2_);fill:#C3CEE6;" d="M45.028,32.544c-0.763,0.153-0.398,1.65,0.383,1.226
			C45.974,33.464,45.705,32.409,45.028,32.544z"/>
		<path style="clip-path:url(#SVGID_2_);fill:#DE6049;" d="M27.103,39.607c0,0,2.407,8.196,8.739,8.614
			c4.55,0.302,6.06-2.497,7.664-4.835c0.952-1.389,1.601-2.896,2.703-4.025C43.604,41.113,35.529,42.833,27.103,39.607z"/>
		<path style="clip-path:url(#SVGID_2_);fill:#8F2A25;" d="M28.47,40.655c0,0,1.612,5.255,7.757,5.47
			c3.051,0.107,5.606-1.65,6.536-3.05c1.037-1.56,2.344-2.584,2.344-2.584C36.026,45.225,28.47,40.655,28.47,40.655z"/>
		<path style="clip-path:url(#SVGID_2_);fill:#FFF7EA;" d="M28.47,40.655c0,0,1.67,2.239,3.742,2.979
			c2.656,0.95,5.097,1.049,8.149,0.451c2.058-0.404,4.745-3.595,4.745-3.595S37.919,44.46,28.47,40.655z"/>
		<path style="clip-path:url(#SVGID_2_);fill:#FFF7EA;" d="M37.507,44.116c-2.817-0.035-4.304-0.533-5.616-1.001
			c-1.093-0.388-0.973,0.531-0.771,0.981c0,0,1.039,1.919,5.107,2.028c3.822,0.102,5.665-2.02,5.168-2.507
			C40.899,43.132,40.327,44.154,37.507,44.116z"/>
		<path style="clip-path:url(#SVGID_2_);fill:#ECDCC4;" d="M28.47,40.655c0,0,0.828,1.205,1.614,1.682c0,0,6.968,1.325,13.556-0.324
			c0,0,1.349-1.089,1.467-1.521C45.106,40.491,37.681,44.394,28.47,40.655z"/>
		<path style="clip-path:url(#SVGID_2_);fill:#ECDCC4;" d="M31.11,43.123c5.959,3.041,9.819,0.693,9.819,0.693
			C35.501,44.845,31.11,43.123,31.11,43.123z"/>
		<path style="clip-path:url(#SVGID_2_);fill:#2B221C;" d="M30.248,28.964c-0.962-0.078-1.841-0.358-2.781-0.524
			c-1.232-0.218-2.731,0.503-3.117,1.315c0.285,0.009,0.562-0.018,0.833-0.051c0.404-0.048,0.802-0.111,1.208-0.099
			c0.792,0.024,1.611,0.288,2.393,0.397c0.589,0.084,3.44,0.752,3.445,0.086c0.001-0.222-0.155-0.839-0.411-1.008
			C31.486,28.863,30.636,28.993,30.248,28.964z"/>
		<path style="clip-path:url(#SVGID_2_);fill:#2B221C;" d="M45.977,28.193c-0.866,0.213-1.669,0.536-2.56,0.66
			c-0.358,0.05-1.154-0.038-1.452,0.196c-0.23,0.181-0.347,0.805-0.335,1.026c0.035,0.664,2.652-0.145,3.197-0.256
			c0.72-0.148,1.467-0.451,2.202-0.515c0.377-0.033,0.749,0.011,1.127,0.039c0.255,0.02,0.512,0.032,0.774,0.009
			C48.537,28.562,47.111,27.915,45.977,28.193z"/>
		<path style="opacity:0.3;clip-path:url(#SVGID_2_);fill:#BF3C1B;" d="M37.445,37.895c-0.854,0.046-1.211-0.3-1.798,0.053
			c-0.583,0.355,0.768,1.467,1.822,1.335c1.195-0.148,2.139-1.176,1.807-1.521C38.891,37.361,38.398,37.842,37.445,37.895z"/>
		<path style="clip-path:url(#SVGID_2_);fill:#121B21;" d="M27.665,31.199c-1.086,0.271-2.153,1.313-4.549,0.355
			c0,0,1.995,2.426,5.038,0.845c1.343-0.697,2.246,0.653,2.246,0.653S29.788,30.67,27.665,31.199z"/>
		<path style="clip-path:url(#SVGID_2_);fill:#121B21;" d="M46.287,31.327c-2.123-0.529-2.735,1.854-2.735,1.854
			s0.904-1.351,2.247-0.654c3.044,1.581,5.039-0.844,5.039-0.844C48.44,32.64,47.374,31.599,46.287,31.327z"/>
		<path style="opacity:0.3;clip-path:url(#SVGID_2_);fill:#1F0300;" d="M17.032,18.417c2.203,6.382,28.758,3.162,30.904-3.102
			C52.19,2.899,14.624,11.44,17.032,18.417z"/>
		<path style="clip-path:url(#SVGID_2_);fill:#E62628;" d="M36.611,3.606c-7.597,0.702-13.86,2.943-18.993,8.638
			c-1.661,1.844-4.505,6.067-0.376,7.335c6.293,1.931,12.364,1.941,18.705,0.279c3.332-0.874,10.495-2.534,11.979-6.307
			C50.822,6.182,45.032,2.827,36.611,3.606z"/>
		<path style="clip-path:url(#SVGID_2_);fill:#FF3B3B;" d="M39.115,4.283c-1.205-0.012-3.566-0.3-4.551,0.69
			c-0.741,0.749-0.327,2.11,0.936,2.037c-2.25,0.13-4.592,0.958-6.71,1.135c0.454-0.396,1.875-1.142,2.053-1.629
			c0.849-2.314-4.15-0.002-4.743,0.276c-2.871,1.347-7.402,4.238-7.986,7.611c1.708,1.256,2.431-0.385,3.973-0.45
			c1.134-0.048,1.261,0.901,2.626,1.077c0.991,0.129,1.751-0.461,2.705-0.541c3.778-0.315,7.275,0.819,10.837-1.111
			c1.139-0.616,1.73-1.901,2.925-2.389c0.93-0.382,2.155,0.235,3.001-0.538c0.878-0.808,0.068-1.538,0.608-2.249
			c0.459-0.604,1.616-0.282,1.703-1.142C46.717,4.784,40.532,4.299,39.115,4.283z"/>
		<path style="clip-path:url(#SVGID_2_);fill:#FF3B3B;" d="M32.545,2.188c-0.956,1.66-1.01,2.869-0.726,4.386l0.978,0.022
			c0.23-1.307,0.88-2.704,2.158-3.964C34.873,1.908,32.938,1.731,32.545,2.188z"/>
	</g>
</g>
<g id="Layer_1">
</g>
</svg>
