<?xml version="1.0" encoding="iso-8859-1"?>
<!-- Generator: Adobe Illustrator 16.0.0, SVG Export Plug-In . SVG Version: 6.00 Build 0)  -->
<!DOCTYPE svg PUBLIC "-//W3C//DTD SVG 1.1//EN" "http://www.w3.org/Graphics/SVG/1.1/DTD/svg11.dtd">
<svg version="1.1" xmlns="http://www.w3.org/2000/svg" xmlns:xlink="http://www.w3.org/1999/xlink" x="0px" y="0px" width="66px"
	 height="66px" viewBox="0 0 66 66" style="enable-background:new 0 0 66 66;" xml:space="preserve">
<g id="Layer_107">
	<g>
		<defs>
			<circle id="SVGID_1_" cx="33" cy="33" r="33"/>
		</defs>
		<clipPath id="SVGID_2_">
			<use xlink:href="#SVGID_1_"  style="overflow:visible;"/>
		</clipPath>
		<rect style="clip-path:url(#SVGID_2_);fill:#FFFFFF;" width="66" height="66"/>
		<path style="clip-path:url(#SVGID_2_);fill:#E62628;" d="M39.195,54.927l-1.631,3.21c0.511,0.26,0.986,2.598,1.241,3.855
			c0.247,1.216,0.543,2.643,1.035,4.008h3.917c-0.626-1.092-1.011-2.691-1.424-4.725C41.779,58.549,41.256,55.973,39.195,54.927z"/>
		<path style="clip-path:url(#SVGID_2_);fill:#E62628;" d="M29.716,58.137l-1.631-3.21c-2.213,1.124-2.782,3.683-3.385,6.394
			c-0.342,1.536-0.722,3.184-1.406,4.68h3.888c0.461-1.34,0.761-2.678,1.032-3.898C28.609,60.326,29.018,58.49,29.716,58.137z"/>
		<path style="clip-path:url(#SVGID_2_);fill:#E62628;" d="M39.578,61.77c1.08-4.039,1.2-6.485-1.295-7.305
			c-2.426-0.798-6.898-1.064-9.557,0.072c-2.12,0.907-2.8,2.377-1.353,6.854c0.534,1.654,0.969,3.229,1.154,4.609h10.164
			C38.831,64.859,39.115,63.498,39.578,61.77z"/>
		<linearGradient id="SVGID_3_" gradientUnits="userSpaceOnUse" x1="33.1851" y1="52.4814" x2="33.1851" y2="55.8076">
			<stop  offset="0" style="stop-color:#E88958"/>
			<stop  offset="0.3384" style="stop-color:#F49D62"/>
			<stop  offset="0.6924" style="stop-color:#FCAB69"/>
			<stop  offset="1" style="stop-color:#FFB06B"/>
		</linearGradient>
		<path style="clip-path:url(#SVGID_2_);fill:url(#SVGID_3_);" d="M36.324,50.293c0.206-3.57-5.961-3.703-5.953,0.193
			c0.001,1.727,0.133,3.042-0.226,3.602c-1.233,1.928,3.419,4.691,3.419,4.691s3.619-2.908,2.727-4.51
			C35.773,53.342,36.234,51.867,36.324,50.293z"/>
		<path style="clip-path:url(#SVGID_2_);fill:#FF3B3B;" d="M36.085,59.141c-1.747,0.619-3.875,0.359-5.669-0.09
			c-1.03-0.258-1.609,0.91-1.292,1.908c0.42,1.322,2.56,1.67,4.425,1.639c3.678-0.057,5.056-1.424,4.432-3.051
			C37.814,59.109,37.026,58.811,36.085,59.141z"/>
		<path style="clip-path:url(#SVGID_2_);fill:#261B18;" d="M54.219,26.41c-1.3-1.132-2.116-1.824-2.24-3.548
			c-0.131-1.808,0.22-3.832-0.61-5.515c-0.747-1.517-2.484-1.842-3.902-2.519c-1.596-0.762-2.29-1.931-3.218-3.367
			c-1.766-2.737-5.445-3.407-8.378-2.042c-0.29-1.496-2.241-2.13-4.299-2.193c-2.145-0.065-4.59,0.995-6.312,2.262
			c-2.03,1.494-3.493,3.555-5.354,5.236c-3.602,3.254-11.259,6.913-9.077,13.103c0.799,2.265,2.223,2.897,0.917,5.356
			c-1.21,2.278-1.839,3.545,0.057,5.625c0.741,0.813,1.539,1.197,1.569,2.395c0.028,1.088-0.963,2.037-0.898,3.168
			c0.137,2.418,1.987,4.152,4.311,5.576c2.922,1.793,6.594,3.094,8.552,4.644c3.467,2.745,5.291-2.107,8.08-2.212
			c1.459-0.055,2.157,1.341,4.05,2.854c2.965,2.372,7.25,4.854,9.622,1.149c-0.995-0.033-1.88-0.465-2.621-1.121
			c3.881,0.057,7.412-1.213,7.121-5.688c-0.111-1.703-0.769-2.349,0.485-3.714c1.18-1.284,3.729-1.351,3.851-3.581
			c0.111-2.018-2.355-2.455-2.802-4.106c-0.467-1.724,1.037-2.454,1.953-3.688C57.42,31.323,57.017,28.846,54.219,26.41z"/>
		<path style="clip-path:url(#SVGID_2_);fill:#FFBC82;" d="M31.529,15.955c-8.041,1.342-13.889,12.148-12.603,22.402
			c0.954,7.607,7.796,15.813,16.062,15.32c9.942-0.592,14.957-11.672,13.935-20.709C47.76,22.703,42.79,14.077,31.529,15.955z"/>
		<path style="opacity:0.3;clip-path:url(#SVGID_2_);fill:#BF3C1B;" d="M48.363,24.618c-0.446-2.218-2.05-4.668-4.243-5.585
			c-2.917-1.218-7.808-3.697-10.948-2.67c-3.723,1.217-7.205,3.784-9.884,6.585c-3.415,3.572-5.918,11.877-3.273,16.358
			c0.567-0.781,0.628-1.97,0.979-2.903c1.277-3.394,5.009-5.385,7.643-7.693c0.785,1.851,2.389,2.17,4.137,2.548
			c-0.357-1.145-0.18-2.289,0.291-3.328c0.257-0.566,0.602-1.101,0.994-1.587c0.428-0.529,3.233-2.825,2.785-3.54
			c1.394,2.23,4.043,3.624,6.341,4.693c2.966,1.38,3.628,3.498,5.019,6.317c-0.312-0.631,0.535-3.472,0.536-4.35
			C48.74,27.88,48.678,26.174,48.363,24.618z"/>
		<path style="clip-path:url(#SVGID_2_);fill:#261B18;" d="M49.98,23.491c-0.398-1.933-3.214-3.926-4.316-5.641
			c-1.386-2.158-3.047-4.106-5.325-5.354c-3.943-2.16-8.851-2.019-13.2-1.346c-5.138,0.794-9.188,5.208-11.143,9.649
			c-2.221,5.045-2.544,9.913-1.758,17.007c0.409,3.681,0.895,8.434,2.975,11.604c0.636,0.969,2.325,1.971,1.662,3.362
			c-0.872,1.829-2.584-0.409-2.288-0.763c-0.082,0.1-0.311,0.41-0.38,0.539c0.053,1.074,0.29,2.004,1.061,2.787
			c2.508,2.553,5.689,0.918,6.881-2.014c1.586-3.902-1.947-5.908-2.956-9.412c-1.099-3.816-1.32-7.277,1.058-10.643
			c2.231-3.158,3.907-5.703,7.563-7.437c-1.066,2.271,0.996,6.024,3.802,4.894c-2.348-0.854-1.64-2.934-0.514-4.534
			c0.399-0.568,4.262-4.578,3.638-5.206c1.5,1.509,3.164,2.998,4.986,4.108c1.771,1.079,3.457,1.484,4.7,3.255
			c0.638,0.907,1.106,1.929,1.422,2.99c0.234,0.788,0.065,2.161,0.493,2.829c1.163,1.814,3.608,0.103,3.884-1.48
			c0.373-2.142-1.056-3.245-1.947-5.009C49.46,26.06,50.305,25.064,49.98,23.491z"/>
		<path style="clip-path:url(#SVGID_2_);fill:#57443A;" d="M31.823,26.129c0-0.001,0-0.004,0-0.006
			c-0.001,0.002-0.002,0.004-0.003,0.006C31.822,26.163,31.823,26.163,31.823,26.129z"/>
		<path style="clip-path:url(#SVGID_2_);fill:#57443A;" d="M46.2,16.255c-2.576-1.053-3.101-3.766-5.067-5.366
			c-1.733-1.411-4.526-0.845-5.925,0.748c-0.75-2.299-3.188-2.748-4.652-2.592c-1.501,0.16-2.827,1.387-3.813,2.549
			c-2.052,2.417-3.926,3.833-6.656,5.443c-2.334,1.376-5.494,3.757-5.622,6.716c-0.049,1.144,0.661,4.145,1.729,4.785
			c1.229,0.735,2.846,0.303,4.13-0.036c3.65-0.962,8.646-3.984,12.069-8.333c-0.528,2.717-0.546,4.959-0.569,5.954
			c0.693-1.313,1.817-2.371,2.503-3.702c0.461-0.896,0.615-1.877,0.844-2.847c0.245-1.034,0.762-1.736,1.287-2.661
			c1.394,2.478,3.101,5.16,6.115,5.713c1.021,0.188,2.076-0.002,3.093,0.193c0.95,0.183,1.516,0.714,2.322,1.168
			c2.003,1.128,2.304-1.915,2.423-3.482C50.652,17.318,48.603,17.238,46.2,16.255z"/>
		<path style="clip-path:url(#SVGID_2_);fill:#57443A;" d="M16.746,41.722c-0.491,0.007-0.854,0.129-1.105,0.324
			c-1.125,0.87-1.869,5.927,3.975,5.614c-0.424-0.6-0.803-1.372-0.856-2.115C18.675,44.405,18.598,41.695,16.746,41.722z"/>
		<path style="clip-path:url(#SVGID_2_);fill:#57443A;" d="M50.937,27.097c-0.311,0.07-0.636,0.271-0.953,0.646
			c-1.198,1.413,0.844,3.195,1.67,3.985c0.539,0.514,0.895,1.298,1.088,2.005C56.699,29.424,52.323,26.781,50.937,27.097z"/>
		<path style="clip-path:url(#SVGID_2_);fill:#57443A;" d="M47.155,49.471c-0.146,1.289,0.755,2.326-0.095,3.698
			c1.548-0.192,3.492-1.841,3.044-3.759C49.573,47.137,47.3,48.193,47.155,49.471z"/>
		<path style="clip-path:url(#SVGID_2_);fill:#57443A;" d="M14.563,34.699c-1.022,1.684,0.313,3.855,1.724,4.519
			c-0.381-1.569,0.797-2.273,1.06-3.544C17.607,34.414,15.775,32.704,14.563,34.699z"/>
		<path style="clip-path:url(#SVGID_2_);fill:#57443A;" d="M51.107,40.654c-0.659,1.117-0.26,2.431-1.595,3.338
			c1.49,0.455,3.938-0.258,4.312-2.191C54.266,39.508,51.759,39.547,51.107,40.654z"/>
		<path style="clip-path:url(#SVGID_2_);fill:#FFC48F;" d="M44.995,35.43c-1.174-0.194-2.802-0.016-2.015,1.825
			c0.421,0.979,4.998,2.372,4.771,0.229c-0.023-0.221-0.082-0.419-0.169-0.597C47.126,35.945,45.894,35.58,44.995,35.43z"/>
		<path style="clip-path:url(#SVGID_2_);fill:#FFC48F;" d="M29.354,36.033c-0.871-0.666-2.199-0.426-3.112-0.143
			c-1.191,0.369-2.632,1.305-1.025,2.656c0.856,0.722,5.804-0.135,4.579-2.035C29.668,36.316,29.52,36.158,29.354,36.033z"/>
		<path style="opacity:0.5;clip-path:url(#SVGID_2_);fill:#B54319;" d="M36.446,37.227c-0.978-0.066-0.956-0.594-1.663-0.191
			c-0.707,0.4-0.185,1.945,1.549,2.017c1.726,0.073,2.541-1.2,2.206-1.729C38.151,36.711,37.53,37.303,36.446,37.227z"/>
		<path style="clip-path:url(#SVGID_2_);fill:#FFC48F;" d="M36.202,34.383c-0.802,0.016-1.988,2.715-1.588,3.124
			c0.984,1.003,3.167,0.532,3.83-0.153C38.706,37.082,37.109,34.367,36.202,34.383z"/>
		<path style="clip-path:url(#SVGID_2_);fill:#425361;" d="M46.022,31.268c-2.699-1.152-5.164,2.179-3.222,3.912
			c0.392-0.424,2.506-1.106,3.813-0.121C47.721,34.264,47.468,31.887,46.022,31.268z"/>
		<path style="clip-path:url(#SVGID_2_);fill:#C3D5E3;" d="M46.322,33.141c-0.739,0.232-0.389,1.65,0.366,1.152
			C47.236,33.935,46.979,32.936,46.322,33.141z"/>
		<path style="clip-path:url(#SVGID_2_);fill:#C3D5E3;" d="M43.792,31.665c-1.257,0.394-0.663,2.806,0.623,1.959
			C45.345,33.015,44.908,31.318,43.792,31.665z"/>
		<path style="clip-path:url(#SVGID_2_);fill:#425361;" d="M25.914,31.487c-1.428,0.661-1.612,3.044-0.479,3.806
			c1.275-1.023,3.409-0.402,3.812,0.01C31.138,33.514,28.578,30.256,25.914,31.487z"/>
		<path style="clip-path:url(#SVGID_2_);fill:#C3D5E3;" d="M25.669,33.368c-0.664-0.187-0.892,0.82-0.334,1.162
			C26.105,35.006,26.414,33.577,25.669,33.368z"/>
		<path style="clip-path:url(#SVGID_2_);fill:#C3D5E3;" d="M28.155,31.818c-1.127-0.313-1.514,1.395-0.566,1.977
			C28.898,34.604,29.422,32.176,28.155,31.818z"/>
		<path style="clip-path:url(#SVGID_2_);fill:#261B18;" d="M30.19,27.807c-1.334-0.157-2.606-0.265-3.965-0.071
			c-0.842,0.121-1.874,0.425-2.565,0.877c-0.232,0.154-0.526,0.43-0.535,0.694c0.215,0.05,0.391-0.074,0.594-0.114
			c1.031-0.204,2.097-0.153,3.133-0.095c0.809,0.045,1.604,0.163,2.414,0.188c0.543,0.018,1.271,0.181,1.604-0.323
			C31.29,28.324,30.909,27.892,30.19,27.807z"/>
		<path style="clip-path:url(#SVGID_2_);fill:#261B18;" d="M47.79,28.34c-0.668-0.427-1.667-0.706-2.486-0.811
			c-1.317-0.167-2.558-0.047-3.856,0.124c-0.701,0.09-1.076,0.513-0.675,1.122c0.316,0.484,1.028,0.314,1.555,0.291
			c0.79-0.036,1.565-0.16,2.351-0.215c1.01-0.072,2.047-0.135,3.047,0.048c0.197,0.038,0.368,0.153,0.576,0.103
			C48.298,28.747,48.015,28.484,47.79,28.34z"/>
		<path style="clip-path:url(#SVGID_2_);fill:#121B21;" d="M45.484,30.806c-2.489-0.452-3.193,1.998-3.193,1.998
			s1.206-1.551,2.822-0.862c3.668,1.565,5.607-1.036,5.607-1.036C48.103,32.13,46.758,31.038,45.484,30.806z"/>
		<path style="clip-path:url(#SVGID_2_);fill:#121B21;" d="M26.541,31.078c-1.271,0.245-2.604,1.352-5.235,0.155
			c0,0,1.968,2.581,5.618,0.977c1.609-0.708,2.831,0.833,2.831,0.833S29.025,30.6,26.541,31.078z"/>
		<path style="clip-path:url(#SVGID_2_);fill:#FF3B3B;" d="M25.845,40.763c4.248,6.241,6.829,7.365,10.078,7.507
			c4.073,0.176,5.426-2.426,6.015-4.37c0.25-0.821,2.279-2.958,3.071-3.447c-2.528,0.597-5.029,0.334-8.854,0.501
			C32.99,41.092,28.358,42.029,25.845,40.763z"/>
		<path style="clip-path:url(#SVGID_2_);fill:#A80A0A;" d="M27.776,41.833c0,0,2.561,4.202,7.624,4.231
			c3.245,0.017,5.366-1.008,5.948-2.453c0.638-1.578,2.012-2.164,2.012-2.164C34.556,43.596,27.776,41.833,27.776,41.833z"/>
		<path style="clip-path:url(#SVGID_2_);fill:#FFF9F0;" d="M29.661,42.186c0,0,0.171,1.279,1.979,1.75
			c2.319,0.604,4.81,0.609,7.372,0.201c1.728-0.273,2.552-2.297,2.552-2.297S36.632,43.014,29.661,42.186z"/>
		<path style="clip-path:url(#SVGID_2_);fill:#FFF9F0;" d="M36.664,44.336c-2.315,0.111-4.241-0.01-5.409-0.695
			c-0.833-0.486-0.901,0.051-0.719,0.383c0,0,0.772,1.746,4.62,2.1c3.699,0.34,5.584-1.781,5.157-2.141
			C39.888,43.625,38.81,44.233,36.664,44.336z"/>
		<path style="clip-path:url(#SVGID_2_);fill:#E8DAC5;" d="M29.661,42.186c0,0,0.139,0.592,0.473,0.897
			c0,0,8.653-0.806,10.734-0.115c0,0,0.601-0.716,0.695-1.128C41.563,41.84,35.523,42.968,29.661,42.186z"/>
		<path style="clip-path:url(#SVGID_2_);fill:#E8DAC5;" d="M31.948,43.891c3.129,1.711,6.829,0.188,6.829,0.188
			C34.878,44.965,31.948,43.891,31.948,43.891z"/>
		<path style="opacity:0.3;clip-path:url(#SVGID_2_);fill:#B54D26;" d="M46.904,28.92c-1.456,0.079-2.905,0.304-4.316,0.677
			c-1.202,0.319-2.616,0.466-3.724,1.041c-1.022,0.533-1.451,0.879-2.687,0.829c-2.207-0.087-4.069-1.46-6.275-1.688
			c-2.296-0.236-4.646-0.504-6.908,0.122c-0.588,0.165-2.367,0.839-1.165,1.47c1.175,0.615,2.93,0.418,4.214,0.467
			c0.594,0.021,1.19,0.036,1.781,0.09c2.1,0.189,5.329-0.103,5.164,2.517c-0.113,1.799-1.27,3.646-2.731,3.988
			c-1.401,0.324-2.901,0.453-4.321,0.449c-1.086-0.004-2.137-0.213-3.127-0.67c-0.282-0.131-1.123-0.666-1.395-0.285
			c-0.462,0.646,1.245,1.715,1.693,1.918c1.022,0.457,2.107,0.597,3.217,0.713c2.737,0.287,5.557,0.139,7.1-2.377
			c0.894-1.461,1.341-3.176,2.169-4.674c1.357-2.452,2.001,0.871,2.433,2.326c0.242,0.817,0.594,1.611,1.095,2.299
			c0.888,1.22,2.627,1.879,4.081,1.945c0.897,0.039,1.814-0.008,2.654-0.356c0.507-0.212,0.712-0.8,0.104-1.028
			c-0.368-0.141-0.956-0.036-1.341-0.053c-0.563-0.021-1.139-0.028-1.693-0.132c-0.711-0.133-1.427-0.427-2.028-0.866
			c-0.422-0.307-0.785-0.686-1.053-1.135c-0.558-0.932-0.587-2.071-0.223-3.082c0.5-1.39,2.024-1.504,3.289-1.614
			c1.532-0.134,3.083-0.108,4.607-0.252c0.678-0.063,1.355,0.028,2.033,0.049c0.874,0.027,2.758-0.254,1.721-1.519
			C50.27,28.869,48.317,28.843,46.904,28.92z"/>
		<path style="clip-path:url(#SVGID_2_);fill:#3A3A4A;" d="M20.814,28.942c-1.807,0.062-3.35-0.437-3.774-0.072
			c-0.552,0.475,0.42,2.086,0.42,2.086s0.575,0.402,1.422,0.472c0.12,1.253,0.06,4.496,2.368,6.537
			c1.928,1.702,8.21,2.181,10.161,1.192c2.418-1.223,3.442-3.484,3.864-5.711C36.31,27.984,23.362,28.853,20.814,28.942z
			 M31.537,37.684c-2.384,1.551-8.492,0.84-10.085-1.118c-1.228-1.511-1.452-4.675-0.705-5.127
			c2.284-1.383,10.886-0.879,12.879,0.634C34.592,32.806,33.345,36.51,31.537,37.684z"/>
		<path style="clip-path:url(#SVGID_2_);fill:#3A3A4A;" d="M50.441,28.365c-2.304,0.005-14.02-0.377-12.889,5.041
			c0.462,2.211,1.469,4.43,3.694,5.563c1.797,0.914,7.45,0.201,9.128-1.57c2.011-2.126,1.837-5.366,1.902-6.623
			c0.761-0.1,1.266-0.525,1.266-0.525s0.819-1.646,0.304-2.099C53.449,27.803,52.075,28.359,50.441,28.365z M50.143,36.006
			c-1.367,2.017-6.854,2.955-9.063,1.496c-1.673-1.105-2.934-4.759-2.087-5.528c1.743-1.586,9.488-2.414,11.6-1.117
			C51.284,31.281,51.195,34.451,50.143,36.006z"/>
		<path style="opacity:0.3;clip-path:url(#SVGID_2_);fill:#FFFFFF;" d="M40.508,31.479c-1.273,0.556,1.045,1.22,1.542,1.293
			c1.729,0.249,3.687,0.119,5.522-0.229c0.966-0.184,3.04-1.074,2.439-1.604C49.174,30.195,41.912,30.868,40.508,31.479z"/>
		<path style="clip-path:url(#SVGID_2_);fill:#FFFFFF;" d="M46.199,31.137c-0.69,0.111-1.143,0.315-0.951,0.627
			c0.377,0.611,4.44,0.243,4.714-0.228C50.23,31.075,47.672,30.896,46.199,31.137z"/>
		<path style="opacity:0.7;clip-path:url(#SVGID_2_);fill:#FFFFFF;" d="M41.818,36.219c-0.436-0.018-0.738,0.072-0.66,0.347
			c0.148,0.54,2.674,0.874,2.901,0.546C44.283,36.789,42.748,36.256,41.818,36.219z"/>
		<path style="opacity:0.7;clip-path:url(#SVGID_2_);fill:#FFFFFF;" d="M22.855,36.109c-0.454-0.072-0.782-0.018-0.737,0.264
			c0.087,0.555,2.686,1.195,2.968,0.898C25.361,36.979,23.821,36.26,22.855,36.109z"/>
		<path style="opacity:0.3;clip-path:url(#SVGID_2_);fill:#FFFFFF;" d="M32.671,31.756c-1.614-0.569-9.629-1.147-10.452-0.434
			c-0.59,0.508,1.789,1.337,2.866,1.504c2.053,0.314,4.205,0.423,6.063,0.17C31.681,32.925,34.132,32.274,32.671,31.756z"/>
		<path style="clip-path:url(#SVGID_2_);fill:#FFFFFF;" d="M29.185,31.302c-0.736,0.027-1.236,0.174-1.076,0.505
			c0.316,0.655,4.614,0.793,4.963,0.358C33.412,31.74,30.758,31.246,29.185,31.302z"/>
		<path style="clip-path:url(#SVGID_2_);fill:#3A3A4A;" d="M39.062,30.131c-1.673,0.772-3.303,0.897-5.636,0.078
			c-1.763-0.621,0.929,1.142,1.137,2.056c0.207,0.913-0.089,3.707,0.518,2.042c0.606-1.667,1.836-1.776,2.626-0.249
			c0.791,1.527,0.721-2.559,1.038-2.934C39.063,30.75,40.733,29.359,39.062,30.131z"/>
		<path style="clip-path:url(#SVGID_2_);fill:#C1C5C9;" d="M21.663,29.475c4.88,0.231,8.777,0.361,11.727,1.491
			C31.464,29.391,28.155,29.052,21.663,29.475z"/>
		<path style="clip-path:url(#SVGID_2_);fill:#C1C5C9;" d="M50.029,28.792c-5.952,0.231-8.727,0.281-10.324,1.8
			C42.278,29.359,45.61,29.437,50.029,28.792z"/>
	</g>
</g>
<g id="Layer_1">
</g>
</svg>
