<?xml version="1.0" encoding="iso-8859-1"?>
<!-- Generator: Adobe Illustrator 16.0.0, SVG Export Plug-In . SVG Version: 6.00 Build 0)  -->
<!DOCTYPE svg PUBLIC "-//W3C//DTD SVG 1.1//EN" "http://www.w3.org/Graphics/SVG/1.1/DTD/svg11.dtd">
<svg version="1.1" xmlns="http://www.w3.org/2000/svg" xmlns:xlink="http://www.w3.org/1999/xlink" x="0px" y="0px"
	 width="66.013px" height="66px" viewBox="0 0 66.013 66" style="enable-background:new 0 0 66.013 66;" xml:space="preserve">
<g id="Layer_3">
	<g>
		<defs>
			<circle id="SVGID_1_" cx="33.013" cy="33" r="33"/>
		</defs>
		<clipPath id="SVGID_2_">
			<use xlink:href="#SVGID_1_"  style="overflow:visible;"/>
		</clipPath>
		<rect style="clip-path:url(#SVGID_2_);fill:#7997A0;" width="66" height="65.998"/>
		<path style="clip-path:url(#SVGID_2_);fill:#F0D5C4;" d="M27.68,59.346c0.693-0.918-0.008-6.631-0.947-6.291
			c-2.903,1.053-5.93,8.068-5.754,12.943h5.379C26.158,63.937,26.64,60.722,27.68,59.346z"/>
		<path style="clip-path:url(#SVGID_2_);fill:#EB2628;" d="M26.838,52.83c-3.473,1.812-6.299,5.918-6.334,11.17
			c1.76,0.583,4.403,0.85,6.17,0.615c-0.141-1.872,0.123-3.775,1.243-5.196C28.659,58.477,27.763,52.348,26.838,52.83z"/>
		<path style="clip-path:url(#SVGID_2_);fill:#FFA763;" d="M48.304,49.438c-2.389,2.908,0.012,3.74,2.298,5.252
			c1.141,0.752,2.493,2.065,3.416,0.148c0.53-1.102,0.532-1.98,0.943-3.11c0.345-0.951,0.769-2.243,1.383-3.026
			C58.028,46.553,55.699,40.441,48.304,49.438z"/>
		<path style="clip-path:url(#SVGID_2_);fill:#8E9194;" d="M47.575,35.86c-0.355-0.354-0.954-0.336-1.331,0.042l-5.458,5.482
			c-0.376,0.378-0.394,0.978-0.037,1.331l9.76,9.718c0.354,0.354,0.954,0.335,1.33-0.043l5.46-5.481
			c0.374-0.378,0.392-0.977,0.035-1.331L47.575,35.86z"/>
		<path style="clip-path:url(#SVGID_2_);fill:#141418;" d="M47.221,35.546c-0.341-0.338-0.919-0.312-1.289,0.058l-5.35,5.372
			c-0.367,0.371-0.392,0.951-0.051,1.289l9.307,9.268c0.339,0.339,0.918,0.313,1.287-0.059l5.35-5.372
			c0.369-0.371,0.393-0.949,0.053-1.288L47.221,35.546z"/>
		<path style="clip-path:url(#SVGID_2_);fill:#D9D9D9;" d="M47.221,35.546c-0.341-0.338-0.919-0.312-1.289,0.058l-5.35,5.372
			c-0.367,0.371-0.392,0.951-0.051,1.289l9.307,9.268c0.339,0.339,0.918,0.313,1.287-0.059l5.35-5.372
			c0.369-0.371,0.393-0.949,0.053-1.288L47.221,35.546z"/>
		<path style="clip-path:url(#SVGID_2_);fill:#FFFFFF;" d="M47.32,37.466c-0.272-0.271-0.714-0.272-0.979-0.006l-3.9,3.917
			c-0.267,0.268-0.263,0.71,0.01,0.98l7.192,7.161c0.272,0.271,0.714,0.274,0.98,0.006l3.9-3.917
			c0.267-0.267,0.262-0.708-0.011-0.979L47.32,37.466z"/>
		<path style="clip-path:url(#SVGID_2_);fill:#F0D5C4;" d="M50.149,54.379c0.477,9.885-6.196-0.589-9.253-0.813
			c-1.025-0.076,0.218,5.535,0.782,6.311c4.392,6.017,13.574,4.206,12.85-5.203L50.149,54.379z"/>
		<path style="clip-path:url(#SVGID_2_);fill:#EB2628;" d="M41.228,60.31c1.552,2.586,4.422,3.68,6.018,4.068
			c1.157-1.516,1.48-4.11,1.572-6.107c-2.461-0.501-6.351-4.892-8.362-5.039C39.385,53.152,40.71,59.449,41.228,60.31z"/>
		<path style="clip-path:url(#SVGID_2_);fill:#FFA763;" d="M46.343,48.354c-0.167,0.468,0.63,1.325,0.822,1.745
			c0.31,0.672-0.198,1.918,0.61,2.441c0.654,0.427,1.187-0.079,1.443-0.636c0.477-1.021-0.01-2.313-0.933-3.243
			C47.862,48.231,46.605,47.617,46.343,48.354z"/>
		<path style="clip-path:url(#SVGID_2_);fill:#EB2628;" d="M42.323,63.61c1.702-2.74,2.201-8.704-1.627-10.758
			c-2.918-1.565-10.626-2.517-13.846,0c-3.518,2.75-2.717,7.148-1.753,11.321c0.155,0.673,0.391,1.261,0.627,1.824h15.293
			C41.332,65.181,41.817,64.425,42.323,63.61z"/>
		<path style="clip-path:url(#SVGID_2_);fill:#F0D5C4;" d="M28.229,52.833c-0.143,0.56,0.016,1.126,0.356,1.673
			c2.457,3.933,9.179,3.8,11.045-0.25c0.289-0.627,0.318-1.283-0.077-1.934C37.897,49.597,29.055,49.586,28.229,52.833z"/>
		<path style="opacity:0.2;clip-path:url(#SVGID_2_);fill:#FFFFFF;" d="M39.41,57.573c-1.902,1.834-8.132,1.799-10.405-0.692
			c-1.281-1.405-2.656,1.409-2.137,3.376c0.689,2.61,4.404,3.402,7.649,3.445c6.403,0.083,8.55-2.789,7.519-6.008
			C41.76,56.831,40.679,56.352,39.41,57.573z"/>
		<path style="clip-path:url(#SVGID_2_);fill:#EB8449;" d="M34.043,47.767c-1.896-0.004-4.566,1.096-4.757,3.984
			c-0.089,1.345,0.112,2.124,0.813,2.87c1.962,2.089,6.053,1.952,7.886,0c0.702-0.746,0.902-1.525,0.814-2.87
			C38.608,48.862,35.938,47.763,34.043,47.767z"/>
		<path style="clip-path:url(#SVGID_2_);fill:#261B18;" d="M16.436,18.216c-2.796,7.054-3.111,12.533-5.101,23.716
			c-0.504,2.832-2.348,7.176-1.599,8.912c1.048,2.434,3.823,1.08,6.082,1.845c2.438,0.827,5.138,2.006,5.764-1.44
			c0.238,0.663,0.28,1.413,0.234,2.103c1.901,0.069,8.446-1.911,12.843-1.682c3.914,0.206,11.984,3.861,13.69-0.62
			c1.271-3.343,2.667-18.178,2.203-23.04c-0.029-0.301,1.171-0.693,1.211-0.949c0.131-0.862,0.212-1.474,0.228-1.716
			C53.293,6.034,23.403,0.64,16.436,18.216z"/>
		<path style="clip-path:url(#SVGID_2_);fill:#FFA763;" d="M31.918,15.843c-7.625,1.253-13.291,11.993-12.203,22.261
			c0.807,7.618,7.622,15.288,15.005,15.498c7.816,0.221,14.296-11.506,13.442-20.554C47.19,22.771,42.596,14.09,31.918,15.843z"/>
		<path style="opacity:0.3;clip-path:url(#SVGID_2_);fill:#BF3C1B;" d="M45.151,19.086c-4.079-1.764-8.055-2.826-12.578-3.074
			c-2.765-0.152-6.479-0.438-9.102,0.604c-3.926,1.557-5.671,4.063-6.324,7.966c-0.443,2.654,2.158,5.276,4.161,6.997
			c1.5-1.381,0.867-3.327,0.876-5.008c0.294,1.924,1.877,1.411,3.53,1.537c1.471,0.112,3.98,0.827,5.344,0.139
			c0.614-0.311,0.732-0.743,0.981-1.382c0.225,0.304,0.498,0.521,0.803,0.679c0.977,0.503,2.279,0.384,3.371,0.462
			c1.613,0.114,3.315,0.334,4.891-0.155c0.687-0.214,1.097-0.4,1.318-1.167c0.22,1.634,2.687,1.423,4.027,1.416
			C48.604,28.089,48.451,20.511,45.151,19.086z"/>
		<path style="clip-path:url(#SVGID_2_);fill:#FFA763;" d="M17.197,33.766c-3.753,0.914-2.423,6.392,0.586,7.574
			c0.965,0.378,1.999,0.456,2.998,0.416c0.019-0.03,0.041-0.06,0.063-0.09c0.468-0.693-0.04-4.674-0.246-5.427
			C20.081,34.345,18.998,33.326,17.197,33.766z"/>
		<path style="opacity:0.5;clip-path:url(#SVGID_2_);fill:#B54319;" d="M18.443,35.804c-0.825-0.409-2.933,0.222-2.001,1.887
			c0.563-1.501,1.457-0.479,1.283,0.594c-0.115,0.721-0.892,0.707-0.148,1.658c0.402,0.514,1.253,0.354,1.688,0.099
			C20.645,39.227,19.45,36.305,18.443,35.804z"/>
		<path style="clip-path:url(#SVGID_2_);fill:#261B18;" d="M42.08,24.791c0.001,0.001,0.001,0.003,0.002,0.005
			c0.001-0.003,0.001-0.005,0.002-0.008C42.076,24.739,42.074,24.74,42.08,24.791z"/>
		<path style="clip-path:url(#SVGID_2_);fill:#261B18;" d="M31.855,24.54c0.007,0.018,0.013,0.041,0.02,0.061
			c0.002-0.013,0.007-0.024,0.01-0.036C31.874,24.52,31.864,24.511,31.855,24.54z"/>
		<path style="clip-path:url(#SVGID_2_);fill:#261B18;" d="M42.995,14.07c-4.087-3.679-9.547-3.812-14.73-3.074
			c-1.986,0.281-4.813,0.698-6.609,1.633c-1.564,0.814-2.235,2.82-2.991,4.332c-1.352,2.703-1.849,6.011-2.184,8.98
			c-0.18,1.598,0.402,3.255,0.519,4.862c0.112,1.571,0.771,2.934,1.021,4.48c0.383,2.357,0.161,4.744-0.653,6.99
			c-0.343,0.946-1.122,1.713-0.45,2.586c0.527,0.688,1.854,1.028,2.452,0.436c0.501-0.499,1.565-4.67,1.803-5.738
			c0.586-2.627,0.604-5.701,0.58-8.371c-0.022-2.519,0.134-5.103,1.039-7.473c-0.112,1.018,0.249,2.36,0.284,3.438
			c2.571-0.234,5.302,0.057,7.879,0.03c0.436-0.809,0.729-1.692,0.921-2.582c-0.007-0.02-0.013-0.043-0.02-0.061
			c0.009-0.029,0.019-0.021,0.029,0.024c-0.003,0.012-0.008,0.023-0.01,0.036c0.158,0.472,0.306,1.489,0.631,1.767
			c0.604,0.515,2.408,0.262,3.154,0.333c1.403,0.133,3.775,0.697,5.14,0.153c0.882-0.353,1.036-1.162,1.282-2.058
			c-0.001-0.002-0.001-0.004-0.002-0.005c-0.006-0.051-0.004-0.052,0.004-0.003c-0.001,0.003-0.001,0.005-0.002,0.008
			c0.26,0.47,0.357,1.288,0.789,1.517c0.504,0.268,1.932,0.493,2.539,0.532c0.707,0.044,2.337,0.147,3.052,0.036
			c2.032-0.315,0.685-3.934,0.192-5.237C47.545,18.712,45.153,16.013,42.995,14.07z"/>
		<path style="clip-path:url(#SVGID_2_);fill:#57443A;" d="M30.847,9.179c-3.918,0.299-9.55,3.268-11.387,6.732
			c-4.147,7.826-5.902,16.594-6.48,25.346c-0.148,2.214-1.527,5.562-1.454,7.596c0.066,1.877,0.967,1.94,2.491,0.921
			c1.991-1.329,0.036-8.629,0.528-13.126c0.387-3.536,3.315-3.62,4.421-8.273c0.929,6.317-0.297,14.524-2.885,21.338
			c8.663-13.683,2.374-21.088,6.967-30.287c1.824,2.15,5.12,2.89,7.947,1.802c2.514-0.969,6.005-1.049,8.559,0.005
			c3.354,1.384,6.501,2.117,10.795,0.424C48.569,11.688,37.95,8.637,30.847,9.179z"/>
		<path style="clip-path:url(#SVGID_2_);fill:#FF7752;" d="M44.607,36.148c-1.167-0.229-2.8-0.097-2.065,1.767
			c0.394,0.991,4.929,2.514,4.764,0.363c-0.018-0.222-0.07-0.421-0.153-0.602C46.724,36.724,45.502,36.323,44.607,36.148z"/>
		<path style="clip-path:url(#SVGID_2_);fill:#FF7752;" d="M28.957,36.308c-0.852-0.69-2.187-0.489-3.108-0.23
			c-1.201,0.335-2.667,1.23-1.1,2.626c0.835,0.745,5.805,0.029,4.634-1.904C29.262,36.6,29.118,36.438,28.957,36.308z"/>
		<path style="opacity:0.5;clip-path:url(#SVGID_2_);fill:#B54319;" d="M36.69,37.422c-0.976-0.096-0.938-0.621-1.658-0.239
			c-0.717,0.381-0.238,1.938,1.492,2.06c1.724,0.122,2.574-1.128,2.254-1.664C38.409,36.954,37.772,37.528,36.69,37.422z"/>
		<path style="clip-path:url(#SVGID_2_);fill:#FFC48F;" d="M36.526,34.572c-0.802-0.008-2.064,2.656-1.675,3.078
			c0.954,1.029,3.15,0.62,3.832-0.046C38.953,37.341,37.434,34.582,36.526,34.572z"/>
		<path style="clip-path:url(#SVGID_2_);fill:#261B18;" d="M45.753,32.017c-2.666-1.229-5.223,2.031-3.33,3.818
			c0.402-0.412,2.536-1.034,3.813-0.013C47.366,35.059,47.181,32.676,45.753,32.017z"/>
		<path style="clip-path:url(#SVGID_2_);fill:#CFC4C4;" d="M46,33.897c-0.746,0.211-0.437,1.639,0.334,1.161
			C46.891,34.716,46.662,33.711,46,33.897z"/>
		<path style="clip-path:url(#SVGID_2_);fill:#CFC4C4;" d="M43.513,32.351c-1.268,0.358-0.742,2.786,0.567,1.976
			C45.026,33.744,44.638,32.035,43.513,32.351z"/>
		<path style="clip-path:url(#SVGID_2_);fill:#261B18;" d="M25.646,31.665c-1.444,0.62-1.697,2.998-0.586,3.791
			c1.304-0.986,3.42-0.306,3.811,0.119C30.811,33.841,28.345,30.512,25.646,31.665z"/>
		<path style="clip-path:url(#SVGID_2_);fill:#CFC4C4;" d="M25.348,33.538c-0.658-0.203-0.914,0.795-0.366,1.152
			C25.738,35.189,26.087,33.769,25.348,33.538z"/>
		<path style="clip-path:url(#SVGID_2_);fill:#CFC4C4;" d="M27.878,32.061c-1.118-0.347-1.554,1.352-0.624,1.96
			C28.542,34.865,29.134,32.454,27.878,32.061z"/>
		<path style="clip-path:url(#SVGID_2_);fill:#2B221C;" d="M29.41,27.908c-1.344,0.031-2.618,0.105-3.935,0.487
			c-0.817,0.238-1.797,0.685-2.417,1.23c-0.209,0.185-0.461,0.499-0.433,0.763c0.22,0.02,0.377-0.129,0.572-0.197
			c0.992-0.348,2.054-0.448,3.088-0.535c0.807-0.068,1.611-0.064,2.416-0.153c0.54-0.059,1.284,0.001,1.542-0.545
			C30.571,28.265,30.134,27.893,29.41,27.908z"/>
		<path style="clip-path:url(#SVGID_2_);fill:#2B221C;" d="M45.653,28.749c-1.26-0.421-2.499-0.544-3.808-0.629
			c-0.706-0.047-1.154,0.294-0.881,0.97c0.217,0.534,0.948,0.508,1.47,0.587c0.78,0.118,1.566,0.147,2.349,0.246
			c1.004,0.126,2.034,0.267,2.979,0.642c0.187,0.073,0.33,0.221,0.546,0.212c0.045-0.251-0.181-0.563-0.374-0.748
			C47.362,29.479,46.436,29.011,45.653,28.749z"/>
		<path style="clip-path:url(#SVGID_2_);fill:#121B21;" d="M45.229,31.54c-2.476-0.522-3.249,1.906-3.249,1.906
			s1.25-1.518,2.846-0.781c3.622,1.668,5.634-0.877,5.634-0.877C47.808,32.938,46.494,31.807,45.229,31.54z"/>
		<path style="clip-path:url(#SVGID_2_);fill:#121B21;" d="M26.285,31.274c-1.277,0.209-2.642,1.278-5.237,0.007
			c0,0,1.893,2.635,5.588,1.136c1.628-0.661,2.807,0.912,2.807,0.912S28.781,30.867,26.285,31.274z"/>
		<path style="opacity:0.35;clip-path:url(#SVGID_2_);fill:#C4170E;" d="M32.09,40.723c-2.303,0.488-5.507,2.28-3.31,4.813
			c2.124,2.451,8.827,2.489,11.894,0.573c1.512-0.944,2.162-3.018,0.515-4.296l2.151-0.932
			C39.615,40.332,35.702,39.954,32.09,40.723z"/>
		<path style="clip-path:url(#SVGID_2_);fill:#8F2724;" d="M29.114,43.913c0.923,2.184,7.859,2.076,10.253,1.296
			c2.215-0.721,2.422-2.478,0.814-3.618c0.305-0.091,0.734-0.275,1.155-0.414C34.604,40.308,28.068,41.438,29.114,43.913z"/>
		<path style="clip-path:url(#SVGID_2_);fill:#FFF9F0;" d="M40.349,41.088c-3.313-0.358-7.61-0.37-10.046,0.814
			c-0.495,0.239-0.401,0.5,0.258,0.759c1.15,0.45,4.04,0.011,5.561-0.018c3.747-0.07,4.157,0.287,4.421-0.11
			C40.814,42.126,41.176,41.178,40.349,41.088z"/>
		<path style="clip-path:url(#SVGID_2_);fill:#E8DAC5;" d="M40.461,41.109c-1.392-0.271-8.112-0.65-10.398,0.954
			c0,0-0.471,0.322,0.498,0.598c0,0,4.66-2.439,10.257-0.715C40.817,41.946,41.063,41.201,40.461,41.109z"/>
	</g>
</g>
<g id="Layer_1">
</g>
</svg>
