<?xml version="1.0" encoding="iso-8859-1"?>
<!-- Generator: Adobe Illustrator 16.0.0, SVG Export Plug-In . SVG Version: 6.00 Build 0)  -->
<!DOCTYPE svg PUBLIC "-//W3C//DTD SVG 1.1//EN" "http://www.w3.org/Graphics/SVG/1.1/DTD/svg11.dtd">
<svg version="1.1" xmlns="http://www.w3.org/2000/svg" xmlns:xlink="http://www.w3.org/1999/xlink" x="0px" y="0px"
	 width="66.002px" height="66.001px" viewBox="0 0 66.002 66.001" style="enable-background:new 0 0 66.002 66.001;"
	 xml:space="preserve">
<g id="Layer_90">
	<g>
		<defs>
			<circle id="SVGID_1_" cx="33.002" cy="33" r="33"/>
		</defs>
		<clipPath id="SVGID_2_">
			<use xlink:href="#SVGID_1_"  style="overflow:visible;"/>
		</clipPath>
		<rect style="clip-path:url(#SVGID_2_);fill:#FFFFFF;" width="66" height="66"/>
		<path style="clip-path:url(#SVGID_2_);fill:#FFBC82;" d="M27.181,66c0.283-2.466,0.021-6.593,2.528-7.438
			c0.825-0.279,2.127-2.606,1.691-3.383c-0.435-0.775-0.866-1.145-1.68-0.822c-4.499,1.783-5.521,5.396-5.812,11.643H27.181z"/>
		<path style="clip-path:url(#SVGID_2_);fill:#FFBC82;" d="M42.3,66c-0.283-2.466-0.021-6.593-2.528-7.438
			c-0.825-0.279-2.127-2.606-1.691-3.383c0.436-0.775,0.866-1.145,1.68-0.822c4.499,1.783,5.522,5.396,5.812,11.643H42.3z"/>
		<path style="clip-path:url(#SVGID_2_);fill:#85B428;" d="M39.458,54.029c-2.463-0.811-7.004-1.082-9.704,0.074
			c-2.152,0.92-2.842,2.412-1.373,6.959c0.637,1.973,1.012,3.567,1.128,4.938l10.295-0.002c0.104-1.087,0.394-2.399,0.97-4.554
			C41.87,57.346,41.992,54.861,39.458,54.029z"/>
		
			<linearGradient id="SVGID_3_" gradientUnits="userSpaceOnUse" x1="4127.2285" y1="51.8906" x2="4127.2285" y2="55.1828" gradientTransform="matrix(1 0 0 1 -4092.8242 0)">
			<stop  offset="0" style="stop-color:#E88958"/>
			<stop  offset="0.3384" style="stop-color:#F49D62"/>
			<stop  offset="0.6924" style="stop-color:#FCAB69"/>
			<stop  offset="1" style="stop-color:#FFB06B"/>
		</linearGradient>
		<path style="clip-path:url(#SVGID_2_);fill:url(#SVGID_3_);" d="M37.688,53.873c-0.678-0.842-0.311-2.48-0.22-4.08
			c0.209-3.625-6.052-3.76-6.045,0.196c0.002,1.753,0.198,3.136-0.229,3.657c-2.173,2.658,3.545,4.477,3.545,4.477
			S39.517,56.143,37.688,53.873z"/>
		<path style="opacity:0.5;clip-path:url(#SVGID_2_);fill:#BBE351;" d="M30.044,60.279c0.426,1.345,2.6,1.697,4.492,1.667
			c3.734-0.06,5.134-1.446,4.5-3.1c-0.168-0.443-0.968-0.747-1.924-0.411c-1.774,0.627-3.935,0.363-5.756-0.092
			C30.31,58.081,29.721,59.268,30.044,60.279z"/>
		<path style="clip-path:url(#SVGID_2_);fill:#FFF9F0;" d="M33.51,55.59c0,0.49,0.396,0.891,0.891,0.891
			c0.488,0,0.89-0.4,0.89-0.891c0-0.494-0.401-0.891-0.89-0.891C33.906,54.699,33.51,55.096,33.51,55.59z"/>
		<path style="clip-path:url(#SVGID_2_);fill:#FFF9F0;" d="M31.594,55.023c0,0.436,0.353,0.785,0.782,0.785
			c0.437,0,0.785-0.35,0.785-0.785c0-0.431-0.349-0.783-0.785-0.783C31.946,54.24,31.594,54.593,31.594,55.023z"/>
		<circle style="clip-path:url(#SVGID_2_);fill:#FFF9F0;" cx="31.311" cy="53.741" r="0.641"/>
		<path style="clip-path:url(#SVGID_2_);fill:#FFF9F0;" d="M30.758,52.693c0,0.254,0.205,0.458,0.458,0.458
			c0.251,0,0.453-0.204,0.453-0.458c0-0.252-0.202-0.453-0.453-0.453C30.963,52.24,30.758,52.441,30.758,52.693z"/>
		<path style="clip-path:url(#SVGID_2_);fill:#FFF9F0;" d="M37.203,55.023c0,0.436-0.352,0.785-0.784,0.785
			c-0.434,0-0.785-0.35-0.785-0.785c0-0.431,0.352-0.783,0.785-0.783C36.852,54.24,37.203,54.593,37.203,55.023z"/>
		<circle style="clip-path:url(#SVGID_2_);fill:#FFF9F0;" cx="37.485" cy="53.741" r="0.64"/>
		<path style="clip-path:url(#SVGID_2_);fill:#FFF9F0;" d="M38.037,52.693c0,0.254-0.203,0.458-0.456,0.458
			c-0.252,0-0.452-0.204-0.452-0.458c0-0.252,0.2-0.453,0.452-0.453C37.834,52.24,38.037,52.441,38.037,52.693z"/>
		<path style="opacity:0.5;clip-path:url(#SVGID_2_);fill:#D9AF96;" d="M20.534,40.66c0,0-4.24,0.557-4.819-4
			c-0.577-4.557,1.051-6.019,3.004-5.819C20.67,31.041,20.534,40.66,20.534,40.66z"/>
		<path style="clip-path:url(#SVGID_2_);fill:#4F2619;" d="M35.297,40.418c4.594-0.335,6.188,5.391,8.038,5.908
			c20.794,5.817,18.201-33.679-7.001-39.296C3.649,9.621,0.831,52.938,26.093,46.705C30.726,45.563,28.006,40.951,35.297,40.418z"/>
		<path style="clip-path:url(#SVGID_2_);fill:#FFF9F0;" d="M45.998,39.153c-1.613,0.132-2.78,1.742-2.604,3.593
			c0.176,1.854,1.627,3.246,3.24,3.114c1.613-0.134,2.781-1.742,2.604-3.595C49.064,40.413,47.612,39.021,45.998,39.153z
			 M46.535,44.689c-1.172,0.096-2.223-0.916-2.352-2.259c-0.127-1.344,0.721-2.513,1.891-2.608c1.172-0.096,2.223,0.915,2.351,2.258
			C48.552,43.424,47.707,44.592,46.535,44.689z"/>
		<path style="clip-path:url(#SVGID_2_);fill:#FFBC82;" d="M49,32.312c-0.637-10.755-4.778-17.18-15.421-16.851
			c-11.071,0.343-14.71,7.641-14.425,18.555c0.284,10.915,8.119,18.109,16.293,18.591C41.724,52.979,49.643,43.214,49,32.312z"/>
		<path style="opacity:0.3;clip-path:url(#SVGID_2_);fill:#B54D26;" d="M36.287,24.708c-5.09,4.741-12.385,3.538-16.526,7.535
			c-0.645,0.622-0.325-0.812-0.988-1.494c-1.016-1.049,0.695-4.052,1.238-4.997c2.506-4.363,7.003-7.571,11.546-9.542
			c1.505-0.652,3.105-1.17,4.715-1.496c2.514-0.505,5.352-0.614,7.617,0.802c3.384,2.116,5.819,5.652,5.554,9.809
			c-0.084,1.304,0,6.054-0.884,3.52c-1.086-3.115-8.338-7.964-7.942-9.924C39.656,20.496,37.905,23.2,36.287,24.708z"/>
		<path style="clip-path:url(#SVGID_2_);fill:#2F2120;" d="M26.333,35.309c-0.678-0.289-1.517-0.316-2.212-0.057
			c-1.592-1.244-0.426-5.444,1.853-4.589C27.669,31.302,27.779,34.409,26.333,35.309z"/>
		<path style="clip-path:url(#SVGID_2_);fill:#7D4732;" d="M23.105,27.846c0.525-1.463,1.594-2.105,2.559-2.27
			c1.36-0.233,2.513,0.649,3.088,1.709C27.734,26.88,25.901,25.515,23.105,27.846z"/>
		<path style="clip-path:url(#SVGID_2_);fill:#B08A72;" d="M26.425,32.547c0.839-0.126,1.102,1.234,0.392,1.585
			C25.833,34.623,25.48,32.69,26.425,32.547z"/>
		<path style="clip-path:url(#SVGID_2_);fill:#4F2619;" d="M29.606,10.047c2.559-0.498,5.103-0.203,7.537,0.669
			c3.286,1.176,6.658,2.581,8.976,5.288c2.104,2.455,3.216,5.643,3.741,8.793c0.29,1.75-0.893,4.754-0.935,6.488
			c-0.06-6.95-7.764-8.793-7.986-13.554c-1.088,1.788-4.882,7.727-13.11,10.116c-7.739,2.246-8.682,4.169-9.266,7.619
			c-2.532-3.199-0.752-9.933-0.426-11.857C19.173,17.497,23.161,11.305,29.606,10.047z"/>
		<path style="clip-path:url(#SVGID_2_);fill:#FF7752;" d="M47.306,37.414c0.084,0.156,0.143,0.334,0.172,0.535
			c0.282,1.966-3.866,1.087-4.278,0.217c-0.771-1.633,0.678-1.943,1.735-1.869C45.746,36.355,46.861,36.584,47.306,37.414z"/>
		<path style="clip-path:url(#SVGID_2_);fill:#FF7752;" d="M27.014,37.273c0.118,0.163,0.214,0.355,0.281,0.582
			c0.643,2.214-4.07,2.154-4.67,1.24c-1.126-1.713,0.416-2.409,1.593-2.568C25.119,36.408,26.387,36.415,27.014,37.273z"/>
		<path style="opacity:0.8;clip-path:url(#SVGID_2_);fill:#FF3B3B;" d="M35.576,40.879c-3.097,0.057-7.65,0.936-10.072-0.494
			c3.973,6.824,6.464,8.104,9.636,8.346c3.976,0.304,5.373-2.453,6.005-4.525c0.269-0.877,2.313-3.113,3.102-3.617
			C41.758,41.158,39.32,40.806,35.576,40.879z"/>
		<path style="clip-path:url(#SVGID_2_);fill:#A80A0A;" d="M27.361,41.588c0,0,6.577,2.084,15.244,0.021c0,0-1.359,0.59-2.028,2.27
			c-0.611,1.537-2.714,2.576-5.885,2.467C29.743,46.176,27.361,41.588,27.361,41.588z"/>
		<path style="clip-path:url(#SVGID_2_);fill:#FFF9F0;" d="M29.194,42.02c0,0,0.131,1.379,1.885,1.937
			c2.248,0.714,4.682,0.788,7.199,0.422c1.695-0.247,2.56-2.396,2.56-2.396S35.983,43.104,29.194,42.02z"/>
		<path style="clip-path:url(#SVGID_2_);fill:#FFF9F0;" d="M29.997,44.019c-0.17-0.363-0.089-0.938,0.713-0.39
			c1.123,0.769,3.001,0.951,5.269,0.896c2.1-0.05,3.17-0.674,3.576-0.275c0.407,0.396-1.498,2.623-5.102,2.154
			C30.7,45.916,29.997,44.019,29.997,44.019z"/>
		<path style="clip-path:url(#SVGID_2_);fill:#E8DAC5;" d="M29.63,42.996c0,0,8.481-0.62,10.497,0.178c0,0,0.607-0.753,0.711-1.191
			c0,0-5.935,1.041-11.644,0.037C29.194,42.02,29.312,42.662,29.63,42.996z"/>
		<path style="clip-path:url(#SVGID_2_);fill:#E8DAC5;" d="M31.38,43.916c0,0,2.833,1.236,6.671,0.392
			C38.051,44.308,34.39,45.842,31.38,43.916z"/>
		<path style="opacity:0.3;clip-path:url(#SVGID_2_);fill:#D14F2E;" d="M37.678,36.771c0.26,0.306-0.569,1.098-1.565,1.15
			c-0.881,0.046-1.949-0.953-1.449-1.213c0.5-0.258,0.78,0.049,1.492,0.063C36.946,36.787,37.375,36.416,37.678,36.771z"/>
		<path style="clip-path:url(#SVGID_2_);fill:#2F2120;" d="M46.033,30.708c1.226,0.782,1.13,3.199,0.255,4.337
			c-0.655-0.102-1.394-0.099-2.008,0.323C41.736,34.6,43.744,29.249,46.033,30.708z"/>
		<path style="clip-path:url(#SVGID_2_);fill:#B08A72;" d="M45.922,32.292c0.802-0.019,0.908,1.395,0.203,1.661
			C45.15,34.32,45.019,32.315,45.922,32.292z"/>
		<path style="clip-path:url(#SVGID_2_);fill:#121B21;" d="M51.086,31.426c0,0-2.086,2.196-5.328,0.39
			c-1.429-0.796-2.445,0.458-2.445,0.458s0.688-2.487,2.785-1.68C47.223,31.028,48.517,32.289,51.086,31.426z"/>
		<path style="clip-path:url(#SVGID_2_);fill:#121B21;" d="M19.081,31.729c0,0,2.463,2.138,5.584,0.204
			c1.368-0.847,2.54,0.196,2.54,0.196s-0.569-2.464-2.757-1.352C23.61,31.204,21.664,32.482,19.081,31.729z"/>
		<path style="clip-path:url(#SVGID_2_);fill:#784430;" d="M45.249,11.414c6.1,4.054,8.085,9.294,8.085,9.294
			s-5.952,5.055-10.386,0.057c-0.903-1.021-1.496-2.244-1.621-4.113c-3.687,5.343-9.352,9.141-13.385,9.034
			c-1.987-0.052-4.31-0.637-6.144-1.279c-1.691-0.592-3.253-1.491-4.91-2.164c-0.314-0.127-3.571-1.29-3.758-1.008
			c0.011-0.018,3.932-5.969,8.429-8.595C21.56,12.64,35.883,20.005,45.249,11.414z"/>
		<path style="clip-path:url(#SVGID_2_);fill:#784430;" d="M48.241,27.851c-0.487-1.474-1.538-2.145-2.498-2.335
			c-1.355-0.27-2.529,0.585-3.131,1.628C43.639,26.766,45.508,25.449,48.241,27.851z"/>
		<path style="clip-path:url(#SVGID_2_);fill:#FFBC82;" d="M18.055,39.322c0.771,0.355,1.592,0.367,2.38,0.246
			c0.015-0.035,0.03-0.07,0.045-0.105c0.354-0.816-0.281-4.877-0.462-5.712c-0.455-2.101-1.201-3.566-2.614-2.936
			C14.459,32.129,15.647,38.213,18.055,39.322z"/>
		<path style="opacity:0.4;clip-path:url(#SVGID_2_);fill:#D14F2E;" d="M19.535,37.281c0.767-1.068-0.46-4.038-1.188-4.432
			c-0.598-0.324-1.862,0.652-1.002,2.309c0.132-1.692,0.868-0.721,0.923,0.456c0.038,0.79-0.467,0.886,0.161,1.801
			C18.769,37.91,19.294,37.619,19.535,37.281z"/>
		<path style="clip-path:url(#SVGID_2_);fill:#FFF9F0;" d="M19.45,39.748c-1.619,0.016-2.9,1.535-2.861,3.395
			c0.037,1.859,1.381,3.355,3.001,3.341c1.62-0.013,2.901-1.53,2.862-3.392C22.413,41.232,21.07,39.734,19.45,39.748z
			 M19.578,45.311c-1.176,0.01-2.15-1.076-2.177-2.426c-0.029-1.349,0.901-2.451,2.076-2.461c1.175-0.011,2.149,1.076,2.177,2.425
			C21.683,44.198,20.753,45.3,19.578,45.311z"/>
	</g>
</g>
<g id="Layer_1">
</g>
</svg>
