<?xml version="1.0" encoding="iso-8859-1"?>
<!-- Generator: Adobe Illustrator 16.0.0, SVG Export Plug-In . SVG Version: 6.00 Build 0)  -->
<!DOCTYPE svg PUBLIC "-//W3C//DTD SVG 1.1//EN" "http://www.w3.org/Graphics/SVG/1.1/DTD/svg11.dtd">
<svg version="1.1" xmlns="http://www.w3.org/2000/svg" xmlns:xlink="http://www.w3.org/1999/xlink" x="0px" y="0px"
	 width="66.012px" height="66.001px" viewBox="0 0 66.012 66.001" style="enable-background:new 0 0 66.012 66.001;"
	 xml:space="preserve">
<g id="Layer_20">
	<g>
		<defs>
			<circle id="SVGID_1_" cx="33.012" cy="33" r="33"/>
		</defs>
		<clipPath id="SVGID_2_">
			<use xlink:href="#SVGID_1_"  style="overflow:visible;"/>
		</clipPath>
		<rect style="clip-path:url(#SVGID_2_);fill:#CD9E3E;" width="66" height="66"/>
		<path style="clip-path:url(#SVGID_2_);fill:#918FA0;" d="M40.734,55.428c-4.968-2.668-12.21-1.748-15.512,0.398
			c-3.393,2.207-3.688,5.485-3.117,10.175L43.628,66C44.28,61.136,44.06,57.213,40.734,55.428z"/>
		<path style="clip-path:url(#SVGID_2_);fill:#66667D;" d="M32.839,62.209c8.904,0,11.81-11.674-0.424-11.674
			C23.62,50.535,23.312,62.209,32.839,62.209z"/>
		<path style="clip-path:url(#SVGID_2_);fill:#EBEBEB;" d="M32.839,61.025c8.904,0,11.81-11.121-0.424-11.121
			C23.62,49.904,23.312,61.025,32.839,61.025z"/>
		<path style="clip-path:url(#SVGID_2_);fill:#ED9D6C;" d="M32.873,59.598c-2.378-0.947-10.224-4.814-4.412-9.131
			c1.671-1.243,4.93-1.443,6.926-1.037c2.082,0.422,3.464,2.249,3.608,4.13C39.175,55.941,35.8,58.391,32.873,59.598z"/>
		<polygon style="opacity:0.4;clip-path:url(#SVGID_2_);fill:#A09583;" points="32.87,59.799 33.966,60.827 31.713,60.87 		"/>
		<path style="clip-path:url(#SVGID_2_);fill:#1E1E29;" d="M18.148,66c0-0.203,0.308-4.055,0.569-5.564
			c0.419-2.42,1.512-4.148,5.517-5.367l2.016,3.885C23.975,59.928,23.665,66,23.665,66H18.148z"/>
		<path style="clip-path:url(#SVGID_2_);fill:#1C1C26;" d="M25.299,54.979c0,0-4.391,1.625-4.809,2.715
			c-0.287,0.746,0.648,3.474,1.478,8.307h7.045C28.411,62.299,27.292,58.467,25.299,54.979z"/>
		<path style="clip-path:url(#SVGID_2_);fill:#3A3A4A;" d="M25.387,51.584c-2.789,0.18-6.094,2-6.038,2.639
			c0.058,0.641,5.494,3.672,9.105,8.952C28.603,60.117,25.387,51.584,25.387,51.584z"/>
		<path style="clip-path:url(#SVGID_2_);fill:#3A3A4A;" d="M27.704,63.938c-0.155-0.038-4.611-0.017-4.961,0.139
			c-0.221,0.099-0.176,1.491-0.085,1.923h5.552C28.23,65.646,27.851,63.975,27.704,63.938z"/>
		<path style="clip-path:url(#SVGID_2_);fill:#1E1E29;" d="M47.599,66c0-0.203-0.308-4.055-0.569-5.564
			c-0.419-2.42-1.512-4.148-5.518-5.367l-2.015,3.885C41.773,59.928,42.082,66,42.082,66H47.599z"/>
		<path style="clip-path:url(#SVGID_2_);fill:#1C1C26;" d="M40.448,54.979c0,0,4.391,1.625,4.809,2.715
			c0.287,0.746-0.649,3.474-1.478,8.307h-7.045C37.336,62.299,38.455,58.467,40.448,54.979z"/>
		<path style="clip-path:url(#SVGID_2_);fill:#3A3A4A;" d="M40.36,51.584c2.789,0.18,6.094,2,6.038,2.639
			c-0.058,0.641-5.494,3.672-9.105,8.952C37.145,60.117,40.36,51.584,40.36,51.584z"/>
		<path style="clip-path:url(#SVGID_2_);fill:#3A3A4A;" d="M38.043,63.938c0.155-0.038,4.611-0.017,4.961,0.139
			c0.221,0.099,0.176,1.491,0.085,1.923h-5.552C37.516,65.646,37.896,63.975,38.043,63.938z"/>
		<path style="clip-path:url(#SVGID_2_);fill:#261B18;" d="M49.436,32.898c0.92-0.149,0.997-1.583,0.298-2.031
			c1.143-0.417,1.549-1.205,0.242-1.814c1.938-0.437,1.03-2.552-0.436-2.924c1.49-0.658,1.637-2.176,0.509-2.621
			c1.306-0.417,1.521-2.162,0.44-2.522c1.106-0.417,0.861-1.808-0.083-2.719c1.369-0.194,1.446-3.005-0.377-2.548
			c0.793-0.991-0.414-2.597-1.649-2.492c0.257-0.942-0.581-1.669-1.691-1.188c-0.092-1.767-1.639-2.115-3.02-1.554
			c-0.302-1.216-1.509-1.575-2.417-0.728c-0.316-1.515-2.049-1.38-3.172-0.71c-0.855-1.197-2.49-1.435-3.679-0.528
			c-1.038-1.069-2.946-0.678-3.908,0.391c-1.184-1.015-2.503-0.485-3.226,0.764c-1.141-1.196-2.651-0.056-3.471,0.977
			c-1.111-1.012-2.801-0.092-3.168,1.21c-1.168-0.566-2.993,0.243-3.144,1.646c-1.695-0.147-3.476,1.37-2.436,3.068
			c-1.265,0.195-2.614,1.72-1.257,2.755c-1.362,0.144-1.447,1.623-0.724,2.507c-1.517,0.7-1.623,3.937-0.249,3.151
			c-1.066,0.609-1.162,2.01,0.22,2.178c-0.997,0.657-2.006,2.049-0.097,2.276c-0.641,0.611-1.121,2.014,0.051,2.331
			c-0.696,1.233-0.7,1.715,0.528,2.603c-0.327-0.236-0.256,1.461-0.191,1.611c0.286,0.665,1.014,1.072,1.552,1.496
			c0.964,0.764,1.633,1.724,2.465,2.654c2.188,2.443,3.752,5.365,5.877,7.804c2.051,2.356,4.402-1.692,6.124-2.677
			c2.28-1.305,5.055-2.012,7.676-1.621c2.324,0.345,3.96,2.771,6.323,2.824c2.449,0.053,3.504-3.46,3.981-5.268
			c0.308-1.169,0.387-2.807,0.984-3.738c0.526-0.816,1.757-1.298,0.883-2.646C49.951,34.878,50.352,33.18,49.436,32.898z"/>
		<path style="clip-path:url(#SVGID_2_);fill:#FFB67D;" d="M17.022,39.086c1.17,8.588,7.794,18.008,17.77,17.299
			C44.971,55.66,50.036,43.033,48.72,32.474c-1.429-11.482-6.866-21.052-18.77-18.732C21.45,15.399,15.462,27.62,17.022,39.086z"/>
		<path style="opacity:0.4;clip-path:url(#SVGID_2_);fill:#D14F2E;" d="M28.305,21.2c-3.686,0.615-6.747,2.34-7.826,7.104
			c-0.335,1.48-1.016,2.924-1.116,4.445c-1.303-2.142-1.899-4.644-2.294-7.093c-0.359-2.237-0.714-4.992,0.024-7.182
			c0.595-1.759,2.546-2.745,4.136-3.464c2.893-1.309,6.264-1.135,9.367-1.081c3.495,0.062,6.957,0.616,10.306,1.619
			c1.719,0.514,5.469,1.265,6.405,3.015c2.088,3.9-7.64,2.255-9.318,2.299C34.853,20.945,31.365,20.688,28.305,21.2z"/>
		<path style="clip-path:url(#SVGID_2_);fill:#FFB67D;" d="M14.967,42.773c1.094,0.393,2.254,0.447,3.371,0.369
			c0.021-0.035,0.044-0.068,0.067-0.104c0.499-0.792-0.2-5.233-0.454-6.069c-0.644-2.106-1.891-3.212-3.895-2.659
			C9.884,35.459,11.558,41.551,14.967,42.773z"/>
		<path style="opacity:0.4;clip-path:url(#SVGID_2_);fill:#661004;" d="M16.583,41.27c1.519-0.957,0.083-4.189-1.063-4.717
			c-0.938-0.434-3.277,0.347-2.177,2.18c0.579-1.7,1.616-0.586,1.457,0.622c-0.105,0.812-0.978,0.821-0.111,1.862
			C15.157,41.779,16.104,41.57,16.583,41.27z"/>
		<path style="clip-path:url(#SVGID_2_);fill:#261B18;" d="M45.855,21.927c0.646,1.211,5.954-2.351,1.167-7.674
			c-2.085-2.317-7.189-3.41-10.142-3.979c-2.837-0.549-5.883-0.603-8.743-0.263c-4.813,0.574-10.621,2.858-12.143,7.957
			c-0.936,3.133-0.447,6.765-0.208,9.965c0.146,1.94-0.636,5.683,1.021,7.146c1.929,1.704,2.693-0.859,2.877-2.702
			c0.205-2.069,0.045-4.331,0.642-6.347c1.456-4.897,4.057-5.838,11.104-6.38C35.087,19.37,44.119,18.674,45.855,21.927z"/>
		<path style="clip-path:url(#SVGID_2_);fill:#45362E;" d="M19.509,14.076c0.031-0.514,0.343-0.95,1.029-1.184
			c0.887-0.301,2.394,0.175,2.834,1.071c-0.19-0.894,0.798-1.387,1.483-0.897c0.227-0.645,0.479-1.483,1.174-1.763
			c0.741-0.298,1.094,0.28,1.667,0.597c0.514-1.058,1.108-2.157,2.548-1.817c1.125,0.267,1.71,1.558,2.409,2.355
			c0.387-0.672,0.654-1.897,1.461-2.187c0.723-0.26,0.884,0.425,1.396,0.759c0.44-0.686,0.913-1.597,1.831-0.961
			c0.665,0.461,0.753,1.284,1.127,1.918c0.715-0.906,0.986-2.279,2.499-1.794c1.313,0.422,1.362,1.805,1.704,2.87
			c0.308-0.555,0.496-1.155,1.231-1.191c0.829-0.038,0.554,0.45,0.799,0.99c0.987-1.434,2.208,0.321,1.53,1.25
			c1.017-0.608,1.774,0.66,1.455,1.555c0.046-0.127,1.123,0.867,1.191,0.972c0.273,0.417,0.417,0.903,0.356,1.401
			c-0.094,0.759-0.567,1.352-1.298,1.555c-1.24,0.346-2.693-0.624-1.743-1.913c-1.116,1.516-2.572,0.917-2.251-1.065
			c-1.928,1.593-4.695,2.913-5.411-0.604c-0.919,2.689-3.481,2.254-4.677,0c-0.428,1.047-0.633,2.204-1.806,2.296
			c-0.927,0.073-1.877-1.045-2.074-1.795c-0.379,1.191-0.441,2.078-1.801,2.197c-1.082,0.095-2.065-0.801-2.45-1.747
			c-0.191,0.63,0.04,1.961-0.646,2.288c-0.914,0.434-1.958-1.043-2.387-1.618c-0.162,0.586,0.054,1.921-0.443,2.36
			c-0.608,0.54-1.867-0.079-2.114-0.768c0.024,0.574,0.011,1.458-0.647,1.627c-0.595,0.153-1.069-0.498-1.573-0.721
			c0.31,0.693,1.249,3.32-0.503,2.596c0.989,0.846,0.678,2.264-0.713,1.464c1.043,0.599,0.734,1.913-0.558,1.596
			c-0.965-0.237-1.671-1.716-0.204-1.406c-1.156-0.296-0.917-2.09,0.368-1.857c0.039,0.001,0.043,0.002,0.007,0.002
			c-1.32,0.034-1.695-3,0.263-2.403c-0.752-0.229-1.75-0.945-0.423-1.121c0.019,0,0.029,0.005,0.026,0.02
			c-0.46-0.544-0.586-2.583,0.112-3.031c0.703-0.449,2,0.396,2.51,0.871c-0.649-1.106-0.196-2.164,1.082-1.515
			C19.622,14.902,19.485,14.467,19.509,14.076z"/>
		<path style="clip-path:url(#SVGID_2_);fill:#261B18;" d="M26.732,28.097c1.981,0.292,3.295,1.24,1.962,2.325
			c-1.247,1.013-4.257-0.859-7.779-0.334C21.654,28.493,24.346,27.742,26.732,28.097z"/>
		<path style="clip-path:url(#SVGID_2_);fill:#261B18;" d="M43.529,27.65c-1.898,0.392-3.186,1.421-1.956,2.468
			c1.149,0.98,4.089-1.075,7.423-0.701C48.354,27.821,45.815,27.179,43.529,27.65z"/>
		<path style="clip-path:url(#SVGID_2_);fill:#F59D66;" d="M47.724,36.324c0.157,0.148,0.294,0.332,0.405,0.555
			c1.074,2.148-4.131,2.615-4.945,1.768c-1.524-1.598,0.061-2.469,1.334-2.758C45.49,35.666,46.888,35.531,47.724,36.324z"/>
		<path style="clip-path:url(#SVGID_2_);fill:#F59D66;" d="M27.122,37.272c0.126,0.176,0.226,0.378,0.291,0.612
			c0.639,2.266-4.212,1.854-5.396,0.723c-1.644-1.57,0.738-2.446,2.042-2.444C25.058,36.166,26.458,36.342,27.122,37.272z"/>
		<path style="clip-path:url(#SVGID_2_);fill:#261B18;" d="M25.984,31.843c-2.703-0.823-4.405,2.569-2.562,3.676
			c0.859-0.178,1.876-0.111,2.678,0.161C27.915,35.016,27.996,32.457,25.984,31.843z"/>
		<path style="opacity:0.5;clip-path:url(#SVGID_2_);fill:#B54319;" d="M38.407,39.183c-0.505-0.544-1.552,0.059-2.535,0.071
			c-0.889,0.013-1.668-0.461-2.5-0.028c-0.833,0.431,0.123,1.814,2.478,1.748C38.193,40.908,38.845,39.65,38.407,39.183z"/>
		<path style="clip-path:url(#SVGID_2_);fill:#FFCB96;" d="M35.818,34.23c-1.668-0.17-2.979,3.617-2.27,4.857
			c0.499,0.869,4.172,0.84,4.748-0.18C38.506,38.537,37.41,34.392,35.818,34.23z"/>
		<path style="opacity:0.7;clip-path:url(#SVGID_2_);fill:#F0DED1;" d="M25.021,32.436c-1.097,0.263-0.262,1.771,0.808,1.223
			C26.602,33.261,25.997,32.203,25.021,32.436z"/>
		<path style="clip-path:url(#SVGID_2_);fill:#261B18;" d="M45.717,31.322c-2.844-0.411-4.159,3.206-2.153,4.028
			c0.851-0.305,1.89-0.393,2.737-0.242C48.061,34.178,47.83,31.629,45.717,31.322z"/>
		<path style="opacity:0.7;clip-path:url(#SVGID_2_);fill:#F0DED1;" d="M44.812,32.052c-1.082,0.425-0.052,1.796,0.968,1.092
			C46.515,32.635,45.773,31.676,44.812,32.052z"/>
		<path style="clip-path:url(#SVGID_2_);fill:#A63432;" d="M43.86,40.48c-1.187,2.53,1.974,3.545,3.129,1.067
			C45.925,42.123,44.445,41.686,43.86,40.48z"/>
		<path style="clip-path:url(#SVGID_2_);fill:#A63432;" d="M26.395,40.934c0.812,2.518-2.506,3.569-3.292,1.104
			C24.082,42.601,25.633,42.146,26.395,40.934z"/>
		<path style="clip-path:url(#SVGID_2_);fill:#A63432;" d="M35.829,49.144c4.594-0.378,8.164-3.03,9.554-6.374
			c0.146-0.347-0.048-0.709-0.428-0.813c-0.38-0.104-0.805,0.094-0.948,0.439c-1.214,2.916-4.416,5.238-8.552,5.467
			c-4.299,0.246-8.104-1.836-9.505-5.219c-0.136-0.33-0.56-0.479-0.942-0.332c-0.38,0.145-0.582,0.531-0.442,0.861
			c1.616,3.904,5.933,6.273,10.875,5.996C35.571,49.162,35.7,49.152,35.829,49.144z"/>
		<path style="clip-path:url(#SVGID_2_);fill:#131413;" d="M52.145,29.56c0,0,1.436-0.123,1.443,0.185
			c0.008,0.31-0.002,1.616-0.131,1.716c-0.127,0.098-1.688,0.384-1.688,0.384L52.145,29.56z"/>
		<path style="opacity:0.1;clip-path:url(#SVGID_2_);" d="M39.529,29.501c2.605-0.061,9.487-0.707,11.076,0.817
			c1.504,1.442-0.9,5.485-1.923,7.174c-0.816,1.351-1.566,2.349-4.306,2.147c-2.681-0.194-5.123-1.146-6.19-3.781
			c-0.594-1.468-1.685-3.622-3.681-1.897c-1.777,1.533-1.264,3.065-3.224,4.702c-2.496,2.084-7.485,2.531-10.058,1.553
			c-2.755-1.053-3.607-3.598-4.002-6.402c-1.376,0.27-4.531-0.426-4.531-0.426l-0.445-1.869
			C16.186,30.023,30.982,29.705,39.529,29.501z"/>
		<path style="clip-path:url(#SVGID_2_);fill:#23232D;" d="M53.582,29.686c-0.029-0.034-0.056-0.069-0.086-0.102
			c-0.92-1.142-35.382-0.127-36.383,1.061c-0.03,0.037-0.062,0.072-0.091,0.106c-0.024,0.203,0.162,1.57,0.162,1.57
			s0.211-0.039,1.025-0.059c0.355,1.741,1.029,4.67,2.394,5.854c2.181,1.89,8.646,1.518,11.513-0.492
			c2.091-1.465,1.213-5.664,3.863-5.737c1.92-0.054,1.94,3.909,3.778,5.188c2.637,1.838,9.695,1.477,11.262-0.215
			c1.127-1.213,0.951-4.126,1.159-5.882c0.699-0.016,0.659,0.101,1.363,0.052C53.592,30.79,53.613,29.887,53.582,29.686z"/>
		<path style="clip-path:url(#SVGID_2_);fill:#23232D;" d="M11.446,31.723L15.7,30.62l1.763-0.209
			c0.168,0.499,0.349,1.36,0.182,1.885c-0.186,0.582-0.565,0.329-1.063,0.447c-0.482,0.115-3.891,0.646-3.891,0.646l-1.116-0.259
			L11.446,31.723z"/>
		<path style="clip-path:url(#SVGID_2_);fill:#8B95A8;" d="M21.154,30.644c0,0,15.625-1.966,28.967-0.772L21.154,30.644z"/>
		<path style="clip-path:url(#SVGID_2_);fill:#8B95A8;" d="M39.769,31.258c1.415-0.618,10.063-0.687,10.761-0.257
			c0.698,0.428-10.842,2.655-10.842,2.655S38.355,31.876,39.769,31.258z"/>
		<path style="clip-path:url(#SVGID_2_);fill:#8B95A8;" d="M20.365,32.182c1.413-0.618,12.729-1.135,13.429-0.707
			c0.308,0.189-0.448,2.459-3.268,3.13c-3.563,0.848-9.499,1.59-9.499,1.59S18.951,32.801,20.365,32.182z"/>
		<polygon style="clip-path:url(#SVGID_2_);fill:#8B95A8;" points="16.774,30.999 15.8,30.99 12.119,31.763 15.971,32.028 		"/>
	</g>
</g>
<g id="Layer_1">
</g>
</svg>
