<?xml version="1.0" encoding="iso-8859-1"?>
<!-- Generator: Adobe Illustrator 16.0.0, SVG Export Plug-In . SVG Version: 6.00 Build 0)  -->
<!DOCTYPE svg PUBLIC "-//W3C//DTD SVG 1.1//EN" "http://www.w3.org/Graphics/SVG/1.1/DTD/svg11.dtd">
<svg version="1.1" xmlns="http://www.w3.org/2000/svg" xmlns:xlink="http://www.w3.org/1999/xlink" x="0px" y="0px"
	 width="66.005px" height="66px" viewBox="0 0 66.005 66" style="enable-background:new 0 0 66.005 66;" xml:space="preserve">
<g id="Layer_56">
	<g>
		<defs>
			<circle id="SVGID_1_" cx="33.005" cy="33" r="33"/>
		</defs>
		<clipPath id="SVGID_2_">
			<use xlink:href="#SVGID_1_"  style="overflow:visible;"/>
		</clipPath>
		<rect style="clip-path:url(#SVGID_2_);fill:#C3B1BF;" width="66" height="65.998"/>
		<path style="clip-path:url(#SVGID_2_);fill:#FAAB6E;" d="M26.84,59.061c0.764-0.882,0.665-2.218-0.218-2.982
			c-0.885-0.764-2.221-0.664-2.982,0.218c-3.441,3.985-4.551,7.237-4.652,9.702h4.253C23.394,64.047,24.635,61.615,26.84,59.061z"/>
		<path style="clip-path:url(#SVGID_2_);fill:#FAAB6E;" d="M39.133,56.078c-0.883,0.765-0.98,2.101-0.217,2.982
			c2.204,2.555,3.444,4.986,3.598,6.938h4.254c-0.102-2.465-1.211-5.717-4.652-9.702C41.354,55.414,40.018,55.314,39.133,56.078z"/>
		<path style="clip-path:url(#SVGID_2_);fill:#C4BAB1;" d="M41.158,61.641c0.002-2.131,0.51-3.806,1.131-5.011
			c0.16-0.311-1.015-2.928-9.635-2.884c-8.367,0.042-9.384,2.736-9.271,3.045c0.421,1.166,0.855,3.165,0.865,4.89
			c0.011,1.606,0.095,3.032,0.181,4.317h16.551C41.072,64.703,41.156,63.265,41.158,61.641z"/>
		<path style="clip-path:url(#SVGID_2_);fill:#968C83;" d="M26.986,54.568c-1.904,2.803,5.704,5.934,5.704,5.934
			s6.728-2.928,6.006-5.461C37.842,52.04,28.698,52.05,26.986,54.568z"/>
		<path style="clip-path:url(#SVGID_2_);fill:#F29058;" d="M32.715,48.881c-1.939-0.005-4.673,1.161-4.866,4.226
			c-0.092,1.426,0.114,2.252,0.831,3.043c1.147,1.266,2.565,2.29,4.035,2.32c1.469-0.03,2.889-1.055,4.034-2.32
			c0.718-0.791,0.922-1.617,0.832-3.043C37.388,50.042,34.654,48.876,32.715,48.881z"/>
		<path style="clip-path:url(#SVGID_2_);fill:#2B221C;" d="M48.962,17.88c-5.092-4.707-9.351-8.416-18.485-7.466
			c0.184-0.666,0.338-1.316,0.545-1.994c-1.639,0.164-4.133,2.229-4.133,2.229s-3.507-0.505-4.704,0.627
			c0.83,0.302,1.76,0.472,2.624,0.924c-2.058,0.234-11.04,5.053-12.139,15.769c0.194-0.292,1.674-1.973,1.915-2.21
			c-0.052,2.222-0.095,4.378,0.493,6.482c0.46,1.654,1.368,3.693,3.501,3.387c3.529-0.508,7.048-1.205,10.564-1.871
			c3.432-0.647,7.365-0.772,10.505,0.52c2.423,0.995,4.484,2.66,7.195,0.405c2.089-1.738,1.984-3.985,2.664-6.417
			c0.371,0.174,1.988,1.295,2.341,1.54c0.074-2.046-1.16-5.973-1.856-7.783c0.89-0.251,2.012-0.026,2.856-0.539
			C51.624,20.237,50.248,19.069,48.962,17.88z"/>
		<path style="clip-path:url(#SVGID_2_);fill:#FAAB6E;" d="M32.706,15.266c-8.402,0.101-17.064,8.628-14.979,18.581
			c1.076,5.136,0.945,6.369,2.705,11.55c1.782,5.258,6.775,8.762,13.935,8.887c12.145,0.213,13.909-10.641,13.786-20.793
			C48.022,23.326,41.105,15.168,32.706,15.266z"/>
		<path style="clip-path:url(#SVGID_2_);fill:#FAAB6E;" d="M15.415,31.826c-4.209,0.8-2.975,6.06,0.313,7.247
			c1.054,0.381,2.197,0.479,3.308,0.459c0.023-0.028,0.048-0.057,0.072-0.087c0.55-0.651-0.051-4.144-0.247-4.865
			C18.374,32.76,17.437,31.443,15.415,31.826z"/>
		<path style="opacity:0.3;clip-path:url(#SVGID_2_);fill:#BF3C1B;" d="M43.689,20.769c-3.844-0.841-8.02-1.145-12.052-0.686
			c-2.807,0.318-6.989-0.883-9.567,0.174c-1.692,0.694-2.398,3.183-3.278,5.111c-0.526,1.147-1.425,9.268,0.473,8.07
			c0.659-0.42,2.76-8.138,3.238-9.789c9.129,3.255,19.316,2.257,19.316,2.257s-0.494-0.973-0.8-1.555
			c0.463,0.882,4.463,1.061,5.181,0.383C48.771,22.308,45.157,21.089,43.689,20.769z"/>
		<path style="clip-path:url(#SVGID_2_);fill:#2B221C;" d="M46.818,18.964c-2.106-1.59-4.696-2.939-7.361-3.469
			c-4.474-0.886-7.892-1.935-12.522,0.302c-3.715,1.794-6.578,5.029-8.367,8.647c-1,2.028-1.776,4.346-1.734,6.538
			c0.028,1.426,2.352,4.654,2.701,2.53c0.504-3.052,0.088-6.136,2.898-11.598c5.146,2.295,14.464,2.69,17.688,2.953
			c-0.439-0.531-1.001-0.994-1.306-1.601c0.137,0.277,3.355,0.524,3.856,0.603c1.214,0.191,2.952,0.542,4.187-0.043
			C49.212,22.709,48.377,20.139,46.818,18.964z"/>
		<path style="opacity:0.5;clip-path:url(#SVGID_2_);fill:#B54319;" d="M17.492,33.884c-1.027-0.563-3.916-0.385-2.941,1.408
			c0.979-1.33,2.002-0.164,1.606,0.832c-0.264,0.672-1.29,0.5-0.455,1.568c0.452,0.576,1.604,0.595,2.22,0.438
			C19.873,37.628,18.746,34.568,17.492,33.884z"/>
		<path style="clip-path:url(#SVGID_2_);fill:#634F40;" d="M36.955,11.489c-2.592-0.767-5.271-0.446-7.97-0.037
			c0.038-0.42,0.097-0.849,0.13-1.268c-0.548,0.297-1.143,0.661-1.508,1.142c0,0-2.541-0.078-3.187-0.095
			c0.703,0.139,1.502,0.564,2.033,1.263c-3.169,1.157-6.174,3.079-8.236,5.274c0.508-0.009,1.556-0.177,2.066-0.302
			c-1.495,1.254-2.538,2.688-3.646,4.238c2.331-0.849,3.61-1.44,6.815-3.537c3.901,1.874,9.605,3.312,12.77,3.844
			c-0.271-0.734-3.564-2.642-4.942-4.332c4.399,1.296,14.646,3.716,14.646,3.716s-8.003-5.968-7.962-5.947
			c1.411,0.429,8.732,3.552,10.299,3.207C46.292,16.304,39.253,12.171,36.955,11.489z"/>
		<path style="opacity:0.5;clip-path:url(#SVGID_2_);fill:#B54319;" d="M23.967,34.177c0.043,0.642,1.506,0.339,1.942,0.445
			c-0.384,0.396-1.524,0.39-1.993,0.656c-0.5,0.285-0.446,0.48,0.146,0.47c0.354-0.007,2.338-0.463,2.596-0.675
			C27.737,34.166,24.469,34.042,23.967,34.177z"/>
		<path style="opacity:0.5;clip-path:url(#SVGID_2_);fill:#B54319;" d="M46.45,34.827c-0.361-0.277-1.315-0.303-1.594-0.704
			c0.379-0.092,1.568,0.247,1.676-0.385c-0.406-0.146-3.152-0.114-2.349,0.808c0.189,0.22,1.799,0.721,2.096,0.738
			C46.771,35.312,46.839,35.122,46.45,34.827z"/>
		<path style="clip-path:url(#SVGID_2_);fill:#1F1A17;" d="M27.904,31.441c-2.036-0.902-3.36,2.714-1.978,3.912
			c0.651-0.183,1.421-0.105,2.025,0.194C29.33,34.852,29.419,32.111,27.904,31.441z"/>
		<path style="opacity:0.5;clip-path:url(#SVGID_2_);fill:#B54319;" d="M36.18,37.478c-1.024,0.027-1.458-0.373-2.153,0.01
			c-0.691,0.381,0.302,1.881,2.115,1.797c1.809-0.085,2.637-1.506,2.231-1.902C37.902,36.923,37.321,37.448,36.18,37.478z"/>
		<path style="clip-path:url(#SVGID_2_);fill:#FFCB9E;" d="M35.57,31.68c-0.892,0.046-1.073,2.458-1.383,3.594
			c-0.317,1.154-0.529,2.22-0.056,2.56c1.166,0.832,3.563,0.322,4.256-0.307c0.271-0.249-0.378-1.425-0.892-2.603
			C37.041,33.883,36.578,31.622,35.57,31.68z"/>
		<path style="clip-path:url(#SVGID_2_);fill:#1F1A17;" d="M44.354,31.447c-2.085-1.134-3.751,3.296-1.44,3.867
			c0.519-0.372,1.188-0.569,1.786-0.501C45.476,33.883,45.473,32.054,44.354,31.447z"/>
		<path style="clip-path:url(#SVGID_2_);fill:#A87F7F;" d="M27.309,31.952c-0.832,0.274-0.216,1.892,0.6,1.314
			C28.496,32.85,28.052,31.71,27.309,31.952z"/>
		<path style="clip-path:url(#SVGID_2_);fill:#A87F7F;" d="M43.823,32.013c-0.793,0.194-0.344,1.745,0.458,1.268
			C44.861,32.938,44.53,31.844,43.823,32.013z"/>
		<path style="opacity:0.5;clip-path:url(#SVGID_2_);fill:#B54319;" d="M42.842,40.698c-0.361,0.07,0.3,0.207,1.163,0.431
			c0.167,0.044,0.27,0.122,0.326,0.222c-4.152,1.224-13.213,1.683-18.705-0.247c0.052-0.039,0.102-0.078,0.16-0.11
			c0.835-0.464,2.013-0.458,1.691-0.636c0,0-1.973-0.132-2.772,0.324c-0.713,0.407-0.741,1.788-0.18,1.87
			c0.443,0.065,0.487-0.681,0.876-1.208c0.363,1.517,2.218,7.477,8.952,7.792c5.073,0.237,6.706-1.361,6.982-3.831
			c0.156-1.373,1.946-3.008,3.057-3.787c0.077,0.421-0.248,1.014,0.145,1.077c0.559,0.087,1.134-0.775,0.782-1.519
			C44.964,40.336,42.842,40.698,42.842,40.698z"/>
		<path style="clip-path:url(#SVGID_2_);fill:#8F2724;" d="M26.652,42.16c0,0,1.999,6.215,8.019,6.208
			c5.421-0.005,6.119-2.082,6.402-3.541c0.377-1.955,1.861-2.681,1.861-2.681C33.64,44.387,26.652,42.16,26.652,42.16z"/>
		<path style="clip-path:url(#SVGID_2_);fill:#FFF9F0;" d="M28.608,42.857c0,0,0.008,1.993,1.84,2.805
			c2.348,1.039,5.007,1.232,7.741,0.573c1.845-0.442,2.99-3.425,2.99-3.425S36.042,43.64,28.608,42.857z"/>
		<path style="clip-path:url(#SVGID_2_);fill:#FFF9F0;" d="M36.066,46.187c-2.572-0.041-4.778-0.457-5.966-0.98
			c-0.988-0.439-1.018,0.128-0.845,0.636c0,0,0.268,2.063,4.945,2.572c4.09,0.442,5.95-2.103,5.507-2.651
			C39.265,45.213,38.639,46.229,36.066,46.187z"/>
		<path style="clip-path:url(#SVGID_2_);fill:#F58C53;" d="M46.605,37.004c-0.729-0.816-2.075-0.832-3.022-0.725
			c-1.239,0.141-2.824,0.789-1.503,2.414c0.703,0.867,5.708,0.952,4.865-1.14C46.857,37.339,46.743,37.157,46.605,37.004z"/>
		<path style="clip-path:url(#SVGID_2_);fill:#F58C53;" d="M28.229,36.948c-0.793-0.83-2.204-0.798-3.197-0.653
			c-1.291,0.191-2.931,0.923-1.487,2.583c0.767,0.882,6.021,0.801,5.063-1.364C28.508,37.291,28.378,37.104,28.229,36.948z"/>
		<path style="clip-path:url(#SVGID_2_);fill:#E8DAC5;" d="M28.599,42.828c0,0,0.04,0.606,0.176,0.88c0,0,9.756-0.657,11.892,0.197
			c0,0,0.395-0.623,0.514-1.095C41.18,42.811,34.271,43.586,28.599,42.828z"/>
		<path style="clip-path:url(#SVGID_2_);fill:#E8DAC5;" d="M30.632,45.235c3.991,2.094,8.516,0.404,8.516,0.404
			C34.111,46.529,30.632,45.235,30.632,45.235z"/>
		<path style="clip-path:url(#SVGID_2_);fill:#2B221C;" d="M27.415,26.6c-0.802,0.243-3.776,2.209-4.546,2.691
			c0.251,0.693,0.813,0.697,1.409,0.509c0.425-0.131,3.631-1.058,3.993-0.947c0.714,0.215,2.758,0.395,3.222-0.474
			C32,27.437,27.892,26.454,27.415,26.6z"/>
		<path style="clip-path:url(#SVGID_2_);fill:#2B221C;" d="M39.746,28.861c0.392,0.853,2.224,0.64,2.868,0.411
			c0.326-0.114,3.168,0.751,3.547,0.875c0.525,0.173,1.028,0.161,1.271-0.534c-0.673-0.467-3.281-2.371-3.994-2.597
			C43.018,26.881,39.318,27.934,39.746,28.861z"/>
	</g>
</g>
<g id="Layer_1">
</g>
</svg>
