<?xml version="1.0" encoding="iso-8859-1"?>
<!-- Generator: Adobe Illustrator 16.0.0, SVG Export Plug-In . SVG Version: 6.00 Build 0)  -->
<!DOCTYPE svg PUBLIC "-//W3C//DTD SVG 1.1//EN" "http://www.w3.org/Graphics/SVG/1.1/DTD/svg11.dtd">
<svg version="1.1" xmlns="http://www.w3.org/2000/svg" xmlns:xlink="http://www.w3.org/1999/xlink" x="0px" y="0px"
	 width="66.002px" height="66px" viewBox="0 0 66.002 66" style="enable-background:new 0 0 66.002 66;" xml:space="preserve">
<g id="Layer_86">
	<g>
		<defs>
			<circle id="SVGID_1_" cx="33.002" cy="33" r="33"/>
		</defs>
		<clipPath id="SVGID_2_">
			<use xlink:href="#SVGID_1_"  style="overflow:visible;"/>
		</clipPath>
		<rect style="clip-path:url(#SVGID_2_);fill:#FFFFFF;" width="66" height="66"/>
		<path style="clip-path:url(#SVGID_2_);fill:#948A7E;" d="M44.065,55.238l-2.639,4.189c2.045,1.287,3.269,3.771,3.303,6.572h4.938
			C49.63,61.504,47.549,57.433,44.065,55.238z"/>
		<path style="clip-path:url(#SVGID_2_);fill:#948A7E;" d="M24.258,59.428l-2.639-4.189c-3.483,2.194-5.564,6.266-5.603,10.762
			h4.938C20.989,63.199,22.213,60.715,24.258,59.428z"/>
		<path style="clip-path:url(#SVGID_2_);fill:#FFF7EB;" d="M40.721,53.889c-4.894-2.627-12.026-1.723-15.278,0.393
			c-3.733,2.428-3.654,6.188-2.834,11.719h20.704C44.218,60.436,44.372,55.85,40.721,53.889z"/>
		<path style="clip-path:url(#SVGID_2_);fill:#948A7E;" d="M45.01,56.119c-0.412-1.072-4.871-2.723-4.871-2.723
			C38.961,57.221,38.45,61.878,38.284,66h5.32C44.426,61.332,45.292,56.855,45.01,56.119z"/>
		<path style="clip-path:url(#SVGID_2_);fill:#313142;" d="M40.158,52.67c0,0-0.743,4.848-0.909,5.51
			c-0.166,0.664,4.31,0.277,4.364-0.387C43.669,57.131,42.564,53.871,40.158,52.67z"/>
		<path style="clip-path:url(#SVGID_2_);fill:#B3AA9F;" d="M39.415,57.518c-0.613,1.057-1.016,4.678-1.159,8.482h2.254
			c0.829-1.973,1.603-3.674,1.731-4.008C42.54,61.219,39.925,56.641,39.415,57.518z"/>
		<path style="clip-path:url(#SVGID_2_);fill:#948A7E;" d="M20.722,56.119c-0.282,0.736,0.584,5.213,1.405,9.881h5.254
			c-0.202-4.104-0.749-8.736-1.924-12.553C25.457,53.447,21.134,55.047,20.722,56.119z"/>
		<path style="clip-path:url(#SVGID_2_);fill:#313142;" d="M22.117,57.793c0.056,0.664,4.531,1.051,4.365,0.387
			c-0.166-0.662-0.909-5.51-0.909-5.51C23.167,53.871,22.063,57.131,22.117,57.793z"/>
		<path style="clip-path:url(#SVGID_2_);fill:#B3AA9F;" d="M23.489,61.992c0.129,0.334,0.903,2.035,1.731,4.008h2.255
			c-0.144-3.805-0.547-7.426-1.159-8.482C25.807,56.641,23.189,61.219,23.489,61.992z"/>
		<path style="opacity:0.1;clip-path:url(#SVGID_2_);" d="M25.532,56.658c1.058,3.35,4.705,5.248,4.705,5.248l3.134-2.986
			l3.334,2.826c2.008-1.416,4.113-3.689,4.15-5.947C40.882,54.178,24.475,53.305,25.532,56.658z"/>
		<path style="clip-path:url(#SVGID_2_);fill:#FFF7EB;" d="M25.573,52.67c-2.904,3.691,4.431,8.352,4.431,8.352l3.367-2.102
			l3.143,1.975c0,0,6.218-3.225,3.864-7.852C38.261,48.881,28.497,48.955,25.573,52.67z"/>
		<path style="clip-path:url(#SVGID_2_);fill:#FFB67D;" d="M37.547,49.354c-1.646-1.299-4.855-1.506-6.821-1.082
			c-2.05,0.439-3.411,2.348-3.554,4.313c-0.178,2.486,3.488,5.813,6.035,5.879C35.125,58.5,43.271,53.863,37.547,49.354z"/>
		<circle style="clip-path:url(#SVGID_2_);fill:#E6DED4;" cx="32.757" cy="63.084" r="0.648"/>
		<path style="clip-path:url(#SVGID_2_);fill:#2B2521;" d="M50.568,24.338c-0.984-1.13-1.947,7.993-2.607,8.888
			c-1.526,2.065-1.197,5.635,1.341,6.698c0.209,0.086,2.758,0.469,2.519-0.186C49.997,34.742,54.315,28.634,50.568,24.338z"/>
		<path style="clip-path:url(#SVGID_2_);fill:#2B2521;" d="M29.383,10.068C7.407,14.207,11.251,39.424,17.668,38.369
			c6.419-1.053,27.886-5.854,29.849-6.367s4.216-0.812,3.001-9.078C49.193,13.923,38.458,8.36,29.383,10.068z"/>
		<path style="clip-path:url(#SVGID_2_);fill:#FFCB9E;" d="M32.599,14.941c-9.46,0.269-16.865,9.819-16.538,21.331
			c0.325,11.512,8.261,20.627,17.722,20.359c9.462-0.271,16.865-9.82,16.54-21.332C49.995,23.788,42.061,14.673,32.599,14.941z"/>
		<path style="clip-path:url(#SVGID_2_);fill:#211011;" d="M28.88,31.802c-2.068-1.002-3.567,2.684-2.182,3.971
			c0.68-0.164,1.472-0.057,2.084,0.275C30.231,35.377,30.423,32.551,28.88,31.802z"/>
		<path style="opacity:0.5;clip-path:url(#SVGID_2_);fill:#94110C;" d="M44.882,42.352c-0.321-0.219-0.771-0.168-1.006,0.109
			c-0.222,0.258-5.484,6.27-14.06,1.264c-0.339-0.195-0.782-0.117-0.995,0.176c-0.211,0.295-0.107,0.691,0.229,0.889
			c2.128,1.24,4.084,1.861,5.82,2.088c2.405,0.313,4.395-0.123,5.861-0.705c2.729-1.078,4.244-2.846,4.306-2.922
			C45.273,42.971,45.204,42.568,44.882,42.352z"/>
		<path style="opacity:0.3;clip-path:url(#SVGID_2_);fill:#B54D26;" d="M37.257,37.125c-1.063-0.01-1.496-0.438-2.229-0.066
			c-0.729,0.369,0.243,1.951,2.122,1.93c1.87-0.021,2.775-1.459,2.372-1.885C39.052,36.611,38.434,37.137,37.257,37.125z"/>
		<path style="clip-path:url(#SVGID_2_);fill:#FFD8B5;" d="M37.155,34.93c-1.866,0.037-2.825,1.609-1.877,2.338
			c1.176,0.898,3.343,0.582,4.077-0.041C39.902,36.762,39.376,34.887,37.155,34.93z"/>
		<path style="clip-path:url(#SVGID_2_);fill:#211011;" d="M45.604,31.23c-2.21-1.07-3.718,3.581-1.305,4.063
			c0.518-0.408,1.201-0.645,1.819-0.604C46.878,33.693,46.788,31.803,45.604,31.23z"/>
		<path style="clip-path:url(#SVGID_2_);fill:#A89191;" d="M28.248,32.31c-0.87,0.254-0.294,1.948,0.571,1.381
			C29.442,33.279,29.021,32.086,28.248,32.31z"/>
		<path style="clip-path:url(#SVGID_2_);fill:#A89191;" d="M45.081,31.838c-0.81,0.237-0.271,1.819,0.534,1.289
			C46.195,32.743,45.803,31.629,45.081,31.838z"/>
		<path style="clip-path:url(#SVGID_2_);fill:#FFCB9E;" d="M13.417,34.025c-4.724,0.986-3.241,6.92,0.483,8.205
			c1.193,0.412,2.484,0.498,3.735,0.457c0.025-0.031,0.053-0.064,0.08-0.1c0.608-0.748-0.134-4.693-0.365-5.508
			C16.768,35.027,15.688,33.553,13.417,34.025z"/>
		<path style="opacity:0.3;clip-path:url(#SVGID_2_);fill:#B54D26;" d="M44.076,21.04c-4.42-0.88-9.144-1.146-13.618-0.548
			c-3.565,0.475-7.259,1.668-9.127,4.977c-0.944,1.67-1.393,3.536-1.737,5.404c-0.428,2.315-0.059,4.889,0.5,5.086
			c0.414-2.815,2.112-2.666,2.686-5.406c0.5-2.389,3.152-3.986,3.294-4.118c-0.403,0.703-0.965,2.25-0.854,3.041
			c0.915-1.357,4.063-3.495,10.968-2.753c2.042,0.219,6.077,0.468,8.09,0.087c1.447-0.271,3.682-1.539,4.502-3.044
			C49.775,21.937,45.099,21.244,44.076,21.04z"/>
		<path style="clip-path:url(#SVGID_2_);fill:#2B2521;" d="M41.5,16.686c-6.14-3.768-11.729-3.005-16.652-1.001
			c-6.419,2.61-10.389,12.824-9.894,19.004c0.282,3.516,5.14,3.748,5.137,1.766c-0.002-6.043,0.99-10.321,9.914-12.421
			c7.111-1.674,15.509-0.752,17.628,0.717C49.753,26.22,47.639,20.455,41.5,16.686z"/>
		<path style="opacity:0.3;clip-path:url(#SVGID_2_);fill:#B54D26;" d="M15.797,36.316c-1.17-0.619-4.42-0.361-3.291,1.65
			c1.081-1.523,2.256-0.223,1.828,0.916c-0.288,0.766-1.447,0.59-0.486,1.781c0.521,0.646,1.817,0.646,2.507,0.455
			C18.545,40.514,17.22,37.07,15.797,36.316z"/>
		<path style="clip-path:url(#SVGID_2_);fill:#2B2521;" d="M40.593,10.73c-5.597-1.515-11.665-1.569-16.695,1.339
			c-3.628,2.095-4.277,5.997-3.004,10.052c0.422,1.337,1.229,3.238,2.883,3.505c0.618,0.1,3.851-0.937,4.105-1.398
			c-0.416,0.756-0.743,1.661-0.764,2.572c6.842-4.072,18.493,1.913,24.908-2.841C55.049,21.718,50.38,13.38,40.593,10.73z"/>
		<path style="clip-path:url(#SVGID_2_);fill:#2B2521;" d="M19.056,32.765c-1.118-0.682-2.809-0.129-4.033-0.845
			c0.58,0.348,0.102,2.777,0.076,3.328c-0.141,3.287,1.771,5.455,4.876,5.867c0.152,0.02,0.306,0.037,0.465,0.049
			c0.154-2.033-0.275-3.988-0.249-6.086C20.207,33.573,20.072,33.389,19.056,32.765z"/>
		<path style="clip-path:url(#SVGID_2_);fill:#2B2521;" d="M27.607,10.422c-3.242,0.649-6.749,1.333-9.384-0.277
			c0.005,0.583-0.123,2.121,1.241,2.858c-0.81,0.658-2.518,0.714-4.136-0.157c1.667,5.356,8.463,4.129,11.466,2.422
			C28.219,14.459,29.995,9.945,27.607,10.422z"/>
		<path style="clip-path:url(#SVGID_2_);fill:#2B2521;" d="M46.901,27.19c-0.671-0.301-1.513-0.314-2.237-0.338
			c-0.446-0.015-2.134-0.294-2.472,0.068c-1.254,1.361,3.87,1.45,4.322,1.434C47.703,28.305,48.075,27.716,46.901,27.19z"/>
		<path style="clip-path:url(#SVGID_2_);fill:#2B2521;" d="M27.818,27.296c-0.719,0.095-1.556,0.189-2.195,0.556
			c-1.116,0.638-0.688,1.188,0.5,1.119c0.452-0.024,5.544-0.617,4.162-1.847C29.913,26.796,28.259,27.238,27.818,27.296z"/>
		<path style="clip-path:url(#SVGID_2_);fill:#2B2521;" d="M40.192,30.391c-0.962,1.135-0.654,5.623,0.181,6.675
			c0.838,1.055,7.66,0.646,9.119-0.055c1.458-0.699,1.7-5.778,0.437-7.258C48.668,28.27,41.605,28.718,40.192,30.391z
			 M49.271,35.881c-1.197,0.545-6.97,1.035-7.747,0.303c-0.776-0.73-1.315-3.938-0.569-4.783c1.098-1.239,7.075-1.765,8.238-0.738
			C50.359,31.687,50.467,35.336,49.271,35.881z"/>
		<path style="clip-path:url(#SVGID_2_);fill:#2B2521;" d="M21.857,30.619c-1.144,1.19-0.755,6.002,0.25,7.155
			c1.004,1.154,9.153,0.922,10.894,0.217c1.741-0.707,2.004-6.135,0.487-7.76C31.976,28.606,23.537,28.873,21.857,30.619z
			 M32.74,36.707c-1.426,0.527-8.318,0.844-9.251,0.059c-0.934-0.787-1.604-4.14-0.719-4.994c1.299-1.255,8.434-1.6,9.834-0.494
			C34.005,32.385,34.166,36.182,32.74,36.707z"/>
		<path style="clip-path:url(#SVGID_2_);fill:#2B2521;" d="M35.36,32.633c-0.221,0.093-2.097,1.367-1.415,1.621
			c0.176,0.064,1.202-0.619,1.413-0.695c0.646-0.226,1.322-0.315,2.003-0.327c0.953-0.019,1.332,0.241,2.036,0.607
			c0.357,0.186,1.056,0.52,0.547-0.345C39.065,31.987,36.73,32.058,35.36,32.633z"/>
		<path style="clip-path:url(#SVGID_2_);fill:#2B2521;" d="M20.252,32.511c-0.631,0.083-3.43,0.103-3.757,0.688
			c-0.347,0.623,0.645,0.985,1.089,1.104c0.907,0.24,1.865,0.367,2.788,0.506c1.335,0.203,1.345-0.17,1.308-1.408
			C21.646,32.25,21.373,32.362,20.252,32.511z"/>
		<path style="opacity:0.7;clip-path:url(#SVGID_2_);fill:#FFFFFF;" d="M24.176,35.601c-0.373-0.042-0.635,0.032-0.585,0.315
			c0.099,0.554,2.234,1.04,2.448,0.723C26.247,36.324,24.966,35.693,24.176,35.601z"/>
		<path style="opacity:0.3;clip-path:url(#SVGID_2_);fill:#FFFFFF;" d="M32.092,31.496c-1.336-0.474-7.85-0.552-8.48,0.218
			c-0.452,0.554,1.515,1.24,2.396,1.341c1.677,0.19,3.425,0.162,4.914-0.209C31.351,32.741,33.299,31.927,32.092,31.496z"/>
		<path style="clip-path:url(#SVGID_2_);fill:#FFFFFF;" d="M28.726,31.021c-0.694,0.084-1.156,0.295-0.986,0.673
			c0.337,0.747,4.397,0.594,4.698,0.059C32.735,31.226,30.202,30.839,28.726,31.021z"/>
		<path style="opacity:0.7;clip-path:url(#SVGID_2_);fill:#FFFFFF;" d="M42.023,35.305c-0.339-0.029-0.574,0.055-0.518,0.336
			c0.111,0.549,2.069,0.958,2.25,0.633C43.933,35.951,42.745,35.368,42.023,35.305z"/>
		<path style="opacity:0.3;clip-path:url(#SVGID_2_);fill:#FFFFFF;" d="M49.046,30.917c-1.232-0.426-7.146-0.269-7.688,0.523
			c-0.389,0.57,1.424,1.185,2.228,1.254c1.528,0.129,3.114,0.039,4.451-0.386C48.422,32.188,50.158,31.305,49.046,30.917z"/>
		<path style="clip-path:url(#SVGID_2_);fill:#FFFFFF;" d="M45.971,30.564c-0.626,0.109-1.037,0.336-0.868,0.708
			c0.336,0.734,4.016,0.435,4.267-0.111C49.618,30.624,47.305,30.329,45.971,30.564z"/>
	</g>
</g>
<g id="Layer_1">
</g>
</svg>
