<?xml version="1.0" encoding="iso-8859-1"?>
<!-- Generator: Adobe Illustrator 16.0.0, SVG Export Plug-In . SVG Version: 6.00 Build 0)  -->
<!DOCTYPE svg PUBLIC "-//W3C//DTD SVG 1.1//EN" "http://www.w3.org/Graphics/SVG/1.1/DTD/svg11.dtd">
<svg version="1.1" xmlns="http://www.w3.org/2000/svg" xmlns:xlink="http://www.w3.org/1999/xlink" x="0px" y="0px"
	 width="66.002px" height="66px" viewBox="0 0 66.002 66" style="enable-background:new 0 0 66.002 66;" xml:space="preserve">
<g id="Layer_84">
	<g>
		<defs>
			<circle id="SVGID_1_" cx="33.002" cy="33" r="33"/>
		</defs>
		<clipPath id="SVGID_2_">
			<use xlink:href="#SVGID_1_"  style="overflow:visible;"/>
		</clipPath>
		<rect style="clip-path:url(#SVGID_2_);fill:#7997A0;" width="66" height="65.998"/>
		<path style="clip-path:url(#SVGID_2_);fill:#1E1E29;" d="M13.561,65.998h6.742l-2.476-11.33
			C14.147,56.368,13.373,59.093,13.561,65.998z"/>
		<path style="clip-path:url(#SVGID_2_);fill:#FFCB9E;" d="M46.528,44.313c-2.161,3.393,0.492,3.966,3.111,5.275
			c1.307,0.653,2.91,1.871,3.643-0.28c0.421-1.235,0.31-2.168,0.6-3.42c0.245-1.053,0.528-2.479,1.079-3.388
			C56.473,40.004,53.217,33.82,46.528,44.313z"/>
		<path style="clip-path:url(#SVGID_2_);fill:#404048;" d="M44.186,29.49c-0.424-0.331-1.057-0.233-1.408,0.216l-5.086,6.516
			c-0.351,0.45-0.291,1.088,0.132,1.418l11.599,9.055c0.424,0.33,1.057,0.233,1.408-0.216l5.087-6.517
			c0.35-0.448,0.289-1.086-0.134-1.416L44.186,29.49z"/>
		<path style="clip-path:url(#SVGID_2_);fill:#141418;" d="M43.768,29.203c-0.404-0.315-1.016-0.213-1.358,0.227l-4.985,6.385
			c-0.343,0.441-0.294,1.059,0.11,1.373l11.062,8.636c0.403,0.316,1.015,0.214,1.358-0.228l4.985-6.383
			c0.344-0.441,0.294-1.06-0.11-1.375L43.768,29.203z"/>
		<path style="clip-path:url(#SVGID_2_);fill:#141418;" d="M43.768,29.203c-0.404-0.315-1.016-0.213-1.358,0.227l-4.985,6.385
			c-0.343,0.441-0.294,1.059,0.11,1.373l11.062,8.636c0.403,0.316,1.015,0.214,1.358-0.228l4.985-6.383
			c0.344-0.441,0.294-1.06-0.11-1.375L43.768,29.203z"/>
		<path style="clip-path:url(#SVGID_2_);fill:#FFFFFF;" d="M44.121,31.226c-0.324-0.252-0.793-0.198-1.041,0.122l-3.635,4.654
			c-0.248,0.318-0.188,0.785,0.137,1.038l8.549,6.674c0.323,0.253,0.792,0.198,1.041-0.12l3.634-4.655
			c0.248-0.318,0.188-0.786-0.137-1.039L44.121,31.226z"/>
		<path style="opacity:0.5;clip-path:url(#SVGID_2_);fill:#FFFFFF;" d="M42.409,29.43l-4.985,6.385
			c-0.343,0.441-0.294,1.059,0.11,1.373l7.935,6.195c0.772-3.355,3.043-9.67,3.354-10.233l-5.055-3.946
			C43.363,28.888,42.752,28.99,42.409,29.43z"/>
		<path style="clip-path:url(#SVGID_2_);fill:#FFCB9E;" d="M46.42,43.191c-0.51-0.426-1.941-0.938-2.133-0.065
			c-0.121,0.553,0.841,1.41,1.102,1.858c0.416,0.718,0.021,2.204,0.958,2.683c0.758,0.387,1.269-0.263,1.478-0.93
			C48.211,45.508,47.528,44.113,46.42,43.191z"/>
		<path style="clip-path:url(#SVGID_2_);fill:#1E1E29;" d="M49.307,50.016c0,0,2.443,5.151,1.104,6.618
			c-1.086,1.189-1.57,0.667-4.982-1.349c-0.897-0.53-1.943,7.107-1.736,7.212c3.079,1.552,7.102,2.501,10.564-0.512
			c6.137-5.337-0.066-16.021-0.066-16.021L49.307,50.016z"/>
		<path style="clip-path:url(#SVGID_2_);fill:#1E1E29;" d="M44.863,54.397c-4.881-3.45-21.832-2.708-26.823,0.124
			c-1.986,1.128,0.16,5.01,1.456,11.477h23.692C44.241,61.146,46.594,55.621,44.863,54.397z"/>
		<path style="clip-path:url(#SVGID_2_);fill:#5E4684;" d="M24.272,52.282c-1.496,3.938,4.723,13.482,8.873,13.377
			c4.151-0.105,6.741-11,5.211-13.631S25.333,49.492,24.272,52.282z"/>
		<path style="clip-path:url(#SVGID_2_);fill:#121219;" d="M42.609,61.556c0.091-0.518-3.54-2.411-3.412-2.716
			c0.127-0.306,5.289-2.948,5.697-3.495c0.496-0.664-4.753-5.289-6.823-4.681c-0.537,0.158,1.377,7.057-5.637,12.29
			c-0.266,1.091-0.411,2.127-0.462,3.044h4.26c0.025-0.024,0.053-0.053,0.078-0.077C39.428,62.96,42.564,61.811,42.609,61.556z"/>
		<path style="clip-path:url(#SVGID_2_);fill:#3A3A4A;" d="M42.248,60.239c0.091-0.518-3.179-1.446-3.051-1.751
			c0.127-0.306,5.023-4.104,5.432-4.65c0.495-0.665-4.699-4.333-6.77-3.726c-0.538,0.158,1.362,7.342-5.65,12.576
			c-0.294,1.204-0.424,2.335-0.434,3.31h3.802c0.116-0.141,0.222-0.289,0.342-0.427C38.584,62.515,42.203,60.494,42.248,60.239z"/>
		<path style="clip-path:url(#SVGID_2_);fill:#121219;" d="M24.977,50.833c-2.609-0.329-7.381,3.898-6.886,4.563
			c0.408,0.547,5.69,3.368,5.818,3.674c0.128,0.305-3.242,2.143-3.151,2.659c0.041,0.231,4.676,1.901,7.456,4.27h5.617
			c-0.163-0.744-0.346-1.535-0.549-2.367C24.131,59.133,25.532,50.903,24.977,50.833z"/>
		<path style="clip-path:url(#SVGID_2_);fill:#3A3A4A;" d="M25.272,50.24c-2.609-0.329-7.291,2.933-6.796,3.598
			c0.407,0.546,5.305,4.345,5.433,4.65c0.128,0.305-3.143,1.233-3.052,1.751c0.041,0.23,4.692,2.497,7.473,4.865
			c0.341,0.29,0.671,0.591,0.995,0.894h5.191c-0.143-0.844-0.322-1.748-0.556-2.704C24.594,58.885,25.829,50.31,25.272,50.24z"/>
		<path style="opacity:0.3;clip-path:url(#SVGID_2_);" d="M32.103,62.284c0,0,1.731,1.004,1.935,1.328
			c0.112,0.182,0.318,1.365,0.479,2.386h0.168c-0.063-1.051-0.186-2.295-0.418-2.552C33.852,62.988,32.103,62.284,32.103,62.284z"/>
		<path style="opacity:0.3;clip-path:url(#SVGID_2_);" d="M23.847,50.403c-0.236,2.582,3.896,4.871,8.561,4.619
			c4.664-0.25,7.136-2.835,6.91-4.791C39.091,48.275,24.048,48.198,23.847,50.403z"/>
		<path style="opacity:0.25;clip-path:url(#SVGID_2_);fill:#FFFFFF;" d="M36.336,54.437c-0.101-0.004-0.204,0.011-0.301,0.045
			c-0.546,0.198-1.022,0.621-1.574,0.84c-1.406,0.56-2.906,0.664-4.397,0.515c-0.44-0.045-0.878-0.081-1.316-0.15
			c-0.677-0.103-1.215,0.315-0.511,0.831c0.228,0.167,0.486,0.267,0.742,0.375c0.099,0.041,0.566,0.358,0.646,0.34
			c-0.281,0.065-1.543-0.236-1.159,0.403c0.731,1.213,4.341,0.194,5.391-0.138c-0.918,0.409-1.861,0.774-2.771,1.201
			c-1.183,0.556-0.559,1.298,0.438,1.489c1.138,0.218,2.079-0.612,2.872-1.302c0.486-0.421,0.856-0.936,1.219-1.464
			C35.916,56.981,37.67,54.487,36.336,54.437z"/>
		<path style="clip-path:url(#SVGID_2_);fill:#4F3023;" d="M41.117,7.857c-8.372-1.809-22.444-0.263-27.205,6.76
			c-1.344,1.981-2.032,4.382-1.458,6.721c0.612,2.493,2.412,4.146,5.165,3.339c1.433-0.421,2.361-0.281,3.795,0.199
			c1.507,0.504,2.909,1.309,4.457,1.688c2.477,0.604,5.083,0.301,7.558,0.827c1.635,0.348,3.165,1.442,4.49,2.378
			c1.092,0.772,2.212,1.494,3.021,2.562c0.548,0.723,1.1,1.611,1.955,1.998c0.616,0.278,1.979,0.779,2.434,0.076
			c0.279-0.432,0.164-1.656,0.206-2.165c0.066-0.814,0.064-1.636,0.101-2.452c0.093-2.095,0.524-4.133,0.729-6.207
			c0.589,0.693,0.598,1.757,0.475,2.613c1.515-0.989,2.72-2.925,3.008-3.808c1.005-3.074,0.679-6.089-0.634-8.59
			C47.678,10.874,44.796,8.652,41.117,7.857z"/>
		<path style="clip-path:url(#SVGID_2_);fill:#FFCB9E;" d="M27.017,14.216C19.086,16.084,13.9,27.794,15.785,38.518
			c1.413,8.031,7.985,16.649,17.34,15.618c9.544-1.054,13.846-13.11,12.224-22.992C43.586,20.4,38.125,11.599,27.017,14.216z"/>
		<path style="opacity:0.3;clip-path:url(#SVGID_2_);fill:#BF3C1B;" d="M37.627,15.768c-3.125-0.777-6.339-1.152-9.569-1.082
			c-2.867,0.063-5.983,0.027-8.607,1.305c-1.441,0.702-3.209,1.655-3.696,3.254c-0.4,1.309-0.866,3.039-0.103,4.143
			c1.62,2.341,4.548,0.789,5.653,0.159c2.404-1.365,13.583-0.932,18.781-1.143c2.161-0.088,5.268-0.583,4.259-3.466
			C43.548,16.661,39.69,16.283,37.627,15.768z"/>
		<path style="clip-path:url(#SVGID_2_);fill:#FFCB9E;" d="M12.823,34.136c-3.883,1.232-2.086,6.899,1.165,7.926
			c1.041,0.328,2.135,0.336,3.183,0.222c0.019-0.033,0.039-0.064,0.06-0.1c0.44-0.763-0.379-4.913-0.649-5.69
			C15.9,34.536,14.687,33.543,12.823,34.136z"/>
		<path style="opacity:0.3;clip-path:url(#SVGID_2_);fill:#C94614;" d="M14.282,36.19c-0.898-0.371-3.07,0.445-1.969,2.129
			c0.483-1.619,1.498-0.607,1.394,0.533c-0.07,0.766-0.889,0.808-0.038,1.754c0.461,0.513,1.345,0.281,1.783-0.019
			C16.846,39.632,15.377,36.645,14.282,36.19z"/>
		<path style="clip-path:url(#SVGID_2_);fill:#4F3023;" d="M41.549,11.607c-0.577-0.518-1.26-0.931-2.002-1.255
			c-1.886-0.823-4.162-1.074-6.086-0.988c-1.609,0.07-3.211-0.214-4.836-0.141c-1.777,0.081-3.542,0.351-5.281,0.712
			c-2.03,0.423-4.183,1.008-5.972,2.07c-1.561,0.927-2.114,2.985-2.789,4.555c-0.305,0.709-0.225,1.658-0.24,2.407
			c-0.025,1.316-0.009,2.716,0.104,4.025c0.203,2.354,3.389,2.594,4.659,0.852c1.087-1.489,2.679-1.926,4.507-2.063
			c3.027-0.229,14.882-1.25,17.706-0.402c1.55,0.464,3.613,1.179,3.824-1.267c0.115-1.334-0.484-3.041-0.975-4.287
			C43.57,14.3,42.801,12.731,41.549,11.607z"/>
		<path style="clip-path:url(#SVGID_2_);fill:#693A27;" d="M43.588,10.405c-4.074-2.107-9.413-2.031-13.83-1.644
			c-3.772,0.331-7.154,1.469-10.531,3.256c-3.487,1.848-4.417,5.692-3.821,7.561c1.299-2.076,5.097-4.199,6.866-4.454
			c-0.148,0.926-1.769,2.812-2.081,3.688c1.398-0.876,8.246-4.257,10.065-4.306c-0.582,0.711-1.92,1.647-1.785,2.656
			c2.993-0.613,6.174-2.458,9.29-2.359c-0.92,0.954-2.432,1.221-3.185,2.396c3-0.088,6.298-0.645,9.403-0.794
			c-1.004,0.604-1.944,0.9-2.791,1.746c2.472-0.019,5.466-0.397,7.852,0.228C48.623,14.982,46.724,12.028,43.588,10.405z"/>
		<path style="clip-path:url(#SVGID_2_);fill:#BF795C;" d="M13.647,23.72c-1.028,1.795-0.292,9.563-0.004,10.252
			c1.882,0.147,4.289,2.583,4.289,2.583c-0.827-4.524-0.213-6.994,0.494-12.064C16.663,24.536,15.409,24.048,13.647,23.72z"/>
		<path style="clip-path:url(#SVGID_2_);fill:#FFA073;" d="M44.972,35.982c-0.655-0.888-2.004-1.028-2.965-1.009
			c-1.255,0.023-2.907,0.523-1.735,2.28c0.625,0.935,5.64,1.494,4.989-0.686C45.193,36.343,45.097,36.149,44.972,35.982z"/>
		<path style="clip-path:url(#SVGID_2_);fill:#FFA073;" d="M24.302,36.425c-0.896-0.731-2.305-0.524-3.276-0.256
			c-1.269,0.35-2.818,1.287-1.171,2.766c0.879,0.789,6.122,0.055,4.895-1.99C24.623,36.733,24.472,36.563,24.302,36.425z"/>
		<path style="clip-path:url(#SVGID_2_);fill:#224245;" d="M23.217,31.169c-2.093-0.807-3.248,2.897-1.797,4.037
			c0.647-0.218,1.424-0.178,2.047,0.095C24.82,34.532,24.775,31.771,23.217,31.169z"/>
		<path style="opacity:0.3;clip-path:url(#SVGID_2_);fill:#B54D26;" d="M33.261,37.362c-1.203,0.062-1.7-0.469-2.524,0.065
			c-0.821,0.531,0.444,2.09,2.572,1.93c2.118-0.157,2.983-1.651,2.521-2.178C35.292,36.569,34.595,37.297,33.261,37.362z"/>
		<path style="clip-path:url(#SVGID_2_);fill:#FFDFC2;" d="M32.771,32.852c-2.27-0.107-2.255,4.678-1.723,5.067
			c1.308,0.952,3.93,0.14,4.67-0.694C36.009,36.895,34.936,32.956,32.771,32.852z"/>
		<path style="clip-path:url(#SVGID_2_);fill:#224245;" d="M43.042,30.261c-2.143-1.176-3.525,2.926-1.754,4.001
			c0.533-0.384,1.638-0.315,2.18-0.09C44.271,33.212,44.191,30.892,43.042,30.261z"/>
		<path style="opacity:0.7;clip-path:url(#SVGID_2_);fill:#D4E6DD;" d="M22.261,32.104c-0.824,0.316-0.125,1.917,0.666,1.294
			C23.5,32.947,22.994,31.823,22.261,32.104z"/>
		<path style="opacity:0.7;clip-path:url(#SVGID_2_);fill:#D4E6DD;" d="M41.993,31.001c-0.819,0.197-0.361,1.804,0.467,1.311
			C43.057,31.957,42.72,30.826,41.993,31.001z"/>
		<path style="clip-path:url(#SVGID_2_);fill:#2B221C;" d="M28.064,26.722c-1.649-0.257-3.206-0.341-4.867-0.178
			c-2.5,0.248-4.167,1.067-3.964,1.587c0.203,0.521,2.014,0.302,4.84,0.422c2.605,0.111,4.549,0.612,4.917-0.124
			C29.453,27.5,28.953,26.858,28.064,26.722z"/>
		<path style="clip-path:url(#SVGID_2_);fill:#2B221C;" d="M41.86,25.917c-1.48-0.081-2.861,0.083-4.318,0.422
			c-0.785,0.184-1.211,0.849-0.771,1.75c0.348,0.716,2.059,0.119,4.37-0.124c2.509-0.263,4.122-0.136,4.288-0.665
			C45.595,26.771,44.088,26.037,41.86,25.917z"/>
		<path style="clip-path:url(#SVGID_2_);fill:#F7A286;" d="M25.834,41.999c-2.661,0.393-2.253,0.867-1.267,2.211
			c1.642,2.238,5.509,4.804,11.121,3.593c2.772-0.598,4.856-2.684,4.152-4.765l2.613-1.648
			C38.382,40.861,30.871,41.256,25.834,41.999z"/>
		<path style="clip-path:url(#SVGID_2_);fill:#8F2724;" d="M26.462,42.447c-1.603,0.032-2.2,0.314-0.944,1.716
			c1.648,1.839,5.574,3.318,9.22,2.866c3.275-0.405,5.012-2.643,4.565-4.521c0.333-0.161,0.796-0.471,1.254-0.709
			C36.793,41.312,30.364,42.369,26.462,42.447z"/>
		<path style="clip-path:url(#SVGID_2_);fill:#FFF9F0;" d="M39.243,41.766c-3.601-0.118-8.607,0.408-11.401,0.945
			c-0.579,0.109-1.773,0.582-1.076,0.974c1.262,0.711,11.221,0.299,11.672,0.1C39.161,43.468,40.144,41.796,39.243,41.766z"/>
		<path style="clip-path:url(#SVGID_2_);fill:#E8DAC5;" d="M39.424,41.685c-3.271-0.186-8.168,0.293-13.433,0.782
			c0,0,0.006,0.777,0.774,1.218c0,0,6.392-2.128,12.649-0.954C39.415,42.73,40.195,41.729,39.424,41.685z"/>
		<path style="opacity:0.3;clip-path:url(#SVGID_2_);fill:#B54D26;" d="M43.66,27.394c-1.49,0.099-2.973,0.351-4.413,0.751
			c-1.229,0.343-2.678,0.512-3.805,1.115c-1.041,0.56-1.477,0.92-2.742,0.885c-2.264-0.062-4.191-1.444-6.454-1.647
			c-2.356-0.212-4.769-0.456-7.078,0.215c-0.602,0.176-2.416,0.892-1.175,1.522c1.211,0.614,3.007,0.39,4.324,0.422
			c0.609,0.015,1.221,0.022,1.827,0.069c2.154,0.168,5.46-0.176,5.325,2.513c-0.092,1.846-1.254,3.755-2.747,4.123
			c-1.433,0.353-2.97,0.502-4.424,0.517c-1.113,0.011-2.192-0.19-3.213-0.646c-0.291-0.129-1.16-0.666-1.434-0.273
			c-0.466,0.668,1.299,1.742,1.76,1.941c1.054,0.458,2.169,0.586,3.308,0.691c2.809,0.259,5.696,0.071,7.244-2.53
			c0.898-1.508,1.334-3.273,2.163-4.819c1.359-2.53,2.063,0.869,2.523,2.355c0.26,0.835,0.63,1.643,1.152,2.341
			c0.926,1.238,2.717,1.89,4.209,1.939c0.919,0.029,1.858-0.03,2.715-0.4c0.517-0.221,0.72-0.828,0.093-1.055
			c-0.38-0.136-0.98-0.024-1.376-0.036c-0.577-0.014-1.166-0.014-1.735-0.112c-0.73-0.126-1.469-0.417-2.091-0.86
			c-0.436-0.311-0.814-0.694-1.095-1.149c-0.584-0.948-0.628-2.118-0.268-3.158c0.493-1.432,2.056-1.566,3.351-1.697
			c1.568-0.156,3.156-0.15,4.718-0.317c0.694-0.072,1.391,0.011,2.086,0.024c0.896,0.017,2.824-0.296,1.743-1.58
			C47.109,27.298,45.109,27.298,43.66,27.394z"/>
		<path style="clip-path:url(#SVGID_2_);fill:#3A3A4A;" d="M16.734,28.508c-1.844,0.194-3.457-0.205-3.865,0.198
			c-0.532,0.523,0.578,2.101,0.578,2.101s0.618,0.372,1.488,0.381c0.214,1.274,0.386,4.594,2.893,6.515
			c2.094,1.601,8.552,1.637,10.476,0.487c2.384-1.426,3.27-3.81,3.54-6.119C32.509,26.412,19.333,28.233,16.734,28.508z
			 M28.326,36.676c-2.326,1.756-8.622,1.469-10.393-0.419c-1.363-1.457-1.82-4.675-1.09-5.19c2.236-1.58,11.068-1.682,13.215-0.278
			C31.099,31.469,30.091,35.345,28.326,36.676z"/>
		<path style="clip-path:url(#SVGID_2_);fill:#3A3A4A;" d="M47.417,27.288c-2.359-0.056-14.354-0.771-13.345,4.813
			c0.413,2.278,1.383,4.58,3.632,5.802c1.817,0.984,7.629,0.41,9.396-1.36c2.118-2.123,2.03-5.445,2.13-6.732
			c0.784-0.081,1.313-0.504,1.313-0.504s0.885-1.663,0.368-2.142C50.515,26.796,49.091,27.327,47.417,27.288z M46.9,35.11
			c-1.455,2.029-7.104,2.84-9.325,1.285c-1.686-1.18-2.876-4.958-1.988-5.723c1.83-1.577,9.789-2.213,11.917-0.825
			C48.2,30.301,48.022,33.546,46.9,35.11z"/>
		<path style="opacity:0.3;clip-path:url(#SVGID_2_);fill:#FFFFFF;" d="M37.152,30.207c-1.319,0.534,1.037,1.28,1.545,1.366
			c1.765,0.303,3.772,0.224,5.665-0.083c0.995-0.16,3.144-1.016,2.545-1.577C46.067,29.131,38.609,29.618,37.152,30.207z"/>
		<path style="clip-path:url(#SVGID_2_);fill:#FFFFFF;" d="M42.994,30.013c-0.712,0.096-1.18,0.294-0.991,0.616
			c0.369,0.638,4.542,0.371,4.834-0.104C47.126,30.059,44.51,29.807,42.994,30.013z"/>
		<path style="opacity:0.7;clip-path:url(#SVGID_2_);fill:#FFFFFF;" d="M38.544,34.941c-0.447-0.014-0.756,0.084-0.674,0.363
			c0.16,0.552,2.753,0.861,2.982,0.523C41.076,35.493,39.496,34.968,38.544,34.941z"/>
		<path style="opacity:0.7;clip-path:url(#SVGID_2_);fill:#FFFFFF;" d="M19.336,35.689c-0.47-0.039-0.801,0.038-0.734,0.324
			c0.128,0.559,2.832,1.03,3.099,0.705C21.961,36.399,20.336,35.775,19.336,35.689z"/>
		<path style="opacity:0.3;clip-path:url(#SVGID_2_);fill:#FFFFFF;" d="M29.06,30.532c-1.692-0.466-9.929-0.479-10.719,0.307
			c-0.567,0.563,1.925,1.238,3.039,1.332c2.121,0.176,4.329,0.13,6.212-0.26C28.132,31.799,30.59,30.957,29.06,30.532z"/>
		<path style="clip-path:url(#SVGID_2_);fill:#FFFFFF;" d="M25.463,30.319c-0.752,0.08-1.252,0.266-1.065,0.594
			c0.371,0.646,4.776,0.479,5.1,0.011C29.817,30.463,27.066,30.149,25.463,30.319z"/>
		<path style="clip-path:url(#SVGID_2_);fill:#3A3A4A;" d="M35.776,28.746c-1.854,0.596-3.61,0.812-5.932,0.204
			c-1.854-0.484,0.984,1.099,1.209,2.031c0.226,0.935-0.004,3.974,0.597,2.258c0.6-1.715,1.784-1.801,2.614-0.246
			s0.847-2.564,1.167-2.951C35.753,29.654,37.574,28.167,35.776,28.746z"/>
		<path style="clip-path:url(#SVGID_2_);fill:#C1C5C9;" d="M17.64,28.992c5.006-0.113,9-0.263,12.098,0.681
			C27.654,28.201,24.247,28.093,17.64,28.992z"/>
		<path style="clip-path:url(#SVGID_2_);fill:#C1C5C9;" d="M46.982,27.713c-6.104,0.075-8.95,0.051-10.629,1.563
			C39.026,28.085,42.438,28.254,46.982,27.713z"/>
	</g>
</g>
<g id="Layer_1">
</g>
</svg>
