<?xml version="1.0" encoding="iso-8859-1"?>
<!-- Generator: Adobe Illustrator 16.0.0, SVG Export Plug-In . SVG Version: 6.00 Build 0)  -->
<!DOCTYPE svg PUBLIC "-//W3C//DTD SVG 1.1//EN" "http://www.w3.org/Graphics/SVG/1.1/DTD/svg11.dtd">
<svg version="1.1" xmlns="http://www.w3.org/2000/svg" xmlns:xlink="http://www.w3.org/1999/xlink" x="0px" y="0px"
	 width="66.002px" height="66px" viewBox="0 0 66.002 66" style="enable-background:new 0 0 66.002 66;" xml:space="preserve">
<g id="Layer_77">
	<g>
		<defs>
			<circle id="SVGID_1_" cx="33.002" cy="33" r="33"/>
		</defs>
		<clipPath id="SVGID_2_">
			<use xlink:href="#SVGID_1_"  style="overflow:visible;"/>
		</clipPath>
		<rect style="clip-path:url(#SVGID_2_);fill:#FFFFFF;" width="66" height="66"/>
		<path style="clip-path:url(#SVGID_2_);fill:#3A3A4A;" d="M23.039,52.561c-2.892,1.605-5.021,6.178-5.554,13.438L24.388,66
			c0.208-3.754,0.569-7.899,1.432-8.846L23.039,52.561z"/>
		<path style="clip-path:url(#SVGID_2_);fill:#3A3A4A;" d="M45.649,52.561l-2.78,4.594C43.73,58.101,44.092,62.246,44.3,66
			l6.902-0.002C50.671,58.738,48.541,54.166,45.649,52.561z"/>
		<path style="clip-path:url(#SVGID_2_);fill:#FFB224;" d="M42.068,51.275c-4.892-2.494-12.025-1.634-15.277,0.373
			C22.338,54.396,23.303,58.94,24.489,66h19.573C45.362,59.305,46.443,53.504,42.068,51.275z"/>
		<path style="clip-path:url(#SVGID_2_);fill:#0D73B5;" d="M33.899,46.703c-7.717,0-7.988,10.911,0.371,10.911
			C42.083,57.614,44.633,46.703,33.899,46.703z"/>
		<path style="clip-path:url(#SVGID_2_);fill:#F5AB76;" d="M36.757,45.696c-1.702-0.437-4.48-0.222-5.905,1.115
			c-4.955,4.646-0.131,9.221,3.763,9.221c3.892,0,5.373-3.329,5.22-5.892C39.711,48.117,38.532,46.15,36.757,45.696z"/>
		<path style="clip-path:url(#SVGID_2_);fill:#3A3A4A;" d="M46.607,53.394c-0.411-1.019-4.735-2.537-4.735-2.537
			C38.968,55.682,37.943,61.205,37.686,66h6.771C45.276,58.43,46.979,54.31,46.607,53.394z"/>
		<path style="clip-path:url(#SVGID_2_);fill:#3A3A4A;" d="M22.04,53.394C21.669,54.31,23.371,58.43,24.19,66h6.771
			c-0.259-4.795-1.282-10.318-4.187-15.144C26.775,50.856,22.451,52.375,22.04,53.394z"/>
		<path style="opacity:0.15;clip-path:url(#SVGID_2_);" d="M41.786,54.459c-0.643-1.2-1.823-2.074-3.379-2.121
			c-1.954-0.06-3.504,0.398-4.444,0.961c1.854,0.924,2.334,6.399,2.489,9.853c0.04,0.888,0.041,1.87,0.046,2.849h4.818
			C42.258,61.813,42.8,56.354,41.786,54.459z"/>
		<path style="clip-path:url(#SVGID_2_);fill:#E62628;" d="M38.589,52.164c-2.06,0.002-3.68,0.507-4.659,1.097
			c1.975,0.859,3.037,5.166,3.299,10.092c0.034,0.638,0.036,1.605,0.049,2.647h6.838c-0.051-4.266-0.849-10.047-1.917-11.83
			C41.494,52.995,40.229,52.162,38.589,52.164z"/>
		<path style="clip-path:url(#SVGID_2_);fill:#FF3B3B;" d="M42.352,58.912c-0.884-0.049-0.592,2.694-0.639,3.283
			c-0.281-0.513-0.485-1.17-0.954-1.531c-0.378,0.634-0.952,1.794-0.904,2.593c-0.307,1.314-1.154-0.286-1.47-0.594
			c0.001,0.002-0.095,2.551-0.088,2.671c0.01,0.17,0,0.402-0.018,0.666h5.197c-0.004-0.094-0.008-0.193-0.011-0.271
			C43.438,64.857,43.57,58.979,42.352,58.912z"/>
		<path style="opacity:0.15;clip-path:url(#SVGID_2_);" d="M25.893,57.325c2.357,3.734,8.558,4.507,11.547,3.59
			c2.283-0.703,5.507-2.548,6.425-6.387C46.31,44.264,19.227,46.774,25.893,57.325z"/>
		<path style="clip-path:url(#SVGID_2_);fill:#E62628;" d="M25.443,56.499c2.49,3.703,9.059,4.457,12.229,3.537
			c2.425-0.702,5.845-2.544,6.823-6.358C47.11,43.475,18.4,46.035,25.443,56.499z"/>
		<path style="clip-path:url(#SVGID_2_);fill:#B8122E;" d="M27.774,51.422c1.738,1.764,6.288,2.756,9.316,2.018
			c1.715-0.418,4.544-0.93,5.305-2.679C44.421,46.082,22.858,46.434,27.774,51.422z"/>
		<path style="clip-path:url(#SVGID_2_);fill:#FF3B3B;" d="M37.507,54.305c-0.314-0.365-1.641,0.135-3.079,0.113
			c-2.629-0.042-2.671-0.689-4.082-0.725c-0.313,1.389,2.733,2.169,3.421,2.386c-0.729,0.042-2.248-0.203-2.847,0.402
			c-0.866,0.874-0.021,2.024,0.718,2.311c1.243,0.479,2.604,0.61,3.902,0.345c0.402-0.08,1.391-0.215,1.528-0.801
			c0.104-0.447-0.293-0.429-0.255-0.87c0.03-0.345,0.534-0.553,0.505-1.013c-0.037-0.557-0.395-0.49-0.859-0.517
			C36.814,55.753,37.967,54.837,37.507,54.305z"/>
		<path style="clip-path:url(#SVGID_2_);fill:#3D2216;" d="M50.259,17.357c-1.709-1.425-3.648-2.485-5.072-2.59
			c-0.42-1.758-0.928-3.723-1.713-5.245c-0.771,1.084-1.269,2.481-2.285,3.375c-0.435-1.465-2.843-3.878-4.307-4.312
			c-0.067,1.293-0.771,2.544-1.839,3.28c-1.138-0.892-4.091-2.755-5.43-3.272c1.558,3.817-3.692,1.2-5.552,1.898
			c0.292,0.697,1.477,1.687,1.438,2.329c-4.278-0.804-8.952,2.67-10.723,6.668c0.98-0.562,2.15-0.744,3.235-0.692
			c-2.309-0.092-3.792,4.773-4.304,6.463c-1.256,4.141-0.819,8.382-0.065,12.571c0.631,3.5,0.753,5.166-1.248,8.097
			c1.336-0.018,2.658,0.081,3.866-0.421c0.084,2.243-0.158,4.232-1.239,6.127c2.181-0.026,3.092-0.572,5.008-1.338
			c0.188,0.799,0.097,2.697,0.49,3.423c1.16-0.657,2.391-2.044,3.373-2.901c0.247,0.517,0.669,1.13,0.947,1.505
			c1.725-3.192,2.893-6.935,6.344-8.909c2.572-1.471,5.104-1.375,7.747,0.002c3.724,1.943,3.684,6.402,7.712,8.255
			c0.254-1.127,0.392-2.352,0.33-3.555c1.072,1.142,2.468,2.3,3.972,2.753c-0.096-2.342,0.021-4.139-0.934-6.326
			c-0.002,0-0.004-0.001-0.006-0.002c-0.035-0.041-0.035-0.043,0.002-0.008c0.001,0.004,0.002,0.007,0.004,0.01
			c0.918,0.287,1.835,0.698,2.799,0.883c-0.829-2.258-2.359-4.09-2.223-6.691c0.039-0.744,1.241-3.314,2.059-5.799
			c0.853-2.593,1.286-5.092-0.46-5.319c0.756,0.099,1.565,0.354,2.154,0.878C54.09,24.135,53.797,20.309,50.259,17.357z"/>
		<path style="clip-path:url(#SVGID_2_);fill:#3D2216;" d="M50.005,44.539c0.002,0.001,0.004,0.002,0.006,0.002
			c-0.002-0.003-0.003-0.006-0.004-0.01C49.97,44.496,49.97,44.498,50.005,44.539z"/>
		<path style="clip-path:url(#SVGID_2_);fill:#FFBC82;" d="M31.707,16.042c-7.381,1.44-12.581,12.051-11.226,22.006
			c1.015,7.456,6.766,15.637,15.429,15.021c8.838-0.63,13.236-11.593,12.094-20.762C46.763,22.338,42.042,14.027,31.707,16.042z"/>
		<path style="opacity:0.3;clip-path:url(#SVGID_2_);fill:#BF3C1B;" d="M41.216,17.611c-2.907-0.871-5.913-1.352-8.949-1.406
			c-2.694-0.047-5.622-0.199-8.133,0.938c-1.381,0.625-3.075,1.481-3.591,3.009c-0.642,1.899-0.334,4.293-0.021,6.234
			c0.342,2.126,0.859,4.3,1.991,6.159c0.098-1.458,0.762-2.975,1.662-4.095c0.733-0.912,1.788-2.578,3.04-2.78
			c-0.372,1.993-1.691,3.915-2.944,5.469c1.181,0.132,2.626-0.825,3.708-1.229c0.917-0.341,1.687-0.835,2.53-1.285
			c0.004,0.714-0.578,1.326-0.716,2c3.151-0.587,5.43-1.763,8.072-3.449c1.548-0.987,4.252-2.284,5.98-1.107
			c0.799,0.543,0.971,1.627,1.904,1.991c0.326-0.559,0.516-1.208,0.867-1.733c0.748,0.783,1.513-1.035,1.682-1.546
			C49.88,19.998,44.584,18.62,41.216,17.611z"/>
		<path style="clip-path:url(#SVGID_2_);fill:#FFBC82;" d="M17.906,33.901c-3.624,0.998-2.17,6.289,0.79,7.351
			c0.949,0.34,1.957,0.387,2.928,0.318c0.019-0.029,0.038-0.059,0.058-0.09c0.434-0.688-0.173-4.545-0.395-5.271
			C20.729,34.381,19.646,33.422,17.906,33.901z"/>
		<path style="opacity:0.4;clip-path:url(#SVGID_2_);fill:#B54D26;" d="M19.178,35.849c-0.814-0.375-2.847,0.3-1.892,1.893
			c0.504-1.476,1.404-0.508,1.266,0.54c-0.092,0.705-0.848,0.714-0.097,1.617c0.406,0.488,1.229,0.309,1.645,0.047
			C21.419,39.113,20.172,36.306,19.178,35.849z"/>
		<path style="clip-path:url(#SVGID_2_);fill:#3D2216;" d="M47.177,18.484c-1.562-1.088-2.438-2.779-4.255-3.679
			c-1.581-0.783-3.462-1.439-5.198-1.774c-2.462-0.476-5.106-0.524-7.59-0.229c-4.18,0.499-9.224,2.482-10.545,6.909
			c-0.813,2.72-0.389,5.874-0.18,8.653c0.08,1.067-0.163,5.1,0.727,5.932c0.527,0.493,0.708,1.334,1.102,1.946
			c0.44,0.684,0.974,1.361,1.654,1.82c-0.102-0.791-0.438-1.596-0.504-2.387c0.341,0.271,0.736,0.777,1.224,0.71
			c-0.836-2.543-1.319-4.687-0.699-7.393c0.403-1.76,1.726-3.241,3.119-4.327c0.468-0.364,1.587-1.282,2.228-0.798
			c0.644,0.486,0.063,1.846-0.159,2.396c-0.694,1.714-1.867,3.436-3.473,4.412c1.386,0.04,3.068-0.909,4.242-1.579
			c0.96-0.547,2.579-1.705,3.125-2.644c-0.183,1.096-0.979,2.623-1.819,3.384c0.68,0.067,1.832-0.517,2.539-0.763
			c1.151-0.402,2.04-1.024,3.035-1.703c0.595-0.406,1.2-0.81,1.8-1.199c0.971-0.631,2.17-0.904,3.238-1.33
			c1.036-0.413,2.419-0.934,3.419-0.228c0.247,0.174,1.735,2.528,1.304,2.674c0.609-0.207,1.214-0.557,1.765-0.886
			c1.143-0.685,2.253-1.461,2.49-2.845c0.177-1.031-0.075-2.029-0.574-2.908C48.7,19.788,47.973,19.039,47.177,18.484z"/>
		<path style="clip-path:url(#SVGID_2_);fill:#FA9769;" d="M46.684,35.879c-0.774-0.66-2.017-0.506-2.876-0.288
			c-1.122,0.282-2.504,1.077-1.085,2.411c0.758,0.711,5.382,0.167,4.343-1.656C46.958,36.157,46.83,36.004,46.684,35.879z"/>
		<path style="clip-path:url(#SVGID_2_);fill:#FA9769;" d="M29.989,36.697c-0.618-0.869-1.922-1.031-2.852-1.031
			c-1.215,0-2.824,0.453-1.72,2.174c0.587,0.916,5.431,1.55,4.842-0.57C30.198,37.051,30.106,36.861,29.989,36.697z"/>
		<path style="clip-path:url(#SVGID_2_);fill:#4F4F4F;" d="M29.089,31.922c-2.141-0.643-3.487,2.004-2.027,2.87
			c0.681-0.14,1.486-0.087,2.12,0.126C30.618,34.4,30.683,32.401,29.089,31.922z"/>
		<path style="clip-path:url(#SVGID_2_);fill:#3D2216;" d="M46.859,28.673c-1.067-0.652-2.46-1.332-3.701-0.898
			c-0.531,0.185-0.968,0.51-1.401,0.765c-0.587,0.344-1.168,0.558-1.965,0.116c0.044,3.201,2.835,1.634,4.851,1.523
			c1.04-0.057,2.53,0.468,3.471-0.082C48.047,29.414,47.399,29.002,46.859,28.673z"/>
		<path style="clip-path:url(#SVGID_2_);fill:#3D2216;" d="M30.317,28.749c-0.438-0.25-0.878-0.571-1.411-0.75
			c-1.246-0.419-2.63,0.276-3.69,0.94c-0.536,0.335-1.18,0.754-1.238,1.438c0.946,0.54,2.432-0.001,3.472,0.043
			c2.017,0.088,4.825,1.624,4.833-1.578C31.49,29.293,30.907,29.086,30.317,28.749z"/>
		<path style="opacity:0.4;clip-path:url(#SVGID_2_);fill:#B54D26;" d="M36.874,37.846c-1.112,0.015-1.552-0.492-2.33-0.029
			c-0.777,0.461,0.335,1.942,2.302,1.871c1.959-0.07,2.811-1.416,2.402-1.918C38.774,37.188,38.106,37.833,36.874,37.846z"/>
		<path style="clip-path:url(#SVGID_2_);fill:#FFD4AD;" d="M36.583,33.67c-2.089-0.182-2.246,4.232-1.769,4.609
			c1.171,0.926,3.617,0.271,4.329-0.473C39.425,37.514,38.575,33.843,36.583,33.67z"/>
		<path style="clip-path:url(#SVGID_2_);fill:#4F4F4F;" d="M45.155,31.765c-2.245-0.932-3.896,2.065-2.045,2.911
			c0.588-0.269,1.766-0.186,2.338-0.002C46.349,33.984,46.359,32.265,45.155,31.765z"/>
		<path style="opacity:0.7;clip-path:url(#SVGID_2_);fill:#EDF0EF;" d="M28.327,32.384c-0.868,0.206-0.208,1.383,0.64,0.955
			C29.578,33.029,29.1,32.202,28.327,32.384z"/>
		<path style="opacity:0.7;clip-path:url(#SVGID_2_);fill:#EDF0EF;" d="M44.276,32.091c-0.883,0.123-0.46,1.325,0.446,0.984
			C45.375,32.83,45.063,31.983,44.276,32.091z"/>
		<path style="opacity:0.35;clip-path:url(#SVGID_2_);fill:#B5300F;" d="M43.495,39.459c-0.337,0.092,0.296,0.178,1.128,0.339
			c0.163,0.03,0.264,0.101,0.326,0.191c-3.856,1.417-12.415,2.408-17.742,0.909c0.044-0.041,0.091-0.081,0.146-0.113
			c0.761-0.495,1.876-0.561,1.56-0.709c0,0-1.878-0.006-2.605,0.478c-0.649,0.431-0.586,1.743-0.05,1.788
			c0.424,0.036,0.418-0.676,0.753-1.201c0.44,1.419,2.579,6.978,8.982,6.864c4.823-0.085,6.269-1.705,6.373-4.071
			c0.058-1.315,1.649-2.98,2.65-3.789c0.101,0.396-0.169,0.98,0.207,1.016c0.534,0.049,1.026-0.809,0.644-1.492
			C45.482,38.984,43.495,39.459,43.495,39.459z"/>
		<path style="clip-path:url(#SVGID_2_);fill:#8F2A25;" d="M28.248,41.839c0,0,2.293,5.79,7.996,5.417
			c5.136-0.338,5.666-2.355,5.84-3.762c0.232-1.881,1.594-2.662,1.594-2.662C35.012,43.529,28.248,41.839,28.248,41.839z"/>
		<path style="clip-path:url(#SVGID_2_);fill:#FFF7EA;" d="M30.144,42.383c0,0,0.138,1.896,1.925,2.556
			c2.293,0.845,4.823,0.867,7.375,0.074c1.719-0.534,2.61-3.442,2.61-3.442S37.241,42.674,30.144,42.383z"/>
		<path style="clip-path:url(#SVGID_2_);fill:#FFF7EA;" d="M37.426,45.094c-2.439,0.118-4.556-0.142-5.716-0.568
			c-0.967-0.355-0.956,0.186-0.759,0.658c0,0,0.386,1.945,4.852,2.143c3.903,0.172,5.503-2.363,5.047-2.857
			C40.396,43.974,39.867,44.977,37.426,45.094z"/>
		<path style="clip-path:url(#SVGID_2_);fill:#ECDCC4;" d="M30.135,42.357c0,0,0.076,0.574,0.222,0.824
			c0,0,9.203-1.222,11.283-0.538c0,0,0.332-0.616,0.414-1.073C42.054,41.57,35.559,42.73,30.135,42.357z"/>
		<path style="clip-path:url(#SVGID_2_);fill:#ECDCC4;" d="M32.219,44.521c3.914,1.748,8.092-0.136,8.092-0.136
			C35.597,45.539,32.219,44.521,32.219,44.521z"/>
		<path style="clip-path:url(#SVGID_2_);fill:#593424;" d="M48.734,17.652c-0.541-0.416-5.115-2.712-5.286-1.542
			c0.151-1.035-0.269-2.041-0.443-3.028c-0.78,0.168-1.372,1.618-2.027,2.134c-0.348-1.086-1.592-3.516-2.742-3.803
			c-0.234,1.025-1.313,2.696-2.133,3.363c-0.813-0.468-1.397-1.685-2.175-2.306c-0.714-0.572-1.623-1.109-2.507-1.352
			c0.143,0.611,0.132,1.288,0.058,1.913c-1.173-0.935-3.227-1.335-4.693-1.292c0.263,0.616,0.477,1.231,0.469,1.94
			c0-0.034-3.068,0.508-3.348,0.55c-1.086,0.162-2.011,0.504-3.046,0.919c-1.208,0.486-2.341,1.028-3.281,1.954
			c1.294-0.153,2.184-0.088,3.415,0.25c-0.727,1.014-1.672,1.821-2.321,2.975c-0.58,1.03-0.917,2.126-1.311,3.223
			c1.309-0.996,2.771-1.766,4.185-2.583c-0.21,1.089-0.799,2.375-0.542,3.528c1.267-0.482,2.834-1.344,3.932-2.116
			c0.496-0.349,0.785-0.801,0.845-1.45c0.031-0.337-0.266-1.923-0.701-1.96c3.047,0.258,6.412,4.191,5.088,7.39
			c0.679-0.953,1.579-1.803,2-2.921c0.482-1.282-0.116-2.616-0.566-3.844c1.122,1.239,2.056,2.283,2.545,3.919
			c0.474-0.578,0.964-1.247,1.349-1.883c0.277-0.459,0.36-1.029,0.866-1.305c0.314,1.187,0.284,2.628-0.189,3.796
			c-0.29,0.719-0.847,1.227-1.213,1.878c1.516-0.466,3.049-1.203,4.483-1.872c2.338-1.089,3.668-3,3.578-5.684
			c0.291,0.75,1.212,1.441,1.648,2.197c0.765,1.326,1.164,2.675,1.534,4.149c0.525-0.896,0.782-1.939,1-2.968
			c1.34,1.017,3.267,1.867,4.752,2.681c-0.22-1.111-1.103-2.067-1.744-3.049c0.686-0.056,1.271,0.278,1.949,0.262
			C51.171,20.287,50.125,18.723,48.734,17.652z"/>
	</g>
</g>
<g id="Layer_1">
</g>
</svg>
