<?xml version="1.0" encoding="iso-8859-1"?>
<!-- Generator: Adobe Illustrator 16.0.0, SVG Export Plug-In . SVG Version: 6.00 Build 0)  -->
<!DOCTYPE svg PUBLIC "-//W3C//DTD SVG 1.1//EN" "http://www.w3.org/Graphics/SVG/1.1/DTD/svg11.dtd">
<svg version="1.1" xmlns="http://www.w3.org/2000/svg" xmlns:xlink="http://www.w3.org/1999/xlink" x="0px" y="0px"
	 width="66.008px" height="66px" viewBox="0 0 66.008 66" style="enable-background:new 0 0 66.008 66;" xml:space="preserve">
<g id="Layer_45">
	<g>
		<defs>
			<circle id="SVGID_1_" cx="33.008" cy="33" r="33"/>
		</defs>
		<clipPath id="SVGID_2_">
			<use xlink:href="#SVGID_1_"  style="overflow:visible;"/>
		</clipPath>
		<rect style="clip-path:url(#SVGID_2_);fill:#FFFFFF;" width="66" height="65.999"/>
		<path style="clip-path:url(#SVGID_2_);fill:#93AEBF;" d="M51.852,36.813c0.822-4.761,1.201-8.703-1.614-12.134
			c-0.251-0.306-1.174-0.816-1.398-1.145c-4.607-6.722-14.577-10.09-22.377-10.09c-3.896,0-8.056,1.953-10.663,4.874
			c-2.634,2.95-3.528,6.899-3.74,11.589c-0.091,2.042-0.329,7.786-3.338,7.7c1.469,1.124,3.395,1.492,3.956,0.002
			c0,7.626,9.148,19.997,12.528,22.025c2.306,1.384,4.959,1.891,7.625,1.644c4.756-0.438,9.642-3.394,12.031-8.649
			c0.98-2.153,1.912-4.332,2.729-6.553c0.732-1.99,0.87-4.43,2.034-6.194c1.165,1.251,3.798,1.23,4.638,0.392
			C52.571,39.711,51.665,37.886,51.852,36.813z"/>
		<path style="clip-path:url(#SVGID_2_);fill:#4CB5CF;" d="M40.089,62.858c0.264,0.945,0.981,1.699,1.548,2.455
			c1.588-1.752,2.327-3.842,2.827-5.984c0.259-1.109,0.925-2.066,1.038-3.228c1.299,0.214,2.787-0.734,3.503-1.774
			c-2.297-0.197-2.271-2.126-1.328-3.685c1.175-1.938,2.924-3.848,3.37-6.121c0.254-1.299,0.112-2.452-0.362-3.677
			c-0.672-1.731-0.398-3.495-0.416-5.308c-0.206,0.507-1.366,3.876-1.143,4.289c-0.345-0.634-0.553-1.485-0.812-2.137
			c0.374,2.338-0.204,7.444-3.412,9.303c-1.244,0.721-0.094,2.771-1.122,3.749c-0.421,0.397-1.001,0.536-1.359,1.03
			c-0.705,0.972-0.784,2.019-0.473,3.125c-1.776-0.025-1.574-1.29-1.933-2.538c0.166,0.58-0.644,2.268-1.139,2.584
			c-0.969,0.622-2.511,0.149-3.524-0.023c-3.017-0.513-5.362-0.069-8.273,0.116c-1.315,0.083-3.083-0.841-3.955-2.147
			c-0.095,0.607-0.042,1.619-0.296,2.117c-4.15-2.039-1.332-6.745-3.624-9.512c0.014,0.679-1.051,1.995-1.872,2.131
			c-0.807-1.245-1.345-4.168-2.221-6.472c-0.772,3.602-2.444-2.824-1.803-6.179c-1.727,2.996-1.382,7.094-0.477,8.646
			c1.066,1.833,1.859,3.628,2.215,5.146c0.754,3.229-2.257,8.598,2.486,9.686c-0.866-1.258,0.062-2.33-0.129-3.545
			c2.578,2.26,0.549,6.232,3.309,10.649c2.338-0.584,3.42-2.11,4.234-3.263c0.211,1.462,1.001,2.769,1.747,3.705h11.614
			C39.121,65.174,39.74,64.118,40.089,62.858z"/>
		<path style="opacity:0.15;clip-path:url(#SVGID_2_);fill:#00315E;" d="M39.437,60.669c1.145-0.606,4.855,1.826,4.465-0.019
			c-0.243-1.142-2.14-0.86-2.394-1.999c-0.255-1.15-0.322-2.077-1.059-3.099c-0.691-0.958-1.858-1.981-1.637-3.298
			c0.142-0.836,1.802-1.658,1.757-2.152c0.063,0.688,0.85,1.138,0.814,1.882c1.588-1.638,1.203-3.827,2.468-5.532
			c0.867-1.168,2.205-2.011,2.836-3.34c0.793-1.673-0.209-3.656,0.165-5.435c0.436-2.071,1.958-6.632,0.152-8.343
			c-1.185-1.121-2.641-0.598-4.042-0.682c-1.563-0.093-3.456-0.736-4.829-1.465c-2.642-1.399-4.714-3.752-7.142-5.468
			c-3.1-2.188-9.98-5.369-12.957-0.232c-1.529,2.64-1.179,6.218-1.405,7.384c-0.478,2.454-2.57,3.97-2.786,6.498
			c-0.153,1.775,0.71,3.26,1.795,4.586c0.479,0.584,1.27,1.188,1.568,1.879c0.328,0.759,0.09,1.447,0.816,2.081
			c0.621,0.54,1.475,0.582,2.155,1.002c0.665,0.409,0.765,0.848,1.053,1.51c0.353,0.807,0.756,1.473,0.876,2.365
			c0.038,0.297,0.149,2.292-0.272,2.394c0.497-0.119,1.002-0.073,1.442-0.379c0.512-0.357,0.896-1.062,1.344-1.504
			c0.271,0.848,0.593,1.429,0.729,2.08c0.444,2.126-0.803,3.813-2.239,5c-0.475,0.392-1.698,1.95-1.36,2.453
			c0.071,0.104,0.487,0.541,0.487,0.541s-0.479,3.432-0.389,3.91c0.138,0.72,1.357,0.735,2.068,1.126
			c0.68,0.373,1.975-1.512,2.265-1.344c0.352,0.203,0.373,1.597,1.297,2.929h9.42C38.63,64.529,38.625,61.098,39.437,60.669z"/>
		<path style="clip-path:url(#SVGID_2_);fill:#FFBC82;" d="M37.645,53.235l-0.184,3.851c0.551,0.622,12.286,10.97,17.398-2.568
			l-2.908-1.11C47.773,62.729,40.159,54.184,37.645,53.235z"/>
		<path style="clip-path:url(#SVGID_2_);fill:#FFBC82;" d="M56.042,49.942c0.391-0.932-0.563-1.672-1.206-0.471
			c0.008-0.232,0.115-0.712-0.054-0.902c-0.619-0.699-1.146,0.631-1.276,1.058c-0.127,0.425-0.396,1.18-0.775,1.399
			c-0.074-0.397-0.824,0.038-0.921,0.384c-0.161,0.581-0.175,1.317,0.266,2.302c0.063,0.905,1.276,2.531,2.149,1.525
			c0.452-0.522,0.703-0.78,1.159-1.336c0.589-0.717,1.396-2.414,1.765-3.283C57.476,49.847,56.834,49.035,56.042,49.942z"/>
		<path style="clip-path:url(#SVGID_2_);fill:#E68C5E;" d="M53.219,50.393c-0.231,0.714,3.078,2.022,3.411,1.362
			C57.207,50.604,53.449,49.678,53.219,50.393z"/>
		<path style="clip-path:url(#SVGID_2_);fill:#FFBC82;" d="M28.392,57.37c1.195-1.004-0.197-4.602-1.812-3.73
			c-3.17,1.71-4.236,7.536-5.347,12.359h3.552C25.627,62.53,26.6,58.877,28.392,57.37z"/>
		<linearGradient id="SVGID_3_" gradientUnits="userSpaceOnUse" x1="32.7056" y1="49.8271" x2="32.7056" y2="56.2247">
			<stop  offset="0" style="stop-color:#EE996D"/>
			<stop  offset="0.2968" style="stop-color:#F6A977"/>
			<stop  offset="0.6732" style="stop-color:#FDB77F"/>
			<stop  offset="1" style="stop-color:#FFBC82"/>
		</linearGradient>
		<path style="clip-path:url(#SVGID_2_);fill:url(#SVGID_3_);" d="M36.001,52.166c-2.091-0.914-0.684-3.411-3.422-3.411
			c-2.702,0-1.481,2.817-3.44,3.559c-4.558,1.724-4.521,4.363-1.828,7.06c2.702,2.697,7.441,3.092,11.143-0.259
			C42.148,55.764,38.085,53.079,36.001,52.166z"/>
		<path style="clip-path:url(#SVGID_2_);fill:#85B428;" d="M38.31,61.488c1.921-4.306-0.096-6.579-1.105-8.884
			c-0.182-0.152-1.04-0.54-1.231-0.566c0.375,1.688,0.955,5.793-3.268,5.793c-4.265,0-3.853-3.398-3.543-5.673
			c-0.273-0.013-0.675,0.179-0.933,0.424c-1.188,3.626-3.184,4.649-1.35,9.025c0.524,1.259,1.306,3.025,1.027,4.392h9.138
			C36.919,64.328,37.636,62.993,38.31,61.488z"/>
		<path style="opacity:0.1;clip-path:url(#SVGID_2_);" d="M28.733,62.202c0.432,0.716,1.726,0.709,2.743,0.898
			c-0.176,0.023-0.35,0.093-0.531,0.121c1.219,0.336,2.924,0.078,4.143-0.276c0.383-0.117,1.428-0.762,1.635-0.785
			c-1.438,0.163-2.777,0.28-4.23,0.252C31.211,62.387,29.977,62.222,28.733,62.202z"/>
		<path style="clip-path:url(#SVGID_2_);fill:#588A17;" d="M35.645,51.59c-0.248,0.056-0.403,0.301-0.348,0.549
			c0.192,0.862,0.705,3.15-0.265,4.36c-0.463,0.58-1.246,0.872-2.327,0.872c-1.183,0-2.023-0.277-2.503-0.827
			c-0.817-0.938-0.583-2.639-0.396-4.004l0.039-0.284c0.033-0.251-0.143-0.483-0.394-0.517c-0.246-0.031-0.482,0.143-0.517,0.394
			l-0.039,0.281c-0.214,1.551-0.479,3.479,0.613,4.734c0.661,0.757,1.736,1.143,3.195,1.143c1.373,0,2.397-0.41,3.044-1.217
			c1.246-1.556,0.663-4.157,0.444-5.137C36.139,51.69,35.896,51.53,35.645,51.59z"/>
		<path style="clip-path:url(#SVGID_2_);fill:#588A17;" d="M28.05,52.418c-0.24-0.074-0.502,0.053-0.58,0.293
			c-0.292,0.893-0.594,1.594-0.86,2.213c-0.479,1.113-0.857,1.992-0.922,3.294c-0.012,0.253,0.183,0.469,0.436,0.481
			c0.009,0,0.017,0.001,0.023,0.001c0.243,0,0.446-0.191,0.459-0.437c0.056-1.137,0.389-1.908,0.848-2.977
			c0.274-0.637,0.586-1.358,0.891-2.289C28.423,52.756,28.291,52.497,28.05,52.418z"/>
		<path style="clip-path:url(#SVGID_2_);fill:#588A17;" d="M37.784,52.711c-0.08-0.24-0.339-0.369-0.58-0.293
			c-0.241,0.08-0.373,0.339-0.294,0.58c0.306,0.93,0.617,1.65,0.892,2.287c0.46,1.069,0.794,1.842,0.851,2.979
			c0.013,0.246,0.215,0.437,0.459,0.437c0.007,0,0.015-0.001,0.022-0.001c0.254-0.013,0.449-0.229,0.437-0.481
			c-0.066-1.303-0.445-2.183-0.925-3.297C38.378,54.303,38.076,53.602,37.784,52.711z"/>
		<path style="clip-path:url(#SVGID_2_);fill:#ACD14B;" d="M35.652,58.02c-2.076,0.708-4.599,0.424-6.725-0.081
			c-1.221-0.287-1.912,1.047-1.544,2.176c0.495,1.503,3.032,1.887,5.243,1.845c4.359-0.08,6-1.639,5.268-3.486
			C37.7,57.976,36.768,57.64,35.652,58.02z"/>
		<circle style="clip-path:url(#SVGID_2_);fill:#FF3B3B;" cx="32.69" cy="54.362" r="0.881"/>
		<path style="clip-path:url(#SVGID_2_);fill:#FF3B3B;" d="M34.689,53.026c-0.426,0-0.777,0.352-0.777,0.776
			c0,0.431,0.352,0.777,0.777,0.777c0.431,0,0.775-0.347,0.775-0.777C35.465,53.378,35.12,53.026,34.689,53.026z"/>
		<path style="clip-path:url(#SVGID_2_);fill:#FF3B3B;" d="M35.75,51.901c-0.354,0-0.635,0.281-0.635,0.633
			c0,0.35,0.28,0.636,0.635,0.636c0.347,0,0.629-0.286,0.629-0.636C36.379,52.183,36.097,51.901,35.75,51.901z"/>
		<path style="clip-path:url(#SVGID_2_);fill:#FF3B3B;" d="M35.844,51.049c-0.254,0-0.452,0.199-0.452,0.447
			c0,0.252,0.198,0.451,0.452,0.451c0.247,0,0.448-0.199,0.448-0.451C36.292,51.248,36.091,51.049,35.844,51.049z"/>
		<path style="clip-path:url(#SVGID_2_);fill:#FF3B3B;" d="M30.688,53.026c-0.424,0-0.774,0.352-0.774,0.776
			c0,0.431,0.351,0.777,0.774,0.777c0.434,0,0.777-0.347,0.777-0.777C31.465,53.378,31.121,53.026,30.688,53.026z"/>
		<path style="clip-path:url(#SVGID_2_);fill:#FF3B3B;" d="M29.635,51.901c-0.348,0-0.637,0.281-0.637,0.633
			c0,0.35,0.289,0.636,0.637,0.636c0.349,0,0.635-0.286,0.635-0.636C30.27,52.183,29.983,51.901,29.635,51.901z"/>
		<path style="clip-path:url(#SVGID_2_);fill:#FF3B3B;" d="M29.539,51.049c-0.246,0-0.451,0.199-0.451,0.447
			c0,0.252,0.205,0.451,0.451,0.451c0.247,0,0.448-0.199,0.448-0.451C29.987,51.248,29.786,51.049,29.539,51.049z"/>
		<path style="clip-path:url(#SVGID_2_);fill:#FFF9F0;" d="M45.47,39.149c-2.488,0.079-4.487,2.438-4.458,5.263
			c0.028,2.831,2.073,5.057,4.563,4.976c2.495-0.078,4.49-2.436,4.464-5.264C50.009,41.299,47.966,39.071,45.47,39.149z
			 M45.441,47.56c-1.806,0.061-3.287-1.555-3.309-3.606c-0.021-2.047,1.428-3.759,3.231-3.815c1.81-0.057,3.291,1.559,3.312,3.606
			C48.695,45.794,47.25,47.504,45.441,47.56z"/>
		<path style="clip-path:url(#SVGID_2_);fill:#FFBC82;" d="M31.896,15.462c-11.74,0.085-16.826,7.541-13.354,17.808
			c0.478,10.476,8.078,18.825,16.313,17.911c6.826-0.76,12.64-9.264,11.351-20.734C45.051,20.173,39.708,15.406,31.896,15.462z"/>
		<path style="clip-path:url(#SVGID_2_);fill:#CD9D76;" d="M23.385,20.474c-0.868-0.91-1.875-1.907-3.013-0.975
			c-1.031,0.849-4.289,4.203-2.5,11.909c0.62-0.094,0.941,0.76,2.166,0.235c-0.441-6.397,2.362-8.177,4.457-8.912
			C26.015,22.196,24.523,21.666,23.385,20.474z"/>
		<path style="clip-path:url(#SVGID_2_);fill:#FFBC82;" d="M16.533,31.612c-3.384,1.548-1.811,7.364,1.024,8.224
			c0.91,0.275,1.862,0.213,2.777,0.023c0.018-0.037,0.033-0.073,0.051-0.109c0.385-0.829-0.482-4.723-0.719-5.518
			C19.071,32.228,18.158,30.87,16.533,31.612z"/>
		<path style="opacity:0.3;clip-path:url(#SVGID_2_);fill:#C94614;" d="M18.278,33.721c-0.855-0.459-3.081,0.146-2.145,1.937
			c0.628-1.571,1.539-0.463,1.331,0.667c-0.14,0.759-0.954,0.721-0.196,1.75c0.409,0.556,1.305,0.411,1.767,0.154
			C20.502,37.41,19.32,34.281,18.278,33.721z"/>
		<path style="opacity:0.2;clip-path:url(#SVGID_2_);fill:#BF3C1B;" d="M31.369,18.196c-0.58-0.113-1.283-0.261-2.05-0.396
			c-2.669-0.475-7.423-3.366-8.949-1.568c-2.613,3.079,2.888,8.2,4.771,8.989c2.011,0.842,3.288,0.547,5.351,0.28
			c3.782-0.49,7.057,3.303,10.413,4.782c2,0.883,7.268,2.328,6.354-1.768C45.541,20.825,37.986,19.5,31.369,18.196z"/>
		<path style="clip-path:url(#SVGID_2_);fill:#FF697C;" d="M50.047,18.642c0.396,0.012,0.781,0.106,1.152,0.248
			c-0.44-1.055-1.062-1.954-1.793-2.84c-3.042-3.682-8.487-4.982-12.975-5.13c0.304-0.025,0.989-0.229,1.466-0.3
			c-1.801-0.881-4.266-1.229-6.29-1.032c-4.315,0.421-14.966,3.902-10.937,10.15c0.423,0.655,2.696,2.976,4.571,4.131
			c2.165,1.333,3.869,0.697,6.197,0.489c2.06-0.182,3.805,0.668,5.427,1.836c2.732,1.961,6.296,4.115,9.493,5.235
			c2.405,0.843,7.129,0.882,9.608,0.337c-1.411-2.087-2.025-5.223-2.964-7.644C52.746,23.456,50.451,18.653,50.047,18.642z"/>
		<path style="clip-path:url(#SVGID_2_);fill:#FFF9F0;" d="M19.993,39.149c-2.488,0.079-4.488,2.438-4.459,5.263
			c0.028,2.831,2.073,5.057,4.563,4.976c2.494-0.078,4.489-2.436,4.462-5.264C24.532,41.299,22.489,39.071,19.993,39.149z
			 M19.964,47.56c-1.805,0.061-3.288-1.555-3.308-3.606c-0.021-2.047,1.428-3.759,3.231-3.815c1.81-0.057,3.291,1.559,3.311,3.606
			C23.219,45.794,21.773,47.504,19.964,47.56z"/>
		<path style="clip-path:url(#SVGID_2_);fill:#FA9769;" d="M45.211,37.309c-0.399-0.748-1.406-0.953-2.138-1.006
			c-0.951-0.067-2.259,0.213-1.563,1.683c0.372,0.785,4.109,1.576,3.854-0.193C45.34,37.609,45.285,37.449,45.211,37.309z"/>
		<path style="clip-path:url(#SVGID_2_);fill:#FA9769;" d="M26.927,37.183c-0.565-0.774-1.708-0.78-2.52-0.672
			c-1.06,0.143-2.449,0.77-1.435,2.313c0.541,0.823,4.785,0.877,4.207-1.116C27.119,37.502,27.033,37.329,26.927,37.183z"/>
		<path style="clip-path:url(#SVGID_2_);fill:#121B21;" d="M39.818,29.604c2.081,0.197,3.819-0.419,6.939-0.158
			C45.613,28.011,41.377,27.98,39.818,29.604z"/>
		<path style="opacity:0.3;clip-path:url(#SVGID_2_);fill:#C94614;" d="M35.194,37.979c-0.707,0.008-0.989-0.288-1.485-0.018
			c-0.494,0.273,0.583,1.236,1.459,1.163c0.99-0.08,1.805-0.896,1.542-1.191C36.406,37.588,35.983,37.969,35.194,37.979z"/>
		<path style="clip-path:url(#SVGID_2_);fill:#121B21;" d="M21.268,29.158c3.9,0.094,5.216,0.266,7.924,0.196
			C27.769,27.526,22.987,27.652,21.268,29.158z"/>
		<path style="clip-path:url(#SVGID_2_);fill:#FA5E46;" d="M38.528,40.775c-1.88-0.4-4.167,0.962-5.188,2.746
			c-0.65,1.138,0.583,4.071,2.581,4.145C38.976,47.777,41.592,41.43,38.528,40.775z"/>
		<path style="clip-path:url(#SVGID_2_);fill:#C22C25;" d="M38.261,41.862c-0.943-0.117-1.495,0.369-2.117,0.996
			c-0.384,0.388-0.974,1.082-1.547,1.129c0.664,0.635,0.768,1.276,1.216,2.027c0.532,0.89,1.508,1.007,2.061,0.209
			C38.406,45.455,40.434,42.133,38.261,41.862z"/>
		<path style="clip-path:url(#SVGID_2_);fill:#4A271B;" d="M25.856,31.146c-2.054-0.771-3.104,3.011-1.67,4.135
			c0.626-0.234,1.383-0.211,1.993,0.051C27.481,34.521,27.384,31.722,25.856,31.146z"/>
		<path style="clip-path:url(#SVGID_2_);fill:#C7A295;" d="M24.835,32.056c-0.851,0.129-0.532,1.869,0.353,1.43
			C25.828,33.167,25.591,31.942,24.835,32.056z"/>
		<path style="clip-path:url(#SVGID_2_);fill:#4A271B;" d="M43.931,31.187c-2.063-1.315-3.874,3.507-1.581,4.199
			c0.554-0.381,1.22-0.383,1.81-0.291C44.948,34.069,45.034,31.891,43.931,31.187z"/>
		<path style="clip-path:url(#SVGID_2_);fill:#C7A295;" d="M42.469,31.87c-0.814,0.021-0.697,1.828,0.182,1.496
			C43.286,33.128,43.19,31.854,42.469,31.87z"/>
		<path style="clip-path:url(#SVGID_2_);fill:#121B21;" d="M43.986,31.083c-1.888-0.726-2.508,1.515-2.508,1.515
			s0.916-1.13,2.203-0.413c2.92,1.627,4.8-0.352,4.8-0.352C46.168,32.61,45.001,31.475,43.986,31.083z"/>
		<path style="clip-path:url(#SVGID_2_);fill:#121B21;" d="M24.481,31.249c-0.756,0.384-2.508,1.535-4.835,0.857
			c0,0,2.218,1.927,5.029,0.185c1.234-0.764,2.291,0.176,2.291,0.176S26.451,30.246,24.481,31.249z"/>
		<path style="clip-path:url(#SVGID_2_);fill:#FFA6B1;" d="M37.53,15.802c3.332-1.072,7.354-0.154,10.581,0.858
			c-5.525-3.821-12.057-5.234-18.628-3.318c0.012-0.012,0.095-0.15,0.068-0.159c1.429-0.875,3.093-0.832,4.592-1.497
			c-3.019-0.336-6.872-0.167-9.508,1.393c-2.666,1.574-2.731,3.967-0.039,5.467c1.044,0.58,2.465,1.175,3.684,1.146
			c0.089-0.002,2.326-0.2,1.893-0.794c1.631,2.233,4.274,2.736,6.722,3.599c-0.129-0.381-0.115-0.861-0.336-1.243
			c4.831,3.754,9.914,6.686,16.195,6.469c-0.307-0.823-0.748-1.466-1.174-2.198C48.725,20.591,43.544,16.079,37.53,15.802z"/>
		<path style="clip-path:url(#SVGID_2_);fill:#FFCD29;" d="M50.68,46.188l-11.894-4.21c-1.098-0.385-2.37,0.396-2.843,1.745
			c-0.473,1.348,0.033,2.752,1.13,3.137l11.894,4.208c1.097,0.386,2.369-0.396,2.842-1.743
			C52.281,47.977,51.776,46.573,50.68,46.188z"/>
		<path style="clip-path:url(#SVGID_2_);fill:#FFA514;" d="M49.438,50.824c0.988,0.481,2.777-1.447,2.121-3.474
			C51.028,45.711,48.447,50.342,49.438,50.824z"/>
		<polygon style="clip-path:url(#SVGID_2_);fill:#F2ECE4;" points="50.436,49.556 58.74,52.505 59.232,51.251 50.927,48.301 		"/>
		<path style="clip-path:url(#SVGID_2_);fill:#FFBC82;" d="M51.539,49.444c-0.169,0.309,0.237,0.982,0.308,1.294
			c0.113,0.497-0.379,1.311,0.079,1.758c0.37,0.359,0.781,0.063,1.021-0.298c0.44-0.664,0.501-1.975-0.142-2.536
			C52.5,49.396,51.805,48.959,51.539,49.444z"/>
		<path style="clip-path:url(#SVGID_2_);fill:#FFA514;" d="M43.524,49.143l2.489,0.882c0.817-3.808,3.146-4.375,3.146-4.375
			l-2.482-0.878C43.552,45.711,43.524,49.143,43.524,49.143z"/>
		<path style="clip-path:url(#SVGID_2_);fill:#FF5773;" d="M41.034,48.263l2.49,0.88c0.818-3.807,3.146-4.374,3.146-4.374
			l-2.482-0.878C41.062,44.83,41.034,48.263,41.034,48.263z"/>
		<path style="clip-path:url(#SVGID_2_);fill:#FFA514;" d="M38.545,47.383l2.489,0.88c0.818-3.808,3.146-4.375,3.146-4.375
			l-2.483-0.877C38.572,43.948,38.545,47.383,38.545,47.383z"/>
		<path style="clip-path:url(#SVGID_2_);fill:#FF5773;" d="M36.098,46.032c0.224,0.385,0.557,0.682,0.976,0.828l1.472,0.522
			c0.817-3.809,3.146-4.375,3.146-4.375l-2.482-0.879C36.797,42.854,36.23,45.06,36.098,46.032z"/>
		<path style="opacity:0.6;clip-path:url(#SVGID_2_);fill:#FFFFFF;" d="M36.638,44.277c0.45,0.164,12.425,4.339,12.425,4.339
			s0.476-1.337,1.525-1.932l-12.665-4.246C36.969,42.559,36.235,44.129,36.638,44.277z"/>
	</g>
</g>
<g id="Layer_1">
</g>
</svg>
