<?xml version="1.0" encoding="iso-8859-1"?>
<!-- Generator: Adobe Illustrator 16.0.0, SVG Export Plug-In . SVG Version: 6.00 Build 0)  -->
<!DOCTYPE svg PUBLIC "-//W3C//DTD SVG 1.1//EN" "http://www.w3.org/Graphics/SVG/1.1/DTD/svg11.dtd">
<svg version="1.1" xmlns="http://www.w3.org/2000/svg" xmlns:xlink="http://www.w3.org/1999/xlink" x="0px" y="0px"
	 width="66.012px" height="66px" viewBox="0 0 66.012 66" style="enable-background:new 0 0 66.012 66;" xml:space="preserve">
<g id="Layer_15">
	<g>
		<defs>
			<circle id="SVGID_1_" cx="33.012" cy="33" r="33"/>
		</defs>
		<clipPath id="SVGID_2_">
			<use xlink:href="#SVGID_1_"  style="overflow:visible;"/>
		</clipPath>
		<rect style="clip-path:url(#SVGID_2_);fill:#7997A0;" width="66" height="65.999"/>
		<path style="clip-path:url(#SVGID_2_);fill:#FAA665;" d="M42.364,54.646c-0.834-0.333-0.664,5.425,1.032,6.302
			c1.1,0.567,1.542,3.152,1.473,5.051h4.728C50.093,60.822,46.669,56.365,42.364,54.646z"/>
		<path style="clip-path:url(#SVGID_2_);fill:#FAA665;" d="M42.472,54.644c-0.821-0.508-1.672-0.895-2.924-1.165
			c-1.633-0.355-3.521-2.136-5.448-2.11c-1.99,0.026-3.869,1.601-5.654,2.18c-1.029,0.334-2.215,0.764-3.016,1.099
			c-2.693,1.126-2.558,6.294-1.673,11.353H44.1C44.982,61.346,45.207,56.331,42.472,54.644z"/>
		<path style="opacity:0.5;clip-path:url(#SVGID_2_);fill:#F28B50;" d="M34.018,51.326c-1.206,0.016-2.565,0.324-3.498,1.188
			c-4.738,4.382,11.412,5.414,8.124,0.4C37.837,51.681,35.563,51.306,34.018,51.326z"/>
		<path style="clip-path:url(#SVGID_2_);fill:#F28B50;" d="M25.484,64.659c0.529,0.957,3.276,0.943,2.359-0.593
			C27.375,63.282,24.548,62.962,25.484,64.659z"/>
		<path style="clip-path:url(#SVGID_2_);fill:#F28B50;" d="M39.736,63.754c-0.992,1.488,1.751,1.638,2.328,0.707
			C43.084,62.814,40.244,62.994,39.736,63.754z"/>
		<path style="clip-path:url(#SVGID_2_);fill:#4F2C1E;" d="M47.535,21.204c0.387-8.734-7.052-14.518-19.226-12.62
			C7.042,11.9,12.879,41.325,18.881,39.577c4.435-1.293,8.771-2.91,13.154-4.362c4.083-1.354,8.758-0.907,13.037-0.944
			c3.351-0.027,3.191-1.435,3.149-4.149C48.145,25.063,47.446,23.256,47.535,21.204z"/>
		<path style="clip-path:url(#SVGID_2_);fill:#FAA665;" d="M29.528,14.845c-7.745,2.13-12.423,13.855-10.173,24.349
			c1.685,7.86,8.475,16.109,17.652,14.75c9.362-1.387,13.159-13.421,11.198-23.097C46.076,20.33,40.375,11.859,29.528,14.845z"/>
		<path style="clip-path:url(#SVGID_2_);fill:#F28B50;" d="M24.665,34.71c0.097,0.631,1.52,0.207,1.96,0.275
			c-0.346,0.424-1.477,0.515-1.916,0.82c-0.471,0.325-0.402,0.513,0.182,0.451c0.352-0.038,2.277-0.656,2.513-0.891
			C28.396,34.378,25.15,34.535,24.665,34.71z"/>
		<path style="clip-path:url(#SVGID_2_);fill:#F28B50;" d="M46.976,33.431c-0.382-0.243-1.33-0.187-1.639-0.561
			c0.366-0.123,1.572,0.11,1.625-0.524c-0.413-0.108-3.13,0.156-2.257,1.001c0.207,0.201,1.844,0.561,2.138,0.552
			C47.333,33.883,47.384,33.689,46.976,33.431z"/>
		<path style="clip-path:url(#SVGID_2_);fill:#121B21;" d="M28.327,31.664c-2.092-0.717-3.092,2.975-1.622,4.042
			c0.631-0.236,1.396-0.225,2.021,0.02C30.03,34.918,29.885,32.2,28.327,31.664z"/>
		<path style="clip-path:url(#SVGID_2_);fill:#F28B50;" d="M36.836,37.507c-1.103,0.084-1.597-0.289-2.318,0.128
			c-0.723,0.417,0.446,1.851,2.393,1.665c1.939-0.182,2.74-1.636,2.277-2.007C38.651,36.861,38.061,37.416,36.836,37.507z"/>
		<path style="clip-path:url(#SVGID_2_);fill:#F58245;" d="M35.835,31.915c-0.958,0.097-0.996,2.498-1.256,3.642
			c-0.267,1.163-0.427,2.231,0.106,2.541c1.307,0.762,3.855,0.124,4.559-0.538c0.277-0.26-0.498-1.393-1.127-2.53
			C37.559,34.02,36.917,31.804,35.835,31.915z"/>
		<path style="clip-path:url(#SVGID_2_);fill:#121B21;" d="M44.611,30.264c-2.164-0.942-3.432,3.584-1.097,3.952
			c0.481-0.413,1.13-0.666,1.724-0.647C45.93,32.579,45.771,30.77,44.611,30.264z"/>
		<path style="clip-path:url(#SVGID_2_);fill:#7D8BA8;" d="M27.603,33.707c-0.801,0.343-0.054,1.893,0.704,1.25
			C28.854,34.493,28.314,33.403,27.603,33.707z"/>
		<path style="clip-path:url(#SVGID_2_);fill:#7D8BA8;" d="M43.999,31.95c-0.771,0.258-0.19,1.755,0.561,1.215
			C45.104,32.775,44.683,31.722,43.999,31.95z"/>
		<path style="clip-path:url(#SVGID_2_);fill:#FAA665;" d="M16.275,34.985c-3.78,1.357-1.801,6.873,1.438,7.766
			c1.039,0.285,2.116,0.254,3.145,0.102c0.018-0.033,0.035-0.065,0.055-0.1c0.406-0.769-0.705-4.456-1.001-5.212
			C19.17,35.638,18.091,34.334,16.275,34.985z"/>
		<path style="opacity:0.3;clip-path:url(#SVGID_2_);fill:#BF3C1B;" d="M42.497,17.186c-4.426-1.384-7.658-2.487-12.36-2.214
			c-3.144,0.184-7.845,0.356-10.18,2.849c-1.873,1.999-1.76,5.455-1.684,8.002c0.029,0.967,0.604,8.354,1.044,6.712
			c0.797-2.977,3.07-4.256,2.761-7.291c4.692,1.674,11.495,0.97,17.377-0.084c3.692-0.662,6.611-1.819,7.594,1.221
			C46.803,23.524,45.56,18.143,42.497,17.186z"/>
		<path style="clip-path:url(#SVGID_2_);fill:#F28B50;" d="M17.789,36.956c-0.898-0.333-3.009,0.551-1.862,2.171
			c0.418-1.614,1.453-0.656,1.393,0.473c-0.04,0.757-0.846,0.828,0.027,1.729c0.472,0.487,1.333,0.23,1.756-0.084
			C20.438,40.253,18.884,37.364,17.789,36.956z"/>
		<path style="clip-path:url(#SVGID_2_);fill:#4F2C1E;" d="M50.415,8.922c-4.703,4.439-13.581-3.794-24.747,0.557
			c-15.271,5.948-8.097,22.021-7.862,24.013c0.199,1.713,1.361,3.745,1.964,4.418c0.441,0.178,1.377,0.108,2.11-0.146
			c-3.685-4.67,0.608-10.028,0.198-12.52c1.469,1.137,10.67,0.812,22.749-2.75c3.938-1.162,6.089-3.754,7.175-5.765
			c-1.021,0.117-1.753,0.328-2.975,0.588C50.671,15.3,50.602,11.614,50.415,8.922z"/>
		<path style="clip-path:url(#SVGID_2_);fill:#4F2C1E;" d="M43.024,26.737c-1.514-0.056-2.641-0.225-2.647-0.17
			c-0.02,0.857,0.294,2.626,1.439,2.538c0.686-0.053,1.393-0.227,2.071-0.22c1.212,0.012,2.111,0.319,2.529,0.471
			c0.517,0.185,0.655-0.572,0.458-0.787C46.131,27.758,45.199,26.813,43.024,26.737z"/>
		<path style="clip-path:url(#SVGID_2_);fill:#4F2C1E;" d="M27.68,28.006c-2.267,0.671-2.951,1.835-3.48,2.82
			c-0.141,0.261,0.243,0.95,0.729,0.631c0.392-0.261,1.244-0.803,2.515-1.146c0.714-0.191,1.513-0.221,2.251-0.356
			c1.233-0.229,1.01-2.018,0.722-2.836C30.39,27.066,29.257,27.54,27.68,28.006z"/>
		<path style="clip-path:url(#SVGID_2_);fill:#F58245;" d="M47.313,35.57c-0.792-0.744-2.125-0.645-3.055-0.456
			c-1.21,0.245-2.727,1.021-1.28,2.518c0.771,0.797,5.735,0.453,4.72-1.546C47.592,35.882,47.463,35.71,47.313,35.57z"/>
		<path style="clip-path:url(#SVGID_2_);fill:#F58245;" d="M29.184,37.239c-0.806-0.808-2.207-0.748-3.188-0.581
			c-1.279,0.215-2.895,0.979-1.427,2.595c0.782,0.86,5.998,0.669,5.001-1.461C29.466,37.574,29.335,37.391,29.184,37.239z"/>
		<path style="clip-path:url(#SVGID_2_);fill:#693A27;" d="M37.453,9.558C31.72,8.435,23.14,8.97,19.114,13.911
			c-4.026,4.94,0.083,8.608,15.035,7.212C47.798,19.848,49.854,9.976,49.854,9.976C45.928,12.237,43.186,10.681,37.453,9.558z"/>
		<path style="clip-path:url(#SVGID_2_);fill:#C26346;" d="M44.766,39.401c-0.348-0.068-0.686,0.155-0.757,0.506
			c-0.592,2.935-3.392,5.278-6.97,5.832c-3.716,0.574-6.986-0.981-8.751-4.167c-0.172-0.311-0.564-0.424-0.874-0.251
			s-0.425,0.563-0.252,0.873c2.037,3.679,5.802,5.479,10.074,4.815c0.111-0.016,0.223-0.034,0.332-0.056
			c3.951-0.729,7.024-3.426,7.702-6.793C45.341,39.813,45.116,39.473,44.766,39.401z"/>
		<path style="clip-path:url(#SVGID_2_);fill:#FAA665;" d="M24.397,60.948c1.696-0.877,1.866-6.635,1.032-6.302
			c-4.305,1.719-7.729,6.176-7.232,11.353h4.728C22.855,64.101,23.298,61.516,24.397,60.948z"/>
	</g>
</g>
<g id="Layer_1">
</g>
</svg>
