<?xml version="1.0" encoding="iso-8859-1"?>
<!-- Generator: Adobe Illustrator 16.0.0, SVG Export Plug-In . SVG Version: 6.00 Build 0)  -->
<!DOCTYPE svg PUBLIC "-//W3C//DTD SVG 1.1//EN" "http://www.w3.org/Graphics/SVG/1.1/DTD/svg11.dtd">
<svg version="1.1" xmlns="http://www.w3.org/2000/svg" xmlns:xlink="http://www.w3.org/1999/xlink" x="0px" y="0px" width="66px"
	 height="66px" viewBox="0 0 66 66" style="enable-background:new 0 0 66 66;" xml:space="preserve">
<g id="Layer_103">
	<g>
		<defs>
			<circle id="SVGID_1_" cx="33" cy="33" r="33"/>
		</defs>
		<clipPath id="SVGID_2_">
			<use xlink:href="#SVGID_1_"  style="overflow:visible;"/>
		</clipPath>
		<rect style="clip-path:url(#SVGID_2_);fill:#C3B1BF;" width="66" height="65.998"/>
		<path style="clip-path:url(#SVGID_2_);fill:#FEC391;" d="M32.42,58.234c0.849-0.103,1.455-0.887,1.355-1.751
			c-0.101-0.866-0.876-1.482-1.72-1.381c-3.537,0.427-4.19,3.647-4.716,6.235c-0.358,1.769-0.729,3.596-1.859,4.637
			c-0.008,0.007-0.014,0.016-0.021,0.023h3.75c0.604-1.298,0.896-2.712,1.162-4.021C30.935,59.2,31.271,58.374,32.42,58.234z"/>
		<path style="clip-path:url(#SVGID_2_);fill:#FEC391;" d="M45.061,61.338c-0.525-2.588-1.179-5.809-4.717-6.235
			c-0.844-0.102-1.618,0.515-1.719,1.381c-0.101,0.864,0.506,1.648,1.355,1.751c1.148,0.14,1.485,0.966,2.049,3.742
			c0.266,1.31,0.557,2.724,1.162,4.021h3.749c-0.008-0.008-0.013-0.017-0.021-0.023C45.789,64.934,45.419,63.106,45.061,61.338z"/>
		<linearGradient id="SVGID_3_" gradientUnits="userSpaceOnUse" x1="36.2021" y1="51.8447" x2="36.2021" y2="56.5378">
			<stop  offset="0" style="stop-color:#EE996D"/>
			<stop  offset="0.0163" style="stop-color:#EE9A6E"/>
			<stop  offset="0.3731" style="stop-color:#F8B181"/>
			<stop  offset="0.7088" style="stop-color:#FDBF8D"/>
			<stop  offset="1" style="stop-color:#FFC491"/>
		</linearGradient>
		<path style="clip-path:url(#SVGID_2_);fill:url(#SVGID_3_);" d="M39.479,54.173c-2.078-0.909-0.678-3.395-3.404-3.395
			c-2.684,0-1.474,2.802-3.422,3.538c-4.533,1.712-4.498,4.34-1.814,7.022c2.684,2.685,7.4,3.073,11.079-0.26
			C45.596,57.748,41.556,55.081,39.479,54.173z"/>
		<path style="clip-path:url(#SVGID_2_);fill:#E0E0E0;" d="M41.774,63.439c1.912-4.276-0.096-6.542-1.096-8.835
			c-0.182-0.15-1.037-0.536-1.229-0.561c0.378,1.679,0.951,5.763-3.25,5.763c-4.244,0-3.83-3.379-3.527-5.642
			c-0.267-0.012-0.669,0.175-0.921,0.419c-1.186,3.608-3.166,4.623-1.346,8.977c0.312,0.747,0.711,1.592,0.929,2.438h9.352
			C40.926,65.147,41.358,64.371,41.774,63.439z"/>
		<path style="opacity:0.1;clip-path:url(#SVGID_2_);" d="M32.251,64.151c0.427,0.718,1.717,0.707,2.729,0.894
			c-0.176,0.024-0.351,0.093-0.532,0.121c1.217,0.336,2.913,0.077,4.121-0.274c0.384-0.112,1.422-0.76,1.627-0.782
			c-1.429,0.162-2.76,0.279-4.21,0.251C34.716,64.334,33.486,64.171,32.251,64.151z"/>
		<path style="clip-path:url(#SVGID_2_);fill:#F2F2F2;" d="M39.121,53.599c-0.246,0.056-0.401,0.3-0.345,0.546
			c0.192,0.855,0.705,3.128-0.261,4.336c-0.46,0.577-1.239,0.869-2.315,0.869c-1.176,0-2.013-0.277-2.489-0.822
			c-0.813-0.932-0.581-2.619-0.395-3.975l0.04-0.291c0.033-0.251-0.143-0.48-0.393-0.514c-0.251-0.045-0.48,0.143-0.514,0.392
			l-0.039,0.288c-0.212,1.539-0.475,3.455,0.611,4.7c0.657,0.753,1.726,1.136,3.178,1.136c1.367,0,2.387-0.408,3.029-1.213
			c1.24-1.551,0.657-4.135,0.438-5.106C39.612,53.697,39.368,53.543,39.121,53.599z"/>
		<path style="clip-path:url(#SVGID_2_);fill:#F2F2F2;" d="M31.572,54.42c-0.241-0.08-0.498,0.053-0.577,0.292
			c-0.291,0.887-0.592,1.585-0.857,2.201c-0.477,1.107-0.854,1.981-0.919,3.274c-0.013,0.252,0.182,0.467,0.434,0.479
			c0.008,0.001,0.016,0.001,0.023,0.001c0.242,0,0.444-0.19,0.456-0.435c0.058-1.128,0.388-1.896,0.846-2.959
			c0.272-0.633,0.582-1.352,0.887-2.277C31.942,54.758,31.812,54.499,31.572,54.42z"/>
		<path style="clip-path:url(#SVGID_2_);fill:#F2F2F2;" d="M41.251,54.712c-0.079-0.239-0.336-0.372-0.577-0.292
			c-0.239,0.079-0.37,0.338-0.291,0.577c0.304,0.926,0.613,1.645,0.886,2.277c0.458,1.063,0.789,1.831,0.846,2.959
			c0.013,0.244,0.215,0.435,0.456,0.435c0.008,0,0.017,0,0.024-0.001c0.252-0.013,0.445-0.228,0.433-0.479
			c-0.065-1.293-0.442-2.167-0.919-3.274C41.843,56.297,41.542,55.599,41.251,54.712z"/>
		<path style="opacity:0.3;clip-path:url(#SVGID_2_);fill:#FFFFFF;" d="M38.95,59.818c-2.064,0.705-4.574,0.42-6.688-0.081
			c-1.216-0.286-1.904,1.037-1.534,2.164c0.49,1.494,3.014,1.878,5.213,1.837c4.339-0.079,5.97-1.631,5.242-3.47
			C40.988,59.774,40.061,59.438,38.95,59.818z"/>
		<path style="clip-path:url(#SVGID_2_);fill:#D4A070;" d="M28.183,33.766c-0.771-0.79-1.824-1.276-2.955-1.481
			c-1.594-0.285-3.345-0.004-4.683,0.8c-1.569,0.945-2.915,2.157-3.965,3.659c-0.855,1.222-2.304,2.421-2.602,3.928
			c-0.215,1.083,0.214,2.261,1.31,1.172c-0.311,1.116-0.326,2.359-0.287,3.51c0.046,1.331,0.779,2.346,1.868,0.882
			c-0.052,1.104-0.147,5.865,1.671,3.301c0.258,0.875,0.15,2.305,0.808,3.021c0.81,0.884,1.597-0.344,1.885-1.029
			c0.125,0.766,0.275,1.956,1.289,2.072c0.896,0.104,1.69-1.154,1.95-1.893c0.371,1.92,1.521,0.517,2.202-0.253
			c0.625,1.437,2.272,0.96,3.242,0.013c2.627-2.569,1.998-7.08,1.68-10.345C31.318,38.286,30.166,35.795,28.183,33.766z"/>
		<path style="clip-path:url(#SVGID_2_);fill:#F2D89B;" d="M28.55,32.1c-0.003,0-0.006,0-0.009,0
			c-14.799,0.112-16.946,7.997-17.864,11.364l-0.059,0.215c-0.168,0.613,0.192,1.247,0.806,1.415
			c0.102,0.027,0.204,0.041,0.306,0.041c0.505,0,0.969-0.335,1.109-0.847l0.06-0.219c0.911-3.344,2.607-9.567,15.66-9.667
			c0.636-0.004,1.147-0.523,1.143-1.16C29.696,32.609,29.182,32.1,28.55,32.1z"/>
		<path style="clip-path:url(#SVGID_2_);fill:#F2D89B;" d="M28.321,33.812c-11.735-0.28-16.164,9.811-16.85,15.207
			c-0.081,0.631,0.366,1.207,0.996,1.288c0.05,0.006,0.099,0.008,0.147,0.008c0.571,0,1.066-0.424,1.141-1.006
			c0.069-0.545,1.82-13.201,14.025-13.201c0.158,0,0.317,0.003,0.479,0.007c0.656,0.005,1.165-0.485,1.182-1.12
			C29.459,34.357,28.957,33.829,28.321,33.812z"/>
		<path style="clip-path:url(#SVGID_2_);fill:#F2D89B;" d="M28.045,32.7c-7.888,4.172-12.51,9.935-14.548,18.137
			c-0.153,0.617,0.223,1.242,0.84,1.395c0.094,0.024,0.187,0.034,0.279,0.034c0.517,0,0.986-0.35,1.116-0.873
			c1.176-4.732,3.843-11.607,13.39-16.657c0.562-0.297,0.776-0.994,0.479-1.557C29.304,32.617,28.606,32.402,28.045,32.7z"/>
		<path style="clip-path:url(#SVGID_2_);fill:#F2D89B;" d="M29.696,34.59c-10.101,3.536-12.759,13.495-13.444,19.117
			c-0.076,0.632,0.372,1.205,1.004,1.282c0.048,0.006,0.094,0.009,0.141,0.009c0.574,0,1.07-0.429,1.142-1.012
			c0.758-6.22,3.441-14.255,11.92-17.225c0.6-0.21,0.916-0.866,0.706-1.467C30.953,34.695,30.295,34.375,29.696,34.59z"/>
		<path style="clip-path:url(#SVGID_2_);fill:#F2D89B;" d="M31.721,35.979c-10.197,3.694-12.044,12.947-12.546,19.587
			c-0.048,0.635,0.428,1.188,1.062,1.235c0.03,0.002,0.059,0.003,0.088,0.003c0.597,0,1.102-0.46,1.147-1.064
			c0.492-6.509,2.19-14.392,11.034-17.596c0.598-0.217,0.906-0.877,0.69-1.475C32.979,36.071,32.319,35.763,31.721,35.979z"/>
		<path style="clip-path:url(#SVGID_2_);fill:#F2D89B;" d="M31.729,38.052c-7.647,3.249-9.06,11.747-9.221,16.523
			c-0.021,0.636,0.476,1.168,1.112,1.188c0.013,0.001,0.026,0.001,0.039,0.001c0.618,0,1.129-0.49,1.15-1.112
			c0.143-4.228,1.348-11.731,7.82-14.48c0.585-0.249,0.857-0.925,0.609-1.511C32.991,38.076,32.315,37.804,31.729,38.052z"/>
		<path style="clip-path:url(#SVGID_2_);fill:#F2D89B;" d="M32.537,39.281c-5.74,3.267-6.923,9.051-6.904,13.328
			c0.003,0.633,0.518,1.146,1.151,1.146c0.002,0,0.004,0,0.005,0c0.636-0.003,1.149-0.521,1.146-1.156
			c-0.016-3.663,0.967-8.6,5.74-11.315c0.553-0.314,0.746-1.018,0.431-1.57C33.792,39.161,33.088,38.969,32.537,39.281z"/>
		<path style="clip-path:url(#SVGID_2_);fill:#F2D89B;" d="M32.963,41.062c-3.691,2.704-4.243,7.574-4.243,10.237
			c0,0.636,0.516,1.151,1.151,1.151s1.151-0.516,1.151-1.151c0-1.793,0.322-6.197,3.302-8.379c0.513-0.375,0.624-1.096,0.248-1.609
			C34.197,40.799,33.478,40.687,32.963,41.062z"/>
		<path style="opacity:0.5;clip-path:url(#SVGID_2_);fill:#CF854D;" d="M27.539,36.516c-2.014-1.662-5.907-2.842-8.532-2.194
			c-0.154,0.038-0.307,0.082-0.455,0.134c-2.577,0.897-2.819,4.725-1.709,7.566c1.512,3.875,4.334,4.64,5.633,3.117
			c0.603,2.32,4.571,6.846,7.439,6.328c2.229-0.403,1.95-2.818,2.411-4.548C33.411,42.832,30.531,38.986,27.539,36.516z"/>
		<path style="clip-path:url(#SVGID_2_);fill:#AB6A3F;" d="M19.768,34.933c-2.431,0.623-4.751,3.127-5.786,5.279
			c-0.092,0.19-0.012,0.42,0.179,0.512c0.054,0.026,0.11,0.038,0.166,0.038c0.144,0,0.281-0.08,0.347-0.218
			c0.958-1.991,3.082-4.303,5.286-4.868c0.205-0.053,0.329-0.262,0.276-0.467C20.183,35.003,19.975,34.884,19.768,34.933z"/>
		<path style="clip-path:url(#SVGID_2_);fill:#AB6A3F;" d="M19.575,38.52c-1.693,1.112-3.109,3.327-3.761,5.028
			c-0.076,0.198,0.023,0.421,0.221,0.496c0.045,0.017,0.092,0.025,0.138,0.025c0.154,0,0.3-0.094,0.358-0.247
			c0.588-1.534,1.923-3.648,3.466-4.661c0.177-0.116,0.227-0.354,0.109-0.532C19.99,38.453,19.753,38.401,19.575,38.52z"/>
		<path style="clip-path:url(#SVGID_2_);fill:#AB6A3F;" d="M19.686,42.361c-0.179-0.111-0.416-0.062-0.53,0.116
			c-1.14,1.78-1.818,3.237-2.201,4.726c-0.053,0.205,0.07,0.414,0.275,0.467c0.032,0.008,0.064,0.013,0.097,0.013
			c0.171,0,0.326-0.115,0.371-0.288c0.362-1.406,1.011-2.795,2.104-4.502C19.916,42.713,19.864,42.476,19.686,42.361z"/>
		<path style="clip-path:url(#SVGID_2_);fill:#AB6A3F;" d="M21.854,43.16c-0.997,1.441-1.583,3.051-2.15,4.609l-0.201,0.551
			c-0.073,0.199,0.029,0.42,0.228,0.492c0.044,0.017,0.089,0.024,0.133,0.024c0.156,0,0.303-0.097,0.36-0.252l0.202-0.553
			c0.575-1.582,1.119-3.076,2.061-4.437c0.12-0.174,0.077-0.413-0.098-0.533C22.213,42.939,21.975,42.984,21.854,43.16z"/>
		<path style="clip-path:url(#SVGID_2_);fill:#AB6A3F;" d="M24.019,45.45c-1.165,1.516-1.688,3.564-1.92,5.018
			c-0.034,0.209,0.108,0.406,0.318,0.439c0.021,0.004,0.041,0.005,0.061,0.005c0.186,0,0.349-0.134,0.379-0.323
			c0.219-1.364,0.703-3.282,1.771-4.671c0.129-0.168,0.098-0.409-0.07-0.538C24.39,45.252,24.147,45.282,24.019,45.45z"/>
		<path style="clip-path:url(#SVGID_2_);fill:#AB6A3F;" d="M26.069,47.457c-0.214-0.032-0.404,0.114-0.435,0.324
			c-0.041,0.283-0.093,0.565-0.145,0.849c-0.125,0.689-0.255,1.403-0.244,2.134c0.003,0.211,0.174,0.379,0.384,0.379
			c0.002,0,0.003,0,0.005,0c0.213-0.003,0.382-0.178,0.379-0.389c-0.01-0.658,0.107-1.303,0.231-1.986
			c0.054-0.292,0.106-0.584,0.148-0.876C26.425,47.682,26.279,47.487,26.069,47.457z"/>
		<path style="clip-path:url(#SVGID_2_);fill:#AB6A3F;" d="M28.577,49.234c-0.202-0.056-0.416,0.063-0.472,0.269
			c-0.182,0.661-0.262,1.375-0.244,2.186c0.004,0.209,0.175,0.376,0.383,0.376c0.003,0,0.006,0,0.009,0
			c0.212-0.005,0.38-0.18,0.375-0.392c-0.016-0.734,0.056-1.378,0.218-1.966C28.901,49.502,28.781,49.291,28.577,49.234z"/>
		<path style="clip-path:url(#SVGID_2_);fill:#F29F63;" d="M46.905,35.854c-0.367,1.009-1.846,6.528-1.657,7.663
			c0.009,0.05,0.018,0.099,0.025,0.147c0.791,0.367,1.642,0.576,2.519,0.334c2.731-0.752,5.275-8.153,2.511-10.621
			C48.976,32.192,47.83,33.309,46.905,35.854z"/>
		<path style="clip-path:url(#SVGID_2_);fill:#E89361;" d="M18.815,20.135c-1.032,4.928-1.277,11.458,1.094,16.164
			c1.237,2.459,4.19,0.816,6.275,0.301c2.564-0.635,5.143-1.213,7.723-1.782c4.24-0.935,9.654-1.819,12.421,1.5
			c2.671,3.205,4.386,0.8,4.389-1.941c0.004-3.397,0.87-8.997,0.008-12.728C46.521,3.514,21.524,7.192,18.815,20.135z"/>
		<path style="clip-path:url(#SVGID_2_);fill:#FFBC82;" d="M33.5,15.117c-11.521,1.568-13.343,12.108-12.221,22.438
			c0.841,7.738,7.775,16.375,15.531,15.96c7.771-0.413,14.01-11.613,13.085-21.126C48.892,22.048,46.666,13.326,33.5,15.117z"/>
		<path style="clip-path:url(#SVGID_2_);fill:#FFBC82;" d="M18.733,33.195c-3.775,0.931-1.56,9.698,1.277,11.286
			c1.128,0.631,2.399,0.21,2.957-1.716c0.636-0.978-0.156-4.738-0.804-7.088C21.64,33.771,20.545,32.748,18.733,33.195z"/>
		<path style="opacity:0.3;clip-path:url(#SVGID_2_);fill:#BF3C1B;" d="M19.994,35.244c-0.833-0.41-2.952,0.231-2.009,1.904
			c0.562-1.512,1.465-0.485,1.293,0.594c-0.115,0.726-0.896,0.715-0.145,1.671c0.405,0.516,1.261,0.352,1.698,0.093
			C22.219,38.683,21.009,35.744,19.994,35.244z"/>
		<path style="clip-path:url(#SVGID_2_);fill:#E89361;" d="M41.187,21.451c0.001,0.001,0.002,0.002,0.002,0.003
			c0-0.001,0.001-0.002,0.002-0.004C41.189,21.425,41.188,21.425,41.187,21.451z"/>
		<path style="clip-path:url(#SVGID_2_);fill:#E89361;" d="M34.627,13.097c-9.346-0.077-15.99,6.632-15.371,20.008
			c0.389-0.01,1.188-0.01,1.771,0.563c0.773,0.762,0.746,1.594,0.957,2.015c0.099,0.212,0.212,0.565,0.949,0.53
			c-0.558-1.808-0.762-3.722-0.74-5.609c0.01-0.889,0.071-1.776,0.19-2.657c0.085-0.633,0.578-1.791,0.075-2.325
			c0.895-0.472,0.45-1.724,0.291-2.446c1.381-0.22,1.794-0.727,2.035-1.969c0.752,0.198,1.3-0.029,1.863-0.54
			c0.781,2.294,4.012,2.258,4.661-0.045c0.306,0.287,0.667,0.51,1.091,0.33c-0.008,2.105,4.718,2.122,4.456,0.109
			c0.827,0.149,0.856,1.362,1.836,1.621c0.953,0.253,2.235-0.178,2.496-1.227c0-0.001-0.001-0.002-0.002-0.003
			c0.002-0.026,0.003-0.026,0.004-0.001c-0.001,0.002-0.002,0.003-0.002,0.004c0.288,0.885,1.765,0.839,2.455,0.658
			c0.84-0.22,1.263-0.747,1.849-1.338c0.159,0.862,1.184,1.31,1.85,0.685c-0.769,0.723,0.954,2.166,1.166,2.671
			C49.892,27.406,49.623,13.221,34.627,13.097z"/>
		
			<ellipse transform="matrix(-0.1914 -0.9815 0.9815 -0.1914 -16.7719 70.6541)" style="clip-path:url(#SVGID_2_);fill:#694330;" cx="20.716" cy="42.235" rx="1.829" ry="1.542"/>
		<path style="clip-path:url(#SVGID_2_);fill:#F2D89B;" d="M33.385,8.132c-5.03,0.412-8.978,2.32-11.733,5.671
			c-5.079,6.175-4.496,15.318-4.188,18.045c0.054,0.629,0.611,1.104,1.235,1.048c0.634-0.048,1.107-0.602,1.06-1.235l-0.015-0.138
			c-0.274-2.429-0.819-10.779,3.687-16.258c2.345-2.85,5.758-4.478,10.143-4.837c4.747-0.393,8.538,0.822,11.273,3.603
			c4.839,4.919,5.396,13.692,4.962,18.102c-0.063,0.633,0.399,1.196,1.032,1.259c0.039,0.004,0.077,0.006,0.114,0.006
			c0.586,0,1.086-0.444,1.146-1.039c0.13-1.325,1.081-13.139-5.612-19.941C43.251,9.126,38.842,7.687,33.385,8.132z"/>
		<path style="clip-path:url(#SVGID_2_);fill:#F2D89B;" d="M38.044,8.231c-0.581,0.259-0.842,0.939-0.583,1.521
			c1.771,3.976,1.79,8.395,0.907,10.532c-0.243,0.588,0.037,1.262,0.624,1.504c0.145,0.06,0.293,0.087,0.439,0.087
			c0.452,0,0.882-0.268,1.064-0.712c1.273-3.085,0.882-8.278-0.932-12.349C39.306,8.232,38.623,7.973,38.044,8.231z"/>
		<path style="clip-path:url(#SVGID_2_);fill:#F2D89B;" d="M45.972,11.507c-0.632,0.066-1.091,0.634-1.024,1.266
			c0.352,3.344-1.298,5.695-2.313,6.8c-0.43,0.468-0.399,1.196,0.068,1.627c0.222,0.203,0.501,0.304,0.779,0.304
			c0.311,0,0.621-0.125,0.848-0.373c1.277-1.39,3.354-4.355,2.907-8.599C47.171,11.899,46.611,11.439,45.972,11.507z"/>
		<path style="clip-path:url(#SVGID_2_);fill:#F2D89B;" d="M23.721,20.096c-1.357-0.892-2.55-2.504-2.836-3.837
			c-0.134-0.622-0.75-1.017-1.368-0.884c-0.621,0.134-1.018,0.746-0.884,1.367c0.414,1.928,1.951,4.05,3.825,5.278
			c0.194,0.128,0.413,0.188,0.631,0.188c0.374,0,0.742-0.183,0.963-0.52C24.401,21.158,24.253,20.444,23.721,20.096z"/>
		<path style="clip-path:url(#SVGID_2_);fill:#F2D89B;" d="M34.211,7.872c-0.548,0.324-0.729,1.029-0.404,1.577
			c2.387,4.03,2.258,9.197,2.256,9.249c-0.02,0.636,0.479,1.167,1.114,1.188c0.013,0,0.024,0,0.037,0c0.618,0,1.13-0.49,1.15-1.113
			c0.008-0.237,0.16-5.877-2.576-10.497C35.464,7.729,34.756,7.547,34.211,7.872z"/>
		<path style="clip-path:url(#SVGID_2_);fill:#F2D89B;" d="M29.361,9.604c-0.249-0.583-0.924-0.855-1.511-0.608
			c-0.585,0.249-0.857,0.925-0.608,1.511c1.672,3.928,2.997,8.275,3.01,8.319c0.151,0.497,0.607,0.816,1.102,0.816
			c0.111,0,0.224-0.016,0.335-0.049c0.608-0.186,0.952-0.828,0.768-1.437C32.4,17.975,31.082,13.65,29.361,9.604z"/>
		<path style="clip-path:url(#SVGID_2_);fill:#F2D89B;" d="M41.827,9.294c-0.593,0.229-0.888,0.896-0.658,1.488
			c1.105,2.86,0.509,5.469,0.494,5.528c-0.151,0.616,0.224,1.239,0.84,1.393c0.093,0.023,0.187,0.034,0.279,0.034
			c0.517,0,0.985-0.349,1.116-0.873c0.033-0.134,0.804-3.328-0.582-6.911C43.088,9.358,42.422,9.065,41.827,9.294z"/>
		<path style="clip-path:url(#SVGID_2_);fill:#F2D89B;" d="M23.38,13.4c-0.099-0.627-0.682-1.059-1.315-0.958
			c-0.629,0.098-1.059,0.687-0.96,1.315c0.604,3.864,3.136,5.992,3.243,6.081c0.215,0.178,0.475,0.264,0.732,0.264
			c0.332,0,0.661-0.143,0.889-0.418c0.405-0.491,0.336-1.217-0.155-1.621C25.795,18.047,23.851,16.413,23.38,13.4z"/>
		<path style="clip-path:url(#SVGID_2_);fill:#F2D89B;" d="M35.455,18.793c-0.234-2.337-0.589-5.869-3.126-10.052
			C32,8.197,31.292,8.024,30.748,8.354c-0.544,0.329-0.718,1.038-0.388,1.582c2.267,3.736,2.577,6.829,2.804,9.087
			c0.07,0.698,0.131,1.303,0.241,1.834c0.112,0.544,0.592,0.918,1.126,0.918c0.078,0,0.156-0.008,0.235-0.024
			c0.622-0.129,1.022-0.739,0.894-1.361C35.574,19.976,35.52,19.428,35.455,18.793z"/>
		<path style="clip-path:url(#SVGID_2_);fill:#F2D89B;" d="M26.09,11.142c-0.185-0.607-0.826-0.948-1.437-0.768
			c-0.608,0.186-0.952,0.828-0.767,1.437c1.208,3.978,2.631,6.821,4.615,9.223c0.228,0.276,0.557,0.418,0.889,0.418
			c0.258,0,0.518-0.086,0.732-0.264c0.49-0.404,0.56-1.131,0.154-1.62C29.078,18.116,27.519,15.847,26.09,11.142z"/>
		<path style="clip-path:url(#SVGID_2_);fill:#F2D89B;" d="M49.276,15.198c-0.626-0.102-1.221,0.319-1.325,0.945
			c-0.159,0.953-1.08,2.168-1.423,2.558c-0.422,0.476-0.378,1.203,0.098,1.625c0.22,0.194,0.492,0.291,0.764,0.291
			c0.317,0,0.634-0.132,0.862-0.388c0.17-0.192,1.675-1.932,1.971-3.706C50.327,15.896,49.903,15.303,49.276,15.198z"/>
		<path style="clip-path:url(#SVGID_2_);fill:#F2D89B;" d="M50.306,19.154l-1.842,1.339c-0.515,0.374-0.629,1.094-0.255,1.608
			c0.226,0.31,0.576,0.475,0.933,0.475c0.234,0,0.472-0.071,0.676-0.22l1.842-1.339c0.515-0.375,0.628-1.095,0.255-1.608
			C51.539,18.895,50.818,18.779,50.306,19.154z"/>
		<path style="clip-path:url(#SVGID_2_);fill:#F2D89B;" d="M21.948,22.849c-0.527-0.336-2.145-1.557-2.638-2.718
			c-0.248-0.586-0.924-0.86-1.509-0.61c-0.586,0.249-0.859,0.925-0.61,1.51c0.857,2.022,3.251,3.589,3.521,3.761
			c0.191,0.122,0.405,0.18,0.617,0.18c0.38,0,0.753-0.188,0.973-0.532C22.643,23.901,22.485,23.189,21.948,22.849z"/>
		<path style="clip-path:url(#SVGID_2_);fill:#F2D89B;" d="M51.092,22.415l-1.106,0.304c-0.613,0.168-0.974,0.802-0.806,1.415
			c0.141,0.512,0.604,0.847,1.109,0.847c0.102,0,0.204-0.014,0.306-0.041l1.106-0.305c0.614-0.168,0.975-0.801,0.806-1.415
			C52.339,22.606,51.703,22.248,51.092,22.415z"/>
		<path style="clip-path:url(#SVGID_2_);fill:#F2D89B;" d="M51.289,25.344l-0.787,0.186c-0.619,0.146-1.003,0.766-0.857,1.384
			c0.125,0.531,0.598,0.888,1.12,0.888c0.088,0,0.177-0.01,0.265-0.03l0.788-0.186c0.618-0.146,1.002-0.766,0.856-1.385
			C52.527,25.581,51.906,25.195,51.289,25.344z"/>
		<path style="clip-path:url(#SVGID_2_);fill:#F2D89B;" d="M51.144,28.422l-0.332,0.066c-0.624,0.124-1.029,0.729-0.906,1.354
			c0.108,0.548,0.59,0.927,1.128,0.927c0.075,0,0.149-0.007,0.226-0.021l0.333-0.066c0.624-0.124,1.029-0.729,0.905-1.354
			C52.374,28.705,51.769,28.3,51.144,28.422z"/>
		<path style="clip-path:url(#SVGID_2_);fill:#F2D89B;" d="M51.397,31.12l-0.367-0.024c-0.623-0.032-1.184,0.438-1.226,1.071
			c-0.043,0.635,0.438,1.185,1.071,1.227l0.367,0.024c0.026,0.002,0.053,0.003,0.078,0.003c0.601,0,1.107-0.466,1.147-1.074
			C52.512,31.712,52.031,31.163,51.397,31.12z"/>
		<path style="clip-path:url(#SVGID_2_);fill:#F2D89B;" d="M21.472,25.668l-3.64-1.886c-0.563-0.292-1.26-0.071-1.552,0.492
			c-0.293,0.565-0.072,1.261,0.493,1.553l3.64,1.885c0.169,0.088,0.351,0.13,0.528,0.13c0.417,0,0.819-0.228,1.023-0.622
			C22.258,26.654,22.037,25.96,21.472,25.668z"/>
		<path style="clip-path:url(#SVGID_2_);fill:#F2D89B;" d="M21.003,28.473l-3.154-1.394c-0.581-0.256-1.261,0.007-1.519,0.588
			c-0.257,0.582,0.007,1.262,0.588,1.519l3.154,1.393c0.151,0.066,0.31,0.099,0.465,0.099c0.442,0,0.863-0.256,1.054-0.687
			C21.848,29.408,21.584,28.729,21.003,28.473z"/>
		<path style="clip-path:url(#SVGID_2_);fill:#F2D89B;" d="M21.205,31.417l-2.933-1.001c-0.605-0.206-1.257,0.117-1.462,0.719
			s0.116,1.257,0.719,1.461l2.933,1.001c0.124,0.042,0.249,0.062,0.372,0.062c0.479,0,0.927-0.302,1.09-0.78
			C22.129,32.276,21.808,31.621,21.205,31.417z"/>
		<path style="clip-path:url(#SVGID_2_);fill:#AB6A3F;" d="M40.641,11c-0.19,0.093-0.27,0.322-0.177,0.513
			c0.736,1.515,0.926,4.285,0.634,5.825c-0.04,0.209,0.098,0.409,0.306,0.449c0.023,0.004,0.048,0.007,0.072,0.007
			c0.18,0,0.342-0.129,0.376-0.313c0.321-1.692,0.116-4.63-0.698-6.303C41.061,10.987,40.832,10.906,40.641,11z"/>
		<path style="clip-path:url(#SVGID_2_);fill:#AB6A3F;" d="M44.71,14.09c-0.2-0.074-0.42,0.033-0.491,0.233l-0.211,0.587
			c-0.24,0.666-0.543,1.505-0.754,2.159c-0.064,0.202,0.046,0.419,0.247,0.483c0.04,0.013,0.079,0.019,0.118,0.019
			c0.162,0,0.313-0.104,0.365-0.267c0.208-0.646,0.508-1.476,0.745-2.134l0.213-0.592C45.014,14.38,44.909,14.16,44.71,14.09z"/>
		<path style="clip-path:url(#SVGID_2_);fill:#AB6A3F;" d="M47.306,16.311c-0.199-0.076-0.42,0.025-0.495,0.224
			c-0.106,0.284-0.244,0.564-0.38,0.842c-0.127,0.261-0.253,0.52-0.357,0.778c-0.078,0.196,0.017,0.421,0.214,0.499
			c0.047,0.02,0.096,0.028,0.143,0.028c0.152,0,0.297-0.092,0.356-0.241c0.097-0.241,0.216-0.484,0.334-0.728
			c0.146-0.3,0.294-0.602,0.409-0.908C47.604,16.606,47.504,16.385,47.306,16.311z"/>
		<path style="clip-path:url(#SVGID_2_);fill:#AB6A3F;" d="M49.17,19.42c-0.373,0.15-0.725,0.385-1.016,0.678
			c-0.149,0.15-0.149,0.394,0.001,0.543c0.074,0.073,0.173,0.111,0.271,0.111c0.099,0,0.197-0.038,0.272-0.113
			c0.218-0.22,0.48-0.395,0.76-0.507c0.196-0.079,0.291-0.304,0.212-0.499C49.591,19.436,49.366,19.338,49.17,19.42z"/>
		<path style="clip-path:url(#SVGID_2_);fill:#AB6A3F;" d="M36.931,10.267c-0.187,0.101-0.258,0.332-0.157,0.52
			c1.006,1.882,1.38,3.644,1.141,5.389c-0.029,0.21,0.118,0.403,0.328,0.433c0.018,0.002,0.035,0.003,0.053,0.003
			c0.188,0,0.354-0.14,0.38-0.332c0.261-1.91-0.14-3.825-1.225-5.854C37.351,10.237,37.117,10.167,36.931,10.267z"/>
		<path style="clip-path:url(#SVGID_2_);fill:#AB6A3F;" d="M35.644,14.766c-0.181-1.489-0.367-3.03-1.331-4.317
			c-0.126-0.168-0.367-0.202-0.536-0.077c-0.171,0.128-0.205,0.368-0.078,0.538c0.841,1.122,1.007,2.495,1.184,3.949
			c0.121,1.002,0.247,2.039,0.614,2.985c0.06,0.152,0.204,0.245,0.358,0.245c0.046,0,0.093-0.009,0.139-0.026
			c0.197-0.076,0.296-0.299,0.219-0.496C35.879,16.709,35.765,15.766,35.644,14.766z"/>
		<path style="clip-path:url(#SVGID_2_);fill:#AB6A3F;" d="M30.965,11.66c-0.07-0.199-0.29-0.307-0.489-0.234
			c-0.2,0.07-0.305,0.289-0.234,0.49c0.166,0.473,0.365,0.957,0.568,1.448c0.453,1.102,0.923,2.242,1.039,3.346
			c0.021,0.197,0.188,0.344,0.381,0.344c0.014,0,0.027-0.001,0.041-0.003c0.211-0.021,0.363-0.211,0.342-0.422
			c-0.128-1.213-0.618-2.404-1.094-3.558C31.321,12.593,31.127,12.121,30.965,11.66z"/>
		<path style="clip-path:url(#SVGID_2_);fill:#AB6A3F;" d="M27.585,12.582c-0.012-0.212-0.194-0.35-0.404-0.362
			c-0.212,0.012-0.374,0.192-0.362,0.404c0.114,2.065,0.814,4.005,1.872,5.188c0.075,0.086,0.181,0.129,0.286,0.129
			c0.091,0,0.182-0.032,0.256-0.098c0.158-0.142,0.171-0.384,0.03-0.542C28.317,16.243,27.689,14.479,27.585,12.582z"/>
		<path style="clip-path:url(#SVGID_2_);fill:#AB6A3F;" d="M24.012,14.466c-0.072-0.198-0.291-0.3-0.492-0.228
			c-0.199,0.073-0.301,0.295-0.229,0.493c0.459,1.245,1.112,2.784,2.107,3.636c0.072,0.061,0.161,0.092,0.249,0.092
			c0.108,0,0.216-0.046,0.292-0.135c0.138-0.16,0.119-0.403-0.042-0.541C25.028,17.039,24.405,15.534,24.012,14.466z"/>
		<path style="clip-path:url(#SVGID_2_);fill:#AB6A3F;" d="M23.396,18.775c-0.482-0.271-0.822-0.75-1.182-1.257
			c-0.159-0.225-0.317-0.447-0.486-0.651c-0.136-0.162-0.377-0.188-0.541-0.05c-0.163,0.135-0.186,0.377-0.05,0.54
			c0.157,0.189,0.303,0.396,0.451,0.605c0.393,0.553,0.799,1.126,1.432,1.482c0.06,0.033,0.124,0.049,0.188,0.049
			c0.135,0,0.265-0.07,0.335-0.195C23.646,19.113,23.581,18.88,23.396,18.775z"/>
		<path style="clip-path:url(#SVGID_2_);fill:#AB6A3F;" d="M20.605,20.521c-0.078-0.197-0.303-0.293-0.498-0.215
			c-0.196,0.078-0.293,0.301-0.214,0.498c0.246,0.621,0.747,1.208,1.53,1.794c0.069,0.051,0.149,0.076,0.229,0.076
			c0.117,0,0.232-0.054,0.308-0.153c0.127-0.171,0.093-0.41-0.077-0.538C21.217,21.485,20.799,21.007,20.605,20.521z"/>
		<path style="clip-path:url(#SVGID_2_);fill:#AB6A3F;" d="M20.949,24.215c-0.502-0.146-1.002-0.504-1.431-0.826
			c-0.169-0.127-0.41-0.093-0.537,0.076c-0.128,0.169-0.094,0.41,0.076,0.537c0.482,0.363,1.051,0.766,1.676,0.949
			c0.036,0.011,0.072,0.016,0.108,0.016c0.166,0,0.319-0.108,0.368-0.275C21.27,24.487,21.153,24.274,20.949,24.215z"/>
		<path style="clip-path:url(#SVGID_2_);fill:#AB6A3F;" d="M18.816,26.84c-0.184-0.106-0.418-0.046-0.525,0.137
			c-0.106,0.184-0.045,0.418,0.138,0.525c0.287,0.168,0.57,0.381,0.818,0.614c0.074,0.069,0.169,0.104,0.264,0.104
			c0.102,0,0.203-0.04,0.279-0.121c0.146-0.153,0.138-0.397-0.017-0.542C19.483,27.284,19.152,27.036,18.816,26.84z"/>
		<path style="clip-path:url(#SVGID_2_);fill:#AB6A3F;" d="M20.381,30.323c-0.439-0.277-0.932-0.451-1.423-0.501
			c-0.211-0.027-0.4,0.131-0.422,0.342s0.132,0.4,0.343,0.421c0.369,0.039,0.757,0.176,1.092,0.387
			c0.063,0.041,0.135,0.06,0.204,0.06c0.128,0,0.253-0.063,0.325-0.179C20.613,30.673,20.56,30.436,20.381,30.323z"/>
		<path style="clip-path:url(#SVGID_2_);fill:#FAE7BB;" d="M35.895,8.515c-0.191-0.605-0.838-0.944-1.444-0.75
			c-0.606,0.191-0.942,0.838-0.751,1.444c0.249,0.789,0.578,1.607,0.926,2.476c0.655,1.633,1.333,3.322,1.436,4.739
			c0.044,0.605,0.549,1.067,1.147,1.067c0.027,0,0.056-0.001,0.084-0.003c0.635-0.046,1.111-0.598,1.065-1.231
			c-0.129-1.774-0.874-3.633-1.595-5.43C36.431,10.001,36.118,9.221,35.895,8.515z"/>
		<path style="clip-path:url(#SVGID_2_);fill:#FAE7BB;" d="M38.003,8.44c-0.466,0.282-0.614,0.888-0.333,1.353
			c0.546,0.902,1.705,4.9,1.378,8.219c-0.053,0.541,0.343,1.023,0.884,1.076c0.033,0.004,0.065,0.006,0.098,0.006
			c0.501,0,0.93-0.38,0.979-0.889c0.373-3.783-0.878-8.151-1.653-9.432C39.073,8.307,38.468,8.158,38.003,8.44z"/>
		<path style="clip-path:url(#SVGID_2_);fill:#FAE7BB;" d="M41.977,9.543c-0.383,0.35-0.427,0.931-0.113,1.332
			c0.201,0.475,0.284,2.631,0.085,4.688c-0.053,0.541,0.344,1.022,0.885,1.075c0.032,0.003,0.064,0.005,0.097,0.005
			c0.501,0,0.93-0.381,0.979-0.891c0.081-0.839,0.438-5.075-0.541-6.146C43.002,9.204,42.378,9.176,41.977,9.543z"/>
		<path style="clip-path:url(#SVGID_2_);fill:#FAE7BB;" d="M46.094,11.978c-0.545,0.016-0.973,0.468-0.958,1.012
			c0.001,0.032,0.07,3.183-1.438,5.486c-0.298,0.455-0.17,1.066,0.285,1.364c0.166,0.109,0.354,0.161,0.538,0.161
			c0.321,0,0.637-0.157,0.825-0.446c1.842-2.814,1.763-6.466,1.759-6.619C47.091,12.392,46.636,11.961,46.094,11.978z"/>
		<path style="clip-path:url(#SVGID_2_);fill:#FAE7BB;" d="M48.467,15.873c-0.178,0.224-0.288,0.495-0.415,0.81
			c-0.147,0.366-0.332,0.819-0.584,1.06c-0.394,0.376-0.408,1-0.033,1.394c0.194,0.203,0.453,0.305,0.713,0.305
			c0.245,0,0.489-0.09,0.681-0.272c0.56-0.533,0.843-1.234,1.05-1.746c0.056-0.137,0.1-0.26,0.147-0.345
			c0.318-0.425,0.243-1.027-0.175-1.36C49.425,15.379,48.805,15.449,48.467,15.873z"/>
		<path style="clip-path:url(#SVGID_2_);fill:#FAE7BB;" d="M50.108,19.507c-0.093,0.071-0.347,0.234-0.556,0.372
			c-0.18,0.116-0.333,0.219-0.382,0.255c-0.435,0.322-0.523,0.93-0.205,1.367c0.191,0.264,0.492,0.403,0.798,0.403
			c0.199,0,0.401-0.06,0.575-0.185c0.047-0.032,0.161-0.106,0.293-0.192c0.517-0.339,0.672-0.444,0.78-0.546
			c0.398-0.371,0.439-1.012,0.068-1.41C51.109,19.175,50.507,19.136,50.108,19.507z"/>
		<path style="clip-path:url(#SVGID_2_);fill:#FAE7BB;" d="M30.906,8.456c-0.487,0.243-0.686,0.834-0.443,1.321
			c0.86,1.731,2.459,6.081,2.729,7.97c0.07,0.491,0.492,0.846,0.975,0.846c0.046,0,0.094-0.004,0.141-0.01
			c0.538-0.077,0.912-0.577,0.836-1.115c-0.311-2.166-1.982-6.69-2.916-8.567C31.984,8.413,31.394,8.215,30.906,8.456z"/>
		<path style="clip-path:url(#SVGID_2_);fill:#FAE7BB;" d="M30.724,13.585c-0.659-1.966-1.159-3.408-1.602-4.073
			c-0.3-0.454-0.912-0.576-1.365-0.277c-0.453,0.301-0.577,0.913-0.276,1.365c0.332,0.502,0.96,2.373,1.375,3.61
			c0.33,0.983,0.615,1.834,0.825,2.297c0.164,0.363,0.522,0.578,0.897,0.578c0.136,0,0.274-0.028,0.406-0.088
			c0.495-0.225,0.715-0.809,0.49-1.304C31.307,15.322,31.023,14.478,30.724,13.585z"/>
		<path style="clip-path:url(#SVGID_2_);fill:#FAE7BB;" d="M26.928,13.611c-0.486-1.345-0.801-2.194-1.115-2.675
			c-0.298-0.455-0.909-0.584-1.364-0.285s-0.582,0.909-0.284,1.364c0.204,0.313,0.58,1.35,0.911,2.266
			c0.693,1.92,1.479,4.095,2.421,5.111c0.194,0.21,0.458,0.316,0.724,0.316c0.239,0,0.479-0.087,0.669-0.262
			c0.398-0.37,0.423-0.993,0.054-1.393C28.272,17.33,27.495,15.182,26.928,13.611z"/>
		<path style="clip-path:url(#SVGID_2_);fill:#FAE7BB;" d="M23.226,13.522c-0.031-0.544-0.49-0.952-1.041-0.927
			c-0.543,0.031-0.957,0.498-0.926,1.041c0.083,1.435,1.347,4.449,2.056,5.183c0.19,0.197,0.441,0.294,0.692,0.294
			c0.242,0,0.486-0.09,0.679-0.271c0.393-0.367,0.408-0.992,0.047-1.391C24.376,17.058,23.284,14.542,23.226,13.522z"/>
		<path style="clip-path:url(#SVGID_2_);fill:#FAE7BB;" d="M20.75,16.419c-0.181-0.513-0.743-0.784-1.256-0.602
			c-0.514,0.18-0.783,0.742-0.603,1.256c0.326,0.929,2.212,3.597,2.635,4.017c0.19,0.189,0.438,0.283,0.687,0.283
			c0.25,0,0.501-0.097,0.694-0.287c0.385-0.38,0.386-1.004,0.01-1.393C22.552,19.316,20.938,16.952,20.75,16.419z"/>
		<path style="clip-path:url(#SVGID_2_);fill:#FAE7BB;" d="M19.192,20.289c-0.295-0.455-0.905-0.588-1.362-0.292
			c-0.457,0.295-0.588,0.905-0.292,1.362c0.271,0.42,1.158,1.364,1.461,1.632c0.188,0.165,0.42,0.247,0.652,0.247
			c0.272,0,0.544-0.112,0.738-0.333c0.36-0.407,0.321-1.031-0.086-1.391C20.067,21.306,19.33,20.502,19.192,20.289z"/>
		<path style="clip-path:url(#SVGID_2_);fill:#FAE7BB;" d="M18.432,24.102c-0.478-0.26-1.076-0.083-1.336,0.396
			c-0.259,0.479-0.081,1.076,0.397,1.335c0.231,0.126,0.472,0.274,0.695,0.429c0.171,0.117,0.365,0.174,0.558,0.174
			c0.313,0,0.622-0.15,0.813-0.428c0.309-0.448,0.194-1.062-0.254-1.37C19.023,24.444,18.722,24.259,18.432,24.102z"/>
		<path style="clip-path:url(#SVGID_2_);fill:#FAE7BB;" d="M50.616,22.906l-0.134,0.976L50.616,22.906
			c-0.538-0.074-1.037,0.304-1.11,0.842c-0.073,0.54,0.304,1.036,0.843,1.11c0.09,0.012,0.18,0.018,0.268,0.018
			c0.249,0,0.492-0.049,0.725-0.145c0.503-0.208,0.756-0.786,0.548-1.289S51.12,22.697,50.616,22.906z"/>
		<path style="clip-path:url(#SVGID_2_);fill:#FAE7BB;" d="M51.622,25.941c-0.573-0.141-1.132,0.05-1.457,0.502
			c-0.318,0.44-0.218,1.057,0.224,1.374c0.174,0.126,0.375,0.187,0.574,0.187c0.167,0,0.331-0.042,0.478-0.123
			c0.421-0.022,0.796-0.316,0.902-0.747C52.474,26.605,52.15,26.071,51.622,25.941z"/>
		<path style="clip-path:url(#SVGID_2_);fill:#261B18;" d="M29.048,30.858c-2.217-0.768-3.291,3.143-1.734,4.28
			c0.669-0.249,1.481-0.235,2.142,0.027C30.843,34.315,30.697,31.432,29.048,30.858z"/>
		<path style="clip-path:url(#SVGID_2_);fill:#261B18;" d="M47.991,31.049c-2.154-1.373-3.879,2.81-2.104,4.052
			c0.583-0.362,1.729-0.214,2.279,0.058C49.071,34.211,49.146,31.785,47.991,31.049z"/>
		<path style="opacity:0.7;clip-path:url(#SVGID_2_);fill:#E6D2C3;" d="M28.314,32.234c-0.85,0.359-0.063,2.006,0.742,1.328
			C29.64,33.072,29.071,31.915,28.314,32.234z"/>
		<path style="opacity:0.7;clip-path:url(#SVGID_2_);fill:#E6D2C3;" d="M47.02,31.952c-0.867,0.148-0.5,1.856,0.396,1.399
			C48.063,33.022,47.79,31.82,47.02,31.952z"/>
		<path style="clip-path:url(#SVGID_2_);fill:#FA9769;" d="M49.103,37.334c-0.578-0.891-1.858-1.035-2.774-1.017
			c-1.197,0.022-2.8,0.523-1.772,2.289c0.549,0.94,5.301,1.507,4.794-0.685C49.296,37.697,49.214,37.501,49.103,37.334z"/>
		<path style="clip-path:url(#SVGID_2_);fill:#FA9769;" d="M30.444,37.116c-0.876-0.814-2.34-0.688-3.358-0.468
			c-1.329,0.283-2.986,1.161-1.385,2.8c0.854,0.873,6.3,0.436,5.17-1.764C30.754,37.458,30.609,37.271,30.444,37.116z"/>
		<path style="clip-path:url(#SVGID_2_);fill:#1F1A17;" d="M47.281,30.74c-1.419-0.241-1.839,1.404-1.839,1.404
			s0.576-0.545,2.3-0.042c2.962,0.861,4.334-1.712,4.334-1.712C50.212,32.383,48.256,30.904,47.281,30.74z"/>
		<path style="clip-path:url(#SVGID_2_);fill:#1F1A17;" d="M28.359,30.74c-0.973,0.164-2.93,1.643-4.794-0.35
			c0,0,1.372,2.573,4.333,1.712c1.725-0.503,2.301,0.042,2.301,0.042S29.778,30.499,28.359,30.74z"/>
		<path style="opacity:0.3;clip-path:url(#SVGID_2_);fill:#BF3C1B;" d="M38.178,38.582c-0.886-0.001-1.234-0.379-1.859-0.047
			c-0.622,0.333,0.709,1.558,1.806,1.481c1.242-0.085,2.275-1.091,1.952-1.465C39.699,38.115,39.165,38.584,38.178,38.582z"/>
		<path style="clip-path:url(#SVGID_2_);fill:#DE6049;" d="M28.39,42.604c1.38,1.706,3.379,0.282,1.963-1.46
			C30.218,42.203,29.271,42.841,28.39,42.604z"/>
		<path style="clip-path:url(#SVGID_2_);fill:#DE6049;" d="M44.818,40.751c-0.861,1.939,1.419,3.187,2.257,1.286
			C46.306,42.374,45.237,41.824,44.818,40.751z"/>
		<path style="clip-path:url(#SVGID_2_);fill:#DE6049;" d="M45.668,42.03c-0.26-0.162-0.58-0.092-0.715,0.158
			c-1.382,2.567-3.837,3.941-6.995,3.977c-3.036,0.035-5.75-1.456-7.271-3.495c-0.18-0.24-0.525-0.31-0.771-0.153
			c-0.244,0.156-0.289,0.475-0.115,0.72c2.257,3.193,5.856,4.179,8.296,4.123c3.781-0.086,6.205-1.614,7.799-4.576
			C46.031,42.531,45.93,42.194,45.668,42.03z"/>
		<path style="clip-path:url(#SVGID_2_);fill:#694330;" d="M28.653,27.116c-3.072-0.54-4.368,1.636-4.572,1.698
			c0.453-0.139,0.897-0.224,1.318-0.36c2.238-0.724,4.744,1.346,6.146,0.752c0.479-0.204,1.038-0.561,1.124-1.071
			C31.099,28.612,30.039,27.359,28.653,27.116z"/>
		<path style="clip-path:url(#SVGID_2_);fill:#694330;" d="M46.815,27.24c-1.391,0.211-2.481,1.437-4.04,0.922
			c0.074,0.511,0.624,0.883,1.099,1.097c1.387,0.628,3.097-1.304,5.148-0.726c0.425,0.119,0.539,0.259,0.8,0.533
			C49.794,28.825,49.899,26.773,46.815,27.24z"/>
	</g>
</g>
<g id="Layer_1">
</g>
</svg>
