<?xml version="1.0" encoding="iso-8859-1"?>
<!-- Generator: Adobe Illustrator 16.0.0, SVG Export Plug-In . SVG Version: 6.00 Build 0)  -->
<!DOCTYPE svg PUBLIC "-//W3C//DTD SVG 1.1//EN" "http://www.w3.org/Graphics/SVG/1.1/DTD/svg11.dtd">
<svg version="1.1" xmlns="http://www.w3.org/2000/svg" xmlns:xlink="http://www.w3.org/1999/xlink" x="0px" y="0px"
	 width="66.011px" height="66px" viewBox="0 0 66.011 66" style="enable-background:new 0 0 66.011 66;" xml:space="preserve">
<g id="Layer_24">
	<g>
		<defs>
			<circle id="SVGID_1_" cx="33.011" cy="33" r="33"/>
		</defs>
		<clipPath id="SVGID_2_">
			<use xlink:href="#SVGID_1_"  style="overflow:visible;"/>
		</clipPath>
		<rect style="clip-path:url(#SVGID_2_);fill:#A6C4DD;" width="66" height="65.998"/>
		<path style="clip-path:url(#SVGID_2_);fill:#1E1E29;" d="M44.664,65.701c0.521-3.556,0.646-6.876-1.498-9.356l-1.684,2.075
			c0,0-1.68,3.999-2.175,7.578h5.329C44.644,65.9,44.649,65.803,44.664,65.701z"/>
		<path style="clip-path:url(#SVGID_2_);fill:#1E1E29;" d="M25.65,56.345c-2.145,2.48-2.02,5.801-1.499,9.356
			c0.015,0.102,0.021,0.199,0.028,0.297h5.329c-0.495-3.579-2.175-7.578-2.175-7.578L25.65,56.345z"/>
		<path style="clip-path:url(#SVGID_2_);fill:#1E1E29;" d="M42.353,55.489c-3.428-2.751-12.536-2.45-15.743-0.133
			c-3.664,2.648,1.235,4.467,1.853,10.642h11.534C40.581,60.036,46.061,58.465,42.353,55.489z"/>
		<circle style="clip-path:url(#SVGID_2_);fill:#3A3A4A;" cx="36.582" cy="61.808" r="0.681"/>
		<circle style="clip-path:url(#SVGID_2_);fill:#3A3A4A;" cx="36.502" cy="64.229" r="0.682"/>
		<circle style="clip-path:url(#SVGID_2_);fill:#3A3A4A;" cx="32.257" cy="61.808" r="0.681"/>
		<circle style="clip-path:url(#SVGID_2_);fill:#3A3A4A;" cx="32.337" cy="64.229" r="0.682"/>
		<linearGradient id="SVGID_3_" gradientUnits="userSpaceOnUse" x1="34.4355" y1="52.751" x2="34.4355" y2="56.0379">
			<stop  offset="0" style="stop-color:#EE996D"/>
			<stop  offset="0.0163" style="stop-color:#EE9A6E"/>
			<stop  offset="0.3731" style="stop-color:#F8B181"/>
			<stop  offset="0.7088" style="stop-color:#FDBF8D"/>
			<stop  offset="1" style="stop-color:#FFC491"/>
		</linearGradient>
		<path style="clip-path:url(#SVGID_2_);fill:url(#SVGID_3_);" d="M38.197,54.055c-0.903-0.512-0.699-1.498-0.699-2.586
			c0-3.439-6.127-3.373-6.127,0c0,1.021,0.204,2.074-0.698,2.586c-0.43,0.243-0.994,0.934-0.601,2.152
			c0.471,1.464,2.753,3.037,4.362,3.765c1.609-0.728,3.893-2.301,4.363-3.765C39.191,54.988,38.628,54.298,38.197,54.055z"/>
		<path style="clip-path:url(#SVGID_2_);fill:#918FA0;" d="M34.348,51.741c-2.076,0.028-3.356,0.239-4.037,0.907
			c-1.247,1.226,3.213,5.537,4.109,8.728c1.17-3.7,4.865-6.532,4.36-8.355C38.354,51.481,36.424,51.713,34.348,51.741z"/>
		<path style="clip-path:url(#SVGID_2_);fill:#121219;" d="M38.313,56.218c-2.38,0.051-3.568,2.438-3.894,5.158
			c1.576-2.806,2.517-1.538,3.49-0.313c0.973,1.226,1.958,0.91,3.16-0.453c0.958-1.087,2.541-2.4,1.676-3.575
			C42.746,57.035,40.691,56.167,38.313,56.218z"/>
		<path style="clip-path:url(#SVGID_2_);fill:#3A3A4A;" d="M39.664,53.051c-1.405-0.868-3.135,2.758-4.109,3.882
			c-0.973,1.124-1.081,3.218-1.135,4.443c0,0,0.864-3.217,1.622-3.422c0.757-0.204,2.325,3.116,3.244,3.116
			c0.918,0,3.667-3.242,4.245-4.188C44.108,55.937,41.07,53.919,39.664,53.051z"/>
		<path style="clip-path:url(#SVGID_2_);fill:#121219;" d="M30.527,56.218c-2.379-0.051-4.433,0.817-4.433,0.817
			c-0.866,1.175,0.717,2.488,1.675,3.575c1.202,1.363,2.188,1.679,3.161,0.453c0.973-1.226,2.189-2.373,3.489,0.313
			C34.096,58.655,32.906,56.269,30.527,56.218z"/>
		<path style="clip-path:url(#SVGID_2_);fill:#3A3A4A;" d="M29.176,53.051c-1.406,0.868-4.459,2.872-3.881,3.818
			c0.577,0.945,3.341,4.201,4.259,4.201c0.92,0,2.487-3.32,3.244-3.116c0.757,0.205,1.622,3.422,1.622,3.422
			c-0.054-1.226-0.162-3.319-1.135-4.443C32.312,55.809,30.581,52.183,29.176,53.051z"/>
		<path style="opacity:0.3;clip-path:url(#SVGID_2_);fill:#FFFFFF;" d="M36.645,53.971c-0.053-0.01-0.105-0.012-0.158-0.001
			c-0.298,0.055-0.576,0.23-0.877,0.296c-0.767,0.168-1.544,0.095-2.294-0.106c-0.222-0.06-0.442-0.115-0.661-0.188
			c-0.337-0.11-0.648,0.059-0.333,0.382c0.104,0.104,0.228,0.178,0.349,0.255c0.048,0.03,0.261,0.231,0.302,0.229
			c-0.148,0.009-0.769-0.251-0.626,0.109c0.272,0.681,2.205,0.465,2.77,0.382c-0.504,0.133-1.018,0.24-1.519,0.383
			c-0.652,0.185-0.396,0.616,0.101,0.798c0.563,0.209,1.113-0.138,1.578-0.424c0.283-0.174,0.517-0.406,0.747-0.646
			C36.214,55.237,37.321,54.109,36.645,53.971z"/>
		<path style="clip-path:url(#SVGID_2_);fill:#E0C082;" d="M19.386,23.9C9.234,25.286,8.032,37.686,13.364,43.49
			c4.177,4.549,3.711,7.593,0.358,7.853c1.952,2.118,15.188,7.043,17.813-9.493C34.159,25.313,24.246,23.235,19.386,23.9z"/>
		<path style="clip-path:url(#SVGID_2_);fill:#FFE1A8;" d="M17.716,26.381c-2.604-0.253-6.938,2.797-6.76,9.185
			c0.085,2.972,1.779,6.299,1.779,6.299s-2.238-9.362,6.926-10.31C29.72,30.513,17.716,26.381,17.716,26.381z"/>
		<path style="clip-path:url(#SVGID_2_);fill:#CAA66C;" d="M25.653,33.815c-2.005,1.451-7.264-0.216-4.113,9.65
			c2.226,6.978-0.604,9.486-6.021,8.667c0,0,8.311,4.096,15.04-4.222C37.876,38.865,34.668,27.281,25.653,33.815z"/>
		<path style="clip-path:url(#SVGID_2_);fill:#CAA66C;" d="M20.007,31.887c-1.94-0.198-3.56,1.256-2.984,5.782
			c0.574,4.525,4.787,3.974,4.787,3.974S21.945,32.086,20.007,31.887z"/>
		<path style="clip-path:url(#SVGID_2_);fill:#E0C082;" d="M33.277,9.824c-22.95,0.353-19.186,31.36-9.244,30.366
			c5.079-0.51,3.876-6.435,8.852-7.562c2.443-0.553,4.974-0.536,7.459-0.353c2.417,0.177,6.635,6.955,7.806,5.447
			C50.936,34.129,53.369,9.516,33.277,9.824z"/>
		<path style="clip-path:url(#SVGID_2_);fill:#FFC59A;" d="M34.271,16.609c-10.616,0.341-14.104,7.592-13.832,18.433
			c0.271,10.843,7.785,17.989,15.624,18.471c6.017,0.368,13.609-9.333,12.992-20.162C48.447,22.664,44.476,16.282,34.271,16.609z"/>
		<path style="opacity:0.3;clip-path:url(#SVGID_2_);fill:#D14F2E;" d="M34.372,21.092c-0.913,0.244,0.238,1.871,0.238,1.871
			c0.198-1.114,0.813-0.95,1.445-0.35C36.056,22.613,35.286,20.846,34.372,21.092z"/>
		<path style="opacity:0.3;clip-path:url(#SVGID_2_);fill:#D14F2E;" d="M37.317,20.366c-1.829-0.052-1.255,2.259-1.255,2.259
			c0.38-1.233,1.891-1.405,3.281-0.292C39.344,22.333,39.149,20.42,37.317,20.366z"/>
		<path style="opacity:0.3;clip-path:url(#SVGID_2_);fill:#D14F2E;" d="M25.722,18.559c-8.072,3.159-3.658,18.827-3.658,18.827
			C19.37,15.335,32.874,22.11,34.61,22.963C33.123,20.547,31.433,16.324,25.722,18.559z"/>
		<path style="opacity:0.3;clip-path:url(#SVGID_2_);fill:#D14F2E;" d="M42.116,16.731c-2.079,0.148-2.81,4.117-2.772,5.602
			c2.007-2.722,6.519-2.036,8.572,3.696C48.003,23.739,45.001,16.525,42.116,16.731z"/>
		<path style="clip-path:url(#SVGID_2_);fill:#FFC59A;" d="M18.698,31.861c-2.925,1.305-1.742,7.351,0.649,8.451
			c0.765,0.354,1.579,0.365,2.364,0.245c0.015-0.034,0.029-0.069,0.044-0.105c0.352-0.813-0.279-4.845-0.458-5.674
			C20.846,32.69,20.104,31.234,18.698,31.861z"/>
		<path style="opacity:0.3;clip-path:url(#SVGID_2_);fill:#D14F2E;" d="M19.638,33.883c-0.595-0.321-1.851,0.648-0.994,2.295
			c0.13-1.682,0.861-0.718,0.915,0.451c0.035,0.784-0.465,0.88,0.159,1.79c0.339,0.492,0.859,0.2,1.1-0.136
			C21.58,37.224,20.36,34.274,19.638,33.883z"/>
		<path style="clip-path:url(#SVGID_2_);fill:#E0C082;" d="M30.822,11.231c-10.625,2.07-15.934,17.985-7.583,30.77
			c-1.418-4.219-2.78-15.813-0.113-19.42c2.678-3.622,8.456-1.919,11.484,0.382c0.023-0.473,0.103-0.966,0.243-1.396
			c0.112,0.114,1.062,0.815,1.202,1.047c0.367-1.866,2.255-1.479,3.288-0.28c1.07-4.093,7.167-4.419,9.14,6.164
			c0.22,1.18,0.185-4.578-0.024-5.771C47.49,17.196,40.715,9.304,30.822,11.231z"/>
		<path style="clip-path:url(#SVGID_2_);fill:#FFE1A8;" d="M43.871,13.332c-9.303,8.535-21.043,0.475-21.043,0.475
			c-4.473,2.612-5.608,8.954-5.608,8.954s2.277,1.219,4.294-1.499c2.017-2.72,5.265-2.969,8.948-2.248
			c3.681,0.72,7.011-0.433,11.263-0.939c4.253-0.508,7.023,4.317,7.023,4.317C48.114,17.099,43.871,13.332,43.871,13.332z"/>
		<circle style="clip-path:url(#SVGID_2_);fill:#FFF9F0;" cx="20.271" cy="41.51" r="1.152"/>
		<path style="clip-path:url(#SVGID_2_);fill:#FFB085;" d="M45.516,37.073c-1.066-0.044-2.543,0.331-1.814,2.027
			c0.388,0.905,4.552,1.696,4.332-0.366c-0.023-0.213-0.078-0.398-0.157-0.561C47.455,37.312,46.332,37.109,45.516,37.073z"/>
		<path style="clip-path:url(#SVGID_2_);fill:#FFB085;" d="M28.887,37.939c-0.613-0.887-1.879-0.871-2.78-0.73
			c-1.178,0.181-2.728,0.934-1.631,2.701c0.584,0.943,5.288,0.93,4.683-1.367C29.096,38.308,29.004,38.107,28.887,37.939z"/>
		<path style="opacity:0.3;clip-path:url(#SVGID_2_);fill:#D14F2E;" d="M37.019,38.286c-0.826-0.015-1.153-0.373-1.732-0.072
			c-0.581,0.302,0.659,1.462,1.683,1.408c1.158-0.06,2.12-0.98,1.819-1.336C38.437,37.873,37.938,38.303,37.019,38.286z"/>
		<path style="clip-path:url(#SVGID_2_);fill:#6E4C3C;" d="M41.347,28.622c0,0,1.908-0.186,3.869-0.061
			c1.962,0.125,4.166,0.612,4.166,0.612s-1.828-1.689-4.229-1.832C42.749,27.198,41.347,28.622,41.347,28.622z"/>
		<path style="clip-path:url(#SVGID_2_);fill:#6E4C3C;" d="M21.955,29.238c0,0,2.419-0.534,4.57-0.67
			c2.15-0.139,4.243,0.064,4.243,0.064s-1.538-1.562-4.174-1.403C23.962,27.387,21.955,29.238,21.955,29.238z"/>
		<path style="clip-path:url(#SVGID_2_);fill:#1E4C76;" d="M43.256,32.65c-0.146,1.632,0.222,2.919,1.662,3.061
			c2.037,0.202,2.698-1.507,2.836-2.635C46.834,32.654,44.766,32.444,43.256,32.65z"/>
		<path style="clip-path:url(#SVGID_2_);fill:#9CD0FF;" d="M44.694,32.624c-0.817,0.09-0.478,1.557,0.365,1.206
			C45.671,33.579,45.419,32.546,44.694,32.624z"/>
		<path style="clip-path:url(#SVGID_2_);fill:#121B21;" d="M42.189,32.916c0,0,1.836-0.279,3.612,0
			c3.607,0.569,4.765,0.164,4.765,0.164c-1.952-0.409-3.82-1.377-4.993-1.543C43.429,31.233,42.189,32.916,42.189,32.916z"/>
		<path style="clip-path:url(#SVGID_2_);fill:#1E4C76;" d="M24.347,33.076c0.137,1.128,0.799,2.837,2.836,2.635
			c1.441-0.142,1.808-1.429,1.661-3.061C27.333,32.444,25.268,32.654,24.347,33.076z"/>
		<path style="clip-path:url(#SVGID_2_);fill:#9CD0FF;" d="M26.412,32.735c-0.727-0.08-0.977,0.954-0.367,1.207
			C26.89,34.292,27.229,32.824,26.412,32.735z"/>
		<path style="clip-path:url(#SVGID_2_);fill:#121B21;" d="M26.528,31.537c-1.175,0.166-3.041,1.134-4.994,1.543
			c0,0,1.158,0.405,4.765-0.164c1.776-0.279,3.613,0,3.613,0S28.672,31.233,26.528,31.537z"/>
		<path style="opacity:0.5;clip-path:url(#SVGID_2_);fill:#DE6049;" d="M44.695,42.04c-3.218,1.328-11.277,2.193-17.436,0.281
			c-0.068-0.021-0.136-0.03-0.204-0.029c-0.263,0.007-0.503,0.181-0.587,0.445c-0.104,0.332,0.083,0.686,0.416,0.789
			c6.524,2.026,14.816,1.116,18.294-0.318c0.322-0.135,0.476-0.503,0.343-0.826C45.39,42.061,45.019,41.907,44.695,42.04z"/>
		<path style="clip-path:url(#SVGID_2_);fill:#131413;" d="M50.942,30.854l-0.336,2.04c0,0,1.395-0.255,1.507-0.343
			c0.114-0.09,0.125-1.256,0.117-1.533C52.224,30.743,50.942,30.854,50.942,30.854z"/>
		<path style="opacity:0.1;clip-path:url(#SVGID_2_);" d="M39.675,30.802c-7.633,0.181-20.847,0.466-24.367,1.803l0.398,1.669
			c0,0,2.818,0.621,4.047,0.38c0.353,2.505,1.114,4.777,3.574,5.717c2.296,0.875,6.753,0.476,8.982-1.386
			c1.751-1.462,1.292-2.83,2.878-4.199c1.783-1.54,2.758,0.384,3.288,1.695c0.954,2.353,3.135,3.202,5.528,3.376
			c2.448,0.18,4.307-0.737,5.035-1.943c0.912-1.51,1.87-5.094,0.527-6.382C48.148,30.17,42.002,30.747,39.675,30.802z"/>
		<path style="clip-path:url(#SVGID_2_);fill:#23232D;" d="M52.149,30.874c-0.822-1.02-31.6-0.113-32.494,0.948
			c-0.026,0.032-0.054,0.063-0.081,0.095c-0.021,0.181,0.145,1.401,0.145,1.401s0.189-0.034,0.916-0.052
			c0.317,1.555,0.919,4.171,2.139,5.228c1.946,1.688,7.722,1.354,10.282-0.439c1.866-1.309,1.082-5.058,3.449-5.124
			c1.715-0.047,1.733,3.491,3.374,4.634c2.355,1.641,8.658,1.318,10.059-0.191c1.006-1.085,0.849-3.686,1.035-5.253
			c0.624-0.015,0.589,0.089,1.217,0.046c0.045-0.214,0.064-1.021,0.036-1.2C52.2,30.936,52.175,30.904,52.149,30.874z"/>
		<path style="clip-path:url(#SVGID_2_);fill:#23232D;" d="M18.395,31.8l-3.801,0.985l0.115,1.257l0.997,0.231
			c0,0,3.044-0.475,3.475-0.578c0.444-0.105,0.783,0.121,0.949-0.398c0.149-0.469-0.012-1.238-0.161-1.685L18.395,31.8z"/>
		<path style="clip-path:url(#SVGID_2_);fill:#8B95A8;" d="M23.265,31.822l25.869-0.69C37.219,30.064,23.265,31.822,23.265,31.822z"
			/>
		<path style="clip-path:url(#SVGID_2_);fill:#8B95A8;" d="M39.889,32.37c-1.262,0.552-0.071,2.142-0.071,2.142
			s10.307-1.988,9.684-2.371C48.877,31.757,41.153,31.818,39.889,32.37z"/>
		<path style="clip-path:url(#SVGID_2_);fill:#8B95A8;" d="M22.561,33.195c-1.264,0.553,0.59,3.584,0.59,3.584
			s5.302-0.663,8.484-1.42c2.518-0.6,3.192-2.626,2.918-2.795C33.929,32.182,23.822,32.644,22.561,33.195z"/>
		<polygon style="clip-path:url(#SVGID_2_);fill:#8B95A8;" points="15.195,32.821 18.636,33.058 19.354,32.139 18.482,32.131 		"/>
	</g>
</g>
<g id="Layer_1">
</g>
</svg>
