<?xml version="1.0" encoding="iso-8859-1"?>
<!-- Generator: Adobe Illustrator 16.0.0, SVG Export Plug-In . SVG Version: 6.00 Build 0)  -->
<!DOCTYPE svg PUBLIC "-//W3C//DTD SVG 1.1//EN" "http://www.w3.org/Graphics/SVG/1.1/DTD/svg11.dtd">
<svg version="1.1" xmlns="http://www.w3.org/2000/svg" xmlns:xlink="http://www.w3.org/1999/xlink" x="0px" y="0px"
	 width="66.011px" height="66px" viewBox="0 0 66.011 66" style="enable-background:new 0 0 66.011 66;" xml:space="preserve">
<g id="Layer_27">
	<g>
		<defs>
			<circle id="SVGID_1_" cx="33.011" cy="33" r="33"/>
		</defs>
		<clipPath id="SVGID_2_">
			<use xlink:href="#SVGID_1_"  style="overflow:visible;"/>
		</clipPath>
		<rect style="clip-path:url(#SVGID_2_);fill:#F1C4B5;" width="66" height="66"/>
		<path style="clip-path:url(#SVGID_2_);fill:#FF9819;" d="M39.433,61.262c0.063-1.6-0.336-5.044-2.146-5.734
			c-2.689-1.025-6.795-1.082-9.452,0.057c-2.12,0.906-2.855,2.199-1.409,6.676c0.515,1.59,1.099,1.443,1.206,3.123
			c0.014,0.211,0.007,0.415-0.008,0.617h10.659C38.601,64.066,39.344,63.479,39.433,61.262z"/>
		<path style="clip-path:url(#SVGID_2_);fill:#FF9819;" d="M27.855,58.137l-1.63-3.21c-2.213,1.124-2.783,3.683-3.386,6.394
			c-0.342,1.536-0.722,3.184-1.406,4.68h3.888c0.461-1.34,0.761-2.678,1.033-3.898C26.749,60.326,27.157,58.49,27.855,58.137z"/>
		<path style="clip-path:url(#SVGID_2_);fill:#FF9819;" d="M40.041,54.927l-1.63,3.21c0.698,0.354,1.106,2.189,1.501,3.965
			c0.272,1.221,0.572,2.559,1.033,3.898h3.888c-0.685-1.496-1.064-3.144-1.406-4.68C42.824,58.609,42.254,56.051,40.041,54.927z"/>
		<path style="opacity:0.15;clip-path:url(#SVGID_2_);" d="M40.354,55.748c-0.642-1.201-1.823-2.074-3.379-2.123
			c-1.954-0.06-3.503,0.4-4.444,0.963c1.855,0.922,2.334,6.398,2.489,9.852c0.022,0.496,0.032,1.022,0.037,1.561h5.095
			C40.918,62.045,41.267,57.453,40.354,55.748z"/>
		<path style="clip-path:url(#SVGID_2_);fill:#108D8E;" d="M37.157,53.452c-2.06,0.001-3.68,0.507-4.659,1.097
			c1.976,0.859,3.037,5.168,3.299,10.092c0.02,0.361,0.028,0.832,0.035,1.359h6.816c-0.174-4.069-0.917-8.934-1.881-10.543
			C40.063,54.283,38.799,53.45,37.157,53.452z"/>
		<path style="clip-path:url(#SVGID_2_);fill:#27B3B0;" d="M40.92,60.199c-0.884-0.047-0.592,2.695-0.639,3.285
			c-0.281-0.514-0.485-1.17-0.954-1.533c-0.378,0.633-0.951,1.795-0.904,2.594c-0.307,1.314-1.153-0.285-1.47-0.592
			c0,0-0.047,1.256-0.072,2.047h5.144C42.006,64.055,41.898,60.255,40.92,60.199z"/>
		<path style="opacity:0.15;clip-path:url(#SVGID_2_);" d="M24.461,58.613c2.357,3.734,8.558,4.508,11.547,3.59
			c2.283-0.703,5.507-2.549,6.425-6.387C44.878,45.552,17.795,48.063,24.461,58.613z"/>
		<path style="clip-path:url(#SVGID_2_);fill:#108D8E;" d="M24.012,57.787c2.49,3.705,9.059,4.457,12.229,3.537
			c2.426-0.703,5.846-2.543,6.823-6.359C45.68,44.762,16.969,47.322,24.012,57.787z"/>
		<path style="clip-path:url(#SVGID_2_);fill:#0A6F72;" d="M26.344,52.709c1.737,1.766,6.287,2.756,9.316,2.02
			c1.715-0.42,4.544-0.93,5.304-2.68C42.99,47.369,21.427,47.722,26.344,52.709z"/>
		<path style="clip-path:url(#SVGID_2_);fill:#27B3B0;" d="M36.075,55.592c-0.314-0.365-1.641,0.136-3.078,0.113
			c-2.63-0.041-2.671-0.688-4.083-0.725c-0.312,1.389,2.733,2.17,3.421,2.387c-0.729,0.041-2.247-0.203-2.847,0.402
			c-0.866,0.875-0.021,2.025,0.718,2.311c1.244,0.479,2.604,0.609,3.902,0.346c0.402-0.082,1.391-0.217,1.528-0.803
			c0.104-0.447-0.293-0.428-0.255-0.869c0.03-0.346,0.534-0.553,0.505-1.012c-0.037-0.557-0.394-0.49-0.859-0.518
			C35.383,57.041,36.535,56.125,36.075,55.592z"/>
		<path style="clip-path:url(#SVGID_2_);fill:#323240;" d="M34.149,12.399C0.116,12.278-1.335,52.326,33.45,49.251
			C67.953,46.201,63.626,12.503,34.149,12.399z"/>
		<path style="clip-path:url(#SVGID_2_);fill:#C93712;" d="M19.418,13.427c-5.435,6.742-7.436,15.411-6.172,23.735
			c0.549,3.615,1.713,7.168,3.48,10.467c3.87,7.229,10.749,1.557,17.935,2.236c5.804,0.55,10.479,5.496,13.96-0.39
			c4.94-8.351,4.878-16.586,3.158-25.031C48.258,7.164,27.663,3.2,19.418,13.427z"/>
		<path style="clip-path:url(#SVGID_2_);fill:#FFBC82;" d="M31.398,16.304c-7.609,1.346-13.146,12.153-11.933,22.407
			c0.899,7.607,7.37,15.811,15.191,15.314c9.407-0.596,14.156-11.678,13.192-20.715C46.753,23.045,42.054,14.422,31.398,16.304z"/>
		<path style="opacity:0.2;clip-path:url(#SVGID_2_);fill:#B54319;" d="M44.67,19.385c-4.101-1.712-8.089-2.728-12.614-2.921
			c-2.767-0.119-6.483-0.358-9.094,0.714c-3.907,1.604-5.621,4.13-6.227,8.041c-0.411,2.66,2.221,5.25,4.245,6.947
			c1.483-1.399,0.827-3.337,0.815-5.018c0.016,2.344,6.431,2.169,7.867,1.672c0.796-0.276,1.73-0.641,2.673-1.094
			c2.174-1.046,4.391-2.565,5.058-4.572c1.478,2.366,8.511,7.26,11.158,4.354C50.672,25.182,46.892,20.314,44.67,19.385z"/>
		<path style="clip-path:url(#SVGID_2_);fill:#C93712;" d="M40.889,12.848c-3.943-2.16-8.851-2.019-13.2-1.346
			c-5.138,0.794-9.188,5.208-11.143,9.649c-2.221,5.045-3.913,9.912-3.126,17.004c0.525,4.74,1.849,10.25,7.03,14.795
			c2.952,2.59,7.252,5.514,8.381,9.625c0.791-1.516,0.703-5.395,0.191-6.939c-1.504-4.547-5.932-6.691-7.28-11.374
			c-1.099-3.816-1.706-7.779-0.017-11.538c1.428-3.177,5.056-3.835,8.151-5.219c2.896-1.294,6.258-2.943,7.411-6.169
			c1.5,1.509,3.163,2.998,4.986,4.108c1.771,1.079,3.457,1.484,4.7,3.255c2.231,3.178,2.345,7.597,1.284,11.22
			c-1.402,4.793-4.636,9.482-9.166,13.801c-2.214,2.111-2.407,6.514-0.85,10.338c1.346-8.78,8.448-8.545,11.8-17.246
			c3.645-9.459,1.992-18.538-1.61-24.803C46.365,18.41,44.657,14.913,40.889,12.848z"/>
		<path style="clip-path:url(#SVGID_2_);fill:#E85216;" d="M16.541,25.899c-0.771,0.906,0.498,1.412,1.642,1.637
			c0.753,0.147,3.501-0.458,3.68-1.433c-0.213,1.165-1.206,2.138-1.602,3.292c4.31-0.91,8.956-2.697,12.421-5.576
			c0.58-0.483,4.527-4.475,3.896-5.264c3.247,4.073,7.013,6.671,11.803,4.873C36.971,11.73,19.966,21.877,16.541,25.899z"/>
		<path style="clip-path:url(#SVGID_2_);fill:#E85216;" d="M19.807,42.257c-1.302-2.063-3.556-2.798-4.569-5.183
			c0,0,0.238,9.72,5.285,13.809c-0.332-0.989-0.548-2.202-0.358-3.258C20.529,45.559,21.055,44.236,19.807,42.257z"/>
		<path style="clip-path:url(#SVGID_2_);fill:#E85216;" d="M47.231,46.305c-1.226,0.754-2.143,1.088-2.588,2.631
			c-0.463,1.607,0.408,2.674-0.933,4.539c0,0,5.265-1.57,5.026-8.84C48.381,45.256,47.859,45.92,47.231,46.305z"/>
		<path style="clip-path:url(#SVGID_2_);fill:#535363;" d="M39.896,4.093C36.762,1.864,26.528,2.011,22.929,4.71
			c-2.26,1.693-5.383,11.556-5.383,11.556l29.403-1.554C46.949,14.712,41.403,5.164,39.896,4.093z"/>
		<path style="clip-path:url(#SVGID_2_);fill:#747482;" d="M18.676,12.995c-0.91,2.369-1.13,3.271-1.13,3.271l29.403-1.554
			c0,0-0.707-1.256-2.088-3.494C42.378,7.195,20.563,8.083,18.676,12.995z"/>
		<path style="clip-path:url(#SVGID_2_);fill:#323240;" d="M33.343,11.401C12.121,12.431,7.118,24.597,8.05,33.799
			c0.37,3.658,3.88,1.453,5.062-2.782c4.333-15.534,34.049-20.059,39.476-1.497c1.927,6.591,4.676,6.982,5.204,1.687
			C58.687,22.25,53.301,10.433,33.343,11.401z"/>
		<path style="opacity:0.4;clip-path:url(#SVGID_2_);fill:#FF7752;" d="M46.594,37.086c-0.596-0.861-1.869-1.034-2.78-1.045
			c-1.189-0.014-2.771,0.41-1.713,2.11c0.565,0.904,5.302,1.582,4.749-0.502C46.794,37.436,46.705,37.248,46.594,37.086z"/>
		<path style="opacity:0.4;clip-path:url(#SVGID_2_);fill:#FF7752;" d="M28.473,36.713c-0.828-0.717-2.169-0.559-3.098-0.33
			c-1.211,0.297-2.705,1.145-1.184,2.59c0.811,0.772,5.801,0.217,4.693-1.754C28.77,37.016,28.632,36.85,28.473,36.713z"/>
		<path style="opacity:0.3;clip-path:url(#SVGID_2_);fill:#B54319;" d="M36.073,38.418c-0.978-0.051-0.957-0.457-1.663-0.146
			c-0.707,0.309-0.185,1.501,1.549,1.557c1.726,0.057,2.541-0.927,2.206-1.335C37.778,38.02,37.157,38.478,36.073,38.418z"/>
		<path style="clip-path:url(#SVGID_2_);fill:#261B18;" d="M45.181,31.924c-2.539-1.083-4.856,2.049-3.028,3.68
			c0.366-0.399,2.355-1.041,3.584-0.115C46.778,34.742,46.54,32.506,45.181,31.924z"/>
		<path style="clip-path:url(#SVGID_2_);fill:#947463;" d="M44.129,32.239c-1.182,0.371-0.624,2.639,0.586,1.843
			C45.59,33.509,45.18,31.913,44.129,32.239z"/>
		<path style="clip-path:url(#SVGID_2_);fill:#261B18;" d="M25.066,32.129c-1.342,0.622-1.518,2.864-0.451,3.58
			c1.2-0.963,3.206-0.379,3.585,0.01C29.979,34.037,27.572,30.972,25.066,32.129z"/>
		<path style="clip-path:url(#SVGID_2_);fill:#947463;" d="M27.174,32.441c-1.061-0.294-1.424,1.312-0.532,1.859
			C27.873,35.061,28.365,32.777,27.174,32.441z"/>
		<path style="clip-path:url(#SVGID_2_);fill:#261B18;" d="M28.735,28.768c-1.343-0.056-2.62-0.065-3.958,0.229
			c-0.832,0.184-1.838,0.565-2.494,1.069c-0.219,0.171-0.492,0.469-0.48,0.733c0.218,0.034,0.385-0.103,0.585-0.159
			c1.013-0.281,2.077-0.312,3.114-0.332c0.811-0.016,1.614,0.042,2.422,0.003c0.543-0.023,1.281,0.086,1.575-0.442
			C29.869,29.201,29.457,28.798,28.735,28.768z"/>
		<path style="clip-path:url(#SVGID_2_);fill:#261B18;" d="M47.233,29.689c-0.646-0.459-1.631-0.788-2.442-0.933
			c-1.309-0.233-2.552-0.173-3.858-0.068c-0.706,0.057-1.1,0.461-0.73,1.088c0.293,0.498,1.013,0.365,1.54,0.366
			c0.789,0.003,1.571-0.082,2.358-0.097c1.011-0.022,2.052-0.034,3.039,0.198c0.197,0.047,0.36,0.171,0.571,0.13
			C47.72,30.12,47.451,29.845,47.233,29.689z"/>
		<path style="clip-path:url(#SVGID_2_);fill:#121B21;" d="M44.675,31.49c-2.341-0.424-3.003,1.879-3.003,1.879
			s1.135-1.459,2.654-0.811c3.448,1.472,5.273-0.975,5.273-0.975C47.138,32.734,45.873,31.707,44.675,31.49z"/>
		<path style="clip-path:url(#SVGID_2_);fill:#121B21;" d="M25.656,31.746c-1.195,0.23-2.449,1.271-4.924,0.146
			c0,0,1.85,2.427,5.283,0.918c1.514-0.666,2.662,0.782,2.662,0.782S27.991,31.295,25.656,31.746z"/>
		<path style="clip-path:url(#SVGID_2_);fill:#FF3B3B;" d="M24.896,41.631c4.249,6.241,6.829,7.365,10.078,7.507
			c4.074,0.176,5.427-2.425,6.016-4.37c0.25-0.821,2.279-2.957,3.071-3.447c-2.529,0.598-5.029,0.334-8.854,0.5
			C32.043,41.96,27.411,42.898,24.896,41.631z"/>
		<path style="clip-path:url(#SVGID_2_);fill:#8F2621;" d="M26.828,42.701c0,0,2.562,4.203,7.625,4.231
			c3.245,0.017,5.365-1.009,5.948-2.452c0.638-1.578,2.011-2.164,2.011-2.164C33.608,44.465,26.828,42.701,26.828,42.701z"/>
		<path style="clip-path:url(#SVGID_2_);fill:#FFF9F0;" d="M28.714,43.055c0,0,0.171,1.278,1.979,1.749
			c2.319,0.604,4.81,0.61,7.372,0.202c1.727-0.273,2.552-2.297,2.552-2.297S35.685,43.882,28.714,43.055z"/>
		<path style="clip-path:url(#SVGID_2_);fill:#FFF9F0;" d="M35.717,45.205c-2.315,0.11-4.241-0.011-5.409-0.695
			c-0.834-0.487-0.902,0.05-0.72,0.382c0,0,0.773,1.747,4.621,2.101c3.699,0.34,5.583-1.782,5.157-2.141
			C38.939,44.494,37.862,45.102,35.717,45.205z"/>
		<path style="clip-path:url(#SVGID_2_);fill:#E8DAC5;" d="M28.714,43.055c0,0,0.138,0.592,0.472,0.896
			c0,0,8.654-0.805,10.735-0.115c0,0,0.601-0.715,0.695-1.127C40.616,42.709,34.576,43.836,28.714,43.055z"/>
		<path style="clip-path:url(#SVGID_2_);fill:#E8DAC5;" d="M31.001,44.76c3.129,1.711,6.829,0.187,6.829,0.187
			C33.93,45.833,31.001,44.76,31.001,44.76z"/>
	</g>
</g>
<g id="Layer_1">
</g>
</svg>
