<?xml version="1.0" encoding="iso-8859-1"?>
<!-- Generator: Adobe Illustrator 16.0.0, SVG Export Plug-In . SVG Version: 6.00 Build 0)  -->
<!DOCTYPE svg PUBLIC "-//W3C//DTD SVG 1.1//EN" "http://www.w3.org/Graphics/SVG/1.1/DTD/svg11.dtd">
<svg version="1.1" xmlns="http://www.w3.org/2000/svg" xmlns:xlink="http://www.w3.org/1999/xlink" x="0px" y="0px"
	 width="66.011px" height="66px" viewBox="0 0 66.011 66" style="enable-background:new 0 0 66.011 66;" xml:space="preserve">
<g id="Layer_26">
	<g>
		<defs>
			<circle id="SVGID_1_" cx="33.011" cy="33" r="33"/>
		</defs>
		<clipPath id="SVGID_2_">
			<use xlink:href="#SVGID_1_"  style="overflow:visible;"/>
		</clipPath>
		<rect style="clip-path:url(#SVGID_2_);fill:#FFFFFF;" width="66" height="66"/>
		<path style="clip-path:url(#SVGID_2_);fill:#1E1E29;" d="M15.668,66h7.383l-0.487-13.105C19.928,54.409,15.81,56.059,15.668,66z"
			/>
		<path style="clip-path:url(#SVGID_2_);fill:#1E1E29;" d="M44.778,52.895L44.291,66h7.383
			C51.532,56.059,47.414,54.409,44.778,52.895z"/>
		<path style="clip-path:url(#SVGID_2_);fill:#CA3564;" d="M41.467,51.275c-4.894-2.627-12.026-1.723-15.278,0.393
			c-4.806,3.127-4.16,6.469-3.063,14.332h21.018C45.363,58.847,46.208,53.822,41.467,51.275z"/>
		<path style="clip-path:url(#SVGID_2_);fill:#1E1E29;" d="M21.468,53.508c-0.22,0.572-0.417,6.783-0.421,12.492h8.367
			c-0.967-5.166-2.361-11.105-3.611-15.166C25.803,50.834,21.88,52.434,21.468,53.508z"/>
		<path style="clip-path:url(#SVGID_2_);fill:#3A3A4A;" d="M20.779,53.604c0.056,0.662,6.615,2.627,6.449,1.965
			c-0.167-0.662-0.909-5.51-0.909-5.51C22.242,50.34,20.725,52.939,20.779,53.604z"/>
		<path style="clip-path:url(#SVGID_2_);fill:#3A3A4A;" d="M22.242,57.371c0.152,0.428,2.336,4.494,4.448,8.629h2.944
			c-0.819-5.441-1.903-9.939-2.573-11.094C26.552,54.027,21.966,56.598,22.242,57.371z"/>
		<circle style="clip-path:url(#SVGID_2_);fill:#FFFFFF;" cx="21.931" cy="52.896" r="0.556"/>
		<circle style="clip-path:url(#SVGID_2_);fill:#FFFFFF;" cx="24.153" cy="51.705" r="0.555"/>
		<circle style="clip-path:url(#SVGID_2_);fill:#FFFFFF;" cx="24.112" cy="53.688" r="0.556"/>
		<circle style="clip-path:url(#SVGID_2_);fill:#FFFFFF;" cx="23.557" cy="57.616" r="0.556"/>
		<circle style="clip-path:url(#SVGID_2_);fill:#FFFFFF;" cx="25.66" cy="56.981" r="0.556"/>
		<circle style="clip-path:url(#SVGID_2_);fill:#FFFFFF;" cx="25.501" cy="59.283" r="0.555"/>
		<circle style="clip-path:url(#SVGID_2_);fill:#FFFFFF;" cx="25.383" cy="61.546" r="0.556"/>
		<circle style="clip-path:url(#SVGID_2_);fill:#FFFFFF;" cx="27.208" cy="63.529" r="0.555"/>
		<circle style="clip-path:url(#SVGID_2_);fill:#FFFFFF;" cx="27.406" cy="60.79" r="0.556"/>
		<path style="clip-path:url(#SVGID_2_);fill:#1E1E29;" d="M46.005,53.508c-0.412-1.074-4.35-2.674-4.35-2.674
			c-1.249,4.061-2.641,10-3.603,15.166h8.373C46.422,60.291,46.225,54.08,46.005,53.508z"/>
		<path style="clip-path:url(#SVGID_2_);fill:#3A3A4A;" d="M41.153,50.059c0,0-0.742,4.848-0.908,5.51s6.393-1.303,6.448-1.965
			C46.749,52.939,45.23,50.34,41.153,50.059z"/>
		<path style="clip-path:url(#SVGID_2_);fill:#3A3A4A;" d="M40.411,54.906c-0.67,1.154-1.754,5.652-2.572,11.094h2.944
			c2.111-4.135,4.295-8.201,4.447-8.629C45.507,56.598,40.921,54.027,40.411,54.906z"/>
		<circle style="clip-path:url(#SVGID_2_);fill:#FFFFFF;" cx="45.512" cy="52.896" r="0.556"/>
		<circle style="clip-path:url(#SVGID_2_);fill:#FFFFFF;" cx="43.29" cy="51.705" r="0.555"/>
		<circle style="clip-path:url(#SVGID_2_);fill:#FFFFFF;" cx="43.329" cy="53.688" r="0.556"/>
		<circle style="clip-path:url(#SVGID_2_);fill:#FFFFFF;" cx="43.884" cy="57.616" r="0.556"/>
		<circle style="clip-path:url(#SVGID_2_);fill:#FFFFFF;" cx="41.782" cy="56.981" r="0.556"/>
		<circle style="clip-path:url(#SVGID_2_);fill:#FFFFFF;" cx="41.94" cy="59.283" r="0.555"/>
		<circle style="clip-path:url(#SVGID_2_);fill:#FFFFFF;" cx="42.06" cy="61.546" r="0.556"/>
		<circle style="clip-path:url(#SVGID_2_);fill:#FFFFFF;" cx="40.234" cy="63.529" r="0.555"/>
		<circle style="clip-path:url(#SVGID_2_);fill:#FFFFFF;" cx="40.036" cy="60.79" r="0.556"/>
		<path style="clip-path:url(#SVGID_2_);fill:#B51B4C;" d="M32.905,44.811c-9.076,0-9.053,13.113,0.776,13.113
			C42.872,57.924,45.528,44.811,32.905,44.811z"/>
		<path style="clip-path:url(#SVGID_2_);fill:#CA3564;" d="M32.842,44.371c-9.684,0-9.66,12.418,0.829,12.418
			C43.477,56.789,46.312,44.371,32.842,44.371z"/>
		<path style="clip-path:url(#SVGID_2_);fill:#EBA971;" d="M48.397,34.031c-1.739-0.667-2.832,0.426-3.402,2.59
			c-0.229,0.859-0.864,5.451-0.434,6.299c0.019,0.039,0.039,0.074,0.057,0.111c0.49,1.248,1.208,1.658,2.16,1.301
			C49.753,43.215,52.021,35.42,48.397,34.031z"/>
		<path style="clip-path:url(#SVGID_2_);fill:#D99A64;" d="M16.978,21.047c-1.03,4.857-1.261,11.303,1.078,15.947
			c1.221,2.426,4.136,0.807,6.192,0.297c2.529-0.627,5.074-1.197,7.62-1.758c4.182-0.924,8.77-0.004,13.014,0.398
			c3.323,0.316,3.567,1.871,3.571-0.834c0.002-3.351,0.859-8.878,0.007-12.557C44.313,4.649,19.454,9.361,16.978,21.047z"/>
		<path style="clip-path:url(#SVGID_2_);fill:#FFBC82;" d="M31.47,15.09c-11.854,1.614-13.729,12.457-12.574,23.085
			c0.864,7.961,6.748,16.828,15.98,16.422c9.419-0.414,14.414-11.949,13.463-21.735C47.305,22.221,45.017,13.247,31.47,15.09z"/>
		<path style="clip-path:url(#SVGID_2_);fill:#FFBC82;" d="M16.275,33.701c-3.892,1.028-2.128,9.825,0.784,11.528
			c1.158,0.678,2.955-0.043,3.096-2.332c0.661-1.063,0.292-3.99-0.361-6.529C19.263,34.309,18.143,33.208,16.275,33.701z"/>
		<path style="opacity:0.4;clip-path:url(#SVGID_2_);fill:#B54D26;" d="M17.571,35.799c-0.854-0.422-3.035,0.238-2.065,1.959
			c0.579-1.555,1.508-0.5,1.331,0.611c-0.119,0.746-0.923,0.734-0.149,1.719c0.417,0.531,1.298,0.361,1.747,0.096
			C19.862,39.336,18.616,36.314,17.571,35.799z"/>
		<path style="clip-path:url(#SVGID_2_);fill:#261B18;" d="M26.341,31.35c-2.637-0.671-3.915,2.744-2.063,3.736
			c0.796-0.217,1.764-0.203,2.548,0.025C28.478,34.367,28.303,31.85,26.341,31.35z"/>
		<path style="opacity:0.4;clip-path:url(#SVGID_2_);fill:#B54D26;" d="M36.206,38.463c-1.232,0.045-1.733-0.508-2.585,0.027
			c-0.851,0.529,0.419,2.145,2.601,2.016c2.171-0.125,3.082-1.641,2.616-2.186C38.298,37.686,37.573,38.418,36.206,38.463z"/>
		<path style="clip-path:url(#SVGID_2_);fill:#FFD4AD;" d="M35.64,32.908c-1,0.159-2.218,5.524-1.66,5.907
			c1.363,0.938,4.123,0.381,4.858-0.494C39.126,37.975,36.769,32.732,35.64,32.908z"/>
		<path style="clip-path:url(#SVGID_2_);fill:#261B18;" d="M46.399,31.68c-2.563-1.199-4.615,2.455-2.505,3.539
			c0.694-0.316,2.059-0.188,2.713,0.051C47.685,34.441,47.774,32.324,46.399,31.68z"/>
		<path style="opacity:0.7;clip-path:url(#SVGID_2_);fill:#E6D2C3;" d="M25.489,31.98c-1.012,0.313-0.075,1.752,0.882,1.158
			C27.064,32.711,26.389,31.701,25.489,31.98z"/>
		<path style="opacity:0.7;clip-path:url(#SVGID_2_);fill:#E6D2C3;" d="M45.366,32.063c-1.032,0.13-0.596,1.62,0.471,1.222
			C46.607,32.997,46.284,31.948,45.366,32.063z"/>
		<path style="clip-path:url(#SVGID_2_);fill:#80523A;" d="M25.083,27.243c-0.555,0.097-4.437,1.646-3.229,2.254
			c0.26,0.132,0.514,0.187,0.764,0.191c0.58,0.011,1.135-0.253,1.675-0.483c1.004-0.43,2.207-0.561,3.268-0.271
			c0.595,0.161,1.99,0.532,2.229-0.335C30.266,26.859,25.903,27.102,25.083,27.243z"/>
		<path style="clip-path:url(#SVGID_2_);fill:#80523A;" d="M45.658,27.087c-0.766-0.101-4.857-0.123-4.434,1.574
			c0.212,0.851,1.532,0.409,2.091,0.223c1.052-0.355,2.262-0.248,3.262,0.183c0.222,0.096,0.855,0.348,1.415,0.438
			c0.603,0.097,1.12,0.007,0.944-0.668C48.7,27.937,46.467,27.193,45.658,27.087z"/>
		<path style="clip-path:url(#SVGID_2_);fill:#FFD4AD;" d="M47.535,37.465c-0.619-0.885-1.939-1.061-2.883-1.068
			c-1.232-0.008-2.868,0.439-1.764,2.195c0.59,0.934,5.497,1.613,4.915-0.543C47.744,37.826,47.653,37.635,47.535,37.465z"/>
		<path style="clip-path:url(#SVGID_2_);fill:#FFD4AD;" d="M28.579,36.959c-0.834-0.771-2.228-0.652-3.195-0.447
			c-1.266,0.266-2.841,1.09-1.314,2.641c0.813,0.826,5.996,0.422,4.917-1.658C28.874,37.283,28.737,37.104,28.579,36.959z"/>
		<path style="opacity:0.4;clip-path:url(#SVGID_2_);fill:#B54D26;" d="M35.397,41.543c-5.694,0.334-7.834-0.662-9.258-0.688
			c0.82,5.832,4.522,9.986,8.658,10c2.174,0.008,5.184-0.199,6.78-2.813c0.622-1.018,0.746-2.096,1.037-3.262
			c0.479-1.922,1.03-2.918,2.329-4.059c-0.114-0.164-0.242-0.297-0.38-0.396C43.397,39.473,41.995,41.154,35.397,41.543z"/>
		<path style="clip-path:url(#SVGID_2_);fill:#8F2722;" d="M27.019,41.756c0,0,1.713,8.168,8.166,7.799
			c5.813-0.334,6.707-3.146,7.111-5.109c0.539-2.629,2.183-3.686,2.183-3.686C34.355,44.305,27.019,41.756,27.019,41.756z"/>
		<path style="clip-path:url(#SVGID_2_);fill:#FFF7EB;" d="M28.728,42.273c0,0-0.015,1.814,1.947,2.357
			c2.515,0.697,5.359,0.736,8.283,0.121c1.971-0.416,3.033-3.025,3.033-3.025S36.163,43.061,28.728,42.273z"/>
		<path style="clip-path:url(#SVGID_2_);fill:#FFF7EB;" d="M36.245,47.891c-2.236-0.023-4.14-0.35-5.156-0.762
			c-0.846-0.346-0.889,0.104-0.756,0.51c0,0,0.159,1.643,4.212,2.031c3.542,0.34,5.249-1.691,4.884-2.127
			C39.063,47.107,38.482,47.916,36.245,47.891z"/>
		<path style="clip-path:url(#SVGID_2_);fill:#E8DAC5;" d="M28.728,42.273c0,0-0.024,0.566,0.278,1.059
			c0,0,10.019-0.953,12.306-0.389c0,0,0.555-0.852,0.68-1.217C41.991,41.727,36.691,43.008,28.728,42.273z"/>
		<path style="clip-path:url(#SVGID_2_);fill:#E8DAC5;" d="M31.423,47.492c3.396,1.654,7.392,0.297,7.392,0.297
			C34.403,48.514,31.423,47.492,31.423,47.492z"/>
		<path style="clip-path:url(#SVGID_2_);fill:#D99A64;" d="M32.629,13.011c-9.615-0.079-16.453,6.824-15.815,20.587
			c0.4-0.012,1.224-0.012,1.821,0.578c0.798,0.783,0.769,1.641,0.986,2.072c0.103,0.219,0.218,0.584,0.977,0.545
			c-1.429-4.624-0.604-11.114,0.968-13.222c3.896-5.228,12.654,1.84,15.557,1.732c2.19-0.079,7.463-6.668,9.552-1.72
			C48.097,26.957,48.059,13.14,32.629,13.011z"/>
		<path style="clip-path:url(#SVGID_2_);fill:#3A3A4A;" d="M18.02,41.109c-0.909,0-1.646,0.736-1.646,1.646
			c0,0.912,0.737,1.646,1.646,1.646c0.91,0,1.647-0.734,1.647-1.646C19.667,41.846,18.93,41.109,18.02,41.109z"/>
		<path style="clip-path:url(#SVGID_2_);fill:#4F3E38;" d="M41.692,20.227c2.241-3.616-1.226-8.519-4.189-10.475
			c-4.507-2.974-12.227-3.729-16.594-0.079c-1.201,1.005-1.717,2.169-1.976,3.734c-0.511-0.444-1.62-0.841-2.29-0.85
			c1.463,1.212,2.816,2.92,3.167,3.289c3.293-1.306,7.47,1.467,9.619,3.648c1.283,1.301,1.647,2.825,3.357,4.3
			c0.908,0.782,2.189,0.813,3.647,2.605c0.613-1.387,1.608-1.21,3.146-2.279s2.545-3.146,5.043-3.723
			C43.215,19.758,42.177,20.069,41.692,20.227z"/>
		<path style="clip-path:url(#SVGID_2_);fill:#FF697C;" d="M46.59,9.539c-1.071,0.151-3.106,0.728-4.128,0.787
			c0.216-1.683-0.212-2.654-1.256-3.99c-0.451,0.574-1.975,2.233-2.643,2.612c-0.621-1.454-0.942-1.762-1.227-3.539
			c-0.379,0.452-2.052,1.964-2.632,2.257c-0.415-0.998-1.437-2.854-2.516-3.424c-1.279,4.008-2.468,0.69-3.94,0.382
			c-0.14,0.811-0.206,1.729-0.558,2.453c-0.536-0.727-1.573-2.25-2.047-1.174c-0.133,0.301-0.221,1.077-0.648,1.188
			c-0.554,0.143-1.515-2.376-2.784,0.699c-0.193,0.468-0.655,1.479-1.223,1.598c-0.547,0.116-1.001-0.759-1.546-0.37
			c-0.292,0.207-0.519,1.069-0.556,1.399c-0.342-0.377-0.917-0.485-1.414-0.525c0.129,0.488,0.483,0.913,0.705,1.368
			c0.34,0.701,0.674,2.258,1.684,2.268c0.886,0.009,1.475-1.103,1.468-1.865c0.417,2.345,2.824,1.732,3.299-0.203
			c0.967,1.022,1.63,2.584,3.047,3.079c1.797,0.63,2.631-2.047,3.83-1.731c0.811,0.214,0.136,2.541,0.875,2.854
			c0.773,0.326,1.466-1.648,2.979-2.253c-0.387,1.357,0.096,6.377,0.096,6.377s1.583-1.191,2.578-2.198
			c0.731-0.741,1.999-1.421,3.013-0.932c-1.689,2.22,2.514,3.22,3.184,0.793c-1.985,0.118-2.091-0.537-1.181-2.046
			C43.841,14.083,45.608,10.929,46.59,9.539z"/>
		<path style="clip-path:url(#SVGID_2_);fill:#FF8F9D;" d="M40.403,12.836c0.046-1.1,0.822-3.537,0.434-4.211
			c-1.188,2.331-3.957,2.733-4.686-0.477c-0.499,0.798-0.941,1.38-1.926,0.757c-0.661-0.419-1.333-1.629-1.456-2.364
			c-0.75,2.021-2.791,1.304-3.894-0.096c0.006,0.756-0.521,2.089-1.408,2.074c-0.85-0.014-0.937-0.923-1.218-1.523
			c-0.468,1.688-1.71,1.576-2.853,0.73c-0.452,1.271-1.924,3.289-3.551,2.407c0.139,1.671,1.453,1.143,2.2,0.082
			c0.61,0.346,0.49,0.712,1.145,0.543c0.541-0.14,0.805-0.636,0.94-1.135c1.341,1.655,3.01,2.387,4.353,0.097
			c0.601,2.688,2.092,1.026,3.045,1.714c0.542,0.393,1.565,1.063,1.991,0.15c0.354,0.631,0.298,1.075,1.065,1.177
			c0.556,0.074,1.4-0.303,1.819-0.635c0.359,1.583,1.724,2.949,3.41,3.103c2.193,0.198,4.792-3.008,4.198-4.24
			C43.406,11.5,41.177,13.017,40.403,12.836z"/>
		<path style="clip-path:url(#SVGID_2_);fill:#3A3A4A;" d="M49.093,25.059c-1.291,0.066-2.344,0.904-2.68,2.136l1.736,0.475
			c0.155-0.567,0.636-0.792,1.035-0.812c0.194-0.011,0.879,0.019,1.19,0.83c0.294,0.764,0.013,1.363-0.396,1.619
			c-0.187,0.117-0.671,0.324-1.19-0.232l-1.318,1.225c0.577,0.621,1.317,0.944,2.062,0.944c0.479,0,0.961-0.135,1.401-0.41
			c1.226-0.766,1.688-2.325,1.122-3.792C51.565,25.77,50.389,24.996,49.093,25.059z"/>
	</g>
</g>
<g id="Layer_1">
</g>
</svg>
