<?xml version="1.0" encoding="iso-8859-1"?>
<!-- Generator: Adobe Illustrator 16.0.0, SVG Export Plug-In . SVG Version: 6.00 Build 0)  -->
<!DOCTYPE svg PUBLIC "-//W3C//DTD SVG 1.1//EN" "http://www.w3.org/Graphics/SVG/1.1/DTD/svg11.dtd">
<svg version="1.1" xmlns="http://www.w3.org/2000/svg" xmlns:xlink="http://www.w3.org/1999/xlink" x="0px" y="0px"
	 width="66.004px" height="66px" viewBox="0 0 66.004 66" style="enable-background:new 0 0 66.004 66;" xml:space="preserve">
<g id="Layer_61">
	<g>
		<defs>
			<circle id="SVGID_1_" cx="33.004" cy="33" r="33"/>
		</defs>
		<clipPath id="SVGID_2_">
			<use xlink:href="#SVGID_1_"  style="overflow:visible;"/>
		</clipPath>
		<rect style="clip-path:url(#SVGID_2_);fill:#FFFFFF;" width="66" height="65.998"/>
		<path style="clip-path:url(#SVGID_2_);fill:#C4BAB1;" d="M22.68,60.627c0.991-0.647,2.302-6.423,1.274-6.421
			c-3.849,0.009-10.083,6.078-9.915,11.792h5.223C19.435,63.885,20.935,61.765,22.68,60.627z"/>
		<path style="clip-path:url(#SVGID_2_);fill:#765AA3;" d="M24.096,53.608c-3.557,1.074-8.248,3.973-10.009,9.083
			c1.525,1.147,4.015,2.276,5.813,2.629c0.479-1.872,1.362-3.642,2.921-4.658C23.855,59.986,25.123,53.297,24.096,53.608z"/>
		<path style="clip-path:url(#SVGID_2_);fill:#C4BAB1;" d="M40.978,54.206c-1.027-0.002,0.284,5.773,1.275,6.421
			c1.744,1.138,3.245,3.258,3.418,5.371h5.222C51.062,60.284,44.827,54.215,40.978,54.206z"/>
		<path style="clip-path:url(#SVGID_2_);fill:#765AA3;" d="M40.837,53.608c-1.028-0.312,0.24,6.378,1.274,7.054
			c1.559,1.017,2.442,2.786,2.921,4.658c1.799-0.353,4.288-1.481,5.813-2.629C49.085,57.581,44.394,54.683,40.837,53.608z"/>
		<path style="clip-path:url(#SVGID_2_);fill:#85B428;" d="M41.005,53.292c-3.253-1.991-14.662-2.195-17.452,0.185
			c-1.719,1.468-1.817,6.399-1.721,11.016c0.011,0.508,0.021,1.011,0.036,1.506h21.621c0.021-0.395,0.041-0.793,0.062-1.196
			C43.791,60.14,43.948,55.094,41.005,53.292z"/>
		<path style="clip-path:url(#SVGID_2_);fill:#588A17;" d="M22.909,62.503c6.879,1.172,15.002,1.147,19.741-0.165
			C36.455,62.084,27.599,62.362,22.909,62.503z"/>
		<path style="clip-path:url(#SVGID_2_);fill:#ACD14B;" d="M38.09,50.161c-2.282-0.397-4.799-0.006-7.091,0.16
			c-1.57,0.113-4.27-0.089-5.146,1.644c-0.498,0.983-0.211,1.86,0.542,2.53c1.593,1.416,4.564,1.911,6.594,1.804
			c1.56-0.082,3.961-0.271,5.356-1.003C40.718,54.049,41.034,50.674,38.09,50.161z"/>
		<path style="clip-path:url(#SVGID_2_);fill:#588A17;" d="M34.655,54.67l-2.698,0.081c0.053,1.693,0.48,5.993,0.485,11.247h2.444
			C34.947,62.41,34.915,58.378,34.655,54.67z"/>
		<path style="clip-path:url(#SVGID_2_);fill:#EBEBEB;" d="M34.111,54.429l-1.646,0.026c0.031,1.705,0.335,6.158,0.368,11.543h1.536
			C34.398,62.326,34.35,58.193,34.111,54.429z"/>
		<path style="clip-path:url(#SVGID_2_);fill:#ACD14B;" d="M28.945,57.6c-1.356-0.077-4.832-0.266-5.749,0.914
			c-1.624,2.087,3.74,2.774,5.015,2.663c1.187-0.104,2.86-0.779,3.043-2.067C31.454,57.693,30.12,57.668,28.945,57.6z"/>
		<path style="clip-path:url(#SVGID_2_);fill:#588A17;" d="M37.432,50.628c-1.92-0.269-4.035-0.004-5.963,0.106
			c-1.321,0.077-3.592-0.06-4.329,1.107c-0.418,0.663-0.177,1.254,0.456,1.705c1.34,0.954,3.839,1.288,5.546,1.216
			c1.311-0.056,3.331-0.183,4.505-0.677C39.643,53.247,39.909,50.973,37.432,50.628z"/>
		<path style="clip-path:url(#SVGID_2_);fill:#ACD14B;" d="M24.495,64.375c-1.072,0.365-1.285,1.014-0.99,1.623h7.962
			c0.001-0.01,0.005-0.017,0.005-0.027C31.547,63.729,25.569,64.011,24.495,64.375z"/>
		<path style="clip-path:url(#SVGID_2_);fill:#ACD14B;" d="M42.205,64.266c-1.312-0.654-3.86-0.355-4.705-0.222
			c-0.928,0.147-1.953,0.696-1.71,1.954h7.035c0.134-0.221,0.204-0.465,0.169-0.738C42.935,64.799,42.637,64.48,42.205,64.266z"/>
		<path style="clip-path:url(#SVGID_2_);fill:#ACD14B;" d="M42.223,57.916c-1.298-0.681-3.852-0.436-4.7-0.319
			c-0.979,0.135-2.097,0.704-1.718,2.12c0.307,1.144,1.872,1.229,2.798,1.364c0.974,0.144,4.574-0.44,4.389-2.155
			C42.941,58.465,42.65,58.141,42.223,57.916z"/>
		<path style="clip-path:url(#SVGID_2_);fill:#BA9552;" d="M46.82,15.38c1.503-0.383,1.157-4.145,1.039-5.142
			c-0.113-0.938-0.309-1.932-0.646-2.866c-0.387-1.073-0.959-2.069-1.803-2.818c-1.438,2.916-5.413,4.499-8.492,3.964
			c0.432-0.378,0.754-0.898,0.742-1.482c-1.225,0.261-2.356,0.837-3.594,1.068c-4.907,0.916-9.804,1.05-13.92,4.363
			c-5.801,4.669-4.937,12.258-3.772,18.65c0.63,3.46,1.196,7.364,2.811,10.52c1.169,2.286,2.339,1.323,4.054,0.418
			c2.221-1.171,5.5-1.369,7.963-1.485c2.54-0.119,6.245-0.33,8.604,0.777c1.544,0.726,2.358,1.314,3.938,0.105
			c1.149-0.881,2.002-2.296,2.595-3.597c0.956-2.096,0.987-4.194,1.169-6.448c0.235-2.907,0.989-5.31,0.756-8.227
			c-0.082-1.022-1.326-4.931,0.941-8.236C48.412,15.024,47.604,15.182,46.82,15.38z"/>
		<path style="clip-path:url(#SVGID_2_);fill:#FFCB9E;" d="M30.047,15.099c-7.799,1.522-13.296,12.737-11.864,23.26
			c1.073,7.882,7.151,16.526,16.309,15.876c9.342-0.666,13.99-12.252,12.782-21.944C45.962,21.752,40.972,12.968,30.047,15.099z"/>
		<path style="opacity:0.15;clip-path:url(#SVGID_2_);fill:#BF3C1B;" d="M40.099,16.756c-3.073-0.919-6.249-1.429-9.459-1.485
			c-2.848-0.049-5.941-0.209-8.596,0.992c-1.459,0.66-3.25,1.565-3.795,3.18c-0.447,1.323-0.326,2.859-0.262,4.232
			c0.06,1.259,0.086,2.619,0.367,3.855c0.214,0.945,0.901,2.086,1.633,2.752c1.178-2.334,1.628-6.091,4.393-7.1
			c1.949-0.714,4.76-0.218,6.796,0.36c0.141,0.041,0.275,0.081,0.409,0.121c3.52,1.071,5.692,2.091,9.493,1.155
			c2.132-0.525,6.456-1.577,5.568-4.557C45.942,17.904,42.127,17.364,40.099,16.756z"/>
		<path style="clip-path:url(#SVGID_2_);fill:#FFCB9E;" d="M15.462,33.976c-3.831,1.053-2.293,6.645,0.836,7.768
			c1.002,0.36,2.066,0.41,3.094,0.338c0.019-0.031,0.04-0.063,0.062-0.095c0.457-0.728-0.184-4.805-0.419-5.572
			C18.446,34.482,17.3,33.468,15.462,33.976z"/>
		<path style="opacity:0.3;clip-path:url(#SVGID_2_);fill:#BF3C1B;" d="M16.806,36.034c-0.86-0.397-3.01,0.316-1.999,2
			c0.533-1.561,1.483-0.537,1.338,0.571c-0.098,0.744-0.896,0.755-0.103,1.709c0.43,0.517,1.3,0.323,1.738,0.048
			C19.175,39.484,17.856,36.518,16.806,36.034z"/>
		<path style="clip-path:url(#SVGID_2_);fill:#BA9552;" d="M41.382,12.937c-3.293-2.791-7.215-3.238-11.353-2.281
			c-2.527,0.585-5.411,0.932-7.518,2.563c-1.715,1.327-3.551,2.742-4.756,4.575c-2.014,3.061-1.002,15.176,0.327,16.962
			c0.145,0.191,1.753,2.187,2.505,2.128c-0.383-2.606-0.398-5.289-0.212-7.913c0.25-3.524,1.063-7.33,5.085-7.965
			c2.287-0.362,9.554,2.767,11.212,3.116c2.222,0.47,7.434-2.016,8.19-2.33c1.869-0.777,1.759-2.913,0.881-4.377
			C44.658,15.604,42.972,14.285,41.382,12.937z"/>
		<path style="clip-path:url(#SVGID_2_);fill:#FFA073;" d="M44.106,35.81c-1.321-0.034-3.253,0.536-2.75,2.886
			c0.271,1.254,5.281,2.236,5.495-0.64c0.023-0.297,0-0.556-0.063-0.778C46.469,36.085,45.117,35.832,44.106,35.81z"/>
		<path style="clip-path:url(#SVGID_2_);fill:#FFA073;" d="M26.813,36.883c-0.697-1.062-2.127-0.914-3.144-0.642
			c-1.326,0.354-3.07,1.47-1.816,3.605c0.669,1.14,5.977,0.633,5.271-2.226C27.052,37.328,26.945,37.085,26.813,36.883z"/>
		<path style="clip-path:url(#SVGID_2_);fill:#305D80;" d="M25.703,31.477c-2.01-0.863-3.274,2.701-1.903,3.867
			c0.638-0.188,1.395-0.12,1.99,0.17C27.14,34.814,27.199,32.121,25.703,31.477z"/>
		<path style="opacity:0.3;clip-path:url(#SVGID_2_);fill:#B54D26;" d="M35.511,38.144c-1.177,0.016-1.641-0.521-2.463-0.031
			c-0.823,0.486,0.354,2.053,2.433,1.979c2.069-0.073,2.971-1.497,2.538-2.026C37.519,37.447,36.813,38.131,35.511,38.144z"/>
		<path style="clip-path:url(#SVGID_2_);fill:#FFDFC2;" d="M35.131,32.31c-1.229,0.176-2.303,5.894-1.799,6.295
			c1.238,0.976,3.823,0.284,4.576-0.501C38.206,37.794,37.224,32.011,35.131,32.31z"/>
		<path style="clip-path:url(#SVGID_2_);fill:#305D80;" d="M45.059,31.341c-2.043-1.227-3.547,2.72-1.86,3.832
			c0.534-0.352,1.607-0.242,2.128-0.002C46.146,34.263,46.155,32,45.059,31.341z"/>
		<path style="clip-path:url(#SVGID_2_);fill:#86BAE3;" d="M24.988,32.101c-0.815,0.277-0.195,1.863,0.6,1.286
			C26.164,32.969,25.714,31.854,24.988,32.101z"/>
		<path style="clip-path:url(#SVGID_2_);fill:#86BAE3;" d="M44.26,31.771c-0.804,0.162-0.419,1.745,0.405,1.296
			C45.261,32.743,44.976,31.629,44.26,31.771z"/>
		<path style="clip-path:url(#SVGID_2_);fill:#F7A286;" d="M44.008,41.218c-0.564-0.387-1.237-0.699-1.793-1.039
			c0.051,0.255,0.021,0.419,0.284,0.674c-2.387,0.143-4.785,0.332-7.184,0.438c-1.586,0.072-3.17,0.187-4.759,0.213
			c-1.163,0.02-3.366,0.246-4.277-0.397c0.296-0.112,0.63-0.276,0.838-0.485c-0.835-0.058-3.104,0.738-4.221,1.694
			c0.886-0.367,2.065-0.893,2.861-0.132c1.257,1.195,2.643,2.516,4.322,3.63c3.353,2.219,9.896,1.95,11.645-2.297
			c0.152-0.371,0.93-1.614,1.478-1.747c0.256-0.063,1.725,0.337,1.799,0.486C44.795,41.84,44.432,41.508,44.008,41.218z"/>
		<path style="clip-path:url(#SVGID_2_);fill:#8F3935;" d="M26.472,41.725c0,0,2.753,3.851,8.207,3.837
			c3.495-0.009,5.781-0.971,6.411-2.307c0.689-1.46,2.169-2.009,2.169-2.009C33.773,43.294,26.472,41.725,26.472,41.725z"/>
		<path style="clip-path:url(#SVGID_2_);fill:#FFF9F0;" d="M28.503,42.033c0,0,0.182,1.178,2.129,1.599
			c2.497,0.537,5.178,0.523,7.94,0.126c1.861-0.267,2.751-2.138,2.751-2.138S36.01,42.74,28.503,42.033z"/>
		<path style="clip-path:url(#SVGID_2_);fill:#FFF9F0;" d="M36.043,43.96c-2.493,0.12-4.568,0.023-5.825-0.6
			c-0.897-0.44-0.973,0.055-0.776,0.359c0,0,0.83,1.604,4.976,1.899c3.983,0.283,6.017-1.688,5.557-2.014
			C39.516,43.28,38.354,43.848,36.043,43.96z"/>
		<path style="clip-path:url(#SVGID_2_);fill:#E8DAC5;" d="M28.503,42.033c0,0,0.146,0.545,0.507,0.823c0,0,9.322-0.811,11.563-0.19
			c0,0,0.648-0.664,0.75-1.046C41.323,41.62,34.816,42.707,28.503,42.033z"/>
		<path style="clip-path:url(#SVGID_2_);fill:#E8DAC5;" d="M30.964,43.588c3.368,1.552,7.355,0.115,7.355,0.115
			C34.116,44.553,30.964,43.588,30.964,43.588z"/>
		<path style="clip-path:url(#SVGID_2_);fill:#A16B43;" d="M21.26,29.98c3.836,0.068,5.129,0.281,7.794,0.147
			C27.681,27.674,22.975,27.913,21.26,29.98z"/>
		<path style="clip-path:url(#SVGID_2_);fill:#A16B43;" d="M40.828,30.265c2.295,0.12,3.41-0.1,6.718-0.189
			C46.08,28.019,42.024,27.804,40.828,30.265z"/>
		<path style="clip-path:url(#SVGID_2_);fill:#F0D197;" d="M44.866,17.004c0.007-0.007,0.013-0.015,0.02-0.021
			c-0.001,0-0.003,0.001-0.003,0.001C44.857,17.011,44.853,17.018,44.866,17.004z"/>
		<path style="clip-path:url(#SVGID_2_);fill:#F0D197;" d="M44.886,16.982c-0.007,0.007-0.013,0.015-0.02,0.021
			c-0.014,0.014-0.009,0.007,0.016-0.021C44.882,16.983,44.885,16.982,44.886,16.982c2.483-2.522,2.688-7.528,0.411-10.149
			c-2.312,3.01-6.877,2.725-10.251,2.676c-1.821-0.026-3.537,0.172-5.215,0.547c-2.21,0.494-4.354,1.295-6.592,2.299
			c-1.623,0.728-3.108,1.5-4.027,3.054c-0.479,0.809-0.872,1.761-1.107,2.67c-0.143,0.547,0.065,2.556-0.151,2.832
			c2.208-2.827,5.313-4.414,8.969-4.56c-0.174,0.624-0.237,1.31-0.114,1.969c-0.065-0.352,6.113-2.917,6.304-2.933
			c-0.487,0.738-3.259,3.004-2.999,3.871c-0.016-0.053,7.729-4.827,8.097-4.929c-0.323,1.079-4.565,6.203-3.84,7.082
			c0.396-0.459,8.074-7.611,8.474-7.812c-0.085,0.682-6.496,8.231-6.091,8.673c0.324-0.569,5.331-4.216,5.826-4.568
			c-0.33,1.369-1.471,3.033-1.901,4.132c2.64-1.645,7.206-3.287,6.759-5.384C46.586,16.459,45.646,16.687,44.886,16.982z"/>
	</g>
</g>
<g id="Layer_1">
</g>
</svg>
