<?xml version="1.0" encoding="iso-8859-1"?>
<!-- Generator: Adobe Illustrator 16.0.0, SVG Export Plug-In . SVG Version: 6.00 Build 0)  -->
<!DOCTYPE svg PUBLIC "-//W3C//DTD SVG 1.1//EN" "http://www.w3.org/Graphics/SVG/1.1/DTD/svg11.dtd">
<svg version="1.1" xmlns="http://www.w3.org/2000/svg" xmlns:xlink="http://www.w3.org/1999/xlink" x="0px" y="0px" width="66px"
	 height="66px" viewBox="0 0 66 66" style="enable-background:new 0 0 66 66;" xml:space="preserve">
<g id="Layer_93">
	<g>
		<defs>
			<circle id="SVGID_1_" cx="33" cy="33" r="33"/>
		</defs>
		<clipPath id="SVGID_2_">
			<use xlink:href="#SVGID_1_"  style="overflow:visible;"/>
		</clipPath>
		<rect style="clip-path:url(#SVGID_2_);fill:#FFFFFF;" width="65.999" height="65.998"/>
		<path style="clip-path:url(#SVGID_2_);fill:#FFCB9E;" d="M26.943,58.953c0.813-0.561,1.088-2.106,0.528-2.919
			s-0.53-1.709-1.381-1.207c-3.23,1.909-5.214,6.637-4.72,11.171h3.4C24.214,63.803,24.452,60.668,26.943,58.953z"/>
		<path style="clip-path:url(#SVGID_2_);fill:#FFCB9E;" d="M42.551,54.827c-0.851-0.502-0.821,0.395-1.381,1.207
			s-0.284,2.358,0.528,2.919c2.491,1.715,2.729,4.85,2.172,7.045h3.4C47.765,61.464,45.781,56.736,42.551,54.827z"/>
		<path style="clip-path:url(#SVGID_2_);fill:#FFCB9E;" d="M38.969,52.15c-0.186-2.929-2.798-4.044-4.652-4.04
			c-1.854-0.004-4.466,1.111-4.651,4.04c-0.087,1.363-5.019,2.892-4.853,3.898c0.808,4.912,2.939,6.742,9.504,6.771
			c6.564-0.029,8.281-0.885,9.089-7.089C43.537,54.72,39.055,53.514,38.969,52.15z"/>
		<path style="opacity:0.5;clip-path:url(#SVGID_2_);fill:#F1AA83;" d="M34.452,49.233c-1.986,0.031-4.772,0.831-4.939,2.814
			c-0.078,0.923,0.976,3.402,5.043,3.381c4.069-0.059,5.037-2.629,4.929-3.548C39.252,49.904,36.439,49.197,34.452,49.233z"/>
		<path style="clip-path:url(#SVGID_2_);fill:#E0E0E0;" d="M40.822,53.534c-0.294-0.153-0.658-0.271-1.058-0.285
			c-0.628-0.021,0.177,6.117-5.506,6.129c-5.428,0.013-4.597-6.232-5.26-6.076c-0.404,0.096-0.789,0.155-1.088,0.321
			c-0.334,0.186,1.897,5.856-1.688,6.725c0.499,1.813,0.99,3.803,1.394,5.65h13.467c0.399-1.896,0.882-3.922,1.304-5.689
			C39.299,59.582,41.192,53.727,40.822,53.534z"/>
		<path style="clip-path:url(#SVGID_2_);fill:#C4BAB1;" d="M42.497,59.846c-0.479-0.113-0.832-0.369-1.076-0.782
			c-0.577-0.974-0.548-2.829,0.078-5.088c0.001-0.005,0.022-0.083,0.023-0.087c0.063-0.253-0.098-0.473-0.351-0.539
			c-0.251-0.063-0.521,0.119-0.591,0.371c-0.408,1.475-0.949,4.192,0.02,5.828c0.379,0.639,0.943,1.051,1.679,1.223
			c0.036,0.009,0.073,0.014,0.109,0.014c0.216,0,0.411-0.147,0.463-0.367C42.912,60.162,42.753,59.905,42.497,59.846z"/>
		<path style="clip-path:url(#SVGID_2_);fill:#C4BAB1;" d="M27.596,53.772l-0.438,0.203c0.627,2.259,0.655,4.114,0.079,5.088
			c-0.245,0.413-0.598,0.669-1.076,0.782c-0.257,0.06-0.415,0.316-0.355,0.572c0.052,0.22,0.248,0.367,0.464,0.367
			c0.036,0,0.072-0.005,0.109-0.014c0.735-0.172,1.299-0.584,1.678-1.223c0.97-1.636,0.429-4.354,0.02-5.828L27.596,53.772z"/>
		<path style="clip-path:url(#SVGID_2_);fill:#C4BAB1;" d="M39.77,52.772c-0.002,0-0.005,0-0.005,0c-0.262,0-0.474,0.21-0.477,0.473
			c-0.002,0.229-0.111,5.646-5.03,5.656c-0.006,0-0.011,0-0.016,0c-4.412,0-4.745-4.673-4.767-5.61
			c-0.006-0.264-0.21-0.493-0.487-0.466c-0.263,0.007-0.471,0.225-0.465,0.488c0.016,0.67,0.308,6.541,5.718,6.541
			c0.006,0,0.013,0,0.019,0c5.849-0.014,5.979-6.332,5.98-6.601C40.243,52.991,40.032,52.775,39.77,52.772z"/>
		<path style="clip-path:url(#SVGID_2_);fill:#C93712;" d="M52.068,15.111c0.148-0.268,0.342-0.499,0.532-0.718
			c0.563-0.643,1.097-1.164,0.331-2.141c-0.668-0.851-2.615-1.568-3.604-0.919c0.395-0.945,0.853-2.451-0.172-3.174
			c-0.866-0.609-3.006-0.241-3.705,0.449c1.36-3.382-4.644-5.414-6.126-2.396c-0.591-1.73-1.647-3.143-3.703-3.03
			c-1.282,0.068-3.466,1.227-3.673,2.625c-0.916-1.077-1.446-2.169-3.111-2.235C26.99,3.497,25.129,4.894,25.4,6.885
			c-1.38-0.902-3.107-1.61-4.637-0.697c-1.375,0.82-2.069,2.154-1.51,3.697c-1.032-0.428-2.461-1.129-3.473-0.299
			c-1.046,0.857-0.179,3.037,0.606,3.857c-1.25-0.068-2.226,0.453-2.533,1.717c-0.526,2.173,1.083,4.305,1.721,6.253
			c1.008,3.074,1.369,6.415,1.945,9.578c0.632,3.465,1.198,7.376,2.815,10.537c1.172,2.292,2.344,1.327,4.062,0.42
			c2.226-1.173,5.512-1.372,7.979-1.488c2.545-0.121,6.259-0.332,8.62,0.778c1.548,0.728,2.364,1.317,3.946,0.106
			c1.151-0.884,2.006-2.302,2.601-3.606c0.957-2.098,0.988-4.199,1.171-6.457c0.368-4.545,1.079-9.122,4.514-12.394
			c0.365-0.349,1.049-0.94,1.196-1.433C54.793,16.224,53.248,14.79,52.068,15.111z"/>
		<path style="clip-path:url(#SVGID_2_);fill:#FFCB9E;" d="M31.22,14.939c-7.815,1.524-13.322,12.762-11.888,23.304
			c1.075,7.896,7.166,16.56,16.339,15.908c9.36-0.668,14.018-12.276,12.809-21.987C47.166,21.606,42.165,12.806,31.22,14.939z"/>
		<path style="opacity:0.3;clip-path:url(#SVGID_2_);fill:#BF3C1B;" d="M41.29,16.601c-3.079-0.921-6.262-1.432-9.478-1.489
			c-2.854-0.05-5.953-0.21-8.612,0.994c-1.461,0.662-3.256,1.569-3.803,3.188c-0.447,1.324-0.326,2.865-0.261,4.239
			c0.06,1.264,0.086,2.624,0.367,3.863c0.214,0.947,0.902,2.091,1.636,2.76c1.043-2.07,1.39-5.047,3.614-6.234
			c1.375-0.733,5.374-1.671,7.707-0.917c0.732,0.235,1.299,0.637,1.57,1.263c0.627,1.445-0.936,2.499-2.049,3.017
			c1.818,1.101,5.011,1.159,6.091-0.954c0.105,0.454,0.286,0.963,0.436,1.376c0.947-0.753,1.653-1.501,2.428-2.425
			c0.802-0.957,1.483-1.102,2.707-1.297c2.053-0.328,5.074-0.958,4.206-3.868C47.145,17.751,43.322,17.21,41.29,16.601z"/>
		<path style="clip-path:url(#SVGID_2_);fill:#FFCB9E;" d="M16.605,33.852c-3.838,1.058-2.298,6.66,0.837,7.785
			c1.005,0.36,2.072,0.41,3.101,0.337c0.019-0.031,0.04-0.062,0.061-0.095c0.459-0.729-0.184-4.813-0.418-5.581
			C19.596,34.36,18.447,33.346,16.605,33.852z"/>
		<path style="opacity:0.3;clip-path:url(#SVGID_2_);fill:#BF3C1B;" d="M17.952,35.914c-0.862-0.396-3.015,0.318-2.003,2.005
			c0.534-1.563,1.486-0.537,1.34,0.572c-0.097,0.746-0.898,0.756-0.103,1.712c0.431,0.52,1.302,0.326,1.741,0.05
			C20.325,39.372,19.005,36.398,17.952,35.914z"/>
		<path style="clip-path:url(#SVGID_2_);fill:#C93712;" d="M42.576,12.773c-4.322-3.664-9.952-3.633-15.269-2.715
			c-2.036,0.351-4.199,0.867-6.021,1.884c-1.586,0.887-2.217,2.974-2.949,4.554c-0.861,1.861,0.019,17.204,0.629,17.774
			c0.814,0.76,0.809,1.61,1.037,2.035c0.106,0.216,0.985,0.518,1.739,0.462c-0.384-2.613-0.4-5.301-0.213-7.931
			c0.298-4.191,0.793-6.452,5.588-6.634c2.195-0.082,8.057-0.924,8.601,2.309c0.244,1.451-0.984,2.261-2.158,2.786
			c1.765,0.556,4,0.456,4.549-1.723c0.479,0.475,0.748,1.04,0.776,1.693c2.211-1.481,0.887-3.854,3.828-4.102
			c1.928-0.163,4.243-0.075,4.879-2.3c0.02-0.068,0.037-0.138,0.054-0.21C48.379,17.385,44.721,14.592,42.576,12.773z"/>
		<path style="clip-path:url(#SVGID_2_);fill:#FFA073;" d="M47.928,36.623c-0.606-0.892-1.918-1.081-2.856-1.1
			c-1.227-0.023-2.859,0.401-1.781,2.161c0.575,0.937,5.45,1.674,4.898-0.479C48.131,36.982,48.043,36.79,47.928,36.623z"/>
		<path style="clip-path:url(#SVGID_2_);fill:#FFA073;" d="M27.728,36.271c-0.847-0.749-2.23-0.6-3.189-0.374
			c-1.252,0.293-2.802,1.151-1.248,2.656c0.828,0.804,5.976,0.285,4.854-1.76C28.029,36.585,27.889,36.411,27.728,36.271z"/>
		<path style="clip-path:url(#SVGID_2_);fill:#224245;" d="M26.867,31.35c-2.014-0.867-3.281,2.706-1.907,3.873
			c0.64-0.188,1.397-0.117,1.994,0.17C28.306,34.694,28.366,31.996,26.867,31.35z"/>
		<path style="opacity:0.3;clip-path:url(#SVGID_2_);fill:#B54D26;" d="M36.692,38.03c-1.178,0.015-1.643-0.522-2.468-0.032
			c-0.822,0.488,0.355,2.058,2.438,1.982c2.074-0.073,2.976-1.5,2.544-2.031C38.706,37.333,37.998,38.016,36.692,38.03z"/>
		<path style="clip-path:url(#SVGID_2_);fill:#FFDFC2;" d="M36.385,33.607c-2.213-0.191-2.379,4.482-1.874,4.883
			c1.24,0.979,3.831,0.286,4.585-0.502C39.394,37.677,38.495,33.791,36.385,33.607z"/>
		<path style="clip-path:url(#SVGID_2_);fill:#224245;" d="M46.261,31.214c-2.048-1.229-3.555,2.724-1.865,3.84
			c0.536-0.354,1.61-0.245,2.133-0.003C47.351,34.142,47.359,31.873,46.261,31.214z"/>
		<path style="opacity:0.7;clip-path:url(#SVGID_2_);fill:#D4E6DD;" d="M26.15,31.973c-0.816,0.277-0.195,1.867,0.602,1.289
			C27.328,32.845,26.877,31.729,26.15,31.973z"/>
		<path style="opacity:0.7;clip-path:url(#SVGID_2_);fill:#D4E6DD;" d="M45.46,31.645c-0.807,0.163-0.421,1.748,0.406,1.299
			C46.462,32.619,46.177,31.502,45.46,31.645z"/>
		<path style="clip-path:url(#SVGID_2_);fill:#D94D15;" d="M47.876,28.684c0.866-0.709-0.096-0.934-0.719-0.688
			c0.723-1.299-1.277-0.592-1.765-0.245c0.218-0.468,0.457-0.702-0.139-0.797c-0.513-0.08-1.129,0.378-1.503,0.656
			c0.266-0.959-1.547,0.389-1.714,0.567c-0.169,0.18-0.328,0.375-0.484,0.58c-1.446,1.88,2.664,1.072,3.376,1.058
			c0.937-0.021,1.684,0.079,2.557,0.256c0.618,0.126,1.337-0.113,1.371-0.827C48.889,28.593,48.425,28.458,47.876,28.684z"/>
		<path style="clip-path:url(#SVGID_2_);fill:#D94D15;" d="M29.284,28.177c-0.166-0.179-1.979-1.526-1.712-0.567
			c-0.375-0.278-0.99-0.736-1.505-0.656c-0.594,0.095-0.355,0.329-0.139,0.797c-0.486-0.347-2.484-1.054-1.764,0.245
			c-0.622-0.245-1.584-0.021-0.719,0.688c-0.549-0.226-1.013-0.091-0.981,0.56c0.036,0.714,0.754,0.953,1.373,0.827
			c0.872-0.177,1.619-0.276,2.556-0.256c0.712,0.015,4.823,0.822,3.376-1.058C29.612,28.552,29.453,28.356,29.284,28.177z"/>
		<path style="clip-path:url(#SVGID_2_);fill:#F7A286;" d="M42.599,40.153c0.039,0.311,0.006,0.511,0.248,0.834
			c-2.271,0.086-4.554,0.229-6.834,0.271c-1.508,0.029-3.017,0.113-4.524,0.087c-1.105-0.018-3.205,0.178-4.05-0.64
			c0.285-0.124,0.606-0.313,0.812-0.561c-0.791-0.103-2.972,0.788-4.062,1.916c0.853-0.417,1.989-1.015,2.723-0.059
			c1.154,1.507,2.428,3.167,3.989,4.585c3.113,2.831,9.333,2.738,11.127-2.381c0.157-0.447,0.934-1.936,1.459-2.08
			c0.244-0.067,1.625,0.475,1.691,0.661c-0.182-0.515-0.517-0.934-0.91-1.303C43.744,40.993,43.114,40.587,42.599,40.153z"/>
		<path style="clip-path:url(#SVGID_2_);fill:#8F3935;" d="M27.603,41.469c0,0,2.493,4.801,7.672,4.98
			c3.317,0.114,5.52-0.976,6.159-2.582c0.7-1.758,2.123-2.376,2.123-2.376C34.485,43.649,27.603,41.469,27.603,41.469z"/>
		<path style="clip-path:url(#SVGID_2_);fill:#FFF9F0;" d="M29.521,41.921c0,0,0.137,1.443,1.972,2.025
			c2.354,0.749,4.9,0.827,7.535,0.442c1.775-0.257,2.679-2.508,2.679-2.508S36.625,43.055,29.521,41.921z"/>
		<path style="clip-path:url(#SVGID_2_);fill:#FFF9F0;" d="M36.62,44.544c-2.373,0.057-4.339-0.137-5.514-0.939
			c-0.838-0.574-0.924,0.029-0.747,0.408c0,0,0.737,1.984,4.664,2.496c3.772,0.49,5.767-1.841,5.34-2.254
			C39.938,43.839,38.816,44.492,36.62,44.544z"/>
		<path style="clip-path:url(#SVGID_2_);fill:#E8DAC5;" d="M29.521,41.921c0,0,0.123,0.67,0.455,1.021c0,0,8.877-0.65,10.986,0.187
			c0,0,0.636-0.789,0.744-1.248C41.706,41.881,35.494,42.972,29.521,41.921z"/>
		<path style="clip-path:url(#SVGID_2_);fill:#E8DAC5;" d="M31.808,43.904c3.15,2.018,6.981,0.41,6.981,0.41
			C34.771,45.197,31.808,43.904,31.808,43.904z"/>
		<path style="clip-path:url(#SVGID_2_);fill:#E85216;" d="M49.148,13.959c2.315-1.863-1.457-2.143-2.671-1.986
			c1.201-2.707-2.275-2.584-3.784-1.855c0.557-1.94-3.384-2.761-4.282-1.628c0.804-1.014,0.557-2.388-0.708-2.853
			c-1.77-0.65-3.819,1.325-5.151,2.205c-0.359-0.403-1.037-0.923-1.777-1.303c-0.778-0.401-1.625-0.648-2.241-0.446
			c-1.323,0.434-1.34,2.021-1.83,3.028c-1.263-0.865-3.628-2.087-4.96-0.651c-0.844,0.909-0.707,2.984-0.175,4.021
			c-0.796-0.474-3.697-1.494-2.888,0.622c-1.992,0.294-0.486,2.049,0.198,2.729c1.263,1.258,1.915,2.622,2.874,4.066
			c-0.511-0.769,1.098-4.05,1.901-4.342c-0.008,1.136,0.805,2.349,2.018,2.44c1.451,0.109,2.224-1.233,2.83-2.271
			c0.552,2.411,3.005,1.24,3.679-0.358c0.896,1.027,1.542,2.237,2.257,3.415c0.339-1.184,1.461-1.996,1.716-3.188
			c0.876,0.765,3.026,3.129,3.701,0.46c0.815,2.618,1.248,3.868-1.148,5.487c2.806,0.322,4.225-1.39,4.348-3.933
			c0.131-2.723,2.042-2.283,2.993,0.019c-0.206-2.137,3.542-2.199,3.261,0.481c0.544-0.58,2.01-1.699,1.946-2.596
			C51.214,14.969,49.62,13.58,49.148,13.959z"/>
	</g>
</g>
<g id="Layer_1">
</g>
</svg>
