<?xml version="1.0" encoding="iso-8859-1"?>
<!-- Generator: Adobe Illustrator 16.0.0, SVG Export Plug-In . SVG Version: 6.00 Build 0)  -->
<!DOCTYPE svg PUBLIC "-//W3C//DTD SVG 1.1//EN" "http://www.w3.org/Graphics/SVG/1.1/DTD/svg11.dtd">
<svg version="1.1" xmlns="http://www.w3.org/2000/svg" xmlns:xlink="http://www.w3.org/1999/xlink" x="0px" y="0px"
	 width="66.012px" height="66px" viewBox="0 0 66.012 66" style="enable-background:new 0 0 66.012 66;" xml:space="preserve">
<g id="Layer_16">
	<g>
		<defs>
			<circle id="SVGID_1_" cx="33.012" cy="33" r="33"/>
		</defs>
		<clipPath id="SVGID_2_">
			<use xlink:href="#SVGID_1_"  style="overflow:visible;"/>
		</clipPath>
		<rect style="clip-path:url(#SVGID_2_);fill:#EF5649;" width="66" height="66"/>
		<path style="clip-path:url(#SVGID_2_);fill:#261B18;" d="M48.406,53.365c1.154-3.385,3.846-16.473,3.34-28.936
			C51.029,6.798,28.416,2.968,20.053,13.197c-9.908,12.118-4.689,20.69-5.197,23.561c-0.768,4.336-3.207,7.73-2.561,11.271
			c0.99,5.436,6.139,6.029,2.391,13.275c2.186,0.688,4.996-1.25,6.307-3.129c1.863,4.182,5.071,6.825,8.694,7.824h6.728
			C41.293,64.705,45.948,60.578,48.406,53.365z"/>
		<path style="clip-path:url(#SVGID_2_);fill:#6F6E82;" d="M40.67,56.979c-2.148-2.65-8.398-3.398-11.781-2.018
			c-2.553,1.045-2.632,5.807-2.04,11.039h13.159C40.302,62.426,41.401,57.879,40.67,56.979z"/>
		<path style="clip-path:url(#SVGID_2_);fill:#FF87B3;" d="M39.17,62.408c0.611-2.281,0.158-6.537-1.344-7.109
			c-2.688-1.025-6.793-1.082-9.451,0.055c-2.121,0.908-2.855,2.199-1.41,6.678c0.454,1.404,0.832,2.748,1.052,3.969H38.37
			C38.53,64.994,38.792,63.822,39.17,62.408z"/>
		<linearGradient id="SVGID_3_" gradientUnits="userSpaceOnUse" x1="32.8169" y1="51.6523" x2="32.8169" y2="53.9805">
			<stop  offset="0" style="stop-color:#EE996D"/>
			<stop  offset="0.0163" style="stop-color:#EE9A6E"/>
			<stop  offset="0.3731" style="stop-color:#F8B181"/>
			<stop  offset="0.7088" style="stop-color:#FDBF8D"/>
			<stop  offset="1" style="stop-color:#FFC491"/>
		</linearGradient>
		<path style="clip-path:url(#SVGID_2_);fill:url(#SVGID_3_);" d="M35.916,50.932c0.205-3.57-5.961-3.703-5.953,0.193
			c0.002,1.727,0.051,2.998-0.225,3.602c-0.729,1.598,6.969,1.881,6.145,0.184C35.418,53.953,35.826,52.508,35.916,50.932z"/>
		<path style="opacity:0.3;clip-path:url(#SVGID_2_);fill:#FFFCFC;" d="M35.678,58.875c-1.748,0.619-3.875,0.359-5.67-0.09
			c-1.031-0.258-1.609,0.91-1.291,1.906c0.418,1.324,2.559,1.672,4.424,1.643c3.678-0.059,5.055-1.424,4.432-3.053
			C37.406,58.844,36.619,58.545,35.678,58.875z"/>
		<path style="clip-path:url(#SVGID_2_);fill:#FFBC82;" d="M31.938,16.075C24.328,17.42,18.793,28.228,20.006,38.48
			c0.898,7.609,7.369,15.813,15.191,15.316c9.406-0.596,14.156-11.678,13.191-20.715C47.293,22.816,42.594,14.193,31.938,16.075z"/>
		<path style="opacity:0.2;clip-path:url(#SVGID_2_);fill:#B54319;" d="M45.209,19.156c-4.1-1.712-8.088-2.727-12.613-2.92
			c-2.768-0.119-6.484-0.359-9.094,0.713c-3.908,1.604-5.621,4.13-6.227,8.042c-0.412,2.659,2.221,5.25,4.244,6.946
			c1.484-1.399,0.828-3.337,0.816-5.018c0.016,2.344,6.43,2.169,7.867,1.672c0.795-0.276,1.73-0.641,2.672-1.094
			c2.174-1.046,4.391-2.565,5.059-4.572c1.477,2.366,8.51,7.26,11.158,4.354C51.213,24.954,47.432,20.085,45.209,19.156z"/>
		<path style="clip-path:url(#SVGID_2_);fill:#261B18;" d="M42.994,14.168c-4.131-3.63-9.594-3.696-14.766-2.896
			c-3.41,0.526-6.371,2.938-8.393,5.622c-2.25,2.985-2.84,5.766-3.211,9.465c-0.24,2.376,0.074,5.459,0.305,7.885
			c0.121,1.27,0.162,5.32,1.822,5.764c1.953,0.52,3.742-5.422,4.588-6.619c1.945-2.756,3.98-4.73,7.076-6.113
			c2.896-1.294,6.26-2.944,7.412-6.17c2.273,2.289,6.641,6.027,10.154,5.841c2.816-0.149,1.439-3.547,0.76-5.279
			C47.596,18.751,45.174,16.083,42.994,14.168z"/>
		<path style="clip-path:url(#SVGID_2_);fill:#57443A;" d="M31.652,9.14c-5.246,0.262-10.563,3.93-12.893,8.719
			c-0.842,1.731-2.377,5.309-2.086,7.277c0.176,1.178,0.92,1.946,2.08,2.171c0.764,0.147,3.555-0.458,3.736-1.434
			c-0.215,1.164-1.225,2.139-1.627,3.293c4.377-0.91,9.096-2.698,12.613-5.577c0.59-0.483,4.6-4.476,3.959-5.265
			c3.297,4.072,8.162,5.618,13.027,3.818C48.98,12.131,38.641,8.792,31.652,9.14z"/>
		<path style="opacity:0.4;clip-path:url(#SVGID_2_);fill:#FF7752;" d="M47.133,36.855c-0.596-0.859-1.869-1.033-2.779-1.043
			c-1.189-0.014-2.771,0.41-1.713,2.109c0.564,0.904,5.301,1.582,4.748-0.502C47.334,37.207,47.244,37.02,47.133,36.855z"/>
		<path style="opacity:0.4;clip-path:url(#SVGID_2_);fill:#FF7752;" d="M29.012,36.484c-0.828-0.717-2.168-0.559-3.098-0.33
			c-1.211,0.297-2.705,1.145-1.184,2.59c0.811,0.771,5.801,0.217,4.693-1.756C29.309,36.787,29.172,36.619,29.012,36.484z"/>
		<path style="opacity:0.5;clip-path:url(#SVGID_2_);fill:#B54319;" d="M36.613,37.773c-0.979-0.066-0.957-0.594-1.664-0.191
			c-0.707,0.4-0.184,1.945,1.549,2.016c1.727,0.074,2.541-1.199,2.207-1.729C38.318,37.258,37.697,37.85,36.613,37.773z"/>
		<path style="clip-path:url(#SVGID_2_);fill:#FFD4AD;" d="M36.432,33.375c-0.803,0.014-1.965,3.859-1.561,4.447
			c0.994,1.443,3.172,0.787,3.83-0.186C38.959,37.25,37.34,33.36,36.432,33.375z"/>
		<path style="clip-path:url(#SVGID_2_);fill:#425361;" d="M45.613,31.59c-2.697-1.152-5.162,2.179-3.221,3.912
			c0.391-0.424,2.506-1.107,3.813-0.121C47.313,34.586,47.061,32.208,45.613,31.59z"/>
		<path style="clip-path:url(#SVGID_2_);fill:#C3D5E3;" d="M45.914,33.463c-0.74,0.231-0.389,1.65,0.367,1.152
			C46.828,34.256,46.572,33.258,45.914,33.463z"/>
		<path style="clip-path:url(#SVGID_2_);fill:#C3D5E3;" d="M43.383,31.987c-1.256,0.395-0.662,2.806,0.623,1.959
			C44.938,33.337,44.5,31.64,43.383,31.987z"/>
		<path style="clip-path:url(#SVGID_2_);fill:#425361;" d="M25.506,31.809c-1.428,0.66-1.611,3.044-0.479,3.806
			c1.275-1.023,3.408-0.402,3.811,0.01C30.73,33.836,28.17,30.579,25.506,31.809z"/>
		<path style="clip-path:url(#SVGID_2_);fill:#C3D5E3;" d="M25.26,33.69c-0.662-0.187-0.891,0.82-0.332,1.162
			C25.697,35.328,26.006,33.899,25.26,33.69z"/>
		<path style="clip-path:url(#SVGID_2_);fill:#C3D5E3;" d="M27.746,32.14c-1.125-0.313-1.512,1.395-0.564,1.977
			C28.49,34.926,29.014,32.498,27.746,32.14z"/>
		<path style="clip-path:url(#SVGID_2_);fill:#261B18;" d="M29.275,28.54c-1.344-0.057-2.621-0.065-3.959,0.229
			c-0.832,0.184-1.838,0.564-2.492,1.068c-0.221,0.171-0.494,0.47-0.482,0.733c0.219,0.034,0.385-0.104,0.586-0.159
			c1.012-0.281,2.076-0.313,3.113-0.333c0.811-0.016,1.615,0.042,2.422,0.004c0.543-0.022,1.281,0.086,1.576-0.442
			C30.408,28.971,29.996,28.569,29.275,28.54z"/>
		<path style="clip-path:url(#SVGID_2_);fill:#261B18;" d="M47.773,29.46c-0.646-0.459-1.631-0.788-2.443-0.933
			c-1.309-0.232-2.551-0.173-3.857-0.067c-0.707,0.057-1.1,0.46-0.73,1.088c0.293,0.498,1.012,0.364,1.539,0.366
			c0.789,0.003,1.572-0.082,2.359-0.098c1.01-0.021,2.051-0.033,3.039,0.199c0.197,0.046,0.359,0.17,0.57,0.13
			C48.26,29.891,47.99,29.616,47.773,29.46z"/>
		<path style="clip-path:url(#SVGID_2_);fill:#121B21;" d="M45.076,31.128c-2.488-0.452-3.193,1.998-3.193,1.998
			s1.207-1.552,2.822-0.862c3.668,1.565,5.607-1.036,5.607-1.036C47.695,32.452,46.35,31.36,45.076,31.128z"/>
		<path style="clip-path:url(#SVGID_2_);fill:#121B21;" d="M26.133,31.4c-1.27,0.245-2.605,1.352-5.234,0.155
			c0,0,1.967,2.582,5.617,0.977c1.609-0.707,2.83,0.833,2.83,0.833S28.617,30.922,26.133,31.4z"/>
		<path style="opacity:0.35;clip-path:url(#SVGID_2_);fill:#C4170E;" d="M25.436,41.402c4.25,6.24,6.83,7.365,10.08,7.506
			c4.072,0.176,5.426-2.424,6.014-4.369c0.25-0.822,2.279-2.957,3.072-3.447c-2.529,0.598-5.029,0.334-8.855,0.5
			C32.582,41.73,27.951,42.67,25.436,41.402z"/>
		<path style="clip-path:url(#SVGID_2_);fill:#8F2621;" d="M27.367,42.473c0,0,2.563,4.201,7.625,4.23
			c3.246,0.018,5.365-1.008,5.949-2.451c0.637-1.578,2.01-2.166,2.01-2.166C34.148,44.236,27.367,42.473,27.367,42.473z"/>
		<path style="clip-path:url(#SVGID_2_);fill:#FFF9F0;" d="M29.254,42.824c0,0,0.17,1.279,1.979,1.75
			c2.318,0.605,4.809,0.611,7.371,0.201c1.729-0.273,2.553-2.295,2.553-2.295S36.225,43.652,29.254,42.824z"/>
		<path style="clip-path:url(#SVGID_2_);fill:#FFF9F0;" d="M36.256,44.977c-2.314,0.109-4.24-0.012-5.408-0.695
			c-0.834-0.488-0.902,0.049-0.721,0.381c0,0,0.773,1.746,4.621,2.1c3.699,0.342,5.584-1.781,5.158-2.139
			C39.479,44.264,38.402,44.873,36.256,44.977z"/>
		<path style="clip-path:url(#SVGID_2_);fill:#E8DAC5;" d="M29.254,42.824c0,0,0.137,0.594,0.471,0.898
			c0,0,8.654-0.805,10.736-0.115c0,0,0.6-0.715,0.695-1.127C41.156,42.48,35.115,43.607,29.254,42.824z"/>
		<path style="clip-path:url(#SVGID_2_);fill:#E8DAC5;" d="M31.541,44.529c3.129,1.713,6.828,0.188,6.828,0.188
			C34.469,45.604,31.541,44.529,31.541,44.529z"/>
		<path style="clip-path:url(#SVGID_2_);fill:#6F6E82;" d="M28.889,54.961c0,0-1.613,0.623-2.528,1.313v-0.002
			c-1.377,0.838-3.082,2.927-2.55,9.729h4.613C28.025,61.563,27.795,57.461,28.889,54.961z"/>
		<path style="clip-path:url(#SVGID_2_);fill:#6F6E82;" d="M40.3,56.632c-0.749-0.802-2.881-1.624-2.881-1.624
			c1.091,2.49,0.865,6.573,0.47,10.992h4.46C42.817,60.008,41.551,57.676,40.3,56.632z"/>
	</g>
</g>
<g id="Layer_1">
</g>
</svg>
