<?xml version="1.0" encoding="iso-8859-1"?>
<!-- Generator: Adobe Illustrator 16.0.0, SVG Export Plug-In . SVG Version: 6.00 Build 0)  -->
<!DOCTYPE svg PUBLIC "-//W3C//DTD SVG 1.1//EN" "http://www.w3.org/Graphics/SVG/1.1/DTD/svg11.dtd">
<svg version="1.1" xmlns="http://www.w3.org/2000/svg" xmlns:xlink="http://www.w3.org/1999/xlink" x="0px" y="0px"
	 width="66.013px" height="66px" viewBox="0 0 66.013 66" style="enable-background:new 0 0 66.013 66;" xml:space="preserve">
<g id="Layer_6">
	<g>
		<defs>
			<circle id="SVGID_1_" cx="33.013" cy="33" r="33"/>
		</defs>
		<clipPath id="SVGID_2_">
			<use xlink:href="#SVGID_1_"  style="overflow:visible;"/>
		</clipPath>
		<rect style="clip-path:url(#SVGID_2_);fill:#5F5D7F;" width="66" height="66"/>
		<path style="clip-path:url(#SVGID_2_);fill:#FFCB9E;" d="M27.068,59.019l-2.107-3.567c-3.444,1.277-4.229,4.183-5.058,7.256
			c-0.289,1.065-0.6,2.18-1.028,3.293h5.113c0.271-0.833,0.495-1.644,0.702-2.41C25.376,61.049,25.856,59.469,27.068,59.019z"/>
		<path style="clip-path:url(#SVGID_2_);fill:#FFCB9E;" d="M41.332,55.451l-2.107,3.567c1.212,0.45,1.692,2.03,2.378,4.571
			c0.207,0.767,0.432,1.577,0.702,2.41h5.113c-0.429-1.113-0.739-2.228-1.028-3.293C45.562,59.634,44.776,56.729,41.332,55.451z"/>
		<path style="clip-path:url(#SVGID_2_);fill:#FFCB9E;" d="M33.561,52.853c-5.645-0.071-9.377,1.703-9.396,2.253
			c-0.21,5.938,1.779,7.188,3.651,8.506c1.309,0.922,9.508,0.856,10.818,0.015c2.085-1.341,3.957-2.656,3.784-8.358
			C42.403,54.764,38.985,52.922,33.561,52.853z"/>
		<path style="clip-path:url(#SVGID_2_);fill:#765AA3;" d="M41.229,61.976c-0.609-1.512-0.351-3.071-0.054-7.746
			c-0.372-0.238-0.698-0.377-1.364-0.603c0.227,8.041-1.684,9.506-6.631,9.506c-4.376,0-6.641-0.952-6.354-9.689
			c-0.917,0.261-1.207,0.349-1.632,0.64c0.273,3.934,0.583,6.269-0.093,7.815c0.029,1.352,0.099,2.748,0.17,4.102h15.792
			C41.13,64.673,41.196,63.301,41.229,61.976z"/>
		<path style="clip-path:url(#SVGID_2_);fill:#2B221C;" d="M45.169,11.734C40.087,6.156,31.646,5.56,22.101,9.688
			c0.875,0.062,2.662,0.23,4.956-0.204c-5.011,2.308-10.937,5.347-12.23,11.247c-3.202,14.602,8.834,7.864,12.924,9.033
			c4.638,1.325,16.178-0.172,19.407-4.977c1.455-2.163,1.537-5.421,0.706-8.295C47.317,14.602,46.287,12.961,45.169,11.734z"/>
		<path style="clip-path:url(#SVGID_2_);fill:#FFCB9E;" d="M30.017,14.923c-7.836,1.528-13.356,12.795-11.919,23.365
			c1.078,7.917,7.185,16.603,16.383,15.948c9.383-0.668,14.053-12.309,12.841-22.044C46.003,21.607,40.99,12.783,30.017,14.923z"/>
		<path style="opacity:0.3;clip-path:url(#SVGID_2_);fill:#BF3C1B;" d="M40.346,16.846c-3.03-0.881-6.163-1.369-9.328-1.424
			c-2.809-0.047-5.858-0.2-8.477,0.95c-1.438,0.633-3.204,1.499-3.743,3.046c-0.44,1.266-0.962,2.942-0.256,4.052
			c1.496,2.353,4.421,0.944,5.527,0.37c2.406-1.246,13.334-0.396,18.432-0.404c2.118-0.003,5.179-0.372,4.3-3.232
			C46.108,17.944,42.346,17.427,40.346,16.846z"/>
		<path style="clip-path:url(#SVGID_2_);fill:#FFCB9E;" d="M15.364,33.885c-3.848,1.06-2.305,6.678,0.839,7.805
			c1.007,0.361,2.077,0.411,3.108,0.338c0.02-0.031,0.04-0.063,0.061-0.096c0.461-0.73-0.183-4.824-0.418-5.595
			C18.361,34.395,17.211,33.376,15.364,33.885z"/>
		<path style="opacity:0.3;clip-path:url(#SVGID_2_);fill:#C94614;" d="M16.714,35.952c-0.864-0.397-3.023,0.319-2.008,2.011
			c0.535-1.567,1.489-0.54,1.344,0.573c-0.098,0.748-0.9,0.758-0.104,1.717c0.433,0.52,1.306,0.327,1.747,0.049
			C19.095,39.419,17.769,36.438,16.714,35.952z"/>
		<path style="clip-path:url(#SVGID_2_);fill:#2B221C;" d="M42.332,11.901C36.411,8.798,27.313,9.606,22.339,13.3
			c-3.381,2.509-5.163,5.523-4.962,9.739c0.109,2.313,3.22,2.668,4.529,1.011c1.121-1.417,2.695-1.784,4.49-1.85
			c2.974-0.109,14.617-0.658,17.352,0.277c1.499,0.515,3.49,1.292,3.791-1.093c0.327-2.607-0.371-5.318-2.161-7.216
			C44.52,13.259,43.485,12.506,42.332,11.901z"/>
		<path style="clip-path:url(#SVGID_2_);fill:#45362E;" d="M43.687,12.897c-2.238-2.13-5.37-3.764-8.396-4.045
			c-1.578-0.147-4.746-0.086-6.253,0.577c0.501,0.276,1.806,0.563,2.24,0.914c-2.185,0.509-4.28,1.136-6.34,2.069
			c-0.631,0.286-5.807,3.801-5.805,3.802c1.439,0.782,3.135,0.49,4.688,0.145c2.371-0.527,4.716-0.738,7.103-0.194
			c2.216,0.504,4.207,1.609,6.404,2.122c0.065-0.992-0.884-1.859-1.305-2.533c1.258-0.021,6.077,3.028,7.065,3.832
			c-0.237-0.846-1.407-2.63-1.535-3.531c1.229,0.183,4.016,2.666,4.862,4.101c0.087-1.133-0.022-2.606-0.331-3.597
			C45.627,15.096,44.787,13.945,43.687,12.897z"/>
		<path style="clip-path:url(#SVGID_2_);fill:#BF795C;" d="M15.895,27.691c-0.114,2.662,0.124,5.648,0.279,6.064
			c1.836,0.217,4.1,2.692,4.1,2.692c-0.637-4.461,0.059-6.855,0.942-11.792C19.488,24.634,15.997,25.299,15.895,27.691z"/>
		<path style="clip-path:url(#SVGID_2_);fill:#FFA073;" d="M45.867,36.803c-0.607-0.894-1.923-1.083-2.863-1.101
			c-1.229-0.024-2.867,0.401-1.786,2.165c0.577,0.939,5.466,1.678,4.912-0.48C46.071,37.164,45.983,36.971,45.867,36.803z"/>
		<path style="clip-path:url(#SVGID_2_);fill:#FFA073;" d="M27.528,36.563c-0.849-0.75-2.237-0.601-3.199-0.375
			c-1.254,0.295-2.809,1.153-1.251,2.664c0.831,0.806,5.992,0.285,4.867-1.763C27.83,36.878,27.688,36.704,27.528,36.563z"/>
		<path style="clip-path:url(#SVGID_2_);fill:#261B18;" d="M25.652,31.376c-2.02-0.869-3.289,2.713-1.912,3.883
			c0.642-0.188,1.401-0.118,1.999,0.172C27.095,34.729,27.155,32.024,25.652,31.376z"/>
		<path style="opacity:0.3;clip-path:url(#SVGID_2_);fill:#B54D26;" d="M35.25,37.821c-1.181,0.015-1.646-0.524-2.473-0.033
			c-0.825,0.49,0.354,2.064,2.443,1.988c2.08-0.073,2.984-1.504,2.551-2.036C37.269,37.121,36.56,37.807,35.25,37.821z"/>
		<path style="clip-path:url(#SVGID_2_);fill:#FFDFC2;" d="M34.941,33.387c-2.218-0.192-2.385,4.493-1.878,4.895
			c1.243,0.982,3.841,0.288,4.597-0.502C37.959,37.468,37.058,33.571,34.941,33.387z"/>
		<path style="clip-path:url(#SVGID_2_);fill:#261B18;" d="M45.096,31.239c-2.053-1.231-3.563,2.731-1.869,3.851
			c0.537-0.355,1.614-0.246,2.139-0.003C46.188,34.175,46.198,31.9,45.096,31.239z"/>
		<path style="opacity:0.7;clip-path:url(#SVGID_2_);fill:#E6D2C3;" d="M24.681,32.254c-0.819,0.278-0.195,1.872,0.604,1.293
			C25.862,33.128,25.41,32.008,24.681,32.254z"/>
		<path style="opacity:0.7;clip-path:url(#SVGID_2_);fill:#E6D2C3;" d="M44.04,31.925c-0.808,0.162-0.421,1.752,0.407,1.301
			C45.045,32.9,44.759,31.782,44.04,31.925z"/>
		<path style="clip-path:url(#SVGID_2_);fill:#2B221C;" d="M27.539,26.948c-1.394-0.183-2.718-0.144-4.147,0.249
			c-2.15,0.591-2.239,1.672-2.096,2.363c0.144,0.687,0.894,0.37,3.303,0.246c2.219-0.111,3.85,0.373,4.207-0.667
			C29.257,27.827,28.289,27.045,27.539,26.948z"/>
		<path style="clip-path:url(#SVGID_2_);fill:#2B221C;" d="M45.903,27.082c-1.449-0.312-2.773-0.276-4.155-0.015
			c-0.743,0.14-1.665,0.977-1.139,2.262c0.415,1.017,2.016,0.441,4.237,0.425c2.411-0.013,3.181,0.261,3.282-0.435
			C48.234,28.623,48.085,27.548,45.903,27.082z"/>
		<path style="clip-path:url(#SVGID_2_);fill:#2B221C;" d="M48.18,43.234c-0.068-0.868,0.563-1.874,0.744-2.769
			c0.44-2.187,0.526-6.206-1.53-7.61c0.423,4.104-0.858,7.219-1.658,7.984c-1.669,1.595-3.694-0.566-4.486-1.122
			c-2.13-1.494-3.342-0.828-5.887-0.523c-3.391,0.052-5.054-0.896-7.369,2.144c-1.794,2.355-6.221,1.358-7.177-4.717
			c-0.152-0.965,0.061-3.118-1.463-2.644c-1.723,0.538-0.328,9.162-0.329,10.838c-0.002,1.365,0.158,4.347,1.806,4.706
			c-0.459,1.663-0.211,4.379,2.205,3.705c-0.134,1.333-0.213,2.877,1.025,3.673c0.969,0.622,2.941,0.624,3.731-0.262
			c0.619,1.163,1.438,2.208,2.798,2.5c1.09,0.235,3.156,0.093,3.442-1.249c1.096,1.324,7.172,2.553,6.974-0.298
			c2.213,1.72,4.872,0.006,4.139-2.638c2.325,0.22,2.925-0.968,2.709-3.068c1.976-0.485,1.995-2.814,1.732-4.474
			C49.364,46.005,48.285,44.595,48.18,43.234z"/>
		<path style="clip-path:url(#SVGID_2_);fill:#F5B37A;" d="M38.583,42.656c-0.441,1.109-2.4,0.409-3.136-0.055
			c-0.733,0.801-2.801,1.031-3.576,0.253c-0.138,0.619-2.159,1.167-2.254,1.986c1.751,2.938,10.813,1.855,11.783-0.311
			C41.21,43.671,39.219,43.303,38.583,42.656z"/>
		<path style="clip-path:url(#SVGID_2_);fill:#BF795C;" d="M32.057,44.141c0,0,4.081,0.546,6.437-0.253
			C37.442,43.342,32.897,43.72,32.057,44.141z"/>
		<path style="opacity:0.5;clip-path:url(#SVGID_2_);fill:#45362E;" d="M37.657,47.72c-2.428,0.412-5.487-0.128-7.862-0.703
			c-1.454-0.353-2.06-0.738-3.256,0.266c-0.757,0.636-1.493,1.448-2.023,2.28c-0.736,1.155-0.574,5.62,1.04,3.53
			c0.196,2.415,2.286,1.814,3.524,0.482c0.353,1.221,0.205,2.123,1.751,2.354c1.061,0.158,2.037-0.315,2.645-1.173
			c0.958,0.43,2.082,2.27,3.315,1.728c0.886-0.389,0.392-1.82,0.946-2.061c0.89-0.385,2.444,1.921,3.516,0.781
			c0.663-0.706-0.281-1.847-0.607-2.489c0.885,0.465,3.296,1.25,4.033,0.071c0.378-0.604-0.176-1.831-0.379-2.457
			c0.197,0.612,1.71,0.11,1.876-0.369c0.245-0.702-0.726-1.73-1.113-2.187C42.821,45.13,40.535,47.233,37.657,47.72z"/>
	</g>
</g>
<g id="Layer_1">
</g>
</svg>
