<?xml version="1.0" encoding="iso-8859-1"?>
<!-- Generator: Adobe Illustrator 16.0.0, SVG Export Plug-In . SVG Version: 6.00 Build 0)  -->
<!DOCTYPE svg PUBLIC "-//W3C//DTD SVG 1.1//EN" "http://www.w3.org/Graphics/SVG/1.1/DTD/svg11.dtd">
<svg version="1.1" xmlns="http://www.w3.org/2000/svg" xmlns:xlink="http://www.w3.org/1999/xlink" x="0px" y="0px" width="66.01px"
	 height="66.001px" viewBox="0 0 66.01 66.001" style="enable-background:new 0 0 66.01 66.001;" xml:space="preserve">
<g id="Layer_32">
	<g>
		<defs>
			<circle id="SVGID_1_" cx="33.01" cy="33.001" r="33"/>
		</defs>
		<clipPath id="SVGID_2_">
			<use xlink:href="#SVGID_1_"  style="overflow:visible;"/>
		</clipPath>
		<rect style="clip-path:url(#SVGID_2_);fill:#FFFFFF;" width="66" height="65.998"/>
		<path style="clip-path:url(#SVGID_2_);fill:#261B18;" d="M20.291,13c-8.783,9.74-5.338,21.313-5.225,24.25
			c0.223,5.742-2.529,8.342-1.008,12.238c4.575,11.713,19.451,13.97,29.729,9.365c5.508-2.469,7.563-8.426,7.191-14.063
			c-0.237-3.598,0.049-6.69,0.824-10.163c0.738-3.298,0.565-6.929,0.428-10.309C51.508,6.552,29.209,3.111,20.291,13z"/>
		<path style="clip-path:url(#SVGID_2_);fill:#E8E8E8;" d="M39.532,56.572c-2.451-2.482-8.785-2.513-11.476-0.4
			c-2.448,1.921-0.668,6.172,0.19,9.826h10.901C39.768,61.735,41.984,59.057,39.532,56.572z"/>
		<path style="clip-path:url(#SVGID_2_);fill:#313142;" d="M39.831,63.039c-0.893-1.937-0.697-5.168-0.229-6.717
			c-2.46-2.44-9.18-2.237-11.979,0.055c0.388,1.391,0.649,4.143-0.246,6.277c0.306,1.207,0.61,2.298,0.827,3.344H39.21
			C39.321,64.94,39.546,64.011,39.831,63.039z"/>
		<path style="opacity:0.3;clip-path:url(#SVGID_2_);" d="M29.003,57.936l0.894,4.021c0,0,3.508-1.789,3.941-1.789
			c0.473,0,4.005,1.633,4.005,1.633l0.482-4.143c0,0-3.709,2.293-4.475,2.297C33.283,59.958,29.003,57.936,29.003,57.936z"/>
		<path style="clip-path:url(#SVGID_2_);fill:#F5F5F5;" d="M36.808,54.299c-1.787-0.75-4.948-0.701-6.607,0.084
			c-3.232,1.531,0.203,6.553,0.203,6.553l3.476-0.875l3.47,0.76C37.349,60.82,39.973,55.627,36.808,54.299z"/>
		<linearGradient id="SVGID_3_" gradientUnits="userSpaceOnUse" x1="33.7178" y1="52.3936" x2="33.7178" y2="55.6704">
			<stop  offset="0" style="stop-color:#EE996D"/>
			<stop  offset="0.0163" style="stop-color:#EE9A6E"/>
			<stop  offset="0.3731" style="stop-color:#F8B181"/>
			<stop  offset="0.7088" style="stop-color:#FDBF8D"/>
			<stop  offset="1" style="stop-color:#FFC491"/>
		</linearGradient>
		<path style="clip-path:url(#SVGID_2_);fill:url(#SVGID_3_);" d="M36.847,54.773c-0.566-0.45-0.43-1.839-0.336-3.445
			c0.21-3.645-6.085-3.779-6.078,0.197c0.004,1.762,0.065,2.865-0.409,3.352c-0.915,0.938-0.828,2.588,3.771,4.715
			C36.302,58.352,39.561,56.935,36.847,54.773z"/>
		<circle style="clip-path:url(#SVGID_2_);fill:#FFF9F0;" cx="29.863" cy="55.446" r="0.536"/>
		<circle style="clip-path:url(#SVGID_2_);fill:#FFF9F0;" cx="31.088" cy="56.28" r="0.536"/>
		<circle style="clip-path:url(#SVGID_2_);fill:#FFF9F0;" cx="32.676" cy="56.84" r="0.537"/>
		<path style="clip-path:url(#SVGID_2_);fill:#FFF9F0;" d="M34.249,56.391c-0.294,0.008-0.523,0.256-0.516,0.552
			c0.011,0.298,0.257,0.529,0.553,0.52c0.292-0.009,0.522-0.257,0.512-0.554C34.79,56.612,34.544,56.38,34.249,56.391z"/>
		<circle style="clip-path:url(#SVGID_2_);fill:#FFF9F0;" cx="37.15" cy="55.393" r="0.537"/>
		<path style="clip-path:url(#SVGID_2_);fill:#FFF9F0;" d="M35.856,55.801c-0.296,0.008-0.526,0.255-0.516,0.551
			c0.011,0.297,0.256,0.531,0.55,0.52c0.295-0.01,0.525-0.256,0.515-0.555C36.397,56.021,36.15,55.787,35.856,55.801z"/>
		<path style="opacity:0.07;clip-path:url(#SVGID_2_);fill:#FFFFFF;" d="M36.451,61.49c-1.914,0.717-4.242,0.418-6.202-0.096
			c-1.129-0.299-1.764,1.053-1.419,2.205c0.459,1.525,2.8,1.922,4.839,1.885c4.023-0.07,5.532-1.649,4.853-3.53
			C38.34,61.451,37.479,61.105,36.451,61.49z"/>
		<path style="clip-path:url(#SVGID_2_);fill:#FFBC82;" d="M32.269,15.9c-7.668,1.355-13.247,12.248-12.025,22.58
			c0.907,7.667,7.428,15.934,15.31,15.434c9.48-0.6,14.267-11.77,13.294-20.876C47.743,22.693,43.007,14.004,32.269,15.9z"/>
		<path style="opacity:0.2;clip-path:url(#SVGID_2_);fill:#BF3C1B;" d="M45.643,19.005c-4.132-1.726-8.151-2.749-12.711-2.942
			c-2.789-0.121-6.533-0.361-9.164,0.719c-5.623,2.307-5.216,7.209-5.359,12.113c-0.05,1.719-0.553,3.422-0.752,5.125
			c-0.212,1.82-0.611,7.135,2.438,5.848c1.595-0.674,2.02-3.462,2.421-4.986c1.487-5.65,4.53-6.256,7.507-7.291
			c3.5-1.218,7.531-2.505,8.289-4.785c1.488,2.385,7.595,7.258,10.263,4.33C50.711,24.789,47.881,19.941,45.643,19.005z"/>
		<path style="clip-path:url(#SVGID_2_);fill:#261B18;" d="M43.41,13.979c-4.163-3.658-9.667-3.725-14.88-2.918
			c-3.435,0.53-6.42,2.961-8.458,5.664c-2.269,3.01-2.861,5.811-3.235,9.539c-0.241,2.395,0.075,5.5,0.307,7.945
			c0.123,1.282,0.063,5.576,1.735,6.025c1.97,0.521,2.499-5.672,2.945-7.079c1.381-4.358,4.143-5.608,7.982-6.687
			c3.076-0.865,7.236-2.248,8.396-5.5c2.293,2.309,6.694,6.075,10.234,5.887c2.838-0.15,1.451-3.572,0.766-5.32
			C48.049,18.598,45.606,15.908,43.41,13.979z"/>
		<path style="clip-path:url(#SVGID_2_);fill:#57443A;" d="M43.61,11.583c-3.442-1.991-7.671-2.868-11.629-2.671
			c-5.286,0.264-10.646,3.961-12.992,8.785c-0.715,1.47-2.599,6.133-2.247,9.725c0.597-0.01,4.05-0.594,5.428-2.248
			c-0.218,1.174-1.494,2.59-1.898,3.754c2.674-0.949,5.788-2.168,12.382-4.66c3.539-1.338,4.703-3.538,5.155-6.101
			c2.324,2.87,6.367,6.363,10.256,6.353c-0.608-0.633-1.099-1.41-1.723-2.064c1.251,0.502,2.919,0.942,4.687-0.088
			C49.951,17.648,47.905,14.064,43.61,11.583z"/>
		<path style="opacity:0.4;clip-path:url(#SVGID_2_);fill:#FF7752;" d="M47.581,36.843c-0.6-0.866-1.883-1.042-2.801-1.053
			c-1.199-0.013-2.793,0.413-1.728,2.128c0.57,0.91,5.344,1.594,4.788-0.508C47.784,37.195,47.694,37.008,47.581,36.843z"/>
		<path style="opacity:0.4;clip-path:url(#SVGID_2_);fill:#FF7752;" d="M29.32,36.467c-0.835-0.721-2.186-0.563-3.122-0.332
			c-1.22,0.299-2.726,1.154-1.192,2.609c0.816,0.779,5.846,0.219,4.729-1.768C29.619,36.773,29.481,36.604,29.32,36.467z"/>
		<path style="opacity:0.2;clip-path:url(#SVGID_2_);fill:#BF3C1B;" d="M36.368,38.082c-0.986,0.063-1.028-0.381-1.688,0.041
			c-0.657,0.42,0.052,1.649,1.792,1.502c1.736-0.147,2.396-1.313,1.997-1.715C38.01,37.443,37.461,38.016,36.368,38.082z"/>
		<path style="clip-path:url(#SVGID_2_);fill:#425361;" d="M46.052,31.535c-2.721-1.161-5.204,2.196-3.246,3.943
			c0.394-0.428,2.523-1.117,3.84-0.123C47.763,34.555,47.509,32.159,46.052,31.535z"/>
		<path style="clip-path:url(#SVGID_2_);fill:#C3D5E3;" d="M44.875,32.039c-1.265,0.396-0.667,2.828,0.629,1.974
			C46.44,33.398,46.001,31.688,44.875,32.039z"/>
		<path style="clip-path:url(#SVGID_2_);fill:#425361;" d="M25.786,31.756c-1.438,0.666-1.625,3.068-0.482,3.836
			c1.286-1.032,3.436-0.405,3.842,0.01C31.052,33.799,28.472,30.517,25.786,31.756z"/>
		<path style="clip-path:url(#SVGID_2_);fill:#C3D5E3;" d="M27.484,32.141c-1.136-0.316-1.526,1.406-0.57,1.992
			C28.233,34.949,28.761,32.502,27.484,32.141z"/>
		<path style="clip-path:url(#SVGID_2_);fill:#261B18;" d="M29.585,28.461c-1.353-0.057-2.642-0.064-3.989,0.23
			c-0.839,0.186-1.852,0.57-2.512,1.078c-0.222,0.172-0.498,0.473-0.485,0.739c0.221,0.034,0.388-0.104,0.589-0.161
			c1.021-0.283,2.094-0.314,3.14-0.334c0.815-0.018,1.626,0.041,2.44,0.003c0.546-0.024,1.291,0.087,1.587-0.446
			C30.728,28.896,30.313,28.492,29.585,28.461z"/>
		<path style="clip-path:url(#SVGID_2_);fill:#261B18;" d="M48.227,29.39c-0.65-0.462-1.643-0.794-2.462-0.94
			c-1.319-0.234-2.57-0.174-3.888-0.068c-0.712,0.059-1.108,0.464-0.736,1.097c0.296,0.503,1.021,0.368,1.552,0.37
			c0.796,0.002,1.583-0.082,2.378-0.1c1.018-0.021,2.066-0.033,3.063,0.201c0.197,0.047,0.362,0.172,0.576,0.131
			C48.717,29.824,48.446,29.545,48.227,29.39z"/>
		<path style="clip-path:url(#SVGID_2_);fill:#121B21;" d="M45.509,31.071C43,30.615,42.29,33.084,42.29,33.084
			s1.216-1.564,2.845-0.869c3.696,1.578,5.651-1.045,5.651-1.045C48.147,32.404,46.793,31.303,45.509,31.071z"/>
		<path style="clip-path:url(#SVGID_2_);fill:#121B21;" d="M26.418,31.344c-1.28,0.248-2.624,1.362-5.274,0.156
			c0,0,1.982,2.602,5.661,0.984c1.621-0.713,2.854,0.84,2.854,0.84S28.921,30.863,26.418,31.344z"/>
		<path style="clip-path:url(#SVGID_2_);fill:#FF3B3B;" d="M25.716,41.424c4.282,6.289,6.882,7.422,10.157,7.564
			c4.105,0.178,5.469-2.443,6.062-4.403c0.252-0.829,2.298-2.98,3.095-3.474c-2.548,0.601-5.068,0.337-8.923,0.504
			C32.918,41.754,28.251,42.701,25.716,41.424z"/>
		<path style="clip-path:url(#SVGID_2_);fill:#A80A0A;" d="M27.663,42.502c0,0,2.581,4.236,7.685,4.264
			c3.27,0.018,5.406-1.015,5.994-2.47c0.642-1.591,2.026-2.183,2.026-2.183C34.495,44.279,27.663,42.502,27.663,42.502z"/>
		<path style="clip-path:url(#SVGID_2_);fill:#FFF9F0;" d="M29.563,42.857c0,0,0.173,1.289,1.995,1.764
			c2.337,0.609,4.847,0.615,7.429,0.203c1.74-0.275,2.571-2.314,2.571-2.314S36.587,43.691,29.563,42.857z"/>
		<path style="clip-path:url(#SVGID_2_);fill:#FFF9F0;" d="M36.62,45.025c-2.333,0.11-4.273-0.012-5.451-0.701
			c-0.839-0.49-0.908,0.051-0.725,0.387c0,0,0.778,1.758,4.657,2.115c3.727,0.342,5.626-1.796,5.197-2.158
			C39.869,44.309,38.783,44.921,36.62,45.025z"/>
		<path style="clip-path:url(#SVGID_2_);fill:#E8DAC5;" d="M29.563,42.857c0,0,0.14,0.598,0.476,0.904c0,0,8.722-0.812,10.819-0.116
			c0,0,0.604-0.722,0.7-1.136C41.558,42.51,35.472,43.646,29.563,42.857z"/>
		<path style="clip-path:url(#SVGID_2_);fill:#E8DAC5;" d="M31.868,44.575c3.152,1.726,6.882,0.188,6.882,0.188
			C34.82,45.658,31.868,44.575,31.868,44.575z"/>
		<path style="opacity:0.3;clip-path:url(#SVGID_2_);fill:#B54D26;" d="M47.035,29.108c-1.5,0.075-2.995,0.302-4.452,0.681
			c-1.242,0.324-2.701,0.467-3.846,1.055c-1.056,0.545-1.499,0.901-2.773,0.844c-2.276-0.102-4.189-1.525-6.463-1.77
			c-2.366-0.254-4.787-0.541-7.124,0.093c-0.606,0.167-2.444,0.856-1.207,1.512c1.207,0.641,3.018,0.444,4.344,0.5
			c0.612,0.026,1.228,0.044,1.836,0.103c2.162,0.205,5.493-0.084,5.312,2.619c-0.125,1.854-1.326,3.754-2.835,4.098
			c-1.445,0.33-2.994,0.455-4.457,0.445c-1.121-0.01-2.202-0.23-3.22-0.706c-0.291-0.134-1.155-0.69-1.437-0.298
			c-0.482,0.662,1.273,1.773,1.734,1.981c1.055,0.481,2.172,0.626,3.314,0.753c2.821,0.309,5.729,0.17,7.33-2.419
			c0.931-1.503,1.4-3.271,2.26-4.813c1.409-2.523,2.059,0.909,2.496,2.413c0.248,0.844,0.607,1.662,1.12,2.375
			c0.909,1.262,2.698,1.949,4.198,2.023c0.925,0.046,4.213-0.442,4.875-1.104c0.908-0.908-1.398-0.071-2.025-0.312
			c-0.379-0.143-0.984-0.041-1.383-0.059c-0.58-0.025-1.173-0.034-1.742-0.144c-0.733-0.14-1.47-0.446-2.09-0.901
			c-0.433-0.318-0.806-0.713-1.081-1.176c-0.57-0.964-0.594-2.141-0.215-3.181c0.522-1.431,2.094-1.542,3.399-1.649
			c1.581-0.131,3.178-0.098,4.75-0.238c0.703-0.062,1.399,0.034,2.098,0.061c0.902,0.034,2.846-0.248,1.782-1.561
			C50.506,29.072,48.494,29.039,47.035,29.108z"/>
		<path style="clip-path:url(#SVGID_2_);fill:#23232D;" d="M20.136,29.012c-1.864,0.056-3.453-0.465-3.894-0.09
			c-0.571,0.484,0.422,2.15,0.422,2.15s0.594,0.42,1.467,0.492c0.118,1.296,0.039,4.639,2.412,6.754
			c1.979,1.764,8.455,2.285,10.473,1.276c2.497-1.251,3.563-3.577,4.008-5.873C36.115,28.094,22.763,28.932,20.136,29.012z
			 M31.15,38.078c-2.465,1.585-8.761,0.824-10.393-1.201c-1.26-1.564-1.478-4.826-0.704-5.291
			c2.362-1.414,11.229-0.855,13.275,0.715C34.322,33.061,33.019,36.873,31.15,38.078z"/>
		<path style="clip-path:url(#SVGID_2_);fill:#23232D;" d="M50.686,28.553c-2.375-0.002-14.454-0.453-13.312,5.139
			c0.465,2.283,1.492,4.577,3.782,5.754c1.848,0.951,7.682,0.243,9.419-1.578c2.082-2.185,1.921-5.523,1.991-6.82
			c0.786-0.1,1.308-0.535,1.308-0.535s0.854-1.691,0.323-2.164C53.789,27.988,52.369,28.557,50.686,28.553z M50.342,36.43
			c-1.417,2.076-7.079,3.02-9.35,1.504c-1.722-1.148-3.005-4.922-2.127-5.711c1.804-1.628,9.795-2.447,11.965-1.099
			C51.541,31.564,51.436,34.834,50.342,36.43z"/>
		<path style="opacity:0.3;clip-path:url(#SVGID_2_);fill:#FFFFFF;" d="M40.429,31.719c-1.316,0.568,1.071,1.264,1.585,1.342
			c1.779,0.262,3.798,0.139,5.695-0.213c0.996-0.185,3.138-1.094,2.521-1.645C49.369,30.436,41.881,31.094,40.429,31.719z"/>
		<path style="clip-path:url(#SVGID_2_);fill:#FFFFFF;" d="M46.301,31.391c-0.716,0.115-1.182,0.321-0.984,0.643
			c0.386,0.635,4.576,0.273,4.859-0.213C50.454,31.345,47.818,31.15,46.301,31.391z"/>
		<path style="opacity:0.7;clip-path:url(#SVGID_2_);fill:#FFFFFF;" d="M41.76,36.611c-0.451-0.021-0.764,0.074-0.686,0.355
			c0.151,0.557,2.754,0.914,2.992,0.576C44.297,37.211,42.717,36.654,41.76,36.611z"/>
		<path style="opacity:0.7;clip-path:url(#SVGID_2_);fill:#FFFFFF;" d="M22.206,36.411c-0.469-0.074-0.808-0.021-0.761,0.271
			c0.085,0.571,2.764,1.246,3.055,0.939C24.787,37.32,23.202,36.572,22.206,36.411z"/>
		<path style="opacity:0.3;clip-path:url(#SVGID_2_);fill:#FFFFFF;" d="M32.347,31.971c-1.663-0.596-9.923-1.229-10.776-0.5
			c-0.61,0.524,1.838,1.388,2.949,1.565c2.115,0.335,4.333,0.455,6.251,0.204C31.321,33.17,33.85,32.512,32.347,31.971z"/>
		<path style="clip-path:url(#SVGID_2_);fill:#FFFFFF;" d="M28.755,31.484c-0.76,0.025-1.276,0.172-1.111,0.518
			c0.321,0.674,4.753,0.837,5.114,0.391C33.112,31.955,30.377,31.433,28.755,31.484z"/>
		<path style="clip-path:url(#SVGID_2_);fill:#23232D;" d="M38.942,30.324c-1.727,0.787-3.407,0.909-5.812,0.053
			c-1.813-0.648,0.953,1.182,1.163,2.124s-0.107,3.823,0.525,2.108c0.634-1.717,1.901-1.824,2.708-0.246
			c0.81,1.58,0.756-2.637,1.085-3.019C38.941,30.96,40.671,29.535,38.942,30.324z"/>
		<path style="clip-path:url(#SVGID_2_);fill:#C1C5C9;" d="M21.008,29.566c5.029,0.262,9.047,0.411,12.083,1.59
			C31.112,29.525,27.703,29.158,21.008,29.566z"/>
		<path style="clip-path:url(#SVGID_2_);fill:#C1C5C9;" d="M50.261,28.99c-6.141,0.213-9.002,0.251-10.656,1.81
			C42.266,29.541,45.699,29.635,50.261,28.99z"/>
		<path style="clip-path:url(#SVGID_2_);fill:#E8E8E8;" d="M27.619,56.525c-0.225,0.104-1.963,0.708-2.92,3.256
			c-0.454,1.208-0.966,4.146-1.239,6.217h3.427c0.11-1.315,0.328-2.808,0.745-4.075C28.005,60.788,27.832,56.428,27.619,56.525z"/>
		<path style="clip-path:url(#SVGID_2_);fill:#E8E8E8;" d="M39.576,56.525c-0.213-0.098-0.386,4.263-0.013,5.397
			c0.417,1.268,0.635,2.76,0.745,4.075h3.427c-0.273-2.071-0.785-5.009-1.239-6.217C41.539,57.233,39.801,56.63,39.576,56.525z"/>
	</g>
</g>
<g id="Layer_1">
</g>
</svg>
