<?xml version="1.0" encoding="iso-8859-1"?>
<!-- Generator: Adobe Illustrator 16.0.0, SVG Export Plug-In . SVG Version: 6.00 Build 0)  -->
<!DOCTYPE svg PUBLIC "-//W3C//DTD SVG 1.1//EN" "http://www.w3.org/Graphics/SVG/1.1/DTD/svg11.dtd">
<svg version="1.1" xmlns="http://www.w3.org/2000/svg" xmlns:xlink="http://www.w3.org/1999/xlink" x="0px" y="0px"
	 width="66.008px" height="66px" viewBox="0 0 66.008 66" style="enable-background:new 0 0 66.008 66;" xml:space="preserve">
<g id="Layer_47">
	<g>
		<defs>
			<circle id="SVGID_1_" cx="33.008" cy="33" r="33"/>
		</defs>
		<clipPath id="SVGID_2_">
			<use xlink:href="#SVGID_1_"  style="overflow:visible;"/>
		</clipPath>
		<rect style="clip-path:url(#SVGID_2_);fill:#7997A0;" width="66" height="66"/>
		<path style="clip-path:url(#SVGID_2_);fill:#912907;" d="M55.907,40.27c3.275-1.498,1.89-8.495-1.813-6.234
			c2.515-0.095,0.088,3.908-1.32,0.896c-0.888-1.903,1.16-2.825,2.081-4.094c1.157-1.593,1.476-3.227,1.299-5.276
			c-0.445-5.157-5.188-8.407-7.92-12.382c-2.978-4.33-7.188-7.098-12.607-5.148c-1.337,0.481-2.443,1.455-3.383,2.496
			c-0.303-0.814-0.877-1.763-1.691-2.366c-0.087,0.772-0.127,1.549-0.148,2.337c-2.944-1.805-7.56-1.072-10.12,0.587
			c-3.48,2.254-3.152,5.725-4.557,9.112c-1.284,3.096-5.356,6.704-5.098,10.298c0.163,2.251,1.77,3.414,1.663,5.729
			c-0.09,1.936-2.191,2.979-1.231,4.867c0.915,1.798,4.908,1.253,2.896,4.496c-1.844,2.97-5.452-0.541-3.191-1.021
			c-2.494-1.212-3.534,2.018-3.167,3.947c0.511,2.686,4.275,2.742,6.298,2.193c-5.271,9.648,9.738,12.033,17.162,5.64
			c3.181-2.739,5.733,4.486,9.578,4.829c5.194,0.462,7.934-3.266,6.876-6.599c0.886,2.789,3.983,2.953,6.318,1.951
			c1.162-0.498,3.704-2.333,3.485-5.884c-0.957,1.184-2.904,1.465-4.271,0.861c-1.918-0.85-2.53-2.789-1.353-4.469
			c1.438-2.049,5.526-4.656,1.537-6.818C54.086,40.683,55.029,40.672,55.907,40.27z"/>
		<path style="clip-path:url(#SVGID_2_);fill:#801A00;" d="M50.834,34.125c-0.975-2.832-5.348-2.632-7.721-2.614
			c-3.364,0.023-6.785,0.051-10.089,0.771c-1.527,0.334-2.766,0.753-4.029,1.628c-0.891,0.621-2.182,1.93-3.375,1.806
			c-0.588-0.063-0.325-0.389-0.779-0.584c-0.765-0.328-1.757-1.144-2.59-1.281c-1.923-0.315-4.531,1.306-4.996,3.218
			c-0.472,1.947,0.581,3.804,1.329,5.474c1.604,3.57,0.577,7.265-2.223,9.871c-1.444,1.343-1.883,2.436,0.181,3.773
			c3.345,2.166,8.049,2.297,13.34,0.525c2.513-0.841,10.664,3.664,13.449,2.205c2.234-1.171,2.923-2.34,3.811-6.368
			c0.719,0.896,1.689,2.365,3.012,2.36c-1.248-2.351,0.013-5.042,0.341-7.466c0.358-2.635-0.113-5.283,0.002-7.939
			C50.57,37.838,51.392,35.75,50.834,34.125z"/>
		<path style="clip-path:url(#SVGID_2_);fill:#F06799;" d="M40.716,55.264l-1.63,3.21c0.51,0.259,0.985,2.599,1.241,3.855
			c0.227,1.116,0.49,2.41,0.913,3.671H45.1c-0.522-1.076-0.871-2.555-1.244-4.388C43.302,58.886,42.777,56.311,40.716,55.264z"/>
		<path style="clip-path:url(#SVGID_2_);fill:#F06799;" d="M31.176,58.474l-1.63-3.21c-2.062,1.047-2.586,3.622-3.14,6.349
			c-0.373,1.833-0.722,3.312-1.244,4.388h3.859c0.423-1.261,0.687-2.555,0.913-3.671C30.19,61.072,30.666,58.732,31.176,58.474z"/>
		<path style="clip-path:url(#SVGID_2_);fill:#F06799;" d="M41.1,62.105c1.079-4.037,1.201-6.484-1.295-7.303
			c-2.426-0.799-6.897-1.066-9.558,0.071c-2.12,0.907-2.799,2.377-1.352,6.854c0.49,1.521,0.9,2.975,1.108,4.272h10.255
			C40.411,64.928,40.682,63.668,41.1,62.105z"/>
		<linearGradient id="SVGID_3_" gradientUnits="userSpaceOnUse" x1="34.7188" y1="53.1641" x2="34.7188" y2="56.6496">
			<stop  offset="0" style="stop-color:#E88958"/>
			<stop  offset="0.3384" style="stop-color:#F49D62"/>
			<stop  offset="0.6924" style="stop-color:#FCAB69"/>
			<stop  offset="1" style="stop-color:#FFB06B"/>
		</linearGradient>
		<path style="clip-path:url(#SVGID_2_);fill:url(#SVGID_3_);" d="M37.847,50.629c0.205-3.57-5.961-3.702-5.954,0.193
			c0.002,1.728,0.133,3.043-0.226,3.602c-2.469,3.86,8.451,4.322,6.146,0.184C37.294,53.679,37.757,52.205,37.847,50.629z"/>
		<path style="clip-path:url(#SVGID_2_);fill:#FF87B3;" d="M37.607,59.478c-1.747,0.619-3.876,0.358-5.669-0.09
			c-1.032-0.258-1.61,0.909-1.292,1.907c0.418,1.324,2.56,1.67,4.424,1.641c3.678-0.059,5.056-1.424,4.432-3.052
			C39.335,59.446,38.548,59.147,37.607,59.478z"/>
		<path style="clip-path:url(#SVGID_2_);fill:#FAB077;" d="M33.392,16.879c-8.235,1.053-14.766,7.683-13.686,19.099
			c1.08,11.417,8.785,18.304,17.087,18.236c6.372-0.052,14.062-10.472,13.636-22.261C50.018,20.646,41.626,15.826,33.392,16.879z"/>
		<path style="clip-path:url(#SVGID_2_);fill:#591702;" d="M47.204,27.2c-1.271-0.214-3.889,0.311-3.42,2.216
			c0.144,0.588,0.453,0.634,0.873,0.346c0.319-0.218,0.432-0.87,0.737-1.158c1.509-1.422,4.029-0.01,4.782,1.493
			C49.711,28.209,48.409,27.402,47.204,27.2z"/>
		<path style="clip-path:url(#SVGID_2_);fill:#591702;" d="M26.012,28.193c-1.323,0.378-2.633,1.373-2.768,3.313
			c0.54-1.604,3.105-3.376,5.111-2.191c0.405,0.241,0.668,0.871,1.076,1.04c0.535,0.222,0.876,0.131,0.919-0.472
			C30.484,27.925,27.41,27.793,26.012,28.193z"/>
		<path style="clip-path:url(#SVGID_2_);fill:#F59A62;" d="M48.823,37.26c-0.49-0.934-1.736-1.188-2.643-1.25
			c-1.182-0.081-2.806,0.273-1.953,2.107c0.453,0.979,5.085,1.955,4.783-0.256C48.981,37.633,48.915,37.435,48.823,37.26z"/>
		<path style="clip-path:url(#SVGID_2_);fill:#F59A62;" d="M28.355,37.037c-0.92-0.621-2.228-0.27-3.119,0.096
			c-1.163,0.477-2.532,1.557-0.825,2.826c0.91,0.676,5.785-0.598,4.418-2.463C28.689,37.303,28.53,37.152,28.355,37.037z"/>
		<path style="clip-path:url(#SVGID_2_);fill:#283B21;" d="M27.97,31.46c-2.135-0.79-3.365,3.035-1.6,4.409
			c0.608-0.43,1.275-0.486,1.912-0.218C29.645,34.852,29.56,32.048,27.97,31.46z"/>
		<path style="opacity:0.3;clip-path:url(#SVGID_2_);fill:#960800;" d="M37.147,41.987c-1.537,0.106-3.082,0.114-4.616-0.024
			c-1.029-0.095-3.059-0.654-4.177-1.442c0.354,1.163,0.816,2.255,1.313,3.142c0.459,0.814,1.043,1.631,1.68,2.313
			c1.601,1.716,3.675,2.846,6.067,2.82c4.335-0.042,4.904-2.744,5.049-4.785c0.087-1.248,1.346-2.096,1.94-3.217
			c0.144-0.266,0.247-0.547,0.289-0.852c-0.948,0.643-2.115,1.286-3.246,1.496C40.026,41.701,38.589,41.889,37.147,41.987z"/>
		<path style="clip-path:url(#SVGID_2_);fill:#8F2F2B;" d="M29.821,42.113c0,0,1.94,5.011,7.072,4.725
			c4.622-0.26,5.141-1.996,5.327-3.209c0.247-1.623,1.486-2.287,1.486-2.287C36.356,44.554,29.821,42.113,29.821,42.113z"/>
		<path style="clip-path:url(#SVGID_2_);fill:#FFF2DE;" d="M31.515,42.594c0,0,0.082,1.637,1.675,2.217
			c2.043,0.744,4.316,0.779,6.627,0.111c1.554-0.449,2.416-2.955,2.416-2.955S37.814,43.585,31.515,42.594z"/>
		<path style="clip-path:url(#SVGID_2_);fill:#FFF2DE;" d="M38.001,44.979c-2.195,0.087-4.092-0.152-5.125-0.526
			c-0.86-0.313-0.864,0.152-0.695,0.562c0,0,0.306,1.683,4.313,1.88c3.505,0.172,4.995-2.003,4.598-2.433
			C40.693,44.032,40.197,44.895,38.001,44.979z"/>
		<path style="clip-path:url(#SVGID_2_);fill:#E8D3B5;" d="M31.506,42.572c0,0,0.083,0.915,0.426,1.281c0,0,7.826-1.172,9.681-0.568
			c0,0,0.537-0.924,0.62-1.318C42.232,41.967,36.694,43.6,31.506,42.572z"/>
		<path style="clip-path:url(#SVGID_2_);fill:#E8D3B5;" d="M33.334,44.453c3.479,1.531,7.273-0.066,7.273-0.066
			C36.349,45.352,33.334,44.453,33.334,44.453z"/>
		<path style="opacity:0.3;clip-path:url(#SVGID_2_);fill:#BF3C1B;" d="M37.604,38.134c-1.138,0.056-1.649-0.327-2.392,0.072
			c-0.741,0.4,0.479,1.866,2.488,1.728c1.999-0.139,2.812-1.574,2.331-1.959C39.472,37.53,38.866,38.072,37.604,38.134z"/>
		<path style="clip-path:url(#SVGID_2_);fill:#283B21;" d="M47.887,30.879c-2.202-1.343-3.875,3.06-1.706,4.004
			c0.661-0.207,1.463-0.072,1.974,0.289C49.17,34.321,49.069,31.601,47.887,30.879z"/>
		<path style="clip-path:url(#SVGID_2_);fill:#82A375;" d="M27.612,32.39c-0.896,0.021-0.773,1.79,0.196,1.464
			C28.51,33.618,28.408,32.372,27.612,32.39z"/>
		<path style="clip-path:url(#SVGID_2_);fill:#82A375;" d="M47.066,31.866c-0.879-0.022-0.865,1.731,0.104,1.458
			C47.873,33.127,47.849,31.889,47.066,31.866z"/>
		<path style="clip-path:url(#SVGID_2_);fill:#FAB077;" d="M16.111,31.272c-3.938,1.392-2.216,7.097,1.046,8.027
			c1.045,0.299,2.149,0.27,3.209,0.114c0.021-0.033,0.04-0.067,0.061-0.104c0.457-0.792-0.477-4.605-0.736-5.387
			C19.036,31.955,18.002,30.605,16.111,31.272z"/>
		<path style="opacity:0.2;clip-path:url(#SVGID_2_);fill:#A61900;" d="M43.078,16.308c-4.435-0.47-9.116-0.306-13.472,0.683
			c-3.015,0.684-6.192,1.936-7.933,4.639c-1.24,1.925-3.344,4.038-3.627,6.417c-0.266,2.227,1.237,3.925,2.162,5.78
			c1.172,2.348,0.103,4.148,0.178,6.503c0.048,1.535,0.806,1.824,2.248,1.873c-2.332-2.261-0.161-4.962,0.269-7.481
			c0.23-1.346-0.323-2.553-0.31-3.933c0.003-0.313,0.021-0.626,0.057-0.936c0.14-1.221,0.494-2.413,0.846-3.586
			c-0.477,4.211,5.619,1.904,7.335,1.225c0.568-0.226,1.162-0.454,1.772-0.327c-2.059,2.124,0.963,5.81,3.478,5.81
			c4.086,0,5.121-1.694,6.83-4.028c0.973-1.328,2.293-2.238,3.848-2.433c1.055-0.131,3.252,0.596,3.694-0.653
			c0.661-1.862-0.16-5.418-1.093-7.119C48.215,16.657,45.169,16.53,43.078,16.308z"/>
		<path style="opacity:0.3;clip-path:url(#SVGID_2_);fill:#BF3C1B;" d="M18.571,33.401c-1.041-0.503-3.781,0.04-2.665,1.92
			c0.798-1.598,1.897-0.423,1.62,0.735c-0.184,0.776-1.184,0.709-0.273,1.798c0.492,0.589,1.593,0.471,2.164,0.222
			C21.232,37.283,19.842,34.017,18.571,33.401z"/>
		<path style="clip-path:url(#SVGID_2_);fill:#912907;" d="M37.608,10.989c-1.689-0.148-3.281-0.648-5.007-0.603
			c-2.878,0.075-5.663,1.05-8.2,2.401c-3.779,2.014-6.217,6.576-7.321,10.629c-0.643,2.365-0.982,5.023-0.468,7.446
			c0.458,2.162,3.262,2.978,3.428,5.209c0.073,0.998-0.808,1.748-0.785,2.705c0.02,0.786,0.388,1.641,0.956,2.15
			c0.502,0.45,1.658,0.61,2.366,0.715c-1.563-1.714-0.053-2.711,0.088-4.387c0.099-1.148-0.154-3.366-0.575-4.461
			c-1.104-2.868-0.438-6.159,2.052-8.033c0.25,3.074,3.392,2.951,5.638,2.507c1.012-0.199,3.951-1.387,4.467,0.141
			c0.32,0.955-1.206,1.782-1.555,0.689c-0.031,1.626,0.054,2.964,1.997,3.379c2.924,0.625,5.302-0.409,6.853-2.942
			c0.628-1.026,1.246-1.648,1.967-2.027c0.878-0.46,1.907-0.561,3.297-0.59c2.563-0.052,3.449-1.913,3.332-4.36
			C49.819,14.916,43.483,11.51,37.608,10.989z"/>
		<path style="clip-path:url(#SVGID_2_);fill:#FFBE8A;" d="M37.585,38.975c1.657-0.094,3.522-0.538,2.024-2.522
			C36.99,32.988,31.896,39.289,37.585,38.975z"/>
		<path style="clip-path:url(#SVGID_2_);fill:#1F1A17;" d="M26.49,31.511c-0.615,0.452-2.003,1.726-4.169,1.465
			c0,0,2.249,1.388,4.492-0.569c0.985-0.855,2.059-0.175,2.059-0.175S28.094,30.335,26.49,31.511z"/>
		<path style="clip-path:url(#SVGID_2_);fill:#1F1A17;" d="M48.111,30.991c-1.604-1.18-2.563,0.72-2.563,0.72
			s1.074-0.681,2.057,0.178c2.243,1.958,4.493,0.574,4.493,0.574C49.933,32.723,48.725,31.443,48.111,30.991z"/>
		<path style="clip-path:url(#SVGID_2_);fill:#F7985C;" d="M36.745,34.419c-0.469,0.084-0.815,0.411-0.773,0.731
			c0.042,0.318,0.457,0.508,0.928,0.424s0.815-0.412,0.773-0.73C37.631,34.523,37.215,34.334,36.745,34.419z"/>
		<path style="clip-path:url(#SVGID_2_);fill:#F7985C;" d="M35.443,35.813c-0.322,0.201-0.493,0.543-0.381,0.763
			c0.112,0.222,0.468,0.238,0.792,0.039c0.322-0.201,0.495-0.543,0.382-0.762C36.123,35.631,35.77,35.614,35.443,35.813z"/>
		<path style="clip-path:url(#SVGID_2_);fill:#F7985C;" d="M41.16,35.233c-0.35-0.139-0.695-0.057-0.774,0.183
			c-0.078,0.238,0.143,0.543,0.492,0.68c0.352,0.139,0.698,0.057,0.776-0.182C41.731,35.675,41.512,35.369,41.16,35.233z"/>
		<path style="clip-path:url(#SVGID_2_);fill:#F7985C;" d="M32.423,34.377c-0.363,0.091-0.597,0.359-0.522,0.598
			c0.075,0.242,0.433,0.361,0.797,0.27c0.365-0.092,0.6-0.359,0.524-0.602C33.146,34.404,32.789,34.285,32.423,34.377z"/>
		<ellipse style="clip-path:url(#SVGID_2_);fill:#E6864A;" cx="28.336" cy="37.052" rx="0.674" ry="0.46"/>
		<ellipse style="clip-path:url(#SVGID_2_);fill:#E6864A;" cx="44.595" cy="37.11" rx="0.672" ry="0.46"/>
		
			<ellipse transform="matrix(-0.3175 -0.9483 0.9483 -0.3175 -1.5319 72.9873)" style="clip-path:url(#SVGID_2_);fill:#E6864A;" cx="25.5" cy="37.045" rx="0.583" ry="0.888"/>
		<path style="clip-path:url(#SVGID_2_);fill:#E6864A;" d="M29.63,35.757c-0.377,0.04-0.638,0.274-0.586,0.519
			c0.053,0.246,0.399,0.41,0.774,0.369c0.376-0.043,0.638-0.275,0.586-0.521C30.354,35.879,30.006,35.715,29.63,35.757z"/>
		<path style="clip-path:url(#SVGID_2_);fill:#E6864A;" d="M48.632,36.496c-0.334-0.176-0.682-0.129-0.775,0.104
			c-0.095,0.232,0.103,0.563,0.438,0.738c0.334,0.176,0.68,0.129,0.775-0.103C49.163,37.002,48.967,36.672,48.632,36.496z"/>
		<path style="clip-path:url(#SVGID_2_);fill:#F7985C;" d="M35.182,34.086c-0.259,0.049-0.445,0.234-0.418,0.417
			c0.027,0.18,0.259,0.29,0.517,0.243c0.26-0.049,0.446-0.233,0.418-0.415C35.671,34.148,35.438,34.039,35.182,34.086z"/>
		<path style="clip-path:url(#SVGID_2_);fill:#E6864A;" d="M26.766,37.602c-0.258,0.049-0.444,0.234-0.416,0.418
			c0.025,0.182,0.258,0.29,0.517,0.244c0.258-0.049,0.444-0.234,0.417-0.417C27.255,37.666,27.022,37.557,26.766,37.602z"/>
		<path style="clip-path:url(#SVGID_2_);fill:#F7985C;" d="M42.106,34.578c-0.248-0.089-0.491-0.02-0.543,0.156
			s0.107,0.391,0.356,0.479s0.492,0.018,0.546-0.158C42.517,34.879,42.355,34.666,42.106,34.578z"/>
		<path style="clip-path:url(#SVGID_2_);fill:#E6864A;" d="M47.004,37.025c-0.251-0.087-0.493-0.017-0.545,0.158
			c-0.052,0.176,0.108,0.389,0.357,0.478c0.248,0.09,0.493,0.019,0.544-0.156C47.412,37.33,47.252,37.113,47.004,37.025z"/>
		<path style="clip-path:url(#SVGID_2_);fill:#F7985C;" d="M40.666,33.741c-0.313-0.05-0.587,0.093-0.61,0.318
			c-0.021,0.225,0.214,0.444,0.528,0.496c0.313,0.049,0.587-0.095,0.61-0.318C41.217,34.013,40.98,33.791,40.666,33.741z"/>
		<path style="clip-path:url(#SVGID_2_);fill:#F7985C;" d="M33.395,36.918c-0.358,0.107-0.602,0.39-0.54,0.636
			c0.06,0.245,0.398,0.358,0.757,0.251c0.36-0.105,0.603-0.391,0.541-0.635C34.093,36.925,33.754,36.812,33.395,36.918z"/>
		<path style="clip-path:url(#SVGID_2_);fill:#F7985C;" d="M38.691,33.818c-0.44-0.073-0.83,0.116-0.873,0.424
			c-0.043,0.307,0.278,0.613,0.719,0.689c0.441,0.072,0.831-0.118,0.874-0.424C39.453,34.2,39.13,33.892,38.691,33.818z"/>
		<path style="clip-path:url(#SVGID_2_);fill:#E6864A;" d="M43.612,35.337c-0.44-0.074-0.832,0.116-0.873,0.424
			c-0.042,0.307,0.28,0.614,0.721,0.688c0.439,0.072,0.83-0.117,0.873-0.424C44.374,35.719,44.052,35.411,43.612,35.337z"/>
		<path style="clip-path:url(#SVGID_2_);fill:#F7985C;" d="M30.348,37.009c-0.446,0.005-0.795,0.257-0.78,0.567
			c0.017,0.309,0.392,0.556,0.838,0.553c0.445-0.004,0.796-0.259,0.779-0.568C31.169,37.252,30.792,37.004,30.348,37.009z"/>
		<path style="clip-path:url(#SVGID_2_);fill:#E6864A;" d="M45.931,35.43c-0.447,0.005-0.796,0.26-0.781,0.568
			c0.018,0.309,0.393,0.557,0.838,0.552c0.447-0.003,0.795-0.257,0.78-0.565C46.751,35.674,46.376,35.428,45.931,35.43z"/>
		<path style="clip-path:url(#SVGID_2_);fill:#F7985C;" d="M39.538,35.258c-0.424-0.182-0.847-0.109-0.943,0.161
			c-0.096,0.271,0.169,0.64,0.595,0.821c0.424,0.182,0.846,0.11,0.943-0.16C40.229,35.809,39.961,35.44,39.538,35.258z"/>
		<path style="clip-path:url(#SVGID_2_);fill:#F7985C;" d="M31.981,35.721c-0.497,0.076-0.866,0.414-0.824,0.752
			c0.044,0.341,0.481,0.553,0.978,0.478c0.499-0.075,0.866-0.411,0.825-0.751C32.917,35.857,32.479,35.645,31.981,35.721z"/>
		<path style="clip-path:url(#SVGID_2_);fill:#F7985C;" d="M33.979,35.074c-0.476,0.172-0.784,0.577-0.687,0.902
			c0.097,0.325,0.563,0.449,1.04,0.276c0.478-0.171,0.783-0.575,0.688-0.901C34.922,35.027,34.458,34.903,33.979,35.074z"/>
		<path style="clip-path:url(#SVGID_2_);fill:#F7985C;" d="M42.307,36.454c-0.499-0.069-0.934,0.147-0.976,0.487
			c-0.04,0.34,0.332,0.673,0.83,0.743c0.497,0.072,0.933-0.146,0.975-0.486C43.175,36.859,42.804,36.525,42.307,36.454z"/>
		<path style="clip-path:url(#SVGID_2_);fill:#A8370A;" d="M35.587,10.44c-1.211,0.326-2.373,1.056-3.212,1.982
			c0.909,0.904,2.274,3.665,2.325,4.132c0.191,1.739-0.351,3.435-1.841,4.437c-1.498,1.005-10.06,2.513-4.133,4.565
			c1.814,0.628,3.694-0.548,5.488-0.138c1.424,0.325,2.359,2.409,0.875,3.385c1.284,0.613,3.274-0.17,4.347-0.858
			c0.794-0.507,1.473-1.101,2.342-1.476c2.115-0.916,3.798-2.09,4.86-3.502c1.768-2.349,1.816-5.356-0.722-8.919
			C43.867,11.17,38.972,9.529,35.587,10.44z"/>
		<path style="clip-path:url(#SVGID_2_);fill:#A8370A;" d="M26.287,11.948c-7.477,0.503-5.975,6.946-9.151,11.559
			c-1.083,1.57-2.123,2.933-1.208,4.765c0.753,1.505,3.117,3.687,4.798,3.884c-0.552-1.083-0.844-2.774-0.513-3.943
			c1.355-4.784,6.929-6.245,9.356-10.105C31.576,14.918,30.138,11.689,26.287,11.948z"/>
	</g>
</g>
<g id="Layer_1">
</g>
</svg>
