<?xml version="1.0" encoding="iso-8859-1"?>
<!-- Generator: Adobe Illustrator 16.0.0, SVG Export Plug-In . SVG Version: 6.00 Build 0)  -->
<!DOCTYPE svg PUBLIC "-//W3C//DTD SVG 1.1//EN" "http://www.w3.org/Graphics/SVG/1.1/DTD/svg11.dtd">
<svg version="1.1" xmlns="http://www.w3.org/2000/svg" xmlns:xlink="http://www.w3.org/1999/xlink" x="0px" y="0px"
	 width="66.005px" height="66px" viewBox="0 0 66.005 66" style="enable-background:new 0 0 66.005 66;" xml:space="preserve">
<g id="Layer_55">
	<g>
		<defs>
			<circle id="SVGID_1_" cx="33.005" cy="33" r="33"/>
		</defs>
		<clipPath id="SVGID_2_">
			<use xlink:href="#SVGID_1_"  style="overflow:visible;"/>
		</clipPath>
		<rect style="clip-path:url(#SVGID_2_);fill:#7997A0;" width="66" height="65.998"/>
		<path style="clip-path:url(#SVGID_2_);fill:#93AEBF;" d="M52.592,36.819c0.83-4.813,1.214-8.797-1.631-12.263
			c-0.255-0.312-1.188-0.826-1.415-1.159c-4.655-6.792-14.731-10.195-22.614-10.195c-3.937,0-8.14,1.973-10.776,4.926
			c-2.662,2.979-3.567,6.974-3.779,11.711c-0.093,2.063-0.333,7.869-3.374,7.783c1.484,1.136,3.432,1.508,3.999,0.004
			c0,7.706,9.245,20.207,12.662,22.259c2.329,1.397,5.012,1.909,7.706,1.659c4.806-0.441,9.742-3.43,12.159-8.741
			c0.99-2.177,1.932-4.377,2.758-6.622c0.739-2.011,0.879-4.477,2.055-6.26c1.178,1.263,3.839,1.243,4.688,0.395
			C53.318,39.745,52.404,37.901,52.592,36.819z"/>
		<path style="clip-path:url(#SVGID_2_);fill:#FF697C;" d="M42.268,65.622c1.605-1.771,2.353-3.883,2.857-6.049
			c0.263-1.121,0.936-2.086,1.05-3.262c1.313,0.216,2.816-0.742,3.54-1.793c-2.321-0.199-2.297-2.148-1.341-3.724
			c1.187-1.958,2.953-3.888,3.404-6.188c0.257-1.312,0.114-2.477-0.365-3.714c-0.679-1.751-0.402-3.533-0.421-5.365
			c-0.209,0.512-1.382,3.918-1.154,4.335c-0.349-0.64-0.559-1.501-0.821-2.16c0.379,2.362-0.205,7.525-3.447,9.402
			c-1.258,0.728-0.096,2.8-1.137,3.788c-0.424,0.404-1.009,0.541-1.371,1.043c-0.712,0.98-0.793,2.039-0.479,3.156
			c-1.795-0.024-1.59-1.303-1.952-2.564c0.169,0.586-0.649,2.292-1.151,2.612c-0.981,0.628-2.537,0.149-3.562-0.024
			c-3.05-0.519-5.42-0.068-8.363,0.117c-1.327,0.085-3.115-0.849-3.997-2.171c-0.094,0.615-0.043,1.637-0.299,2.142
			c-4.194-2.061-1.346-6.817-3.661-9.613c0.014,0.686-1.062,2.016-1.894,2.154c-0.813-1.26-1.358-4.213-2.243-6.542
			c-0.781,3.64-2.471-2.854-1.822-6.244c-1.745,3.027-1.396,7.17-0.482,8.738c1.078,1.853,1.881,3.667,2.239,5.201
			c0.761,3.263-2.281,8.688,2.514,9.791c-0.875-1.274,0.061-2.357-0.131-3.584c2.605,2.283,0.555,6.298,3.344,10.761
			c2.363-0.59,3.456-2.13,4.279-3.295c0.189,1.315,0.845,2.511,1.52,3.427h12.254c0.683-0.784,1.218-1.734,1.528-2.857
			C40.97,64.095,41.695,64.857,42.268,65.622z"/>
		<path style="opacity:0.15;clip-path:url(#SVGID_2_);fill:#00315E;" d="M39.304,59.099c0.438-0.205,0.847-0.445,1.218-0.729
			c2.604-1.984-1.471-3.788-1.107-5.945c0.143-0.844,1.821-1.677,1.775-2.175c0.063,0.694,0.858,1.148,0.823,1.9
			c1.605-1.654,1.216-3.865,2.495-5.592c0.875-1.179,2.228-2.03,2.865-3.375c0.801-1.69-0.211-3.692,0.167-5.493
			c0.44-2.092,1.979-6.702,0.153-8.429c-1.198-1.136-2.668-0.606-4.085-0.69c-1.58-0.094-3.493-0.744-4.882-1.48
			c-2.667-1.415-4.762-3.791-7.217-5.524c-3.132-2.213-10.085-5.427-13.095-0.235c-1.545,2.666-1.191,6.282-1.42,7.462
			c-0.481,2.479-2.598,4.013-2.817,6.567c-0.153,1.794,0.721,3.294,1.817,4.633c0.482,0.591,1.282,1.203,1.584,1.9
			c0.332,0.765,0.091,1.463,0.825,2.103c0.626,0.547,1.49,0.589,2.177,1.013c0.673,0.414,0.773,0.857,1.065,1.527
			c0.354,0.813,0.765,1.487,0.884,2.389c0.04,0.303,0.151,2.316-0.274,2.421c0.501-0.122,1.014-0.074,1.458-0.384
			c0.517-0.361,0.905-1.072,1.358-1.521c0.273,0.856,0.6,1.443,0.737,2.103c0.363,1.741-0.768,2.603-1.106,4.128
			c-0.355,1.6,0.673,3.237,2.043,4.02c1.65,0.944,3.968,0.498,5.794,0.515C34.642,60.226,37.268,60.055,39.304,59.099z"/>
		<path style="clip-path:url(#SVGID_2_);fill:#FFBC82;" d="M24.939,55.586c-2.753,1.484-3.918,6.072-4.904,10.412h3.601
			c0.743-2.811,1.657-5.456,3.115-6.682C27.946,58.313,26.554,54.715,24.939,55.586z"/>
		<path style="clip-path:url(#SVGID_2_);fill:#FFBC82;" d="M41.083,55.586c-1.614-0.871-3.007,2.727-1.812,3.73
			c1.458,1.226,2.371,3.871,3.115,6.682h3.6C45.001,61.658,43.836,57.07,41.083,55.586z"/>
		<path style="clip-path:url(#SVGID_2_);fill:#FFBC82;" d="M38.521,53.713c-0.677-0.504-1.624-0.591-2.206-0.845
			c-1.123-0.492-1.234-1.443-1.525-2.215c-0.578-1.539-3.459-1.834-3.721-0.127c-0.458,2.981-2.976,2.623-4.572,3.551
			c-3.234,1.879-1.298,3.56,1.135,5.992c2.697,2.698,7.438,3.089,11.135-0.26C41.434,57.393,40.276,55.02,38.521,53.713z"/>
		<path style="clip-path:url(#SVGID_2_);fill:#E0E0E0;" d="M37.741,61.102c2.955,0,6.257-3.82,6.257-3.82s-3.367-3.076-5.601-3.931
			C38.397,53.351,34.786,61.102,37.741,61.102z"/>
		<path style="clip-path:url(#SVGID_2_);fill:#FFBC82;" d="M26.472,60.548c0.171,1.508,0.745,3.342,1.274,5.45h10.533
			c0.17-1.54,0.283-3.504,0.562-5.292C39.065,59.257,26.225,58.364,26.472,60.548z"/>
		<path style="clip-path:url(#SVGID_2_);fill:#E68C5E;" d="M26.665,61.692c0.248,3.699,12.452,3.217,12.159-0.832
			C38.667,58.689,26.502,59.261,26.665,61.692z"/>
		<path style="clip-path:url(#SVGID_2_);fill:#E0E0E0;" d="M25.05,55.026c0,0-1.821,0.672-2.939,2.727c0,0,2.855,5.507,10.999,5.438
			c6.003-0.051,6.653-3.774,6.653-3.774s0.67-4.226-1.365-6.066C38.397,53.351,34.903,58.169,25.05,55.026z"/>
		<path style="clip-path:url(#SVGID_2_);fill:#E68C5E;" d="M30.887,51.205c-0.273,1.508,4.297,1.608,4.259,0.455
			C35.057,49.008,31.378,48.503,30.887,51.205z"/>
		<path style="clip-path:url(#SVGID_2_);fill:#FFF9F0;" d="M46.144,39.18c-2.516,0.079-4.537,2.464-4.507,5.317
			c0.029,2.861,2.095,5.113,4.612,5.029c2.521-0.079,4.536-2.461,4.509-5.319C50.729,41.351,48.666,39.101,46.144,39.18z
			 M46.113,47.681c-1.824,0.06-3.322-1.573-3.344-3.647c-0.021-2.069,1.443-3.797,3.268-3.855c1.829-0.056,3.324,1.575,3.346,3.645
			C49.402,45.895,47.941,47.622,46.113,47.681z"/>
		<path style="clip-path:url(#SVGID_2_);fill:#FFBC82;" d="M32.423,15.24c-11.864,0.084-17.005,7.622-13.496,17.998
			c0.482,10.585,8.164,19.022,16.486,18.099c6.898-0.767,12.774-9.36,11.471-20.953C45.718,20.002,40.319,15.184,32.423,15.24z"/>
		<path style="clip-path:url(#SVGID_2_);fill:#CD9D76;" d="M23.823,20.304c-0.879-0.919-1.896-1.928-3.045-0.982
			c-1.042,0.856-4.335,4.245-2.527,12.034c0.627-0.095,0.952,0.769,2.189,0.239c-0.446-6.467,2.386-8.266,4.504-9.009
			C26.48,22.046,24.974,21.51,23.823,20.304z"/>
		<path style="clip-path:url(#SVGID_2_);fill:#FFBC82;" d="M16.898,31.562c-3.421,1.564-1.831,7.442,1.035,8.311
			c0.92,0.279,1.882,0.215,2.807,0.023c0.018-0.037,0.033-0.072,0.052-0.109c0.388-0.837-0.488-4.772-0.726-5.576
			C19.463,32.184,18.54,30.811,16.898,31.562z"/>
		<path style="opacity:0.4;clip-path:url(#SVGID_2_);fill:#D14F2E;" d="M18.661,33.693c-0.864-0.466-3.114,0.146-2.167,1.956
			c0.634-1.587,1.556-0.467,1.345,0.674c-0.141,0.768-0.963,0.729-0.198,1.77c0.413,0.562,1.318,0.415,1.785,0.155
			C20.908,37.422,19.715,34.26,18.661,33.693z"/>
		<path style="opacity:0.2;clip-path:url(#SVGID_2_);fill:#BF3C1B;" d="M31.892,18.005c-0.587-0.116-1.298-0.266-2.072-0.402
			c-2.695-0.48-7.502-3.403-9.045-1.586c-2.641,3.113,2.918,8.288,4.823,9.086c2.032,0.852,3.323,0.553,5.407,0.283
			c3.822-0.495,7.133,3.337,10.523,4.832c2.022,0.894,7.346,2.354,6.422-1.785C46.214,20.661,38.579,19.321,31.892,18.005z"/>
		<path style="clip-path:url(#SVGID_2_);fill:#4CB5CF;" d="M50.768,18.453c0.402,0.013,0.79,0.107,1.166,0.251
			c-0.446-1.064-1.074-1.976-1.814-2.872c-3.072-3.72-8.577-5.034-13.111-5.184c0.306-0.024,0.999-0.23,1.481-0.302
			c-1.82-0.89-4.31-1.243-6.357-1.045c-4.361,0.426-15.124,3.945-11.053,10.259c0.428,0.663,2.726,3.008,4.621,4.175
			c2.187,1.349,3.909,0.705,6.263,0.496c2.082-0.185,3.845,0.677,5.485,1.854c2.761,1.982,6.362,4.16,9.593,5.292
			c2.432,0.852,7.204,0.892,9.711,0.34c-1.425-2.109-2.047-5.279-2.995-7.724C53.496,23.319,51.177,18.466,50.768,18.453z"/>
		<path style="clip-path:url(#SVGID_2_);fill:#FFF9F0;" d="M20.395,39.18c-2.516,0.079-4.537,2.464-4.506,5.317
			c0.029,2.861,2.095,5.113,4.611,5.029c2.521-0.079,4.537-2.461,4.511-5.319C24.98,41.351,22.917,39.101,20.395,39.18z
			 M20.365,47.681c-1.825,0.06-3.322-1.573-3.344-3.647c-0.022-2.069,1.443-3.797,3.267-3.855c1.829-0.056,3.325,1.575,3.347,3.645
			C23.654,45.895,22.193,47.622,20.365,47.681z"/>
		<path style="clip-path:url(#SVGID_2_);fill:#9DDDED;" d="M38.118,15.583c3.367-1.085,7.433-0.155,10.693,0.868
			c-5.585-3.862-12.185-5.291-18.825-3.354c0.012-0.012,0.095-0.15,0.069-0.159c1.443-0.885,3.125-0.843,4.64-1.514
			c-3.05-0.339-6.945-0.169-9.609,1.406c-2.692,1.591-2.759,4.01-0.039,5.524c1.055,0.588,2.491,1.187,3.723,1.158
			c0.09-0.001,2.352-0.201,1.914-0.801c1.647,2.255,4.317,2.765,6.794,3.637c-0.133-0.387-0.118-0.87-0.342-1.257
			c4.883,3.793,10.02,6.757,16.368,6.537c-0.312-0.831-0.757-1.481-1.186-2.224C49.431,20.424,44.196,15.864,38.118,15.583z"/>
		<path style="clip-path:url(#SVGID_2_);fill:#FA9769;" d="M45.88,37.318c-0.403-0.756-1.421-0.964-2.159-1.017
			c-0.961-0.068-2.283,0.215-1.58,1.702c0.375,0.792,4.152,1.593,3.896-0.197C46.011,37.622,45.957,37.46,45.88,37.318z"/>
		<path style="clip-path:url(#SVGID_2_);fill:#FA9769;" d="M27.402,37.191c-0.571-0.782-1.726-0.787-2.547-0.679
			c-1.071,0.143-2.475,0.777-1.449,2.338c0.546,0.832,4.836,0.887,4.252-1.128C27.597,37.515,27.511,37.339,27.402,37.191z"/>
		<path style="clip-path:url(#SVGID_2_);fill:#121B21;" d="M40.431,29.532c2.102,0.199,3.859-0.423,7.014-0.159
			C46.286,27.923,42.006,27.893,40.431,29.532z"/>
		<path style="opacity:0.4;clip-path:url(#SVGID_2_);fill:#D14F2E;" d="M35.759,37.995c-0.716,0.009-1.001-0.292-1.502-0.018
			c-0.499,0.277,0.589,1.25,1.474,1.176c1.001-0.081,1.824-0.905,1.56-1.204C36.981,37.601,36.555,37.986,35.759,37.995z"/>
		<path style="clip-path:url(#SVGID_2_);fill:#121B21;" d="M21.683,29.083c3.941,0.093,5.272,0.267,8.008,0.196
			C28.252,27.433,23.422,27.559,21.683,29.083z"/>
		<path style="clip-path:url(#SVGID_2_);fill:#4A271B;" d="M26.32,31.092c-2.075-0.78-3.137,3.043-1.688,4.177
			c0.632-0.235,1.397-0.213,2.015,0.053C27.963,34.502,27.863,31.672,26.32,31.092z"/>
		<path style="clip-path:url(#SVGID_2_);fill:#C7A295;" d="M25.287,32.01c-0.859,0.132-0.536,1.89,0.357,1.444
			C26.292,33.135,26.052,31.896,25.287,32.01z"/>
		<path style="clip-path:url(#SVGID_2_);fill:#4A271B;" d="M44.587,31.131c-2.085-1.329-3.915,3.545-1.598,4.243
			c0.56-0.383,1.231-0.385,1.828-0.294C45.614,34.045,45.703,31.845,44.587,31.131z"/>
		<path style="clip-path:url(#SVGID_2_);fill:#C7A295;" d="M43.108,31.821c-0.822,0.023-0.704,1.848,0.186,1.514
			C43.936,33.093,43.839,31.806,43.108,31.821z"/>
		<path style="clip-path:url(#SVGID_2_);fill:#121B21;" d="M44.644,31.026c-1.908-0.732-2.534,1.531-2.534,1.531
			s0.925-1.143,2.226-0.418c2.951,1.646,4.851-0.355,4.851-0.355C46.848,32.57,45.669,31.423,44.644,31.026z"/>
		<path style="clip-path:url(#SVGID_2_);fill:#121B21;" d="M24.93,31.195c-0.763,0.387-2.534,1.551-4.887,0.865
			c0,0,2.243,1.947,5.086,0.188c1.244-0.773,2.313,0.177,2.313,0.177S26.922,30.182,24.93,31.195z"/>
		<path style="opacity:0.7;clip-path:url(#SVGID_2_);fill:#F73434;" d="M35.308,40.602c-2.806,0.055-6.933,0.849-9.126-0.446
			c3.6,6.184,5.855,7.342,8.73,7.563c3.603,0.275,4.868-2.223,5.44-4.102c0.243-0.795,2.096-2.821,2.811-3.276
			C40.908,40.854,38.7,40.536,35.308,40.602z"/>
		<path style="clip-path:url(#SVGID_2_);fill:#C22C25;" d="M27.864,41.247c0,0,2.158,4.155,6.643,4.312
			c2.872,0.099,4.778-0.846,5.332-2.235c0.606-1.522,1.838-2.057,1.838-2.057C33.823,43.135,27.864,41.247,27.864,41.247z"/>
		<path style="clip-path:url(#SVGID_2_);fill:#FFF9F0;" d="M29.524,41.637c0,0,0.118,1.25,1.707,1.753
			c2.037,0.648,4.243,0.717,6.524,0.385c1.537-0.223,2.319-2.173,2.319-2.173S35.676,42.62,29.524,41.637z"/>
		<path style="clip-path:url(#SVGID_2_);fill:#FFF9F0;" d="M35.672,43.908c-2.054,0.049-3.757-0.118-4.773-0.813
			c-0.726-0.496-0.801,0.025-0.647,0.354c0,0,0.638,1.72,4.038,2.16c3.268,0.426,4.991-1.593,4.623-1.952
			S37.574,43.862,35.672,43.908z"/>
		<path style="clip-path:url(#SVGID_2_);fill:#E8DAC5;" d="M29.524,41.637c0,0,0.106,0.58,0.395,0.885c0,0,7.686-0.563,9.511,0.161
			c0,0,0.551-0.682,0.646-1.081C40.075,41.602,34.696,42.548,29.524,41.637z"/>
		<path style="clip-path:url(#SVGID_2_);fill:#E8DAC5;" d="M31.506,43.354c2.727,1.747,6.043,0.355,6.043,0.355
			C34.071,44.474,31.506,43.354,31.506,43.354z"/>
		<path style="opacity:0.3;clip-path:url(#SVGID_2_);fill:#B54D26;" d="M45.73,29.503c-1.379,0.039-2.754,0.216-4.098,0.534
			c-1.145,0.272-2.485,0.376-3.548,0.894c-0.979,0.478-1.393,0.794-2.559,0.717c-2.086-0.137-3.813-1.482-5.893-1.751
			c-2.166-0.279-4.381-0.591-6.535-0.055c-0.561,0.141-2.259,0.735-1.138,1.36c1.095,0.612,2.76,0.468,3.973,0.545
			c0.561,0.035,1.125,0.063,1.683,0.131c1.979,0.23,5.04,0.033,4.819,2.506c-0.151,1.698-1.29,3.418-2.681,3.704
			c-1.332,0.272-2.754,0.356-4.098,0.318c-1.026-0.03-2.014-0.253-2.938-0.71c-0.264-0.131-1.046-0.658-1.313-0.305
			c-0.452,0.6,1.136,1.652,1.554,1.854c0.956,0.459,1.979,0.617,3.024,0.755c2.581,0.339,5.251,0.269,6.771-2.073
			c0.881-1.358,1.347-2.971,2.166-4.366c1.344-2.285,1.87,0.874,2.242,2.261c0.209,0.778,0.522,1.538,0.979,2.2
			c0.809,1.175,2.437,1.841,3.811,1.939c0.848,0.06,1.716,0.037,2.519-0.271c0.484-0.188,0.693-0.738,0.123-0.971
			c-0.345-0.141-0.903-0.058-1.267-0.083c-0.532-0.033-1.076-0.054-1.598-0.166c-0.668-0.143-1.338-0.438-1.896-0.869
			c-0.391-0.301-0.726-0.668-0.968-1.099c-0.504-0.895-0.503-1.974-0.134-2.919c0.506-1.303,1.951-1.373,3.149-1.445
			c1.452-0.09,2.917-0.026,4.362-0.125c0.644-0.042,1.281,0.06,1.922,0.097c0.825,0.048,2.614-0.172,1.664-1.394
			C48.914,29.538,47.068,29.466,45.73,29.503z"/>
		<path style="clip-path:url(#SVGID_2_);fill:#3A3A4A;" d="M21.061,28.881c-1.709,0.014-3.156-0.496-3.566-0.162
			c-0.534,0.437,0.345,1.983,0.345,1.983s0.534,0.395,1.333,0.481c0.084,1.188-0.055,4.252,2.079,6.238
			c1.78,1.657,7.709,2.264,9.578,1.378c2.315-1.097,3.341-3.21,3.794-5.305C35.736,28.356,23.473,28.859,21.061,28.881z
			 M30.983,37.411c-2.292,1.406-8.05,0.584-9.508-1.306c-1.123-1.459-1.258-4.456-0.54-4.866c2.194-1.251,10.315-0.563,12.162,0.918
			C33.993,32.874,32.723,36.346,30.983,37.411z"/>
		<path style="clip-path:url(#SVGID_2_);fill:#3A3A4A;" d="M49.089,29.065c-2.178-0.051-13.246-0.701-12.312,4.449
			c0.383,2.102,1.28,4.226,3.355,5.351c1.678,0.908,7.04,0.374,8.67-1.261c1.954-1.96,1.87-5.027,1.962-6.214
			c0.723-0.075,1.21-0.466,1.21-0.466s0.815-1.536,0.339-1.978C51.946,28.608,50.634,29.101,49.089,29.065z M48.617,36.282
			c-1.342,1.874-6.552,2.627-8.604,1.192c-1.556-1.087-2.657-4.572-1.838-5.278c1.688-1.458,9.032-2.049,10.996-0.771
			C49.813,31.845,49.651,34.84,48.617,36.282z"/>
		<path style="opacity:0.3;clip-path:url(#SVGID_2_);fill:#FFFFFF;" d="M39.619,31.765c-1.218,0.494,0.958,1.18,1.427,1.261
			c1.628,0.278,3.481,0.204,5.228-0.081c0.917-0.149,2.9-0.94,2.347-1.457C47.845,30.765,40.963,31.222,39.619,31.765z"/>
		<path style="clip-path:url(#SVGID_2_);fill:#FFFFFF;" d="M45.01,31.582c-0.657,0.088-1.089,0.271-0.915,0.569
			c0.342,0.588,4.192,0.34,4.462-0.098C48.822,31.623,46.407,31.391,45.01,31.582z"/>
		<path style="opacity:0.7;clip-path:url(#SVGID_2_);fill:#FFFFFF;" d="M40.742,36.279c-0.412-0.028-0.7,0.051-0.634,0.312
			c0.128,0.515,2.507,0.893,2.73,0.588C43.059,36.879,41.619,36.337,40.742,36.279z"/>
		<path style="opacity:0.7;clip-path:url(#SVGID_2_);fill:#FFFFFF;" d="M22.814,35.708c-0.428-0.079-0.739-0.035-0.704,0.232
			c0.068,0.525,2.51,1.196,2.784,0.922C25.162,36.592,23.724,35.875,22.814,35.708z"/>
		<path style="opacity:0.3;clip-path:url(#SVGID_2_);fill:#FFFFFF;" d="M32.202,31.834c-1.512-0.579-9.076-1.322-9.872-0.668
			c-0.57,0.466,1.658,1.308,2.674,1.492c1.933,0.348,3.965,0.503,5.729,0.312C31.237,32.915,33.57,32.359,32.202,31.834z"/>
		<path style="clip-path:url(#SVGID_2_);fill:#FFFFFF;" d="M28.918,31.318c-0.697,0.007-1.174,0.134-1.03,0.452
			c0.282,0.626,4.343,0.863,4.683,0.461C32.904,31.837,30.406,31.305,28.918,31.318z"/>
		<path style="clip-path:url(#SVGID_2_);fill:#3A3A4A;" d="M38.285,30.456c-1.6,0.688-3.146,0.766-5.331-0.067
			c-1.651-0.629,0.85,1.103,1.024,1.973c0.173,0.868-0.175,3.503,0.439,1.942c0.614-1.562,1.779-1.633,2.488-0.171
			c0.711,1.464,0.745-2.401,1.055-2.747C38.271,31.041,39.886,29.767,38.285,30.456z"/>
		<path style="clip-path:url(#SVGID_2_);fill:#C1C5C9;" d="M21.851,29.406c4.607,0.339,8.289,0.558,11.051,1.698
			C31.119,29.567,27.999,29.165,21.851,29.406z"/>
		<path style="clip-path:url(#SVGID_2_);fill:#C1C5C9;" d="M48.688,29.459c-5.634,0.072-8.258,0.051-9.807,1.448
			C41.346,29.806,44.494,29.96,48.688,29.459z"/>
	</g>
</g>
<g id="Layer_1">
</g>
</svg>
