<?xml version="1.0" encoding="iso-8859-1"?>
<!-- Generator: Adobe Illustrator 16.0.0, SVG Export Plug-In . SVG Version: 6.00 Build 0)  -->
<!DOCTYPE svg PUBLIC "-//W3C//DTD SVG 1.1//EN" "http://www.w3.org/Graphics/SVG/1.1/DTD/svg11.dtd">
<svg version="1.1" xmlns="http://www.w3.org/2000/svg" xmlns:xlink="http://www.w3.org/1999/xlink" x="0px" y="0px" width="66px"
	 height="66px" viewBox="0 0 66 66" style="enable-background:new 0 0 66 66;" xml:space="preserve">
<g id="Layer_109">
	<g>
		<defs>
			<circle id="SVGID_1_" cx="33" cy="33" r="33"/>
		</defs>
		<clipPath id="SVGID_2_">
			<use xlink:href="#SVGID_1_"  style="overflow:visible;"/>
		</clipPath>
		<rect style="clip-path:url(#SVGID_2_);fill:#FFFFFF;" width="66" height="66"/>
		<path style="clip-path:url(#SVGID_2_);fill:#E62628;" d="M40.749,54.814l-2.676,3.849c0.827,0.784,3.277,4.224,3.478,7.337
			l5.128-0.002C46.168,59.977,44.61,56.183,40.749,54.814z"/>
		<polygon style="clip-path:url(#SVGID_2_);fill:#3A3A4A;" points="41.976,61.434 45.971,61.124 46.539,63.746 41.904,64.054 		"/>
		<polygon style="clip-path:url(#SVGID_2_);fill:#EBEBEB;" points="41.904,64.054 46.539,63.746 46.679,65.998 41.721,66 		"/>
		<path style="clip-path:url(#SVGID_2_);fill:#E62628;" d="M26.315,54.814l2.677,3.849c-0.828,0.784-3.278,4.224-3.478,7.337
			l-5.128-0.002C20.897,59.977,22.454,56.183,26.315,54.814z"/>
		<polygon style="clip-path:url(#SVGID_2_);fill:#3A3A4A;" points="25.09,61.434 21.095,61.124 20.526,63.746 25.161,64.054 		"/>
		<polygon style="clip-path:url(#SVGID_2_);fill:#EBEBEB;" points="25.161,64.054 20.526,63.746 20.387,65.998 25.345,66 		"/>
		<path style="clip-path:url(#SVGID_2_);fill:#E62628;" d="M41.834,63.561c0.022-0.604-16.85-0.504-16.824,0.125
			c0.028,0.679,0.065,1.47,0.105,2.314h16.609C41.768,65.109,41.807,64.273,41.834,63.561z"/>
		<path id="XMLID_250_" style="clip-path:url(#SVGID_2_);fill:#E62628;" d="M42.929,56.653c-0.62,1.205-1.055,2.88-1.057,5.011
			c-0.001,0.582-0.013,1.14-0.031,1.676c-0.039,1.181-16.799,1.223-16.842,0.051c-0.02-0.539,0.069-1.135,0.065-1.72
			c-0.011-1.724-0.621-3.69-1.042-4.856c-0.112-0.309,0.904-3.003,9.271-3.045C41.915,53.726,43.089,56.343,42.929,56.653z"/>
		<path style="clip-path:url(#SVGID_2_);fill:#3A3A4A;" d="M25.04,61.153c0.608-1.075,3.807-6.255,5.296-7.272
			c0.253-0.174,0.397,0.021,0.638-0.158c0.229-0.172-0.046-3.533-0.046-3.533h5.103c0,0-0.275,3.361-0.047,3.533
			c0.241,0.18,0.385-0.016,0.639,0.158c1.488,1.018,4.687,6.197,5.295,7.272c0.133,0.233,0.194,2.808-0.013,2.9
			c-1.586,0.704-15.265,0.704-16.851,0C24.847,63.961,24.908,61.387,25.04,61.153z"/>
		<path style="clip-path:url(#SVGID_2_);fill:#EBEBEB;" d="M33.738,54.225c-0.734-0.039-2.072,3.383-1.931,3.59
			c0.299,0.436,2.801,0.516,3.1,0.189S34.255,54.252,33.738,54.225z"/>
		<polygon style="clip-path:url(#SVGID_2_);fill:#EBEBEB;" points="34.202,50.198 33.303,50.182 33.01,66 33.91,66 		"/>
		<path style="clip-path:url(#SVGID_2_);fill:#3D2518;" d="M25.035,36.955c2.386-0.552,4.786-1.052,7.186-1.541
			c3.942-0.809,8.241,0.121,12.223,0.561c3.117,0.342,2.042-2.597,1.838-5.131c-0.305-3.778,0.835-4.832,0.96-6.752
			c0.605-9.241-4.019-14.265-15.543-13.844c-4.952,0.181-10.173,2.459-12.538,7.014c-0.921,1.769-1.276,3.998-1.335,5.964
			c-0.141,4.667-0.734,8.966,1.396,13.364C20.333,38.885,23.094,37.404,25.035,36.955z"/>
		<path style="clip-path:url(#SVGID_2_);fill:#977053;" d="M44.625,33.83c-0.552-0.561-1.325-0.571-1.703-0.566
			c-0.302-0.436-1.028-5.001-0.143-11.925c3.506,0.318,6.045,0.489,5.002,14.876c-0.713,0.023-2.167-0.215-2.259-0.424
			C45.324,35.383,45.364,34.578,44.625,33.83z"/>
		<path style="clip-path:url(#SVGID_2_);fill:#FFBC82;" d="M19.993,37.711c0.699,7.492,6.1,15.908,14.781,15.66
			c8.855-0.256,13.713-11.023,12.96-20.232c-0.818-10.015-5.186-18.515-15.596-16.94C24.704,17.327,19.061,27.708,19.993,37.711z"/>
		<path style="opacity:0.3;clip-path:url(#SVGID_2_);fill:#BF541B;" d="M32.749,24.489c-2.03-0.506-4.07-1.424-6.111-1.261
			c-1.474,0.118-2.412,0.855-3.024,2.198c-0.714,1.562-1.323,3.879-3.591,3.623c-1.938-0.22-1.92-2.675-1.677-4.131
			c0.647-3.898,2.354-6.398,6.182-7.938c2.556-1.03,5.474-0.755,8.163-0.593c4.4,0.265,8.266,1.34,12.229,3.114
			c1.127,0.506,2.199,2.486,0.504,3.435c-0.665,0.373-1.912,0.567-2.735,0.722c-1.196,0.22-2.345,0.724-3.575,0.905
			c-1.719,0.254-3.327,0.404-5.05,0.183C33.627,24.688,33.188,24.599,32.749,24.489z"/>
		<path style="clip-path:url(#SVGID_2_);fill:#FFBC82;" d="M18.075,40.834c0.932,0.383,1.938,0.471,2.912,0.443
			c0.019-0.027,0.04-0.057,0.062-0.087c0.461-0.669,0.018-4.548-0.174-5.281c-0.479-1.853-1.522-2.856-3.278-2.45
			C13.933,34.303,15.161,39.65,18.075,40.834z"/>
		<path style="opacity:0.5;clip-path:url(#SVGID_2_);fill:#B54319;" d="M19.532,39.59c1.352-0.773,0.227-3.631-0.749-4.131
			c-0.796-0.409-2.856,0.18-1.969,1.811c0.566-1.453,1.425-0.447,1.241,0.594c-0.12,0.699-0.877,0.678-0.164,1.613
			C18.276,39.979,19.104,39.834,19.532,39.59z"/>
		<path style="clip-path:url(#SVGID_2_);fill:#3D2518;" d="M43.709,22.799c-1.125,0.242-2.296,0.386-3.186,0.624
			c-2.29,0.614-4.479,0.938-6.797,0.229c-2.051-0.627-4.202-1.457-6.376-1.431c-2.235,0.026-3.095,0.829-3.691,1.54
			c-1.09,1.301-4.172-0.659-4.718-1.533c-0.726-1.16,0.395-3.934,0.98-5.075c0.816-1.583,1.516-3.228,3.024-4.125
			c3.405-2.021,5.477-3.368,7.839-5.255c-0.041,0.199,0.022,0.553,0.063,0.789c1.11-0.098,2.369-0.779,3.138-1.579
			c-0.027,0.454,0.022,0.902-0.01,1.354c-0.018,0.246,1.826-0.667,2.002-0.774c0.875-0.536,1.723-1.119,2.655-1.551
			c-0.176,0.743-0.332,1.583-0.412,2.337c1.24-0.129,2.693-0.808,3.736-1.501c-0.021,0.698-0.404,1.616-0.598,2.286
			c1.122-0.009,2.079-0.626,3.105-0.974c-0.069,1.672-1.271,2.549-1.774,4.055c1.01,0.236,3.251-0.131,4.115,0.403
			c-0.538,0.655-1.356,1.329-1.745,2.084c1.188,0.376,2.207,0.785,3.135,1.692c-1.044,0.202-1.087,2.567-1.25,4.08
			C46.771,22.086,45.088,22.5,43.709,22.799z"/>
		<path style="clip-path:url(#SVGID_2_);fill:#977053;" d="M19.807,33.947c-0.555-0.561-1.327-0.574-1.703-0.567
			c-0.302-0.434-1.032-5.001-0.146-11.923c0.246,0.401,2.37,1.828,5.701,2.305c-0.959,1.394-1.818,7.963-1.334,12.652
			c-0.713,0.023-1.53-0.296-1.622-0.502C20.504,35.5,20.544,34.696,19.807,33.947z"/>
		<path style="clip-path:url(#SVGID_2_);fill:#82572E;" d="M29.866,9.338c-0.299,1.946,2.413-0.532,3.047-0.978
			c0.122,0.473,0.261,1.02,0.401,1.486c1.435-0.701,2.758-1.375,3.874-2.495c0.118,0.71-0.147,1.529-0.044,2.285
			c1.306-0.038,2.437-1.169,3.431-1.813c0.004,0.606-0.185,1.48-0.371,2.125c1.083,0.03,2.161-0.62,3.164-0.914
			c-0.233,1.332-1.486,2.991-2.093,4.271c1.388,0.122,2.776-0.938,4.176-0.741c-0.563,0.875-1.336,1.688-1.41,2.772
			c1.029,0.158,2.365,0.303,3.249,0.899c-0.432,0.464-1.088,0.874-1.289,1.479c0.292-0.017,0.587,0.015,0.863-0.054
			c-0.281,0.68-0.44,1.566-0.813,2.231c-0.514,0.91-1.571,1.443-2.35,2.044c0.379-0.733,0.892-1.454,1.026-2.268
			c-0.95,0.549-4.827,2.553-5.807,2.995c1.43-0.904,5.544-3.851,5.691-5.831c-1.563,0.538-8.118,4.439-9.467,4.903
			c1.122-0.826,7.052-6.317,7.337-6.95c-2.626,0.551-8.069,5.523-10.787,6.002c1.278-0.736,7.417-6.13,7.397-7.882
			c-1.223,0.07-12.42,6.688-12.401,6.677c0.941-1.287,7.191-4.632,6.963-6.39c-0.086-0.663-7.219,3.11-7.681,3.276
			c-0.045-0.457,5.443-4.199,4.946-4.093c-8.015,1.721-10.27,4.822-9.303,3.214C23.287,12.826,27.643,11.609,29.866,9.338z"/>
		<path style="clip-path:url(#SVGID_2_);fill:#202930;" d="M28.596,35.382c-0.552-0.299-1.266-0.394-1.876-0.241
			c-1.248-1.156,0.088-4.477,1.955-3.579C30.062,32.232,29.897,34.775,28.596,35.382z"/>
		<path style="opacity:0.5;clip-path:url(#SVGID_2_);fill:#B54319;" d="M38.755,38.227c-0.447-0.604-1.143,0.015-2.376-0.025
			c-1.109-0.032-1.527-0.557-2.325-0.127c-0.797,0.427,0.251,1.955,2.221,1.966C38.234,40.055,39.143,38.744,38.755,38.227z"/>
		<path style="clip-path:url(#SVGID_2_);fill:#FFD4AD;" d="M37.911,35.254c-0.394-1.206-0.719-3.814-1.747-3.766
			c-0.91,0.044-1.248,2.814-1.638,4.117c-0.397,1.323-0.684,2.545-0.224,2.943c1.133,0.975,3.604,0.422,4.347-0.289
			C38.942,37.979,38.358,36.615,37.911,35.254z"/>
		<path style="clip-path:url(#SVGID_2_);fill:#202930;" d="M45.088,32.127c1.01,0.667,0.911,2.807,0.1,3.63
			c-0.482-0.248-1.49-0.394-2.01-0.08C41.626,34.556,43.206,30.887,45.088,32.127z"/>
		<path style="opacity:0.7;clip-path:url(#SVGID_2_);fill:#C3CEE6;" d="M27.974,32.121c0.695-0.202,1.075,0.87,0.515,1.241
			C27.714,33.875,27.19,32.352,27.974,32.121z"/>
		<path style="opacity:0.7;clip-path:url(#SVGID_2_);fill:#C3CEE6;" d="M44.315,32.504c0.682-0.108,0.908,0.958,0.331,1.241
			C43.85,34.136,43.55,32.624,44.315,32.504z"/>
		<path style="clip-path:url(#SVGID_2_);fill:#2B221C;" d="M25.085,29.815c-0.278,0.062-0.56,0.114-0.846,0.12
			c0.445-1.13,2.013-2.209,3.241-1.986c0.94,0.17,1.811,0.499,2.779,0.545c0.39,0.019,1.259-0.211,1.578,0.066
			c0.248,0.215,0.364,1.047,0.348,1.349c-0.053,0.911-2.889,0.172-3.479,0.095c-0.782-0.104-1.593-0.413-2.393-0.397
			C25.903,29.613,25.498,29.725,25.085,29.815z"/>
		<path style="clip-path:url(#SVGID_2_);fill:#2B221C;" d="M45.532,28.62c-0.82,0.112-2.458,0.235-3.297,0.213
			c-0.362-0.009-1.147-0.301-1.469-0.047c-0.247,0.196-0.429,1.017-0.441,1.317c-0.035,0.909,2.654,0.378,3.209,0.345
			c0.304-0.02,1.467-0.147,1.779-0.197C45.296,29.808,45.518,28.802,45.532,28.62z"/>
		<path style="clip-path:url(#SVGID_2_);fill:#2B221C;" d="M46.117,28.901c-0.009,0.443-0.148,0.875-0.092,1.283
			c0.222,0.058,1.409,0.036,1.674,0.063C47.538,29.638,46.676,29.329,46.117,28.901z"/>
		<path style="clip-path:url(#SVGID_2_);fill:#FFD4AD;" d="M46.487,37.521c0.123,0.146,0.225,0.32,0.3,0.523
			c0.723,1.97-3.929,1.74-4.556,0.914c-1.182-1.553,0.314-2.105,1.469-2.199C44.583,36.688,45.833,36.742,46.487,37.521z"/>
		<path style="clip-path:url(#SVGID_2_);fill:#FFD4AD;" d="M29.134,37.107c0.125,0.157,0.227,0.344,0.298,0.559
			c0.69,2.09-4.179,1.691-4.812,0.807c-1.184-1.667,0.402-2.197,1.612-2.258C27.163,36.172,28.474,36.269,29.134,37.107z"/>
		<path style="opacity:0.5;clip-path:url(#SVGID_2_);fill:#B54319;" d="M43.16,41.707c-0.291-0.1-0.632,0.035-0.761,0.307
			c-1.087,2.271-3.698,3.973-6.938,3.955c-3.365-0.014-6.238-1.863-7.169-4.631c-0.093-0.273-0.415-0.414-0.72-0.314
			c-0.306,0.102-0.48,0.396-0.389,0.666c1.077,3.199,4.332,5.301,8.205,5.32c0.102,0.001,0.203-0.002,0.305-0.002
			c3.605-0.077,6.518-2.023,7.764-4.631C43.585,42.109,43.452,41.806,43.16,41.707z"/>
	</g>
</g>
<g id="Layer_1">
</g>
</svg>
