<?xml version="1.0" encoding="iso-8859-1"?>
<!-- Generator: Adobe Illustrator 16.0.0, SVG Export Plug-In . SVG Version: 6.00 Build 0)  -->
<!DOCTYPE svg PUBLIC "-//W3C//DTD SVG 1.1//EN" "http://www.w3.org/Graphics/SVG/1.1/DTD/svg11.dtd">
<svg version="1.1" xmlns="http://www.w3.org/2000/svg" xmlns:xlink="http://www.w3.org/1999/xlink" x="0px" y="0px"
	 width="66.012px" height="66px" viewBox="0 0 66.012 66" style="enable-background:new 0 0 66.012 66;" xml:space="preserve">
<g id="Layer_19">
	<g>
		<defs>
			<circle id="SVGID_1_" cx="33.012" cy="33" r="33"/>
		</defs>
		<clipPath id="SVGID_2_">
			<use xlink:href="#SVGID_1_"  style="overflow:visible;"/>
		</clipPath>
		<rect style="clip-path:url(#SVGID_2_);fill:#FFFFFF;" width="66" height="66"/>
		<path style="clip-path:url(#SVGID_2_);fill:#8D573E;" d="M24.97,59.934c-0.26,1.167-0.528,2.373-0.932,3.533l3.399,1.183
			c0.472-1.356,0.777-2.726,1.046-3.935c0.396-1.775,0.805-3.611,1.502-3.966l-1.631-3.21C26.143,54.663,25.572,57.223,24.97,59.934
			z"/>
		<path style="clip-path:url(#SVGID_2_);fill:#FFBC82;" d="M24.335,63.57c-0.324,0.934-0.706,1.732-1.151,2.43h3.358
			c0.214-0.464,0.42-0.938,0.599-1.453L24.335,63.57z"/>
		<path style="clip-path:url(#SVGID_2_);fill:#8D573E;" d="M39.058,53.539l-1.631,3.21c0.697,0.354,1.106,2.19,1.502,3.966
			c0.269,1.209,0.574,2.578,1.046,3.935l3.399-1.183c-0.403-1.16-0.672-2.366-0.932-3.533C41.84,57.223,41.27,54.663,39.058,53.539z
			"/>
		<path style="clip-path:url(#SVGID_2_);fill:#FFBC82;" d="M40.271,64.547c0.179,0.515,0.385,0.989,0.599,1.453h3.358
			c-0.445-0.697-0.827-1.496-1.151-2.43L40.271,64.547z"/>
		<path style="clip-path:url(#SVGID_2_);fill:#8D573E;" d="M39.848,60.381c1.08-4.037,1.201-6.483-1.294-7.304
			c-2.426-0.798-6.899-1.065-9.558,0.072c-2.12,0.907-2.8,2.376-1.353,6.854c0.813,2.514,1.185,4.4,1.14,5.996h10.069
			C38.823,64.644,39.068,63.294,39.848,60.381z"/>
		<linearGradient id="SVGID_3_" gradientUnits="userSpaceOnUse" x1="33.437" y1="50.0186" x2="33.437" y2="52.6138">
			<stop  offset="0" style="stop-color:#E88958"/>
			<stop  offset="0.3384" style="stop-color:#F49D62"/>
			<stop  offset="0.6924" style="stop-color:#FCAB69"/>
			<stop  offset="1" style="stop-color:#FFB06B"/>
		</linearGradient>
		<path style="clip-path:url(#SVGID_2_);fill:url(#SVGID_3_);" d="M36.594,48.905c0.206-3.57-5.96-3.703-5.953,0.193
			c0.002,1.728,0.133,3.042-0.226,3.602c-1.937,3.028,7.637,2.86,6.146,0.183C36.043,51.955,36.505,50.48,36.594,48.905z"/>
		<path style="clip-path:url(#SVGID_2_);fill:#A1664C;" d="M36.242,57.416c-1.747,0.618-3.875,0.359-5.669-0.09
			c-1.03-0.259-1.609,0.91-1.292,1.907c0.42,1.323,2.56,1.671,4.425,1.641c3.678-0.058,5.056-1.424,4.432-3.052
			C37.972,57.385,37.184,57.085,36.242,57.416z"/>
		<path style="clip-path:url(#SVGID_2_);fill:#261B18;" d="M54.488,25.022c-1.3-1.132-2.115-1.824-2.24-3.547
			c-0.131-1.808,0.22-3.832-0.609-5.515c-0.748-1.517-2.485-1.842-3.903-2.519c-1.596-0.762-2.29-1.931-3.218-3.368
			c-1.766-2.736-5.446-3.407-8.378-2.042c-0.29-1.497-2.241-2.13-4.298-2.193c-2.146-0.065-4.591,0.995-6.313,2.262
			c-2.03,1.493-3.492,3.554-5.354,5.236C16.573,16.59,8.917,20.25,11.098,26.44c0.798,2.265,2.222,2.897,0.917,5.356
			c-1.21,2.278-1.839,3.546,0.057,5.625c0.741,0.813,1.539,1.198,1.57,2.396c0.027,1.088-0.963,2.037-0.899,3.168
			c0.138,2.416,1.987,4.151,4.312,5.576c2.921,1.792,6.594,3.093,8.552,4.643c3.466,2.745,5.291-2.107,8.079-2.212
			c1.459-0.054,2.157,1.341,4.051,2.854c2.964,2.371,7.25,4.855,9.621,1.149c-0.995-0.032-1.88-0.464-2.621-1.122
			c3.881,0.057,7.413-1.213,7.121-5.686c-0.111-1.704-0.769-2.35,0.486-3.715c1.178-1.283,3.728-1.351,3.85-3.58
			c0.111-2.018-2.355-2.457-2.802-4.107c-0.468-1.723,1.037-2.453,1.953-3.689C57.689,29.936,57.286,27.459,54.488,25.022z"/>
		<path style="clip-path:url(#SVGID_2_);fill:#FFBC82;" d="M31.799,14.568C23.758,15.91,17.911,26.716,19.196,36.97
			c0.954,7.608,7.796,15.813,16.062,15.321c9.943-0.593,14.958-11.673,13.936-20.71C48.029,21.315,43.061,12.69,31.799,14.568z"/>
		<path style="opacity:0.3;clip-path:url(#SVGID_2_);fill:#BC551E;" d="M48.634,23.23c-0.447-2.217-2.051-4.668-4.244-5.585
			c-2.917-1.218-7.807-3.697-10.948-2.67c-3.722,1.217-7.205,3.784-9.883,6.584c-3.416,3.572-5.919,11.878-3.274,16.358
			c0.568-0.781,0.629-1.969,0.98-2.903c1.276-3.394,5.008-5.385,7.642-7.692c0.786,1.85,2.389,2.17,4.137,2.547
			c-0.357-1.145-0.18-2.289,0.291-3.327c0.257-0.566,0.602-1.101,0.995-1.587c0.428-0.529,3.232-2.825,2.784-3.541
			c1.395,2.23,4.043,3.625,6.341,4.693c2.966,1.381,3.628,3.498,5.019,6.318c-0.312-0.631,0.536-3.472,0.536-4.35
			C49.01,26.493,48.947,24.786,48.634,23.23z"/>
		<path style="clip-path:url(#SVGID_2_);fill:#261B18;" d="M50.251,22.104c-0.399-1.933-3.215-3.927-4.316-5.642
			c-1.387-2.158-3.049-4.105-5.326-5.354c-3.943-2.161-8.851-2.019-13.199-1.347c-5.139,0.794-9.188,5.208-11.144,9.649
			c-2.22,5.045-2.543,9.913-1.758,17.006c0.409,3.681,0.896,8.434,2.975,11.604c0.636,0.97,2.325,1.972,1.663,3.362
			c-0.873,1.83-2.584-0.41-2.289-0.762c-0.082,0.099-0.311,0.409-0.38,0.539c0.053,1.073,0.29,2.003,1.062,2.787
			c2.507,2.551,5.688,0.918,6.88-2.014c1.586-3.902-1.947-5.908-2.956-9.412c-1.099-3.816-1.32-7.277,1.059-10.644
			c2.23-3.158,3.906-5.703,7.562-7.437c-1.066,2.271,0.996,6.024,3.803,4.894c-2.349-0.854-1.641-2.934-0.515-4.534
			c0.4-0.568,4.262-4.578,3.638-5.206c1.5,1.509,3.164,2.998,4.987,4.108c1.77,1.078,3.456,1.484,4.7,3.255
			c0.637,0.907,1.105,1.929,1.421,2.99c0.235,0.788,0.065,2.161,0.493,2.829c1.164,1.814,3.608,0.102,3.884-1.48
			c0.373-2.142-1.055-3.245-1.947-5.009C49.729,24.672,50.575,23.677,50.251,22.104z"/>
		<path style="clip-path:url(#SVGID_2_);fill:#57443A;" d="M32.093,24.741c0-0.001,0-0.003,0-0.005
			c-0.001,0.002-0.002,0.003-0.003,0.005C32.092,24.776,32.093,24.776,32.093,24.741z"/>
		<path style="clip-path:url(#SVGID_2_);fill:#57443A;" d="M46.471,14.868c-2.577-1.053-3.101-3.766-5.068-5.367
			c-1.733-1.411-4.526-0.844-5.925,0.749c-0.749-2.3-3.188-2.749-4.652-2.592c-1.5,0.16-2.827,1.386-3.813,2.549
			c-2.052,2.416-3.926,3.833-6.656,5.442c-2.333,1.376-5.494,3.757-5.621,6.717c-0.05,1.144,0.659,4.145,1.729,4.784
			c1.229,0.735,2.846,0.303,4.13-0.036c3.65-0.962,8.646-3.983,12.07-8.332c-0.528,2.717-0.547,4.96-0.57,5.954
			c0.692-1.313,1.817-2.371,2.503-3.703c0.461-0.896,0.616-1.877,0.845-2.847c0.244-1.034,0.761-1.736,1.286-2.661
			c1.395,2.478,3.101,5.16,6.116,5.713c1.021,0.188,2.075-0.002,3.092,0.193c0.951,0.182,1.516,0.714,2.322,1.168
			c2.004,1.128,2.304-1.915,2.424-3.482C50.922,15.93,48.872,15.851,46.471,14.868z"/>
		<path style="clip-path:url(#SVGID_2_);fill:#57443A;" d="M17.017,40.334c-0.492,0.007-0.854,0.129-1.105,0.324
			c-1.125,0.87-1.871,5.928,3.975,5.614c-0.424-0.6-0.804-1.372-0.857-2.114C18.944,43.018,18.867,40.309,17.017,40.334z"/>
		<path style="clip-path:url(#SVGID_2_);fill:#57443A;" d="M51.206,25.709c-0.311,0.07-0.636,0.271-0.953,0.647
			c-1.197,1.413,0.844,3.195,1.67,3.985c0.54,0.514,0.895,1.298,1.088,2.006C56.97,28.037,52.593,25.394,51.206,25.709z"/>
		<path style="clip-path:url(#SVGID_2_);fill:#57443A;" d="M47.425,48.083c-0.145,1.29,0.756,2.326-0.095,3.698
			c1.548-0.191,3.493-1.84,3.044-3.758C49.843,45.75,47.569,46.807,47.425,48.083z"/>
		<path style="clip-path:url(#SVGID_2_);fill:#57443A;" d="M14.833,33.312c-1.021,1.685,0.314,3.855,1.724,4.519
			c-0.38-1.568,0.798-2.273,1.061-3.544C17.877,33.027,16.045,31.316,14.833,33.312z"/>
		<path style="clip-path:url(#SVGID_2_);fill:#57443A;" d="M51.376,39.266c-0.658,1.119-0.258,2.432-1.594,3.339
			c1.49,0.454,3.938-0.257,4.312-2.191C54.535,38.121,52.028,38.158,51.376,39.266z"/>
		<path style="clip-path:url(#SVGID_2_);fill:#FF3B3B;" d="M26.969,40.631c4.264,6.109,6.771,7.155,9.887,7.199
			c3.906,0.053,5.121-2.587,5.623-4.549c0.214-0.829,2.09-3.024,2.833-3.537c-2.402,0.672-4.806,0.484-8.463,0.766
			C33.822,40.744,29.416,41.821,26.969,40.631z"/>
		<path style="clip-path:url(#SVGID_2_);fill:#A80A0A;" d="M28.853,41.643c0,0,2.584,4.122,7.434,3.999
			c3.108-0.081,5.106-1.169,5.62-2.63c0.56-1.597,1.858-2.225,1.858-2.225C35.399,43.2,28.853,41.643,28.853,41.643z"/>
		<path style="clip-path:url(#SVGID_2_);fill:#FFF9F0;" d="M30.669,41.938c0,0,0.203,1.273,1.95,1.689
			c2.239,0.535,4.624,0.465,7.065-0.02c1.646-0.326,2.37-2.373,2.37-2.373S37.37,42.556,30.669,41.938z"/>
		<path style="clip-path:url(#SVGID_2_);fill:#FFF9F0;" d="M37.442,43.877c-2.214,0.18-4.063,0.117-5.202-0.533
			c-0.813-0.461-0.861,0.078-0.677,0.404c0,0,0.794,1.723,4.491,1.959c3.554,0.229,5.291-1.947,4.872-2.293
			C40.506,43.068,39.494,43.709,37.442,43.877z"/>
		<path style="clip-path:url(#SVGID_2_);fill:#E8DAC5;" d="M30.669,41.938c0,0,0.15,0.588,0.479,0.883c0,0,8.263-1.064,10.277-0.438
			c0,0,0.552-0.733,0.629-1.148C42.055,41.234,36.307,42.543,30.669,41.938z"/>
		<path style="clip-path:url(#SVGID_2_);fill:#E8DAC5;" d="M32.912,43.573c3.05,1.616,6.546-0.019,6.546-0.019
			C35.751,44.559,32.912,43.573,32.912,43.573z"/>
		<path style="clip-path:url(#SVGID_2_);fill:#FF7752;" d="M47.201,36.938c-0.508-0.897-1.739-1.121-2.63-1.164
			c-1.161-0.056-2.746,0.323-1.857,2.094c0.473,0.945,5.05,1.805,4.689-0.344C47.368,37.301,47.298,37.107,47.201,36.938z"/>
		<path style="clip-path:url(#SVGID_2_);fill:#FF7752;" d="M28.045,36.879c-0.685-0.887-2.016-0.863-2.962-0.715
			c-1.234,0.193-2.838,0.965-1.611,2.74c0.651,0.945,5.611,0.895,4.879-1.416C28.275,37.248,28.171,37.049,28.045,36.879z"/>
		<path style="clip-path:url(#SVGID_2_);fill:#261B18;" d="M41.087,28.971c2.226,0.338,4.755,0.481,7.533,0.544
			C47.501,27.678,42.802,27.373,41.087,28.971z"/>
		<path style="opacity:0.4;clip-path:url(#SVGID_2_);fill:#D14F2E;" d="M36.336,37.719c-0.734,0.025-1.034-0.277-1.541,0.018
			c-0.505,0.294,0.631,1.268,1.539,1.172c1.025-0.108,1.853-0.973,1.569-1.273C37.581,37.285,37.152,37.689,36.336,37.719z"/>
		<path style="clip-path:url(#SVGID_2_);fill:#261B18;" d="M21.942,29.623c4.035-0.311,5.407-0.268,8.197-0.622
			C28.481,27.263,23.561,27.889,21.942,29.623z"/>
		<path style="clip-path:url(#SVGID_2_);fill:#425361;" d="M26.649,31.067c-2.146-0.751-3.146,3.198-1.633,4.327
			c0.643-0.257,1.427-0.252,2.069,0.006C28.416,34.527,28.247,31.625,26.649,31.067z"/>
		<path style="clip-path:url(#SVGID_2_);fill:#C3D5E3;" d="M26.284,32.5c-0.879,0.156-0.509,1.95,0.4,1.475
			C27.339,33.629,27.065,32.364,26.284,32.5z"/>
		<path style="clip-path:url(#SVGID_2_);fill:#425361;" d="M45.696,30.888c-2.142-1.366-4.021,3.634-1.643,4.352
			c0.572-0.393,1.264-0.393,1.874-0.298C46.747,33.88,46.84,31.62,45.696,30.888z"/>
		<path style="clip-path:url(#SVGID_2_);fill:#C3D5E3;" d="M44.844,32.095c-0.845,0.022-0.726,1.896,0.187,1.553
			C45.69,33.402,45.593,32.079,44.844,32.095z"/>
		<path style="clip-path:url(#SVGID_2_);fill:#121B21;" d="M45.754,30.781c-1.957-0.753-2.602,1.569-2.602,1.569
			s0.95-1.171,2.284-0.426c3.025,1.689,4.98-0.361,4.98-0.361C48.015,32.367,46.806,31.187,45.754,30.781z"/>
		<path style="clip-path:url(#SVGID_2_);fill:#121B21;" d="M25.227,31.206c-0.772,0.416-2.565,1.651-4.993,1.005
			c0,0,2.343,1.943,5.221,0.07c1.26-0.821,2.379,0.127,2.379,0.127S27.245,30.12,25.227,31.206z"/>
	</g>
</g>
<g id="Layer_1">
</g>
</svg>
