<?xml version="1.0" encoding="iso-8859-1"?>
<!-- Generator: Adobe Illustrator 16.0.0, SVG Export Plug-In . SVG Version: 6.00 Build 0)  -->
<!DOCTYPE svg PUBLIC "-//W3C//DTD SVG 1.1//EN" "http://www.w3.org/Graphics/SVG/1.1/DTD/svg11.dtd">
<svg version="1.1" xmlns="http://www.w3.org/2000/svg" xmlns:xlink="http://www.w3.org/1999/xlink" x="0px" y="0px"
	 width="66.008px" height="66.001px" viewBox="0 0 66.008 66.001" style="enable-background:new 0 0 66.008 66.001;"
	 xml:space="preserve">
<g id="Layer_42">
	<g>
		<defs>
			<circle id="SVGID_1_" cx="33.008" cy="33.001" r="33"/>
		</defs>
		<clipPath id="SVGID_2_">
			<use xlink:href="#SVGID_1_"  style="overflow:visible;"/>
		</clipPath>
		<rect style="clip-path:url(#SVGID_2_);fill:#ED9335;" width="66" height="65.998"/>
		<path style="clip-path:url(#SVGID_2_);fill:#E8DBDB;" d="M30.171,52.179c-2.165,1.076-2.723,3.526-3.313,6.124
			c-0.277,1.226-1.293,5.476-2.013,7.695h3.243c0.732-2.734,2.576-10.438,3.196-10.745L30.171,52.179z"/>
		<path style="clip-path:url(#SVGID_2_);fill:#E8DBDB;" d="M39.551,52.179l-1.114,3.074c0.62,0.308,2.463,8.011,3.196,10.745h3.243
			c-0.72-2.22-1.735-6.47-2.013-7.695C42.273,55.705,41.716,53.255,39.551,52.179z"/>
		<path style="clip-path:url(#SVGID_2_);fill:#E8DBDB;" d="M40.972,59.996c1.004-2.484,0.699-5.162-0.215-6.369
			c-3.684-4.854-8.221-3.687-10.557-1.613c-0.758,0.672-1.277,1.584-1.463,2.512c-0.992,2.608-0.04,3.816,0.523,6.044
			c0.396,1.563,0.448,3.303,0.122,5.429h11.293C40.122,64.266,39.937,62.563,40.972,59.996z"/>
		<circle style="clip-path:url(#SVGID_2_);fill:#FFFFFF;" cx="35.032" cy="60.698" r="0.495"/>
		<circle style="clip-path:url(#SVGID_2_);fill:#FFFFFF;" cx="35.099" cy="63.727" r="0.494"/>
		<linearGradient id="SVGID_3_" gradientUnits="userSpaceOnUse" x1="34.9121" y1="48.5498" x2="34.9121" y2="52.7079">
			<stop  offset="0" style="stop-color:#854326"/>
			<stop  offset="1" style="stop-color:#9C552C"/>
		</linearGradient>
		<path style="clip-path:url(#SVGID_2_);fill:url(#SVGID_3_);" d="M38.595,51.273c-1.795-1.017,0.147-5.656-1.291-6.816
			c-1.083-0.875-2.875-0.957-4.121-0.439c-2.465,1.02-0.033,6.658-2.396,7.676c-0.472,0.202-0.574,0.77,0.341,2.251
			c1.134,1.843,1.905,2.739,4.07,3.74c1.742-0.788,3.537-2.494,4.048-4.077C39.671,52.285,39.062,51.537,38.595,51.273z"/>
		<path style="opacity:0.2;clip-path:url(#SVGID_2_);fill:#A09A8F;" d="M35.198,57.685c-0.557,0.001-5.178-1.241-5.178-1.241
			l0.396,3.395c0,0,4.344-1.918,4.767-1.918c0.464,0,4.884,2.07,4.884,2.07l-0.001-3.52C40.066,56.471,35.946,57.68,35.198,57.685z"
			/>
		<path style="clip-path:url(#SVGID_2_);fill:#F5ECEC;" d="M38.796,51.2c0,0,0.836,1.864-0.253,3.571
			c-0.869,1.365-3.345,2.913-3.345,2.913l4.586,1.358C39.784,59.043,40.798,52.574,38.796,51.2z"/>
		<path style="clip-path:url(#SVGID_2_);fill:#F5ECEC;" d="M31.95,55.118c-1.51-2.165-1.052-3.606-1.052-3.606
			c-2.237,1.525-0.257,7.502-0.257,7.502l4.557-1.329C35.198,57.685,33.063,56.716,31.95,55.118z"/>
		<path style="opacity:0.2;clip-path:url(#SVGID_2_);" d="M38.157,53.066c0.042-0.293,0.33-0.533,0.427-0.813
			c0.124-0.373,0.071-0.776,0.025-1.157c-0.418-0.155-1.141,0.404-1.527,0.549c-0.569,0.213-1.153,0.49-1.743,0.631
			c-1.049,0.246-2.28,0.02-3.217-0.496c-0.391-0.213-0.773-0.486-1.006-0.854c-0.158,1.209,0.285,1.805,1.271,2.42
			c0.493,0.309,1.061,0.336,1.543,0.603c-0.63,0.551-0.828,1.763-0.981,2.552c-0.271,1.39,0.09,2.836-0.181,4.211
			c0.862,0.074,2.127-0.928,2.775-1.451c0.67-0.537,1.172-1.139,1.566-1.903c0.188-0.365,0.363-0.735,0.393-1.147
			c1.187,0.844,2.319,1.207,3.795,1.184c-0.351-0.851-0.957-1.967-1.627-2.603C39.231,54.371,38.052,53.801,38.157,53.066z"/>
		<path style="clip-path:url(#SVGID_2_);fill:#85B428;" d="M37.999,50.094c-0.271,0.146-0.516,0.499-0.743,0.715
			c-0.661,0.631-1.559,0.966-2.458,0.949c-0.355-0.008-0.711-0.07-1.052-0.189c-0.793-0.279-1.708-0.725-1.978-1.598
			c-0.428,0.197-0.764,0.527-1.074,0.881c0.15,0.721,0.48,1.305,1.013,1.811c0.3,0.286,0.728,0.539,1.116,0.683
			c2.073,0.769,4.832-0.071,6.039-1.937c0.112-0.176,0.161-0.244,0.046-0.427C38.838,50.871,38.071,50.055,37.999,50.094z"/>
		<path style="clip-path:url(#SVGID_2_);fill:#85B428;" d="M35.587,54.167c1.325,0.452,3.232-0.875,2.372-2.312
			C36.547,49.496,32.852,53.23,35.587,54.167z"/>
		<path style="clip-path:url(#SVGID_2_);fill:#85B428;" d="M36.056,52.737c-0.543,0.737-1.427,0.996-1.969,1.78
			c-0.471,0.68-0.813,1.539-0.949,2.387c-0.201,1.252-0.168,2.586-0.621,3.777c2.611-0.108,5.275-2.818,4.482-5.916
			C36.827,54.098,36.502,53.239,36.056,52.737z"/>
		<path style="clip-path:url(#SVGID_2_);fill:#85B428;" d="M36.365,52.309c0.634,5.731,5.137,6.141,7.499,5.164
			C41.224,56.471,40.23,51.457,36.365,52.309z"/>
		<path style="clip-path:url(#SVGID_2_);fill:#588A17;" d="M39.335,55.279c-1.084-0.708-1.672-0.67-2.146-1.238
			c0.178,0.798,0.327,1.308,1.017,1.938c0.589,0.536,1.382,1.012,2.194,0.97C40.259,56.356,39.843,55.609,39.335,55.279z"/>
		<path style="clip-path:url(#SVGID_2_);fill:#588A17;" d="M35.743,56.721c-0.219,0.526-0.239,1.38-0.131,1.972
			c0.542-0.335,0.899-1.122,1.101-1.87c0.237-0.874,0.163-1.398,0.011-2.187C36.606,55.359,36.212,55.595,35.743,56.721z"/>
		<path style="clip-path:url(#SVGID_2_);fill:#588A17;" d="M36.624,53.907c-0.195,0.062-0.422,0.109-0.626,0.108
			c-0.249-0.002-0.467-0.06-0.694-0.158c-0.063-0.025-0.106-0.063-0.174-0.056c0.197,0.245,0.424,0.339,0.688,0.507
			c0.211,0.135,0.449,0.221,0.655,0.359c0.167,0.107,0.285,0.179,0.491,0.11c0.217-0.075,0.307-0.327,0.406-0.515
			c0.188-0.349,0.45-0.781,0.474-1.188c-0.146,0.115-0.243,0.287-0.393,0.406C37.208,53.68,36.921,53.814,36.624,53.907z"/>
		<path style="opacity:0.5;clip-path:url(#SVGID_2_);fill:#D9A78A;" d="M20.646,31.078c-1.754-0.18-3.218,1.135-2.697,5.228
			c0.52,4.093,4.33,3.594,4.33,3.594S22.398,31.258,20.646,31.078z"/>
		<path style="clip-path:url(#SVGID_2_);fill:#4F2315;" d="M36.467,9.691C24.541,10.637,19.163,19.98,15.985,27.564
			c-7.409,8.76-4.767,24.4,11.27,19.106c4.068-1.344,1.731-6.511,8.281-6.99c4.127-0.302,4.996,4.489,6.42,5.464
			c9.212,6.298,17.191-7.755,7.223-19.528C41.163,23.677,46.235,11.869,36.467,9.691z"/>
		<path style="clip-path:url(#SVGID_2_);fill:#FFF3E2;" d="M45.163,38.543c-1.443,0.119-2.488,1.56-2.33,3.215
			c0.156,1.659,1.455,2.905,2.898,2.787c1.443-0.12,2.488-1.561,2.331-3.217C47.904,39.669,46.606,38.424,45.163,38.543z
			 M45.644,43.496c-1.049,0.086-1.99-0.816-2.104-2.02s0.643-2.248,1.692-2.334c1.046-0.086,1.988,0.817,2.102,2.02
			C47.447,42.365,46.69,43.409,45.644,43.496z"/>
		<path style="clip-path:url(#SVGID_2_);fill:#9C552C;" d="M33.993,17.266c-9.945,0.308-13.211,6.86-12.956,16.664
			c0.255,9.805,7.292,16.267,14.634,16.7c5.637,0.333,12.752-8.438,12.172-18.228C47.272,22.738,43.553,16.969,33.993,17.266z"/>
		<path style="clip-path:url(#SVGID_2_);fill:#161110;" d="M27.162,30.92c-2.047-0.77-3.093,3.002-1.665,4.121
			c0.624-0.233,1.379-0.211,1.989,0.051C28.782,34.283,28.685,31.493,27.162,30.92z"/>
		<path style="clip-path:url(#SVGID_2_);fill:#7D422B;" d="M26.886,26.349c-0.869,0.149-1.828,0.726-2.299,2.038
			c2.511-2.092,4.156-0.865,5.069-0.5C29.141,26.936,28.106,26.142,26.886,26.349z"/>
		<path style="opacity:0.7;clip-path:url(#SVGID_2_);fill:#F0DED1;" d="M27.315,32.102c-0.85,0.131-0.53,1.863,0.353,1.426
			C28.306,33.209,28.069,31.988,27.315,32.102z"/>
		<path style="clip-path:url(#SVGID_2_);fill:#4F2315;" d="M45.257,17.752c-2.084-2.432-5.109-3.691-8.063-4.748
			c-2.188-0.784-4.471-1.049-6.771-0.602c-5.789,1.129-9.371,6.691-10.3,12.182c-0.293,1.729-1.893,7.777,0.383,10.649
			c0.524-3.097,1.371-4.825,8.321-6.845c7.392-2.145,10.799-7.479,11.776-9.084c0.199,4.275,7.118,5.931,7.174,12.172
			c0.035-1.557,1.1-4.254,0.838-5.824C48.146,22.82,47.146,19.957,45.257,17.752z"/>
		<path style="clip-path:url(#SVGID_2_);fill:#BF6C3C;" d="M46.322,36.981c-0.397-0.745-1.4-0.95-2.13-1.003
			c-0.949-0.066-2.252,0.214-1.559,1.679c0.37,0.782,4.096,1.571,3.843-0.192C46.451,37.283,46.397,37.123,46.322,36.981z"/>
		<path style="clip-path:url(#SVGID_2_);fill:#BF6C3C;" d="M28.097,36.857c-0.563-0.773-1.701-0.778-2.513-0.67
			c-1.057,0.141-2.44,0.766-1.43,2.307c0.54,0.82,4.771,0.875,4.194-1.115C28.288,37.176,28.202,37.002,28.097,36.857z"/>
		<path style="clip-path:url(#SVGID_2_);fill:#932F19;" d="M35.788,40.094c-2.782,0.053-6.873,0.842-9.048-0.443
			c3.569,6.13,5.806,7.279,8.655,7.498c3.57,0.271,4.826-2.205,5.393-4.066c0.24-0.787,2.078-2.795,2.785-3.25
			C41.34,40.346,39.149,40.027,35.788,40.094z"/>
		<path style="clip-path:url(#SVGID_2_);fill:#8F312D;" d="M28.409,40.732c0,0,2.14,4.121,6.584,4.273
			c2.848,0.099,4.736-0.837,5.286-2.215c0.601-1.51,1.822-2.041,1.822-2.041C34.317,42.603,28.409,40.732,28.409,40.732z"/>
		<path style="clip-path:url(#SVGID_2_);fill:#FFF9F0;" d="M30.056,41.121c0,0,0.117,1.236,1.691,1.736
			c2.02,0.641,4.206,0.709,6.466,0.382c1.523-0.223,2.3-2.154,2.3-2.154S36.152,42.093,30.056,41.121z"/>
		<path style="clip-path:url(#SVGID_2_);fill:#FFF9F0;" d="M36.147,43.372c-2.035,0.046-3.723-0.118-4.731-0.808
			c-0.718-0.491-0.793,0.025-0.642,0.351c0,0,0.633,1.703,4.002,2.142c3.238,0.422,4.949-1.578,4.584-1.936
			C38.995,42.765,38.033,43.326,36.147,43.372z"/>
		<path style="clip-path:url(#SVGID_2_);fill:#E8DAC5;" d="M30.056,41.121c0,0,0.104,0.574,0.39,0.877c0,0,7.618-0.561,9.429,0.158
			c0,0,0.547-0.676,0.639-1.071C40.513,41.085,35.181,42.021,30.056,41.121z"/>
		<path style="clip-path:url(#SVGID_2_);fill:#E8DAC5;" d="M32.019,42.822c2.703,1.73,5.991,0.352,5.991,0.352
			C34.562,43.932,32.019,42.822,32.019,42.822z"/>
		<path style="opacity:0.7;clip-path:url(#SVGID_2_);fill:#66241B;" d="M36.308,36.407c-0.639-0.013-0.892-0.29-1.341-0.058
			c-0.45,0.232,0.511,1.13,1.302,1.089c0.895-0.046,1.639-0.759,1.405-1.032C37.403,36.088,37.017,36.419,36.308,36.407z"/>
		<path style="clip-path:url(#SVGID_2_);fill:#161110;" d="M45.181,30.959c-2.057-1.311-3.861,3.496-1.576,4.186
			c0.552-0.377,1.215-0.379,1.805-0.288C46.193,33.833,46.281,31.662,45.181,30.959z"/>
		<path style="opacity:0.7;clip-path:url(#SVGID_2_);fill:#F0DED1;" d="M45.076,32.021c-0.812,0.021-0.694,1.822,0.182,1.492
			C45.892,33.275,45.796,32.006,45.076,32.021z"/>
		<path style="clip-path:url(#SVGID_2_);fill:#161110;" d="M45.238,30.857c-1.885-0.725-2.502,1.51-2.502,1.51
			s0.914-1.127,2.196-0.412c2.91,1.622,4.784-0.35,4.784-0.35C47.41,32.379,46.247,31.246,45.238,30.857z"/>
		<path style="clip-path:url(#SVGID_2_);fill:#161110;" d="M25.792,31.021c-0.753,0.383-2.5,1.529-4.82,0.856
			c0,0,2.212,1.919,5.014,0.182c1.229-0.761,2.285,0.175,2.285,0.175S27.755,30.023,25.792,31.021z"/>
		<path style="clip-path:url(#SVGID_2_);fill:#783F29;" d="M45.038,26.598c-1.217-0.241-2.271,0.525-2.811,1.463
			c0.921-0.34,2.6-1.523,5.055,0.635C46.844,27.371,45.901,26.768,45.038,26.598z"/>
		<path style="clip-path:url(#SVGID_2_);fill:#9C552C;" d="M19.464,31.056c-2.645,1.179-1.578,6.646,0.586,7.642
			c0.693,0.318,1.428,0.33,2.137,0.221c0.013-0.031,0.027-0.063,0.043-0.095c0.314-0.735-0.256-4.382-0.418-5.132
			C21.403,31.805,20.733,30.489,19.464,31.056z"/>
		<path style="clip-path:url(#SVGID_2_);fill:#FFF3E2;" d="M21.41,39.076c-1.448,0.012-2.595,1.373-2.56,3.035
			c0.034,1.665,1.235,3.004,2.686,2.992c1.448-0.012,2.596-1.371,2.561-3.035C24.062,40.402,22.86,39.065,21.41,39.076z
			 M21.524,44.052c-1.051,0.009-1.923-0.963-1.947-2.171c-0.025-1.205,0.808-2.192,1.857-2.201c1.052-0.01,1.924,0.963,1.949,2.17
			C23.408,43.057,22.576,44.044,21.524,44.052z"/>
		<path style="opacity:0.7;clip-path:url(#SVGID_2_);fill:#66241B;" d="M20.312,32.882c-0.536-0.29-1.673,0.587-0.9,2.076
			c0.119-1.521,0.781-0.648,0.83,0.407c0.033,0.71-0.42,0.795,0.145,1.62c0.305,0.444,0.777,0.181,0.993-0.122
			C22.066,35.902,20.966,33.237,20.312,32.882z"/>
		<path style="opacity:0.3;clip-path:url(#SVGID_2_);fill:#380500;" d="M43.254,17.316c-2.035-1.271-4.583-1.176-6.843-0.721
			c-2.092,0.42-3.535,1.339-5.408,2.223c-2.934,1.385-6.158,1.531-9.172,2.638c-1.857,0.682-5.326,4.814-5.086,6.873
			c1.313,0.172,2.367-0.836,3.531-1.117c0.382,1.712,3.93,3.663,5.539,3.626c2.159-0.05,4.435-1.555,6.521-2.129
			c1.371-0.377,2.81-0.631,4.251-0.791c3.276-0.361,6.655,0.318,9.931,0.662c1.374,0.145,3.76,1.358,4.401-0.4
			c1.015-2.787-1.937-5.387-3.303-7.383C46.416,19.041,45.107,18.475,43.254,17.316z"/>
		<path style="clip-path:url(#SVGID_2_);fill:#588A17;" d="M28.989,6.815C17.114,9.066,15.701,21.223,15.087,25.795
			c-0.447,3.311,3.511,1.339,6.129-0.404c0.285-0.191,0.575-0.365,0.865-0.527c5.775-3.195,12.072-2.51,18.312-2.939
			c2.097-0.145,4.522-0.514,7.188,0.009C49.872,22.381,46.819,3.439,28.989,6.815z"/>
		<path style="clip-path:url(#SVGID_2_);fill:#85B428;" d="M41.013,9.23c-3.06-1.994-5.848-2.621-9.414-2.365
			c-3.985,0.286-7.857,1.901-9.529,3.565c-0.49,1.604-0.842,6.065,0.535,10.761c0.549,1.871,1.377,0.471,4.033-0.578
			c7.518-2.977,12.705-2.467,18.637-1.207c1.007,0.213,2.207,0.624,2.091-0.352c-0.265-2.241-1.692-5.435-4.052-7.898
			C42.601,10.414,41.826,9.76,41.013,9.23z"/>
		<path style="clip-path:url(#SVGID_2_);fill:#ACD14B;" d="M28.999,11.605c-2.734,1.32-1.471,6.234,1.432,5.514
			c2.308-0.572,4.623-1.111,8.174-0.69c1.426,0.169,4.921,1.382,4.544-1.589C42.454,9.391,32.062,10.125,28.999,11.605z"/>
		<path style="clip-path:url(#SVGID_2_);fill:#ACD14B;" d="M30.349,9.62c-0.293,0.065-0.58,0.138-0.85,0.215
			c-0.115,0.033-0.188,0.161-0.156,0.284c0.021,0.098,0.101,0.165,0.189,0.174c0.023,0.002,0.047,0,0.074-0.008
			c0.261-0.074,0.54-0.145,0.826-0.207c0.117-0.027,0.194-0.15,0.172-0.275C30.581,9.676,30.468,9.594,30.349,9.62z"/>
		<path style="clip-path:url(#SVGID_2_);fill:#ACD14B;" d="M30.017,18.098l-0.265,0.07c-0.178,0.05-0.356,0.076-0.53,0.078
			c-0.121,0.004-0.217,0.108-0.217,0.238c0,0.119,0.087,0.217,0.196,0.228c0.007,0.001,0.015,0.001,0.022,0.001
			c0.205-0.004,0.42-0.034,0.631-0.094l0.264-0.07c0.117-0.032,0.188-0.157,0.16-0.282C30.25,18.141,30.134,18.064,30.017,18.098z"
			/>
		<path style="clip-path:url(#SVGID_2_);fill:#ACD14B;" d="M28.657,10.109c-0.305,0.113-0.582,0.235-0.821,0.359l-0.021,0.01
			c-0.107,0.059-0.144,0.193-0.092,0.308c0.033,0.075,0.102,0.118,0.178,0.126c0.039,0.004,0.082-0.005,0.119-0.024
			c0.227-0.117,0.486-0.231,0.775-0.339c0.114-0.043,0.175-0.175,0.139-0.297C28.895,10.131,28.772,10.066,28.657,10.109z"/>
		<path style="clip-path:url(#SVGID_2_);fill:#ACD14B;" d="M33.802,9.186c-0.289,0.012-0.58,0.03-0.867,0.053
			c-0.12,0.01-0.211,0.121-0.204,0.25c0.008,0.115,0.091,0.205,0.196,0.214c0.012,0.003,0.023,0.003,0.035,0
			c0.281-0.021,0.567-0.04,0.851-0.05c0.12-0.006,0.215-0.112,0.211-0.242C34.021,9.281,33.922,9.182,33.802,9.186z"/>
		<path style="clip-path:url(#SVGID_2_);fill:#ACD14B;" d="M31.696,17.659c-0.281,0.068-0.561,0.142-0.843,0.214
			c-0.116,0.029-0.19,0.156-0.161,0.281c0.021,0.1,0.101,0.169,0.19,0.177c0.022,0.003,0.046,0,0.071-0.007
			c0.277-0.072,0.553-0.144,0.833-0.209c0.116-0.029,0.192-0.153,0.167-0.278C31.929,17.711,31.813,17.631,31.696,17.659z"/>
		<path style="clip-path:url(#SVGID_2_);fill:#ACD14B;" d="M32.068,9.328c-0.288,0.035-0.579,0.078-0.861,0.125
			c-0.119,0.021-0.202,0.14-0.184,0.268c0.016,0.107,0.097,0.188,0.193,0.195c0.019,0.002,0.035,0,0.053-0.002
			c0.276-0.047,0.562-0.088,0.845-0.124c0.118-0.016,0.206-0.13,0.193-0.258C32.296,9.404,32.188,9.311,32.068,9.328z"/>
		<path style="clip-path:url(#SVGID_2_);fill:#ACD14B;" d="M26.183,13.941c0.002,0,0.004,0,0.006,0
			c0.12,0.01,0.223-0.09,0.232-0.217c0.001-0.033,0.005-0.064,0.006-0.097c0.025-0.268,0.069-0.524,0.133-0.767
			c0.032-0.124-0.036-0.252-0.15-0.285c-0.115-0.033-0.236,0.04-0.268,0.165c-0.072,0.269-0.119,0.555-0.146,0.847
			c-0.004,0.036-0.007,0.07-0.009,0.107C25.979,13.821,26.064,13.931,26.183,13.941z"/>
		<path style="clip-path:url(#SVGID_2_);fill:#ACD14B;" d="M43.385,13.681c0.104,0.263,0.189,0.544,0.251,0.831
			c0.021,0.102,0.101,0.17,0.19,0.177c0.023,0.003,0.046,0.003,0.069-0.005c0.117-0.031,0.191-0.156,0.164-0.281
			c-0.068-0.314-0.159-0.621-0.275-0.91c-0.047-0.117-0.174-0.17-0.286-0.119C43.389,13.425,43.337,13.563,43.385,13.681z"/>
		<path style="clip-path:url(#SVGID_2_);fill:#ACD14B;" d="M26.573,15.471c-0.068-0.283-0.116-0.576-0.143-0.867
			c-0.011-0.127-0.118-0.219-0.236-0.207c-0.121,0.014-0.209,0.13-0.197,0.258c0.029,0.316,0.08,0.633,0.157,0.939
			c0.022,0.099,0.102,0.163,0.188,0.171c0.025,0.003,0.05,0,0.075-0.007C26.535,15.724,26.604,15.596,26.573,15.471z"/>
		<path style="clip-path:url(#SVGID_2_);fill:#ACD14B;" d="M26.847,16.299c-0.049-0.117-0.178-0.166-0.287-0.113
			c-0.109,0.057-0.159,0.193-0.109,0.311c0.128,0.301,0.277,0.58,0.447,0.832c0.037,0.057,0.094,0.088,0.155,0.096
			c0.05,0.002,0.102-0.012,0.147-0.044c0.098-0.077,0.12-0.223,0.05-0.325C27.098,16.826,26.963,16.574,26.847,16.299z"/>
		<path style="clip-path:url(#SVGID_2_);fill:#ACD14B;" d="M27.79,17.682c-0.092-0.082-0.229-0.066-0.307,0.033
			c-0.076,0.098-0.064,0.246,0.026,0.328c0.247,0.219,0.514,0.387,0.795,0.5c0.019,0.008,0.038,0.012,0.056,0.014
			c0.097,0.009,0.189-0.051,0.224-0.15c0.045-0.121-0.011-0.254-0.123-0.301C28.226,18.012,28.001,17.869,27.79,17.682z"/>
		<path style="clip-path:url(#SVGID_2_);fill:#ACD14B;" d="M27.057,11.051c-0.22,0.226-0.411,0.488-0.567,0.784
			c-0.059,0.112-0.023,0.255,0.081,0.317c0.027,0.016,0.058,0.025,0.087,0.027c0.082,0.008,0.166-0.037,0.211-0.119
			c0.133-0.256,0.298-0.482,0.484-0.676c0.09-0.09,0.094-0.236,0.01-0.33C27.28,10.964,27.142,10.96,27.057,11.051z"/>
		<path style="clip-path:url(#SVGID_2_);fill:#ACD14B;" d="M33.402,17.311c-0.279,0.045-0.567,0.1-0.856,0.16
			c-0.117,0.023-0.197,0.145-0.175,0.271c0.017,0.105,0.099,0.18,0.192,0.189c0.02,0,0.039,0,0.059-0.006
			c0.285-0.057,0.566-0.109,0.841-0.154c0.118-0.02,0.202-0.139,0.185-0.266C33.631,17.38,33.521,17.291,33.402,17.311z"/>
		<path style="clip-path:url(#SVGID_2_);fill:#ACD14B;" d="M43.157,13.016c0.047,0.005,0.097-0.008,0.139-0.04
			c0.101-0.071,0.128-0.218,0.063-0.323c-0.162-0.259-0.351-0.51-0.559-0.741c-0.083-0.091-0.221-0.095-0.307-0.005
			c-0.086,0.091-0.09,0.236-0.008,0.33c0.189,0.214,0.361,0.441,0.511,0.679C43.034,12.976,43.093,13.01,43.157,13.016z"/>
		<path style="clip-path:url(#SVGID_2_);fill:#ACD14B;" d="M41.404,10.758c-0.104-0.064-0.235-0.027-0.298,0.085
			c-0.061,0.112-0.027,0.255,0.076,0.319c0.246,0.15,0.479,0.316,0.689,0.488c0.033,0.027,0.072,0.042,0.113,0.047
			c0.071,0.006,0.145-0.024,0.191-0.092c0.073-0.102,0.057-0.249-0.039-0.325C41.913,11.094,41.665,10.918,41.404,10.758z"/>
		<path style="clip-path:url(#SVGID_2_);fill:#ACD14B;" d="M41.975,17.541c-0.245,0.016-0.518,0.012-0.829-0.016
			c-0.119-0.01-0.227,0.085-0.236,0.214c-0.012,0.13,0.076,0.239,0.195,0.252h0.001c0.332,0.026,0.624,0.031,0.89,0.015
			c0.119-0.008,0.211-0.117,0.207-0.246C42.194,17.631,42.097,17.533,41.975,17.541z"/>
		<path style="clip-path:url(#SVGID_2_);fill:#ACD14B;" d="M43.379,16.954c-0.155,0.192-0.358,0.333-0.621,0.433
			c-0.113,0.043-0.175,0.178-0.135,0.296c0.028,0.09,0.103,0.147,0.185,0.155c0.03,0.003,0.061-0.001,0.092-0.013
			c0.33-0.126,0.602-0.316,0.805-0.567c0.08-0.098,0.072-0.244-0.018-0.33C43.597,16.845,43.459,16.855,43.379,16.954z"/>
		<path style="clip-path:url(#SVGID_2_);fill:#ACD14B;" d="M39.81,9.989c-0.114-0.041-0.239,0.023-0.277,0.146
			c-0.042,0.122,0.018,0.254,0.131,0.296c0.27,0.099,0.532,0.21,0.778,0.327c0.022,0.01,0.048,0.017,0.07,0.018
			c0.091,0.01,0.179-0.045,0.218-0.137c0.051-0.117,0.002-0.256-0.106-0.307C40.365,10.209,40.092,10.094,39.81,9.989z"/>
		<path style="clip-path:url(#SVGID_2_);fill:#ACD14B;" d="M43.957,15.134c-0.12,0.009-0.212,0.12-0.206,0.249
			c0.011,0.195,0.008,0.379-0.007,0.547c-0.009,0.107-0.024,0.211-0.045,0.305c-0.024,0.126,0.048,0.25,0.166,0.275
			c0.008,0.002,0.017,0.004,0.028,0.004c0.105,0.01,0.207-0.068,0.23-0.184c0.024-0.112,0.041-0.236,0.054-0.362
			c0.017-0.191,0.02-0.399,0.008-0.618C44.178,15.222,44.077,15.123,43.957,15.134z"/>
		<path style="clip-path:url(#SVGID_2_);fill:#ACD14B;" d="M40.308,17.422c-0.147-0.022-0.291-0.046-0.429-0.068
			c-0.147-0.025-0.287-0.049-0.421-0.068c-0.115-0.018-0.23,0.07-0.247,0.199c-0.018,0.126,0.063,0.244,0.181,0.264
			c0.133,0.02,0.271,0.041,0.418,0.064c0.139,0.024,0.283,0.047,0.431,0.07c0.004,0,0.009,0,0.013,0
			c0.113,0.012,0.217-0.074,0.236-0.197C40.506,17.558,40.426,17.439,40.308,17.422z"/>
		<path style="clip-path:url(#SVGID_2_);fill:#ACD14B;" d="M36.866,17.076c-0.293-0.008-0.585-0.009-0.867-0.002
			c-0.121,0.002-0.217,0.107-0.215,0.236c0,0.121,0.084,0.217,0.195,0.228c0.007,0,0.015,0.001,0.022,0
			c0.276-0.005,0.563-0.005,0.85,0.003c0.12,0.002,0.221-0.1,0.226-0.229C37.081,17.184,36.984,17.076,36.866,17.076z"/>
		<path style="clip-path:url(#SVGID_2_);fill:#ACD14B;" d="M35.131,17.111c-0.288,0.02-0.579,0.046-0.867,0.078
			c-0.118,0.014-0.206,0.13-0.194,0.258c0.009,0.111,0.094,0.197,0.194,0.208c0.015,0,0.028,0,0.042-0.001
			c0.279-0.033,0.566-0.06,0.848-0.078c0.119-0.008,0.211-0.119,0.205-0.248C35.353,17.201,35.253,17.104,35.131,17.111z"/>
		<path style="clip-path:url(#SVGID_2_);fill:#ACD14B;" d="M37.267,9.359c-0.281-0.041-0.57-0.078-0.862-0.104
			c-0.001-0.002-0.001-0.002-0.001-0.002c-0.119-0.01-0.226,0.084-0.238,0.213c-0.012,0.126,0.076,0.24,0.195,0.251
			c0.283,0.028,0.567,0.063,0.842,0.103c0.004,0,0.008,0.003,0.012,0.003c0.114,0.009,0.217-0.077,0.234-0.2
			C37.468,9.494,37.385,9.378,37.267,9.359z"/>
		<path style="clip-path:url(#SVGID_2_);fill:#ACD14B;" d="M35.537,9.193c-0.286-0.016-0.577-0.021-0.867-0.022
			c-0.12-0.001-0.22,0.103-0.222,0.231c-0.001,0.123,0.084,0.223,0.196,0.232c0.006,0.002,0.013,0.002,0.018,0.002
			c0.285,0,0.569,0.009,0.851,0.021c0.12,0.007,0.223-0.094,0.229-0.222C35.749,9.309,35.655,9.196,35.537,9.193z"/>
		<path style="clip-path:url(#SVGID_2_);fill:#ACD14B;" d="M38.974,9.721c-0.272-0.076-0.559-0.146-0.848-0.209
			c-0.121-0.023-0.233,0.061-0.259,0.186c-0.023,0.126,0.052,0.248,0.169,0.273c0.282,0.059,0.559,0.127,0.823,0.2
			c0.011,0.004,0.023,0.005,0.035,0.007c0.104,0.01,0.202-0.063,0.231-0.173C39.157,9.88,39.089,9.754,38.974,9.721z"/>
		<path style="clip-path:url(#SVGID_2_);fill:#ACD14B;" d="M38.595,17.182c-0.297-0.028-0.584-0.053-0.861-0.069
			c-0.121-0.008-0.225,0.091-0.233,0.219c-0.009,0.126,0.079,0.235,0.196,0.245c0.002,0,0.004,0,0.005,0.002
			c0.274,0.017,0.558,0.04,0.85,0.068h0.001c0.119,0.012,0.225-0.084,0.238-0.211C38.802,17.307,38.716,17.193,38.595,17.182z"/>
		<path style="clip-path:url(#SVGID_2_);fill:#588A17;" d="M48.183,21.215c-2.215-2.864-20.256-3.443-27.841,4.385
			c2.944,2.429,3.02,4.963,7.198,3.631c3.332-1.064,6.621-2.279,10.084-2.443c6.316-0.299,12.203,0.514,15.036,3.334
			c2.549,0.802,0.828-1.551,0.202-2.461C51.153,25.178,49.804,23.311,48.183,21.215z"/>
		<path style="clip-path:url(#SVGID_2_);fill:#88C138;" d="M47.94,21.295c-2.165-2.798-19.524-3.984-26.938,3.668
			c3.678,3.033,3.222,3.988,8.466,2.317c5.775-1.845,18.206-3.187,22.852,1.44c1.66,1.402,1.462,0.408,0.194-1.123
			C50.646,25.344,49.524,23.344,47.94,21.295z"/>
		<path style="clip-path:url(#SVGID_2_);fill:#85B428;" d="M19.096,24.438c-1.126,0.902-2.19,1.243-2.983,0.878
			c-0.794-0.365-0.578,0.304-0.631,0.889c-0.053,0.586,0.834,1.137,2.959,0.146c2.125-0.992,4.055-3.479,4.055-3.479
			c-0.406-1-0.511-1.699-0.511-1.699S20.222,23.535,19.096,24.438z"/>
		<path style="clip-path:url(#SVGID_2_);fill:#C0E366;" d="M34.811,25.854c-4.468,0.607-7.139,2.094-9.269,1.826
			c-1.71-0.214-3.89-2.169-3.89-2.169s1.907,2.562,3.637,2.913c2.265,0.461,3.479-1.123,9.623-2.182
			c6.144-1.061,11.278-0.266,11.278-0.266S41.045,25.006,34.811,25.854z"/>
		<path style="clip-path:url(#SVGID_2_);fill:#6CA81E;" d="M30.333,25.484c-4.09,0.966-5.582,1.092-7.648-0.855
			c0,0,0.997,2.291,2.83,2.359c2.563,0.092,4.638-1.461,12.085-2.188C37.6,24.801,34.423,24.519,30.333,25.484z"/>
		<path style="clip-path:url(#SVGID_2_);fill:#6CA81E;" d="M42.53,24.674c0,0,6.26,0.412,8.949,2.43L50.96,26.3
			C50.96,26.3,46.79,24.34,42.53,24.674z"/>
	</g>
</g>
<g id="Layer_1">
</g>
</svg>
