<?xml version="1.0" encoding="iso-8859-1"?>
<!-- Generator: Adobe Illustrator 16.0.0, SVG Export Plug-In . SVG Version: 6.00 Build 0)  -->
<!DOCTYPE svg PUBLIC "-//W3C//DTD SVG 1.1//EN" "http://www.w3.org/Graphics/SVG/1.1/DTD/svg11.dtd">
<svg version="1.1" xmlns="http://www.w3.org/2000/svg" xmlns:xlink="http://www.w3.org/1999/xlink" x="0px" y="0px"
	 width="66.002px" height="66px" viewBox="0 0 66.002 66" style="enable-background:new 0 0 66.002 66;" xml:space="preserve">
<g id="Layer_81">
	<g>
		<defs>
			<circle id="SVGID_1_" cx="33.002" cy="33" r="33"/>
		</defs>
		<clipPath id="SVGID_2_">
			<use xlink:href="#SVGID_1_"  style="overflow:visible;"/>
		</clipPath>
		<rect style="clip-path:url(#SVGID_2_);fill:#A77E64;" width="66" height="66"/>
		<path style="clip-path:url(#SVGID_2_);fill:#261B18;" d="M12.757,36.343c0.565,3.673,1.764,7.278,3.583,10.629
			c3.984,7.339,9.919,6.482,17.319,7.171c5.977,0.558,10.088-1.85,13.914-7.676c5.117-7.793,5.065-14.403,4.093-22.829
			c-2.125-18.42-24.058-21.781-32.55-11.396C13.519,19.089,11.457,27.892,12.757,36.343z"/>
		<path style="clip-path:url(#SVGID_2_);fill:#FF9819;" d="M26.309,54.885c-0.719-0.835-1.979-0.928-2.814-0.209
			C20.195,57.52,19.467,60.965,19.467,66h4.258c0.075-2.477,0.391-6.59,2.376-8.301C26.936,56.98,27.029,55.721,26.309,54.885z"/>
		<path style="clip-path:url(#SVGID_2_);fill:#FF9819;" d="M38.865,54.885c0.72-0.835,1.979-0.928,2.814-0.209
			c3.3,2.844,4.027,6.289,4.027,11.324h-4.258c-0.074-2.477-0.391-6.59-2.375-8.301C38.239,56.98,38.146,55.721,38.865,54.885z"/>
		<path id="XMLID_48_" style="clip-path:url(#SVGID_2_);fill:#AD9162;" d="M23.684,54.543c-2.025,1.371,1.215,5.146,1.215,11.457
			h15.133c0-5.58,3.104-10.343,1.19-11.457C37.033,52.104,28.707,51.141,23.684,54.543z"/>
		<path style="clip-path:url(#SVGID_2_);fill:#CCAF7E;" d="M32.528,56.545c6.943,0,10.578-2.471,8.874-4.886
			c-5.233-7.421-12.467-8.359-17.836,0C21.922,54.223,25.012,56.545,32.528,56.545z"/>
		<path style="clip-path:url(#SVGID_2_);fill:#57472F;" d="M32.539,55.673c3.91-0.058,11.35-3.993,9.36-6.394
			c-1.79-2.159-17.164-2.906-18.057-0.334C23.088,51.115,28.628,55.729,32.539,55.673z"/>
		
			<linearGradient id="SVGID_3_" gradientUnits="userSpaceOnUse" x1="-464.2075" y1="52.25" x2="-464.2075" y2="57.1255" gradientTransform="matrix(-1 0 0 1 -431.6201 0)">
			<stop  offset="0" style="stop-color:#EE996D"/>
			<stop  offset="0.0163" style="stop-color:#EE9A6E"/>
			<stop  offset="0.3731" style="stop-color:#F8B181"/>
			<stop  offset="0.7088" style="stop-color:#FDBF8D"/>
			<stop  offset="1" style="stop-color:#FFC491"/>
		</linearGradient>
		<path style="clip-path:url(#SVGID_2_);fill:url(#SVGID_3_);" d="M28.24,51.995c0.174-2.265,2.614-3.126,4.347-3.122
			c1.731-0.004,4.174,0.857,4.347,3.122c0.081,1.053-0.103,1.663-0.743,2.247c-1.024,0.934-2.291,1.692-3.604,1.715
			c-1.312-0.022-2.581-0.781-3.604-1.715C28.344,53.658,28.159,53.048,28.24,51.995z"/>
		<path style="clip-path:url(#SVGID_2_);fill:#CCAF7E;" d="M39.211,61.606c-0.169,0-0.322-0.113-0.366-0.284
			c-0.548-2.127-1.39-3.803-2.503-4.977c-0.145-0.152-0.139-0.392,0.014-0.535c0.152-0.145,0.392-0.137,0.535,0.014
			c1.203,1.27,2.107,3.057,2.687,5.31c0.053,0.202-0.069,0.409-0.271,0.461C39.273,61.603,39.242,61.606,39.211,61.606z"/>
		<path style="clip-path:url(#SVGID_2_);fill:#CCAF7E;" d="M25.826,61.606c-0.03,0-0.063-0.004-0.094-0.012
			c-0.203-0.052-0.325-0.259-0.272-0.461c0.58-2.253,1.483-4.04,2.687-5.31c0.144-0.152,0.383-0.158,0.535-0.014
			c0.151,0.144,0.158,0.383,0.014,0.535c-1.113,1.174-1.955,2.85-2.503,4.977C26.148,61.493,25.995,61.606,25.826,61.606z"/>
		<path style="clip-path:url(#SVGID_2_);fill:#AD9162;" d="M32.271,56.122c-1.416-0.021,4.589-0.347,4.597-4.838
			C38.4,51.883,39.699,56.234,32.271,56.122z"/>
		<path style="clip-path:url(#SVGID_2_);fill:#AD9162;" d="M32.922,56.122c1.418-0.021-5.174-0.589-4.596-4.838
			C26.793,51.883,25.495,56.234,32.922,56.122z"/>
		<path style="clip-path:url(#SVGID_2_);fill:#CCAF7E;" d="M26.021,60.396c0.645,2.209,3.773,2.785,6.489,2.734
			c5.36-0.101,7.083-2.61,6.134-5.329c-0.253-0.729-1.172-1.109-2.2-0.031c-1.545,1.615-6.757,1.752-8.725-0.313
			C26.611,56.293,25.535,58.73,26.021,60.396z"/>
		<path style="opacity:0.1;clip-path:url(#SVGID_2_);" d="M38.836,63.16c-0.486,0.631-1.871,1.455-2.814,1.703
			c0.938,0.096,1.579,0.137,2.593,0.098c-2.346,1.22-9.754,1.253-11.23,0.18c0.329-0.078,2.065-0.053,2.297-0.074
			c-1.214-0.423-2.728-0.918-3.723-1.893C30,64.766,35.401,64.295,38.836,63.16z"/>
		<path style="clip-path:url(#SVGID_2_);fill:#FFBC82;" d="M19.068,37.916c0.912,7.725,7.482,16.055,15.424,15.551
			c9.553-0.605,14.375-11.857,13.396-21.033c-1.113-10.424-5.885-19.18-16.704-17.269C23.458,16.531,17.837,27.505,19.068,37.916z"
			/>
		<path style="opacity:0.3;clip-path:url(#SVGID_2_);fill:#BF3C1B;" d="M32.136,26.764c-0.956,0.459-1.905,0.83-2.714,1.11
			c-1.458,0.505-7.972,0.683-7.988-1.697c0.012,1.706,0.679,3.674-0.828,5.095c-2.055-1.723-4.728-4.354-4.311-7.054
			c0.615-3.972,2.355-6.536,6.323-8.165c2.65-1.089,6.424-0.845,9.232-0.725c4.596,0.196,8.646,1.227,12.809,2.965
			c2.256,0.943,6.096,5.886,3.941,8.249c-2.688,2.95-9.829-2.019-11.329-4.421C36.594,24.159,34.344,25.702,32.136,26.764z"/>
		<path style="clip-path:url(#SVGID_2_);fill:#261B18;" d="M27.417,10.288c-5.217,0.807-9.33,5.289-11.313,9.797
			c-2.255,5.123-4.146,9.055-3.347,16.257c0.534,4.813,2.094,10.925,6.943,16.173c2.707,2.928,7.968,5.072,9.113,9.248
			c0.803-1.539,0.375-4.604-0.145-6.172c-1.527-4.617-5.921-7.285-7.289-12.039c-1.116-3.876-1.341-7.391,1.073-10.808
			c1.977-2.798,4.042-4.803,7.186-6.207c2.94-1.314,6.355-2.989,7.525-6.265c1.522,1.533,3.212,3.044,5.063,4.172
			c1.798,1.095,3.51,1.507,4.772,3.305c2.266,3.227,2.381,7.714,1.304,11.393c-1.425,4.867-4.798,11.146-9.989,13.439
			c-2.841,1.255-1.762,7.188-0.181,11.069c1.366-8.914,8.311-10.638,10.855-17.11c5.453-13.871,3.148-19.223-0.509-25.585
			c-2.1-3.653-3.834-7.204-7.66-9.3C36.816,9.462,31.833,9.605,27.417,10.288z"/>
		<path style="clip-path:url(#SVGID_2_);fill:#57443A;" d="M30.895,8.124c7.096-0.354,17.594,3.038,19.099,13.204
			c-4.938,1.827-9.88,0.258-13.228-3.877c0.65,0.801-3.421,4.854-4.019,5.345c-3.572,2.923-8.363,4.739-12.808,5.663
			c0.408-1.172,1.433-2.161,1.652-3.344c-0.185,0.991-3.02,1.605-3.794,1.456c-1.18-0.229-1.935-1.009-2.112-2.205
			c-0.295-1.999,1.262-5.631,2.118-7.389C20.168,12.113,25.567,8.389,30.895,8.124z"/>
		<path style="clip-path:url(#SVGID_2_);fill:#57443A;" d="M14.571,36.391c1.028,2.422,3.317,3.166,4.64,5.262
			c1.268,2.01,0.733,3.354,0.362,5.451c-0.191,1.072,0.026,2.303,0.364,3.309C14.813,46.26,14.571,36.391,14.571,36.391z"/>
		<path style="clip-path:url(#SVGID_2_);fill:#57443A;" d="M43.3,52.044c1.438-1.816,0.834-2.618,1.471-4.085
			c0.611-1.406,1.459-1.829,2.635-2.664c0.601-0.426,1.152-1.08,1.553-1.672C48.11,49.914,43.3,52.044,43.3,52.044z"/>
		<path style="opacity:0.4;clip-path:url(#SVGID_2_);fill:#FF7752;" d="M46.612,36.267c0.113,0.165,0.204,0.354,0.261,0.572
			c0.561,2.116-4.248,1.429-4.822,0.51c-1.075-1.727,0.531-2.157,1.739-2.143C44.715,35.217,46.008,35.393,46.612,36.267z"/>
		<path style="opacity:0.4;clip-path:url(#SVGID_2_);fill:#FF7752;" d="M28.214,35.889c0.161,0.137,0.301,0.307,0.418,0.512
			c1.124,2.002-3.942,2.566-4.766,1.781c-1.545-1.467-0.028-2.326,1.201-2.629C26.011,35.32,27.372,35.16,28.214,35.889z"/>
		<path style="opacity:0.3;clip-path:url(#SVGID_2_);fill:#B54319;" d="M38.055,37.695c-0.393-0.48-1.023-0.016-2.124-0.075
			c-0.993-0.052-0.972-0.466-1.689-0.149c-0.717,0.313-0.187,1.523,1.573,1.58C37.567,39.109,38.395,38.109,38.055,37.695z"/>
		<path style="clip-path:url(#SVGID_2_);fill:#261B18;" d="M45.179,31.025c-2.578-1.1-4.932,2.08-3.076,3.736
			c0.373-0.406,2.393-1.057,3.64-0.117C46.8,33.887,46.559,31.616,45.179,31.025z"/>
		<path style="clip-path:url(#SVGID_2_);fill:#947463;" d="M44.11,31.345c1.066-0.331,1.483,1.29,0.595,1.871
			C43.477,34.025,42.91,31.721,44.11,31.345z"/>
		<path style="clip-path:url(#SVGID_2_);fill:#261B18;" d="M24.754,31.234c2.545-1.175,4.989,1.937,3.183,3.644
			c-0.385-0.394-2.422-0.987-3.64-0.01C23.214,34.143,23.392,31.865,24.754,31.234z"/>
		<path style="clip-path:url(#SVGID_2_);fill:#947463;" d="M26.895,31.55c-1.077-0.299-1.445,1.333-0.541,1.888
			C27.605,34.211,28.104,31.892,26.895,31.55z"/>
		<path style="clip-path:url(#SVGID_2_);fill:#261B18;" d="M28.48,27.821c0.732,0.03,1.15,0.439,0.774,1.119
			c-0.298,0.536-1.048,0.425-1.6,0.449c-0.819,0.038-1.636-0.02-2.458-0.003c-1.054,0.021-2.135,0.052-3.163,0.337
			c-0.203,0.057-0.372,0.197-0.594,0.162c-0.012-0.268,0.266-0.57,0.489-0.744c0.665-0.512,1.687-0.899,2.531-1.085
			C25.819,27.755,27.116,27.764,28.48,27.821z"/>
		<path style="clip-path:url(#SVGID_2_);fill:#261B18;" d="M40.864,27.741c-0.716,0.058-1.116,0.467-0.741,1.105
			c0.298,0.506,1.028,0.371,1.563,0.372c0.801,0.003,1.596-0.083,2.396-0.099c1.026-0.022,2.082-0.034,3.085,0.202
			c0.201,0.047,0.366,0.173,0.58,0.132c0.01-0.259-0.264-0.539-0.485-0.696c-0.654-0.466-1.655-0.799-2.479-0.947
			C43.453,27.573,42.191,27.634,40.864,27.741z"/>
		<path style="clip-path:url(#SVGID_2_);fill:#121B21;" d="M49.665,30.679c0,0-1.854,2.484-5.354,0.99
			c-1.544-0.658-2.695,0.823-2.695,0.823s0.672-2.338,3.048-1.908C45.881,30.805,47.165,31.848,49.665,30.679z"/>
		<path style="clip-path:url(#SVGID_2_);fill:#121B21;" d="M20.354,30.993c0,0,1.878,2.463,5.363,0.933
			c1.537-0.676,2.704,0.794,2.704,0.794s-0.697-2.332-3.068-1.875C24.14,31.078,22.866,32.135,20.354,30.993z"/>
		<path style="clip-path:url(#SVGID_2_);fill:#FF3B3B;" d="M44.041,40.566c-2.567,0.606-5.106,0.34-8.989,0.508
			c-3.213,0.141-7.916,1.095-10.47-0.192c4.314,6.337,6.935,7.479,10.233,7.622c4.137,0.179,5.51-2.462,6.108-4.438
			C41.177,43.232,43.237,41.063,44.041,40.566z"/>
		<path style="clip-path:url(#SVGID_2_);fill:#8F2621;" d="M26.544,41.969c0,0,6.884,1.79,15.823-0.393c0,0-1.395,0.596-2.042,2.199
			c-0.592,1.466-2.745,2.506-6.04,2.49C29.145,46.235,26.544,41.969,26.544,41.969z"/>
		<path style="clip-path:url(#SVGID_2_);fill:#FFF9F0;" d="M28.458,42.326c0,0,0.173,1.299,2.009,1.777
			c2.354,0.614,4.884,0.619,7.486,0.204c1.753-0.277,2.59-2.331,2.59-2.331S35.536,43.168,28.458,42.326z"/>
		<path style="clip-path:url(#SVGID_2_);fill:#FFF9F0;" d="M29.346,44.193c-0.186-0.338-0.116-0.883,0.73-0.389
			c1.186,0.695,3.142,0.818,5.493,0.705c2.178-0.104,3.271-0.721,3.705-0.358c0.433,0.364-1.48,2.519-5.237,2.173
			C30.131,45.967,29.346,44.193,29.346,44.193z"/>
		<path style="clip-path:url(#SVGID_2_);fill:#E8DAC5;" d="M28.938,43.238c0,0,8.787-0.818,10.899-0.117c0,0,0.61-0.727,0.706-1.145
			c0,0-6.133,1.145-12.085,0.35C28.458,42.326,28.598,42.928,28.938,43.238z"/>
		<path style="clip-path:url(#SVGID_2_);fill:#E8DAC5;" d="M30.78,44.058c0,0,2.974,1.091,6.934,0.19
			C37.714,44.248,33.957,45.795,30.78,44.058z"/>
		<path style="clip-path:url(#SVGID_2_);fill:#261B18;" d="M25.734,14.496c-0.636,0.159-1.21,0.314-1.711,0.459
			c-4.944,1.437-16.029,5.237-8.929,11.855c2.034,1.895,3.497-0.498,5.25-1.545c2.305-1.376,4.955-2.892,7.538-3.743
			c2.474-0.818,5.938-1.756,8.526-2.044c0.247-0.025,0.563-0.222,0.793-0.316c1.408,1.8,4.071,1.594,6.04,1.221
			c1.507-0.289,1.259-0.302,2.576,0.754c0.821,0.659,2.387,2.257,3.457,2.412c1.816,0.261,2.314-4.548,1.882-5.619
			C48.124,10.443,32.98,12.685,25.734,14.496z"/>
		<path style="clip-path:url(#SVGID_2_);fill:#588A17;" d="M12.368,31.935c2.285-3.449,6.951-7.655,13.622-10.407
			c6.824-2.812,16.563-3.333,17.224-5.788c0.656-2.458-8.23-2.094-13.272-2.581c-13.973-1.351-18.726,5.189-18.79,7.016
			c-0.059,1.657,0.208,5.278-0.109,11.18C10.979,32.536,11.786,32.813,12.368,31.935z"/>
		<path style="clip-path:url(#SVGID_2_);fill:#85B428;" d="M36.672,18.12c-3.351,1.139-6.955,1.065-10.229,2.273
			c-2.653,0.977-9.142,6.092-10.352,1.698c-0.913-3.318,1.618-6.945,4.792-7.835c3.021-0.847,5.812-1.028,8.925-0.783
			c1.365,0.11,10.152,0.472,8.668,3.028c-0.104,0.179-0.27,0.4-0.425,0.541L36.672,18.12z"/>
		<path style="clip-path:url(#SVGID_2_);fill:#DAEF3F;" d="M27.732,16.098c0,0,1.182-0.242,1.644,0.563
			c0.459,0.805-0.713,1.416-0.883,0.592C28.325,16.43,27.732,16.098,27.732,16.098z"/>
		<path style="clip-path:url(#SVGID_2_);fill:#DAEF3F;" d="M21.58,15.492c1.004-0.362,4.786-0.135,5.221,2.668
			s7.444,0.834,3.925-2.017C26.195,12.475,21.58,15.492,21.58,15.492z M27.544,17.426c-0.188-0.026-0.962,0.322-0.678-0.283
			c0.088-0.188,0.877-0.247,0.493-0.6c-0.269-0.249-0.728,0.298-1.021-0.039c-0.282-0.324,0.354-0.289,0.173-0.57
			c-0.16-0.248-1.734,0.399-0.829-0.545c-0.479-0.333-0.956,0.488-1.377,0.009c0.062-0.039,0.126-0.146,0.176-0.18
			c-0.14-0.006-0.278-0.124-0.404-0.158c0.1-0.213,0.292-0.298,0.533-0.262c0.193,0.026,0.316,0.336,0.455,0.323
			c0.28-0.028,0.05-0.239,0.18-0.309c0.656-0.358,0.199,0.043,0.638,0.293c0.063-0.305,0.211-0.613,0.513-0.402
			c0.101,0.069-0.107,0.336,0.064,0.44c0.258,0.153,0.236-0.096,0.343-0.15c0.147-0.071-0.037-0.333,0.287-0.305
			c0.288,0.025,0.111,0.168,0.183,0.268c0.078,0.103-0.225,0.341,0.085,0.396c0.255,0.047,0.159-0.181,0.267-0.242
			c0.271-0.153,0.383-0.482,0.631-0.028c0.154,0.284-0.265,0.693,0.348,0.485c0.208-0.07,0.325-0.699,0.602-0.074
			c0.119,0.266-0.394,0.599,0.253,0.62c0.201,0.007,0.285-0.349,0.522-0.293c0.432,0.102,0.081,0.708,0.035,0.923
			c0.167-0.038,0.508-0.25,0.676-0.154c-0.031,0.106-0.129,0.201-0.153,0.312c-0.081,0.372-0.423,0.227,0.021,0.418
			c0.097,0.043,0.907-0.161,0.67,0.293c-0.204,0.384-1.191-0.51-1.172,0.226c0.005,0.164,0.596,0.521,0.33,0.744
			c-0.19,0.162-0.393-0.303-0.525-0.379c-0.853-0.491-0.508,0.516-0.653,0.963c-0.741,0.005-0.194-0.733-0.63-0.966
			c-0.487-0.257-0.573,0.569-0.995,0.449c-0.793-0.226,0.512-0.884,0.214-1.14C27.751,17.472,27.672,17.444,27.544,17.426z"/>
		<path style="clip-path:url(#SVGID_2_);fill:#588A17;" d="M51.402,25.048c-1.265-1.782-6.377-6.225-12.656-7.133
			c-6.278-0.909-2.183-3.886,2.125-3.638c4.306,0.25,10.715,1.712,11.409,3.087c0.696,1.375,0.144,5.437,0.469,7.128
			C52.888,25.214,52.061,25.975,51.402,25.048z"/>
		<path style="clip-path:url(#SVGID_2_);fill:#82C126;" d="M50.541,23.644c-0.09-0.093-0.168-0.195-0.232-0.312
			c-0.325-0.585-0.159-1.274-0.585-1.878c-0.497-0.704-1.065-2.42-1.065-2.42c0.509-0.423,2.729-2.9,3.484-1.73
			c-0.322-0.018-0.809-0.175-0.786,0.275c0.009,0.187,0.784,0.676,0.278,0.758c-0.289,0.044-0.686-0.791-0.909-0.348
			c-0.194,0.39,0.506,0.464,0.547,0.762c0.09,0.639-0.47,0.061-0.635-0.006c-0.271-0.11-0.891-0.361-0.57,0.25
			c0.079,0.15,1.157,0.487,0.642,0.696c-0.353,0.142-0.686-0.556-1.063-0.249c-0.418,0.344,0.253,0.766,0.609,0.819
			c0.191,0.026,0.872-0.316,0.782,0.185c-0.073,0.416-0.664,0.035-0.849,0.275c-0.563,0.742,1.461,0.163,1.31,0.874
			c-0.111,0.528-0.692-0.048-0.968,0.129c-0.455,0.29,0.113,0.777,0.466,0.882c0.259,0.075,0.945-0.183,0.873,0.375
			c-0.067,0.524-0.74-0.084-1.012,0.141c-0.313,0.259,0.66,1.208,0.9,1.381C51.363,24.218,50.879,23.998,50.541,23.644z"/>
		<path style="opacity:0.3;clip-path:url(#SVGID_2_);fill:#004022;" d="M44.089,18.775c1.382,0.593,3.441,2.841,4.895,2.851
			c1.312,0.01-0.738-1.204-0.676-1.831c0.117-1.221,3.018-0.433,3.391-1.771c0.535-1.927-5.586-2.287-6.748-2.342
			c-1.902-0.089-3.344,0.821-2.097,2.614L44.089,18.775z"/>
		<path style="opacity:0.3;clip-path:url(#SVGID_2_);fill:#004022;" d="M37.022,18.051c-0.573,0.08-1.241-0.005-1.725,0.006
			c-1.468,0.035-2.889,0.174-4.341,0.387c-0.867,0.129-2.557,0.552-3.385,0.06c-1.151-0.687,0.543-1.213,1.016-1.915
			c0.169-0.25-2.734-0.721-2.944-0.745c-0.572-0.074-1.897-0.153-2.34-0.504c-1.355-1.08,2.307-1.188,2.87-1.246
			c1.797-0.186,3.613-0.186,5.418-0.07c1.194,0.076,8.802,1.224,6.298,3.666C37.671,17.902,37.363,18.004,37.022,18.051z"/>
		<path style="clip-path:url(#SVGID_2_);fill:#85B428;" d="M39.836,12.911c-2.071-2.217-2.026-4.207-5.294-5.32
			c-3.118-1.062-6.473,0.272-9.687-0.042c2.373,6.789,6.335,10.322,13.454,8.362c1.023-0.283,2.012-0.576,3.058-0.761L39.836,12.911
			z"/>
		<path style="clip-path:url(#SVGID_2_);fill:#579418;" d="M37.838,13.811c-0.271-1.922-2.628-3.638-4.606-3.86
			c0.639,0.875,2.07,1.943,2.186,3.015c-0.734,0.136-2.216-0.902-2.941-1.173c-1.03-0.385-2.034-0.809-3.024-1.273
			c0.836,3.276,4.544,5.815,8.203,5.486c0.581-0.053,1.435-0.158,1.778-0.637L37.838,13.811z"/>
		<path style="clip-path:url(#SVGID_2_);fill:#85B428;" d="M47.661,10.007c1.808-0.53,5.872,1.06,7.689,1.071
			c-1.218,3.48-4.056,6.92-7.401,7.702c-2.829,0.662-4.778-2.126-7.521-2.786C40.428,15.994,42.228,11.601,47.661,10.007z"/>
		<path style="clip-path:url(#SVGID_2_);fill:#579418;" d="M44.911,14.819c2.057-0.341,3.66-1.871,5.755-2.186
			c-0.523,1.602-2.058,1.893-2.852,3.12c0.437,0.179,0.957,0.126,1.348,0.368c-1.523,1.181-7.16,2.01-5.848-1.216L44.911,14.819z"/>
		<path style="clip-path:url(#SVGID_2_);fill:#85B428;" d="M46.136,15.433c-0.434,2.016-1.584,4.684-4.109,4.489
			c-2.025-0.155-4.741-0.846-4.844-3.087c-0.047-1.054,0.369-4.292,1.116-5.135c1.059-1.192,4.09-0.07,5.361,0.298
			C45.476,12.524,46.536,13.559,46.136,15.433z"/>
		<path style="clip-path:url(#SVGID_2_);fill:#BBE351;" d="M39.366,12.011c1.176-0.567,2.438-0.081,3.666,0.028
			c0,0,1.167,0.32,1.169,0.32c1.659,0.457,2.204,3.003,1.311,4.255c0.003,0.015-0.094-0.021-0.087-0.024
			c0.062-0.729,0.706-1.843-0.064-2.338c-0.106,0.111-0.461,1.814-0.831,1.089c-0.354-0.695,0.681-1.351-0.268-1.998
			c-0.329,0.354-0.045,2.251-0.933,1.872c-0.826-0.355,0.492-1.695-0.434-2.214c-0.166,0.366-0.481,3.366-1.382,2.59
			c-0.336-0.292,0.896-3.227-0.169-2.73c-0.551,0.259-0.699,3.165-1.242,0.804c-0.079-0.347-0.101-0.712-0.16-1.062
			c0.04-0.012-0.357,0.056-0.302,0.056c0.232,1.043-0.482,1.751-0.736,0.4c-0.285,0.364-0.409,0.827-0.686,1.164
			C38.706,13.296,38.25,12.548,39.366,12.011z"/>
		<path style="clip-path:url(#SVGID_2_);fill:#BBE351;" d="M37.571,10.878c-0.9-1.687-1.466-2.671-3.448-3.153
			c-2.014-0.49-4.001-0.015-6.046,0.106c-0.841,0.051-1.779-0.071-2.563,0.243c0.329,0.901,0.736,1.938,1.422,2.643
			c0.398-0.722-0.893-1.471-0.841-1.607c0.27-0.711,0.858-0.076,1.353,0.132c-0.238-0.292-0.183-0.54-0.234-0.869
			c0.486,0.191,0.771,0.539,1.281,0.554c-0.188-0.462-0.129-0.712,0.337-0.733c0.377-0.018,0.537,0.671,1.024,0.67
			c0.156,0-0.13-0.674,0.381-0.708c0.457-0.029,0.207,0.789,0.844,0.622c0.11-0.029,0.238-0.811,0.265-0.965
			c0.695,0.325,0.087,1.015,1.026,1.179c0.014-0.007,0.027-0.014,0.044-0.021c-0.101-0.377-0.012-0.675,0.195-0.975
			C33.1,8.28,32.819,8.871,33,9.028c0.935,0.809,0.4-0.207,0.699-0.36c0.436-0.221,0.212-0.708,0.842-0.018
			c0.271,0.297-0.658,0.879,0.294,0.969c-0.001-0.292,0.251-0.606,0.29-0.853c0.978,0.254,0.076,0.85,0.479,1.227
			c0.487,0.457,0.562-0.115,0.476-0.507c0.147,0.033,1.75,2.071,1.818,2.251C37.898,11.738,37.571,10.878,37.571,10.878z"/>
		<path style="clip-path:url(#SVGID_2_);fill:#BBE351;" d="M44.642,11.985c1.214-0.829,1.974-1.629,3.508-1.61
			c1.545,0.021,3.008,0.64,4.529,0.833c0.678,0.087,1.315,0.063,1.984,0.257c-0.115,1.255-1.227,2.298-1.962,3.264
			c0.056-0.516-0.01-1.135,0.26-1.566c-0.02,0.031,1.189-1.021,0.977-0.981c-0.223,0.043-0.852,0.569-0.882,0.56
			c-1.004-0.263,0.252-0.651-0.071-0.861c-0.645-0.416-1.372,0.479-2.101,0.243c0.348-0.484,0.247-0.852-0.356-0.871
			c-0.433-0.013-0.862,0.91-1.354,0.727c-0.805-0.301,0.268-0.859,0.071-1.056c-0.695-0.691-1.084,1.171-1.984,0.829
			c0.337-0.251,0.351-0.541,0.472-0.858c-0.702-0.013-1.094,0.584-1.676,0.82C45.676,11.869,44.921,11.795,44.642,11.985z"/>
		<path style="clip-path:url(#SVGID_2_);fill:#579418;" d="M45.223,17.306c-0.802,2.224-4.717,0.667-6.177-0.15
			c-0.579-0.326-1.104-0.669-1.401-1.253c-0.868,3.249,4.938,4.83,7.036,2.619c0.454-0.478,0.728-1.029,0.886-1.652L45.223,17.306z"
			/>
		<path style="clip-path:url(#SVGID_2_);fill:#DAEF3F;" d="M21.989,22.992c0.13-0.23,0.315-0.761,0.574-0.873
			c0.239-0.101,0.563,0.139,0.776,0.018c1.095-0.615-0.274-0.489-0.431-0.622c-0.704-0.599,0.407-0.631,0.796-0.701
			c0.813-0.146,0.885-0.244,0.208-0.683c-0.159-0.103-0.727,0.162-0.623-0.285c0.09-0.376,0.644-0.13,0.89-0.193
			c0.866-0.222,1.221-1.454,0.17-1.146c-0.578,0.17-0.552,1.292-1.078,0.125c-0.094-0.209,0.314-0.697-0.298-0.786
			c-0.525-0.076-0.312,0.579-0.697,0.673c-1.213,0.297,0.185-1.459-0.705-1.431c-0.523,0.019-1.28,1.88-1.304,0.166
			c-0.004-0.173,0.225-0.427,0.347-0.541c-0.915-0.805-0.739,0.409-1.393,0.466c-0.791,0.069-0.53-0.68-0.241-1.01
			c-0.671-0.813-1.767,1.516-1.848-0.133c0-0.029,0.449-0.829-0.015-0.751c1.339-0.228,4.04,1.247,5.301,1.767
			c1.221,0.504,2.464,1.018,3.675,1.517c-0.44,0.687-0.952,1.481-1.414,2.204C23.857,22.058,23.526,22.504,21.989,22.992z"/>
		<path style="clip-path:url(#SVGID_2_);fill:#DAEF3F;" d="M20.408,21.43c0,0-0.754-1.285-1.973-1.024
			c-1.217,0.261-0.857,1.846,0.133,1.306C19.562,21.171,20.408,21.43,20.408,21.43z"/>
		<path style="clip-path:url(#SVGID_2_);fill:#DAEF3F;" d="M38.578,14.962c0,0-0.643,1.221,0.27,1.879
			c0.915,0.658,2.032-0.473,1.015-0.822C38.846,15.668,38.578,14.962,38.578,14.962z"/>
		<path style="clip-path:url(#SVGID_2_);fill:#DAEF3F;" d="M43.168,17.289c0,0,1.13,0.326,1.636-0.419
			c0.506-0.742-0.582-1.425-0.809-0.643C43.77,17.01,43.168,17.289,43.168,17.289z"/>
		<path style="clip-path:url(#SVGID_2_);fill:#DAEF3F;" d="M31.785,10.37c0,0-0.497-1.012-1.436-0.877
			c-0.94,0.134-0.76,1.354,0.024,0.996C31.157,10.129,31.785,10.37,31.785,10.37z"/>
		<path style="clip-path:url(#SVGID_2_);fill:#DAEF3F;" d="M49.841,15.995c0,0,0.941,0.156,1.269-0.488
			c0.328-0.646-0.617-1.093-0.716-0.443C50.295,15.716,49.841,15.995,49.841,15.995z"/>
		<path style="clip-path:url(#SVGID_2_);fill:#8CCE29;" d="M12.37,21.259c0,0,1.644,0.503,2.403-0.571
			c0.762-1.075-0.812-2.101-1.163-0.961C13.256,20.868,12.37,21.259,12.37,21.259z"/>
		<path style="clip-path:url(#SVGID_2_);fill:#8CCE29;" d="M13.996,24.358c0,0-1.099,0.845-0.632,1.825
			c0.465,0.98,1.924,0.415,1.229-0.328C13.899,25.112,13.996,24.358,13.996,24.358z"/>
		<path style="clip-path:url(#SVGID_2_);fill:#DAEF3F;" d="M32.406,14.523l-1.739-1.649c0,0-0.778,0.924,0.078,1.426
			C31.602,14.802,32.406,14.523,32.406,14.523z"/>
		<path style="clip-path:url(#SVGID_2_);fill:#DAEF3F;" d="M46.864,13.98l2.084-0.943c0,0-0.636-0.931-1.368-0.371
			C46.849,13.226,46.864,13.98,46.864,13.98z"/>
		<path style="clip-path:url(#SVGID_2_);fill:#BBE351;" d="M24.94,13.486c0,0-7.94,0.041-11.934,4.395c0,0,0.188,0.992,2.105-0.445
			C17.029,16.003,20.479,14.32,24.94,13.486z"/>
	</g>
</g>
<g id="Layer_1">
</g>
</svg>
