<?xml version="1.0" encoding="iso-8859-1"?>
<!-- Generator: Adobe Illustrator 16.0.0, SVG Export Plug-In . SVG Version: 6.00 Build 0)  -->
<!DOCTYPE svg PUBLIC "-//W3C//DTD SVG 1.1//EN" "http://www.w3.org/Graphics/SVG/1.1/DTD/svg11.dtd">
<svg version="1.1" xmlns="http://www.w3.org/2000/svg" xmlns:xlink="http://www.w3.org/1999/xlink" x="0px" y="0px"
	 width="66.006px" height="66px" viewBox="0 0 66.006 66" style="enable-background:new 0 0 66.006 66;" xml:space="preserve">
<g id="Layer_51">
	<g>
		<defs>
			<circle id="SVGID_1_" cx="33.006" cy="33" r="33"/>
		</defs>
		<clipPath id="SVGID_2_">
			<use xlink:href="#SVGID_1_"  style="overflow:visible;"/>
		</clipPath>
		<rect style="clip-path:url(#SVGID_2_);fill:#ED9335;" width="66" height="65.999"/>
		<path style="clip-path:url(#SVGID_2_);fill:#FFCB9E;" d="M28.336,58.824c0.822-0.546,1.046-1.654,0.5-2.477
			c-0.545-0.82-1.653-1.044-2.477-0.5c-5.918,3.929-7.121,7.683-7.08,10.151h3.575c-0.001-0.014-0.005-0.026-0.005-0.04
			C22.805,63.768,24.805,61.167,28.336,58.824z"/>
		<path style="clip-path:url(#SVGID_2_);fill:#FFCB9E;" d="M43.122,55.848c-0.822-0.544-1.931-0.32-2.476,0.5
			c-0.545,0.822-0.321,1.931,0.501,2.477c3.531,2.343,5.529,4.943,5.485,7.135c0,0.014-0.004,0.026-0.005,0.04h3.576
			C50.243,63.53,49.041,59.776,43.122,55.848z"/>
		<path style="clip-path:url(#SVGID_2_);fill:#FFCB9E;" d="M39.382,53.06c-0.186-2.928-2.798-4.044-4.652-4.04
			c-1.854-0.004-4.466,1.112-4.651,4.04c-0.088,1.363-5.018,2.892-4.854,3.898c0.809,4.912,2.939,6.743,9.505,6.771
			c6.563-0.028,8.281-0.885,9.09-7.089C43.951,55.629,39.469,54.423,39.382,53.06z"/>
		<path style="clip-path:url(#SVGID_2_);fill:#F1AA83;" d="M34.591,47.729c-2.114,0.031-5.075,1.091-5.243,3.741
			c-0.078,1.235,1.053,4.556,5.382,4.546c4.327-0.061,5.347-3.492,5.226-4.723C39.7,48.647,36.703,47.689,34.591,47.729z"/>
		<path style="clip-path:url(#SVGID_2_);fill:#E0E0E0;" d="M42.801,61.218c-3.09-0.727-1.195-6.582-1.565-6.774
			c-0.294-0.153-0.658-0.27-1.059-0.285c-0.628-0.021,0.178,6.117-5.506,6.129c-5.427,0.013-4.596-6.232-5.259-6.076
			c-0.404,0.096-0.789,0.156-1.088,0.321c-0.334,0.187,1.896,5.856-1.688,6.726c0.01,1.573,0.094,3.199,0.178,4.741h15.811
			C42.716,64.445,42.799,62.806,42.801,61.218z"/>
		<path style="clip-path:url(#SVGID_2_);fill:#C4BAB1;" d="M42.91,60.755c-0.479-0.113-0.832-0.369-1.077-0.782
			c-0.576-0.974-0.547-2.828,0.079-5.088l-0.438-0.203l-0.479-0.052c-0.408,1.475-0.949,4.192,0.02,5.828
			c0.379,0.639,0.943,1.051,1.679,1.224c0.036,0.008,0.073,0.013,0.108,0.013c0.217,0,0.412-0.147,0.464-0.367
			C43.325,61.071,43.166,60.814,42.91,60.755z"/>
		<path style="clip-path:url(#SVGID_2_);fill:#C4BAB1;" d="M27.896,54.259c-0.252,0.066-0.413,0.286-0.35,0.539
			c0.002,0.004,0.022,0.083,0.023,0.087c0.627,2.26,0.656,4.114,0.079,5.088c-0.245,0.413-0.597,0.669-1.077,0.782
			c-0.256,0.06-0.414,0.316-0.354,0.572c0.051,0.22,0.246,0.367,0.463,0.367c0.036,0,0.072-0.005,0.109-0.013
			c0.734-0.173,1.299-0.585,1.678-1.224c0.969-1.636,0.428-4.354,0.02-5.828C28.418,54.378,28.149,54.196,27.896,54.259z"/>
		<path style="clip-path:url(#SVGID_2_);fill:#C4BAB1;" d="M40.182,53.683c-0.001,0-0.003,0-0.005,0c-0.26,0-0.473,0.21-0.477,0.472
			c-0.002,0.23-0.11,5.646-5.029,5.656c-0.005,0-0.01,0-0.016,0c-4.412,0-4.745-4.673-4.767-5.61
			c-0.006-0.259-0.218-0.465-0.477-0.465c-0.004,0-0.007,0-0.012,0c-0.262,0.006-0.471,0.224-0.465,0.487
			c0.016,0.67,0.311,6.541,5.718,6.541c0.008,0,0.013,0,0.02,0c5.849-0.014,5.979-6.332,5.98-6.601
			C40.656,53.9,40.445,53.685,40.182,53.683z"/>
		<path style="clip-path:url(#SVGID_2_);fill:#4F3023;" d="M45.155,9.487c-8.129-2.088-21.965-1.109-26.892,5.585
			c-1.39,1.89-2.156,4.212-1.684,6.524c0.505,2.463,2.205,4.149,4.932,3.464c1.418-0.355,2.321-0.186,3.705,0.34
			c1.457,0.552,2.799,1.393,4.299,1.821c2.568,0.733,5.328,0.42,7.855,1.283c2.428,0.828,4.563,1.097,7.149,0.325
			c2.268-0.677,4.799-1.043,5.173-3.75c0.551,0.702,0.519,1.743,0.364,2.576c1.522-0.912,2.773-2.76,3.09-3.612
			c1.101-2.972,0.896-5.937-0.293-8.436C51.462,12.69,48.727,10.405,45.155,9.487z"/>
		<path style="clip-path:url(#SVGID_2_);fill:#FFCB9E;" d="M31.109,15.178c-7.837,1.527-13.358,12.795-11.92,23.364
			c1.078,7.917,7.185,16.603,16.382,15.949c9.383-0.669,14.054-12.309,12.841-22.044C47.096,21.862,42.082,13.038,31.109,15.178z"/>
		<path style="opacity:0.3;clip-path:url(#SVGID_2_);fill:#BF3C1B;" d="M41.438,17.1c-3.031-0.881-6.163-1.368-9.328-1.423
			c-2.809-0.048-5.859-0.2-8.477,0.95c-1.438,0.632-3.205,1.498-3.742,3.044c-0.441,1.267-0.963,2.943-0.258,4.053
			c1.496,2.353,4.423,0.945,5.529,0.371c2.404-1.246,13.332-0.396,18.43-0.404c2.12-0.005,5.179-0.373,4.302-3.232
			C47.199,18.199,43.438,17.682,41.438,17.1z"/>
		<path style="clip-path:url(#SVGID_2_);fill:#FFCB9E;" d="M16.455,34.139c-3.848,1.061-2.303,6.678,0.839,7.805
			c1.007,0.362,2.079,0.411,3.108,0.338c0.02-0.032,0.041-0.062,0.063-0.095c0.46-0.73-0.184-4.825-0.42-5.597
			C19.453,34.648,18.303,33.631,16.455,34.139z"/>
		<path style="opacity:0.3;clip-path:url(#SVGID_2_);fill:#C94614;" d="M17.806,36.207c-0.864-0.398-3.022,0.319-2.007,2.01
			c0.533-1.566,1.488-0.539,1.342,0.573c-0.098,0.748-0.899,0.758-0.103,1.718c0.432,0.519,1.306,0.326,1.747,0.049
			C20.186,39.674,18.861,36.693,17.806,36.207z"/>
		<path style="clip-path:url(#SVGID_2_);fill:#4F3023;" d="M45.435,13.175c-0.545-0.527-1.197-0.958-1.913-1.304
			c-1.813-0.878-4.034-1.21-5.92-1.199c-1.578,0.008-3.136-0.331-4.729-0.321c-1.743,0.011-3.482,0.209-5.198,0.497
			c-2.004,0.336-4.134,0.827-5.926,1.8c-1.562,0.848-2.183,2.841-2.903,4.353c-0.324,0.683-0.283,1.615-0.326,2.349
			c-0.076,1.287-0.113,2.658-0.051,3.944c0.108,2.313,3.219,2.668,4.529,1.011c1.121-1.417,2.695-1.784,4.49-1.849
			c2.974-0.109,14.617-0.659,17.351,0.277c1.499,0.514,3.492,1.292,3.791-1.094c0.164-1.302-0.358-2.997-0.791-4.235
			C47.31,15.888,46.617,14.323,45.435,13.175z"/>
		<path style="clip-path:url(#SVGID_2_);fill:#693A27;" d="M47.476,12.076C43.567,9.858,38.338,9.729,34,9.94
			c-3.707,0.182-7.061,1.168-10.436,2.789c-3.484,1.675-4.541,5.404-4.028,7.257c1.351-1.984,5.149-3.918,6.892-4.102
			c-0.18,0.901-1.839,2.686-2.176,3.532c1.401-0.804,8.232-3.854,10.015-3.832c-0.596,0.674-1.94,1.541-1.848,2.533
			c2.954-0.487,6.139-2.173,9.186-1.957c-0.938,0.898-2.428,1.101-3.208,2.225c2.938,0.027,6.188-0.393,9.235-0.421
			c-1.006,0.554-1.938,0.808-2.799,1.604c2.421,0.075,5.365-0.181,7.679,0.521C52.231,16.747,50.484,13.783,47.476,12.076z"/>
		<path style="clip-path:url(#SVGID_2_);fill:#BF795C;" d="M17.658,23.974c-1.074,1.719-0.648,9.352-0.393,10.037
			c1.836,0.216,4.1,2.692,4.1,2.692c-0.637-4.462,0.059-6.856,0.941-11.794C20.58,24.888,19.371,24.363,17.658,23.974z"/>
		<path style="clip-path:url(#SVGID_2_);fill:#FF8E69;" d="M47.238,36.838c-0.711-0.861-2.145-0.932-3.164-0.861
			c-1.331,0.094-3.076,0.688-1.802,2.402c0.678,0.912,6.008,1.207,5.282-0.964C47.479,37.192,47.371,37.001,47.238,36.838z"/>
		<path style="clip-path:url(#SVGID_2_);fill:#FF8E69;" d="M28.031,36.94c-0.85-0.792-2.253-0.668-3.229-0.455
			c-1.272,0.278-2.854,1.131-1.3,2.722c0.828,0.848,6.054,0.422,4.945-1.715C28.332,37.271,28.191,37.09,28.031,36.94z"/>
		<path style="opacity:0.3;clip-path:url(#SVGID_2_);fill:#B54D26;" d="M43.198,46.676c0.306-1.158,1.401-1.782,2.291-1.447
			C44.304,43.232,41.98,44.637,43.198,46.676z"/>
		<path style="opacity:0.3;clip-path:url(#SVGID_2_);fill:#B54D26;" d="M25.912,47.422c0.856-0.414,2.002,0.108,2.414,1.233
			C29.352,46.514,26.911,45.325,25.912,47.422z"/>
		<path style="opacity:0.5;clip-path:url(#SVGID_2_);fill:#94110C;" d="M44.2,44.696c-0.758-2.297-3.428-3.765-6.966-3.832
			c-3.935-0.072-8.578,1.666-10.095,5.724c-0.11,0.301,0.04,0.635,0.341,0.746c0.066,0.025,0.135,0.037,0.202,0.037
			c0.235,0,0.456-0.145,0.544-0.377c1.283-3.437,5.402-4.974,8.775-4.974c0.07,0,0.141,0.001,0.209,0.002
			c2.987,0.059,5.299,1.25,5.889,3.038c0.103,0.304,0.43,0.467,0.733,0.368C44.137,45.327,44.303,45,44.2,44.696z"/>
		<path style="opacity:0.3;clip-path:url(#SVGID_2_);fill:#B54D26;" d="M22.51,33.952c0.229,0.614,1.609,0.074,2.079,0.104
			c-0.271,0.447-1.417,0.635-1.811,0.973c-0.419,0.36-0.308,0.54,0.281,0.427c0.354-0.064,2.214-0.84,2.409-1.091
			C26.289,33.306,22.975,33.739,22.51,33.952z"/>
		<path style="clip-path:url(#SVGID_2_);fill:#224245;" d="M25.285,32.062c-1.639,0.659-1.563,2.046-0.359,2.611
			c0.881-0.158,1.893-0.127,2.68,0.063C31.023,33.891,28.348,30.831,25.285,32.062z"/>
		<path style="opacity:0.7;clip-path:url(#SVGID_2_);fill:#D4E6DD;" d="M27.158,32.284c-0.863,0.017-1.164,0.823-0.439,0.949
			C27.721,33.409,28.129,32.267,27.158,32.284z"/>
		<path style="clip-path:url(#SVGID_2_);fill:#2B221C;" d="M27.352,26.67c-2.763-1.03-3.963-0.282-4.707,0.213
			c-0.197,0.132,0.497,0.51,1.105,0.59c1.656,0.214,3.458,1.106,5.223,2.768c1.121,1.057,1.99-1.123,1.472-2.19
			C30.42,27.986,29.27,27.386,27.352,26.67z"/>
		<path style="opacity:0.3;clip-path:url(#SVGID_2_);fill:#B54D26;" d="M46.299,32.979c0.386-0.074,1.57,0.316,1.709-0.305
			c-0.402-0.162-3.175-0.259-2.408,0.693c0.181,0.226,1.78,0.799,2.078,0.828c0.497,0.051,0.572-0.135,0.196-0.444
			C47.522,33.46,46.562,33.39,46.299,32.979z"/>
		<path style="clip-path:url(#SVGID_2_);fill:#224245;" d="M45.558,31.103c-2.63-0.897-4.583,2.351-1.691,2.84
			c0.633-0.264,1.465-0.394,2.206-0.326C47.019,32.945,46.966,31.585,45.558,31.103z"/>
		<path style="opacity:0.7;clip-path:url(#SVGID_2_);fill:#D4E6DD;" d="M45.097,31.487c-0.802,0.078-0.369,1.153,0.443,0.883
			C46.127,32.175,45.813,31.419,45.097,31.487z"/>
		<path style="clip-path:url(#SVGID_2_);fill:#2B221C;" d="M43.195,26.624c-1.503,0.851-2.391,1.527-2.405,1.592
			c-0.348,1.085,0.503,3.147,1.338,2.026c1.313-1.763,2.709-2.776,4.03-3.115c0.487-0.126,1.023-0.55,0.854-0.663
			C46.377,26.039,45.355,25.4,43.195,26.624z"/>
		<path style="opacity:0.3;clip-path:url(#SVGID_2_);fill:#B54D26;" d="M32.235,45.004c0,0,2.512-1.433,6.557-1.408
			C38.588,42.17,33.673,42.605,32.235,45.004z"/>
		<path style="opacity:0.3;clip-path:url(#SVGID_2_);fill:#B54D26;" d="M36.141,37.344c-1.18,0.016-1.646-0.522-2.473-0.031
			c-0.824,0.489,0.354,2.063,2.444,1.987c2.08-0.074,2.983-1.503,2.551-2.036C38.16,36.646,37.45,37.331,36.141,37.344z"/>
		<path style="clip-path:url(#SVGID_2_);fill:#FFDFC2;" d="M35.833,32.91c-2.218-0.191-2.385,4.494-1.879,4.896
			c1.243,0.981,3.841,0.286,4.599-0.503C38.85,36.992,37.948,33.095,35.833,32.91z"/>
	</g>
</g>
<g id="Layer_1">
</g>
</svg>
