<?xml version="1.0" encoding="iso-8859-1"?>
<!-- Generator: Adobe Illustrator 16.0.0, SVG Export Plug-In . SVG Version: 6.00 Build 0)  -->
<!DOCTYPE svg PUBLIC "-//W3C//DTD SVG 1.1//EN" "http://www.w3.org/Graphics/SVG/1.1/DTD/svg11.dtd">
<svg version="1.1" xmlns="http://www.w3.org/2000/svg" xmlns:xlink="http://www.w3.org/1999/xlink" x="0px" y="0px"
	 width="66.002px" height="66px" viewBox="0 0 66.002 66" style="enable-background:new 0 0 66.002 66;" xml:space="preserve">
<g id="Layer_73">
	<g>
		<defs>
			<circle id="SVGID_1_" cx="33.002" cy="33" r="33"/>
		</defs>
		<clipPath id="SVGID_2_">
			<use xlink:href="#SVGID_1_"  style="overflow:visible;"/>
		</clipPath>
		<rect style="clip-path:url(#SVGID_2_);fill:#FFFFFF;" width="66" height="65.998"/>
		<path style="clip-path:url(#SVGID_2_);fill:#E83133;" d="M29.205,57.187l-1.198-3.548c-3.99,1.193-5.948,4.739-6.825,12.359h5.756
			C27.584,62.55,28.558,57.516,29.205,57.187z"/>
		<path style="clip-path:url(#SVGID_2_);fill:#E83133;" d="M42.215,53.639l-1.199,3.548c0.648,0.329,1.621,5.363,2.269,8.812h5.756
			C48.163,58.378,46.205,54.832,42.215,53.639z"/>
		<path style="clip-path:url(#SVGID_2_);fill:#E0E0E0;" d="M41.367,53.683c-3.159-1.101-9.184-1.521-12.92,0.15
			c-1.925,0.861-1.65,6.809-1.29,12.165H42.98C43.151,60.533,43.306,54.358,41.367,53.683z"/>
		<path style="clip-path:url(#SVGID_2_);fill:#FFF9F0;" d="M28.841,53.515c0.292,4.077,6.125,5.815,6.125,5.815
			s6.606-2.6,5.615-6.546C39.509,48.518,28.518,49.003,28.841,53.515z"/>
		<path style="clip-path:url(#SVGID_2_);fill:#F29F63;" d="M34.716,48.462c-1.916,0.027-4.599,1.154-4.743,3.997
			c-0.067,1.321,0.149,2.085,0.869,2.806c1.152,1.152,2.57,2.079,4.022,2.082c1.452-0.053,2.838-1.026,3.95-2.216
			c0.696-0.745,0.888-1.514,0.775-2.834C39.351,49.462,36.632,48.425,34.716,48.462z"/>
		<path style="clip-path:url(#SVGID_2_);fill:#E83133;" d="M40.872,52.914c0,0-0.071,3.454-2.08,5.346
			c0.251,1.554,0.396,4.508,0.498,7.738h4.77c-0.278-4.612-0.791-9.641-1.788-12.33C41.916,53.404,40.872,52.914,40.872,52.914z"/>
		<path style="clip-path:url(#SVGID_2_);fill:#3A3A4A;" d="M40.754,51.398c-1.952,0.9-0.222,2.171-2.414,4.043
			c-0.079,1.076,0.543,3.493,0.543,3.493s2.765-2.203,3.007-5.504C41.983,52.143,41.183,51.202,40.754,51.398z"/>
		<path style="clip-path:url(#SVGID_2_);fill:#E83133;" d="M31.106,58.39c-2.071-1.824-2.258-5.273-2.258-5.273
			s-1.026,0.525-1.374,0.8c-0.886,2.663-1.234,7.546-1.365,12.082h4.944C31.093,62.857,31.125,59.983,31.106,58.39z"/>
		<path style="clip-path:url(#SVGID_2_);fill:#3A3A4A;" d="M28.713,51.756c-0.463-0.094-0.721,1.46-0.706,2.081
			c0.072,2.94,3.167,5.18,3.167,5.18s0.405-2.387,0.289-3.459C29.335,54.07,30.951,52.204,28.713,51.756z"/>
		<path style="clip-path:url(#SVGID_2_);fill:#3D2216;" d="M51.346,45.357c0.002,0.001,0.004,0.002,0.006,0.002
			c-0.002-0.004-0.003-0.007-0.004-0.011C51.31,45.312,51.309,45.313,51.346,45.357z"/>
		<path style="clip-path:url(#SVGID_2_);fill:#3D2216;" d="M51.519,38.351c0.345-4.816,3.506-11.545-0.408-16.642
			c-6.038-7.858-17.121-7.614-21.638-6.856C23,15.938,15.872,19.096,13.716,26.206c-1.322,4.364-1.194,8.221-0.049,11.974
			c1.092,3.585,1.335,5.186-0.773,8.274c1.408-0.02,2.801,0.084,4.074-0.445c0.088,2.365-0.167,4.46-1.306,6.457
			c2.297-0.028,3.258-0.604,5.276-1.41c0.197,0.842-1.074,3.207-0.66,3.971c1.223-0.692,2.52-2.152,3.554-3.057
			c0.261,0.545,0.706,1.192,0.999,1.586c1.816-3.363,3.048-7.308,6.685-9.387c2.71-1.551,5.378-1.448,8.161,0.004
			c3.925,2.046,3.882,6.742,8.127,8.695c0.268-1.187,0.413-2.477,0.348-3.744c1.13,1.202,2.6,2.422,4.184,2.898
			c-0.1-2.466,0.022-4.358-0.983-6.663c-0.002,0-0.004-0.001-0.006-0.002c-0.037-0.044-0.036-0.046,0.002-0.009
			c0.001,0.004,0.002,0.007,0.004,0.011c0.967,0.3,1.935,0.734,2.949,0.93C53.429,43.91,51.322,41.089,51.519,38.351z"/>
		<path style="clip-path:url(#SVGID_2_);fill:#FFBC82;" d="M32.065,15.33c-7.776,1.517-13.255,12.696-11.827,23.188
			c1.069,7.855,7.13,16.474,16.257,15.825c9.313-0.662,13.947-12.213,12.743-21.874C47.93,21.964,42.955,13.207,32.065,15.33z"/>
		<path style="opacity:0.2;clip-path:url(#SVGID_2_);fill:#A61900;" d="M42.085,16.984c-3.063-0.918-6.229-1.426-9.429-1.481
			c-2.84-0.052-5.924-0.21-8.569,0.987c-1.454,0.659-3.239,1.562-3.784,3.171c-0.675,2.001-0.352,4.523-0.022,6.569
			c0.361,2.239,0.906,4.53,2.099,6.489c0.103-1.536,0.803-3.136,1.751-4.314c0.772-0.962,1.885-2.717,3.203-2.931
			c-0.392,2.101-1.781,4.126-3.103,5.762c1.245,0.141,2.768-0.868,3.907-1.294c0.904-0.335,1.821-0.787,2.714-1.262
			c0.584-0.311,1.157-0.633,1.709-0.938c0.012,0.466-0.155,0.916-0.172,1.376c2.091,0.188,4.596-1.117,6.344-2.167
			c2.033-1.22,4.477-2.009,6.856-1.516c1.798,0.375,3.433,1.32,4.043-1.042c0.35-1.357,0.295-2.746-0.553-3.891
			C47.503,18.375,44.482,17.701,42.085,16.984z"/>
		<path style="clip-path:url(#SVGID_2_);fill:#FFBC82;" d="M17.525,34.147c-3.819,1.051-2.286,6.625,0.833,7.745
			c0.999,0.358,2.061,0.407,3.084,0.336c0.02-0.032,0.04-0.062,0.061-0.095c0.457-0.727-0.182-4.789-0.416-5.554
			C20.499,34.652,19.357,33.644,17.525,34.147z"/>
		<path style="opacity:0.5;clip-path:url(#SVGID_2_);fill:#B54319;" d="M18.865,36.199c-0.858-0.394-2.999,0.316-1.993,1.995
			c0.531-1.556,1.479-0.536,1.333,0.569c-0.097,0.741-0.893,0.751-0.102,1.703c0.428,0.515,1.296,0.323,1.733,0.05
			C21.227,39.639,19.912,36.683,18.865,36.199z"/>
		<path style="clip-path:url(#SVGID_2_);fill:#3D2216;" d="M48.367,17.903c-1.646-1.146-2.569-2.928-4.484-3.876
			c-1.666-0.826-3.647-1.517-5.477-1.87c-2.595-0.501-5.381-0.552-7.998-0.24c-4.403,0.525-9.717,2.615-11.109,7.28
			c-0.856,2.865-0.409,6.188-0.189,9.116c0.084,1.123-0.173,5.372,0.765,6.251c0.557,0.519,0.747,1.404,1.161,2.05
			c0.465,0.721,1.026,1.434,1.742,1.919c-0.106-0.835-0.462-1.683-0.53-2.516c0.359,0.285,0.775,0.817,1.29,0.747
			c-0.882-2.681-1.391-4.938-0.736-7.789c0.423-1.854,1.817-3.415,3.286-4.56c0.492-0.383,1.672-1.35,2.347-0.84
			c0.678,0.512,0.066,1.944-0.168,2.524c-0.731,1.807-2.259,3.422-3.95,4.45c1.46,0.041,3.524-0.759,4.761-1.464
			c1.712-0.978,2.9-2.591,4.859-3.138c0.122,0.736-0.389,1.595-0.517,2.31c2.103-0.328,3.683-1.435,5.595-2.272
			c1.569-0.688,3.211-1.169,4.926-1.336c0.887-0.085,1.869-0.052,2.673,0.354c0.64,0.324,1.154,0.582,1.896,0.608
			c1.477,0.051,2.347-0.976,2.584-2.364c0.187-1.086-0.079-2.138-0.605-3.063C49.972,19.276,49.205,18.489,48.367,17.903z"/>
		<path style="clip-path:url(#SVGID_2_);fill:#FA9769;" d="M47.847,36.232c-0.816-0.696-2.124-0.534-3.029-0.304
			c-1.184,0.297-2.64,1.133-1.144,2.539c0.798,0.749,5.67,0.176,4.575-1.743C48.136,36.524,48.001,36.362,47.847,36.232z"/>
		<path style="clip-path:url(#SVGID_2_);fill:#FA9769;" d="M30.257,37.094c-0.651-0.916-2.024-1.087-3.006-1.087
			c-1.279,0-2.974,0.479-1.812,2.291c0.619,0.965,5.723,1.633,5.103-0.602C30.477,37.466,30.38,37.268,30.257,37.094z"/>
		<path style="clip-path:url(#SVGID_2_);fill:#4F4F4F;" d="M29.309,32.063c-2.255-0.679-3.675,2.113-2.137,3.023
			c0.718-0.146,1.565-0.093,2.234,0.134C30.919,34.673,30.986,32.567,29.309,32.063z"/>
		<path style="opacity:0.5;clip-path:url(#SVGID_2_);fill:#B54319;" d="M37.51,38.305c-1.171,0.015-1.634-0.521-2.454-0.031
			c-0.819,0.485,0.353,2.046,2.426,1.97c2.063-0.071,2.961-1.49,2.53-2.02C39.514,37.61,38.81,38.291,37.51,38.305z"/>
		<path style="clip-path:url(#SVGID_2_);fill:#FFD4AD;" d="M37.204,33.905c-2.201-0.191-2.367,4.457-1.863,4.856
			c1.233,0.974,3.811,0.285,4.562-0.499C40.197,37.953,39.303,34.086,37.204,33.905z"/>
		<path style="clip-path:url(#SVGID_2_);fill:#4F4F4F;" d="M46.235,31.896c-2.365-0.98-4.104,2.177-2.153,3.069
			c0.619-0.283,1.86-0.196,2.463-0.003C47.494,34.235,47.505,32.423,46.235,31.896z"/>
		<path style="opacity:0.7;clip-path:url(#SVGID_2_);fill:#EDF0EF;" d="M28.505,32.55c-0.914,0.216-0.219,1.457,0.675,1.006
			C29.823,33.229,29.319,32.358,28.505,32.55z"/>
		<path style="opacity:0.7;clip-path:url(#SVGID_2_);fill:#EDF0EF;" d="M45.311,32.24c-0.932,0.13-0.484,1.396,0.47,1.037
			C46.469,33.019,46.139,32.126,45.311,32.24z"/>
		<path style="opacity:0.5;clip-path:url(#SVGID_2_);fill:#B54319;" d="M44.487,40.005c-0.355,0.095,0.313,0.186,1.189,0.354
			c0.171,0.034,0.276,0.107,0.343,0.202c-4.064,1.494-13.081,2.539-18.694,0.958c0.046-0.044,0.097-0.084,0.152-0.119
			c0.802-0.521,1.978-0.591,1.644-0.747c0,0-1.979-0.006-2.744,0.503c-0.685,0.455-0.618,1.839-0.053,1.886
			c0.445,0.037,0.44-0.712,0.793-1.268c0.465,1.496,2.718,7.354,9.465,7.233c5.081-0.089,6.604-1.796,6.715-4.289
			c0.062-1.387,1.737-3.141,2.793-3.993c0.105,0.418-0.18,1.033,0.218,1.07c0.563,0.051,1.081-0.851,0.677-1.571
			C46.581,39.504,44.487,40.005,44.487,40.005z"/>
		<path style="clip-path:url(#SVGID_2_);fill:#8F2A25;" d="M28.422,42.511c0,0,2.417,6.102,8.425,5.708
			c5.411-0.354,5.97-2.48,6.153-3.964c0.244-1.98,1.68-2.806,1.68-2.806C35.548,44.294,28.422,42.511,28.422,42.511z"/>
		<path style="clip-path:url(#SVGID_2_);fill:#FFF7EA;" d="M30.42,43.084c0,0,0.144,1.999,2.027,2.693
			c2.416,0.892,5.082,0.914,7.771,0.077c1.811-0.561,2.75-3.626,2.75-3.626S37.898,43.39,30.42,43.084z"/>
		<path style="clip-path:url(#SVGID_2_);fill:#FFF7EA;" d="M38.093,45.94c-2.571,0.125-4.801-0.149-6.022-0.6
			c-1.02-0.374-1.008,0.197-0.8,0.695c0,0,0.406,2.049,5.11,2.257c4.114,0.181,5.799-2.489,5.319-3.01
			C41.223,44.761,40.665,45.817,38.093,45.94z"/>
		<path style="clip-path:url(#SVGID_2_);fill:#ECDCC4;" d="M30.41,43.058c0,0,0.08,0.604,0.233,0.869c0,0,9.696-1.289,11.889-0.568
			c0,0,0.351-0.648,0.437-1.13C42.969,42.229,36.125,43.452,30.41,43.058z"/>
		<path style="clip-path:url(#SVGID_2_);fill:#ECDCC4;" d="M32.605,45.338c4.124,1.842,8.526-0.143,8.526-0.143
			C36.165,46.41,32.605,45.338,32.605,45.338z"/>
		<path style="clip-path:url(#SVGID_2_);fill:#3D2216;" d="M48.032,28.639c-1.125-0.688-2.592-1.403-3.9-0.947
			c-0.56,0.194-1.02,0.539-1.477,0.807c-0.618,0.364-1.23,0.589-2.069,0.123c0.046,3.373,2.986,1.721,5.11,1.604
			c1.095-0.06,2.666,0.492,3.656-0.086C49.282,29.419,48.601,28.986,48.032,28.639z"/>
		<path style="clip-path:url(#SVGID_2_);fill:#3D2216;" d="M30.602,28.718c-0.46-0.262-0.925-0.602-1.486-0.789
			c-1.313-0.441-2.771,0.291-3.889,0.991c-0.564,0.354-1.242,0.793-1.305,1.515c0.998,0.568,2.563-0.001,3.658,0.046
			c2.125,0.092,5.085,1.711,5.092-1.663C31.838,29.292,31.224,29.074,30.602,28.718z"/>
		<path style="opacity:0.3;clip-path:url(#SVGID_2_);fill:#330500;" d="M38.11,18.463c-3.923-0.244-7.855-0.885-11.791-0.64
			c-3.004,0.187-6.933,0.509-9.34,2.428c-0.416,0.332-0.873,1.015-1.126,1.624c-0.272,0.654-0.726,1.638-0.097,2.1
			c0.883,0.648,3.069-0.042,4.115,0.107c1.836,0.257,6.722,1.481,9.704,2.249c4.763,1.226,16.081,2.256,20.459-0.109
			C54.884,23.603,45.638,18.928,38.11,18.463z"/>
		<path style="clip-path:url(#SVGID_2_);fill:#8E9194;" d="M14.631,16.267c-0.992,0.876-1.243,4.264,0.614,5.326
			c6.891,3.947,31.015,6.443,38.581,1.695C61.646,18.382,24.586,7.478,14.631,16.267z"/>
		<path style="clip-path:url(#SVGID_2_);fill:#C1C5C9;" d="M18.723,14.168l-1.556,0.67c-0.898,0.392-2.188,2.435-1.669,4.078
			c1.05,3.32,12.451,7.616,33.341,5.403C28.705,24.55,15.453,21.05,18.723,14.168z"/>
		<path style="clip-path:url(#SVGID_2_);fill:#6E7073;" d="M19.12,13.829l-1.557,0.668c-0.898,0.392-2.531,2.588-1.668,4.08
			c1.157,1.998,10.32,5.856,26.244,5.672C26.504,22.657,15.85,20.709,19.12,13.829z"/>
		<path style="clip-path:url(#SVGID_2_);fill:#6E7073;" d="M44.855,5.339c-3.954-2.651-23.718-1.591-25.396,1.8
			c-0.868,1.755-2.563,10.492-1.21,11.823c3.027,2.979,26.838,5.188,30.867-0.195C48.328,13.24,46.093,6.169,44.855,5.339z"/>
		<path style="clip-path:url(#SVGID_2_);fill:#5D5F61;" d="M49.862,18.868l-1.319-3.827c-0.136,0.047-0.348,0.136-0.636,0.266
			c-1.287,0.575-4.708,2.106-11.097,2.418c-7.927,0.385-15.091-1.603-18.532-2.558l-0.592-0.165l-1.072,3.904l0.581,0.161
			c3.323,0.923,9.918,2.754,17.562,2.754c0.74,0,1.492-0.018,2.25-0.054c7.15-0.349,11.076-2.105,12.554-2.767
			c0.138-0.062,0.243-0.11,0.318-0.139l-0.676-1.908L49.862,18.868z"/>
		<path style="clip-path:url(#SVGID_2_);fill:#9FA2A6;" d="M49.831,18.113l-0.655-1.915l-0.656-1.915
			c-0.138,0.048-0.352,0.138-0.643,0.269c-1.289,0.575-4.711,2.104-11.095,2.415c-7.922,0.384-15.078-1.599-18.518-2.553
			l-0.605-0.168l-1.071,3.904l0.595,0.165c3.32,0.921,9.911,2.749,17.541,2.749c0.743,0,1.496-0.018,2.256-0.055
			c7.143-0.349,11.07-2.103,12.549-2.763c0.138-0.062,0.244-0.11,0.32-0.14l-0.673-1.909L49.831,18.113z"/>
		<path style="clip-path:url(#SVGID_2_);fill:#9FA2A6;" d="M39.236,4.772c-3.434-0.53-7.158-0.508-10.559,0.182
			c-1.546,0.313-3.108,0.559-4.66,0.853c-1.016,0.191-2.358,0.409-3.189,1.081c0.777,0.15,1.632-0.067,2.412-0.145
			C26.679,6.4,30.14,5.924,33.601,5.95c2.393,0.02,4.791,0.208,7.183,0.294c0.378,0.014,2.426,0.104,2.501-0.503
			c0.002-0.012,0.003-0.024,0.003-0.037C43.285,4.871,39.678,4.84,39.236,4.772z"/>
		<path style="clip-path:url(#SVGID_2_);fill:#C1C5C9;" d="M21.288,19.63c2.49,0.584,4.821,1.004,7.126,1.282l0.543-4.491
			c-2.138-0.259-4.308-0.649-6.635-1.196L21.288,19.63z"/>
		<path style="opacity:0.5;clip-path:url(#SVGID_2_);fill:#8E9194;" d="M39.174,7.942c-4.348-0.56-8.955-0.762-13.23,0.209
			c-1.402,0.318-2.803,0.682-3.89,1.692c-0.367,0.341-2.504,2.988-1.799,3.287c3.498,1.479,7.547,1.839,11.265,2.355
			c4.059,0.566,8.618,0.111,12.443-1.323c-0.364-1.639-0.43-3.213-1.285-4.687C41.947,8.218,40.509,8.114,39.174,7.942z"/>
	</g>
</g>
<g id="Layer_1">
</g>
</svg>
