<?xml version="1.0" encoding="iso-8859-1"?>
<!-- Generator: Adobe Illustrator 16.0.0, SVG Export Plug-In . SVG Version: 6.00 Build 0)  -->
<!DOCTYPE svg PUBLIC "-//W3C//DTD SVG 1.1//EN" "http://www.w3.org/Graphics/SVG/1.1/DTD/svg11.dtd">
<svg version="1.1" xmlns="http://www.w3.org/2000/svg" xmlns:xlink="http://www.w3.org/1999/xlink" x="0px" y="0px"
	 width="66.011px" height="66.001px" viewBox="0 0 66.011 66.001" style="enable-background:new 0 0 66.011 66.001;"
	 xml:space="preserve">
<g id="Layer_29">
	<g>
		<defs>
			<circle id="SVGID_1_" cx="33.011" cy="33" r="33"/>
		</defs>
		<clipPath id="SVGID_2_">
			<use xlink:href="#SVGID_1_"  style="overflow:visible;"/>
		</clipPath>
		<rect style="clip-path:url(#SVGID_2_);fill:#C3B1BF;" width="66" height="66"/>
		<path style="clip-path:url(#SVGID_2_);fill:#E62628;" d="M44.337,57.042c-2.21-4.853-15.979-5.927-20.068-0.708
			c-1.718,2.193-1.737,6.002-1.221,9.666l22.104,0.001C45.528,62.836,45.473,59.535,44.337,57.042z"/>
		<path style="clip-path:url(#SVGID_2_);fill:#C21F23;" d="M33.848,60.443c7.881,0,10.158-13.113-0.666-13.113
			C25.399,47.33,25.42,60.443,33.848,60.443z"/>
		<path style="clip-path:url(#SVGID_2_);fill:#E62628;" d="M33.839,59.309c8.408,0,10.839-12.418-0.711-12.418
			C24.824,46.891,24.845,59.309,33.839,59.309z"/>
		<path style="clip-path:url(#SVGID_2_);fill:#E62628;" d="M27.12,54.193l-0.859,3.311c-0.828,0.908-1.176,4.891-1.375,8.496
			l-6.63-0.002C18.767,59.025,23.141,55.064,27.12,54.193z"/>
		<path style="clip-path:url(#SVGID_2_);fill:#E62628;" d="M40.558,54.193l0.859,3.311c0.828,0.908,1.176,4.891,1.375,8.496
			l6.63-0.002C48.911,59.025,44.537,55.064,40.558,54.193z"/>
		<path style="clip-path:url(#SVGID_2_);fill:#1F1A17;" d="M48.788,22.617c0.878-0.281,2.997-1.458,3.197-3.958
			c-0.64,0.427-1.529,0.753-2.074,0.587c1.238-0.782,1.785-1.762,1.748-3.546c-3.303-2.638-11.152-7.956-19.947-8.399
			c-5.408-0.272-11.044,1.121-14.024,5.997c-0.71,1.158-1.128,2.067-1.448,3.393c-0.493-0.991-0.926-1.563-0.878-2.688
			c-1.14,1.257-0.936,3.347-0.041,4.411c-0.995-0.053-2.097,0.513-2.788,1.186c0.647,0.011,1.716,0.019,2.249,0.334
			c-0.751,1.002-0.881,2.515-0.881,3.708c0.002,1.991,0.196,4.899,0.776,7.14c0.587,2.25,1.406,7.766,4.82,7.067
			c4.687-0.957,9.801-3.526,14.628-1.708c3.365,1.269,6.417,3.359,9.833,4.616c3.04,1.119,6.004,4.055,6.854-0.107
			c0.659-3.23,0.8-6.578,0.274-9.837C50.659,28.169,50.197,24.924,48.788,22.617z"/>
		<path style="clip-path:url(#SVGID_2_);fill:#FFC490;" d="M16.877,36.448c0.729,10.812,8.088,18.078,18.44,17.98
			c11.456-0.106,15.86-9.537,15.131-20.351c-0.728-10.811-8.882-19.403-17.77-18.804C23.791,15.871,16.148,25.637,16.877,36.448z"/>
		<path style="opacity:0.4;clip-path:url(#SVGID_2_);fill:#D14F2E;" d="M46.3,33.506c-0.67-1.016,2.045-0.683,2.425-0.484
			c-0.19,0.607-1.318,0.116-1.703,0.158c0.22,0.433,1.158,0.584,1.479,0.906c0.341,0.341,0.251,0.52-0.232,0.427
			C47.979,34.459,46.458,33.748,46.3,33.506z"/>
		<path style="opacity:0.4;clip-path:url(#SVGID_2_);fill:#D14F2E;" d="M27.811,35.248c0.589-1.064-2.091-0.523-2.455-0.299
			c0.236,0.594,1.322,0.016,1.71,0.028c-0.188,0.446-1.11,0.671-1.407,1.017c-0.313,0.367-0.209,0.537,0.265,0.407
			C26.208,36.326,27.671,35.502,27.811,35.248z"/>
		<path style="clip-path:url(#SVGID_2_);fill:#1F1A17;" d="M29.415,35.756c-0.588-0.289-1.336-0.361-1.971-0.182
			c-1.351-1.159-0.077-4.682,1.907-3.813C30.829,32.409,30.752,35.072,29.415,35.756z"/>
		<path style="opacity:0.35;clip-path:url(#SVGID_2_);fill:#B55019;" d="M40.171,36.512c0.434,0.443-0.478,2.079-2.433,2.213
			c-1.962,0.135-3.022-1.553-2.268-2.002c0.756-0.451,1.221-0.004,2.33-0.057C39.033,36.607,39.668,35.996,40.171,36.512z"/>
		<path style="clip-path:url(#SVGID_2_);fill:#FFD1A7;" d="M40.067,36.734c1.381-1.408-0.852-6.206-3.258-6.022
			c-1.011,0.078-1.676,1.508-1.808,3.344c-0.137,1.91-0.067,2.703,0.419,3.061C36.672,38.041,38.984,37.84,40.067,36.734z"/>
		<path style="clip-path:url(#SVGID_2_);fill:#1F1A17;" d="M46.006,30.567c1.135,0.498,1.286,2.27,0.609,3.234
			c-0.582-0.018-1.216,0.229-1.688,0.635C42.642,34.07,43.89,29.64,46.006,30.567z"/>
		<path style="clip-path:url(#SVGID_2_);fill:#A88888;" d="M28.329,32.486c0.721-0.239,1.159,0.868,0.587,1.276
			C28.126,34.328,27.521,32.754,28.329,32.486z"/>
		<path style="clip-path:url(#SVGID_2_);fill:#A88888;" d="M45.041,31.38c0.669-0.222,1.078,0.81,0.546,1.19
			C44.85,33.099,44.284,31.632,45.041,31.38z"/>
		<path style="clip-path:url(#SVGID_2_);fill:#FFC490;" d="M16.095,41.616c1.137,0.344,2.354,0.38,3.53,0.294
			c0.023-0.033,0.046-0.064,0.072-0.098c0.542-0.726-0.297-4.407-0.546-5.165c-0.623-1.909-1.693-3.255-3.81-2.727
			C10.935,35.02,12.546,40.545,16.095,41.616z"/>
		<path style="opacity:0.4;clip-path:url(#SVGID_2_);fill:#BC551E;" d="M19.526,30.634c0.081-1.529,0.461-3.168,0.748-4.546
			c0.804-3.836,5.186-5.317,8.613-5.659c4.869-0.486,16.547,0.793,17.714,2.279c1.766,2.248-1.776,2.602-3.238,2.771
			c-3.776,0.434-9.118,0.889-19.474-0.629c-0.439,1.256-2.515,4.122-3.018,12.77c-0.033,0.579-1.26-4.984-1.32-5.551
			C19.502,31.61,19.499,31.128,19.526,30.634z"/>
		<path style="opacity:0.4;clip-path:url(#SVGID_2_);fill:#D14F2E;" d="M18.361,40.482c2.036-0.648,0.667-3.84-0.699-4.494
			c-1.123-0.541-4.17-0.18-3.031,1.672c0.957-1.475,2.11-0.293,1.748,0.793c-0.241,0.729-1.338,0.607-0.39,1.694
			C16.501,40.734,17.72,40.686,18.361,40.482z"/>
		<path style="clip-path:url(#SVGID_2_);fill:#1F1A17;" d="M24.48,14.383c-1.647,0.832-3.074,1.987-4.134,3.517
			c-2.303,3.332-5.218,8.813-4.027,12.854c0.267,0.905,0.119,2.19,0.444,3.105c0.796,2.238,2.012,10.968,3.934,11.009
			c0.719,0.015,2.776,0.489,2.426-0.164c-3.084-5.755-2.303-15.885,0.263-20.661c15.9,1.937,24.957-0.261,24.357-3.833
			c-0.416-2.46-3.333-4.576-5.447-5.558C37.376,12.372,29.784,11.705,24.48,14.383z"/>
		<path style="clip-path:url(#SVGID_2_);fill:#FAB27B;" d="M30.255,37.246c0.202,0.158,0.385,0.359,0.543,0.607
			c1.518,2.414-4.59,3.557-5.647,2.645c-1.99-1.709-0.213-2.917,1.259-3.402C27.536,36.723,29.176,36.406,30.255,37.246z"/>
		<path style="clip-path:url(#SVGID_2_);fill:#FAB27B;" d="M44.246,36.379c-0.621,0.775-0.603,1.785,0.73,2.426
			c1.285,0.621,4.057,0.747,4.725-0.938c0.916-2.303-2.321-2.859-3.798-2.498C45.218,35.537,44.618,35.916,44.246,36.379z"/>
		<path style="opacity:0.2;clip-path:url(#SVGID_2_);fill:#D14F2E;" d="M41.094,51.172c-0.59-0.73-2.344-1.19-3.504-1.013
			c-1.958,0.3-2.638,1.388-2.651,1.577c0.069-1.114,0.524-2.064,1.824-2.483C38.348,48.74,41.234,49.355,41.094,51.172z"/>
		<path style="clip-path:url(#SVGID_2_);fill:#1F1A17;" d="M45.084,28.443c-0.791,0.347-1.483,0.696-2.496,0.543
			c-1.148-0.17-1.979-0.842-2.163-2.17c1.235,0.31,2.649-0.673,3.885-0.815c1.278-0.147,2.55,0.159,3.279,1.447
			c0.104,0.181,0.173,0.4,0.209,0.606c-0.607-0.012-1.118-0.163-1.722,0.014C45.715,28.172,45.392,28.307,45.084,28.443z"/>
		<path style="clip-path:url(#SVGID_2_);fill:#1F1A17;" d="M30.78,30.029c-1.428-0.25-3.148-1.209-4.338,0.052
			c-0.229,0.242-0.441,0.523-0.687,0.737c-1.219-1.651,0.719-4.19,2.623-3.997c0.752,0.075,1.553,0.477,2.322,0.616
			c0.946,0.173,1.896,0.224,2.82-0.095C33.602,29.163,32.691,30.363,30.78,30.029z"/>
		<path style="opacity:0.3;clip-path:url(#SVGID_2_);fill:#BC551E;" d="M44.56,39.176c0.197-0.08,0.781,0.532,0.798,0.73
			c0.03,0.392-0.429,0.641-0.717,0.799c-0.973,0.539-2.218,0.611-3.292,0.798c-2.72,0.47-5.436,0.64-8.189,0.38
			c-1.529-0.146-3.104-0.504-4.544-1.043c0.044-0.039,0.09-0.078,0.144-0.11c0.759-0.472,1.887-0.534,1.563-0.677
			c-1.713-0.747-3.639,0.135-5.004,1.115c1.567-0.34,3.212-0.212,4.096,1.303c2.23,3.834,4.528,6.395,8.264,6.333
			c4.882-0.08,5.905-3.319,6.506-5.479c0.249-0.892,0.576-1.351,1.168-1.998c0.662-0.724,1.298-1.295,2.067-1.639
			c0.504-0.226,1.064-0.352,1.729-0.359C48.079,38.31,45.771,38.684,44.56,39.176z"/>
		<path style="clip-path:url(#SVGID_2_);fill:#8F322D;" d="M29.694,41.739c0,0,7.502,2.655,15.604-0.962
			c0,0-0.994,0.502-1.459,2.251c-0.438,1.659-1.999,3.586-5.906,3.894C32.171,47.374,29.694,41.739,29.694,41.739z"/>
		<path style="clip-path:url(#SVGID_2_);fill:#FFF3E2;" d="M31.63,42.262c0,0,0.186,1.813,2.014,2.443
			c2.342,0.809,4.908,0.829,7.473,0.072c1.729-0.51,2.557-3.294,2.557-3.294S38.787,43.311,31.63,42.262z"/>
		<path style="clip-path:url(#SVGID_2_);fill:#FFF3E2;" d="M32.517,44.938c-0.212-0.452-0.236-0.97,0.753-0.63
			c1.187,0.409,3.337,0.658,5.805,0.547c2.47-0.113,2.979-1.072,3.452-0.598c0.473,0.473-1.08,2.896-5.041,2.73
			C32.957,46.799,32.517,44.938,32.517,44.938z"/>
		<path style="clip-path:url(#SVGID_2_);fill:#E8DAC5;" d="M32.369,43.861c0,0,8.282-1.139,10.407-0.484
			c0,0,0.816-1.171,0.896-1.894c0,0-6.149,1.851-12.054,0.751C31.619,42.234,31.681,43.31,32.369,43.861z"/>
		<path style="clip-path:url(#SVGID_2_);fill:#E8DAC5;" d="M33.783,44.306c0,0,3.448,0.974,8.195-0.126
			C41.979,44.18,37.793,45.977,33.783,44.306z"/>
		<path style="opacity:0.3;clip-path:url(#SVGID_2_);fill:#BC551E;" d="M27.192,39.574c-0.05,0.109-0.086,0.223-0.106,0.334
			c-0.264,1.406,0.928,2.201,2.007,2.796c0.953,0.526,2.007,0.513,3.06,0.425c1.081-0.089,2.097-0.021,3.178,0.034
			c1.056,0.054,2.104,0.138,3.16,0.056c1.048-0.08,2.061-0.297,3.095-0.439c1.851-0.256,3.442-0.15,4.932-1.486
			c0.912-0.818,1.358-1.447,1.276-2.707c-0.061-0.896-0.398-1.887-1.459-1.865c-0.29,0.006-0.809,0.156-1.041,0.34
			c-0.549,0.43,0.194,0.285,0.515,0.471c0.72,0.418,0.116,1.349-0.513,1.384c-1.097,0.06-2.186,0.142-3.289,0.238
			c-3.327,0.29-6.669,0.756-10.015,0.716c-0.748-0.008-2.171,0.242-2.799-0.236c-0.943-0.721,1.293-1.392,0.118-1.585
			C28.523,37.918,27.479,38.924,27.192,39.574z"/>
		<path style="clip-path:url(#SVGID_2_);fill:#1F1A17;" d="M37.822,42.945c1.178-0.038,2.347-0.169,3.495-0.43
			c1.442-0.328,2.87-0.849,4.112-1.667c0.971-0.639,2.447-1.49,2.311-2.979c-0.125-1.354-1.9-1.903-2.741-0.646
			c0.706-0.432,1.374,0.008,1.344,0.502c-0.05,0.762-1.005,0.689-1.535,0.639c-1.694-0.166-3.481-0.777-5.212-0.231
			c-2.248,0.71-3.785-0.098-6.119,0.261c-1.173,0.179-2.338,0.578-3.439,0.879c-0.569,0.155-1.313,0.26-1.456-0.371
			c-0.109-0.48,0.566-0.982,1.094-0.588c-0.263-0.533-1.299-0.666-1.793-0.487c-0.809,0.294-1.023,0.954-0.876,1.698
			c0.221,1.129,1.844,1.878,2.82,2.257c1.423,0.554,3.164,0.833,4.678,1.021C35.604,42.939,36.713,42.982,37.822,42.945z"/>
		<path style="clip-path:url(#SVGID_2_);fill:#332823;" d="M15.715,31.345c0.172,1.329,1.029,2.827,2.053,0.573
			c-0.336,3.282,3.037,8.427,2.765,6.267c-0.308-2.443-0.135-4.696,0.164-7.111c0.143-1.166,0.244-2.267,0.532-3.418
			c0.066-0.264,0.738-3.251,0.716-3.251c-0.652-0.001-1.306-0.073-1.953-0.129c-1.553-0.135-2.906-0.957-4.454-1.06
			c-0.062,1.322,2.698,2.473,3.69,2.651c-0.669,0.141-1.295,0.204-1.984,0.118c-0.722-0.091-1.488-0.599-2.202-0.544
			c0.197,1.587,2.649,1.925,3.834,2.441c-0.49,0.104-0.858,0.161-1.352,0.135c-0.337-0.018-0.955-0.225-1.28-0.097
			C15.271,28.307,15.616,30.561,15.715,31.345z"/>
		<path style="clip-path:url(#SVGID_2_);fill:#332823;" d="M20.632,22.437c0,0,10.069,2.704,19.344,1.431
			c9.274-1.273,7.948-4.134,7.948-4.134s0.058,1.231-9.856,2.651C28.152,23.802,20.632,22.437,20.632,22.437z"/>
		<path style="clip-path:url(#SVGID_2_);fill:#332823;" d="M35.695,39.043c-1.718-0.713-5.577,0.564-5.049,1.201
			c0.531,0.635,2.333,0.317,2.333,0.317s0.053,0.849,0.795,1.06c0.741,0.212,2.121-0.795,2.121-0.795s-0.055,1.007,0.952,1.061
			c1.008,0.053,1.857-1.113,1.857-1.113s0.639,1.072,1.642,0.9c1.002-0.171,0.899-1.06,0.899-1.06s1.212,0.601,1.962,0.37
			c0.75-0.229,0.317-1.27,0.317-1.27s0.849,0.423,1.962-0.107c1.112-0.53-1.166-0.53-2.545-0.794
			c-1.378-0.266-2.437-0.319-3.656,0.158C38.067,39.447,37.102,39.627,35.695,39.043z"/>
		<path style="clip-path:url(#SVGID_2_);fill:#332823;" d="M30.685,21.996c5.083,0.211,10.131-0.593,14.805-2.698
			c1.844-0.831,3.81-2.139,5.09-3.772c-1.877-0.686-10.03-5.751-15.951-6.795c-10.916-1.921-18.555,4.98-14.658,8.465
			c2.842,2.539,6.864,2.107,10.294,1.601c-2.237,1.579-9.525,1.314-12.777,0.383C20.002,20.522,23.215,21.683,30.685,21.996z"/>
	</g>
</g>
<g id="Layer_1">
</g>
</svg>
