<?xml version="1.0" encoding="iso-8859-1"?>
<!-- Generator: Adobe Illustrator 16.0.0, SVG Export Plug-In . SVG Version: 6.00 Build 0)  -->
<!DOCTYPE svg PUBLIC "-//W3C//DTD SVG 1.1//EN" "http://www.w3.org/Graphics/SVG/1.1/DTD/svg11.dtd">
<svg version="1.1" xmlns="http://www.w3.org/2000/svg" xmlns:xlink="http://www.w3.org/1999/xlink" x="0px" y="0px"
	 width="66.004px" height="66.001px" viewBox="0 0 66.004 66.001" style="enable-background:new 0 0 66.004 66.001;"
	 xml:space="preserve">
<g id="Layer_60">
	<g>
		<defs>
			<circle id="SVGID_1_" cx="33.004" cy="33.001" r="33"/>
		</defs>
		<clipPath id="SVGID_2_">
			<use xlink:href="#SVGID_1_"  style="overflow:visible;"/>
		</clipPath>
		<rect style="clip-path:url(#SVGID_2_);fill:#FFFFFF;" width="66" height="65.998"/>
		<path style="clip-path:url(#SVGID_2_);fill:#D9D9D9;" d="M43.733,53.104l-4.536,3.578c0.789,1,2.563,3.814,3.893,9.315h6.009
			C48.142,59.728,46.602,54.91,43.733,53.104z"/>
		<path style="clip-path:url(#SVGID_2_);fill:#D9D9D9;" d="M24.766,53.104c-2.868,1.806-4.408,6.623-5.365,12.894h6.009
			c1.33-5.501,3.104-8.315,3.893-9.315L24.766,53.104z"/>
		<path style="clip-path:url(#SVGID_2_);fill:#85B428;" d="M43.814,59.138c0.002-2.109,0.573-3.766,1.272-4.958
			c0.179-0.308-1.142-2.896-10.845-2.854c-9.418,0.042-10.562,2.708-10.436,3.013c0.474,1.152,0.961,3.131,0.975,4.838
			c0.02,2.807-0.063,4.94,0.005,6.821H43.77C43.858,64.132,43.81,61.843,43.814,59.138z"/>
		<path style="clip-path:url(#SVGID_2_);fill:#45362E;" d="M42.031,59.083c0.189-2.933,0.34-5.248,0.1-6.672
			c-0.071-0.426-0.469-0.711-0.9-0.642c-0.426,0.071-0.713,0.476-0.642,0.901c0.21,1.244,0.058,3.592-0.118,6.311
			c-0.134,2.063-0.289,4.492-0.325,7.017h1.565C41.745,63.562,41.893,61.218,42.031,59.083z"/>
		
			<rect x="40.627" y="61.354" transform="matrix(-0.02 -0.9998 0.9998 -0.02 -20.4936 104.5982)" style="clip-path:url(#SVGID_2_);fill:#F2F2F2;" width="0.782" height="1.978"/>
		<path style="clip-path:url(#SVGID_2_);fill:#45362E;" d="M27.842,52.671c0.072-0.426-0.216-0.83-0.642-0.901
			c-0.425-0.068-0.829,0.216-0.901,0.642c-0.24,1.423-0.09,3.736,0.1,6.666c0.139,2.137,0.285,4.482,0.318,6.921h1.566
			c-0.035-2.526-0.19-4.957-0.324-7.022C27.783,56.26,27.632,53.915,27.842,52.671z"/>
		
			<rect x="26.423" y="61.952" transform="matrix(-0.9998 -0.0207 0.0207 -0.9998 53.5246 125.2415)" style="clip-path:url(#SVGID_2_);fill:#F2F2F2;" width="1.978" height="0.782"/>
		<path style="clip-path:url(#SVGID_2_);fill:#C9BEB7;" d="M49.856,15.251c0.677-1.104,1.38-1.671,0.145-2.66
			c-1.02-0.816-2.587-1.043-3.79-0.574c0.684-2.807-3.2-3.482-4.717-1.896c-0.435-3.11-3.42-3.529-5.238-1.297
			c-0.884-2.349-4.254-2.811-4.854,0.014c-2.029-2.614-5.755-1.24-6.422,1.766c-1.648-2.127-5.582-1.225-5.344,1.752
			c-1.312-0.557-2.494-0.252-3.566,0.894c-0.933,0.995-0.714,3.073-0.064,4.093c-3.563-0.231-3.444,2.982-1.678,4.746
			c-2.768,0.175-3.973,4.078-0.648,4.381c-1.804,0.641-2.024,3.066,0.164,3.403c-2.229,0.797-1.277,2.769,0.66,3.19
			c-0.681,1.978-0.246,2.763,1.296,3.981c0.944,0.747,1.599,1.687,2.412,2.597c2.142,2.393,3.672,5.251,5.752,7.639
			c2.007,2.307,4.31-1.656,5.994-2.619c2.232-1.277,4.948-1.969,7.514-1.587c2.274,0.337,3.876,2.712,6.188,2.764
			c1.402,0.03,2.299-1.159,2.881-2.285c0.656-1.269,0.446-2.265,0.719-3.505c0.257-1.168,1.371-1.5,2.086-2.321
			c0.31-0.354,1.221-2.687-0.005-2.673c2.069-0.021,2.065-1.742,1.39-3.063c-0.143-0.279-0.316-0.542-0.506-0.766
			c2.25-0.336,1.39-2.043,0.576-3.343c0.785-0.512,1.34-0.583,1.272-1.621c-0.059-0.898-0.886-1.636-1.628-1.996
			c0.791-0.576,1.775-0.592,1.873-1.703c0.093-1.031-0.858-2.037-1.564-2.631C54.109,19.149,52.593,15.593,49.856,15.251z"/>
		<path style="clip-path:url(#SVGID_2_);fill:#9C552C;" d="M31.526,13.792c-8.318,1.623-14.181,13.584-12.654,24.807
			c1.146,8.404,7.628,17.626,17.394,16.931c9.963-0.71,14.92-13.067,13.631-23.403C48.498,20.888,43.177,11.521,31.526,13.792z"/>
		<path style="clip-path:url(#SVGID_2_);fill:#9C552C;" d="M15.97,33.923c-4.085,1.125-2.445,7.089,0.891,8.285
			c1.07,0.385,2.206,0.437,3.3,0.36c0.021-0.034,0.044-0.067,0.066-0.103c0.488-0.774-0.195-5.121-0.445-5.94
			C19.151,34.464,17.931,33.382,15.97,33.923z"/>
		<path style="opacity:0.7;clip-path:url(#SVGID_2_);fill:#66241B;" d="M17.403,36.12c-0.919-0.426-3.208,0.338-2.132,2.132
			c0.567-1.664,1.582-0.573,1.427,0.61c-0.104,0.793-0.956,0.804-0.109,1.821c0.458,0.552,1.386,0.346,1.854,0.052
			C19.93,39.798,18.523,36.635,17.403,36.12z"/>
		<path style="opacity:0.4;clip-path:url(#SVGID_2_);fill:#66261E;" d="M26.314,26.368c6.525-0.051,11.664-0.308,19.371-0.822
			C39.263,24.519,30.172,25.487,26.314,26.368z"/>
		<path style="opacity:0.4;clip-path:url(#SVGID_2_);fill:#66261E;" d="M27.137,24.339c5.729-0.045,10.24-0.27,17.008-0.722
			C38.506,22.716,30.523,23.565,27.137,24.339z"/>
		<path style="clip-path:url(#SVGID_2_);fill:#C9BEB7;" d="M49.959,42.862c1.166-0.489,0.707-2.593-0.277-2.755
			c-6.428,12.997-18.667,11.276-23.648,5.713c-2.779-3.104-1.623-5.591-3.626-4.925c-4.046,1.348-6.052,4.121-2.683,4.918
			c-1.404,1.043-0.727,2.796,1.061,2.514c-0.729,1.541-0.371,3.776,1.922,3.33c-0.902,1.892,0.584,3.314,2.605,2.284
			c-0.092,1.944,2.117,1.71,3.17,0.646c0.371,1.855,2.316,2.049,3.908,1.309c0.119,1.984,3.233,1.791,4.162,0.51
			c1.256,1.502,5.104,1.43,5.09-0.947c1.428,0.971,5.57-0.158,4.146-2.288c1.882,1.425,4.195-2.822,2.093-4.022
			c1.979,0.333,2.84-1.758,1.209-3.012C50.844,46.226,51.809,43.426,49.959,42.862z"/>
		<path style="opacity:0.7;clip-path:url(#SVGID_2_);fill:#F0EAE6;" d="M26.441,47.54c-2.09-2.029-3.346-4.223-3.346-4.223
			c-1.007,0.932-3.529,4.256-0.467,4.201c-0.585,1.303-0.734,3.423,1.402,2.662c-0.222,0.629-0.525,1.709-0.135,2.298
			c0.676,1.018,1.821,0.063,2.616-0.311c0.271,2.315,1.747,1.271,3.386,0.699c-0.545,2.245,2.102,2.046,3.375,1.024
			c0.028,1.915,3.801,1.994,4.413,0.588c0.886,1.93,3.412,0.264,4.021-0.904c1.732,1.287,4.359,0.115,3.274-1.947
			c2.526,0.905,2.794-1.356,1.957-2.985c2.603-0.693,1.713-3.358,1.024-4.151C43.561,52.495,32.127,53.056,26.441,47.54z"/>
		<path style="opacity:0.4;clip-path:url(#SVGID_2_);fill:#66241B;" d="M41.266,15.574c-3.277-0.982-6.665-1.524-10.087-1.585
			c-3.037-0.053-6.337-0.223-9.168,1.059c-1.557,0.703-3.466,1.669-4.048,3.391c-0.716,2.122-0.429,4.52-0.086,6.688
			c0.172,1.092,1.007,4.077,2.723,3.634c0.973-0.251,0.908-3.206,1.262-3.222c1.559-0.07,2.823-1.306,2.597-2.865
			c1.077,0.029,2.452-0.387,2.653-1.586c0.44,0.455,1.13,0.68,1.795,0.713c0.045,0.002,0.091,0.004,0.136,0.004
			c1.213,0.012,1.385-0.766,2.197-1.086c1.113-0.439,3.008,0.817,3.751-0.842c1.298,0.813,2.935,1.355,4.111-0.02
			c0.834,1.271,3.226,2.047,4.46,0.883c1.288,1.26,5.071-0.168,3.974-2.215C46.619,16.813,42.947,16.077,41.266,15.574z"/>
		<path style="clip-path:url(#SVGID_2_);fill:#C9BEB7;" d="M37.33,10.411c-2.776-0.536-5.758-0.59-8.557-0.257
			c-4.711,0.562-10.396,2.798-11.885,7.788c-0.916,3.066-0.438,6.62-0.203,9.754c0.118,1.584-0.404,3.409-0.009,4.955
			c0.331,1.293,1.614,1.771,2.542,0.605c0.613-0.771,2.822-9.005,2.216-9.061c1.7,0.154,2.479-1.289,2.402-2.783
			c1.357,0.334,3.042,0.064,3.53-1.438c0.576,0.381,1.51,0.675,2.229,0.548c0.782-0.14,1.065-1.058,1.5-1.182
			c0.62-0.177,1.595,0.631,2.345,0.487c0.811-0.155,1.208-0.74,1.641-1.438c1.135,1.783,3.729,1.383,5.063,0.127
			c0.656,1.718,2.562,2.324,4.096,1.311c-0.64,0.422,0.93,1.736,1.741,2.213c0.173,0.102,0.312,0.164,0.387,0.173
			c1.112,0.133,1.711-0.714,2.214-1.6c1.257-2.218,0.273-4.531-1.325-6.309C45.216,12.038,40.22,10.97,37.33,10.411z"/>
		<path style="opacity:0.7;clip-path:url(#SVGID_2_);fill:#F0EAE6;" d="M48.531,16.486c0.463-0.706,0.778-1.878-0.006-2.508
			c-0.697-0.562-2.904-0.361-3.473,0.342c0.262-0.999,0.137-2.618-0.895-3.187c-0.895-0.492-2.063,1.066-2.486,1.781
			c0.004-1.141-1.07-2.748-2.002-3.354c-1.469-0.954-2.215,0.853-2.844,1.905c-0.271-1.107-1.436-2.039-2.529-2.221
			c-1.314-0.218-1.898,1.461-2.395,2.457c-0.985-0.934-1.521-2.311-3.068-2.313c-0.895-0.001-1.674,0.196-2.126,1.034
			c-0.413,0.766-0.126,1.607-0.426,2.385c-1.225-0.607-1.953-1.646-3.46-1.538c-1.783,0.127-1.797,1.472-1.873,2.94
			c-3.925-1.639-5.175,1.867-3.476,4.172c-1.853,0.285-2.146,4.191-0.005,4.318c-1.461,0.754-1.857,2.205-0.064,2.975
			c2.027,0.871,2.543-1.688,2.016-3.145c1.373,0.121,1.586-1.061,1.564-2.146c0.723,0.221,1.069,0.593,1.835,0.26
			c0.824-0.357,0.812-0.891,0.893-1.721c0.678,0.338,1.327,1.008,2.163,0.621c0.614-0.283,0.928-1.199,1.049-1.821
			c0.418,0.599,1.141,1.075,1.864,0.983c0.923-0.117,1.138-0.67,1.482-1.406c0.752,0.603,1.464,0.985,2.425,0.725
			c1.084-0.295,1.277-0.893,1.656-1.855c1.469,1.131,4.245,2.266,5.406,0c1.056,1.484,3.668,3.316,5.265,1.378
			c1.105,1.292,2.12,2.999,4.122,2.321C51.389,19.109,50.762,16.536,48.531,16.486z"/>
		<path style="opacity:0.7;clip-path:url(#SVGID_2_);fill:#66241B;" d="M22.806,34.438c0.13,0.684,1.658,0.168,2.142,0.223
			c-0.362,0.475-1.585,0.617-2.053,0.968c-0.498,0.37-0.416,0.571,0.219,0.481c0.377-0.055,2.445-0.801,2.692-1.064
			C26.846,33.933,23.326,34.231,22.806,34.438z"/>
		<path style="opacity:0.7;clip-path:url(#SVGID_2_);fill:#66241B;" d="M46.699,34.347c0.222,0.264,2.082,1.006,2.422,1.062
			c0.57,0.087,0.645-0.113,0.197-0.483c-0.421-0.35-1.521-0.49-1.847-0.964c0.436-0.056,2.167,0.457,2.284-0.226
			C49.288,33.528,45.764,33.235,46.699,34.347z"/>
		<path style="clip-path:url(#SVGID_2_);fill:#D17642;" d="M48.904,36.563c-0.768-0.955-2.261-1.014-3.317-0.916
			c-1.384,0.123-3.181,0.816-1.8,2.717c0.736,1.011,6.293,1.262,5.467-1.158C49.167,36.956,49.049,36.744,48.904,36.563z"/>
		<path style="clip-path:url(#SVGID_2_);fill:#D17642;" d="M29.092,36.867c-0.823-0.834-2.279-0.779-3.301-0.617
			c-1.333,0.215-3.631,1.497-1.708,2.816c1.386,0.952,6.404,0.563,5.401-1.626C29.381,37.212,29.248,37.023,29.092,36.867z"/>
		<path style="clip-path:url(#SVGID_2_);fill:#261B18;" d="M28.32,31.612c-2.976-0.805-4.849,2.514-2.82,3.598
			c0.946-0.174,2.065-0.109,2.948,0.158C30.444,34.718,30.533,32.214,28.32,31.612z"/>
		<path style="opacity:0.7;clip-path:url(#SVGID_2_);fill:#66241B;" d="M36.959,38.37c-1.252,0.016-2.354-0.555-3.529-0.034
			c-1.174,0.521,0.175,2.189,3.499,2.109c3.31-0.079,4.229-1.595,3.611-2.161C39.825,37.626,38.35,38.354,36.959,38.37z"/>
		<path style="clip-path:url(#SVGID_2_);fill:#D17642;" d="M36.886,32.31c-2.354-0.205-4.206,4.363-3.204,5.859
			c0.702,1.05,5.887,1.014,6.701-0.215C40.68,37.505,39.133,32.504,36.886,32.31z"/>
		<path style="opacity:0.7;clip-path:url(#SVGID_2_);fill:#F0DED1;" d="M27.26,32.192c-1.207,0.258-0.288,1.734,0.89,1.197
			C29,33.001,28.334,31.964,27.26,32.192z"/>
		<path style="clip-path:url(#SVGID_2_);fill:#261B18;" d="M46.631,30.999c-3.057-0.402-4.47,3.139-2.314,3.943
			c0.914-0.3,2.031-0.385,2.942-0.238C49.151,33.794,48.904,31.3,46.631,30.999z"/>
		<path style="opacity:0.7;clip-path:url(#SVGID_2_);fill:#F0DED1;" d="M45.658,31.714c-1.163,0.416-0.055,1.758,1.041,1.069
			C47.49,32.284,46.691,31.345,45.658,31.714z"/>
		<path style="opacity:0.8;clip-path:url(#SVGID_2_);fill:#541D15;" d="M47.813,41.009c-1.042,0.562-2.49,0.134-3.063-1.046
			c-0.41,0.874-0.285,1.558,0.092,1.977c-1.221,2.805-4.319,5.029-8.318,5.25c-4.106,0.233-7.736-1.709-9.183-4.879
			c0.391-0.429,0.579-1.085,0.314-1.905c-0.745,1.189-2.265,1.633-3.223,1.082c0.286,0.896,0.915,1.316,1.55,1.365
			c1.663,3.668,5.798,5.881,10.526,5.615c0.128-0.008,0.255-0.017,0.381-0.025c4.413-0.363,7.851-2.876,9.263-6.065
			C46.768,42.289,47.412,41.866,47.813,41.009z"/>
		<path style="clip-path:url(#SVGID_2_);fill:#C9BEB7;" d="M28.817,27.086c-2.627-0.347-6.796,0.567-6.401,1.949
			c0.394,1.382,1.873,0.273,3.876,0.315c2.124,0.045,3.809,0.645,4.685,0.011C32.443,28.3,30.997,27.372,28.817,27.086z"/>
		<path style="clip-path:url(#SVGID_2_);fill:#C9BEB7;" d="M44.116,27.065c-1.943,0.271-3.31,1.175-2.131,2.217
			c0.704,0.621,2.245,0.041,4.114,0.004c1.762-0.035,2.947,1.055,3.436-0.297C50.023,27.64,46.458,26.734,44.116,27.065z"/>
		<path style="clip-path:url(#SVGID_2_);fill:#212126;" d="M39.542,30.412c-1.249,1.462-0.613,6.339,0.203,7.933
			c0.821,1.6,9.428,1.771,11.509,0.996c2.076-0.773,3.77-6.428,2.289-8.689C52.063,28.394,41.376,28.265,39.542,30.412z
			 M50.775,38.269c-1.563,0.545-9.25,0.395-9.979-0.646c-0.725-1.045-0.99-5.422-0.104-6.411c1.303-1.454,10.312-1.245,11.613,0.229
			C53.605,32.913,52.334,37.724,50.775,38.269z"/>
		<path style="clip-path:url(#SVGID_2_);fill:#212126;" d="M18.66,30.876c-1.58,1.527,0.049,6.529,1.377,8.061
			c1.332,1.531,11.304,0.895,13.308,0.018c2.007-0.875,2.009-6.33,0.308-8.492C31.949,28.299,20.98,28.634,18.66,30.876z
			 M32.51,38.009c-1.5,0.59-10.133,1.042-11.271,0.082c-1.137-0.959-2.43-5.375-1.314-6.372c1.637-1.466,11.17-1.821,12.613-0.468
			C33.981,32.604,34.012,37.414,32.51,38.009z"/>
		<path style="clip-path:url(#SVGID_2_);fill:#212126;" d="M34.767,33.352c-0.216,0.104-1.114,1.372-0.478,1.67
			c0.156,0.077,2.023-1.568,4.904-0.397c0.366,0.15,0.716,0.111,0.593-0.39C39.326,32.36,36.081,32.702,34.767,33.352z"/>
		<path style="opacity:0.3;clip-path:url(#SVGID_2_);fill:#FFFFFF;" d="M46.072,30.604c-0.583,0.152-4.562,0.908-3.815,2.778
			c0.489,1.232,9.732,2.079,10.356,0.03C53.888,29.237,47.213,30.306,46.072,30.604z"/>
		<path style="opacity:0.3;clip-path:url(#SVGID_2_);fill:#FFFFFF;" d="M31.872,30.599c-1.511-0.477-4.708-0.219-6.557,0.094
			c-0.662,0.111-3.711,0.613-2.666,2.598c1.069,2.024,8.723,2.335,10.127,0.65C34.154,32.288,32.754,30.879,31.872,30.599z"/>
		<path style="clip-path:url(#SVGID_2_);fill:#FFFFFF;" d="M46.714,30.919c-0.995,0.037-1.675,0.258-1.462,0.766
			c0.422,1,6.244,1.24,6.719,0.581C52.438,31.617,48.85,30.847,46.714,30.919z"/>
		<path style="opacity:0.7;clip-path:url(#SVGID_2_);fill:#FFFFFF;" d="M42.227,36.325c-0.615-0.079-1.059,0.025-0.981,0.451
			c0.151,0.84,3.708,1.649,4.071,1.176C45.675,37.488,43.547,36.489,42.227,36.325z"/>
		<path style="clip-path:url(#SVGID_2_);fill:#FFFFFF;" d="M27.646,30.741c-0.98,0.051-1.644,0.265-1.423,0.727
			c0.433,0.91,6.151,1.033,6.606,0.421C33.276,31.288,29.738,30.639,27.646,30.741z"/>
		<path style="opacity:0.7;clip-path:url(#SVGID_2_);fill:#FFFFFF;" d="M21.813,36.556c-0.609-0.063-1.035,0.039-0.957,0.429
			c0.168,0.771,3.672,1.452,4.021,1.013C25.219,37.563,23.11,36.685,21.813,36.556z"/>
	</g>
</g>
<g id="Layer_1">
</g>
</svg>
