<?xml version="1.0" encoding="iso-8859-1"?>
<!-- Generator: Adobe Illustrator 16.0.0, SVG Export Plug-In . SVG Version: 6.00 Build 0)  -->
<!DOCTYPE svg PUBLIC "-//W3C//DTD SVG 1.1//EN" "http://www.w3.org/Graphics/SVG/1.1/DTD/svg11.dtd">
<svg version="1.1" xmlns="http://www.w3.org/2000/svg" xmlns:xlink="http://www.w3.org/1999/xlink" x="0px" y="0px"
	 width="66.011px" height="66px" viewBox="0 0 66.011 66" style="enable-background:new 0 0 66.011 66;" xml:space="preserve">
<g id="Layer_23">
	<g>
		<defs>
			<circle id="SVGID_1_" cx="33.011" cy="33" r="33"/>
		</defs>
		<clipPath id="SVGID_2_">
			<use xlink:href="#SVGID_1_"  style="overflow:visible;"/>
		</clipPath>
		<rect style="clip-path:url(#SVGID_2_);fill:#EF5649;" width="66" height="65.998"/>
		<path style="clip-path:url(#SVGID_2_);fill:#62698A;" d="M28.607,50.771c-3.318,1.378-5.152,5.669-7.198,15.228h5.317
			c0.435-2.246,1.532-7.127,3.153-8.784C32.011,55.035,31.123,49.726,28.607,50.771z"/>
		<path style="clip-path:url(#SVGID_2_);fill:#62698A;" d="M40.703,50.771c-2.516-1.045-3.403,4.265-1.272,6.443
			c1.621,1.657,2.719,6.538,3.153,8.784h5.317C45.855,56.439,44.021,52.148,40.703,50.771z"/>
		<path style="clip-path:url(#SVGID_2_);fill:#D9C9B2;" d="M12.107,28.617c0.68,9.938,6.644,18.639,22.093,15.736
			c17.204-3.232,20.762-14.784,16.619-26.226C46.792,7.009,11.082,13.633,12.107,28.617z"/>
		<path style="clip-path:url(#SVGID_2_);fill:#62698A;" d="M41.069,59.085c1.163-3.083,1.943-6.652-0.833-8.343
			c-3.13-1.905-8.505-1.634-11.269,0.441c-2.118,1.592-1.228,5.431-0.533,7.726c0.71,2.345,0.563,2.801,0.198,4.195
			c-0.162,0.619-0.528,1.653-0.967,2.894h14.104c-0.187-0.721-0.354-1.372-0.481-1.886C41.012,62.999,40.495,60.606,41.069,59.085z"
			/>
		<path style="opacity:0.2;clip-path:url(#SVGID_2_);" d="M38.6,59.077c0.364,2.439,0.662,4.729,0.873,6.921h0.479
			c-0.193-2.504-0.506-4.988-0.882-7.039C39.07,58.959,38.565,59.007,38.6,59.077z"/>
		<path style="opacity:0.2;clip-path:url(#SVGID_2_);" d="M41.114,51.549c-1.388-0.355-2.799,1.876-4.123,2.034
			c-1.344,0.159-2.92,0.26-4.212-0.15l0.144,0.724c0.582,2.188,5.272,0.697,6.524,0.05c-0.034,0.52-0.216,0.998-0.328,1.479
			c0.571-0.315,0.987,0.092,1.367,0.551c-1.233,0.818-2.461,1.069-4.268,0.935c-1.627-0.122-2.813-0.767-3.965-1.911
			c-0.78-0.774-1.161-1.914-1.779-2.822c-0.242-0.355-0.849-0.947-0.812-1.36l-1.087,0.472c-0.738,1.376-0.362,1.908-0.392,2.812
			c-0.055,1.633-0.547,2.568-0.719,3.23c-0.411,1.589,0.438,1.291,0.604,2.873c0.088,0.835,0.567,1.689,0.668,2.501
			c0.896-0.667,1.864-1.701,2.285-2.879c0.123-0.348,0.283-1.107,0.331-1.47c1.087,1.89,3.294,2.257,5.272,2.106
			c3.931-0.296,6.724-2.677,6.399-5.773C42.775,52.55,42.313,51.854,41.114,51.549z"/>
		<path style="clip-path:url(#SVGID_2_);fill:#D9C9B2;" d="M37.256,45.967c-3.218-0.433-9.01-0.426-8.282,4.797
			c0.521,3.738,5.167,4.169,8.186,3.636C42.391,53.475,42.994,46.738,37.256,45.967z"/>
		<path style="clip-path:url(#SVGID_2_);fill:#D9C9B2;" d="M40.805,49.675c-1.223-0.022-0.688,2.753-0.676,3.451
			c0.027,1.612-0.485,2.766-2.202,3.086c-1.361,0.255-2.68-0.048-3.56-1.123c-1.384-1.691-1.644-4.6-3.481-5.86
			c-0.7-0.48-1.2-0.527-1.553-0.308c-1.004,0.628-0.795,3.432-0.544,4.545c0.434,1.93,1.581,3.646,2.999,4.994
			c2.491,2.369,6.535,2.229,9.166,0.112c1.336-1.076,1.849-2.552,1.783-4.243C42.702,53.425,42.208,49.702,40.805,49.675z"/>
		<path style="clip-path:url(#SVGID_2_);fill:#D9C9B2;" d="M31.193,49.407l-2.032,0.326c-0.325,9.021-2.717,11.54-8.296,14.391
			c-0.443,0.227-0.406,1.051-0.108,1.874h5.278C30.272,62.554,32.123,56.317,31.193,49.407z"/>
		<circle style="clip-path:url(#SVGID_2_);fill:#8690B3;" cx="37.68" cy="64.643" r="0.618"/>
		<circle style="clip-path:url(#SVGID_2_);fill:#8690B3;" cx="37.656" cy="62.146" r="0.618"/>
		<circle style="clip-path:url(#SVGID_2_);fill:#8690B3;" cx="33.972" cy="64.714" r="0.618"/>
		<circle style="clip-path:url(#SVGID_2_);fill:#8690B3;" cx="34.066" cy="62.1" r="0.618"/>
		<path style="clip-path:url(#SVGID_2_);fill:#495070;" d="M37.054,46.234c-2.991-0.276-8.372-0.272-7.696,3.063
			c0.483,2.387,4.934,3.154,7.726,2.515C41.856,50.719,42.387,46.727,37.054,46.234z"/>
		<path style="clip-path:url(#SVGID_2_);fill:#F2E4CE;" d="M41.711,52.732c-0.099-0.815-0.565-1.377-0.892-0.35
			c-0.444,1.396-0.161,2.435-1.369,3.468c-1.217,1.041-2.851,1.828-4.37,0.904c-1.551-0.943-2.249-2.439-3.193-3.862
			c-0.292-0.44-0.876-0.675-0.813,0.199c0,0-0.139,0.004-0.136,0c-0.132,0.112-1.93-4.177-1.467-0.271
			c0.022,0.19,0.05,0.376,0.084,0.56c0.355,1.898,1.348,3.483,2.976,4.611c2.165,1.499,5.02,1.933,7.323,0.428
			c1.276-0.833,1.831-2.105,2.215-3.526c-0.26,0.047-0.493,0.188-0.696,0.362C41.595,54.515,41.808,53.515,41.711,52.732z"/>
		<path style="clip-path:url(#SVGID_2_);fill:#F2E4CE;" d="M26.145,64.661c1.242-1.431,2.312-2.945,2.536-4.858
			c-0.379,0.293-0.607,0.703-1.057,0.907c0.134-0.469,0.754-1.287,0.561-1.737c-0.395,0.417-0.773,0.881-1.13,1.329
			c-0.642,0.808-1.324,1.554-2.147,2.193c-0.738,0.575-1.592,0.959-2.435,1.354c-0.271,0.126-0.958,0.307-1.134,0.556
			c-0.097,0.138-0.095,0.716,0.188,0.501c-0.383,0.29,0.167,0.74,0.516,0.617c-0.128,0.101-0.161,0.306-0.125,0.476h2.815
			C25.296,65.567,25.802,65.057,26.145,64.661z"/>
		<path style="clip-path:url(#SVGID_2_);fill:#F2E4CE;" d="M34.294,52.584c-0.044-0.01-0.071-0.009-0.108-0.013
			c-0.029-0.004-0.058-0.001-0.087-0.005L34.294,52.584z"/>
		<path style="clip-path:url(#SVGID_2_);fill:#F2E4CE;" d="M39.204,52.511c0.155-0.203,0.938-0.998,0.693-1.293
			c-0.173-0.211-0.923,0.224-1.122,0.304c-1.027,0.408-2.056,0.918-3.165,1.031c-0.478,0.048-0.948,0.074-1.425,0.019
			c0.037,0.004,0.064,0.003,0.108,0.013l-0.195-0.018c0.029,0.004,0.058,0.001,0.087,0.005c-0.594-0.076-0.2,0.494,0.183,0.655
			c-0.731,0.399,0.696,0.803,0.91,0.816c1.08,0.07,2.325-0.133,3.331-0.513c0.612-0.23,1.268-0.601,1.604-1.187
			C40.026,52.098,39.461,52.46,39.204,52.511z"/>
		<path style="clip-path:url(#SVGID_2_);fill:#231E1A;" d="M47.284,14.726c-2.029-2.504-1.496-5.439-5.009-6.765
			c-0.804-0.303-7.427-1.435-7.738-0.495c0.17-0.513,0.033-0.894,0.521-1.322c-2.528,0.399-5.563,0.521-8.756,2.553
			c-1.468,0.933-2.086,2.308-3.785,2.835c-1.694,0.527-2.593,0.857-4.189,1.809c-3.374,2.01-5.137,6.233-5.497,7.497
			c0.648-0.645,2.179-1.081,2.818-0.866c-1.176,2.099-1.291,3.894-0.479,5.95c0.84,2.124-1.592,4.133-0.064,7.92
			c1.464,3.631,6.004,6.796,5.985,10.835c0-0.045,3.495-2.219,3.897-2.811c0.736-1.08,0.871-2.385,1.676-3.447
			c2-2.642,5.648-3.875,8.837-3.876c2.33-0.001,3.196,0.979,4.617,2.49c0.94,1.002,4.388,2.219,6.589,6.418
			c0.996-1.229,1.985-3.213,1.949-4.723c0.37,0.621,1.791,0.595,3.175-0.077c-1.676-1.269-3.091-5.509-2.957-7.522
			c0.097-1.443,2.602-2.643,1.261-6.292c-0.355-0.97-0.586-0.759-0.658-1.796c1.256-0.217,2.038-1.041,3.078-1.734
			C49.013,21.217,49.414,17.354,47.284,14.726z"/>
		<path style="clip-path:url(#SVGID_2_);fill:#FFC999;" d="M32.83,15.488c-7.683,0.864-13.441,7.71-12.595,18.354
			c0.847,10.645,7.872,17.087,15.604,17.142c5.934,0.041,12.882-9.899,11.697-20.511C46.367,20,40.512,14.625,32.83,15.488z"/>
		<path style="clip-path:url(#SVGID_2_);fill:#1A1614;" d="M29.893,31.656c-2.036-0.651-2.93,2.938-1.485,3.941
			c0.604-0.242,1.345-0.247,1.953-0.023C31.604,34.768,31.409,32.144,29.893,31.656z"/>
		<path style="clip-path:url(#SVGID_2_);fill:#1A1614;" d="M44.523,31.186c-2.021-1.057-3.646,3.135-1.418,3.65
			c0.524-0.343,1.166-0.367,1.738-0.309C45.578,33.621,45.606,31.753,44.523,31.186z"/>
		<path style="clip-path:url(#SVGID_2_);fill:#2B241E;" d="M24.44,30.502c0.72-0.386,2.557-0.892,4.676-0.853
			c1.697,0.031,2.532,0.649,2.815-1.249c-1.331,0.345-2.482,0.292-3.835,0.496C26.945,29.069,25.332,29.466,24.44,30.502z"/>
		<path style="clip-path:url(#SVGID_2_);fill:#2B241E;" d="M40.79,28.076c0.381,1.854,1.043,1.146,2.479,0.927
			c1.793-0.273,3.388,0.024,4.025,0.328c-0.831-0.93-2.228-1.146-3.216-1.189C42.916,28.09,41.945,28.271,40.79,28.076z"/>
		<path style="opacity:0.3;clip-path:url(#SVGID_2_);fill:#D14F2E;" d="M37.226,38.097c-0.717,0.081-1.039-0.189-1.509,0.136
			c-0.467,0.327,0.739,1.188,1.618,1.024c0.995-0.184,1.722-1.092,1.42-1.363C38.404,37.577,38.021,38.006,37.226,38.097z"/>
		<path style="clip-path:url(#SVGID_2_);fill:#1A1614;" d="M24.323,32.718c0,0,2.179,1.979,4.61,0.162l-0.313-1.028
			C28.621,31.852,26.722,33.96,24.323,32.718z"/>
		<path style="clip-path:url(#SVGID_2_);fill:#1A1614;" d="M44.577,31.245l-0.287,0.921c2.528,1.712,4.152,0.001,4.152,0.001
			C46.563,33.021,44.577,31.245,44.577,31.245z"/>
		<path style="clip-path:url(#SVGID_2_);fill:#A88686;" d="M28.995,32.274c-0.767,0.347-0.013,1.831,0.707,1.193
			C30.221,33.008,29.678,31.968,28.995,32.274z"/>
		<path style="clip-path:url(#SVGID_2_);fill:#A88686;" d="M43.545,31.623c-0.761,0.196-0.305,1.68,0.458,1.209
			C44.554,32.493,44.221,31.449,43.545,31.623z"/>
		<path style="clip-path:url(#SVGID_2_);fill:#FF946E;" d="M44.123,36.181c-1.221,0.131-2.138,0.903-2.046,1.724
			c0.091,0.823,1.156,1.384,2.377,1.255c1.222-0.132,2.138-0.904,2.047-1.727C46.409,36.61,45.344,36.049,44.123,36.181z"/>
		<path style="clip-path:url(#SVGID_2_);fill:#FF946E;" d="M28.714,36.918c-1.361-0.079-2.511,0.6-2.568,1.517
			c-0.057,0.916,1,1.723,2.36,1.803c1.361,0.079,2.511-0.601,2.568-1.518C31.131,37.804,30.074,36.997,28.714,36.918z"/>
		<path style="opacity:0.3;clip-path:url(#SVGID_2_);fill:#D14F2E;" d="M42.168,15.954c-4.181-0.23-8.563,0.147-12.599,1.283
			c-6.349,1.786-11.116,8.929-10.387,15.537c0.421,3.807,1.835,8.845,6.501,8.446c-0.385-0.541-0.752-1.055-1.119-1.61
			c-2.542-3.85-2.791-9.202-1.408-12.924c0.329,0.477,0.951,1.024,1.437,1.204c0.188-2.813,1.333-3.941,3.847-4.995
			c1.81-0.758,4.247-1.679,6.214-1.801c1.523-0.096,2.971,1.251,4.333,1.897c1.484,0.703,3.167,1.121,4.816,0.849
			c-0.244-0.501-0.531-1.069-0.49-1.624c0.025-0.353,2.127,1.708,2.224,1.834C46.286,25.016,44.403,16.077,42.168,15.954z"/>
		<path style="clip-path:url(#SVGID_2_);fill:#231E1A;" d="M46.841,18.177c-0.605-1.651-1.725-2.882-3.351-3.574
			c-7.518-3.197-15.024-0.967-21.932,2.578c-1.5,0.771-2.752,1.982-3.543,3.469c-1.443,2.716,0.029,9.6,1.513,15.131
			c1.172,4.368,4.763,4.639,4.766,4.639c-3.55-4.434-3.271-14.235-0.408-17.878c-0.554,0.943-0.313,2.773,0.421,3.574
			c0.925-2.453,2.088-3.399,3.927-4.397c2.099-1.138,5.158-2.166,7.543-2.307c0.955,1.67,4.663,3.634,6.62,3.348
			c-0.623-0.41-0.995-1.255-0.63-1.933c1.056,0.429,1.878,0.396,2.803,1.102c0.238,0.181,2.271,1.888,2.277,2.001
			C46.748,22.03,47.498,19.969,46.841,18.177z"/>
		<path style="clip-path:url(#SVGID_2_);fill:#423631;" d="M47.251,16.425c-1.122-1.29-2.845-3.902-6.065-4.521
			c0.996-1.202,2.295-2.175,0.191-3.088c-1.009-0.438-2.49-0.232-3.56-0.155c-0.961,0.069-1.962,0.66-2.919,0.328
			c-0.304-0.105-1.623-0.986-0.983-2.129c-1.74,0.453-3.964,1.15-5.561,1.973c-1.541,0.795-2.743,2.061-4.253,2.9
			c-1.98,1.104-3.909,0.837-6.402,2.567c-1.529,1.062-2.461,3.29-3.032,4.042c1.034-0.519,3.991-1.964,5.113-1.797
			c-1.355,3.329-1.089,5.107-4.164,8.224c6.226,0.732,7.381-4.059,9.568-4.836c-0.103,1.046-0.521,2.022-0.551,3.069
			c2.757-3.762,7.141-4.599,11.431-5.251c0.68,1.129,2.833,2.529,4.138,2.847c-0.081-0.937-0.047-1.878,0.213-2.776
			c1.818,0.172,9.138,4.939,10.649,3.678C48.906,21.456,48.778,18.181,47.251,16.425z"/>
		<path style="clip-path:url(#SVGID_2_);fill:#423631;" d="M22.104,24.096c-2.274,1.724-2.545,3.62-2.806,6.378
			c-0.127,1.33-0.092,2.7,0.303,3.985c0.372,1.209,1.07,2.729,2.352,3.599c-0.674-2.034-1.267-6.369-0.953-8.507
			C21.329,27.306,21.757,26.147,22.104,24.096z"/>
		<path style="opacity:0.5;clip-path:url(#SVGID_2_);fill:#C84F36;" d="M29.38,41.849c2.382,4.617,5.016,5.825,7.75,5.411
			c2.938-0.444,4.153-2.237,4.546-4.083c0.167-0.78,0.896-2.14,1.533-2.29c-1.735,0.025-3.197,0.268-6.371,0.634
			C34.213,41.823,31.559,42.082,29.38,41.849z"/>
		<path style="clip-path:url(#SVGID_2_);fill:#7E2420;" d="M29.915,42.262c0,0,2.34,3.777,6.555,3.524
			c2.699-0.164,4.413-1.236,4.825-2.614c0.451-1.508,1.565-2.131,1.565-2.131C35.644,43.53,29.915,42.262,29.915,42.262z"/>
		<path style="clip-path:url(#SVGID_2_);fill:#FFF7EB;" d="M31.501,42.481c0,0,0.174,0.784,1.698,1.072
			c1.953,0.369,4.023,0.229,6.139-0.259c1.424-0.329,2.047-1.788,2.047-1.788S37.332,42.768,31.501,42.481z"/>
		<path style="clip-path:url(#SVGID_2_);fill:#FFF7EB;" d="M37.671,44.807c-1.638,0.264-3.042,0.204-3.911-0.146
			c-0.619-0.248-0.637,0.106-0.487,0.309c0,0,0.646,1.074,3.4,0.985c2.646-0.083,3.862-1.622,3.539-1.82
			S39.188,44.563,37.671,44.807z"/>
		<path style="clip-path:url(#SVGID_2_);fill:#E8DAC5;" d="M31.501,42.481c0,0,0.135,0.502,0.571,0.665c0,0,6.946-1.186,8.707-0.731
			c0,0,0.545-0.56,0.605-0.908C41.385,41.507,36.409,42.794,31.501,42.481z"/>
		<path style="clip-path:url(#SVGID_2_);fill:#E8DAC5;" d="M34.269,44.867c1.889,0.709,3.912,0.376,4.86-0.455
			C37,45.127,35.571,45.009,34.269,44.867z"/>
		<path style="clip-path:url(#SVGID_2_);fill:#D9C9B2;" d="M46.205,10.4c-5.863-6.112-17.861-7.522-26.021-2.937
			c-9.467,5.322-12.322,14.293-7.665,14.438c-0.413,1.458-0.788,5.758-0.079,9.561c1.558,8.348,7.845,11.134,7.359,9.297
			c-0.147-0.561-1.64-1.829-1.777-7.093c-0.543-20.719,22.692-22.288,31.769-13.666c0.71,0.676,0.743,0.638,1.44,1.036
			c0.395,0.228-0.125-2.013-0.412-2.909C49.884,15.215,48.33,12.615,46.205,10.4z"/>
		<path style="clip-path:url(#SVGID_2_);fill:#F2E4CE;" d="M45.148,10.971c-5.107-3.309-12.033-3.709-17.431-2.487
			c-7.124,1.611-12.364,7.965-14.163,14.781c-0.617,2.34-0.797,4.908-0.355,7.301c0.226,1.223,0.614,3.05,1.251,4.119
			c1.131,1.896,2.308,0.3,2.542-1.177c0.202-1.276,0.058-2.528,0.121-3.805c0.373-7.419,6.281-13.458,13.116-15.455
			c3.076-0.899,9.618-1.03,12.644,0.048c5.331,1.9,7.502,6.219,7.247,3.697C49.895,15.772,47.46,12.468,45.148,10.971z"/>
		<path style="clip-path:url(#SVGID_2_);fill:#F2E4CE;" d="M39.571,7.16C34.616,4.99,26.197,4.543,18.236,9.6
			c-1.701,1.08-4.067,3.623-5.131,5.68c-0.376,0.729-1.677,3.004-1.098,3.839c0.911,1.314,3.505-2.912,4.006-3.531
			c1.723-2.13,3.723-4.306,6.108-5.669C30.716,5.009,40.862,8.165,39.571,7.16z"/>
	</g>
</g>
<g id="Layer_1">
</g>
</svg>
