<?xml version="1.0" encoding="iso-8859-1"?>
<!-- Generator: Adobe Illustrator 16.0.0, SVG Export Plug-In . SVG Version: 6.00 Build 0)  -->
<!DOCTYPE svg PUBLIC "-//W3C//DTD SVG 1.1//EN" "http://www.w3.org/Graphics/SVG/1.1/DTD/svg11.dtd">
<svg version="1.1" xmlns="http://www.w3.org/2000/svg" xmlns:xlink="http://www.w3.org/1999/xlink" x="0px" y="0px" width="66px"
	 height="66px" viewBox="0 0 66 66" style="enable-background:new 0 0 66 66;" xml:space="preserve">
<g id="Layer_111">
	<g>
		<defs>
			<circle id="SVGID_1_" cx="33" cy="33" r="33"/>
		</defs>
		<clipPath id="SVGID_2_">
			<use xlink:href="#SVGID_1_"  style="overflow:visible;"/>
		</clipPath>
		<rect style="clip-path:url(#SVGID_2_);fill:#FFFFFF;" width="66" height="66"/>
		<path style="clip-path:url(#SVGID_2_);fill:#EBEBEB;" d="M25.466,52.822C22.074,54.53,21.777,62.371,22.349,66h21.523
			c0.652-3.766,0.43-12.104-2.894-13.486C36.011,50.447,28.768,51.16,25.466,52.822z"/>
		<path style="clip-path:url(#SVGID_2_);fill:#FBFBFB;" d="M33.03,58.619c2.315,0.042,12.144-5.24,5.237-10.378
			c-1.986-1.478-5.858-1.715-8.23-1.231c-2.473,0.501-4.116,2.674-4.288,4.912C25.536,54.756,29.959,58.544,33.03,58.619z"/>
		<path style="clip-path:url(#SVGID_2_);fill:#FFB67D;" d="M33.114,56.672c1.888,0.033,9.902-4.273,4.271-8.463
			c-1.619-1.205-4.777-1.399-6.713-1.006c-2.017,0.409-3.355,2.182-3.496,4.006C27.001,53.521,30.608,56.61,33.114,56.672z"/>
		<path style="clip-path:url(#SVGID_2_);fill:#255794;" d="M49.8,66c0-0.247,0.271-4.372,0.084-6.219
			c-0.253-2.502-1.922-5.206-6.509-6.654l-2.015,4.307C43.731,58.617,44.054,66,44.054,66H49.8z"/>
		<path style="clip-path:url(#SVGID_2_);fill:#255794;" d="M40.388,52.127c0,0,4.527,1.297,4.946,2.141
			c0.19,0.385-0.14,8.311-0.611,11.732h-6.131C38.825,63.117,39.354,54.726,40.388,52.127z"/>
		<path style="clip-path:url(#SVGID_2_);fill:#4E84C7;" d="M39.533,55.368c0.518-0.69,3.563,2.909,3.247,3.519
			c-0.095,0.182-3.061,6.186-3.408,7.113h-0.933C38.631,63.538,39.005,56.072,39.533,55.368z"/>
		<path style="clip-path:url(#SVGID_2_);fill:#4E84C7;" d="M40.407,51.291c2.443,1.115,3.565,4.143,3.509,4.76
			c-0.056,0.615-4.653,1.156-4.595,0.521C39.401,55.703,40.407,51.291,40.407,51.291z"/>
		<path style="clip-path:url(#SVGID_2_);fill:#255794;" d="M25.84,52.127c0,0-4.526,1.297-4.945,2.141
			c-0.19,0.385,0.139,8.311,0.611,11.732h6.131C27.403,63.117,26.873,54.726,25.84,52.127z"/>
		<path style="clip-path:url(#SVGID_2_);fill:#255794;" d="M16.428,66c0-0.247-0.271-4.372-0.084-6.219
			c0.253-2.502,1.922-5.206,6.51-6.654l2.014,4.307C22.496,58.617,22.174,66,22.174,66H16.428z"/>
		<path style="clip-path:url(#SVGID_2_);fill:#4E84C7;" d="M26.695,55.368c-0.518-0.69-3.564,2.909-3.248,3.519
			c0.095,0.182,3.062,6.186,3.408,7.113h0.934C27.598,63.538,27.223,56.072,26.695,55.368z"/>
		<path style="clip-path:url(#SVGID_2_);fill:#4E84C7;" d="M25.82,51.291c-2.443,1.115-3.565,4.143-3.509,4.76
			c0.056,0.615,4.653,1.156,4.595,0.521C26.827,55.703,25.82,51.291,25.82,51.291z"/>
		<path style="clip-path:url(#SVGID_2_);fill:#4F2619;" d="M47.093,7.022c-0.393-1.09-0.974-2.102-1.83-2.862
			c-1.461,2.961-5.497,4.569-8.623,4.025c0.438-0.384,0.766-0.912,0.754-1.504C36.15,6.944,35,7.53,33.744,7.765
			c-4.982,0.93-9.954,1.066-14.134,4.43c-5.89,4.742-5.013,12.447-3.831,18.938c0.641,3.513,1.215,7.477,2.854,10.68
			c1.187,2.323,2.374,1.346,4.115,0.426c2.256-1.188,5.585-1.391,8.086-1.509c2.579-0.122,6.342-0.335,8.735,0.79
			c1.568,0.736,2.396,1.334,3.999,0.105c1.167-0.895,2.033-2.331,2.636-3.651c0.97-2.126,1.002-4.259,1.187-6.546
			c0.238-2.952,1.004-5.392,0.767-8.354c-0.083-1.038-1.346-5.006,0.957-8.363c-0.806,0.082-1.627,0.24-2.422,0.442
			c1.525-0.389,1.175-4.209,1.055-5.221C47.634,8.979,47.435,7.97,47.093,7.022z"/>
		<path style="clip-path:url(#SVGID_2_);fill:#FFCB9E;" d="M17.615,38.484c1.09,8.003,7.262,16.781,16.56,16.121
			C43.66,53.93,48.38,42.164,47.153,32.323c-1.331-10.699-6.398-19.619-17.491-17.456C21.743,16.412,16.161,27.8,17.615,38.484z"/>
		<path style="opacity:0.15;clip-path:url(#SVGID_2_);fill:#BF3C1B;" d="M30.808,23.442c-2.066-0.587-4.92-1.091-6.9-0.367
			c-2.807,1.025-3.264,4.839-4.46,7.21c-0.742-0.677-1.44-1.834-1.658-2.795c-0.284-1.255-0.312-2.636-0.372-3.915
			c-0.065-1.394-0.188-2.954,0.266-4.297c0.553-1.639,2.372-2.558,3.854-3.229c2.694-1.22,5.836-1.058,8.728-1.007
			c3.259,0.057,6.484,0.574,9.604,1.508c2.06,0.617,5.934,1.166,6.648,3.561c0.901,3.025-3.489,4.093-5.653,4.626
			c-3.859,0.95-6.066-0.085-9.64-1.172C31.088,23.523,30.951,23.483,30.808,23.442z"/>
		<path style="clip-path:url(#SVGID_2_);fill:#FFCB9E;" d="M15.701,41.922c1.018,0.365,2.099,0.416,3.142,0.343
			c0.02-0.031,0.04-0.063,0.063-0.097c0.464-0.738-0.187-4.878-0.425-5.657c-0.598-1.962-1.762-2.991-3.628-2.477
			C10.963,35.104,12.524,40.782,15.701,41.922z"/>
		<path style="opacity:0.3;clip-path:url(#SVGID_2_);fill:#BF3C1B;" d="M17.206,40.52c1.417-0.891,0.078-3.904-0.989-4.395
			c-0.873-0.404-3.056,0.322-2.029,2.031c0.541-1.584,1.506-0.547,1.358,0.58c-0.099,0.754-0.91,0.766-0.104,1.734
			C15.878,40.995,16.762,40.8,17.206,40.52z"/>
		<path style="clip-path:url(#SVGID_2_);fill:#4F2619;" d="M41.171,12.672c-3.343-2.834-7.325-3.289-11.526-2.317
			c-2.566,0.595-5.495,0.946-7.634,2.603c-1.741,1.347-3.605,2.785-4.829,4.645c-2.045,3.108-1.018,15.41,0.333,17.222
			c0.146,0.195,1.779,2.22,2.543,2.161c-0.389-2.646-0.405-5.37-0.216-8.035c0.255-3.579,1.08-7.442,5.163-8.087
			c2.322-0.368,9.701,2.809,11.385,3.165c2.256,0.476,7.548-2.048,8.316-2.367c1.897-0.789,1.786-2.958,0.895-4.445
			C44.498,15.38,42.785,14.041,41.171,12.672z"/>
		<path style="clip-path:url(#SVGID_2_);fill:#FFA073;" d="M46.662,37.572c0.063,0.227,0.087,0.489,0.063,0.791
			c-0.218,2.92-5.306,1.922-5.58,0.65c-0.511-2.387,1.45-2.965,2.792-2.932C44.964,36.106,46.336,36.363,46.662,37.572z"/>
		<path style="clip-path:url(#SVGID_2_);fill:#FFA073;" d="M26.378,36.987c0.135,0.204,0.242,0.452,0.316,0.749
			c0.716,2.902-4.673,3.416-5.353,2.26c-1.273-2.168,0.497-3.303,1.844-3.66C24.219,36.059,25.67,35.908,26.378,36.987z"/>
		<path style="clip-path:url(#SVGID_2_);fill:#305D80;" d="M25.34,35.45c-0.604-0.294-1.373-0.363-2.021-0.173
			c-1.392-1.184-0.107-4.803,1.934-3.927C26.771,32.006,26.71,34.74,25.34,35.45z"/>
		<path style="opacity:0.3;clip-path:url(#SVGID_2_);fill:#B54D26;" d="M37.757,38.186c-0.508-0.625-1.225,0.068-2.547,0.082
			c-1.194,0.015-1.666-0.529-2.501-0.032c-0.836,0.494,0.358,2.085,2.47,2.009C37.28,40.169,38.195,38.725,37.757,38.186z"/>
		<path style="clip-path:url(#SVGID_2_);fill:#FFDFC2;" d="M34.824,32.343c-1.248,0.177-2.339,5.985-1.826,6.391
			c1.257,0.991,3.882,0.289,4.646-0.508C37.946,37.911,36.949,32.04,34.824,32.343z"/>
		<path style="clip-path:url(#SVGID_2_);fill:#305D80;" d="M44.905,31.506c1.113,0.669,1.104,2.967,0.271,3.889
			c-0.528-0.245-1.617-0.355-2.16,0.002C41.303,34.266,42.83,30.26,44.905,31.506z"/>
		<path style="clip-path:url(#SVGID_2_);fill:#86BAE3;" d="M24.525,31.96c0.737-0.249,1.193,0.882,0.609,1.306
			C24.327,33.852,23.697,32.242,24.525,31.96z"/>
		<path style="clip-path:url(#SVGID_2_);fill:#86BAE3;" d="M44.094,31.967c0.727-0.146,1.017,0.986,0.411,1.314
			C43.668,33.739,43.277,32.131,44.094,31.967z"/>
		<path style="clip-path:url(#SVGID_2_);fill:#F7A286;" d="M43.837,41.388c-0.572-0.393-1.256-0.71-1.82-1.054
			c0.052,0.258,0.022,0.424,0.289,0.684c-2.424,0.145-4.859,0.336-7.294,0.443c-1.61,0.074-3.219,0.189-4.832,0.217
			c-1.181,0.02-3.418,0.249-4.344-0.404c0.301-0.113,0.641-0.279,0.852-0.492c-0.848-0.059-3.152,0.75-4.286,1.721
			c0.899-0.372,2.098-0.906,2.906-0.134c1.275,1.214,2.683,2.555,4.389,3.686c3.403,2.253,10.047,1.979,11.822-2.332
			c0.155-0.378,0.944-1.64,1.501-1.774c0.26-0.064,1.751,0.342,1.826,0.494C44.637,42.02,44.269,41.683,43.837,41.388z"/>
		<path style="clip-path:url(#SVGID_2_);fill:#8F3935;" d="M26.031,41.902c0,0,7.415,1.595,17.046-0.486
			c0,0-1.502,0.559-2.203,2.041c-0.639,1.357-2.96,2.332-6.509,2.342C28.827,45.813,26.031,41.902,26.031,41.902z"/>
		<path style="clip-path:url(#SVGID_2_);fill:#FFF9F0;" d="M28.094,42.217c0,0,0.186,1.195,2.162,1.622
			c2.535,0.547,5.258,0.532,8.063,0.128c1.891-0.27,2.794-2.17,2.794-2.17S35.716,42.935,28.094,42.217z"/>
		<path style="clip-path:url(#SVGID_2_);fill:#FFF9F0;" d="M29.048,43.929c-0.2-0.309-0.124-0.813,0.787-0.364
			c1.276,0.633,3.384,0.73,5.915,0.607c2.347-0.113,3.526-0.69,3.991-0.359c0.468,0.332-1.598,2.332-5.643,2.045
			C29.89,45.558,29.048,43.929,29.048,43.929z"/>
		<path style="clip-path:url(#SVGID_2_);fill:#E8DAC5;" d="M28.609,43.051c0,0,9.465-0.82,11.741-0.191c0,0,0.658-0.676,0.762-1.063
			c0,0-6.607,1.104-13.019,0.42C28.094,42.217,28.243,42.77,28.609,43.051z"/>
		<path style="clip-path:url(#SVGID_2_);fill:#E8DAC5;" d="M30.593,43.794c0,0,3.201,0.981,7.469,0.118
			C38.062,43.912,34.013,45.37,30.593,43.794z"/>
		<path style="clip-path:url(#SVGID_2_);fill:#4F2619;" d="M20.739,29.978c1.741-2.099,6.521-2.341,7.914,0.15
			C25.947,30.263,24.635,30.047,20.739,29.978z"/>
		<path style="clip-path:url(#SVGID_2_);fill:#4F2619;" d="M47.431,30.075c-1.489-2.089-5.606-2.306-6.822,0.192
			C42.939,30.389,44.071,30.165,47.431,30.075z"/>
		<path style="clip-path:url(#SVGID_2_);fill:#784430;" d="M29.442,9.746c1.704-0.38,3.446-0.581,5.296-0.554
			c3.425,0.05,8.062,0.339,10.408-2.717c2.318,2.669,2.104,7.773-0.438,10.327c-0.014,0.014-0.009,0.007,0.017-0.021
			c0.771-0.3,1.729-0.532,2.592-0.539c0.454,2.13-4.182,3.796-6.862,5.467c0.438-1.115,1.596-2.806,1.931-4.195
			c-0.503,0.358-5.586,4.061-5.915,4.637c-0.412-0.446,6.098-8.113,6.185-8.805c-0.406,0.202-8.203,7.466-8.604,7.932
			c-0.737-0.893,3.571-6.095,3.898-7.192c-0.373,0.104-8.237,4.951-8.221,5.005c-0.264-0.88,2.55-3.18,3.045-3.93
			c-0.193,0.015-6.467,2.619-6.4,2.976c-0.125-0.669-0.061-1.365,0.115-1.998c-3.712,0.147-6.864,1.759-9.105,4.63
			c0.22-0.281,0.009-2.321,0.153-2.875c0.239-0.923,0.638-1.89,1.124-2.711c0.934-1.578,2.441-2.362,4.089-3.101
			C25.021,11.062,27.199,10.248,29.442,9.746z"/>
	</g>
</g>
<g id="Layer_1">
</g>
</svg>
